<svg width="128" height="128" viewBox="0 0 128 128" fill="none" xmlns="http://www.w3.org/2000/svg">
<path d="M66.0859 83.9147L47.1155 72.9644L65.9691 62.0841L84.9337 73.0344L66.0859 83.9147Z" fill="#BFB0FE"/>
<path d="M84.9336 73.0344L66.0858 83.9147V104.975L84.9336 94.0886V73.0344Z" fill="#6634FA"/>
<path d="M47.1154 72.9642L66.0858 83.9145V104.975L47.1154 94.0243V72.9642Z" fill="#3F13C2"/>
<path d="M46.596 42.7927C45.7671 39.8275 45.271 37.913 44.2962 33.1032C44.0335 31.8074 43.9576 30.4532 44.1036 29.1341C44.2495 27.8032 44.7982 26.7292 45.557 25.6143C45.9014 25.1065 46.3567 24.5753 46.9696 24.5286C47.5299 24.4878 48.0144 24.873 48.4055 25.2641C50.7461 27.6164 51.7618 31.1478 51.9661 34.3874C52.1587 37.4051 52.6432 38.6368 52.8124 41.6662C52.8416 42.2441 52.9117 42.8569 52.83 43.4348C52.4272 46.1724 51.9194 45.7988 50.215 44.719C49.3803 44.1878 47.0571 44.4038 46.6018 42.7927H46.596Z" fill="#E6EFFF"/>
<path d="M60.4182 56.4164C59.3325 56.539 58.1709 55.6985 57.2954 54.9863C55.1765 53.2703 47.3724 46.2191 46.5085 42.2849C46.2925 41.2926 47.3665 40.8782 48.2012 40.1836C48.8258 39.6583 52.2755 40.6914 52.9234 41.4736C53.9391 42.6994 59.064 48.6415 61.7724 52.634C62.1284 53.1593 62.4787 53.7372 62.502 54.3268C62.537 55.2724 61.2645 56.3289 60.424 56.4223L60.4182 56.4164Z" fill="#E6EFFF"/>
<path d="M28.3084 88.6834C28.2851 88.9169 28.5185 89.3197 28.5944 89.5356C28.7462 89.9618 28.9446 90.3995 29.0672 90.8315C29.5925 92.6526 29.8727 94.3746 29.9661 96.2833C30.0187 97.3339 30.363 98.513 29.6451 99.4236C28.9446 100.311 27.427 100.825 26.3238 100.556C25.1447 100.276 24.7711 98.945 24.5026 97.9235C24.1291 96.4876 23.9423 94.9583 23.7205 93.4815C23.5804 92.5476 23.487 91.5845 23.6913 90.6622C23.808 90.1485 24.024 89.6524 24.345 89.238C24.5143 89.022 24.7069 88.8235 24.9346 88.6659C25.1564 88.5083 25.3549 88.4558 25.5183 88.234C25.8218 87.8137 26.0728 87.2826 26.5048 86.9674C26.8725 86.6988 27.4795 86.8097 27.8414 87.0549C28.2442 87.3234 28.501 87.7787 28.6003 88.2515C28.5769 88.3974 28.3376 88.5025 28.3026 88.6426C28.3026 88.6543 28.3026 88.6659 28.2967 88.6776L28.3084 88.6834Z" fill="#2A0B88"/>
<path d="M37.28 86.4595C37.7236 86.7222 38.1322 87.0432 38.57 87.3117C39.0019 87.5802 39.4514 87.7845 39.8775 88.0589C40.8173 88.6718 41.792 89.238 42.7902 89.7575C43.5432 90.1485 44.3137 90.5163 45.0258 90.9891C45.5803 91.3568 46.094 91.7888 46.5025 92.3199C46.7244 92.6118 46.8177 92.7811 46.7535 93.1488C46.6952 93.4757 46.5492 93.785 46.3975 94.0769C46.1056 94.6314 45.7612 95.1976 45.2067 95.4894C44.6755 95.7755 44.0276 95.7579 43.4439 95.6003C42.5684 95.3669 41.6053 94.8415 40.9574 94.2053C40.2686 93.5224 39.4981 92.997 38.5525 92.7402C37.7995 92.5359 36.9882 92.5009 36.3052 92.1215C35.704 91.7829 35.2721 91.1759 35.1203 90.5046C34.9394 89.7224 35.1787 88.8994 35.0444 88.0997C34.9569 87.5919 36.0075 87.1016 36.0893 86.5704C36.1535 86.121 35.4063 85.7182 35.8266 85.6307C36.2994 85.5315 36.7955 85.6715 37.2041 85.9284L37.2858 86.4537L37.28 86.4595Z" fill="#2A0B88"/>
<path d="M36.4219 67.8977L44.0568 69.964C44.2903 71.1956 44.0276 72.3572 43.8992 73.3028C43.4556 76.5307 41.7044 87.5335 40.9982 89.1329C40.6421 89.9384 40.2102 90.2419 39.2821 90.3878C38.424 90.5279 37.531 90.4345 36.7138 90.166C35.9316 89.9092 35.0561 89.5123 34.665 88.7534C34.0988 87.6502 36.4044 68.207 36.4219 67.8918V67.8977Z" fill="#3F13C2"/>
<path d="M41.3834 57.1984C41.7687 58.9495 44.4479 69.3161 44.0509 71.289C43.5606 73.7231 37.6302 73.7055 37.4025 72.0478C36.7021 66.8995 29.5517 57.0174 28.6995 52.1668C27.8239 47.1878 35.3537 41.8353 36.8072 41.0531C37.7411 45.9037 39.644 49.2658 41.3776 57.1984H41.3834Z" fill="#3F13C2"/>
<path d="M32.2251 74.6162C31.7873 78.1068 30.8651 89.1913 30.1413 90.9249C29.7794 91.7946 29.3299 92.1157 28.361 92.2733C27.4738 92.4192 26.534 92.3141 25.6818 92.0165C24.8646 91.7363 23.8606 91.3394 23.5338 90.4813C23.3878 90.0902 23.4754 80.0505 23.6738 77.1612C23.7906 75.4684 24.707 69.4329 25.0747 68.9017C25.781 67.8861 25.3841 63.6718 25.3841 63.6718C25.3841 63.6718 30.5032 65.9657 31.4488 66.8938C33.7953 69.2111 32.4469 72.8534 32.2251 74.6104V74.6162Z" fill="#6634FA"/>
<path d="M37.1166 48.7348C37.3909 48.9507 37.7528 47.7833 38.0622 48.5772C38.2139 48.9624 37.852 49.2017 37.7061 49.4936C37.4785 49.9489 37.4493 50.5559 37.3092 51.0462C36.9881 52.1845 35.9842 52.9141 35.1436 53.6787C33.8653 54.8461 32.552 56.1712 31.6531 57.6654C30.5674 59.4632 31.192 61.4945 31.4955 63.4616C31.8457 65.7497 32.517 67.6001 32.7796 69.8999C32.803 70.1217 26.3764 75.2291 26.0262 74.4761C25.3724 73.0752 24.7245 71.7269 24.1817 70.2735C23.0201 67.1565 21.3799 60.8992 20.7145 57.6246C20.1424 54.8053 19.4887 51.163 20.6211 48.4312C21.2865 46.826 22.5181 44.7831 23.9949 43.7674C24.7595 43.2421 25.6117 42.7401 26.4231 42.2673C26.5398 42.1973 28.0341 41.491 28.0283 41.4326C28.4485 46.3532 33.3225 45.787 37.1049 48.7348H37.1166Z" fill="#6634FA"/>
<path d="M27.1936 38.3389C28.1917 36.5119 28.7754 34.4223 29.7561 32.5836C30.6783 30.8441 31.729 28.9238 33.0598 27.4645C34.8985 25.4507 37.2742 23.4661 40.0117 22.8007C42.1773 22.2754 44.3895 22.1353 46.2749 23.4486C47.1971 24.0965 48.3704 25.0188 48.8724 25.9994C49.4327 27.0968 49.4269 28.3225 49.4969 29.4608C49.5962 31.1126 49.5553 32.5427 49.0358 34.0545C48.2186 36.4302 46.5901 38.3798 45.2709 40.4811C43.9576 42.5766 42.8894 44.7071 41.9321 47.0069C41.5644 47.8941 41.1383 48.7931 40.8815 49.7153C40.6071 50.7076 40.7063 52.0034 40.1577 52.8965C39.358 54.1923 37.4726 54.1515 36.1593 54.1048C34.2856 54.0347 32.4002 53.8071 30.6433 53.1066C28.9914 52.4471 27.6139 51.7057 26.2363 50.5267C20.8487 45.8979 23.8139 43.9483 24.4327 42.635C25.0572 41.3041 27.0885 38.549 27.1994 38.3389H27.1936Z" fill="#BFB0FE"/>
<path d="M39.9651 47.9876C40.3211 48.548 40.7356 49.2134 41.0858 49.7679C42.1073 48.904 42.154 48.8223 43.1288 47.9351C45.1425 41.5318 46.7361 35.438 47.1096 28.8246C46.3858 29.0639 46.0239 29.1806 45.2943 29.4141C44.2436 35.5255 42.8252 41.7887 39.9709 47.9818L39.9651 47.9876Z" fill="#DA401C"/>
<path d="M24.1116 43.1547C23.2069 44.468 21.5025 46.4701 26.2305 50.5327C27.608 51.7176 28.9855 52.4589 30.6374 53.1127C32.3944 53.8131 34.2797 54.0408 36.1534 54.1108C37.4668 54.1575 39.3521 54.1984 40.1518 52.9025C40.3911 52.5173 40.4962 52.0503 40.5779 51.5658C33.5735 54.1166 25.9678 49.7972 24.1174 43.1547H24.1116Z" fill="#252956"/>
<path d="M25.2557 45.8338C25.028 45.4369 24.8179 45.0283 24.6369 44.6022C23.633 45.396 23.3003 46.0556 23.0201 46.8961C23.1368 47.3398 23.417 47.8359 23.7672 48.3729C23.8898 47.3164 24.5494 46.3008 25.2557 45.8338Z" fill="#3C4384"/>
<path d="M31.5306 51.3324C31.0461 51.7468 30.8593 52.7449 30.7426 53.4746C31.0461 53.5855 31.5014 53.673 31.8107 53.7548C31.9508 53.2002 32.266 52.3597 32.5637 51.6943C32.2543 51.595 31.8282 51.4491 31.5306 51.3265V51.3324Z" fill="#3C4384"/>
<path d="M56.3321 59.8485L75.717 48.6589L56.4547 37.5393L37.0699 48.7289L56.3321 59.8485Z" fill="#08EC9C"/>
<path d="M37.0699 48.7289L56.3321 59.8484V81.3696L37.0699 70.2442V48.7289Z" fill="#038F5E"/>
<path d="M75.717 48.6589L56.3322 59.8486V81.3697L75.717 70.1743V48.6589Z" fill="#04C984"/>
<path d="M41.7045 64.3839C41.9322 64.3839 41.938 64.2497 41.8971 64.0629C41.8621 63.917 41.8096 63.771 41.7804 63.6193C41.7804 63.6018 41.7104 63.2223 41.7804 63.2457C41.868 63.269 41.9322 63.3624 41.9905 63.4266C42.0723 63.52 42.1365 63.6251 42.2123 63.7243C42.2824 63.8061 42.3291 63.9053 42.3875 63.9928C42.4517 64.0921 42.4925 64.1679 42.5392 64.2672C42.5742 64.3489 42.6443 64.4248 42.7027 64.489C42.8194 64.6174 42.9887 64.7283 43.1638 64.6291C43.4031 64.489 43.2163 64.1913 43.1638 64.0045C43.1346 63.8936 42.8953 63.5784 42.9887 63.4733C43.0762 63.3741 43.444 63.6893 43.5082 63.7477C43.7708 63.9753 44.0102 64.2847 44.3487 64.4131C44.5588 64.4948 44.9091 64.5298 44.7982 64.1971C44.7281 63.9753 44.5413 63.8411 44.3954 63.6718C44.2086 63.4558 44.0277 63.234 43.8409 63.0122C43.7942 62.9597 43.5082 62.662 43.5432 62.6095C43.5724 62.5744 43.7066 62.6211 43.7358 62.627C43.9693 62.6912 44.1969 62.7612 44.4187 62.8546C44.5939 62.9305 44.7573 63.0356 44.9324 63.1173C45.1192 63.199 45.5978 63.4266 45.7262 63.1348C45.843 62.8604 45.3643 62.5336 45.1776 62.4168C44.7865 62.1717 44.4363 61.9207 44.1094 61.5938C43.6833 61.1794 43.3272 60.7007 43.1988 60.117C43.1521 59.8836 43.1696 59.5625 43.3389 59.3816C43.7358 59.6092 43.981 59.9711 44.2845 60.3505C44.5355 60.6599 44.8157 60.9517 45.2359 60.9751C45.4344 60.9868 45.7554 61.0335 45.878 60.8233C45.9889 60.6249 45.8838 60.4031 45.7321 60.263C45.5803 60.1229 45.3819 60.0412 45.2418 59.8894C45.1075 59.7435 45.0024 59.5859 44.9091 59.4108C44.7398 59.1014 44.6055 58.757 44.4129 58.4652C44.2144 58.1675 43.9401 57.934 43.6366 57.753C43.5257 57.6888 43.4148 57.6363 43.3039 57.5721C43.0412 57.4262 42.7902 57.251 42.5509 57.0701C41.868 56.5564 41.4535 55.64 40.864 55.0038C40.3328 54.4318 39.7958 55.0038 39.3697 55.4766C39.0078 55.8852 38.8911 56.2529 38.9378 56.7899C38.9786 57.2627 39.1888 57.6772 39.3055 58.1266C39.3872 58.436 39.4281 58.7745 39.4748 59.0956C39.4923 59.2123 39.5098 59.3232 39.5215 59.4399C39.5682 59.831 39.6324 60.2163 39.7024 60.6015C39.79 61.0977 39.9301 61.5821 40.111 62.0549C40.2861 62.5044 40.5371 62.9013 40.7414 63.3332C40.7939 63.45 40.8465 63.5667 40.899 63.6835C41.0508 64.0103 41.3309 64.3839 41.722 64.3898L41.7045 64.3839Z" fill="#FFC7AD"/>
<path d="M32.0909 42.2731C32.2485 38.7125 32.6162 35.1752 33.0306 31.6205C33.1882 30.3071 33.41 28.9004 33.9587 27.6921C34.5132 26.4722 35.2195 25.6375 36.2877 24.8086C36.7722 24.4351 37.6302 24.2541 38.2431 24.3067C38.8969 24.3592 39.5973 24.6744 39.8425 25.1647C41.3309 28.1299 40.7238 32.0874 39.9067 35.2278C39.4806 36.868 39.2996 38.5666 39.0895 40.2418C38.9844 41.0765 38.6517 43.995 38.6867 44.6254C38.7101 45.0982 42.6267 54.776 42.5859 55.9434C42.5508 57.0058 41.2842 57.8989 40.3911 58.1965C39.8775 58.3658 39.2821 58.325 38.7684 58.1557C38.2489 57.9806 38.0271 57.537 37.7645 57.0758C37.3267 56.3053 32.6395 46.7968 32.4995 46.3298C32.3652 45.8804 32.1959 45.3726 32.1259 44.9114C32.0675 44.5554 32.0325 44.1876 32.0208 43.8257C32.0208 43.6448 32.0675 42.6058 32.0792 42.2614L32.0909 42.2731Z" fill="#E6EFFF"/>
<path d="M44.0393 25.1705C44.3311 25.9001 44.7981 26.5714 45.3351 27.1551C45.913 27.7913 46.952 29.0113 47.9151 28.5268C48.2128 28.3809 48.4871 28.1766 48.7381 27.9489C50.0106 26.7757 50.6468 24.7035 49.9872 23.1392C49.6954 22.4388 49.1467 21.8317 48.6039 21.3122C48.1486 20.8628 47.6524 20.0047 46.9111 20.0923C46.5025 20.139 46.2515 20.39 46.0647 20.6935C45.9655 20.8569 45.8779 21.0145 45.7904 21.1838C45.481 21.785 44.7923 22.1236 44.2903 22.5613C44.0977 22.7248 43.8525 22.859 43.7066 23.0692C43.2746 23.6937 43.7883 24.5635 44.0451 25.1705H44.0393Z" fill="#FFC7AD"/>
<path d="M47.6641 20.3315C48.0202 20.6 48.3179 21.032 48.6039 21.3122C49.1468 21.8317 49.6954 22.4387 49.9873 23.1392C50.6469 24.7035 50.0106 26.7815 48.7382 27.9489C48.4872 28.1765 48.2128 28.3808 47.9151 28.5268C47.7459 28.6143 47.5707 28.6318 47.3956 28.626C46.0064 25.9234 45.3118 23.1917 47.6641 20.3374V20.3315Z" fill="#F3A984"/>
<path d="M47.9559 29.239C47.9267 29.4491 47.6699 29.6417 47.5415 29.7877C47.273 30.0912 46.9694 30.3714 46.6484 30.6224C46.4733 30.7566 46.2748 30.8909 46.0472 30.8967C45.6328 30.8967 45.2884 30.4414 45.0666 30.1379C44.9557 29.9861 44.8739 29.8402 44.8214 29.6593C44.6521 29.0872 45.3643 28.667 45.8662 28.5852C46.1581 28.5385 46.4032 28.4977 46.6893 28.4335C47.0161 28.3634 47.5415 28.3343 47.7283 28.6611C47.81 28.8071 47.9617 29.023 47.9559 29.239Z" fill="#B63416"/>
<path d="M46.9696 28.375C46.8995 28.7894 47.3139 29.1513 47.5182 29.5191C47.6116 29.6767 47.9327 30.1086 48.1311 30.1611C48.3296 30.2137 48.5631 30.0269 48.6973 29.9101C49.6838 29.0521 50.5535 28.0656 51.1547 26.8982C51.3473 26.5305 51.2948 25.8942 51.1372 25.4857C50.9971 25.1179 50.571 24.8436 50.1799 24.8261C49.7597 24.8027 49.3394 25.439 49.3044 25.8125C49.1818 27.155 48.0319 28.194 46.9696 28.3808V28.375Z" fill="#E6EFFF"/>
<path d="M47.0104 28.4159C47.0104 28.4159 46.0298 29.0055 45.0666 29.2623C44.8273 29.3265 44.3487 29.5074 44.0335 29.1922C43.1346 28.2933 41.4944 25.2464 41.7045 22.468C41.7045 22.468 42.3232 22.3454 43.0587 22.3921C43.6599 22.4271 44.1444 22.4796 44.2903 22.573C44.302 22.6606 43.9809 23.5011 44.0802 24.2483C44.3078 25.976 45.5686 27.4295 47.0104 28.4159Z" fill="#E6EFFF"/>
<path d="M46.3916 23.8864C46.4325 24.6802 46.5317 25.118 46.8528 25.8534C47.4423 27.2076 48.4755 27.733 48.7031 27.9198L48.7381 27.9489C50.0106 26.7757 50.6468 24.7035 49.9873 23.1392C49.6954 22.4388 49.1467 21.8317 48.6039 21.3122C48.1486 20.8628 47.6524 20.0047 46.9111 20.0923C46.5025 20.139 46.9987 20.2791 46.8119 20.5826C47.1446 21.2363 46.3566 23.1742 46.3916 23.8864Z" fill="#F3A984"/>
<path d="M45.7204 15.1073L57.0735 14.4478C57.5229 15.1891 57.8498 16.0004 57.9957 16.8526C58.1358 17.6873 58.2 18.5454 58.1358 19.3917C58.0483 20.53 57.4996 21.5281 56.9101 22.4795C56.4548 23.2092 55.7893 23.9913 55.8244 24.8552C55.8477 25.3514 55.8244 26.3553 55.2932 26.6122C55.1414 26.688 54.9488 26.653 54.7912 26.7347C54.511 26.869 54.1433 27.1083 53.8981 27.3009C53.4896 27.6103 53.186 28.0422 52.7307 28.2991C52.3105 28.5325 51.9135 28.8244 51.4583 28.9995C50.3609 29.4198 49.427 28.9061 48.639 28.1473C47.7459 27.2892 46.9112 26.5888 46.6544 25.293C46.4909 24.4641 46.526 23.6061 46.4676 22.7597C46.4092 21.9075 45.9889 21.0378 45.5862 20.3023C45.3585 19.8937 44.9383 19.5201 44.8099 19.0649C44.7048 18.6854 44.985 18.3177 45.0725 17.9558C45.306 16.9985 45.3819 16.0354 45.7321 15.1132L45.7204 15.1073Z" fill="#FFC7AD"/>
<path d="M52.0244 19.1524C51.1197 20.0922 51.3181 21.9075 50.0748 22.5496C49.4153 22.894 48.8841 22.5204 48.4346 22.0243C48.1836 21.7441 47.9852 21.4405 47.8509 21.0903C47.74 20.7926 47.7809 20.3257 47.6291 20.0572C47.2497 19.3801 47.0337 20.1739 46.8761 20.6117C46.6718 21.1779 46.5084 21.8083 45.7671 21.5106C44.4421 20.9794 44.1794 18.4695 44.1677 17.2904C44.1561 15.5918 44.8507 14.0625 45.9656 12.7959C46.6485 12.0254 48.0494 11.7219 48.0494 11.7219C48.0494 11.7219 48.7498 10.9689 50.2324 10.6887C52.5556 10.2509 54.9429 11.2841 56.5773 12.9126C57.3186 13.6481 57.9257 14.5236 58.3167 15.4926C58.6203 16.2514 58.9238 17.0394 58.9705 17.8624C59.0172 18.5921 58.7487 19.1641 58.416 19.7887C58.2525 20.098 58.0658 20.4424 57.8148 20.6934C57.3303 21.1779 56.9217 20.5883 56.5598 20.2673C56.122 19.882 55.7076 19.596 55.1881 19.3334C54.978 19.2283 54.7561 19.1349 54.546 19.0298C54.1257 18.8314 53.7639 18.5979 53.2794 18.5746C52.7832 18.5512 52.3571 18.8022 52.0244 19.1524Z" fill="#2A0B88"/>
<path d="M48.061 19.4911C47.1388 18.8607 46.1932 19.9114 46.3041 21.2189C46.3391 21.6041 46.5375 22.0419 46.666 22.4038C47.524 24.8846 48.8899 23.5537 48.6389 22.7307C48.0552 20.822 49.2226 20.285 48.061 19.4911Z" fill="#FFC7AD"/>
<path d="M47.3022 21.6684C47.2555 21.5108 46.5726 20.2733 47.5299 20.2733C47.7984 20.2733 47.9151 20.5768 47.8217 20.8045C47.775 20.9212 47.6758 21.0146 47.6233 21.1314C47.5941 21.2014 47.5882 21.2773 47.5882 21.3532C47.5882 21.5575 47.8217 21.8902 47.6291 22.077C47.4598 22.2404 47.3256 21.7618 47.2964 21.6684H47.3022Z" fill="#F3A984"/>
<path d="M84.9079 30.405C84.4643 30.8194 83.9214 31.3447 84.009 31.9343C84.0965 32.5063 84.5927 32.7806 84.9312 33.2067C85.2173 33.5628 85.4566 33.9422 85.7484 34.3041C86.7349 35.5299 87.7505 36.7323 88.772 37.9289C89.2332 38.4718 89.6943 39.0146 90.1729 39.5458C91.5738 41.0926 93.1206 42.511 94.7783 43.766C95.4204 44.2504 96.4711 45.0793 97.2941 45.2019C98.1055 45.3244 98.7592 44.8341 99.3021 44.2271C100.265 43.1472 100.826 41.6821 100.248 40.2929C99.6756 38.8979 98.5141 38.034 97.3992 37.1234C95.0118 35.1797 92.4027 33.6445 90.1554 31.549C89.4958 30.9361 88.7837 30.1189 87.9257 29.7512C86.9392 29.3309 85.7192 29.6461 85.0013 30.3116L84.9079 30.3991V30.405Z" fill="#BFB0FE"/>
<path d="M63.7662 13.2848L56.1897 27.568L72.1248 46.2232L79.7013 31.94L63.7662 13.2848Z" fill="#B63416"/>
<path d="M79.7013 31.94L72.1248 46.2233L90.6749 35.9384L98.2514 21.6552L79.7013 31.94Z" fill="#DA401C"/>
<path d="M63.7661 13.2849L79.7013 31.9401L98.2514 21.6552L82.3163 3L63.7661 13.2849Z" fill="#FFED0E"/>
<path d="M92.2976 112.859C92.5953 112.17 92.9455 111.073 93.7102 110.764C94.2764 110.536 94.8893 110.886 95.4029 111.213C95.975 111.581 97.1774 112.176 97.837 112.34C98.1755 112.421 98.0996 108.295 97.9771 107.746L102.034 109.865C101.503 112.614 101.672 113.174 102.022 114.248L101.859 114.523V116.034H96.2318V116.192C95.9574 116.029 95.6773 115.871 95.3913 115.737C94.6441 115.381 93.8386 115.153 93.1031 114.78C92.6303 114.54 92.14 114.167 92.105 113.635C92.0875 113.367 92.1984 113.104 92.3035 112.859H92.2976Z" fill="#F3A984"/>
<path d="M101.917 116.852C101.917 116.881 101.929 116.916 101.929 116.951C101.958 117.161 101.952 117.371 101.952 117.581C101.952 118.007 101.911 118.498 101.637 118.854C101.549 118.971 101.421 119.052 101.304 119.122C101.182 119.187 101.036 119.233 100.907 119.274C100.499 119.402 99.9733 119.461 99.5939 119.245C99.1152 118.971 99.0218 118.142 99.2086 117.535C99.4188 116.846 99.8507 116.7 100.37 116.653C100.82 116.607 101.257 116.612 101.707 116.653C101.864 116.665 101.9 116.735 101.917 116.858V116.852Z" fill="#272E67"/>
<path d="M102.022 114.248C101.975 114.324 101.316 115.03 100.54 115.182C99.699 115.345 98.3507 115.141 97.6385 114.616C97.1015 114.225 96.6054 113.647 96.3486 113.028C96.2493 112.789 96.1151 112.474 96.1618 112.205C96.1851 112.065 96.4303 111.82 96.5762 111.872C96.1734 111.668 95.7882 111.458 95.4088 111.213C94.8951 110.886 94.2764 110.536 93.716 110.763C92.9514 111.073 92.6012 112.164 92.3035 112.859C92.1984 113.104 92.0875 113.367 92.105 113.635C92.14 114.166 92.6304 114.54 93.1032 114.779C93.8445 115.153 94.65 115.38 95.3971 115.736C95.8524 115.952 96.2902 116.221 96.7221 116.484C96.9906 116.647 97.265 116.799 97.5335 116.956C97.7553 117.091 97.9421 117.248 98.158 117.383C98.2923 117.464 98.4149 117.569 98.5374 117.674C98.806 117.89 99.1212 118.065 99.4305 118.223C99.8566 118.445 100.353 118.509 100.82 118.451C100.954 118.433 101.1 118.398 101.228 118.351C101.392 118.287 101.538 118.241 101.672 118.124C101.917 117.902 102.057 117.593 102.139 117.283C102.261 116.805 102.25 116.285 102.244 115.795C102.244 115.503 102.197 115.223 102.156 114.937C102.139 114.808 102.098 114.68 102.075 114.546C102.069 114.505 102.016 114.277 102.034 114.248H102.022Z" fill="#2A0B88"/>
<path d="M98.0296 111.645C97.872 112.801 98.4032 112.164 98.7709 112.538C99.629 113.402 100.575 113.332 101.281 112.713C101.649 112.316 101.625 111.668 101.73 111.16C102.186 108.843 102.664 108.219 103.143 106.905C103.779 105.154 103.931 103.263 103.814 101.401C103.697 99.5447 103.318 97.7119 102.921 95.8965C102.822 95.4471 102.676 94.9568 102.705 94.4898C102.723 94.1863 102.857 93.9061 102.88 93.6026C102.962 92.6395 102.466 91.688 102.402 90.7366C102.361 90.1179 102.39 89.4291 102.045 88.8862C101.427 87.9173 99.985 87.7772 98.9519 88.285C98.158 88.6703 97.4167 89.3182 96.9264 90.0536C96.4478 90.7658 96.4069 91.8223 96.3602 92.6628C96.3018 93.7018 96.3077 94.7408 96.3777 95.774C96.547 98.2547 97.0723 100.695 97.4401 103.152C97.586 104.127 97.7086 105.107 97.8078 106.088C97.9654 107.571 98.2106 110.244 98.0179 111.645H98.0296Z" fill="#F3A984"/>
<path d="M106.26 51.5527C106.92 49.6089 107.264 47.5601 107.287 45.5113C107.305 43.9412 107.743 41.6063 105.904 40.7366C104.929 40.2755 103.511 40.5498 102.618 41.0518C102.326 41.2153 101.176 41.7639 100.902 41.8748C99.2905 42.5519 97.7145 43.3224 96.156 44.1163C95.2863 44.5599 94.3815 44.9335 93.5001 45.3421C92.1868 45.9491 91.2295 46.7663 90.2898 47.8637C89.5193 48.7626 88.8072 49.7198 88.4511 50.8639C88.06 52.1189 88.0367 53.2804 88.1242 54.5763C88.1884 55.5335 90.1789 61.9718 88.7896 66.3496C88.3402 67.7738 88.3635 68.556 89.6769 69.7642C90.3598 70.3946 91.2237 70.0911 92.035 70.0094C92.9106 69.9218 93.7044 70.1787 94.6092 70.132C96.9907 70.0036 99.7458 69.8109 101.859 68.591C102.676 68.1182 103.388 67.4119 103.423 66.4196C103.446 65.6783 103.09 65.2989 102.705 64.7327C102.127 63.8863 102.238 62.7715 102.419 61.8142C102.594 60.8978 102.851 59.9989 103.149 59.1175C103.493 58.0843 103.884 57.0628 104.328 56.0647C104.888 54.7922 105.524 53.5548 106.021 52.2589C106.108 52.0313 106.196 51.7978 106.272 51.5643L106.26 51.5527Z" fill="#6634FA"/>
<path d="M89.852 95.5754C89.8461 95.412 89.8987 94.1103 89.8053 94.0636L95.0294 96.9121C95.6423 97.0638 95.9809 97.7118 96.2027 98.3013C96.8214 99.9415 97.1191 101.687 97.2066 103.426C97.2942 105.136 97.481 106.783 97.2241 108.487C96.8039 111.265 95.7532 114.289 95.3213 117.062L91.8599 116.752C91.749 115.97 91.6965 115.176 91.6031 114.394C91.247 111.353 90.2722 108.394 90.1321 105.341C90.0387 103.228 90.2139 101.167 89.8811 99.066C89.7761 98.3947 89.8986 97.7701 89.9162 97.0989C89.9278 96.591 89.8753 96.0832 89.8461 95.5754H89.852Z" fill="#FFC7AD"/>
<path d="M103.341 39.8844C103.493 40.0011 103.359 40.2813 103.3 40.4915C103.166 40.9643 103.225 41.4721 103.295 41.9507C103.324 42.155 103.417 42.3651 103.411 42.5636C103.406 42.7854 103.306 43.0131 103.195 43.2057C102.682 44.1104 101.45 44.3789 100.528 44.6241C99.7924 44.8225 98.981 44.9393 98.2222 44.8809C97.8895 44.8576 97.5043 44.805 97.2066 44.6358C97.1073 44.5774 97.0023 44.519 96.9147 44.449C96.5703 44.1688 96.6345 43.5909 96.5937 43.1998C96.5587 42.7913 96.5003 42.4002 96.3544 42.0091C96.1617 41.5013 95.6423 41.151 95.6423 41.151C95.6423 41.151 98.7767 40.6257 100.3 40.3455C101.129 40.1938 101.958 40.0478 102.787 39.8961C102.898 39.8786 103.038 39.826 103.149 39.8319C103.23 39.8319 103.289 39.8552 103.33 39.8844H103.341Z" fill="#FFC7AD"/>
<path d="M94.469 30.1014C94.0137 30.5508 93.646 31.0703 93.4826 31.7066C93.1732 32.909 93.4943 34.164 93.2433 35.3722C93.0214 36.4288 93.5176 37.8063 93.7102 38.8686C93.827 39.5399 93.9962 40.2929 94.5741 40.6606C94.9185 40.8824 95.3621 40.9291 95.689 41.1743C95.8874 41.326 96.2727 41.4836 96.4595 41.6529C97.0081 42.1549 97.8604 42.079 98.5433 42.0498C99.2262 42.0206 99.9675 41.9739 100.621 41.7405C101.859 41.2968 102.752 40.2345 103.563 39.1955C110.2 30.7084 98.8293 25.782 94.4807 30.1014H94.469Z" fill="#FFC7AD"/>
<path d="M105.699 29.8037C103.446 25.9162 98.0179 24.6437 94.5624 27.7607C92.9864 29.185 92.5836 31.1054 93.9145 32.7514C94.2764 33.195 94.4165 33.5044 94.6032 34.0239C94.7492 34.4266 94.6149 34.8294 95.0177 35.1271C95.7181 35.6407 96.2026 34.7535 96.9322 35.1854C98.4032 36.061 97.1774 38.6585 98.2631 39.8551C99.3429 41.0517 101.8 40.9174 103.131 40.2695C106.68 38.5418 107.526 32.9557 105.705 29.8095L105.699 29.8037Z" fill="#B63416"/>
<path d="M97.3699 34.5319C98.4673 34.6369 98.5257 36.032 97.6093 36.9542C97.3408 37.2227 96.9088 37.427 96.5878 37.6255C94.3639 38.968 94.1712 37.0885 94.8834 36.6274C96.5352 35.5534 95.9924 34.4035 97.3758 34.5377L97.3699 34.5319Z" fill="#FFC7AD"/>
<path d="M96.7046 36.5337C96.8447 36.4403 98.2105 35.915 97.4459 35.2729C97.2358 35.0978 96.9381 35.2612 96.8622 35.5006C96.8213 35.629 96.8388 35.7632 96.798 35.8916C96.7746 35.9675 96.7279 36.0317 96.6812 36.0901C96.5411 36.2535 96.1384 36.3644 96.1676 36.6388C96.1968 36.8839 96.617 36.5921 96.6987 36.5337H96.7046Z" fill="#F3A984"/>
<path d="M95.6656 119.484C95.2746 118.562 95.1695 117.336 95.4789 116.145C95.5314 115.947 95.4847 115.258 95.5606 115.065L91.5622 114.09C91.7315 114.622 91.7782 116.332 91.7431 117.073C91.6906 118.211 90.2547 118.311 89.3733 118.328C88.6495 118.34 87.9257 118.299 87.2019 118.281L85.8185 119.023L86.2738 120.389C87.7331 121.521 89.134 121.889 90.8501 122.192C92.3327 122.455 93.4184 123.179 94.9185 122.449C95.403 122.216 95.8291 122.122 95.9517 121.597C96.156 120.716 96.0042 120.324 95.654 119.49L95.6656 119.484Z" fill="#FFC7AD"/>
<path d="M95.9341 121.439C95.9049 121.807 95.7998 122.157 95.759 122.519C95.7181 122.852 95.6539 123.202 95.4496 123.465C95.3621 123.582 95.2336 123.669 95.1169 123.733C94.9943 123.797 94.8484 123.844 94.72 123.885C94.3114 124.013 93.786 124.072 93.4066 123.856C92.928 123.587 92.8346 122.753 93.0214 122.146C93.2315 121.457 93.6635 121.311 94.183 121.264C94.6149 121.223 95.0118 121.206 95.4379 121.258C95.578 121.276 95.7239 121.235 95.9341 121.439Z" fill="#272E67"/>
<path d="M93.9787 120.943C93.6518 121.072 93.3074 121.171 92.9572 121.235C92.0992 121.399 91.2586 121.428 90.4006 121.264C89.8636 121.159 89.3266 121.037 88.7954 120.903C87.9957 120.698 87.1377 120.336 86.7349 119.578C86.3438 118.842 87.3828 118.55 87.879 118.469C88.1942 118.416 89.3558 118.346 89.6184 118.346C89.7819 118.346 90.4064 118.241 90.4064 118.241C90.4064 118.241 88.7604 118.077 88.1884 118.089C87.6455 118.101 87.1085 118.048 86.5715 118.124C86.303 118.159 85.3165 118.27 85.1297 118.363C84.6278 118.62 84.2834 119.169 84.2075 119.718C84.1608 120.039 84.1958 120.284 84.3359 120.57C84.4585 120.833 84.6219 121.054 84.8788 121.218C85.3574 121.515 85.8944 121.766 86.4197 121.965C87.2894 122.286 88.1533 122.292 89.0581 122.385C89.4025 122.42 89.7527 122.473 90.1029 122.473C90.6633 122.473 91.2119 122.589 91.7373 122.765C92.1109 122.887 92.4961 122.986 92.858 123.15C93.5759 123.477 94.3348 123.319 95.0352 122.998C95.5897 122.747 95.9283 122.193 96.0509 121.609C96.1267 121.247 96.1267 120.85 96.0392 120.488C95.9925 120.307 95.9633 120.126 95.8874 119.957C95.8524 119.875 95.6364 119.548 95.6714 119.478C95.6714 119.478 95.1753 120.465 93.9845 120.938L93.9787 120.943Z" fill="#2A0B88"/>
<path d="M107.246 55.0899C107.042 55.732 106.458 56.2048 106.4 56.8994C106.359 57.3722 106.365 57.8333 106.277 58.3003C106.219 58.5863 106.126 58.8431 105.933 59.0649C105.816 59.1992 105.664 59.3043 105.542 59.4327C105.425 59.5552 105.349 59.7128 105.273 59.8588C105.104 60.1915 104.976 60.5534 104.982 60.9328C104.982 61.3472 105.297 61.7325 105.752 61.5749C105.869 61.534 106.26 61.318 106.184 61.1254C106.161 61.0729 106.091 61.0962 106.061 61.0554C106.003 60.9561 106.061 60.816 106.166 60.7869C106.429 60.7051 106.452 61.0787 106.441 61.248C106.377 62.2461 105.273 62.7364 104.427 62.287C103.785 61.9484 103.306 61.2597 102.939 60.6526C102.664 60.2032 102.507 59.8121 102.507 59.2867C102.507 59.0591 102.518 58.8373 102.565 58.6096C102.629 58.2828 102.746 57.9909 102.88 57.6874C103.254 56.8352 104.159 56.6367 104.742 56.0122C104.871 55.8721 105.011 55.7028 105.104 55.5394C105.39 55.0666 105.478 54.4011 105.209 53.8991C104.923 53.3563 104.31 53.082 103.978 52.5625C103.592 51.9671 103.867 51.1732 104.205 50.5487C104.544 49.9183 104.952 49.2412 104.789 48.5466C104.579 47.6243 103.446 47.1282 103.254 46.2001C103.102 45.4705 103.592 44.7758 103.785 44.052C104.001 43.2524 103.843 42.3593 103.359 41.688C103.085 41.3028 102.699 40.9643 102.606 40.4973C102.448 39.6626 103.324 38.933 103.289 38.0866C103.265 37.427 102.717 36.925 102.279 36.4405C101.935 36.0553 101.643 35.5767 101.707 35.0338C101.76 34.6311 101.94 34.0532 102.18 33.738C102.997 32.6698 104.976 32.0277 105.98 33.1893C106.464 33.7555 106.575 34.24 106.435 34.9638C106.277 35.7751 106.207 36.5164 106.622 37.2694C107.001 37.9523 107.573 38.536 107.778 39.3124C107.906 39.791 107.953 40.4389 107.883 40.9351C107.818 41.3728 107.556 41.6005 107.369 41.9799C107.141 42.4527 106.954 42.9605 106.978 43.4975C107.03 44.6066 107.953 45.5171 108.034 46.6262C108.087 47.4025 107.719 48.1205 107.346 48.7742C107.205 49.0252 107.071 49.2996 106.908 49.5389C106.768 49.7373 106.633 49.93 106.598 50.1809C106.493 50.9106 106.931 51.4476 107.24 52.0605C107.421 52.4165 107.538 52.8018 107.562 53.2045C107.591 53.6073 107.538 53.9809 107.433 54.3661C107.381 54.5587 107.311 54.7455 107.27 54.9381C107.258 54.9907 107.246 55.0374 107.229 55.0899H107.246Z" fill="#B63416"/>
<path d="M87.7214 79.1558C87.2253 70.6279 88.7838 66.3435 88.7838 66.3435C88.7838 66.3435 99.1912 68.655 103.108 65.2928C103.341 65.7948 103.773 66.6879 103.972 67.1957C104.766 69.2095 105.069 71.0423 105.192 73.383C105.378 76.8677 105.057 80.5976 104.795 84.0765C104.52 87.6779 104.573 98.3072 103.487 98.5582C102.653 98.7566 101.719 98.6924 101.719 98.6924C101.719 98.6924 100.907 93.5675 100.691 93.0246C100.394 94.3672 100.563 95.8323 100.446 97.204C100.405 97.6476 100.399 98.0971 100.289 98.529C100.166 99.0018 99.8275 99.1185 99.3605 99.1886C98.9052 99.2586 93.3717 99.9357 90.5466 99.2119C89.8461 99.031 89.49 98.599 89.3733 97.8752C89.2566 97.1339 87.8849 81.9576 87.7214 79.1558Z" fill="#04C984"/>
<path d="M88.5969 66.9681C88.7078 66.5595 88.7837 66.3435 88.7837 66.3435C88.7837 66.3435 99.1911 68.655 103.108 65.2928C103.201 65.4913 103.324 65.7598 103.458 66.0342C101.713 67.1257 99.1211 67.6744 96.8446 67.7969C94.0779 67.9429 91.2352 67.4409 88.6027 66.9681H88.5969Z" fill="#252956"/>
<path d="M68.3774 36.9951C68.4942 36.8141 68.6109 36.8784 68.7335 37.0126C68.8327 37.1177 68.9203 37.2344 69.0195 37.3395C69.0312 37.3512 69.2997 37.6021 69.3172 37.5379C69.3405 37.4562 69.3055 37.357 69.2822 37.2753C69.253 37.1644 69.2005 37.0535 69.1654 36.9426C69.1363 36.8433 69.0837 36.7558 69.0429 36.6624C68.9962 36.5632 68.9611 36.4873 68.9028 36.3939C68.8561 36.3238 68.8327 36.2246 68.8152 36.1429C68.7744 35.9794 68.7744 35.7868 68.9495 35.7051C69.1888 35.5884 69.323 35.8919 69.4456 36.0378C69.5157 36.1195 69.6441 36.4756 69.7725 36.4523C69.8951 36.4347 69.8367 35.9794 69.8309 35.8977C69.79 35.5709 69.6674 35.2206 69.7433 34.8821C69.79 34.672 69.9418 34.3743 70.1519 34.6369C70.292 34.812 70.3037 35.028 70.3562 35.2323C70.4262 35.495 70.508 35.7518 70.5897 36.0145C70.6072 36.0787 70.6889 36.4639 70.7531 36.4639C70.7998 36.4639 70.829 36.3297 70.8407 36.3005C70.9165 36.0845 70.9808 35.8627 71.0158 35.6409C71.045 35.4599 71.045 35.279 71.08 35.0981C71.1092 34.9054 71.1851 34.4034 71.4827 34.456C71.7629 34.5085 71.7746 35.063 71.7688 35.2673C71.7571 35.7051 71.7746 36.1137 71.8563 36.5456C71.9614 37.1002 72.154 37.6372 72.5509 38.0458C72.7085 38.2092 72.977 38.361 73.2105 38.3201C73.2397 37.8823 73.0821 37.5029 72.9362 37.0593C72.8194 36.6974 72.7377 36.3238 72.9362 35.9794C73.0296 35.816 73.1638 35.5358 73.3915 35.5475C73.6074 35.5592 73.73 35.7635 73.7592 35.9561C73.7884 36.1487 73.7475 36.3472 73.8001 36.5398C73.8468 36.7208 73.9168 36.8842 74.0043 37.0535C74.1619 37.3512 74.3662 37.6372 74.4947 37.9465C74.6231 38.2617 74.6639 38.6003 74.6523 38.9388C74.6464 39.0614 74.6289 39.1781 74.6172 39.3007C74.5939 39.5867 74.5997 39.8786 74.6172 40.1646C74.6698 40.976 75.1776 41.7873 75.3702 42.587C75.5453 43.3108 74.8099 43.4392 74.2086 43.5209C73.6891 43.5968 73.3389 43.4917 72.942 43.1765C72.5859 42.8963 72.37 42.5111 72.0723 42.1842C71.868 41.9566 71.617 41.7464 71.3894 41.5422C71.3076 41.4721 71.2259 41.3962 71.1384 41.3262C70.8523 41.0869 70.5838 40.83 70.3153 40.5732C69.971 40.2405 69.6558 39.8786 69.3756 39.4875C69.1071 39.1139 68.9261 38.7053 68.6926 38.3143C68.6284 38.2092 68.5642 38.11 68.5 38.0049C68.3191 37.7131 68.1673 37.2986 68.3716 36.9776L68.3774 36.9951Z" fill="#FFC7AD"/>
<path d="M90.8617 45.7156C94.2238 44.986 95.5313 46.1943 95.8174 48.9026C95.9399 50.0467 95.292 51.1966 94.4223 51.9496C93.6226 52.6384 92.5661 52.9185 91.5446 53.0761C90.4064 53.2513 85.4449 53.7357 84.0966 53.7357C82.6898 53.7357 81.3415 53.5081 79.9815 53.1754C77.5883 52.5858 76.0006 50.9281 74.6989 48.9143C74.1678 48.0971 71.4302 42.9722 71.3134 42.5111C71.1675 41.9391 71.2667 41.6239 71.8154 41.3437C72.5275 40.9818 73.4965 40.579 74.302 40.5265C75.3001 40.4623 75.7321 41.1102 76.3041 41.8632C76.7477 42.4352 78.5981 45.5288 79.281 46.3986C79.9056 47.1924 80.6936 47.7586 81.7384 47.7878C83.3144 47.8345 84.797 47.4667 86.2738 46.9414C87.7914 46.3986 89.2974 46.06 90.8734 45.7215L90.8617 45.7156Z" fill="#BFB0FE"/>
<path d="M105.303 55.3583C105.653 55.7436 106.003 55.8778 106.522 55.9012C106.902 55.9187 107.007 56.4849 106.616 56.5841C105.886 56.7709 105.291 56.374 104.795 55.872C104.468 55.5393 104.993 55.0198 105.303 55.3642V55.3583Z" fill="#272E67"/>
</svg>
