<svg width="128" height="128" viewBox="0 0 128 128" fill="none" xmlns="http://www.w3.org/2000/svg">
<path d="M15.1635 80.8666V92.723C15.1635 108.894 38.1546 122 66.5138 122C94.8729 122 117.863 108.894 117.863 92.723V80.8666H15.1635Z" fill="#B13726"/>
<path d="M66.5138 110.144C38.1558 110.144 15.1635 97.0374 15.1635 80.8666C15.1635 64.6957 38.1546 51.5907 66.5138 51.5907C94.8729 51.5907 117.863 64.6993 117.863 80.8666C117.863 97.0339 94.8741 110.144 66.5138 110.144Z" fill="#EE522E"/>
<path d="M66.5138 103.929C44.1751 103.929 26.0635 93.6053 26.0635 80.8666C26.0635 68.1279 44.1739 57.8051 66.5138 57.8051C88.8537 57.8051 106.963 68.1315 106.963 80.8666C106.963 93.6017 88.8537 103.929 66.5138 103.929Z" fill="#E6EFFF"/>
<path d="M66.5125 98.3292C83.4291 98.3292 97.1426 90.5109 97.1426 80.8666C97.1426 71.2223 83.4291 63.4041 66.5125 63.4041C49.596 63.4041 35.8824 71.2223 35.8824 80.8666C35.8824 90.5109 49.596 98.3292 66.5125 98.3292Z" fill="#EE522E"/>
<path d="M66.5137 92.3255C55.4138 92.3255 46.4161 87.1958 46.4161 80.8666C46.4161 74.5373 55.4138 69.4088 66.5137 69.4088C77.6137 69.4088 86.6114 74.5397 86.6114 80.8666C86.6114 87.1934 77.6137 92.3255 66.5137 92.3255Z" fill="#E6EFFF"/>
<path d="M66.5138 86.6607C60.9016 86.6607 56.3525 84.0677 56.3525 80.8678C56.3525 77.6678 60.9016 75.0748 66.5138 75.0748C72.126 75.0748 76.674 77.669 76.674 80.8678C76.674 84.0665 72.1249 86.6607 66.5138 86.6607Z" fill="#EE522E"/>
<path d="M66.5137 82.8264C64.6162 82.8264 63.0779 81.9501 63.0779 80.8679C63.0779 79.7857 64.6162 78.9094 66.5137 78.9094C68.4112 78.9094 69.9495 79.7869 69.9495 80.8679C69.9495 81.9489 68.4112 82.8264 66.5137 82.8264Z" fill="#B13726"/>
<path d="M36.5046 56.5803C36.297 56.2125 36.0953 55.8388 35.8936 55.4652C35.0633 53.923 34.2092 52.3334 32.8568 51.1175C31.113 49.5457 28.871 48.8696 26.7001 48.2231C24.7606 47.6418 22.9278 47.0842 21.4509 45.9454V47.6003C22.9456 48.5137 24.6479 49.0356 26.3027 49.5339C28.4202 50.1685 30.4191 50.7735 31.9315 52.1377C33.1059 53.1994 33.8711 54.617 34.6777 56.1176C34.8853 56.4972 35.087 56.8828 35.3005 57.2564C36.2258 58.8935 37.7383 61.1474 40.182 61.8947L40.5794 60.5839C39.0788 60.1272 37.7798 58.8579 36.4927 56.5862L36.5046 56.5803Z" fill="#C93325"/>
<path d="M24.7665 65.1629L22.8922 64.2435C22.305 63.5614 21.6881 63.1581 20.9882 62.7844C20.2883 63.0691 19.7545 63.8046 19.3631 64.7595L19.5113 65.1688C18.4734 66.3195 17.554 67.4879 17.6489 68.7632C17.9633 69.4334 18.6038 69.3385 19.0487 68.8996C20.7213 67.4346 20.8815 67.5413 22.0796 67.4761L23.7641 67.9387L24.7724 65.1688L24.7665 65.1629Z" fill="#2A0B88"/>
<path d="M39.3753 67.5238C39.915 67.7966 40.0337 68.5143 39.6007 68.9354C37.3171 71.1715 33.871 74.0185 31.3443 72.8619C30.8698 72.6247 30.419 72.3934 29.986 72.168C26.4747 70.3293 24.286 68.8702 21.8186 67.7136C21.095 67.1857 21.8839 64.3505 23.171 64.1548C24.0785 64.4454 24.9385 64.7479 25.7629 65.0623C28.1592 65.9876 30.1877 67.0493 31.8781 68.3423L34.1557 64.9081L39.3812 67.5238H39.3753Z" fill="#FFED0E"/>
<g style="mix-blend-mode:multiply" opacity="0.3">
<path d="M39.5354 69.4632C36.896 70.8808 34.221 74.1845 31.3443 72.8678C30.8698 72.6305 30.419 72.3992 29.986 72.1738C30.6088 70.4715 30.0928 68.5261 28.6396 67.3635L25.757 65.0622C28.1533 65.9875 30.1818 67.0492 31.8722 68.3422L34.1498 64.908L39.5354 69.4632Z" fill="#162736"/>
</g>
<path d="M42.6494 86.907C42.5663 87.6306 42.6968 88.4551 43.0646 89.3922C43.4442 89.7303 43.9009 89.8311 44.3813 89.8786L46.2319 91.1123C47.2521 91.4029 48.2485 91.3673 49.2153 91.1123C49.6602 90.8513 49.9805 90.5488 50.194 90.2048C50.2948 90.0447 50.3008 89.8489 50.2236 89.6769L50.1584 89.5346C49.9093 89.0897 49.5297 88.7279 49.067 88.5144C48.2545 88.1348 47.086 87.7255 46.997 87.684C46.8665 87.6188 46.0955 86.7825 46.0955 86.7825L45.3066 85.264L42.5367 85.8334L42.6494 86.9129V86.907Z" fill="#2A0B88"/>
<path d="M46.2379 86.7648C46.2379 88.0103 43.4502 88.7221 42.6257 87.3401C41.0361 83.9296 40.0397 80.4895 39.6779 77.0196C37.1689 73.6981 34.7549 70.3766 32.8569 66.6755C32.8509 66.6636 32.845 66.6458 32.8331 66.6339L32.8746 66.6221L39.6482 64.469L40.1939 63.8344C40.2591 63.7632 40.3718 63.7869 40.4074 63.8759L40.7514 64.9139L40.6624 66.6399L40.2947 68.6624L43.6222 75.525C44.5771 77.3162 44.4644 82.3163 46.2438 86.7648H46.2379Z" fill="#FFED0E"/>
<g style="mix-blend-mode:multiply" opacity="0.3">
<path d="M42.6257 87.34C41.0361 83.9295 40.0396 80.4894 39.6778 77.0196C37.1689 73.6981 34.7548 70.3765 32.8568 66.6754L32.8746 66.6161L33.616 64.3563L39.6007 64.1605L39.6482 64.463L39.8676 65.8984L40.8997 65.329L40.2887 68.6624C39.1559 67.5236 36.5224 68.7098 37.3765 71.4026C37.9103 73.0931 39.4465 74.7835 40.8759 76.6222C40.4074 79.1489 41.5224 83.2474 42.6316 87.34H42.6257Z" fill="#162736"/>
</g>
<path d="M47.6614 39.7474C47.6614 39.4983 46.0243 38.7331 45.6447 39.3381L42.4062 45.0322C41.1962 45.827 39.0966 46.9836 36.2021 47.814L36.5698 50.0916L39.0728 53.1699C39.2626 51.432 42.6969 49.6408 44.4051 47.814C45.7989 45.1033 46.8844 42.4165 47.6554 39.7533L47.6614 39.7474Z" fill="#6634FA"/>
<path d="M40.0218 66.7347C39.399 66.8474 39.2507 66.4204 38.5212 65.2282C37.934 66.8415 36.5461 68.6565 36.0893 68.8641C35.5259 69.1962 33.96 69.7775 33.0584 69.2496C32.756 69.0717 32.4594 68.8641 32.1806 68.6268C31.5578 68.093 31.0181 67.4287 30.7156 66.6873C30.508 65.9281 30.8876 63.7572 30.8639 61.7109C30.8639 61.5449 30.8639 61.3906 30.8579 61.2305C30.8046 60.8331 30.7452 60.4357 30.6681 60.0383C30.5732 59.4926 30.4546 58.9588 30.3182 58.4309C29.8259 57.0489 29.209 55.7262 28.4854 54.4747C28.7345 53.8045 27.7618 52.3691 28.3727 52.0963C28.5744 52.0073 28.7761 51.9065 28.9659 51.8057C30.2945 51.082 31.2672 50.0796 32.1094 49.1128C33.4736 48.6977 34.8378 48.2647 36.202 47.8198C37.4357 48.3774 38.3848 49.6941 39.0135 51.4438C39.3575 51.4438 40.3421 58.0632 40.7869 61.2068C40.8996 61.9897 40.9767 62.5591 41.0005 62.7608C41.0005 62.7786 41.0005 62.7964 41.0005 62.8082C41.125 64.5283 42.5841 66.5627 40.0099 66.7466L40.0218 66.7347Z" fill="#6634FA"/>
<path d="M34.8971 51.438C33.8947 51.6634 32.8923 51.8828 31.89 52.0964C34.221 54.2138 36.1901 56.7762 37.6492 59.6588C38.9719 56.3906 38.966 52.8259 36.4037 49.8781C35.9054 50.4178 35.4013 50.9398 34.8971 51.438Z" fill="#B5B8FD"/>
<path d="M34.8675 51.5564C34.9327 51.9241 34.992 52.2919 35.0454 52.6596C35.3598 52.9562 35.6682 53.2587 35.9707 53.5671C36.5282 55.1152 37.1213 56.8649 37.1391 58.152C37.3467 58.6799 37.5365 59.2196 37.7085 59.7594C37.9043 59.2078 38.0941 58.6443 38.2661 58.0749C37.8509 56.0167 37.0383 54.2433 36.3918 53.0274C36.285 52.5707 36.1723 52.1139 36.0478 51.6572C35.7512 51.5505 35.4487 51.4556 35.1462 51.3547C35.0513 51.42 34.9505 51.4912 34.8556 51.5564H34.8675Z" fill="#04C984"/>
<path d="M32.3763 48.5906C31.9789 49.1482 31.5756 49.6879 31.1663 50.2099C31.1307 52.5112 33.3787 52.9502 34.9564 54.0949C35.0869 53.3653 35.1937 52.618 35.2826 51.8647C35.9588 51.8469 36.629 51.8351 37.3052 51.8232C36.8129 50.6666 36.2494 49.5397 35.6266 48.4542C34.5472 48.4839 33.4617 48.5254 32.3763 48.5906Z" fill="#E6EFFF"/>
<path d="M31.6409 49.5991C30.7393 50.7439 31.9493 52.0191 33.6812 53.3003C35.3064 54.3798 37.7086 57.5115 37.7857 60.0738C36.7181 57.5649 34.1024 54.9551 32.7026 54.4213C32.7619 54.1425 32.8212 53.8637 32.8805 53.585C32.6255 53.6858 32.3704 53.7807 32.1154 53.8756C31.1071 53.063 30.3538 51.9242 30.1403 51.0286C30.6207 50.477 31.4096 49.7355 31.6409 49.5991Z" fill="#2A0B88"/>
<path d="M34.4464 48.4189C37.0383 49.2967 39.3812 56.6515 37.6789 59.8485C39.1677 57.9386 39.7608 54.629 37.9873 50.05C37.8035 49.9907 37.6255 49.9314 37.4417 49.8721C37.4417 49.6941 37.4417 49.5103 37.4417 49.3323C36.7714 48.8519 36.0775 48.4011 35.3716 47.98C35.0632 48.1283 34.7607 48.2765 34.4523 48.4189H34.4464Z" fill="#2A0B88"/>
<path d="M35.6325 51.1769C35.5791 51.3904 35.4487 51.7759 35.2885 51.8649C33.7582 52.6478 31.795 51.0167 31.617 50.044C31.5755 49.2729 31.2612 48.7213 31.2612 48.7213C30.7867 48.146 29.9563 47.5232 30.2766 47.4876C31.1247 47.4045 34.0667 48.401 34.9148 48.3358C34.9148 48.3358 34.7013 48.6145 34.8496 49.0179C35.1106 49.7059 35.7867 50.5422 35.6325 51.1769Z" fill="#FFB294"/>
<g style="mix-blend-mode:multiply" opacity="0.5">
<path d="M35.0631 50.8861C33.6514 51.414 31.9254 49.077 31.8898 49.1008C32.8626 48.9169 34.1081 48.4839 35.0809 48.3C35.5791 49.5931 35.6088 50.6844 35.0631 50.892V50.8861Z" fill="#FFB294"/>
</g>
<g style="mix-blend-mode:multiply" opacity="0.5">
<path d="M32.483 59.629C32.5186 58.247 30.6799 55.5127 30.6384 55.5542C29.9385 55.1628 29.7131 55.6491 28.9836 55.311C30.0927 57.4048 30.4961 58.4487 30.8579 61.2186C30.9528 63.3954 30.4961 65.8569 30.7215 66.6754C31.024 67.4168 31.5637 68.0871 32.1865 68.6209C32.4653 68.8581 32.7618 69.0717 33.0643 69.2437C33.0821 69.2437 32.9694 65.7205 32.8923 63.4725C32.9576 62.9209 32.5483 59.6112 32.489 59.6231L32.483 59.629Z" fill="#162B35"/>
</g>
<path d="M25.8163 52.0901L21.1899 49.8837C20.3892 49.599 19.8257 51.064 20.6798 51.8766C21.9491 53.1578 23.4734 54.2906 25.1876 55.3168C27.1508 55.7972 29.3039 55.5599 31.2672 56.4793L29.9445 51.1826C29.0429 51.8825 27.5838 52.1139 25.8222 52.0901H25.8163Z" fill="#6634FA"/>
<path d="M31.6409 48.8399C31.6409 48.8399 32.2459 49.5516 32.7857 49.7177C33.3254 49.8838 34.7845 49.6169 34.7845 49.6169C35.3658 49.6643 35.7632 49.1246 35.6327 48.6679L34.9802 46.2064L34.7667 45.6666C34.7667 45.6666 33.9897 44.2313 33.2186 43.9347C32.4476 43.6381 31.3503 43.5966 30.4902 44.2372C29.6302 44.8778 29.0845 45.7615 29.4582 46.8292C30.3776 49.433 31.6469 48.8399 31.6469 48.8399H31.6409Z" fill="#FFB294"/>
<path d="M31.5223 49.4331V49.0475C31.5994 48.917 31.5934 48.7628 31.5104 48.6383L30.852 47.6418C31.0003 47.4817 31.5104 47.0605 31.1664 45.6014C32.578 45.4057 33.5508 44.2254 34.3812 45.0617C34.7133 44.694 33.8355 43.7034 33.361 43.4721C32.8449 43.223 31.89 43.1578 30.7156 43.828C29.5116 44.522 29.1201 45.2871 29.2031 46.5683C29.2862 47.8494 30.941 49.2729 31.5223 49.4331Z" fill="#2A0B88"/>
<path d="M30.1936 47.458C30.1343 47.6004 30.2055 47.7665 30.2826 47.9029C30.3656 48.0571 30.4605 48.2113 30.5792 48.3359C30.6978 48.4663 30.852 48.5672 31.024 48.6028C31.1901 48.6324 31.3858 48.585 31.4511 48.4308C31.4985 48.3121 31.457 48.1816 31.4036 48.063C31.2968 47.8317 31.1308 47.5529 30.9113 47.4106C30.7096 47.2801 30.3122 47.1615 30.1877 47.458H30.1936Z" fill="#FFB294"/>
<path d="M21.4924 50.7202C21.4094 51.0643 20.8103 51.5625 19.3631 51.3252L18.3073 51.2956C17.6667 51.2422 17.7616 50.9516 18.1116 51.0227L17.5125 50.9694C17.1151 50.9219 16.9905 50.5601 17.3701 50.572L16.7592 50.3822C16.3262 50.2635 16.2966 49.9255 16.694 49.9551H16.8185L16.4864 49.7416C16.1186 49.5162 16.1957 49.1366 16.5694 49.2908C16.5694 49.2908 17.9929 50.0559 18.5505 49.6645C18.9182 49.4094 18.0107 48.5909 18.0107 48.5909C17.6548 48.2172 17.9929 47.9385 18.2954 48.2528C18.2954 48.2528 18.9479 48.8104 19.5469 49.0239C20.146 49.2374 21.6466 50.0915 21.4924 50.7143V50.7202Z" fill="#FFB294"/>
<path d="M45.9116 39.356L46.0599 38.9111L45.7574 37.452L45.6447 35.6489C45.615 35.3345 45.9649 35.293 46.0599 35.6489C46.0599 35.6489 46.2259 36.8055 46.4572 36.8767C46.4572 36.8767 47.2283 36.4615 47.7088 34.427C47.7799 34.0593 48.1595 34.0415 48.1477 34.427L48.0231 35.3345L47.8155 36.3251L48.5451 35.3049L48.9603 34.6169C49.2153 34.2372 49.5178 34.3084 49.3754 34.7829L49.0018 35.6786L48.462 36.6454L49.1501 35.9988L49.6661 35.3464C49.9508 35.0202 50.2058 35.1803 49.9923 35.5718L49.4703 36.4259L48.9069 37.1258V37.2919L49.6661 36.4911C49.9626 36.2183 50.1524 36.3784 49.933 36.7403L49.073 37.8257L48.1655 39.1187L47.3944 39.7C47.3944 39.7 47.3291 39.8423 47.3054 39.8779C47.0148 40.3168 45.8285 39.694 45.9116 39.3619V39.356Z" fill="#FFB294"/>
<path d="M41.0065 62.7549C39.927 63.4725 38.6814 63.9708 37.6493 64.0835C37.5604 64.0953 37.4714 64.1013 37.3824 64.1013C35.5319 64.1962 33.9008 63.431 32.3408 62.5591C32.0383 62.3871 31.7418 62.2092 31.4452 62.0431C31.2495 61.9304 31.0597 61.8118 30.8639 61.705C30.6741 61.5983 30.4843 61.4915 30.2945 61.3847C29.476 60.9399 28.6575 60.4594 27.8627 59.9909C26.5875 59.2376 25.2707 58.4606 23.9243 57.8141C19.8021 55.8271 13.8945 56.3313 11.1839 58.8699L11 57.2565C14.3334 54.8722 20.1994 54.5104 24.5174 56.5804C25.9172 57.2506 27.2636 58.0454 28.5626 58.8046C29.2506 59.2139 29.9564 59.6291 30.6682 60.0265C30.7631 60.0798 30.858 60.1332 30.9529 60.1866C31.3503 60.4001 31.7418 60.6255 32.1332 60.8568C32.1747 60.8746 32.2044 60.8984 32.2459 60.9221C33.9423 61.9126 35.5556 62.826 37.3172 62.7371C38.3967 62.6896 39.7905 62.0253 40.7929 61.1949C40.9056 61.9779 40.9827 62.5473 41.0065 62.7489V62.7549Z" fill="#EE522E"/>
<path d="M68.092 76.5444L73.8309 73.2046V81.731L68.092 85.0708V76.5444Z" fill="#6634FA"/>
<path d="M63.0436 73.6273L68.7912 70.2961L73.8311 73.2045L68.0921 76.5443L63.0436 73.6273Z" fill="#BFB0FE"/>
<path d="M68.0921 76.5441V85.0706L63.0435 82.1536V73.6272L68.0921 76.5441Z" fill="#2A0B88"/>
<path d="M68.3548 7.08142L70.2755 5.97302V73.3992L68.3548 74.5076V7.08142Z" fill="#6634FA"/>
<path d="M66.6711 6.1084L68.5917 5L70.2755 5.97302L68.3548 7.08142L66.6711 6.1084Z" fill="#0BEE9F"/>
<path d="M68.3548 7.08154V74.5078L66.6711 73.5432V6.10852L68.3548 7.08154Z" fill="#2A0B88"/>
<path d="M91.9189 37.0828L93.5112 36.1569L101.248 55.8262L99.6632 56.7451L91.9189 37.0828Z" fill="#039665"/>
<path d="M99.7473 27.3744L101.333 26.4554L93.5112 36.1568L91.9189 37.0828L99.7473 27.3744Z" fill="#039665"/>
<path d="M68.5948 9.38853L70.1872 8.4696L101.333 26.4554L99.7473 27.3743L68.5948 9.38853Z" fill="#0BEE9F"/>
<path d="M99.7473 27.3745L68.5948 9.38867V38.8155L99.6631 56.7452L91.9188 37.0829L99.7473 27.3745Z" fill="#04C984"/>
</svg>
