<svg width="128" height="128" viewBox="0 0 128 128" fill="none" xmlns="http://www.w3.org/2000/svg">
<path d="M102.857 26.4816L101.754 29.747L100.121 31.8238L98.4818 33.9202C97.2605 32.6075 92.2057 26.9714 90.1419 23.8562C89.3517 19.8267 89.3125 16.1041 90.1289 11.2452C90.1876 10.873 93.0481 9.94558 93.329 11.9571L94.4 20.8586C95.9805 22.3345 98.7953 24.5615 102.851 26.4881L102.857 26.4816Z" fill="#04C984"/>
<path d="M92.8653 11.3955L93.7534 10.664L94.0212 10.2526L94.2628 9.57339L94.5371 8.16273L93.6947 7.40516L92.1207 6.85657L91.2913 6.95453L90.9974 7.80354L90.4423 8.86153L90.1942 10.0893L90.5338 11.1996C90.586 11.6371 92.4277 12.1661 92.8653 11.389V11.3955Z" fill="#FFB294"/>
<g style="mix-blend-mode:multiply" opacity="0.5">
<path d="M92.7804 11.1081L93.76 10.664L93.8906 10.1873L94.0081 9.52766L94.0343 8.60682L93.4987 8.20191L91.9313 7.78394L91.4219 7.53577L91.0105 7.80353L90.4554 8.86152L90.2072 10.0893L90.5468 11.1996C90.5991 11.6371 92.3559 11.8722 92.7934 11.1016L92.7804 11.1081Z" fill="#FFB294"/>
</g>
<path d="M91.0824 11.5653C90.6775 11.1865 91.4612 10.0828 92.2122 9.98487L92.7804 9.93263L93.3812 9.45588C93.3812 9.45588 93.8776 9.20771 94.0604 9.21424C94.2433 9.22077 94.3935 9.25995 94.5045 9.34485C94.6939 9.48853 94.498 9.71058 94.498 9.71058L94.0996 10.1416L93.7535 10.6445L92.2579 11.8004L91.0758 11.5653H91.0824Z" fill="#FFB294"/>
<path d="M94.0278 8.60676L93.6033 8.01899C93.6033 8.01899 93.1266 8.80269 92.9763 8.85493C92.8261 8.90718 92.3298 8.6786 92.3298 8.6786C92.3298 8.6786 92.1208 8.85493 91.9575 8.86147C91.7943 8.86147 91.6114 8.77003 91.4939 8.65248C91.3763 8.53492 91.324 8.26716 91.324 8.26716C91.324 8.26716 90.7951 8.09736 90.7102 7.86225C90.6253 7.63367 90.9779 7.29407 90.9779 7.29407L91.2979 6.95447L92.6433 7.26142L94.0343 8.60676H94.0278Z" fill="#FFB294"/>
<path d="M94.289 8.70474L94.5437 8.16921L95.7193 5.30218C95.9413 4.79931 95.4319 4.31603 95.0531 4.96911L93.6947 7.41163L93.6033 8.019L94.2825 8.70474H94.289Z" fill="#FFB294"/>
<g style="mix-blend-mode:multiply" opacity="0.5">
<path d="M100.128 31.8173L98.4883 33.9137C97.2671 32.601 92.2122 26.9649 90.1485 23.8497C92.3755 25.3583 96.8034 30.0932 100.017 31.3275C100.167 31.3798 100.16 31.5822 100.128 31.8239V31.8173Z" fill="#283440"/>
</g>
<path d="M101.408 79.8842C101.773 80.3283 101.819 81.3863 101.786 82.5879C101.512 83.8157 100.363 83.77 99.3895 83.9594C97.5152 84.3382 96.6335 85.7946 94.1192 85.8991C92.6236 85.9578 91.6113 85.6835 91.2587 84.7496C91.1934 84.3121 91.4285 83.8614 91.9379 83.3912C91.9379 83.3912 95.3012 81.7128 95.3861 81.6475C95.471 81.5822 96.9601 80.4001 96.9862 80.276C97.0123 80.1585 97.4629 77.507 97.4629 77.507L101.153 77.3502L101.408 79.8842Z" fill="#2A0B88"/>
<path d="M104.562 55.9224L104.268 57.111L104.046 58.0188L102.178 65.5814C103.21 69.4934 102.949 74.0062 102.204 78.7476C102.152 79.0872 102.093 79.4202 102.035 79.7664C102.008 79.9231 101.982 80.0864 101.956 80.2497C101.682 81.9085 98.3838 80.8831 96.0915 79.6423C96.6727 75.8022 95.5102 69.2714 95.8694 64.8761C97.5087 51.2071 97.1037 54.8905 97.6654 48.6993C98.0834 48.5556 104.386 50.5998 104.568 55.9289L104.562 55.9224Z" fill="#FFED0E"/>
<g style="mix-blend-mode:multiply">
<path d="M104.046 58.019L102.178 65.5816C103.21 69.4936 102.949 74.0064 102.204 78.7478C102.152 79.0874 102.093 79.4204 102.035 79.7666C101.813 79.2114 102.035 78.2383 102.054 77.7485C102.08 76.7624 102.074 75.7828 102.028 74.8031C101.95 72.8374 101.741 70.8781 101.401 68.9385C101.179 67.6976 100.911 66.4502 100.931 65.1833C100.964 63.3481 101.61 61.5782 101.773 59.7562C101.937 57.8034 100.069 55.1519 99.1284 53.4343C99.9447 54.316 102.466 55.5503 103.406 56.3014C103.72 56.5495 104.013 56.8238 104.275 57.1242L104.053 58.032L104.046 58.019Z" fill="#FBBC04"/>
</g>
<path d="M110.015 87.0615C110.329 88.237 110.381 88.5766 110.191 89.4322C110.002 89.8828 109.819 90.0787 109.597 90.6991C109.342 91.4632 109.316 92.7629 108.128 93.4878C106.704 94.5131 104.039 94.4478 103.249 93.2462C103.275 92.678 103.706 91.4502 104.444 90.4706L105.907 88.015L105.927 85.6574L109.845 84.9781L110.002 87.0615H110.015Z" fill="#2A0B88"/>
<path d="M97.6589 48.693C97.6589 54.3421 100.389 54.3813 102.864 56.6736C103.426 61.2387 103.628 68.4618 104.51 72.968C105.489 78.0816 105.79 82.8949 105.705 87.5383C106.985 88.1979 108.48 88.2567 109.578 87.8191C110.244 87.5513 110.766 87.1072 111.008 86.4933C111.086 84.4231 111.171 82.3267 111.204 80.3674C111.282 76.2857 111.152 72.759 110.316 71.1525L111.223 50.7371C111.184 50.7306 111.145 50.7241 111.099 50.7175C104.869 49.7118 104.092 49.7314 97.6523 48.693H97.6589Z" fill="#FFED0E"/>
<g style="mix-blend-mode:multiply">
<path d="M108.885 71.5115C110.943 76.6252 110.42 82.1894 109.571 87.8124C110.237 87.5447 110.76 87.1006 111.001 86.4867C111.08 84.4164 111.165 82.32 111.197 80.3608C111.276 76.279 111.145 72.7524 110.309 71.1458L111.217 50.7305C111.178 50.724 111.139 50.7174 111.093 50.7109L101.793 49.0063C104.738 55.4457 108.441 55.4 108.879 71.5115H108.885Z" fill="#FBBC04"/>
</g>
<path d="M113.3 32.6142L112.745 37.7343C112.699 38.3156 112.667 38.7923 112.634 39.1907C111.778 50.3976 112.144 45.4929 112.144 49.0784C111.805 52.6768 107.742 53.3952 104.144 52.8924C100.421 52.3634 96.529 50.3845 97.1102 46.6228C97.2996 45.4146 97.7241 44.3043 97.2604 32.5946C97.587 30.0214 98.0768 28.1079 100.225 26.5797L105.777 26.8932C108.559 28.6108 111.596 30.2174 113.294 32.6142H113.3Z" fill="#04C984"/>
<g style="mix-blend-mode:multiply" opacity="0.5">
<path d="M112.745 37.7343C112.699 38.3155 112.667 38.7923 112.634 39.1906C111.798 50.5673 112.144 44.8855 112.144 49.0783C111.948 52.6376 107.638 53.3821 104.144 52.8923C109.911 50.3845 107.037 41.0846 109.806 35.7358L112.739 37.7343H112.745Z" fill="#283440"/>
</g>
<path d="M112.654 53.5388L112.366 55.2891C112.771 55.8964 112.941 56.8108 112.987 57.8949C112.902 58.3194 112.667 58.5218 112.308 58.5153L112.072 59.1488C111.876 59.3839 111.622 59.4231 111.302 59.2468C110.962 59.5472 110.629 59.6125 110.289 59.5145L109.636 59.9651L108.343 60.3113C107.899 60.2656 107.729 59.9129 108.18 59.6713L109.271 58.9855L109.303 57.8296L108.67 57.4573L108.396 58.0124L108.147 58.5153C107.886 58.9855 107.416 58.9659 107.436 58.561L107.69 57.1242C108.174 56.2295 108.787 55.5699 109.545 55.165L110.041 53.0425L112.647 53.5388H112.654Z" fill="#FFB294"/>
<path d="M113.457 32.8557C114.032 34.73 114.789 40.0396 114.868 44.363L113.163 55.1257C112.667 56.125 110.538 56.2621 109.571 55.08L110.394 44.7287L108.938 36.9048C108.363 33.6002 112.197 30.6221 113.457 32.8622V32.8557Z" fill="#25435C"/>
<path d="M113.457 32.8557C114.032 34.73 114.789 40.0396 114.868 44.363L113.163 55.1257C112.667 56.125 110.538 56.2621 109.571 55.08L110.394 44.7287L108.938 36.9048C108.363 33.6002 112.197 30.6221 113.457 32.8622V32.8557Z" fill="#04C984"/>
<path d="M105.365 21.1068C105.365 21.1068 102.466 20.5125 102.439 25.9265C102.42 30.5242 103.23 30.9683 105.241 30.9618C106.234 30.9618 108.082 30.5307 108.043 26.2727C108.01 22.3411 107.076 21.0676 105.365 21.1133V21.1068Z" fill="#FFB294"/>
<g style="mix-blend-mode:multiply" opacity="0.5">
<path d="M106.567 27.5983C106.567 27.5983 105.528 30.3347 103.693 29.9821C102.217 29.6947 102.479 27.4089 102.479 27.4089L106.567 27.5983Z" fill="#FFB294"/>
</g>
<path d="M108.036 24.5877C108.036 24.5877 107.507 26.6907 106.567 27.605C105.626 28.5128 104.124 28.9699 103.55 28.996C102.975 29.0222 102.531 28.9764 102.159 28.5389C101.786 28.1013 101.558 24.0979 101.558 24.0979C101.571 22.5501 101.597 22.0864 101.78 21.2244C102.048 19.9574 102.968 17.1426 106.665 17.652C108.448 17.8937 109.551 19.1998 109.787 20.7672C109.969 22.0146 108.97 24.2351 108.97 24.2351L108.036 24.5877Z" fill="#FFB294"/>
<path d="M108.036 26.266L107.991 25.0382L107.22 25.1296L107.122 24.3786C107.129 23.8757 106.828 23.3924 106.325 23.3271C103.68 23.0006 102.426 21.283 101.715 21.505C100.853 19.3498 103.857 17.5081 106.116 17.5865C108.866 17.678 109.976 19.5262 109.983 21.1523C109.983 23.0985 109.552 24.9859 108.023 26.266H108.036Z" fill="#2A0B88"/>
<path d="M108.729 23.7387C109.081 24.026 108.833 24.7575 108.67 25.2473C108.48 25.8155 107.938 25.9983 107.814 25.8743C107.671 25.7306 107.566 25.2669 107.553 25.0644C107.507 23.9999 108.298 23.386 108.729 23.7387Z" fill="#FFB294"/>
<path d="M32.5061 90.8011C32.5061 90.8011 34.8507 92.1203 35.2817 92.571C35.7062 93.0281 36.3659 93.7465 36.0001 94.4061C35.6344 95.0657 34.4719 95.6992 33.7666 95.6078C33.0613 95.5229 32.2253 95.0461 31.0171 93.6812C31.0171 93.6812 30.4751 93.1979 29.711 93.0869C28.9468 92.9759 27.8562 92.6559 27.8497 91.4477C27.8497 90.246 28.0521 89.5994 28.4244 89.4035C28.7966 89.2141 32.4996 90.788 32.4996 90.788L32.5061 90.8011Z" fill="#2A0B88"/>
<path d="M31.0498 88.1496L31.4482 89.7954C31.4482 89.7954 32.8458 91.2648 33.9626 91.8526C34.4393 92.1007 34.596 92.6428 34.263 92.9824C33.8189 93.4396 32.7413 93.6747 32.7413 93.6747C32.7413 93.6747 32.049 93.851 31.0498 92.8648C30.0506 91.8787 28.9469 91.1146 28.7118 90.7946C28.4767 90.4746 28.1436 90.148 28.431 89.4166C28.7118 88.6851 29.4628 87.921 29.4628 87.921L31.0498 88.1561V88.1496Z" fill="#FFB294"/>
<path d="M27.5101 81.0703C27.5624 81.6776 27.6408 82.2328 27.7322 82.7748C28.0457 84.6883 28.4963 86.419 28.431 89.4101C28.6334 89.8477 28.9404 90.135 29.2865 90.3048C29.3453 90.331 29.391 90.3506 29.4367 90.3636C30.3772 90.7097 31.4678 90.2657 31.507 89.5473C31.507 89.5473 31.9968 78.8629 32.5454 77.4914C33.094 76.1199 33.9561 70.8691 33.9561 70.8691C33.9561 70.8691 35.3667 64.7955 35.4059 61.4648C35.4451 58.1341 33.525 55.6001 33.525 55.6001L28.9404 57.6247L28.431 76.355C28.431 76.355 27.3403 79.1045 27.5101 81.0572V81.0703Z" fill="#04C984"/>
<path d="M28.431 89.4166C28.6334 89.8542 28.9404 90.1416 29.2865 90.3114C29.3649 90.344 29.4106 90.3571 29.4367 90.3701C29.2408 90.024 29.8678 79.5812 30.0441 78.0204C30.2204 76.4334 31.9903 68.9883 31.9903 68.9883L33.9234 64.2142C33.9234 64.2142 31.2653 65.8992 31.2066 66.389L29.4041 69.9156L27.7387 82.7879C28.0522 84.7014 28.5028 86.4321 28.4375 89.4232L28.431 89.4166Z" fill="#00A658"/>
<path d="M29.182 94.0795C29.182 94.0795 30.9323 94.8567 31.2457 95.7057C31.5527 96.5547 31.5266 96.7898 31.1151 97.1164C30.7037 97.4364 29.071 97.8217 28.5746 97.776C28.0783 97.7303 26.7852 97.3645 26.1974 96.3784C25.6096 95.3922 24.7476 94.9677 24.6561 94.7783C24.5647 94.589 23.7745 93.3742 24.7476 91.8134L29.1885 94.0795H29.182Z" fill="#2A0B88"/>
<path d="M27.3012 90.4941L27.4056 91.9113C27.4056 91.9113 28.4898 93.6289 29.6327 94.4518C30.7755 95.2747 29.1951 95.5555 29.1951 95.5555C29.1951 95.5555 28.6661 95.7449 28.431 95.9343C28.1959 96.1237 27.6995 96.287 27.066 95.5947C26.4326 94.9024 24.7411 92.9954 24.715 92.7473C24.6888 92.4991 24.4668 92.6036 24.9762 90.9578C25.4921 89.3121 27.2946 90.4941 27.2946 90.4941H27.3012Z" fill="#FFB294"/>
<path d="M24.7737 76.1329C24.7737 76.1329 22.9451 79.4505 23.4545 83.3037C23.8137 86.0271 24.5451 87.5357 24.4667 91.3823C24.7933 92.0942 25.4072 92.4142 25.995 92.4534C26.7656 92.5122 27.5036 92.1073 27.5362 91.526C27.5362 91.526 28.026 80.8416 28.5746 79.4701C29.1232 78.0987 29.9853 72.8479 29.9853 72.8479C29.9853 72.8479 31.3959 66.7742 31.4351 63.4435C31.4743 60.1128 29.5542 57.5789 29.5542 57.5789H24.3557C21.4691 59.525 22.7883 68.0282 24.7672 76.1264L24.7737 76.1329Z" fill="#04C984"/>
<path d="M24.7737 76.1329C24.7737 76.1329 22.9451 79.4505 23.4545 83.3037C23.8137 86.0271 24.5451 87.5357 24.4667 91.3823C24.7933 92.0942 25.4072 92.4142 25.995 92.4534C25.995 92.4534 24.0814 83.258 25.995 76.4333C25.2047 70.8429 24.6365 66.6044 27.4774 62.8035C27.6603 62.5619 25.6749 58.9373 24.9174 57.5789H24.3557C21.4691 59.525 22.7883 68.0282 24.7672 76.1264L24.7737 76.1329Z" fill="#00A658"/>
<path d="M29.4889 39.593L30.9257 39.0314C30.9257 39.0314 32.6302 39.5865 36.5814 42.46C36.5814 42.46 40.7676 44.256 42.224 44.0928C42.224 44.0928 42.3938 43.4658 43.1514 43.2895C43.1514 43.2895 43.3799 43.0413 43.3865 43.0217C43.5628 42.6886 44.0787 42.8127 43.9155 43.1458L43.6412 43.6487C43.6412 43.6487 43.8044 44.145 44.0069 44.3279C44.2093 44.5107 46.1425 45.0985 46.1425 45.0985C46.5474 45.2683 46.4233 45.6275 46.0053 45.5948L44.7057 45.425L44.6534 45.5622L46.2927 46.3981C46.6192 46.6006 46.4429 46.9728 46.0576 46.8226L44.6012 46.2545L44.5294 46.3655L45.8682 47.2798C46.1817 47.4953 46.0314 47.8545 45.6396 47.6978L44.1898 46.8553L44.144 47.0055C44.144 47.0055 45.0845 48.1549 45.1171 48.1876C45.3261 48.4292 45.0126 48.6447 44.8363 48.4292L43.6608 47.3908C43.6608 47.3908 42.4983 47.123 41.917 46.2414C41.917 46.2414 41.917 46.0651 41.3946 46.2153C40.8721 46.3655 38.5079 46.692 37.5218 46.3981C36.5356 46.1042 30.6122 43.1393 30.0048 42.669C29.404 42.2053 28.8228 40.8078 28.8228 40.8078L29.4889 39.5865V39.593Z" fill="#FFB294"/>
<path d="M22.8733 60.5047C23.3827 62.1244 25.3419 62.784 27.4905 62.8101C28.8359 62.8297 30.2596 62.5946 31.4482 62.1897C34.5438 61.1317 34.9618 58.5716 34.9618 58.5716C33.9952 56.2793 33.6099 54.0392 33.4662 52.6547C33.3748 51.7861 33.3683 51.2506 33.3683 51.2506C35.739 49.9901 34.583 47.9982 33.6426 46.6268C32.7021 45.2553 30.9388 38.5155 30.9388 38.5155L25.8056 40.4747L20.816 44.0602L21.443 46.039L20.2021 46.7835C20.2021 46.7835 23.4153 53.3666 23.572 55.1299C23.7288 56.8932 22.8733 60.4982 22.8733 60.4982V60.5047Z" fill="#FFED0E"/>
<path d="M28.1044 31.2336C28.1044 31.2336 30.364 32.0173 30.8342 34.4272C31.3045 36.8371 30.7951 37.7579 31.1281 38.2477C31.4612 38.7375 31.9314 39.0902 31.9314 39.0902C31.9314 39.0902 30.3248 39.7564 29.4824 38.7375C28.6399 37.7187 28.1044 31.2336 28.1044 31.2336Z" fill="#2A0B88"/>
<path d="M28.5681 41.3303C28.5681 41.3303 29.0709 43.1393 28.3134 43.6552C27.5558 44.1646 25.5508 42.8911 25.5508 42.8911C25.5508 42.8911 24.5516 41.6372 24.63 41.2519C24.7084 40.8731 24.63 39.149 24.63 39.149C24.63 39.149 21.3646 35.1521 24.7541 33.0949C28.1436 31.0377 30.0963 34.6493 30.2008 35.3676C30.4816 37.3465 30.8081 39.9327 30.2008 40.6184C29.4367 41.4805 28.5746 41.3303 28.5746 41.3303H28.5681Z" fill="#FFB294"/>
<path d="M26.5108 34.3096C26.5108 34.3096 26.3737 39.0118 26.87 39.7563L26.1778 39.4233L26.648 42.5189C26.648 42.5189 25.5182 42.9695 25.1263 42.3099L24.5777 42.6691C24.5777 42.6691 21.6976 39.8935 21.4821 36.5628C21.2666 33.2321 22.2658 31.7039 24.0487 31.1357C25.8316 30.5675 29.5934 30.032 30.044 34.9039C30.044 34.9039 29.084 33.7676 28.1631 33.7415C26.8766 33.7023 26.5174 34.3096 26.5174 34.3096H26.5108Z" fill="#2A0B88"/>
<path d="M22.8733 60.5046C23.3827 62.1243 25.3419 62.7839 27.4905 62.81C27.4644 62.7055 26.0799 56.6515 33.4662 52.6611C33.3748 51.7925 33.3683 51.257 33.3683 51.257C33.3683 51.257 32.3364 51.8709 31.5266 50.3558C31.5266 50.3558 31.8401 51.9623 30.4621 52.7199C27.4905 54.3591 26.1582 50.0292 24.2186 47.4561C23.0104 45.8495 22.1091 44.9156 20.4569 44.8176L20.2021 46.7899C20.2021 46.7899 23.4153 53.373 23.572 55.1363C23.7288 56.8996 22.8733 60.5046 22.8733 60.5046Z" fill="#FBBC04"/>
<g style="mix-blend-mode:multiply" opacity="0.5">
<path d="M28.5681 41.3302C29.0644 42.8519 26.5501 43.7531 26.0994 40.1677C27.0725 40.9775 27.7452 41.1539 28.5681 41.3302Z" fill="#FFB294"/>
</g>
<path d="M24.9631 62.7709L25.6227 63.5546L26.9812 65.5465L28.1436 66.5588L29.4433 67.3033C29.6719 67.46 29.9135 67.362 29.809 67.2053L30.3576 67.5318C30.7494 67.767 30.8931 67.5318 30.5862 67.2445L28.96 65.8404L30.7756 67.0877C31.1217 67.3163 31.2915 67.0486 30.965 66.7808L29.1559 65.1677L30.7429 66.1147C31.1609 66.3563 31.3633 66.1538 30.9911 65.8077L28.5877 63.7244L29.7437 63.9399L30.3641 63.9791C30.769 63.9856 30.756 63.6134 30.3119 63.5219L29.7633 63.3587L28.8816 62.8427L26.6611 62.5945L25.4268 61.7913L24.9631 62.797V62.7709Z" fill="#FFB294"/>
<path d="M23.9835 48.0048L22.181 54.4507L27.0726 62.6142C26.9419 63.5089 26.8048 63.9399 25.9493 64.0183C25.9493 64.0183 19.5295 57.481 19.0919 55.1233C18.6543 52.7723 19.9213 45.9867 19.9213 45.9867C20.5417 41.696 25.1068 44.4651 23.99 48.0048H23.9835Z" fill="#FFB294"/>
<path fill-rule="evenodd" clip-rule="evenodd" d="M65.5628 97.2567C65.5628 106.478 59.4425 113.718 59.4425 113.718C59.4425 113.718 53.3214 106.48 53.3214 97.2567C53.3214 92.9928 56.0612 89.5365 59.4425 89.5365C62.8221 89.5365 65.5628 92.993 65.5628 97.2567Z" fill="#FFED0E"/>
<path fill-rule="evenodd" clip-rule="evenodd" d="M71.7472 72.3186L82.7347 78.1723V70.7629C82.7347 69.7237 82.538 68.8114 82.1571 68.0872L77.4117 59.0596C76.39 57.1164 74.1795 56.7715 71.7471 58.1756V72.3186H71.7472Z" fill="#6634FA"/>
<path fill-rule="evenodd" clip-rule="evenodd" d="M46.8994 72.3186L35.9119 78.1723V70.7629C35.9119 69.7237 36.1086 68.8114 36.4886 68.0872L41.2349 59.0596C42.2556 57.1164 44.4671 56.7715 46.8994 58.1756V72.3186Z" fill="#6634FA"/>
<path fill-rule="evenodd" clip-rule="evenodd" d="M64.5545 87.3483H54.0912V88.8248H54.0929L54.0912 88.8664C54.0912 90.5487 56.4344 91.9127 59.3232 91.9127C62.2122 91.9127 64.5544 90.5496 64.5544 88.8664L64.5527 88.8248H64.5544L64.5545 87.3483Z" fill="#3B1BC0"/>
<path fill-rule="evenodd" clip-rule="evenodd" d="M71.819 74.2618H46.8269V81.687H46.832L46.8269 81.787C46.8269 85.8066 52.4214 89.0639 59.3234 89.0639C66.2245 89.0639 71.819 85.8066 71.819 81.787L71.8158 81.687H71.819V74.2618Z" fill="#3B1BC0"/>
<path fill-rule="evenodd" clip-rule="evenodd" d="M78.86 51.0162C80.1274 40.4246 77.6733 29.6513 71.6164 20.872C71.3623 20.5029 71.1023 20.137 70.8389 19.7745L59.3232 4L47.8074 19.7745C47.5432 20.137 47.2842 20.5027 47.03 20.872C40.9722 29.6513 38.519 40.4254 39.7847 51.0162L42.7261 75.6126H42.7321L42.7261 75.7458C42.7261 81.0829 50.1564 85.4109 59.323 85.4109C68.489 85.4109 75.9192 81.0829 75.9192 75.7458L75.9142 75.6126H75.9192L78.86 51.0162Z" fill="#EE522E"/>
<path fill-rule="evenodd" clip-rule="evenodd" d="M56.8093 57.5506C56.8093 59.8438 56.0169 61.4694 54.7304 62.2562L53.4546 63.062C52.1156 63.8102 52.9713 62.1121 50.9382 60.938C46.8451 58.575 43.5279 52.852 43.5279 48.1557C43.5279 45.8334 41.3799 45.8142 42.6955 45.0393L44.2254 44.1969C45.5612 43.4736 47.3859 43.6068 49.3984 44.7685C53.4913 47.1316 56.8093 52.8544 56.8093 57.5506Z" fill="#6634FA"/>
<path fill-rule="evenodd" clip-rule="evenodd" d="M55.346 58.4165C55.346 63.1119 52.0288 65.0035 47.9358 62.6411C43.8437 60.2779 40.5255 54.5551 40.5255 49.8588C40.5255 45.1626 43.8435 43.271 47.9358 45.6334C52.0288 47.9964 55.346 53.7193 55.346 58.4165Z" fill="white"/>
<path fill-rule="evenodd" clip-rule="evenodd" d="M53.9537 57.6115C53.9537 61.4254 51.259 62.961 47.9359 61.0421C44.6128 59.124 41.9188 54.4768 41.9188 50.6629C41.9188 46.849 44.6128 45.3133 47.9359 47.2323C51.259 49.1504 53.9537 53.7976 53.9537 57.6115Z" fill="#BFB0FE"/>
<path fill-rule="evenodd" clip-rule="evenodd" d="M49.12 60.5462C45.796 58.6273 43.1022 53.9801 43.1022 50.1662C43.1022 48.4088 43.6755 47.1356 44.6187 46.4615C42.9914 46.7582 41.9189 48.2564 41.9189 50.6629C41.9189 54.4768 44.6129 59.1239 47.936 61.0421C49.7275 62.077 51.3349 62.1062 52.4373 61.317C51.4864 61.4903 50.3465 61.2544 49.12 60.5462Z" fill="#3F1DDB"/>
<path fill-rule="evenodd" clip-rule="evenodd" d="M47.021 82.477L38.2759 99.2239L36.506 98.1799V91.0897C36.506 90.0957 36.6944 89.0039 37.0586 87.8916L41.5999 74.0069C42.5781 71.0197 44.693 68.2466 47.0211 66.9033L48.721 67.9299L47.021 82.477Z" fill="#C63B1B"/>
<path fill-rule="evenodd" clip-rule="evenodd" d="M48.7891 83.5201L38.2759 99.2238V92.1336C38.2759 91.1386 38.4634 90.048 38.8275 88.9356L43.3696 75.0517C44.3461 72.0636 46.4627 69.2905 48.7891 67.9465V83.5201Z" fill="#3F1DDB"/>
<path fill-rule="evenodd" clip-rule="evenodd" d="M71.6255 82.477L80.3706 99.2239L82.1397 98.1799V91.0897C82.1397 90.0957 81.9521 89.0039 81.5881 87.8916L77.0468 74.0069C76.0686 71.0197 73.9528 68.2466 71.6255 66.9033L69.9257 67.9299L71.6255 82.477Z" fill="#C63B1B"/>
<path fill-rule="evenodd" clip-rule="evenodd" d="M69.8575 83.5201L80.3708 99.2238V92.1336C80.3708 91.1386 80.1826 90.048 79.8184 88.9356L75.2771 75.0517C74.2996 72.0636 72.1839 69.2905 69.8567 67.9465L69.8575 83.5201Z" fill="#3F1DDB"/>
<path fill-rule="evenodd" clip-rule="evenodd" d="M80.6033 99.2238L80.5374 99.1255L80.6033 99.0873V99.2238Z" fill="white"/>
<path fill-rule="evenodd" clip-rule="evenodd" d="M70.8392 19.7745L59.3234 4L47.8077 19.7745C47.7435 19.8636 47.6818 19.9537 47.6185 20.0428C49.6109 22.6534 54.1006 24.4757 59.3234 24.4757C64.5464 24.4757 69.0351 22.6533 71.0275 20.0428C70.9641 19.9537 70.9033 19.8636 70.8392 19.7745Z" fill="#6634FA"/>
<path d="M73.5132 56.1746L71.8348 57.3828L70.0845 55.4039C69.0266 53.5818 68.0469 52.2169 67.6028 49.7874C67.5441 49.3891 67.9098 49.3956 68.2102 49.6634C68.5302 50.3752 68.9025 50.8585 69.1702 51.1001C69.2159 51.1393 69.5164 51.1067 69.5164 51.1067L70.1825 49.8854L70.5548 48.638C70.5548 47.8478 70.4372 47.4494 70.4176 46.9988C70.385 46.2869 71.0707 46.2281 71.2666 47.0576C71.3189 47.2927 71.3515 48.0307 71.4887 48.2331C71.6977 48.5466 71.6323 48.8209 71.7826 49.1278C71.9001 49.1997 71.9458 49.4152 72.0373 49.5589C72.1679 50.1728 72.096 49.8266 72.3769 51.1916C72.3115 51.923 72.3638 51.3418 72.1091 54.2806L73.5132 56.168V56.1746Z" fill="#FFB294"/>
<path d="M89.024 57.6571L88.508 64.9194C87.8027 65.6051 86.6663 65.9513 85.2295 66.0623C83.4401 66.206 81.1935 65.9643 78.7183 65.5594C77.3795 64.6843 75.9297 63.3193 74.4015 61.6017C73.1671 60.2303 71.8806 58.6172 70.5548 56.8538C70.8552 55.1166 72.1026 54.3003 72.1026 54.3003L80.4555 60.1323L89.0174 57.6571H89.024Z" fill="#04C984"/>
<path d="M86.294 63.378L85.236 66.0556C83.4465 66.1993 81.1999 65.9577 78.7248 65.5528C77.3859 64.6776 75.9361 63.3127 74.4079 61.5951C75.9165 62.2482 78.7248 63.8939 78.7248 63.8939L86.294 63.3715V63.378Z" fill="#00A658"/>
<path d="M83.4139 121.986C83.4139 121.986 83.2572 123.312 86.0001 123.651C88.7431 123.991 90.1341 123.651 90.1341 123.651C90.1341 123.651 92.2305 124.324 93.4061 123.801C94.5751 123.279 94.2682 122.913 94.2682 122.913C94.1833 121.509 93.7914 120.118 93.0534 118.753L89.8729 117.584L89.4158 119.739L87.0385 120.601C87.0385 120.601 83.7666 120.797 83.4139 121.992V121.986Z" fill="#2A0B88"/>
<path d="M80.4163 110.511C81.631 110.668 82.2971 110.707 82.7543 110.72C83.3682 110.74 83.6033 110.707 84.276 110.844C85.2883 111.053 85.4711 111.752 86.7707 112C86.8687 112.02 86.9732 112.039 87.0777 112.046C87.2148 112.065 87.3716 112.078 87.5479 112.078V106.096L86.712 105.757L85.9283 105.443C85.9283 105.443 85.0597 105.09 85.0531 105.09L85.0074 105.201L84.3413 106.717L83.4009 106.971L82.0424 107.337C82.0424 107.337 81.3241 107.285 80.4685 107.337C79.724 107.383 78.8685 107.52 78.2938 107.833C77.0594 108.506 77.5819 110.145 80.4163 110.511Z" fill="#2A0B88"/>
<path d="M82.0882 90.7683C83.1331 97.4102 83.0613 102.165 84.3413 106.723C84.6744 107.01 85.014 107.265 85.3666 107.481C85.4581 107.526 85.543 107.579 85.6344 107.618C85.6866 107.657 85.752 107.683 85.8173 107.709C86.2026 107.899 86.6075 108.029 87.032 108.108C87.2018 108.14 87.3781 108.16 87.5545 108.173C88.1096 108.219 88.6908 108.173 90.5652 108.068L89.8729 94.5431L90.0492 90.7357L91.9628 85.7004L93.0599 82.8138L91.8648 82.4024L88.9716 81.4031L87.7765 80.9917L85.5821 80.2341L85.3209 80.9329L84.1846 83.9828L82.9959 87.1894L82.258 89.1618C82.062 89.6712 82.0163 90.2263 82.1012 90.7618L82.0882 90.7683Z" fill="#0A8FC7"/>
<path d="M84.2499 102.367C84.2499 102.367 84.5503 103.503 85.0009 105.208C85.1838 105.92 85.3993 106.736 85.6279 107.618C85.9871 108.996 86.3789 110.518 86.7642 112.013C87.3847 114.43 87.992 116.781 88.3904 118.394L88.41 118.446C88.5537 118.988 88.841 119.445 89.2198 119.798C89.7358 120.268 90.4084 120.555 91.1464 120.562C91.6493 120.562 92.1783 120.542 92.6877 120.457C93.0469 120.399 93.3669 120.242 93.6281 120.02C94.0853 119.628 94.3596 119.027 94.34 118.394C94.242 115.331 93.7653 107.82 91.3423 101.819L93.7783 89.9455C95.5417 88.2018 96.5278 85.9291 95.6266 82.3045C95.5286 81.9061 95.411 81.4946 95.2608 81.0636L91.8452 82.4089L90.5064 82.9379L88.3643 83.7804L85.6344 84.8515C85.6344 84.8515 85.5299 85.1911 85.3667 85.7984C84.6679 88.4238 82.898 96.0845 84.2368 102.374L84.2499 102.367Z" fill="#6634FA"/>
<g style="mix-blend-mode:multiply" opacity="0.5">
<path d="M80.4686 107.337L82.7478 110.727C83.3617 110.746 83.5968 110.713 84.2695 110.851C85.2818 111.06 85.4646 111.758 86.7643 112.007C87.3847 114.423 87.9921 116.774 88.3904 118.387L88.41 118.439L87.548 111.994L87.0255 108.101L86.712 105.763L86.1765 101.779C86.2418 96.3261 87.3586 91.1472 89.775 86.3144L90.5587 82.951L90.513 82.9314L87.9006 81.9322L85.3079 80.933L83.8319 80.3713L83.5446 80.8481C83.8254 82.004 84.054 82.8269 84.067 83.0424C84.067 83.3886 84.1062 83.6955 84.1781 83.9829L82.9895 87.1895L82.2515 89.1618C82.0556 89.6712 82.0098 90.2263 82.0947 90.7619C83.1397 97.4037 83.0678 102.158 84.3479 106.717L83.4074 106.971L82.049 107.337C82.049 107.337 81.3306 107.285 80.4751 107.337H80.4686Z" fill="#3B1BC0"/>
</g>
<path d="M82.1208 70.7646C82.1665 71.9074 82.2971 73.0503 82.5061 74.1932C82.5061 74.2324 82.5192 74.2716 82.5257 74.3173C82.5649 75.4276 82.7021 76.5704 82.8849 77.648C83.0808 78.8366 83.329 79.9469 83.5445 80.8547C83.8254 82.0106 84.0539 82.8335 84.067 83.049C84.067 83.3951 84.1062 83.7021 84.178 83.9895C84.3805 84.8123 84.8115 85.4001 85.3862 85.792C86.5161 86.5822 88.1749 86.641 89.481 86.3863C89.5855 86.3667 89.6835 86.3471 89.7815 86.321L89.8729 86.3014C90.4868 86.1969 91.2182 86.0075 91.9628 85.7071C92.5897 85.4524 93.2363 85.1193 93.824 84.7078C94.6861 84.1005 95.3 83.258 95.6396 82.3045C96.038 81.2008 96.0706 79.9665 95.7049 78.7909C94.0918 73.5793 93.9024 68.5833 94.3661 66.3236C94.9735 63.4043 92.6746 56.7625 88.1618 57.4221C87.992 57.4417 87.8157 57.4744 87.6328 57.5266L87.5087 57.5658C87.3063 57.618 87.0973 57.6899 86.8883 57.7813C86.7054 57.8923 86.5291 57.9968 86.3593 58.1078C86.1569 58.2319 85.9675 58.3625 85.7846 58.4932C85.3274 58.8132 84.9356 59.1332 84.596 59.4728C84.2629 59.7863 83.9821 60.1193 83.7339 60.4851C83.5315 60.7789 83.3617 61.099 83.218 61.432C83.0743 61.7716 82.9568 62.1308 82.8653 62.5161C82.8131 62.7839 82.7608 63.0517 82.7151 63.3194C82.4147 64.9978 82.1992 66.6567 82.1208 68.309C82.0816 69.1319 82.0816 69.9547 82.1208 70.7711V70.7646Z" fill="#04C984"/>
<path d="M83.0809 78.7387C83.0809 80.3779 84.054 82.8335 84.067 83.049C84.067 83.3951 84.1062 83.7021 84.178 83.9894C84.3805 84.8123 84.4719 85.5503 85.0466 85.9487C86.1765 86.7389 87.5545 86.961 89.7815 86.3209C89.5725 83.0033 93.0142 79.9534 92.6224 77.955C92.5701 77.648 91.3162 70.4315 91.277 70.118C90.9048 67.0681 86.392 66.4673 85.5365 68.3873C85.5365 68.3873 85.5169 75.532 83.0809 78.7452V78.7387Z" fill="#00A658"/>
<path d="M84.2107 61.7912L82.9437 58.2645L87.5414 56.1747L88.5863 58.2645C88.9586 59.5968 84.7332 62.6728 84.2107 61.7912Z" fill="#FFB294"/>
<path d="M83.4728 85.2368C83.3813 85.2563 82.1143 87.6074 82.1143 87.6074L80.6514 89.2793L79.5739 91.9439L79.5347 93.0084L79.7045 93.877C79.822 94.4648 80.2988 94.2819 80.2661 93.864L80.6123 94.935C80.769 95.3856 81.1804 95.3073 81.1543 94.8436L81.089 93.4917L81.7421 95.0591C81.9445 95.4575 82.4082 95.255 82.2907 94.8697L81.9184 93.9358L82.2254 92.7733L82.3429 93.8509L82.7086 94.5432C82.9699 94.935 83.2899 94.6215 83.1201 94.1383L82.885 93.5244L83.4923 92.1659C83.6621 91.7872 83.7601 91.3823 83.7732 90.9643L83.8124 89.9781L84.1715 88.7634L84.485 86.1968L83.4793 85.2302L83.4728 85.2368Z" fill="#FFB294"/>
<path d="M85.5103 68.9686L86.0655 76.8121C85.1185 80.1755 83.329 83.8915 82.1143 87.6141L84.5177 88.9725C86.7969 86.5038 88.9455 82.6049 91.0746 78.5036L91.264 69.0404C91.6297 63.1039 85.4124 64.7236 85.5103 68.9751V68.9686Z" fill="#04C984"/>
<path d="M83.5968 59.7078L82.6368 59.2964C81.8792 58.9699 81.3045 58.3233 81.0694 57.5266C80.6514 56.0963 80.1942 53.7713 80.9583 52.0799C82.1404 49.4741 83.7535 48.8863 86.3201 49.8137C88.8867 50.741 89.8468 52.6742 89.0631 55.5151C88.2794 58.356 87.5545 57.9576 87.5545 57.9576L83.5903 59.7078H83.5968Z" fill="#FFB294"/>
<path d="M80.684 52.9289L81.9902 54.7444L82.4147 56.2465L82.8457 56.8735L83.0417 57.7943C83.1984 58.5192 83.8515 59.0286 84.596 59.0025C85.4973 58.9699 86.7512 58.7282 87.979 57.827C87.979 57.827 89.0043 57.1608 89.4092 54.5681C89.8207 51.9754 88.3382 50.4863 87.6394 50.101C86.9471 49.7157 83.2507 47.9263 81.2849 49.6373C79.1036 51.5313 80.6775 52.9289 80.6775 52.9289H80.684Z" fill="#2A0B88"/>
<path d="M82.7478 55.1754C82.885 55.1819 83.0091 55.2668 83.094 55.3779C83.1789 55.4889 83.2246 55.6195 83.2638 55.7501C83.4075 56.253 83.4336 56.7951 83.3226 57.311C83.2964 57.4416 83.2572 57.5788 83.1789 57.6898C83.1005 57.8008 82.9764 57.8857 82.8393 57.8857C82.7087 57.8857 82.5846 57.8008 82.5062 57.6963C82.4278 57.5918 82.3887 57.4612 82.3495 57.3371C82.2254 56.9061 81.7943 55.1362 82.7478 55.1819V55.1754Z" fill="#FFB294"/>
<path d="M82.552 54.5812C82.552 54.5812 82.3234 57.9838 83.3879 59.2834C83.5381 59.5643 83.5185 59.7275 83.5904 60.0475C82.4018 60.4655 79.8874 62.0525 80.867 56.7299C80.9323 57.1936 81.4548 57.8009 81.6703 57.3699C81.6376 56.2074 81.6115 54.8229 81.9381 53.7126L82.5585 54.5878L82.552 54.5812Z" fill="#2A0B88"/>
</svg>
