<svg width="128" height="128" viewBox="0 0 128 128" fill="none" xmlns="http://www.w3.org/2000/svg">
<path d="M65.9921 124.04L90.2489 110.031C92.721 108.593 92.4214 106.106 89.5597 104.443L66.6813 91.0933C63.8197 89.4452 59.4897 89.2654 57.0176 90.6887L32.7608 104.697C30.2887 106.136 30.5883 108.623 33.45 110.286L56.3284 123.635C59.19 125.283 63.52 125.463 65.9921 124.04Z" fill="#2A0B88"/>
<path d="M81.2295 99.049H91.927V107.364H81.2295V99.049Z" fill="#2A0B88"/>
<path d="M31.0829 98.6445H41.7804V106.96H31.0829V98.6445Z" fill="#2A0B88"/>
<path d="M65.9923 115.725L90.2491 101.716C92.7212 100.278 92.4215 97.7909 89.5599 96.1278L66.6815 82.7783C63.8198 81.1303 59.4899 80.9505 57.0178 82.3738L32.761 96.3825C30.2889 97.8208 30.5885 100.308 33.4502 101.971L56.3286 115.32C59.1902 116.969 63.5202 117.148 65.9923 115.725Z" fill="#6634FA"/>
<path d="M72.5546 118.032L84.6005 111.08V106.51L72.5546 113.462V118.032Z" fill="#BFB0FE"/>
<path d="M81.5588 14.6079L82.263 14.2034L95.4027 6.60724C95.4027 6.60724 98.4591 23.7473 92.7957 33.7257C84.6003 48.1838 75.1912 53.0082 75.1912 53.0082L76.3149 45.3821C77.109 44.4981 81.7985 41.2319 86.9226 33.426C92.0166 25.6351 92.0466 13.0647 92.0466 13.0647L80.555 19.3124L81.5438 14.5929L81.5588 14.6079Z" fill="#038F5E"/>
<path d="M84.9598 16.3908L85.664 15.9862L98.8037 8.39008C98.8037 8.39008 98.2344 28.0022 92.5859 37.9806C84.3905 52.4388 78.5922 54.806 78.5922 54.806L79.7159 47.1799C80.51 46.2959 85.1995 43.0297 90.3236 35.2238C95.4176 27.4329 95.4476 14.8625 95.4476 14.8625L83.956 21.1103L84.9448 16.3908H84.9598Z" fill="#FFBC00"/>
<path d="M81.5588 14.608L84.9598 16.3909L98.8037 8.39022L95.4176 6.6073L81.5588 14.608Z" fill="#FFED0E"/>
<path d="M61.3623 108.878C52.3347 108.878 45.0163 104.565 45.0163 99.2443C45.0163 93.9237 52.3347 89.6105 61.3623 89.6105C70.3899 89.6105 77.7083 93.9237 77.7083 99.2443C77.7083 104.565 70.3899 108.878 61.3623 108.878Z" fill="#2A0B88"/>
<path d="M45.0013 95.6335H77.7083V99.2443H45.0013V95.6335Z" fill="#2A0B88"/>
<path d="M45.0163 95.6333C45.0163 100.952 52.3428 105.267 61.3623 105.267C70.3818 105.267 77.7083 100.952 77.7083 95.6333C77.7083 90.3145 70.3818 85.9995 61.3623 85.9995C52.3428 85.9995 45.0163 90.3145 45.0163 95.6333Z" fill="#BFB0FE"/>
<path d="M61.3623 101.446C54.2626 101.446 48.5072 98.0522 48.5072 93.8652C48.5072 89.6783 54.2626 86.2841 61.3623 86.2841C68.4619 86.2841 74.2173 89.6783 74.2173 93.8652C74.2173 98.0522 68.4619 101.446 61.3623 101.446Z" fill="#2A0B88"/>
<path d="M48.5073 91.5434H74.2323V93.8507H48.5073V91.5434Z" fill="#2A0B88"/>
<path d="M48.5072 91.5432C48.5072 95.7233 54.2605 99.1244 61.3623 99.1244C68.464 99.1244 74.2173 95.7383 74.2173 91.5432C74.2173 87.3481 68.464 83.962 61.3623 83.962C54.2605 83.962 48.5072 87.3481 48.5072 91.5432Z" fill="#BFB0FE"/>
<path d="M52.8971 90.9887C52.8971 93.7455 56.6877 95.9779 61.3623 95.9779C66.0368 95.9779 69.8274 93.7455 69.8274 90.9887C69.8274 88.2319 66.0368 85.9995 61.3623 85.9995C56.6877 85.9995 52.8971 88.2319 52.8971 90.9887Z" fill="#038F5E"/>
<path d="M68.8386 69.0095C68.8386 69.0095 64.5985 73.3994 64.5985 79.0029C64.5985 84.6064 67.3253 85.9997 69.0034 88.8315C70.0971 90.6893 60.5832 90.8241 60.5832 90.8241C60.5832 90.8241 60.0888 69.9684 60.5832 70.4329C61.0776 70.8973 68.8386 69.0095 68.8386 69.0095Z" fill="#038F5E"/>
<path d="M53.8859 69.0095C53.8859 69.0095 58.126 73.3994 58.126 79.0029C58.126 84.6064 55.1595 85.9997 53.6163 88.9813C52.6124 90.914 62.1413 90.8391 62.1413 90.8391C62.1413 90.8391 62.6358 69.9834 62.1413 70.4478C61.6469 70.9123 53.8859 69.0245 53.8859 69.0245V69.0095Z" fill="#038F5E"/>
<path d="M61.3623 21.5893L90.2936 21.02C90.2936 21.02 87.1472 74.1481 61.3623 74.1481C35.5773 74.1481 32.4309 21.02 32.4309 21.02L61.3623 21.5893Z" fill="#05B779"/>
<path d="M32.4459 21.0352C32.4459 30.4442 45.3908 38.0703 61.3772 38.0703C77.3636 38.0703 90.3085 30.4442 90.3085 21.0352C90.3085 11.6261 77.3636 4 61.3772 4C45.3908 4 32.4459 11.6261 32.4459 21.0352Z" fill="#FFED0E"/>
<path d="M63.6846 12.9149C49.3163 10.8024 36.6561 15.7316 34.7233 23.987C34.4237 23.0281 34.2438 22.0393 34.2438 21.0205C34.2438 12.1958 46.3797 5.04907 61.3623 5.04907C76.3448 5.04907 88.4807 12.1958 88.4807 21.0205C88.4807 22.8484 87.9563 24.5863 86.9974 26.2194C83.7762 19.9417 74.8166 14.548 63.6846 12.8999V12.9149Z" fill="#038F5E"/>
<path d="M61.3623 37.0066C48.1027 37.0066 37.0756 31.4031 34.7233 24.0018C36.656 15.7464 49.3313 10.8171 63.6846 12.9297C74.8166 14.5627 83.7762 19.9565 86.9974 26.2491C83.3267 32.5119 73.2434 37.0216 61.3623 37.0216V37.0066Z" fill="#038F5E"/>
<path d="M42.8439 36.2874L42.1397 36.6919L29 44.2881C29 44.2881 29.5693 63.241 35.2177 66.687C43.4132 71.6762 49.2115 67.3463 49.2115 67.3463L51.4738 62.8065L48.0728 61.0236C47.2787 61.0686 42.5892 63.2111 37.4651 61.3083C32.3711 59.4055 34.3488 47.4344 34.3488 47.4344L43.8177 39.8682L42.8289 36.2874H42.8439Z" fill="#038F5E"/>
<path d="M46.2449 38.0706L45.5407 38.4751L32.401 46.0713C32.401 46.0713 32.9704 65.0242 38.6188 68.4702C46.8142 73.4594 52.6125 69.1294 52.6125 69.1294L51.4888 62.8068C50.6947 62.8517 46.0052 64.9942 40.8811 63.0915C35.7871 61.1887 35.7571 48.6483 35.7571 48.6483L47.2487 41.6364L46.2599 38.0556L46.2449 38.0706Z" fill="#FFBC00"/>
<path d="M28.9999 44.2881L32.386 46.071L46.2449 38.0703L42.8438 36.2874L28.9999 44.2881Z" fill="#FFED0E"/>
<path d="M82.8952 46.3696L80.8486 44.9194L74.4403 46.4506L76.487 47.9004L82.8952 46.3696Z" fill="#FFBC00"/>
<path d="M68.6403 56.6297L66.5937 55.1795L64.9192 62.6387L66.9658 64.0889L68.6403 56.6297Z" fill="#FFBC00"/>
<path d="M74.1181 42.566L72.0716 41.1158L68.7716 48.627L70.8183 50.0768L74.1181 42.566Z" fill="#FFBC00"/>
<path d="M74.1182 42.5658L70.8183 50.0765L64.2716 53.5194L68.6403 56.6293L66.9658 64.0884L72.9664 58.5025L78.4757 59.6693L77.8147 53.1066L82.8952 46.3693L76.4869 47.9001L74.1182 42.5658Z" fill="#FFED0E"/>
<path d="M70.8183 50.0765L68.7717 48.6268L62.2251 52.0692L64.2716 53.5194L70.8183 50.0765Z" fill="#FFBC00"/>
<path d="M64.2717 53.5198L62.2251 52.0696L66.5937 55.1795L68.6403 56.6297L64.2717 53.5198Z" fill="#F8CB34"/>
</svg>
