<svg width="128" height="128" viewBox="0 0 128 128" fill="none" xmlns="http://www.w3.org/2000/svg">
<path d="M66.2979 124.032L90.7551 109.907C93.2476 108.457 92.9455 105.95 90.0602 104.273L66.9927 90.813C64.1074 89.1513 59.7417 88.97 57.2491 90.4051L32.7919 104.53C30.2993 105.98 30.6015 108.487 33.4868 110.164L56.5542 123.624C59.4396 125.286 63.8053 125.467 66.2979 124.032Z" fill="#2A0B88"/>
<path d="M81.6611 98.8345H92.447V107.219H81.6611V98.8345Z" fill="#2A0B88"/>
<path d="M31.1001 98.4266H41.886V106.811H31.1001V98.4266Z" fill="#2A0B88"/>
<path d="M66.298 115.648L90.7553 101.524C93.2478 100.074 92.9457 97.566 90.0604 95.8892L66.9929 82.4294C64.1076 80.7677 59.7419 80.5865 57.2493 82.0216L32.7921 96.146C30.2995 97.5963 30.6017 100.104 33.487 101.781L56.5544 115.241C59.4397 116.902 63.8055 117.083 66.298 115.648Z" fill="#6634FA"/>
<path d="M72.9145 117.974L85.0601 110.965V106.357L72.9145 113.367V117.974Z" fill="#BFB0FE"/>
<path d="M81.9932 13.6956L82.7032 13.2877L95.9515 5.62878C95.9515 5.62878 99.0332 22.9105 93.323 32.9713C85.0598 47.549 75.573 52.4132 75.573 52.4132L76.706 44.7241C77.5066 43.8328 82.2349 40.5396 87.4013 32.6692C92.5375 24.8139 92.5677 12.1396 92.5677 12.1396L80.9811 18.439L81.9781 13.6805L81.9932 13.6956Z" fill="#C63B1B"/>
<path d="M85.4223 15.4932L86.1323 15.0853L99.3806 7.42639C99.3806 7.42639 98.8066 27.2006 93.1115 37.2615C84.8483 51.8391 79.0021 54.226 79.0021 54.226L80.1351 46.5368C80.9357 45.6455 85.664 42.3523 90.8304 34.4819C95.9666 26.6266 95.9968 13.9523 95.9968 13.9523L84.4102 20.2517L85.4072 15.4932H85.4223Z" fill="#FFBC00"/>
<path d="M81.9932 13.6957L85.4223 15.4933L99.3806 7.42651L95.9666 5.62885L81.9932 13.6957Z" fill="#FFED0E"/>
<path d="M61.6297 108.745C52.5275 108.745 45.1487 104.396 45.1487 99.0314C45.1487 93.6668 52.5275 89.318 61.6297 89.318C70.732 89.318 78.1108 93.6668 78.1108 99.0314C78.1108 104.396 70.732 108.745 61.6297 108.745Z" fill="#2A0B88"/>
<path d="M45.1335 95.3909H78.1108V99.0315H45.1335V95.3909Z" fill="#2A0B88"/>
<path d="M45.1487 95.3905C45.1487 100.753 52.5357 105.104 61.6297 105.104C70.7238 105.104 78.1108 100.753 78.1108 95.3905C78.1108 90.0278 70.7238 85.6771 61.6297 85.6771C52.5357 85.6771 45.1487 90.0278 45.1487 95.3905Z" fill="#BFB0FE"/>
<path d="M61.6297 101.252C54.4714 101.252 48.6685 97.8296 48.6685 93.608C48.6685 89.3864 54.4714 85.9642 61.6297 85.9642C68.7881 85.9642 74.591 89.3864 74.591 93.608C74.591 97.8296 68.7881 101.252 61.6297 101.252Z" fill="#2A0B88"/>
<path d="M48.6685 91.2668H74.6061V93.5932H48.6685V91.2668Z" fill="#2A0B88"/>
<path d="M48.6685 91.2667C48.6685 95.4814 54.4693 98.9106 61.6297 98.9106C68.7902 98.9106 74.591 95.4965 74.591 91.2667C74.591 87.037 68.7902 83.6229 61.6297 83.6229C54.4693 83.6229 48.6685 87.037 48.6685 91.2667Z" fill="#BFB0FE"/>
<path d="M53.0946 90.7075C53.0946 93.4871 56.9165 95.738 61.6297 95.738C66.3429 95.738 70.1648 93.4871 70.1648 90.7075C70.1648 87.928 66.3429 85.6771 61.6297 85.6771C56.9165 85.6771 53.0946 87.928 53.0946 90.7075Z" fill="#C63B1B"/>
<path d="M69.1678 68.5468C69.1678 68.5468 64.8927 72.9729 64.8927 78.6227C64.8927 84.2725 67.6421 85.6774 69.334 88.5325C70.4368 90.4057 60.8442 90.5416 60.8442 90.5416C60.8442 90.5416 60.3457 69.5136 60.8442 69.9819C61.3427 70.4502 69.1678 68.5468 69.1678 68.5468Z" fill="#C63B1B"/>
<path d="M54.0915 68.5468C54.0915 68.5468 58.3666 72.9729 58.3666 78.6227C58.3666 84.2725 55.3756 85.6774 53.8196 88.6836C52.8075 90.6323 62.4152 90.5567 62.4152 90.5567C62.4152 90.5567 62.9137 69.5287 62.4152 69.997C61.9166 70.4653 54.0915 68.5619 54.0915 68.5619V68.5468Z" fill="#C63B1B"/>
<path d="M61.6298 20.7346L90.8002 20.1606C90.8002 20.1606 87.6278 73.7278 61.6298 73.7278C35.6317 73.7278 32.4593 20.1606 32.4593 20.1606L61.6298 20.7346Z" fill="#F1522D"/>
<path d="M32.4744 20.176C32.4744 29.6628 45.5263 37.3519 61.6448 37.3519C77.7633 37.3519 90.8152 29.6628 90.8152 20.176C90.8152 10.6891 77.7633 3 61.6448 3C45.5263 3 32.4744 10.6891 32.4744 20.176Z" fill="#FFED0E"/>
<path d="M63.9712 11.9886C49.4842 9.85859 36.7193 14.8286 34.7706 23.1522C34.4685 22.1854 34.2872 21.1884 34.2872 20.1611C34.2872 11.2635 46.5234 4.05774 61.6297 4.05774C76.7361 4.05774 88.9723 11.2635 88.9723 20.1611C88.9723 22.0041 88.4436 23.7565 87.4768 25.4031C84.2289 19.0735 75.1953 13.6352 63.9712 11.9735V11.9886Z" fill="#C63B1B"/>
<path d="M61.6297 36.2794C48.2606 36.2794 37.1423 30.6296 34.7706 23.1671C36.7193 14.8435 49.4993 9.87345 63.9712 12.0035C75.1953 13.65 84.2289 19.0883 87.4767 25.433C83.7757 31.7475 73.6091 36.2945 61.6297 36.2945V36.2794Z" fill="#C63B1B"/>
<path d="M42.9583 35.5545L42.2483 35.9624L29 43.6213C29 43.6213 29.574 62.7309 35.2691 66.2054C43.5323 71.2358 49.3785 66.87 49.3785 66.87L51.6595 62.2928L48.2304 60.4951C47.4298 60.5405 42.7015 62.7007 37.5351 60.7822C32.3989 58.8637 34.393 46.7937 34.393 46.7937L43.9402 39.1649L42.9432 35.5545H42.9583Z" fill="#C63B1B"/>
<path d="M46.3875 37.3525L45.6775 37.7603L32.4292 45.4193C32.4292 45.4193 33.0032 64.5288 38.6983 68.0033C46.9615 73.0337 52.8077 68.668 52.8077 68.668L51.6747 62.2931C50.8741 62.3384 46.1458 64.4986 40.9794 62.5801C35.8432 60.6616 35.813 48.0176 35.813 48.0176L47.3996 40.9478L46.4026 37.3373L46.3875 37.3525Z" fill="#FFBC00"/>
<path d="M29 43.6213L32.414 45.419L46.3875 37.3522L42.9583 35.5545L29 43.6213Z" fill="#FFED0E"/>
<path d="M83.3406 45.7197L81.2771 44.2575L74.8159 45.8014L76.8794 47.2631L83.3406 45.7197Z" fill="#FFBC00"/>
<path d="M68.9679 56.0647L66.9044 54.6025L65.2161 62.1233L67.2796 63.5855L68.9679 56.0647Z" fill="#FFBC00"/>
<path d="M74.491 41.8848L72.4275 40.4226L69.1003 47.9958L71.1639 49.4576L74.491 41.8848Z" fill="#FFBC00"/>
<path d="M74.4911 41.8845L71.164 49.4573L64.5632 52.9287L68.9679 56.0643L67.2796 63.5851L73.3298 57.953L78.8847 59.1294L78.2182 52.5124L83.3406 45.7195L76.8794 47.2629L74.4911 41.8845Z" fill="#FFED0E"/>
<path d="M71.164 49.4574L69.1004 47.9956L62.4997 51.4666L64.5632 52.9287L71.164 49.4574Z" fill="#FFBC00"/>
<path d="M64.5632 52.9291L62.4997 51.4669L66.9044 54.6025L68.9679 56.0646L64.5632 52.9291Z" fill="#F8CB34"/>
</svg>
