<svg width="128" height="128" viewBox="0 0 128 128" fill="none" xmlns="http://www.w3.org/2000/svg">
<g clip-path="url(#clip0_229_26728)">
<path d="M54.079 125.13L48.2095 116.456L38.3351 128L50.8848 64.3109L66.6287 61.441L54.079 125.13Z" fill="#03B073"/>
<path d="M53.8844 63.759L42.0967 123.605L45.1936 119.99L56.349 63.3051L53.8844 63.759Z" fill="#E6EFFF"/>
<path d="M63.694 61.976L51.9063 121.822L50.0579 119.098L61.2295 62.4299L63.694 61.976Z" fill="#E6EFFF"/>
<path d="M78.8218 110.862L84.6913 95.3775L94.5657 95.5397L82.016 46.3298L66.272 61.6521L78.8218 110.862Z" fill="#03B073"/>
<path d="M79.0163 49.2478L90.804 95.4905L87.7233 95.4419L76.5518 51.6475L79.0163 49.2478Z" fill="#E6EFFF"/>
<path d="M69.2068 58.7983L80.9945 105.025L82.8429 100.177L71.6713 56.3986L69.2068 58.7983Z" fill="#E6EFFF"/>
<path d="M83.5674 52.4136C91.8804 32.8768 89.6552 13.2248 78.5973 8.51957C67.5394 3.81436 51.8361 15.8377 43.5231 35.3745C35.2101 54.9113 37.4353 74.5633 48.4932 79.2686C59.5512 83.9738 75.2544 71.9504 83.5674 52.4136Z" fill="#F1522D"/>
<path d="M88.2421 14.0633L79.8594 9.28015L45.907 77.8497L55.8625 83.93L88.2421 14.0633Z" fill="#F1522D"/>
<path d="M96.9654 34.3472C96.9654 52.7827 85.7452 74.2178 71.9145 82.1951C58.0839 90.1887 46.8637 81.7087 46.8637 63.257C46.8637 44.8053 58.0839 23.3865 71.9145 15.4091C85.7452 7.41553 96.9654 15.8955 96.9654 34.3472Z" fill="#FFED0E"/>
<path d="M81.87 15.1816C89.3609 15.1816 94.2089 22.7049 94.2089 34.3629C94.2089 51.8903 83.5887 72.2877 70.5525 79.8273C67.5205 81.5784 64.6506 82.454 61.9915 82.454C54.5005 82.454 49.6525 74.9306 49.6525 63.2727C49.6525 45.7452 60.2728 25.3478 73.3089 17.8082C76.341 16.0571 79.2109 15.1816 81.87 15.1653V15.1816ZM81.87 12.4089C78.8217 12.4089 75.4654 13.3818 71.9307 15.4085C58.1001 23.4021 46.8799 44.821 46.8799 63.2565C46.8799 76.9898 53.0899 85.1942 61.9752 85.1942C65.0235 85.1942 68.3798 84.2213 71.9145 82.1946C85.7452 74.201 96.9653 52.7821 96.9653 34.3467C96.9653 20.6133 90.7553 12.4089 81.87 12.4089Z" fill="#FFED0E"/>
<path d="M73.6842 34.9244L70.0532 46.2282L61.3542 52.4488L67.8117 55.5732L66.1235 66.4768L73.7475 57.1089L81.41 57.6185L79.6657 48.7038L86.0845 38.1175L77.3785 41.9842L73.6842 34.9244Z" fill="#3B1BC0"/>
</g>
<defs>
<clipPath id="clip0_229_26728">
<rect width="128" height="128" fill="white"/>
</clipPath>
</defs>
</svg>
