<svg width="128" height="128" viewBox="0 0 128 128" fill="none" xmlns="http://www.w3.org/2000/svg">
<path fill-rule="evenodd" clip-rule="evenodd" d="M93.1954 57.0792L78.696 48.6526C79.8165 49.3029 80.516 50.6977 80.5214 52.6645C80.5337 56.3444 78.1671 60.494 75.4564 62.6586C73.9866 63.8273 71.676 64.9824 69.8251 63.9106L84.2017 72.7028C89.6224 76.1876 95.9667 66.9029 95.4296 61.0906C95.4242 59.1243 94.5201 57.4844 93.1954 57.0792Z" fill="#6634FA"/>
<path fill-rule="evenodd" clip-rule="evenodd" d="M57.0015 84.9482L71.5009 93.3743L73.4646 98.3552L71.5459 109.201L57.0461 100.776L57.0015 84.9482ZM71.4777 85.2447L71.8224 84.3888L73.083 76.9022L71.4327 69.4174L56.9338 60.9908C56.9492 66.2819 56.9647 71.9385 56.9788 76.8194L71.4777 85.2447Z" fill="#FFED0E"/>
<path fill-rule="evenodd" clip-rule="evenodd" d="M69.9982 53.4489L56.9335 60.9905L71.4325 69.4171L76.6217 68.3944L84.4971 61.8736L69.9982 53.4489ZM91.5485 41.0068L106.047 49.4334L96.4676 56.237L92.991 56.9709L78.4916 48.5448L91.5485 41.0068Z" fill="#04C984"/>
<path fill-rule="evenodd" clip-rule="evenodd" d="M49.3239 91.2122L62.7542 99.0203C62.1335 98.6597 69.8397 84.2076 70.973 84.8633L57.3904 76.8806C52.7892 74.3549 46.8137 82.098 47.3103 87.4691C47.3148 89.2867 48.2016 90.5419 49.3239 91.2122Z" fill="#FFED0E"/>
<path fill-rule="evenodd" clip-rule="evenodd" d="M106.048 49.4333L92.9911 56.9708C94.2294 57.5661 95.0157 59.0077 95.0207 61.0909C95.0316 65.0641 92.2299 69.9068 88.7801 71.8995C85.3213 73.8963 82.5095 72.2942 82.4986 68.3201C82.4918 66.2369 83.2667 63.8958 84.4968 61.874L71.4322 69.4175L71.4744 84.4298L71.4772 85.2447C70.4126 84.2666 68.7464 84.2215 66.8728 85.3034C63.6677 87.1538 61.0756 91.6331 61.087 95.3153C61.0965 98.9883 63.7063 100.485 66.9101 98.6359C68.7846 97.5536 70.4444 95.5668 71.5004 93.3748L71.5031 94.1893L71.5454 109.202C80.2407 104.182 88.9266 99.1666 97.6219 94.147C102.325 91.433 106.147 84.8004 106.132 79.3984C106.104 69.4066 106.075 59.4247 106.048 49.4333Z" fill="#EE522E"/>
<path fill-rule="evenodd" clip-rule="evenodd" d="M70.7928 64.2522L84.4573 71.8844C81.9184 70.4091 82.782 66.1499 83.7488 63.9366C83.7511 63.9289 83.7552 63.9211 83.7588 63.9139C84.7088 61.7474 86.4428 59.4555 88.5151 58.2576C89.7052 57.5723 91.3145 57.1057 92.591 57.8493L79.4168 50.1903C78.3118 49.1221 76.6928 49.5054 75.374 50.0998C70.4813 52.3067 66.6164 61.8261 70.7928 64.2522Z" fill="#6634FA"/>
<path fill-rule="evenodd" clip-rule="evenodd" d="M80.4305 39.1246L65.5632 30.8208C68.3253 32.4256 67.3858 37.0605 66.334 39.468C66.3312 39.4761 66.3267 39.4848 66.3231 39.493C65.2899 41.85 63.4031 44.3438 61.148 45.6467C59.8533 46.3925 58.102 46.9 56.7132 46.091L71.047 54.4244C72.2494 55.5867 74.0107 55.1697 75.4454 54.5226C80.7697 52.1215 84.9744 41.7645 80.4305 39.1246Z" fill="#6634FA"/>
<path fill-rule="evenodd" clip-rule="evenodd" d="M71.901 54.0027L56.5444 45.985L56.5872 60.9973L71.0861 69.4239L71.901 54.0027ZM72.1175 28.8221L56.4749 21.2131L56.5172 36.2255L71.0161 44.6516L72.1175 28.8221Z" fill="#6634FA"/>
<path fill-rule="evenodd" clip-rule="evenodd" d="M103.116 13.9999L88.6178 5.57328C86.6914 4.47277 84.3535 5.11716 82.5518 6.15764C73.8565 11.1777 65.1693 16.1927 56.4744 21.2127L70.9738 29.6389C79.6691 24.6179 88.0289 23.1986 96.7247 18.1777C98.5032 17.1568 101.215 12.8875 103.116 13.9999Z" fill="#3F13C2"/>
<path fill-rule="evenodd" clip-rule="evenodd" d="M91.9356 57.3862L92.6446 56.9773L105.701 49.4398C105.672 39.4579 105.645 29.4665 105.616 19.4756C105.601 14.0717 101.753 11.8693 97.0512 14.5833C88.3553 19.6043 79.6686 24.6188 70.9733 29.6393L71.016 44.6517C72.1502 42.5753 73.785 40.7349 75.6063 39.683C79.0652 37.6862 81.8769 39.2878 81.8878 43.2628C81.8992 47.2374 79.1065 52.0746 75.6477 54.0715C73.8264 55.1233 72.1861 55.1838 71.0433 54.4116L71.086 69.424L84.1507 61.8805L84.8596 61.4721C83.4799 63.4881 82.6009 65.9101 82.6077 68.0633C82.6172 71.7464 85.2275 73.223 88.4326 71.373C91.6282 69.5281 94.2203 65.0479 94.2108 61.3653C94.2039 59.2115 93.314 57.81 91.9356 57.3862Z" fill="#6634FA"/>
<path fill-rule="evenodd" clip-rule="evenodd" d="M38.9505 87.7233L22 81.0952C22.0282 91.0866 22.0568 101.068 22.085 111.06C22.0923 113.745 23.0496 115.638 24.5857 116.53L39.0851 124.957C69.2672 70.0838 39.0969 139.163 38.9505 87.7233Z" fill="#FBBC04"/>
<path fill-rule="evenodd" clip-rule="evenodd" d="M56.6939 85.8779C55.8603 87.3963 54.6747 88.9079 53.3173 89.9952C51.8584 91.173 49.506 92.3731 47.6501 91.2795L62.0258 99.9102C65.4247 101.822 69.768 97.7474 71.1937 94.3022L56.6939 85.8779Z" fill="#FFED0E"/>
<path fill-rule="evenodd" clip-rule="evenodd" d="M56.6241 61.1041L42.6199 69.2192L57.1198 77.6458L61.7601 75.8514L71.123 69.5307L56.6241 61.1041ZM35.7745 73.1419L52.6022 80.5876L49.6463 84.3475L36.4998 89.5204L22 81.0947C26.6044 78.4362 31.6758 75.5076 35.7745 73.1419Z" fill="#FFED0E"/>
<path fill-rule="evenodd" clip-rule="evenodd" d="M49.5779 81.2531L35.049 72.757C29.5405 69.0598 37.8635 55.3567 43.6984 58.6387L58.0741 67.2695C53.2965 65.9493 46.3255 77.6688 49.5779 81.2531Z" fill="#04C984"/>
<path fill-rule="evenodd" clip-rule="evenodd" d="M71.1939 94.3023C70.0502 96.385 68.4154 98.225 66.6022 99.2709C63.1448 101.268 60.3335 99.657 60.3207 95.692C60.3098 91.717 63.1034 86.8798 66.5622 84.8829C68.374 83.8365 70.0143 83.787 71.1648 84.5428L71.1225 69.5304L58.0592 77.0739L57.3485 77.4823C58.72 75.4713 59.6072 73.0439 59.6018 70.8911C59.5908 67.208 56.9824 65.7314 53.7777 67.5814C50.5726 69.4313 47.9896 73.9065 47.9996 77.5891C48.0064 79.7424 48.8964 81.1439 50.2738 81.5678L49.5649 81.978L36.5002 89.5201C36.5284 99.511 36.5562 109.492 36.5848 119.484C36.5998 124.888 40.4575 127.085 45.1501 124.376C53.8459 119.355 62.5413 114.335 71.2366 109.314L71.1939 94.3023Z" fill="#FFED0E"/>
<path fill-rule="evenodd" clip-rule="evenodd" d="M79.3965 39.4246L69.0927 33.9612C66.642 33.1968 62.9394 41.0836 64.707 43.26L77.9444 50.8271C81.1996 48.4265 82.1523 41.1345 79.3965 39.4246Z" fill="#6634FA"/>
<path fill-rule="evenodd" clip-rule="evenodd" d="M58.6257 65.8021L52.9376 62.7894C50.4874 62.025 46.7848 69.9122 48.5519 72.0882L57.5002 77.2861C61.6953 74.5589 61.381 67.5125 58.6257 65.8021Z" fill="#04C984"/>
<path fill-rule="evenodd" clip-rule="evenodd" d="M71.0949 29.5142L56.5959 21.0876C47.9006 26.1072 39.2048 31.1281 30.5103 36.1477C25.7586 38.894 21.9873 45.5847 22 50.8981C22.0287 60.8895 22.0569 70.8809 22.0846 80.8623L36.5845 89.2876C36.5099 62.8918 48.3876 42.6229 71.0949 29.5142Z" fill="#03B073"/>
<path fill-rule="evenodd" clip-rule="evenodd" d="M75.7292 40.0909C73.8556 41.1732 72.1949 43.1491 71.1403 45.341L71.0948 29.5137C62.3995 34.5333 53.7046 39.5543 45.0092 44.5743C40.3161 47.2846 36.4848 53.9209 36.5003 59.3229C36.5285 69.3157 36.5567 79.3071 36.5849 89.2876L49.6495 81.7455C48.4112 81.1393 47.6263 79.7077 47.6204 77.6258C47.609 73.6508 50.4021 68.8232 53.8614 66.8263C57.3194 64.8295 60.1312 66.4216 60.1425 70.3948C60.148 72.478 59.3822 74.8041 58.1443 76.8409L71.2081 69.2975L71.1639 53.4702C72.2267 54.4484 74.5552 55.2064 76.4283 54.1246C79.6339 52.2746 82.4851 50.0867 81.546 43.4037C81.1822 40.815 78.9343 38.2409 75.7292 40.0909Z" fill="#04C984"/>
<path fill-rule="evenodd" clip-rule="evenodd" d="M70.7436 94.7661C69.5999 96.8489 67.9651 98.6888 66.152 99.7347C62.6945 101.732 59.8832 100.121 59.8705 96.1558C59.8596 92.1808 62.6531 87.3436 66.112 85.3468C67.9237 84.3004 69.564 84.2508 70.7145 85.0066L70.6723 69.9942L57.609 77.5377L56.8982 77.9461C58.2697 75.9352 59.5055 73.6528 59.5001 71.5C60.3486 67.6451 56.7047 65.6501 53.5001 67.5C50.295 69.3499 47.5394 74.3703 47.5494 78.0529C47.5562 80.2062 48.4461 81.6078 49.8236 82.0316L49.1146 82.4418L36.05 89.9839C36.0782 99.9748 36.1059 109.956 36.1346 119.948C36.1496 125.352 40.0073 127.548 44.6999 124.839C53.3957 119.819 62.091 114.799 70.7864 109.778L70.7436 94.7661Z" fill="#FFED0E"/>
<path fill-rule="evenodd" clip-rule="evenodd" d="M106.048 49.4333L92.9914 56.9708C94.2297 57.5661 95.016 59.0077 95.021 61.0909C95.0319 65.0641 92.2301 69.9068 88.7804 71.8995C85.3215 73.8963 82.5098 72.2942 82.4988 68.3201C82.492 66.2369 83.2669 63.8958 84.497 61.874L71.4324 69.4175L71.4747 84.4298L71.4774 85.2447C70.4128 84.2666 68.7466 84.2215 66.873 85.3034C61.8522 87.6559 61.0758 91.6331 61.0872 95.3153C61.0967 98.9883 63.7066 100.485 66.9103 98.6359C68.7848 97.5536 70.4447 95.5667 71.5006 93.3748L71.5033 94.1893L71.5456 109.202C80.241 104.182 88.9268 99.1666 97.6222 94.147C102.325 91.433 106.147 84.8004 106.132 79.3984C106.104 69.4066 106.075 59.4247 106.048 49.4333Z" fill="#EE522E"/>
<path d="M22.5 81.5L36.5558 89.2709L49.9625 81.6099C48.0473 80.4608 46.6137 76.0993 50.3456 70.5016C54.1761 64.7559 57.7927 66.0742 58.7727 67.0541C60.6879 68.9694 60.6879 71.2677 59.5388 73.949C58.6194 76.0941 57.8789 77.1411 57.6235 77.3964L84.82 61.6915C83.7985 63.2236 82.6749 66.9009 83.2878 69.3524C84.0539 72.4168 87.0759 72.3255 88.6505 71.6507C91.7148 70.3374 92.481 69.3524 93.6301 66.6711C94.5099 64.6181 95.1623 57.861 92.4809 57.4779C94.7792 56.3288 100.52 52.5644 105.5 49.5" stroke="#E6EFFF" stroke-width="2.14775" stroke-linecap="round" stroke-linejoin="round"/>
<path d="M71.4135 109.572V93.8673C70.2644 95.7825 67.0468 98.8468 64.9017 98.8468C62.2204 98.8468 59.8443 96.3237 61.0712 90.8027C61.582 88.5045 62.6034 86.819 66.0509 85.4401C67.5831 84.8272 71.0304 85.8232 71.4135 85.0571C71.72 84.4443 71.2859 63.8618 71.0305 53.6472C72.052 54.1579 74.4056 54.3071 76.3932 53.6472C79.7197 52.5427 81.7559 50.1996 82.1389 46.7522C82.3927 44.4678 82.522 41.0064 79.8406 39.4742C77.9254 38.3798 74.861 39.8573 73.7118 41.0064C72.7925 41.9257 71.6689 43.8156 71.0305 44.8371V29.898L57.0001 21.5" stroke="#E6EFFF" stroke-width="2.14775" stroke-linecap="round" stroke-linejoin="round"/>
</svg>
