<svg width="128" height="128" viewBox="0 0 128 128" fill="none" xmlns="http://www.w3.org/2000/svg">
<path fill-rule="evenodd" clip-rule="evenodd" d="M90.8523 55.9023L77.2374 47.9897C78.2896 48.6004 78.9463 49.91 78.9515 51.7569C78.963 55.2122 76.7408 59.1087 74.1954 61.1413C72.8153 62.2387 70.6456 63.3234 68.9077 62.3169L82.4073 70.5728C87.4973 73.845 93.4545 65.1266 92.9502 59.669C92.9451 57.8226 92.0962 56.2828 90.8523 55.9023Z" fill="#2A0B88"/>
<path fill-rule="evenodd" clip-rule="evenodd" d="M56.8663 82.071L70.4812 89.9831L72.3251 94.6602L70.5235 104.844L56.9082 96.9332L56.8663 82.071ZM70.4594 82.3494L70.7831 81.5458L71.9668 74.5158L70.4172 67.4876L56.8027 59.5751C56.8172 64.5434 56.8317 69.855 56.845 74.4381L70.4594 82.3494Z" fill="#2A0B88"/>
<path fill-rule="evenodd" clip-rule="evenodd" d="M69.07 52.4932L56.8024 59.5748L70.4168 67.4873L75.2895 66.527L82.6845 60.404L69.07 52.4932ZM89.3057 40.8101L102.92 48.7227L93.9247 55.1112L90.6602 55.8004L77.0453 47.8883L89.3057 40.8101Z" fill="#2A0B88"/>
<path fill-rule="evenodd" clip-rule="evenodd" d="M49.6571 87.9528L62.2681 95.2846C61.6852 94.946 68.9214 81.3755 69.9855 81.9913L57.2315 74.4955C52.9109 72.1239 47.3 79.3946 47.7663 84.4381C47.7706 86.1448 48.6032 87.3234 49.6571 87.9528Z" fill="#2A0B88"/>
<path fill-rule="evenodd" clip-rule="evenodd" d="M102.921 48.7226L90.6606 55.8003C91.8233 56.3593 92.5617 57.7129 92.5664 59.6691C92.5766 63.3999 89.9458 67.9472 86.7064 69.8183C83.4586 71.6933 80.8184 70.189 80.8081 66.4573C80.8017 64.5012 81.5293 62.3029 82.6844 60.4044L70.4168 67.4877L70.4565 81.5842L70.459 82.3494C69.4594 81.4309 67.8948 81.3887 66.1355 82.4045C63.1259 84.142 60.692 88.3481 60.7026 91.8057C60.7116 95.2546 63.1622 96.6604 66.1705 94.9237C67.9307 93.9074 69.4893 92.0418 70.4808 89.9836L70.4834 90.7484L70.5231 104.845C78.688 100.132 86.844 95.422 95.0089 90.7087C99.425 88.1602 103.014 81.9323 103 76.8598C102.974 67.4774 102.946 58.1045 102.921 48.7226Z" fill="#2A0B88"/>
<path fill-rule="evenodd" clip-rule="evenodd" d="M69.8162 62.637L82.6471 69.8036C80.2631 68.4183 81.074 64.4189 81.9818 62.3407C81.984 62.3334 81.9878 62.3261 81.9912 62.3193C82.8833 60.285 84.5115 58.1329 86.4574 57.0081C87.5749 56.3646 89.0861 55.9265 90.2847 56.6247L77.9141 49.4329C76.8765 48.4299 75.3563 48.7898 74.118 49.3479C69.5237 51.4202 65.8946 60.3589 69.8162 62.637Z" fill="#2A0B88"/>
<path fill-rule="evenodd" clip-rule="evenodd" d="M78.866 39.0423L64.9056 31.2451C67.4993 32.752 66.6171 37.1041 65.6294 39.3647C65.6268 39.3724 65.6226 39.3805 65.6192 39.3882C64.649 41.6014 62.8773 43.9431 60.7597 45.1665C59.544 45.8668 57.8996 46.3434 56.5955 45.5837L70.055 53.4087C71.184 54.5002 72.8378 54.1086 74.185 53.501C79.1845 51.2463 83.1327 41.5211 78.866 39.0423Z" fill="#2A0B88"/>
<path fill-rule="evenodd" clip-rule="evenodd" d="M70.8569 53.0133L56.4371 45.4847L56.4772 59.5812L70.0917 67.4938L70.8569 53.0133ZM71.0601 29.3688L56.3717 22.224L56.4115 36.3206L70.0259 44.2327L71.0601 29.3688Z" fill="#2A0B88"/>
<path fill-rule="evenodd" clip-rule="evenodd" d="M100.168 15.4509L86.5539 7.53831C84.7451 6.50493 82.5498 7.11001 80.858 8.08702C72.6931 12.8008 64.5358 17.5099 56.3713 22.2237L69.9862 30.1358C78.1511 25.4212 86.0009 24.0885 94.1663 19.3738C95.8363 18.4152 98.383 14.4064 100.168 15.4509Z" fill="#6634FA"/>
<path fill-rule="evenodd" clip-rule="evenodd" d="M89.6694 56.1903L90.3351 55.8064L102.595 48.7287C102.568 39.3557 102.543 29.9738 102.515 20.5923C102.501 15.5181 98.8877 13.4501 94.4728 15.9985C86.3075 20.7132 78.1507 25.4219 69.9858 30.1361L70.0259 44.2326C71.0909 42.2829 72.626 40.5548 74.3362 39.5671C77.584 37.6921 80.2243 39.196 80.2345 42.9285C80.2452 46.6606 77.6229 51.2028 74.375 53.0778C72.6649 54.0655 71.1246 54.1223 70.0515 53.3972L70.0917 67.4937L82.3593 60.4105L83.025 60.027C81.7295 61.9199 80.9041 64.1942 80.9105 66.2161C80.9194 69.6745 83.3705 71.061 86.3801 69.3239C89.3807 67.5915 91.8147 63.3846 91.8057 59.9266C91.7993 57.9043 90.9636 56.5883 89.6694 56.1903Z" fill="#2A0B88"/>
<path fill-rule="evenodd" clip-rule="evenodd" d="M39.9165 84.6774L24 78.4537C24.0265 87.8356 24.0534 97.2085 24.0798 106.59C24.0867 109.112 24.9855 110.889 26.428 111.727L40.0429 119.64C68.3837 68.114 40.054 132.979 39.9165 84.6774Z" fill="#3F13C2"/>
<path fill-rule="evenodd" clip-rule="evenodd" d="M56.5773 82.9446C55.7946 84.3704 54.6814 85.7898 53.4067 86.8108C52.0369 87.9167 49.8279 89.0436 48.0853 88.0167L61.584 96.1209C64.7755 97.9161 68.8539 94.0901 70.1926 90.855L56.5773 82.9446Z" fill="#2A0B88"/>
<path fill-rule="evenodd" clip-rule="evenodd" d="M56.5119 59.6823L43.362 67.3024L56.9774 75.2149L61.3346 73.5299L70.1264 67.5949L56.5119 59.6823ZM36.9342 70.9858L52.7354 77.9773L49.9598 81.5078L37.6153 86.3651L24 78.4534C28.3235 75.9571 33.0856 73.2071 36.9342 70.9858Z" fill="#2A0B88"/>
<path fill-rule="evenodd" clip-rule="evenodd" d="M49.8954 78.6019L36.2528 70.624C31.0804 67.1524 38.8955 54.2852 44.3746 57.367L57.8733 65.4713C53.3871 64.2317 46.8414 75.2362 49.8954 78.6019Z" fill="#2A0B88"/>
<path fill-rule="evenodd" clip-rule="evenodd" d="M70.193 90.8551C69.119 92.8109 67.5839 94.5385 65.8814 95.5207C62.6348 97.3961 59.995 95.8832 59.9831 92.1601C59.9728 88.4276 62.596 83.8854 65.8438 82.0104C67.5451 81.0279 69.0853 80.9813 70.1656 81.691L70.1259 67.5944L57.8596 74.6777L57.1921 75.0612C58.48 73.173 59.3131 70.8935 59.308 68.8721C59.2977 65.4137 56.8484 64.0272 53.8392 65.7643C50.8296 67.5014 48.4042 71.7036 48.4136 75.1615C48.42 77.1835 49.2557 78.4995 50.5491 78.8975L49.8834 79.2826L37.6157 86.3647C37.6422 95.7461 37.6682 105.119 37.6951 114.501C37.7092 119.575 41.3316 121.638 45.7379 119.094C53.9033 114.38 62.0682 109.666 70.2331 104.951L70.193 90.8551Z" fill="#2A0B88"/>
<path fill-rule="evenodd" clip-rule="evenodd" d="M77.895 39.3247L68.2198 34.1946C65.9186 33.4768 62.4419 40.8825 64.1017 42.9262L76.5316 50.0317C79.5881 47.7775 80.4827 40.9303 77.895 39.3247Z" fill="#6634FA"/>
<path fill-rule="evenodd" clip-rule="evenodd" d="M58.3913 64.0933L53.0502 61.2643C50.7494 60.5465 47.2727 67.9526 48.9321 69.9959L57.3344 74.8766C61.2736 72.3158 60.9785 65.6993 58.3913 64.0933Z" fill="#6634FA"/>
<path fill-rule="evenodd" clip-rule="evenodd" d="M70.0999 30.0192L56.4855 22.1066C48.3206 26.82 40.1552 31.5347 31.9912 36.248C27.5293 38.8268 23.9881 45.1094 24 50.0986C24.0269 59.4805 24.0534 68.8624 24.0795 78.2349L37.6948 86.1462C37.6247 61.3607 48.7779 42.3283 70.0999 30.0192Z" fill="#BFB0FE"/>
<path fill-rule="evenodd" clip-rule="evenodd" d="M74.4516 39.9506C72.6923 40.9669 71.1329 42.8222 70.1426 44.8804L70.0999 30.0187C61.935 34.732 53.7705 39.4467 45.6056 44.1605C41.1988 46.7055 37.6012 52.9369 37.6158 58.0094C37.6422 67.3926 37.6687 76.7745 37.6952 86.1461L49.9628 79.0641C48.8001 78.4949 48.063 77.1507 48.0575 75.1958C48.0468 71.4633 50.6695 66.9301 53.9178 65.0551C57.1648 63.1801 59.8051 64.6751 59.8157 68.4059C59.8209 70.362 59.1018 72.5462 57.9394 74.4588L70.2062 67.3755L70.1648 52.5137C71.1627 53.4322 72.729 53.4848 74.4879 52.4689C77.4979 50.7318 79.9229 46.5202 79.9135 43.0614C79.9029 39.6043 77.4612 38.2135 74.4516 39.9506Z" fill="#E6EFFF"/>
<path fill-rule="evenodd" clip-rule="evenodd" d="M70.193 90.855C69.119 92.8107 67.5839 94.5384 65.8814 95.5205C62.6349 97.3959 59.9951 95.883 59.9831 92.1599C59.9729 88.4274 62.596 83.8852 65.8439 82.0102C67.5451 81.0277 69.0853 80.9811 70.1657 81.6908L70.1259 67.5943L57.8596 74.6776L57.1921 75.061C58.48 73.1728 59.3131 70.8934 59.308 68.8719C59.2977 65.4135 56.8484 64.027 53.8392 65.7641C50.8297 67.5012 48.4042 71.7034 48.4136 75.1614C48.42 77.1833 49.2557 78.4993 50.5491 78.8973L49.8834 79.2825L37.6157 86.3645C37.6422 95.7459 37.6683 105.118 37.6952 114.501C37.7092 119.575 41.3316 121.637 45.738 119.094C53.9033 114.38 62.0682 109.666 70.2331 104.951L70.193 90.855Z" fill="#6634FA"/>
<path fill-rule="evenodd" clip-rule="evenodd" d="M89.6693 56.1901L90.3351 55.8062L102.595 48.7285C102.568 39.3555 102.543 29.9736 102.515 20.5922C102.501 15.518 98.8877 13.4499 94.4728 15.9984C86.3075 20.713 78.1507 25.4217 69.9858 30.1359L70.0259 44.2325C71.0909 42.2827 72.626 40.5546 74.3362 39.5669C77.584 37.6919 80.2242 39.1958 80.2345 42.9284C80.2452 46.6604 77.6229 51.2026 74.375 53.0776C72.6648 54.0653 71.1246 54.1221 70.0515 53.397L70.0917 67.4936L82.3593 60.4103L83.025 60.0268C81.7295 61.9198 80.9041 64.194 80.9105 66.2159C80.9194 69.6743 83.3705 71.0608 86.3801 69.3237C89.3807 67.5914 91.8147 63.3844 91.8057 59.9265C91.7993 57.9041 90.9636 56.5881 89.6693 56.1901Z" fill="#BFB0FE"/>
<path fill-rule="evenodd" clip-rule="evenodd" d="M102.921 48.7227L90.6606 55.8005C91.8234 56.3594 92.5617 57.713 92.5664 59.6692C92.5766 63.4 89.9458 67.9473 86.7065 69.8184C83.4586 71.6935 80.8184 70.1891 80.8081 66.4574C80.8017 64.5013 81.5294 62.303 82.6844 60.4045L70.4168 67.4878L70.4565 81.5844L70.459 82.3496C69.4594 81.4311 67.8948 81.3888 66.1355 82.4047C63.126 84.1422 60.692 88.3483 60.7027 91.8058C60.7116 95.2548 63.1622 96.6605 66.1706 94.9238C67.9307 93.9075 69.4893 92.0419 70.4808 89.9837L70.4834 90.7485L70.5231 104.845C78.688 100.132 86.844 95.4222 95.0089 90.7088C99.4251 88.1604 103.014 81.9324 103 76.8599C102.974 67.4776 102.946 58.1046 102.921 48.7227Z" fill="#2A0B88"/>
</svg>
