<svg width="128" height="128" viewBox="0 0 128 128" fill="none" xmlns="http://www.w3.org/2000/svg">
<path fill-rule="evenodd" clip-rule="evenodd" d="M91.6985 56.5213L77.9113 48.5086C78.9768 49.127 79.6419 50.4532 79.647 52.3234C79.6587 55.8225 77.4084 59.7683 74.8308 61.8266C73.4332 62.938 71.2361 64.0363 69.4761 63.0171L83.1466 71.3775C88.301 74.6911 94.3337 65.8624 93.823 60.3357C93.8178 58.4659 92.9582 56.9066 91.6985 56.5213Z" fill="#AC2F12"/>
<path fill-rule="evenodd" clip-rule="evenodd" d="M57.2824 83.0212L71.0696 91.0335L72.9368 95.7698L71.1124 106.083L57.3247 98.0716L57.2824 83.0212ZM71.0475 83.3032L71.3753 82.4894L72.574 75.3705L71.0047 68.2533L57.2179 60.2406C57.2326 65.2718 57.2473 70.6506 57.2607 75.2918L71.0475 83.3032Z" fill="#AC2F12"/>
<path fill-rule="evenodd" clip-rule="evenodd" d="M69.6405 53.0691L57.2176 60.2403L71.0043 68.253L75.9387 67.2805L83.4273 61.08L69.6405 53.0691ZM90.1324 41.2381L103.919 49.2508L94.8098 55.7202L91.504 56.4181L77.7168 48.4059L90.1324 41.2381Z" fill="#DA401C"/>
<path fill-rule="evenodd" clip-rule="evenodd" d="M49.9818 88.9775L62.7524 96.4021C62.1622 96.0592 69.49 82.317 70.5675 82.9405L57.6521 75.3499C53.2769 72.9482 47.5949 80.311 48.0671 85.4183C48.0714 87.1467 48.9146 88.3401 49.9818 88.9775Z" fill="#DA401C"/>
<path fill-rule="evenodd" clip-rule="evenodd" d="M103.92 49.2507L91.5044 56.4181C92.6818 56.9841 93.4295 58.3549 93.4342 60.3358C93.4446 64.1138 90.7805 68.7186 87.5002 70.6135C84.2112 72.5122 81.5376 70.9888 81.5272 67.2099C81.5207 65.229 82.2575 63.0029 83.4272 61.0804L71.0043 68.2533L71.0445 82.5283L71.0471 83.3032C70.0348 82.3731 68.4504 82.3303 66.6689 83.359C63.6212 85.1185 61.1564 89.3778 61.1672 92.8791C61.1763 96.3718 63.6579 97.7953 66.7043 96.0366C68.4867 95.0075 70.0651 93.1182 71.0691 91.034L71.0717 91.8084L71.112 106.083C79.3802 101.31 87.6394 96.5413 95.9077 91.7682C100.38 89.1876 104.014 82.8807 104 77.744C103.973 68.243 103.945 58.7514 103.92 49.2507Z" fill="#EE522E"/>
<path fill-rule="evenodd" clip-rule="evenodd" d="M70.3962 63.3412L83.3895 70.5985C80.9753 69.1957 81.7964 65.1457 82.7158 63.0411C82.7179 63.0337 82.7218 63.0264 82.7253 63.0195C83.6286 60.9594 85.2774 58.78 87.2479 57.6411C88.3796 56.9894 89.9099 56.5457 91.1237 57.2527L78.5965 49.97C77.5458 48.9542 76.0064 49.3187 74.7524 49.8839C70.1 51.9824 66.4249 61.0342 70.3962 63.3412Z" fill="#2A0B88"/>
<path fill-rule="evenodd" clip-rule="evenodd" d="M79.5604 39.4478L65.4234 31.5519C68.0499 33.0779 67.1565 37.4851 66.1563 39.7743C66.1537 39.7821 66.1494 39.7903 66.146 39.7981C65.1635 42.0393 63.3694 44.4107 61.2251 45.6496C59.994 46.3587 58.3287 46.8413 57.0081 46.072L70.6379 53.9961C71.7812 55.1014 73.456 54.7048 74.8203 54.0895C79.883 51.8063 83.8812 41.958 79.5604 39.4478Z" fill="#2A0B88"/>
<path fill-rule="evenodd" clip-rule="evenodd" d="M71.45 53.5958L56.8477 45.9719L56.8883 60.2468L70.6751 68.2595L71.45 53.5958ZM71.6558 29.652L56.7815 22.4167L56.8217 36.6917L70.6085 44.704L71.6558 29.652Z" fill="#3F13C2"/>
<path fill-rule="evenodd" clip-rule="evenodd" d="M101.132 15.5578L87.3457 7.54512C85.514 6.49867 83.2909 7.1114 81.5777 8.10078C73.3094 12.8742 65.0489 17.6429 56.7811 22.4164L70.5683 30.4287C78.8366 25.6544 86.7857 24.3048 95.0544 19.5304C96.7456 18.5597 99.3246 14.5001 101.132 15.5578Z" fill="#3F13C2"/>
<path fill-rule="evenodd" clip-rule="evenodd" d="M90.5006 56.8129L91.1747 56.4241L103.59 49.2568C103.563 39.7652 103.537 30.2646 103.509 20.7643C103.495 15.6259 99.8356 13.5317 95.3649 16.1124C87.0962 20.8867 78.8361 25.655 70.5678 30.4289L70.6085 44.7039C71.6869 42.7294 73.2415 40.9795 74.9733 39.9793C78.2623 38.0805 80.9359 39.6035 80.9463 43.3833C80.9571 47.1626 78.3016 51.7622 75.0127 53.661C73.2808 54.6612 71.7211 54.7187 70.6344 53.9844L70.6751 68.2594L83.098 61.0865L83.7721 60.6981C82.4602 62.6151 81.6243 64.9181 81.6308 66.9656C81.6399 70.4678 84.122 71.8718 87.1697 70.1128C90.2083 68.3584 92.673 64.0983 92.664 60.5965C92.6575 58.5486 91.8112 57.2159 90.5006 56.8129Z" fill="#6634FA"/>
<path fill-rule="evenodd" clip-rule="evenodd" d="M40.1179 85.6606L24 79.3581C24.0268 88.8588 24.0541 98.3503 24.0809 107.851C24.0878 110.404 24.998 112.204 26.4587 113.053L40.2459 121.065C68.9455 68.8875 40.2572 134.574 40.1179 85.6606Z" fill="#FBBC04"/>
<path fill-rule="evenodd" clip-rule="evenodd" d="M56.9897 83.9058C56.197 85.3497 55.0697 86.787 53.779 87.8209C52.3918 88.9409 50.1549 90.0821 48.3902 89.0421L62.0598 97.249C65.2917 99.0668 69.4217 95.1924 70.7773 91.9164L56.9897 83.9058Z" fill="#FBBC04"/>
<path fill-rule="evenodd" clip-rule="evenodd" d="M56.9234 60.3491L43.6071 68.0656L57.3948 76.0783L61.8072 74.372L70.7102 68.3618L56.9234 60.3491ZM37.0979 71.7957L53.0991 78.8756L50.2884 82.4509L37.7876 87.3696L24 79.3578C28.3782 76.8299 33.2006 74.0451 37.0979 71.7957Z" fill="#EE8A2E"/>
<path fill-rule="evenodd" clip-rule="evenodd" d="M50.2232 79.5082L36.4079 71.4294C31.17 67.9138 39.0841 54.8837 44.6325 58.0045L58.302 66.2114C53.7591 64.9561 47.1305 76.0999 50.2232 79.5082Z" fill="url(#paint0_linear_214_9)"/>
<path fill-rule="evenodd" clip-rule="evenodd" d="M70.7776 91.9165C69.6901 93.897 68.1356 95.6466 66.4115 96.6411C63.1239 98.5403 60.4506 97.0082 60.4385 93.238C60.4282 89.4582 63.0845 84.8586 66.3735 82.9598C68.0962 81.9648 69.656 81.9177 70.75 82.6364L70.7098 68.3614L58.2881 75.5344L57.6123 75.9227C58.9164 74.0105 59.7601 71.7023 59.7549 69.6552C59.7445 66.153 57.2642 64.749 54.2169 66.5081C51.1692 68.2671 48.7131 72.5226 48.7226 76.0243C48.7291 78.0718 49.5753 79.4045 50.8851 79.8075L50.211 80.1976L37.7881 87.3692C37.8149 96.8694 37.8412 106.361 37.8685 115.862C37.8828 121 41.551 123.089 46.0131 120.513C54.2818 115.739 62.55 110.965 70.8183 106.191L70.7776 91.9165Z" fill="#FFED0E"/>
<path fill-rule="evenodd" clip-rule="evenodd" d="M78.5772 39.7339L68.7795 34.5388C66.4492 33.8119 62.9284 41.3113 64.6093 43.3809L77.1965 50.5763C80.2918 48.2936 81.1977 41.3598 78.5772 39.7339Z" fill="#318C5D"/>
<path fill-rule="evenodd" clip-rule="evenodd" d="M58.8266 64.8159L53.4179 61.9512C51.088 61.2243 47.5673 68.7241 49.2476 70.7932L57.7563 75.7358C61.7454 73.1426 61.4466 66.4422 58.8266 64.8159Z" fill="#318C5D"/>
<path fill-rule="evenodd" clip-rule="evenodd" d="M70.6835 30.3106L56.8967 22.2979C48.6284 27.0709 40.3597 31.8452 32.0923 36.6182C27.574 39.2296 23.9879 45.5918 24 50.6441C24.0273 60.1448 24.0541 69.6455 24.0805 79.1366L37.8681 87.148C37.7972 62.0487 49.0915 42.7754 70.6835 30.3106Z" fill="#03B073"/>
<path fill-rule="evenodd" clip-rule="evenodd" d="M75.0902 40.3677C73.3086 41.3968 71.7295 43.2757 70.7267 45.3599L70.6834 30.3101C62.4152 35.0831 54.1473 39.8574 45.8791 44.6309C41.4165 47.2081 37.7734 53.5184 37.7881 58.6551C37.8149 68.157 37.8417 77.6577 37.8685 87.1479L50.2915 79.9763C49.114 79.3999 48.3676 78.0386 48.362 76.059C48.3512 72.2793 51.0071 67.6887 54.2965 65.79C57.5846 63.8912 60.2583 65.4051 60.2691 69.1831C60.2743 71.164 59.5461 73.3759 58.369 75.3127L70.7911 68.1397L70.7492 53.0898C71.7597 54.02 73.3458 54.0732 75.127 53.0444C78.1751 51.2854 80.6308 47.0204 80.6213 43.5178C80.6105 40.017 78.1379 38.6086 75.0902 40.3677Z" fill="#04C984"/>
<path fill-rule="evenodd" clip-rule="evenodd" d="M70.7776 91.9163C69.6901 93.8968 68.1356 95.6464 66.4115 96.6409C63.1239 98.5401 60.4506 97.0081 60.4385 93.2378C60.4282 89.458 63.0845 84.8584 66.3735 82.9597C68.0962 81.9647 69.656 81.9175 70.75 82.6362L70.7098 68.3612L58.2881 75.5342L57.6123 75.9225C58.9164 74.0103 59.7601 71.7021 59.7549 69.655C59.7445 66.1529 57.2642 64.7488 54.2169 66.5079C51.1692 68.267 48.7131 72.5224 48.7226 76.0241C48.7291 78.0716 49.5753 79.4043 50.8851 79.8073L50.211 80.1974L37.7881 87.369C37.8149 96.8692 37.8412 106.36 37.8685 115.861C37.8828 121 41.551 123.088 46.0131 120.513C54.2818 115.739 62.55 110.965 70.8183 106.191L70.7776 91.9163Z" fill="#FFED0E"/>
<path fill-rule="evenodd" clip-rule="evenodd" d="M90.5005 56.8128L91.1747 56.424L103.59 49.2567C103.563 39.7651 103.537 30.2644 103.509 20.7642C103.495 15.6258 99.8356 13.5316 95.3648 16.1123C87.0961 20.8866 78.8361 25.6549 70.5678 30.4288L70.6085 44.7037C71.6869 42.7293 73.2414 40.9793 74.9733 39.9791C78.2623 38.0804 80.9359 39.6034 80.9463 43.3831C80.9571 47.1625 78.3016 51.7621 75.0126 53.6609C73.2808 54.661 71.7211 54.7185 70.6344 53.9843L70.675 68.2593L83.098 61.0863L83.7721 60.698C82.4602 62.6149 81.6243 64.918 81.6308 66.9655C81.6399 70.4676 84.1219 71.8717 87.1696 70.1126C90.2082 68.3583 92.673 64.0981 92.6639 60.5964C92.6575 58.5485 91.8112 57.2158 90.5005 56.8128Z" fill="#6634FA"/>
<path fill-rule="evenodd" clip-rule="evenodd" d="M103.92 49.2509L91.5044 56.4182C92.6818 56.9842 93.4295 58.355 93.4342 60.3359C93.4446 64.1139 90.7805 68.7187 87.5002 70.6136C84.2112 72.5123 81.5376 70.9889 81.5272 67.21C81.5207 65.2291 82.2575 63.003 83.4272 61.0805L71.0043 68.2535L71.0445 82.5284L71.0471 83.3033C70.0348 82.3732 68.4504 82.3304 66.6689 83.3591C63.6212 85.1186 61.1564 89.378 61.1672 92.8792C61.1763 96.3719 63.6579 97.7954 66.7043 96.0367C68.4867 95.0076 70.0651 93.1184 71.0691 91.0341L71.0717 91.8086L71.112 106.084C79.3802 101.311 87.6394 96.5414 95.9077 91.7684C100.38 89.1877 104.014 82.8809 104 77.7442C103.973 68.2431 103.945 58.7515 103.92 49.2509Z" fill="#EE522E"/>
<defs>
<linearGradient id="paint0_linear_214_9" x1="47.2413" y1="67.7264" x2="41.7359" y2="70.9648" gradientUnits="userSpaceOnUse">
<stop stop-color="#FDD248"/>
<stop offset="1" stop-color="#FABD23"/>
</linearGradient>
</defs>
</svg>
