<svg width="128" height="128" viewBox="0 0 128 128" fill="none" xmlns="http://www.w3.org/2000/svg">
<path fill-rule="evenodd" clip-rule="evenodd" d="M93.2225 54.8478L78.7876 46.4587C79.9031 47.1061 80.5994 48.4947 80.6049 50.4527C80.6171 54.1162 78.2611 58.2474 75.5624 60.4024C74.0991 61.5659 71.7988 62.7158 69.9562 61.6487L84.2688 70.4018C89.6654 73.8711 95.9814 64.6277 95.4467 58.8414C95.4413 56.8838 94.5413 55.2512 93.2225 54.8478Z" fill="#6634FA"/>
<path fill-rule="evenodd" clip-rule="evenodd" d="M57.1896 82.5924L71.6244 90.9811L73.5793 95.9398L71.6693 106.737L57.234 98.3497L57.1896 82.5924ZM71.6014 82.8876L71.9445 82.0356L73.1995 74.5823L71.5565 67.1308L57.1221 58.7417C57.1375 64.0092 57.1529 69.6407 57.167 74.4999L71.6014 82.8876Z" fill="#6634FA"/>
<path fill-rule="evenodd" clip-rule="evenodd" d="M70.1283 51.2335L57.1218 58.7416L71.5562 67.1307L76.7223 66.1125L84.5627 59.6208L70.1283 51.2335ZM91.5827 38.8468L106.017 47.2359L96.4799 54.0092L93.0188 54.7399L78.584 46.3513L91.5827 38.8468Z" fill="#6634FA"/>
<path fill-rule="evenodd" clip-rule="evenodd" d="M49.5462 88.8286L62.9167 96.602C62.2987 96.243 69.9707 81.8552 71.0989 82.5081L57.5767 74.5608C52.996 72.0464 47.0471 79.755 47.5415 85.1022C47.546 86.9118 48.4288 88.1613 49.5462 88.8286Z" fill="#6634FA"/>
<path fill-rule="evenodd" clip-rule="evenodd" d="M106.018 47.2359L93.0192 54.7399C94.252 55.3325 95.0348 56.7677 95.0398 58.8416C95.0506 62.7971 92.2613 67.6183 88.8269 69.6021C85.3835 71.5901 82.5842 69.9951 82.5734 66.0387C82.5666 63.9647 83.338 61.6341 84.5627 59.6212L71.5562 67.1311L71.5983 82.0767L71.601 82.8879C70.5412 81.9141 68.8824 81.8693 67.0171 82.9463C63.8263 84.7885 61.2457 89.2479 61.257 92.9137C61.2665 96.5704 63.8648 98.0607 67.0542 96.2195C68.9204 95.142 70.5729 93.164 71.6241 90.9819L71.6268 91.7927L71.6689 106.738C80.3256 101.741 88.9727 96.7478 97.6294 91.7506C102.312 89.0487 106.117 82.4456 106.102 77.0676C106.074 67.1203 106.045 57.1828 106.018 47.2359Z" fill="#6634FA"/>
<path fill-rule="evenodd" clip-rule="evenodd" d="M70.9196 61.9888L84.5233 69.587C81.9957 68.1183 82.8554 63.8781 83.8179 61.6746C83.8202 61.6669 83.8242 61.6592 83.8279 61.652C84.7736 59.4952 86.4999 57.2134 88.563 56.0209C89.7478 55.3387 91.35 54.8742 92.6208 55.6144L79.5052 47.9895C78.4051 46.926 76.7933 47.3077 75.4804 47.8994C70.6095 50.0965 66.7617 59.5735 70.9196 61.9888Z" fill="#6634FA"/>
<path fill-rule="evenodd" clip-rule="evenodd" d="M80.5143 36.9732L65.7132 28.7064C68.4631 30.304 67.5278 34.9183 66.4806 37.315C66.4779 37.3232 66.4734 37.3318 66.4697 37.3399C65.4411 39.6864 63.5628 42.1692 61.3177 43.4663C60.0287 44.2087 58.2853 44.714 56.9026 43.9086L71.1727 52.2049C72.3697 53.362 74.1231 52.9469 75.5515 52.3027C80.8521 49.9122 85.038 39.6013 80.5143 36.9732Z" fill="#6634FA"/>
<path fill-rule="evenodd" clip-rule="evenodd" d="M72.0229 51.785L56.7347 43.8029L56.7773 58.7485L71.2116 67.1375L72.0229 51.785ZM72.2384 26.7164L56.6654 19.1414L56.7075 34.0869L71.1419 42.4755L72.2384 26.7164Z" fill="#6634FA"/>
<path fill-rule="evenodd" clip-rule="evenodd" d="M103.099 11.9601L88.6652 3.57097C86.7475 2.47536 84.42 3.11688 82.6263 4.15273C73.9696 9.15042 65.3211 14.1431 56.6649 19.1408L71.0998 27.5295C79.7564 22.5309 88.079 21.1179 96.7361 16.1193C98.5067 15.1029 101.207 10.8527 103.099 11.9601Z" fill="#6634FA"/>
<path fill-rule="evenodd" clip-rule="evenodd" d="M91.9684 55.1532L92.6742 54.7462L105.673 47.2422C105.644 37.3048 105.617 27.3579 105.588 17.4114C105.573 12.0316 101.742 9.83901 97.0611 12.5409C88.404 17.5395 79.756 22.5318 71.0993 27.5299L71.1419 42.4754C72.271 40.4083 73.8985 38.5761 75.7117 37.5289C79.1552 35.541 81.9544 37.1355 81.9653 41.0928C81.9766 45.0496 79.1964 49.8653 75.7529 51.8533C73.9397 52.9004 72.3067 52.9607 71.169 52.1919L71.2116 67.1374L84.2181 59.6276L84.9239 59.221C83.5503 61.228 82.6752 63.6392 82.682 65.7829C82.6915 69.4495 85.2901 70.9196 88.481 69.0779C91.6623 67.2411 94.2429 62.7808 94.2334 59.1146C94.2266 56.9705 93.3406 55.5752 91.9684 55.1532Z" fill="#6634FA"/>
<path fill-rule="evenodd" clip-rule="evenodd" d="M39.219 85.3556L22.344 78.7571C22.372 88.704 22.4006 98.6414 22.4286 108.588C22.4359 111.261 23.3889 113.146 24.9182 114.034L39.353 122.423C69.4007 67.7947 39.3648 136.567 39.219 85.3556Z" fill="#3B1BC0"/>
<path fill-rule="evenodd" clip-rule="evenodd" d="M56.8833 83.5182C56.0534 85.0299 54.8731 86.5348 53.5217 87.6173C52.0694 88.7898 49.7274 89.9846 47.8798 88.8958L62.1915 97.4882C65.5752 99.3914 69.8993 95.335 71.3186 91.9051L56.8833 83.5182Z" fill="#6634FA"/>
<path fill-rule="evenodd" clip-rule="evenodd" d="M56.8139 58.8549L42.8721 66.9339L57.3074 75.323L61.9271 73.5365L71.2483 67.244L56.8139 58.8549ZM36.0572 70.8391L52.81 78.2517L49.8673 81.9949L36.7793 87.1447L22.344 78.7565C26.9279 76.1098 31.9767 73.1942 36.0572 70.8391Z" fill="#6634FA"/>
<path fill-rule="evenodd" clip-rule="evenodd" d="M49.799 78.9141L35.3347 70.4557C29.8508 66.775 38.1366 53.1329 43.9456 56.4003L58.2573 64.9926C53.501 63.6784 46.5611 75.3457 49.799 78.9141Z" fill="#6634FA"/>
<path fill-rule="evenodd" clip-rule="evenodd" d="M71.3189 91.9051C70.1803 93.9786 68.5528 95.8103 66.7477 96.8516C63.3056 98.84 60.5068 97.236 60.4942 93.2886C60.4833 89.3313 63.2644 84.5156 66.7079 82.5277C68.5116 81.4859 70.1446 81.4366 71.29 82.189L71.2479 67.2435L58.2427 74.7534L57.5351 75.1599C58.9005 73.158 59.7838 70.7413 59.7784 68.5981C59.7675 64.9314 57.1707 63.4614 53.9803 65.3031C50.7894 67.1448 48.2179 71.6001 48.2279 75.2663C48.2347 77.41 49.1207 78.8053 50.492 79.2272L49.7862 79.6356L36.7797 87.1441C36.8078 97.0906 36.8354 107.028 36.8639 116.975C36.8788 122.355 40.7194 124.541 45.3911 121.845C54.0482 116.846 62.7048 111.849 71.3615 106.85L71.3189 91.9051Z" fill="#6634FA"/>
<path fill-rule="evenodd" clip-rule="evenodd" d="M79.4849 37.2719L69.2269 31.8328C66.7872 31.0718 63.101 38.9235 64.8608 41.0902L78.0393 48.6237C81.2799 46.2337 82.2284 38.9742 79.4849 37.2719Z" fill="#6634FA"/>
<path fill-rule="evenodd" clip-rule="evenodd" d="M58.8065 63.5318L53.1438 60.5325C50.7045 59.7714 47.0183 67.6236 48.7776 69.7899L57.686 74.9646C61.8624 72.2496 61.5496 65.2345 58.8065 63.5318Z" fill="#6634FA"/>
<path fill-rule="evenodd" clip-rule="evenodd" d="M71.2203 27.4057L56.7859 19.0166C48.1293 24.0138 39.4722 29.0124 30.8164 34.0097C26.0858 36.7437 22.3313 43.4047 22.344 48.6944C22.3725 58.6414 22.4006 68.5883 22.4282 78.5253L36.8635 86.913C36.7893 60.6347 48.6141 40.4561 71.2203 27.4057Z" fill="#BFB0FE"/>
<path fill-rule="evenodd" clip-rule="evenodd" d="M75.8341 37.9348C73.9688 39.0123 72.3154 40.9794 71.2656 43.1615L71.2203 27.4047C62.5637 32.402 53.9074 37.4006 45.2508 42.3982C40.5786 45.0965 36.7644 51.7032 36.7798 57.0812C36.8078 67.0295 36.8359 76.9764 36.864 86.9125L49.8704 79.4039C48.6377 78.8005 47.8562 77.3753 47.8504 75.3027C47.839 71.3453 50.6197 66.5392 54.0636 64.5512C57.5062 62.5633 60.3054 64.1483 60.3167 68.1038C60.3222 70.1778 59.5598 72.4935 58.3274 74.5212L71.333 67.0114L71.2891 51.2545C72.3471 52.2284 74.0078 52.2841 75.8726 51.207C81 50 81.6381 45.5 81.625 41.2329C81.6136 37.5676 79.0249 36.0931 75.8341 37.9348Z" fill="#E6EFFF"/>
<path fill-rule="evenodd" clip-rule="evenodd" d="M71.3189 91.9055C70.1803 93.979 68.5528 95.8107 66.7477 96.852C63.3056 98.8404 60.5068 97.2364 60.4942 93.289C60.4833 89.3317 63.2644 84.516 66.7079 82.5281C68.5116 81.4864 70.1446 81.437 71.29 82.1894L71.2479 67.2439L58.2427 74.7538L57.5351 75.1604C58.9006 73.1584 59.7838 70.7417 59.7784 68.5985C59.7675 64.9318 57.1707 63.4618 53.9803 65.3035C50.7894 67.1452 48.2179 71.6005 48.2279 75.2667C48.2347 77.4104 49.1207 78.8057 50.492 79.2277L49.7862 79.636L36.7797 87.1446C36.8078 97.0911 36.8354 107.028 36.8639 116.975C36.8789 122.355 40.7194 124.542 45.3911 121.845C54.0482 116.847 62.7048 111.849 71.3615 106.851L71.3189 91.9055Z" fill="#6634FA"/>
<path fill-rule="evenodd" clip-rule="evenodd" d="M91.9683 55.1529L92.6741 54.7459L105.672 47.2419C105.644 37.3044 105.617 27.3575 105.588 17.411C105.573 12.0312 101.742 9.83864 97.0611 12.5405C88.4039 17.5391 79.7559 22.5314 71.0992 27.5295L71.1418 42.4751C72.2709 40.4079 73.8985 38.5757 75.7117 37.5285C79.1551 35.5406 81.9543 37.1351 81.9652 41.0924C82.2517 47.2419 79.1963 49.865 75.7529 51.8529C73.9397 52.9001 72.3067 52.9603 71.169 52.1915L71.2115 67.1371L84.218 59.6272L84.9238 59.2206C83.5502 61.2276 82.6751 63.6388 82.6819 65.7825C82.6914 69.4492 85.2901 70.9192 88.4809 69.0775C91.6622 67.2408 94.2428 62.7805 94.2333 59.1142C94.2265 56.9701 93.3405 55.5748 91.9683 55.1529Z" fill="#BFB0FE"/>
<path fill-rule="evenodd" clip-rule="evenodd" d="M106.018 47.2358L93.0193 54.7398C94.2521 55.3325 95.0349 56.7676 95.0398 58.8416C95.0507 62.7971 92.2614 67.6182 88.827 69.6021C85.3835 71.59 82.5843 69.995 82.5735 66.0386C82.5667 63.9647 83.3381 61.634 84.5628 59.6212L71.5563 67.1311L71.5984 82.0766L71.6011 82.8879C70.5412 81.9141 68.8824 81.8692 67.0172 82.9463C63.8263 84.7884 61.2458 89.2478 61.2571 92.9136C61.2666 96.5703 63.8648 98.0607 67.0543 96.2194C68.9205 95.1419 70.5729 93.164 71.6242 90.9818L71.6269 91.7926L71.669 106.738C80.3256 101.741 88.9728 96.7478 97.6295 91.7505C102.312 89.0486 106.117 82.4456 106.102 77.0676C106.074 67.1202 106.045 57.1828 106.018 47.2358Z" fill="#2A0B88"/>
<path d="M22.344 78.8879L36.835 86.8961L50.1821 79.2693C48.2753 78.1253 46.8481 73.7832 50.5634 68.2103C54.3768 62.4902 57.9773 63.8026 58.953 64.7783C60.8597 66.685 60.8597 68.973 59.7156 71.6424C58.8004 73.778 58.0632 74.8203 57.8089 75.0745L84.8843 59.4394C83.8674 60.9648 82.7488 64.6257 83.3589 67.0663C84.1216 70.1171 87.1302 70.0262 88.6978 69.3544C91.7485 68.0469 92.5112 67.0663 93.6552 64.3969C94.5311 62.3531 95.1806 55.626 92.5112 55.2447C94.7993 54.1006 100.901 50.2872 105.858 47.2365" stroke="#E6EFFF" stroke-width="2.04841" stroke-linecap="round" stroke-linejoin="round"/>
<path d="M71.5373 107.107V91.472C70.3932 93.3787 67.19 96.4293 65.0545 96.4293C62.3851 96.4293 60.0196 93.9175 61.241 88.4211C61.7495 86.133 62.7664 84.4551 66.1985 83.0823C67.7239 82.4721 71.1559 83.4637 71.5373 82.7011C71.8424 82.0909 71.4102 61.6001 71.156 51.4309C72.1729 51.9393 74.5161 52.0879 76.4948 51.4309C79.8065 50.3314 81.8336 47.9987 82.2149 44.5666C82.4676 42.2924 82.5963 38.8464 79.9269 37.321C78.0202 36.2315 74.9694 37.7024 73.8254 38.8464C72.9102 39.7616 71.7915 41.6431 71.156 42.66V27.7874L55.5209 19.3979" stroke="#E6EFFF" stroke-width="2.04841" stroke-linecap="round" stroke-linejoin="round"/>
</svg>
