<svg width="128" height="128" viewBox="0 0 128 128" fill="none" xmlns="http://www.w3.org/2000/svg">
<path d="M88.7539 78.5588C89.8467 79.1695 91.1772 79.1759 92.2812 78.5843C112.535 67.7249 109.42 60.4193 112.795 50.7349C116.267 40.7731 126 38.6095 126 38.6095V38.1917L95.7686 21.7216C95.7686 21.7216 86.0355 23.8852 82.5641 33.847C79.2299 43.4134 82.2291 50.6568 62.7821 61.2994C61.7004 61.8909 61.6956 63.4439 62.7725 64.045L88.7524 78.5588H88.7539Z" fill="#BFB0FE"/>
<path d="M88.754 78.1412C89.8468 78.7519 91.1773 78.7583 92.2812 78.1667C112.535 67.3073 109.42 60.0017 112.796 50.3173C116.267 40.3555 126 38.1919 126 38.1919L95.7686 21.304C95.7686 21.304 86.0355 23.4676 82.5641 33.4294C79.2299 42.9958 82.2291 50.2392 62.7821 60.8818C61.7005 61.4733 61.6957 63.0263 62.7725 63.6274L88.7524 78.1412H88.754Z" fill="#E6EFFF"/>
<path d="M109.328 36.2549L99.4751 30.8345C99.3447 30.7628 99.1807 30.8103 99.1089 30.9406L98.8558 31.4002C98.784 31.5306 98.8316 31.6944 98.962 31.7662L108.815 37.1865C108.945 37.2583 109.109 37.2108 109.181 37.0804L109.434 36.6208C109.506 36.4905 109.459 36.3266 109.328 36.2549Z" fill="#BFB0FE"/>
<path d="M90.6721 70.1275L80.8191 64.7072C80.6887 64.6354 80.5247 64.683 80.4529 64.8133L80.1998 65.2729C80.128 65.4032 80.1755 65.5671 80.306 65.6389L90.159 71.0592C90.2894 71.131 90.4534 71.0834 90.5252 70.9531L90.7783 70.4935C90.8501 70.3632 90.8026 70.1993 90.6721 70.1275Z" fill="#BFB0FE"/>
<path d="M96.778 34.6153L90.6552 31.247C90.5247 31.1752 90.3608 31.2228 90.289 31.3531L90.0359 31.8127C89.9641 31.943 90.0116 32.1069 90.1421 32.1787L96.2649 35.5469C96.3953 35.6187 96.5593 35.5712 96.6311 35.4408L96.8842 34.9813C96.956 34.8509 96.9085 34.6871 96.778 34.6153Z" fill="#BFB0FE"/>
<path d="M98.9056 39.5781L89.0526 34.1578C88.9221 34.086 88.7582 34.1335 88.6864 34.2639L88.4333 34.7234C88.3615 34.8538 88.409 35.0177 88.5394 35.0894L98.3925 40.5097C98.5229 40.5815 98.6869 40.534 98.7587 40.4036L99.0118 39.9441C99.0836 39.8137 99.036 39.6499 98.9056 39.5781Z" fill="#BFB0FE"/>
<path d="M96.1974 41.8817L88.2633 37.517C88.1329 37.4453 87.9689 37.4928 87.8971 37.6231L87.644 38.0827C87.5722 38.2131 87.6198 38.3769 87.7502 38.4487L95.6843 42.8134C95.8148 42.8851 95.9787 42.8376 96.0505 42.7073L96.3036 42.2477C96.3754 42.1173 96.3279 41.9535 96.1974 41.8817Z" fill="#BFB0FE"/>
<path d="M96.5392 45.8627L87.4745 40.876C87.344 40.8043 87.18 40.8518 87.1082 40.9822L86.8551 41.4417C86.7833 41.5721 86.8309 41.7359 86.9613 41.8077L96.0261 46.7944C96.1566 46.8662 96.3205 46.8186 96.3923 46.6883L96.6454 46.2287C96.7172 46.0984 96.6697 45.9345 96.5392 45.8627Z" fill="#BFB0FE"/>
<path d="M96.5401 49.6541L86.6871 44.2338C86.5566 44.1621 86.3927 44.2096 86.3209 44.3399L86.0678 44.7995C85.996 44.9299 86.0435 45.0937 86.1739 45.1655L96.027 50.5858C96.1574 50.6576 96.3214 50.6101 96.3932 50.4797L96.6463 50.0201C96.7181 49.8898 96.6705 49.7259 96.5401 49.6541Z" fill="#BFB0FE"/>
<path d="M90.9563 50.376L85.0822 47.1446C84.9518 47.0728 84.7878 47.1203 84.716 47.2507L84.4629 47.7102C84.3911 47.8406 84.4387 48.0045 84.5691 48.0762L90.4432 51.3077C90.5736 51.3794 90.7376 51.3319 90.8094 51.2016L91.0625 50.742C91.1343 50.6116 91.0867 50.4478 90.9563 50.376Z" fill="#BFB0FE"/>
<path d="M91.4132 54.4218L83.4791 50.0571C83.3487 49.9853 83.1847 50.0328 83.1129 50.1632L82.8598 50.6227C82.788 50.7531 82.8355 50.9169 82.966 50.9887L90.9001 55.3534C91.0306 55.4252 91.1945 55.3777 91.2663 55.2473L91.5194 54.7878C91.5912 54.6574 91.5437 54.4935 91.4132 54.4218Z" fill="#BFB0FE"/>
<path d="M107.332 41.6339L111.078 43.6944C111.208 43.7662 111.372 43.7187 111.444 43.5883L111.697 43.1287C111.769 42.9984 111.721 42.8345 111.591 42.7628L107.845 40.7023C107.715 40.6305 107.551 40.678 107.479 40.8084L107.226 41.2679C107.154 41.3983 107.202 41.5622 107.332 41.6339Z" fill="#BFB0FE"/>
<path d="M101.999 42.4948L109.474 46.6074C109.605 46.6791 109.769 46.6316 109.841 46.5012L110.094 46.0417C110.166 45.9113 110.118 45.7475 109.988 45.6757L102.512 41.5632C102.381 41.4914 102.217 41.5389 102.146 41.6693L101.893 42.1288C101.821 42.2592 101.868 42.4231 101.999 42.4948Z" fill="#BFB0FE"/>
<path d="M103.13 46.9081L108.686 49.965C108.817 50.0368 108.981 49.9893 109.053 49.8589L109.306 49.3994C109.378 49.269 109.33 49.1051 109.2 49.0334L103.643 45.9765C103.512 45.9047 103.348 45.9522 103.277 46.0826L103.023 46.5421C102.952 46.6725 102.999 46.8364 103.13 46.9081Z" fill="#BFB0FE"/>
<path d="M101.208 49.6457L107.897 53.3254C108.027 53.3971 108.191 53.3496 108.263 53.2193L108.516 52.7597C108.588 52.6294 108.54 52.4655 108.41 52.3937L101.721 48.7141C101.591 48.6423 101.427 48.6898 101.355 48.8202L101.102 49.2797C101.03 49.4101 101.078 49.574 101.208 49.6457Z" fill="#BFB0FE"/>
<path d="M99.6325 52.572L107.108 56.6845C107.239 56.7563 107.403 56.7088 107.474 56.5784L107.727 56.1189C107.799 55.9885 107.752 55.8246 107.621 55.7529L100.146 51.6403C100.015 51.5686 99.8512 51.6161 99.7794 51.7465L99.5263 52.206C99.4545 52.3364 99.502 52.5002 99.6325 52.572Z" fill="#BFB0FE"/>
<path d="M102.008 57.6718L105.505 59.5954C105.635 59.6672 105.799 59.6197 105.871 59.4893L106.124 59.0297C106.196 58.8994 106.148 58.7355 106.018 58.6638L102.521 56.7401C102.39 56.6684 102.227 56.7159 102.155 56.8462L101.902 57.3058C101.83 57.4361 101.877 57.6 102.008 57.6718Z" fill="#BFB0FE"/>
<path d="M98.3451 59.4482L103.902 62.5051C104.032 62.5768 104.196 62.5293 104.268 62.399L104.521 61.9394C104.593 61.809 104.545 61.6452 104.415 61.5734L98.8582 58.5165C98.7277 58.4447 98.5638 58.4923 98.492 58.6226L98.2389 59.0822C98.1671 59.2125 98.2146 59.3764 98.3451 59.4482Z" fill="#BFB0FE"/>
<path d="M85.2626 59.8087L77.3285 55.444C77.198 55.3723 77.034 55.4198 76.9622 55.5501L76.7091 56.0097C76.6373 56.1401 76.6849 56.3039 76.8153 56.3757L84.7495 60.7404C84.8799 60.8121 85.0439 60.7646 85.1157 60.6343L85.3688 60.1747C85.4406 60.0444 85.393 59.8805 85.2626 59.8087Z" fill="#FBBC04"/>
<path d="M92.1942 64.836L97.751 67.8929C97.8815 67.9646 98.0455 67.9171 98.1173 67.7868L98.3703 67.3272C98.4421 67.1969 98.3946 67.033 98.2642 66.9612L92.7073 63.9043C92.5769 63.8326 92.4129 63.8801 92.3411 64.0105L92.088 64.47C92.0162 64.6004 92.0638 64.7642 92.1942 64.836Z" fill="#04C984"/>
<path d="M101.939 64.7029L80.5307 52.9258L80.2084 53.511L101.617 65.2881L101.939 64.7029Z" fill="#BFB0FE"/>
<path d="M47.294 42.4765C46.6578 42.1089 46.0816 42.075 45.6657 42.3162L2.67661 67.298C3.09247 67.0568 3.66868 67.0907 4.30486 67.4584L10.5546 71.0669L53.5437 46.085L47.294 42.4765Z" fill="#3F13C2"/>
<path d="M53.5424 46.084L10.5546 71.0658L21.9563 80.2487L64.9454 55.2669L53.5424 46.084Z" fill="#6634FA"/>
<path d="M15.0157 71.4041L53.309 49.1495L60.483 54.9273L22.1909 77.1832L15.0157 71.4041Z" fill="#BFB0FE"/>
<path opacity="0.4" d="M53.2738 50.2642L59.6578 55.4058L60.483 54.9273L53.309 49.1495L15.0157 71.4041L15.8057 72.0403L53.2738 50.2642Z" fill="#BFB0FE"/>
<path d="M110.758 82.9902C110.749 82.9485 110.74 82.9094 110.73 82.8677C110.687 82.6995 110.632 82.5313 110.559 82.3658C110.483 82.2002 110.408 82.062 110.325 81.9291C110.299 81.8874 110.273 81.8483 110.246 81.8078C110.177 81.7036 110.102 81.6058 110.024 81.5106C110.005 81.4872 109.989 81.4598 109.97 81.4376C109.872 81.3333 109.804 81.2694 109.736 81.2069C109.702 81.1756 109.67 81.1417 109.634 81.1117C109.529 81.0244 109.421 80.9448 109.309 80.881L64.9441 55.2668L21.955 80.2487L66.3194 105.863C66.4316 105.928 66.5398 106.006 66.6454 106.094C66.6806 106.122 66.7118 106.156 66.7457 106.187C66.8148 106.25 66.8826 106.315 66.9465 106.386C66.9765 106.419 67.0052 106.456 67.0351 106.491C67.1134 106.586 67.1877 106.685 67.2581 106.788C67.2854 106.829 67.3128 106.868 67.3376 106.91C67.4184 107.043 67.494 107.179 67.5566 107.32C67.6426 107.512 67.6974 107.68 67.7404 107.848C67.7508 107.89 67.76 107.93 67.7691 107.972C67.8043 108.14 67.8304 108.308 67.8291 108.469L67.8252 109.733C67.8238 110.21 67.6544 110.545 67.3832 110.703L110.371 85.7214C110.644 85.5636 110.812 85.2273 110.813 84.7515L110.817 83.4869C110.82 83.3279 110.795 83.1597 110.758 82.9902Z" fill="#3F13C2"/>
<path d="M109.971 81.4371L66.9817 106.419C67.219 106.69 67.4223 107.009 67.5696 107.345L110.559 82.3627C110.411 82.0277 110.208 81.7083 109.971 81.4371Z" fill="#6634FA"/>
<path d="M66.3208 105.863L21.9563 80.2488L10.5546 71.0659L4.30486 67.4574C3.03641 66.7247 2.01044 67.3166 2.00653 68.7741L2.00001 70.826C1.9961 72.2835 3.01555 74.0565 4.284 74.7891L66.3077 110.599C67.142 111.081 67.8239 110.693 67.8278 109.733L67.8317 108.469C67.833 107.519 67.1564 106.345 66.3208 105.863Z" fill="#2A0B88"/>
<path opacity="0.7" d="M53.3638 57.0171L53.3286 57.4877L52.8775 57.4421C52.0836 56.7616 50.3432 55.2689 49.7435 54.7566L49.7592 54.4398L50.4136 54.5115C52.0458 55.8959 51.7212 55.6196 53.3638 57.0171ZM51.4787 53.509L51.5035 53.0423L51.0485 53.0032L49.8022 53.7267L49.7826 54.0396L50.441 54.1112L51.4787 53.509ZM52.038 53.5689C54.5175 55.63 53.8944 55.1112 55.0272 56.0537L55.7064 56.115L55.7299 55.7916C54.3832 54.6809 54.0912 54.4411 52.5203 53.1466L52.0614 53.1022L52.038 53.5689ZM53.9348 57.0692L53.8996 57.5425L54.3493 57.5842L55.6465 56.8346L55.6803 56.5126L55.0051 56.4513L53.9348 57.0692ZM56.4599 55.4045L57.147 55.9663L57.7362 55.6261L57.0453 55.0668L56.4599 55.4045Z" fill="#4A62AF"/>
<path d="M103.185 80.8436L99.9745 82.717C99.2144 83.1589 97.9629 83.155 97.1964 82.713L88.1152 77.4698C87.7306 77.2469 87.5377 76.9548 87.539 76.6615L87.5364 77.5845C87.535 77.8765 87.728 78.1698 88.1126 78.3927L97.1938 83.636C97.959 84.078 99.2105 84.0819 99.9719 83.6399L103.183 81.7666C103.563 81.545 103.752 81.2556 103.754 80.9662L103.756 80.0432C103.755 80.3326 103.566 80.6233 103.185 80.8436Z" fill="#2A0B88"/>
<path d="M103.178 79.2312L94.0966 73.988C93.3313 73.546 92.0863 73.546 91.3198 73.9919L88.1089 75.8652C87.3489 76.3071 87.3528 77.0281 88.118 77.47L97.1992 82.7133C97.9645 83.1552 99.216 83.1591 99.9773 82.7172L103.188 80.8438C103.953 80.398 103.943 79.6732 103.178 79.2312Z" fill="#6634FA"/>
<path d="M88.9834 72.6454L85.7725 74.5187C85.0125 74.9607 83.761 74.9567 82.9957 74.5148L81.0116 73.3689C80.627 73.146 80.434 72.8539 80.4354 72.5606L80.4327 73.4836C80.4314 73.7756 80.6244 74.0689 81.009 74.2919L82.9931 75.4378C83.7584 75.8797 85.0099 75.8836 85.7712 75.4417L88.9821 73.5684C89.3627 73.3467 89.5518 73.0573 89.5531 72.7679L89.5557 71.8436C89.5531 72.1343 89.3641 72.4237 88.9834 72.6454Z" fill="#2A0B88"/>
<path d="M88.9744 71.0312L86.9903 69.8853C86.225 69.4433 84.9814 69.4434 84.2135 69.8892L81.0026 71.7625C80.2426 72.2045 80.2465 72.9254 81.0118 73.3673L82.9959 74.5133C83.7612 74.9552 85.0127 74.9591 85.7727 74.5171L88.9836 72.6438C89.7514 72.1979 89.741 71.4731 88.9744 71.0312Z" fill="#6634FA"/>
<path d="M81.8798 68.5427L78.6689 70.4161C77.9089 70.858 76.6574 70.8541 75.8909 70.4122L73.9067 69.2662C73.5221 69.0433 73.3292 68.7513 73.3305 68.458L73.3279 69.381C73.3266 69.673 73.5195 69.9663 73.9041 70.1892L75.8882 71.3351C76.6535 71.7771 77.905 71.781 78.6663 71.3391L81.8772 69.4657C82.2579 69.2441 82.4469 68.9547 82.4482 68.6653L82.4508 67.7423C82.4495 68.0317 82.2605 68.3224 81.8798 68.5427Z" fill="#2A0B88"/>
<path d="M81.8708 66.9301L79.8867 65.7842C79.1214 65.3423 77.8778 65.3423 77.1099 65.7881L73.899 67.6615C73.139 68.1034 73.1429 68.8243 73.9082 69.2663L75.8923 70.4122C76.6576 70.8541 77.9091 70.858 78.6704 70.4161L81.8813 68.5427C82.6478 68.0969 82.6361 67.3721 81.8708 66.9301Z" fill="#6634FA"/>
<path d="M74.7749 64.4414L71.564 66.3147C70.804 66.7567 69.5525 66.7527 68.786 66.3108L66.8018 65.1649C66.4159 64.9419 66.2243 64.6499 66.2256 64.3566L66.223 65.2809C66.2217 65.5729 66.4146 65.8663 66.7992 66.0892L68.7834 67.2351C69.5486 67.677 70.8001 67.6809 71.5614 67.239L74.7723 65.3657C75.153 65.144 75.342 64.8546 75.3433 64.5652L75.3459 63.6422C75.3446 63.9303 75.1556 64.2197 74.7749 64.4414Z" fill="#2A0B88"/>
<path d="M74.7659 62.8274L72.7818 61.6828C72.0165 61.2408 70.7715 61.2408 70.005 61.6867L66.7941 63.56C66.0341 64.002 66.038 64.7229 66.8032 65.1648L68.7874 66.3107C69.5526 66.7527 70.8041 66.7566 71.5655 66.3147L74.7763 64.4413C75.5429 63.9941 75.5312 63.2693 74.7659 62.8274Z" fill="#6634FA"/>
<path d="M67.67 60.3389L64.4591 62.2122C63.6991 62.6542 62.4476 62.6503 61.6811 62.2083L61.1179 61.8837C60.7333 61.6608 60.5404 61.3688 60.5417 61.0754L60.5391 61.9984C60.5378 62.2904 60.7307 62.5838 61.1153 62.8067L61.6785 63.1313C62.4437 63.5732 63.6952 63.5772 64.4552 63.1352L67.6661 61.2619C68.0468 61.0402 68.2358 60.7508 68.2371 60.4614L68.2397 59.5385C68.2397 59.8292 68.0507 60.1186 67.67 60.3389Z" fill="#2A0B88"/>
<path d="M67.661 58.7261L67.0978 58.4015C66.3326 57.9596 65.0889 57.9596 64.321 58.4054L61.1101 60.2788C60.3501 60.7207 60.354 61.4416 61.1193 61.8836L61.6825 62.2082C62.4477 62.6501 63.6992 62.654 64.4605 62.2121L67.6714 60.3387C68.438 59.8929 68.4262 59.1681 67.661 58.7261Z" fill="#6634FA"/>
<path d="M95.0636 85.5425L91.8527 87.4159C91.0927 87.8578 89.8412 87.8539 89.0746 87.4119L87.0905 86.266C86.7059 86.0431 86.513 85.7511 86.5143 85.4578L86.5117 86.3808C86.5104 86.6728 86.7033 86.9661 87.0879 87.189L89.072 88.3349C89.8373 88.7769 91.0888 88.7808 91.8501 88.3388L95.061 86.4655C95.4417 86.2439 95.6307 85.9545 95.632 85.6651L95.6346 84.7421C95.6333 85.0315 95.4443 85.3209 95.0636 85.5425Z" fill="#038F5E"/>
<path d="M95.0547 83.9298L93.0706 82.7839C92.3053 82.3419 91.0604 82.3419 90.2925 82.7878L87.0816 84.6611C86.3216 85.103 86.3255 85.8239 87.0907 86.2659L89.0749 87.4118C89.8401 87.8537 91.0916 87.8577 91.853 87.4157L95.0639 85.5424C95.8317 85.0965 95.82 84.3704 95.0547 83.9298Z" fill="#04C984"/>
<path d="M87.9587 81.4399L84.7478 83.3133C83.9878 83.7552 82.7363 83.7513 81.9697 83.3094L79.9856 82.1635C79.601 81.9405 79.4081 81.6485 79.4094 81.3552L79.4068 82.2782C79.4055 82.5702 79.5984 82.8635 79.983 83.0865L81.9671 84.2324C82.7324 84.6743 83.9839 84.6782 84.7452 84.2363L87.9561 82.3629C88.3368 82.1413 88.5258 81.8519 88.5271 81.5625L88.5297 80.6395C88.5284 80.9302 88.3394 81.2196 87.9587 81.4399Z" fill="#038F5E"/>
<path d="M87.9498 79.8272L85.9656 78.6813C85.2004 78.2394 83.9567 78.2394 83.1888 78.6852L79.9779 80.5586C79.2179 81.0005 79.2218 81.7214 79.9871 82.1633L81.9712 83.3093C82.7365 83.7512 83.988 83.7551 84.7493 83.3132L87.9602 81.4398C88.7267 80.994 88.715 80.2692 87.9498 79.8272Z" fill="#04C984"/>
<path d="M80.8538 77.3385L77.6429 79.2119C76.8829 79.6538 75.6314 79.6499 74.8649 79.208L72.8807 78.0621C72.4948 77.8391 72.3032 77.5471 72.3045 77.2538L72.3019 78.1768C72.3006 78.4688 72.4935 78.7621 72.8781 78.9851L74.8623 80.131C75.6275 80.5729 76.879 80.5768 77.6403 80.1349L80.8512 78.2615C81.2319 78.0399 81.4209 77.7505 81.4222 77.4611L81.4248 76.5381C81.4235 76.8275 81.2345 77.1169 80.8538 77.3385Z" fill="#038F5E"/>
<path d="M80.8448 75.726L78.8607 74.5801C78.0954 74.1382 76.8517 74.1382 76.0839 74.584L72.873 76.4574C72.113 76.8993 72.1169 77.6202 72.8821 78.0622L74.8663 79.2081C75.6315 79.65 76.883 79.6539 77.6443 79.212L80.8552 77.3386C81.6218 76.8928 81.6101 76.168 80.8448 75.726Z" fill="#04C984"/>
<path d="M73.7503 73.2372L70.5394 75.1105C69.7793 75.5525 68.5278 75.5486 67.7626 75.1066L65.7784 73.9607C65.3939 73.7378 65.2009 73.4458 65.2022 73.1525L65.1996 74.0755C65.1983 74.3675 65.3913 74.6608 65.7758 74.8837L67.76 76.0296C68.5252 76.4716 69.7767 76.4755 70.5368 76.0335L73.7476 74.1602C74.1283 73.9386 74.3173 73.6492 74.3187 73.3598L74.3213 72.4368C74.3186 72.7262 74.1296 73.0156 73.7503 73.2372Z" fill="#038F5E"/>
<path d="M73.7414 71.6235L71.7573 70.4776C70.992 70.0356 69.747 70.0356 68.9805 70.4815L65.7696 72.3548C65.0096 72.7968 65.0135 73.5177 65.7787 73.9596L67.7629 75.1055C68.5281 75.5475 69.7796 75.5514 70.5397 75.1095L73.7505 73.2361C74.5171 72.7902 74.5067 72.0654 73.7414 71.6235Z" fill="#04C984"/>
<path d="M66.6454 69.1348L63.4345 71.0082C62.6745 71.4501 61.4229 71.4462 60.6577 71.0042L58.6736 69.8583C58.289 69.6354 58.096 69.3434 58.0973 69.0501L58.0947 69.9731C58.0934 70.2651 58.2864 70.5584 58.6709 70.7813L60.6551 71.9272C61.4203 72.3692 62.6718 72.3731 63.4319 71.9311L66.6428 70.0578C67.0234 69.8362 67.2124 69.5468 67.2138 69.2573L67.2164 68.3344C67.2151 68.6238 67.026 68.9145 66.6454 69.1348Z" fill="#2A0B88"/>
<path d="M66.6365 67.522L64.6523 66.3761C63.8871 65.9342 62.6421 65.9342 61.8755 66.38L58.6647 68.2534C57.9046 68.6953 57.9085 69.4162 58.6738 69.8582L60.6579 71.0041C61.4232 71.446 62.6747 71.45 63.4347 71.008L66.6456 69.1347C67.4134 68.6888 67.4017 67.964 66.6365 67.522Z" fill="#6634FA"/>
<path d="M59.5405 65.0334L56.3296 66.9067C55.5696 67.3486 54.3181 67.3447 53.5515 66.9028L52.9883 66.5782C52.6038 66.3553 52.4108 66.0633 52.4121 65.7699L52.4095 66.6929C52.4082 66.9849 52.6012 67.2783 52.9857 67.5012L53.5489 67.8258C54.3142 68.2677 55.5657 68.2716 56.3257 67.8297L59.5366 65.9564C59.9172 65.7347 60.1063 65.4453 60.1076 65.1559L60.1102 64.2329C60.1102 64.5223 59.9211 64.8117 59.5405 65.0334Z" fill="#2A0B88"/>
<path d="M59.5315 63.4195L58.9683 63.0949C58.2031 62.653 56.9594 62.6529 56.1915 63.0988L52.9807 64.9721C52.2206 65.4141 52.2245 66.135 52.9898 66.5769L53.553 66.9015C54.3182 67.3435 55.5697 67.3474 56.331 66.9055L59.5419 65.0321C60.3085 64.5876 60.2967 63.8614 59.5315 63.4195Z" fill="#6634FA"/>
<path d="M86.9341 90.2355L83.7232 92.1088C82.9631 92.5508 81.7117 92.5469 80.9451 92.1049L78.9622 90.959C78.5764 90.7361 78.3847 90.4441 78.386 90.1508L78.3834 91.0738C78.3821 91.3658 78.5751 91.6591 78.9596 91.882L80.9438 93.0279C81.709 93.4699 82.9605 93.4738 83.7206 93.0318L86.9315 91.1585C87.3121 90.9369 87.5012 90.6475 87.5025 90.3581L87.5051 89.4351C87.5025 89.7245 87.3134 90.0152 86.9341 90.2355Z" fill="#038F5E"/>
<path d="M86.9252 88.623L84.941 87.4771C84.1758 87.0352 82.9321 87.0351 82.1642 87.481L78.9534 89.3543C78.1933 89.7963 78.1972 90.5172 78.9625 90.9591L80.9466 92.105C81.7119 92.547 82.9634 92.5509 83.7247 92.1089L86.9356 90.2356C87.7008 89.7898 87.6904 89.0649 86.9252 88.623Z" fill="#04C984"/>
<path d="M79.8292 86.1341L76.6183 88.0074C75.8583 88.4493 74.6068 88.4454 73.8415 88.0035L71.8574 86.8576C71.4728 86.6347 71.2798 86.3427 71.2811 86.0493L71.2785 86.9723C71.2772 87.2643 71.4702 87.5577 71.8548 87.7806L73.8389 88.9265C74.6041 89.3684 75.8557 89.3723 76.6157 88.9304L79.8266 87.057C80.2072 86.8354 80.3963 86.546 80.3976 86.2566L80.4002 85.3336C80.3989 85.623 80.2098 85.9125 79.8292 86.1341Z" fill="#038F5E"/>
<path d="M79.8201 84.5205L77.836 83.3746C77.0708 82.9326 75.8271 82.9326 75.0592 83.3784L71.8483 85.2518C71.0883 85.6937 71.0922 86.4146 71.8575 86.8566L73.8416 88.0025C74.6069 88.4444 75.8584 88.4483 76.6184 88.0064L79.8293 86.1331C80.5971 85.6885 80.5854 84.9637 79.8201 84.5205Z" fill="#04C984"/>
<path d="M72.7243 82.0318L69.5134 83.9051C68.7533 84.347 67.5018 84.3431 66.7366 83.9012L64.7524 82.7553C64.3679 82.5324 64.1749 82.2404 64.1762 81.947L64.1736 82.87C64.1723 83.1621 64.3653 83.4554 64.7498 83.6783L66.734 84.8242C67.4992 85.2661 68.7507 85.27 69.5121 84.8281L72.723 82.9547C73.1036 82.7331 73.2926 82.4437 73.294 82.1543L73.2966 81.2313C73.2939 81.522 73.1049 81.8115 72.7243 82.0318Z" fill="#038F5E"/>
<path d="M72.7152 80.4193L70.7311 79.2734C69.9658 78.8314 68.7208 78.8314 67.953 79.2773L64.7421 81.1506C63.9821 81.5925 63.986 82.3135 64.7512 82.7554L66.7354 83.9013C67.5006 84.3432 68.7521 84.3471 69.5122 83.9052L72.723 82.0319C73.4922 81.586 73.4805 80.8612 72.7152 80.4193Z" fill="#04C984"/>
<path d="M65.6194 77.9305L62.4085 79.8038C61.6484 80.2457 60.3969 80.2418 59.6304 79.7999L57.6462 78.654C57.2617 78.4311 57.0687 78.139 57.07 77.8457L57.0674 78.7687C57.0661 79.0607 57.2591 79.354 57.6436 79.577L59.6278 80.7229C60.393 81.1648 61.6445 81.1687 62.4046 80.7268L65.6154 78.8534C65.9961 78.6318 66.1851 78.3424 66.1864 78.053L66.1891 77.13C66.1891 77.4194 66 77.7088 65.6194 77.9305Z" fill="#038F5E"/>
<path d="M65.6104 76.3181L63.6263 75.1722C62.861 74.7302 61.6174 74.7302 60.8495 75.1761L57.6386 77.0494C56.8786 77.4913 56.8825 78.2123 57.6477 78.6542L59.6319 79.8001C60.3971 80.242 61.6486 80.2459 62.41 79.804L65.6209 77.9307C66.3874 77.4848 66.3757 76.76 65.6104 76.3181Z" fill="#04C984"/>
<path d="M58.5158 73.8292L55.3049 75.7026C54.5449 76.1445 53.2934 76.1406 52.5268 75.6987L50.5427 74.5528C50.1581 74.3299 49.9652 74.0378 49.9665 73.7445L49.9639 74.6675C49.9626 74.9595 50.1555 75.2528 50.5401 75.4757L52.5242 76.6217C53.2895 77.0636 54.541 77.0675 55.3023 76.6256L58.5132 74.7522C58.8939 74.5306 59.0829 74.2412 59.0842 73.9518L59.0868 73.0288C59.0855 73.3182 58.8952 73.6076 58.5158 73.8292Z" fill="#2A0B88"/>
<path d="M58.5068 72.2155L56.5226 71.0696C55.7574 70.6277 54.5124 70.6277 53.7459 71.0735L50.535 72.9469C49.775 73.3888 49.7789 74.1097 50.5441 74.5517L52.5283 75.6976C53.2935 76.1395 54.545 76.1434 55.3063 75.7015L58.5172 73.8281C59.2838 73.3823 59.272 72.6575 58.5068 72.2155Z" fill="#6634FA"/>
<path d="M51.4109 69.7266L48.2 71.5999C47.44 72.0419 46.1885 72.038 45.4233 71.596L44.8601 71.2714C44.4755 71.0485 44.2826 70.7565 44.2839 70.4632L44.2813 71.3861C44.28 71.6781 44.4729 71.9715 44.8575 72.1944L45.4193 72.519C46.1846 72.961 47.4361 72.9649 48.1961 72.5229L51.407 70.6496C51.7877 70.4279 51.9767 70.1386 51.978 69.8491L51.9806 68.9261C51.9806 69.2169 51.7916 69.5063 51.4109 69.7266Z" fill="#2A0B88"/>
<path d="M51.402 68.114L50.8389 67.7893C50.0736 67.3474 48.8299 67.3474 48.0621 67.7933L44.8512 69.6666C44.0912 70.1085 44.0951 70.8295 44.8603 71.2714L45.4235 71.596C46.1888 72.0379 47.4403 72.0418 48.2003 71.5999L51.4112 69.7266C52.179 69.2807 52.1673 68.5559 51.402 68.114Z" fill="#6634FA"/>
<path d="M78.8032 94.9295L75.5923 96.8028C74.8323 97.2448 73.5808 97.2409 72.8142 96.7989L70.8301 95.653C70.4455 95.4301 70.2526 95.1381 70.2539 94.8447L70.2513 95.769C70.25 96.0611 70.4429 96.3544 70.8275 96.5773L72.8116 97.7232C73.5769 98.1651 74.8284 98.169 75.5897 97.7271L78.8006 95.8538C79.1813 95.6322 79.3703 95.3427 79.3716 95.0533L79.3742 94.1304C79.3729 94.4185 79.1839 94.7079 78.8032 94.9295Z" fill="#038F5E"/>
<path d="M78.7942 93.3158L76.8101 92.1698C76.0448 91.7279 74.8012 91.7279 74.0333 92.1738L70.8224 94.0471C70.0624 94.489 70.0663 95.21 70.8316 95.6519L72.8157 96.7978C73.581 97.2397 74.8325 97.2436 75.5938 96.8017L78.8047 94.9284C79.5712 94.4825 79.5608 93.7577 78.7942 93.3158Z" fill="#04C984"/>
<path d="M71.6996 90.8269L68.4887 92.7003C67.7287 93.1422 66.4772 93.1383 65.7106 92.6964L63.7265 91.5505C63.3419 91.3275 63.149 91.0355 63.1503 90.7422L63.1477 91.6652C63.1463 91.9572 63.3393 92.2505 63.7239 92.4734L65.708 93.6193C66.4733 94.0613 67.7248 94.0652 68.4861 93.6233L71.697 91.7499C72.0776 91.5283 72.2667 91.2389 72.268 90.9495L72.2706 90.0265C72.2693 90.3172 72.0789 90.6066 71.6996 90.8269Z" fill="#038F5E"/>
<path d="M71.6907 89.2145L69.7065 88.0686C68.9413 87.6267 67.6976 87.6267 66.9297 88.0726L63.7188 89.9459C62.9588 90.3878 62.9627 91.1088 63.728 91.5507L65.7121 92.6966C66.4774 93.1385 67.7289 93.1424 68.4902 92.7005L71.7011 90.8271C72.4676 90.3813 72.4559 89.6565 71.6907 89.2145Z" fill="#04C984"/>
<path d="M64.5947 86.7258L61.3838 88.5992C60.6238 89.0411 59.3723 89.0372 58.6057 88.5953L56.6216 87.4494C56.237 87.2264 56.0441 86.9344 56.0454 86.6411L56.0428 87.5641C56.0415 87.8561 56.2344 88.1494 56.619 88.3723L58.6031 89.5182C59.3684 89.9602 60.6199 89.9641 61.3799 89.5222L64.5908 87.6488C64.9715 87.4272 65.1605 87.1377 65.1618 86.8483L65.1644 85.9241C65.1644 86.2148 64.9754 86.5042 64.5947 86.7258Z" fill="#038F5E"/>
<path d="M64.5857 85.1132L62.6015 83.9673C61.8363 83.5254 60.5913 83.5254 59.8248 83.9712L56.6139 85.8446C55.8538 86.2865 55.8578 87.0074 56.623 87.4494L58.6072 88.5953C59.3724 89.0372 60.6239 89.0411 61.3852 88.5992L64.5961 86.7258C65.3627 86.28 65.3509 85.5538 64.5857 85.1132Z" fill="#04C984"/>
<path d="M57.4898 82.6243L54.2789 84.4976C53.5189 84.9396 52.2674 84.9356 51.5021 84.4937L49.518 83.3478C49.1334 83.1249 48.9405 82.8329 48.9418 82.5395L48.9392 83.4625C48.9379 83.7545 49.1308 84.0479 49.5154 84.2708L51.4995 85.4167C52.2648 85.8586 53.5163 85.8626 54.2763 85.4206L57.4872 83.5473C57.8678 83.3256 58.0569 83.0362 58.0582 82.7468L58.0608 81.8239C58.0595 82.1133 57.8705 82.4027 57.4898 82.6243Z" fill="#038F5E"/>
<path d="M57.4809 81.0104L55.4967 79.8645C54.7315 79.4226 53.4865 79.4226 52.7199 79.8685L49.509 81.7418C48.749 82.1837 48.7529 82.9047 49.5182 83.3466L51.5023 84.4925C52.2676 84.9344 53.5191 84.9383 54.2791 84.4964L57.49 82.623C58.2578 82.1772 58.2461 81.4524 57.4809 81.0104Z" fill="#04C984"/>
<path d="M50.3849 78.5218L47.174 80.3952C46.414 80.8371 45.1625 80.8332 44.3973 80.3913L42.4131 79.2454C42.0285 79.0224 41.8356 78.7304 41.8369 78.4371L41.8343 79.3614C41.833 79.6534 42.0259 79.9467 42.4105 80.1696L44.3947 81.3155C45.1599 81.7575 46.4114 81.7614 47.1727 81.3194L50.3836 79.4461C50.7643 79.2245 50.9533 78.9351 50.9546 78.6456L50.9572 77.7227C50.9546 78.0108 50.7656 78.3002 50.3849 78.5218Z" fill="#2A0B88"/>
<path d="M50.3772 76.9092L48.3931 75.7633C47.6278 75.3214 46.3828 75.3214 45.6163 75.7672L42.4054 77.6406C41.6454 78.0825 41.6493 78.8035 42.4145 79.2454L44.3987 80.3913C45.1639 80.8333 46.4154 80.8372 47.1755 80.3952L50.3863 78.5219C51.1529 78.076 51.1425 77.3512 50.3772 76.9092Z" fill="#6634FA"/>
<path d="M43.2814 74.4207L40.0705 76.294C39.3105 76.736 38.0589 76.732 37.2924 76.2901L36.7305 75.9655C36.346 75.7426 36.153 75.4505 36.1543 75.1572L36.1517 76.0802C36.1504 76.3722 36.3433 76.6655 36.7279 76.8885L37.2898 77.2131C38.055 77.655 39.3065 77.6589 40.0679 77.217L43.2788 75.3437C43.6594 75.122 43.8485 74.8326 43.8498 74.5432L43.8524 73.6202C43.8511 73.9096 43.662 74.199 43.2814 74.4207Z" fill="#2A0B88"/>
<path d="M43.2724 72.8066L42.7093 72.482C41.944 72.04 40.699 72.04 39.9325 72.4859L36.7216 74.3592C35.9616 74.8012 35.9655 75.5221 36.7307 75.964L37.2926 76.2886C38.0578 76.7306 39.3093 76.7345 40.0707 76.2925L43.2816 74.4192C44.0494 73.9733 44.0377 73.2485 43.2724 72.8066Z" fill="#6634FA"/>
<path d="M70.6736 99.6231L67.4627 101.496C66.7027 101.938 65.4512 101.934 64.6847 101.492L62.7005 100.347C62.3159 100.124 62.123 99.8316 62.1243 99.5383L62.1217 100.461C62.1204 100.753 62.3133 101.047 62.6979 101.27L64.682 102.415C65.4473 102.857 66.6988 102.861 67.4588 102.419L70.6697 100.546C71.0504 100.324 71.2394 100.035 71.2407 99.7456L71.2433 98.8226C71.2433 99.112 71.0543 99.4027 70.6736 99.6231Z" fill="#AC2F12"/>
<path d="M70.6647 98.0104L68.6805 96.8645C67.9153 96.4226 66.6703 96.4226 65.9038 96.8684L62.6929 98.7418C61.9329 99.1837 61.9368 99.9046 62.702 100.347L64.6862 101.492C65.4514 101.934 66.7029 101.938 67.4642 101.496L70.6751 99.6231C71.4417 99.1772 71.4299 98.4524 70.6647 98.0104Z" fill="#EE522E"/>
<path d="M63.5688 95.5216L60.3579 97.395C59.5979 97.8369 58.3463 97.833 57.5811 97.3911L55.597 96.2452C55.2124 96.0222 55.0194 95.7302 55.0207 95.4369L55.0181 96.3599C55.0168 96.6519 55.2098 96.9452 55.5943 97.1682L57.5785 98.3141C58.3437 98.756 59.5952 98.7599 60.3553 98.318L63.5662 96.4446C63.9468 96.223 64.1358 95.9336 64.1372 95.6442L64.1398 94.7212C64.1385 95.0106 63.9494 95.3 63.5688 95.5216Z" fill="#2A0B88"/>
<path d="M63.561 93.9078L61.5769 92.7619C60.8116 92.3199 59.5667 92.3199 58.8001 92.7658L55.5892 94.6391C54.8292 95.0811 54.8331 95.802 55.5983 96.2439L57.5825 97.3899C58.3477 97.8318 59.5992 97.8357 60.3593 97.3938L63.5688 95.5217C64.3367 95.0759 64.3263 94.3497 63.561 93.9078Z" fill="#6634FA"/>
<path d="M56.4652 91.4191L53.2543 93.2924C52.4942 93.7344 51.2427 93.7304 50.4762 93.2885L48.492 92.1426C48.1075 91.9197 47.9145 91.6277 47.9158 91.3343L47.9132 92.2573C47.9119 92.5493 48.1049 92.8427 48.4894 93.0656L50.4736 94.2115C51.2388 94.6534 52.4903 94.6573 53.2517 94.2154L56.4625 92.3421C56.8432 92.1204 57.0322 91.831 57.0335 91.5416L57.0362 90.6187C57.0348 90.9094 56.8458 91.1988 56.4652 91.4191Z" fill="#2A0B88"/>
<path d="M56.4563 89.8065L54.4721 88.6606C53.7069 88.2186 52.4619 88.2186 51.6941 88.6645L48.4832 90.5378C47.7231 90.9798 47.727 91.7007 48.4923 92.1426L50.4764 93.2885C51.2417 93.7304 52.4932 93.7344 53.2545 93.2924L56.4654 91.4191C57.2333 90.9732 57.2215 90.2484 56.4563 89.8065Z" fill="#6634FA"/>
<path d="M49.3603 87.3181L46.1494 89.1914C45.3893 89.6334 44.1378 89.6294 43.3713 89.1875L41.3871 88.0416C41.0026 87.8187 40.8096 87.5267 40.8109 87.2333L40.8083 88.1563C40.807 88.4484 41 88.7417 41.3845 88.9646L43.3687 90.1105C44.1339 90.5524 45.3854 90.5563 46.1468 90.1144L49.3577 88.2411C49.7383 88.0195 49.9274 87.73 49.9287 87.4406L49.9313 86.5164C49.93 86.8071 49.7409 87.0965 49.3603 87.3181Z" fill="#2A0B88"/>
<path d="M49.3513 85.7054L47.3672 84.5595C46.6019 84.1176 45.3583 84.1175 44.5904 84.5634L41.3795 86.4367C40.6195 86.8787 40.6234 87.5996 41.3887 88.0415L43.3728 89.1874C44.1381 89.6294 45.3896 89.6333 46.1509 89.1914L49.3618 87.318C50.1283 86.8722 50.1166 86.1473 49.3513 85.7054Z" fill="#6634FA"/>
<path d="M42.2554 83.2153L39.0445 85.0887C38.2845 85.5306 37.033 85.5267 36.2677 85.0848L34.2836 83.9389C33.899 83.7159 33.7061 83.4239 33.7074 83.1306L33.7047 84.0536C33.7034 84.3456 33.8964 84.6389 34.281 84.8618L36.2651 86.0077C37.0304 86.4497 38.2819 86.4536 39.0432 86.0116L42.2541 84.1383C42.6347 83.9167 42.8238 83.6273 42.8251 83.3379L42.8277 82.4149C42.8251 82.7056 42.6361 82.995 42.2554 83.2153Z" fill="#2A0B88"/>
<path d="M42.2465 81.6029L40.2623 80.4569C39.4971 80.015 38.2521 80.015 37.4856 80.4608L34.2747 82.3342C33.5146 82.7761 33.5186 83.497 34.2838 83.939L36.2679 85.0849C37.0332 85.5268 38.2847 85.5308 39.0447 85.0888L42.2556 83.2155C43.0235 82.7696 43.0117 82.0448 42.2465 81.6029Z" fill="#6634FA"/>
<path d="M35.1518 79.1141L31.9409 80.9874C31.1809 81.4294 29.9294 81.4254 29.1642 80.9835L28.601 80.6589C28.2164 80.436 28.0235 80.1439 28.0248 79.8506L28.0222 80.7736C28.0209 81.0656 28.2138 81.3589 28.5984 81.5819L29.1602 81.9065C29.9255 82.3484 31.177 82.3523 31.937 81.9104L35.1479 80.0371C35.5286 79.8154 35.7176 79.526 35.7189 79.2366L35.7215 78.3136C35.7215 78.603 35.5325 78.8937 35.1518 79.1141Z" fill="#2A0B88"/>
<path d="M35.1428 77.5013L34.5797 77.1767C33.8144 76.7347 32.5707 76.7347 31.8029 77.1806L28.592 79.0539C27.832 79.4959 27.8359 80.2168 28.6011 80.6587L29.1643 80.9833C29.9295 81.4252 31.181 81.4292 31.9411 80.9872L35.152 79.1139C35.9198 78.668 35.9081 77.9432 35.1428 77.5013Z" fill="#6634FA"/>
<path d="M84.0971 71.3196C84.0971 71.3686 84.0858 71.412 84.0858 71.4554V71.6024H84.0745C83.8188 74.8295 79.2117 77.4042 73.5481 77.4042C67.8845 77.4042 63.2831 74.8295 63.0274 71.6024H63.0001V68.5658C63.0001 71.9239 67.727 74.6504 73.5481 74.6504C79.3693 74.6504 83.8943 72.038 84.0848 68.7779V71.1886C84.0848 71.2319 84.0962 71.2753 84.0962 71.3196H84.0971Z" fill="#F1522D"/>
<path d="M84.0974 68.5657C84.0974 68.6364 84.0974 68.7071 84.0861 68.7778C83.8955 72.0379 79.2564 74.6503 73.5494 74.6503C67.8424 74.6503 63.0013 71.9238 63.0013 68.5657C63.0013 65.2075 67.7282 62.4811 73.5494 62.4811C79.3705 62.4811 84.0974 65.2075 84.0974 68.5657Z" fill="#FFED0E"/>
<path d="M73.5509 73.7837C68.674 73.7837 64.7074 71.4428 64.7074 68.5655C64.7074 65.6882 68.674 63.3473 73.5509 63.3473C78.4278 63.3473 82.3944 65.6882 82.3944 68.5655C82.3944 71.4428 78.4278 73.7837 73.5509 73.7837ZM73.5509 63.8979C68.9778 63.8979 65.2574 65.9917 65.2574 68.5655C65.2574 71.1392 68.9778 73.234 73.5509 73.234C78.1241 73.234 81.8445 71.1392 81.8445 68.5655C81.8445 65.9917 78.1241 63.8979 73.5509 63.8979Z" fill="#F2F2F2"/>
<path d="M76.9629 70.8912L76.0422 70.3388C75.4027 70.6819 74.6131 70.9336 74.0311 70.9996L73.4047 70.3124C74.0075 70.2237 74.7574 70.0286 75.3574 69.6854C75.9762 69.3309 76.1045 68.9124 75.6489 68.639C75.2215 68.3825 74.6027 68.4136 73.6189 68.6767C72.2256 69.0509 71.1012 69.1612 70.2173 68.6314C69.4004 68.1412 69.3636 67.4275 70.1871 66.7572L69.257 66.1991L70.0636 65.7371L70.9465 66.267C71.5842 65.9238 72.1501 65.7673 72.6161 65.6777L73.2255 66.3537C72.885 66.4263 72.2332 66.5432 71.5644 66.925C70.8757 67.3191 70.972 67.6651 71.2946 67.8584C71.6842 68.0912 72.2558 68.0196 73.4142 67.7348C74.9159 67.3436 75.9196 67.37 76.7648 67.8772C77.5713 68.3618 77.7034 69.1207 76.7921 69.8429L77.7704 70.4293L76.9638 70.8912H76.9629Z" fill="#FFF6FB"/>
<path d="M84.0971 67.6995C84.0971 67.7485 84.0858 67.7919 84.0858 67.8352V67.9823H84.0745C83.8188 71.2094 79.2117 73.7841 73.5481 73.7841C67.8845 73.7841 63.2831 71.2094 63.0274 67.9823H63.0001V64.9457C63.0001 68.3038 67.727 71.0302 73.5481 71.0302C79.3693 71.0302 83.8943 68.4179 84.0848 65.1578V67.5684C84.0848 67.6118 84.0962 67.6552 84.0962 67.6995H84.0971Z" fill="#F1522D"/>
<path d="M84.0974 64.9454C84.0974 65.0161 84.0974 65.0868 84.0861 65.1575C83.8955 68.4176 79.2564 71.03 73.5494 71.03C67.8424 71.03 63.0013 68.3035 63.0013 64.9454C63.0013 61.5873 67.7282 58.8608 73.5494 58.8608C79.3705 58.8608 84.0974 61.5873 84.0974 64.9454Z" fill="#FFED0E"/>
<path d="M73.5509 70.1635C68.674 70.1635 64.7074 67.8227 64.7074 64.9454C64.7074 62.0681 68.674 59.7272 73.5509 59.7272C78.4278 59.7272 82.3944 62.0681 82.3944 64.9454C82.3944 67.8227 78.4278 70.1635 73.5509 70.1635ZM73.5509 60.2778C68.9778 60.2778 65.2574 62.3716 65.2574 64.9454C65.2574 67.5191 68.9778 69.6139 73.5509 69.6139C78.1241 69.6139 81.8445 67.5191 81.8445 64.9454C81.8445 62.3716 78.1241 60.2778 73.5509 60.2778Z" fill="#F2F2F2"/>
<path d="M76.9629 67.2711L76.0422 66.7186C75.4027 67.0618 74.6131 67.3135 74.0311 67.3795L73.4047 66.6922C74.0075 66.6036 74.7574 66.4085 75.3574 66.0653C75.9762 65.7108 76.1045 65.2922 75.6489 65.0188C75.2215 64.7624 74.6027 64.7935 73.6189 65.0565C72.2256 65.4308 71.1012 65.5411 70.2173 65.0113C69.4004 64.5211 69.3636 63.8074 70.1871 63.1371L69.257 62.579L70.0636 62.117L70.9465 62.6468C71.5842 62.3037 72.1501 62.1472 72.6161 62.0576L73.2255 62.7336C72.885 62.8062 72.2332 62.9231 71.5644 63.3049C70.8757 63.699 70.972 64.045 71.2946 64.2382C71.6842 64.4711 72.2558 64.3994 73.4142 64.1147C74.9159 63.7235 75.9196 63.7499 76.7648 64.2571C77.5713 64.7417 77.7034 65.5006 76.7921 66.2227L77.7704 66.8091L76.9638 67.2711H76.9629Z" fill="#FFF6FB"/>
<path d="M84.0971 64.0794C84.0971 64.1284 84.0858 64.1718 84.0858 64.2151V64.3622H84.0745C83.8188 67.5893 79.2117 70.164 73.5481 70.164C67.8845 70.164 63.2831 67.5893 63.0274 64.3622H63.0001V61.3256C63.0001 64.6837 67.727 67.4101 73.5481 67.4101C79.3693 67.4101 83.8943 64.7978 84.0848 61.5377V63.9483C84.0848 63.9917 84.0962 64.0351 84.0962 64.0794H84.0971Z" fill="#F1522D"/>
<path d="M84.0974 61.3254C84.0974 61.3961 84.0974 61.4668 84.0861 61.5375C83.8955 64.7976 79.2564 67.41 73.5494 67.41C67.8424 67.41 63.0013 64.6835 63.0013 61.3254C63.0013 57.9673 67.7282 55.2408 73.5494 55.2408C79.3705 55.2408 84.0974 57.9673 84.0974 61.3254Z" fill="#FFED0E"/>
<path d="M73.5509 66.5437C68.674 66.5437 64.7074 64.2028 64.7074 61.3255C64.7074 58.4482 68.674 56.1073 73.5509 56.1073C78.4278 56.1073 82.3944 58.4482 82.3944 61.3255C82.3944 64.2028 78.4278 66.5437 73.5509 66.5437ZM73.5509 56.6579C68.9778 56.6579 65.2574 58.7517 65.2574 61.3255C65.2574 63.8992 68.9778 65.994 73.5509 65.994C78.1241 65.994 81.8445 63.8992 81.8445 61.3255C81.8445 58.7517 78.1241 56.6579 73.5509 56.6579Z" fill="#F2F2F2"/>
<path d="M76.9629 63.6511L76.0422 63.0986C75.4027 63.4418 74.6131 63.6935 74.0311 63.7595L73.4047 63.0722C74.0075 62.9836 74.7574 62.7885 75.3574 62.4453C75.9762 62.0908 76.1045 61.6722 75.6489 61.3988C75.2215 61.1424 74.6027 61.1735 73.6189 61.4365C72.2256 61.8108 71.1012 61.9211 70.2173 61.3913C69.4004 60.901 69.3636 60.1874 70.1871 59.5171L69.257 58.959L70.0636 58.497L70.9465 59.0268C71.5842 58.6837 72.1501 58.5272 72.6161 58.4376L73.2255 59.1136C72.885 59.1862 72.2332 59.3031 71.5644 59.6849C70.8757 60.079 70.972 60.425 71.2946 60.6182C71.6842 60.8511 72.2558 60.7794 73.4142 60.4947C74.9159 60.1035 75.9196 60.1299 76.7648 60.6371C77.5713 61.1216 77.7034 61.8806 76.7921 62.6027L77.7704 63.1891L76.9638 63.6511H76.9629Z" fill="#FFF6FB"/>
<path d="M84.0971 60.4586C84.0971 60.5077 84.0858 60.551 84.0858 60.5944V60.7415H84.0745C83.8188 63.9685 79.2117 66.5432 73.5481 66.5432C67.8845 66.5432 63.2831 63.9685 63.0274 60.7415H63.0001V57.7048C63.0001 61.063 67.727 63.7894 73.5481 63.7894C79.3693 63.7894 83.8943 61.177 84.0848 57.917V60.3276C84.0848 60.3709 84.0962 60.4143 84.0962 60.4586H84.0971Z" fill="#F1522D"/>
<path d="M84.0974 57.7049C84.0974 57.7757 84.0974 57.8464 84.0861 57.9171C83.8955 61.1771 79.2564 63.7895 73.5494 63.7895C67.8424 63.7895 63.0013 61.0631 63.0013 57.7049C63.0013 54.3468 67.7282 51.6204 73.5494 51.6204C79.3705 51.6204 84.0974 54.3468 84.0974 57.7049Z" fill="#FFED0E"/>
<path d="M73.5509 62.9228C68.674 62.9228 64.7074 60.582 64.7074 57.7046C64.7074 54.8273 68.674 52.4865 73.5509 52.4865C78.4278 52.4865 82.3944 54.8273 82.3944 57.7046C82.3944 60.582 78.4278 62.9228 73.5509 62.9228ZM73.5509 53.037C68.9778 53.037 65.2574 55.1309 65.2574 57.7046C65.2574 60.2784 68.9778 62.3732 73.5509 62.3732C78.1241 62.3732 81.8445 60.2784 81.8445 57.7046C81.8445 55.1309 78.1241 53.037 73.5509 53.037Z" fill="#F2F2F2"/>
<path d="M76.9629 60.0302L76.0422 59.4778C75.4027 59.821 74.6131 60.0727 74.0311 60.1386L73.4047 59.4514C74.0075 59.3628 74.7574 59.1676 75.3574 58.8244C75.9762 58.47 76.1045 58.0514 75.6489 57.778C75.2215 57.5216 74.6027 57.5527 73.6189 57.8157C72.2256 58.19 71.1012 58.3003 70.2173 57.7704C69.4004 57.2802 69.3636 56.5665 70.1871 55.8962L69.257 55.3381L70.0636 54.8762L70.9465 55.406C71.5842 55.0628 72.1501 54.9063 72.6161 54.8168L73.2255 55.4927C72.885 55.5653 72.2332 55.6822 71.5644 56.064C70.8757 56.4581 70.972 56.8041 71.2946 56.9974C71.6842 57.2302 72.2558 57.1586 73.4142 56.8739C74.9159 56.4826 75.9196 56.509 76.7648 57.0162C77.5713 57.5008 77.7034 58.2597 76.7921 58.9819L77.7704 59.5683L76.9638 60.0302H76.9629Z" fill="#FFF6FB"/>
<path d="M84.097 56.8387C84.097 56.8877 84.0857 56.931 84.0857 56.9744V57.1215H84.0744C83.8188 60.3486 79.2117 62.9232 73.5481 62.9232C67.8844 62.9232 63.283 60.3486 63.0274 57.1215H63V54.0848C63 57.443 67.7269 60.1694 73.5481 60.1694C79.3692 60.1694 83.8942 57.557 84.0848 54.297V56.7076C84.0848 56.751 84.0961 56.7943 84.0961 56.8387H84.097Z" fill="#F1522D"/>
<path d="M84.0974 54.0846C84.0974 54.1553 84.0974 54.226 84.0861 54.2967C83.8955 57.5568 79.2563 60.1692 73.5493 60.1692C67.8423 60.1692 63.0013 57.4427 63.0013 54.0846C63.0013 50.7265 67.7282 48 73.5493 48C79.3705 48 84.0974 50.7265 84.0974 54.0846Z" fill="#FFED0E"/>
<path d="M73.5509 59.3028C68.674 59.3028 64.7074 56.9619 64.7074 54.0846C64.7074 51.2073 68.674 48.8665 73.5509 48.8665C78.4278 48.8665 82.3944 51.2073 82.3944 54.0846C82.3944 56.9619 78.4278 59.3028 73.5509 59.3028ZM73.5509 49.417C68.9777 49.417 65.2574 51.5109 65.2574 54.0846C65.2574 56.6584 68.9777 58.7532 73.5509 58.7532C78.124 58.7532 81.8444 56.6584 81.8444 54.0846C81.8444 51.5109 78.124 49.417 73.5509 49.417Z" fill="#F1522D"/>
<path d="M98.097 81.6992C98.097 81.7483 98.0857 81.7916 98.0857 81.835V81.9821H98.0744C97.8188 85.2091 93.2117 87.7838 87.548 87.7838C81.8844 87.7838 77.283 85.2091 77.0273 81.9821H77V78.9454C77 82.3036 81.7269 85.03 87.548 85.03C93.3692 85.03 97.8942 82.4176 98.0848 79.1576V81.5682C98.0848 81.6115 98.0961 81.6549 98.0961 81.6992H98.097Z" fill="#F1522D"/>
<path d="M98.0973 78.9454C98.0973 79.0161 98.0973 79.0868 98.086 79.1575C97.8955 82.4176 93.2563 85.03 87.5493 85.03C81.8423 85.03 77.0013 82.3035 77.0013 78.9454C77.0013 75.5873 81.7282 72.8608 87.5493 72.8608C93.3704 72.8608 98.0973 75.5873 98.0973 78.9454Z" fill="#FFED0E"/>
<path d="M87.5509 84.1634C82.674 84.1634 78.7074 81.8226 78.7074 78.9452C78.7074 76.0679 82.674 73.7271 87.5509 73.7271C92.4278 73.7271 96.3944 76.0679 96.3944 78.9452C96.3944 81.8226 92.4278 84.1634 87.5509 84.1634ZM87.5509 74.2776C82.9777 74.2776 79.2573 76.3715 79.2573 78.9452C79.2573 81.519 82.9777 83.6138 87.5509 83.6138C92.124 83.6138 95.8444 81.519 95.8444 78.9452C95.8444 76.3715 92.124 74.2776 87.5509 74.2776Z" fill="#F2F2F2"/>
<path d="M90.9629 81.2722L90.0422 80.7197C89.4026 81.0629 88.6131 81.3146 88.0311 81.3806L87.4047 80.6933C88.0075 80.6047 88.7574 80.4096 89.3574 80.0664C89.9762 79.7119 90.1044 79.2933 89.6488 79.0199C89.2215 78.7635 88.6027 78.7946 87.6188 79.0576C86.2256 79.4319 85.1002 79.5422 84.2173 79.0124C83.4004 78.5222 83.3636 77.8085 84.1871 77.1382L83.257 76.5801L84.0635 76.1181L84.9465 76.6479C85.5841 76.3048 86.1501 76.1483 86.6161 76.0587L87.2255 76.7347C86.8849 76.8073 86.2331 76.9242 85.5643 77.306C84.8757 77.7001 84.9719 78.0461 85.2945 78.2393C85.6841 78.4722 86.2558 78.4005 87.4141 78.1158C88.9159 77.7246 89.9196 77.751 90.7648 78.2582C91.5713 78.7428 91.7034 79.5017 90.7921 80.2238L91.7703 80.8102L90.9638 81.2722H90.9629Z" fill="#FFF6FB"/>
<path d="M98.097 78.0785C98.097 78.1275 98.0857 78.1709 98.0857 78.2143V78.3613H98.0744C97.8188 81.5884 93.2117 84.1631 87.548 84.1631C81.8844 84.1631 77.283 81.5884 77.0273 78.3613H77V75.3247C77 78.6828 81.7269 81.4093 87.548 81.4093C93.3692 81.4093 97.8942 78.7969 98.0848 75.5368V77.9475C98.0848 77.9908 98.0961 78.0342 98.0961 78.0785H98.097Z" fill="#F1522D"/>
<path d="M98.0973 75.3246C98.0973 75.3953 98.0973 75.466 98.086 75.5367C97.8954 78.7968 93.2563 81.4092 87.5493 81.4092C81.8423 81.4092 77.0012 78.6827 77.0012 75.3246C77.0012 71.9665 81.7281 69.24 87.5493 69.24C93.3704 69.24 98.0973 71.9665 98.0973 75.3246Z" fill="#FFED0E"/>
<path d="M87.5509 80.5427C82.674 80.5427 78.7074 78.2018 78.7074 75.3245C78.7074 72.4472 82.674 70.1063 87.5509 70.1063C92.4278 70.1063 96.3944 72.4472 96.3944 75.3245C96.3944 78.2018 92.4278 80.5427 87.5509 80.5427ZM87.5509 70.6569C82.9777 70.6569 79.2573 72.7508 79.2573 75.3245C79.2573 77.8982 82.9777 79.993 87.5509 79.993C92.124 79.993 95.8444 77.8982 95.8444 75.3245C95.8444 72.7508 92.124 70.6569 87.5509 70.6569Z" fill="#F2F2F2"/>
<path d="M90.9629 77.6509L90.0422 77.0984C89.4026 77.4416 88.6131 77.6933 88.0311 77.7593L87.4047 77.072C88.0075 76.9834 88.7574 76.7882 89.3574 76.4451C89.9762 76.0906 90.1044 75.672 89.6488 75.3986C89.2215 75.1422 88.6027 75.1733 87.6188 75.4363C86.2256 75.8106 85.1002 75.9209 84.2173 75.391C83.4004 74.9008 83.3636 74.1871 84.1871 73.5168L83.257 72.9587L84.0635 72.4968L84.9465 73.0266C85.5841 72.6834 86.1501 72.5269 86.6161 72.4374L87.2255 73.1133C86.8849 73.1859 86.2331 73.3028 85.5643 73.6846C84.8757 74.0787 84.9719 74.4247 85.2945 74.618C85.6841 74.8508 86.2558 74.7792 87.4141 74.4945C88.9159 74.1032 89.9196 74.1296 90.7648 74.6368C91.5713 75.1214 91.7034 75.8803 90.7921 76.6025L91.7703 77.1889L90.9638 77.6509H90.9629Z" fill="#FFF6FB"/>
<path d="M98.097 74.4586C98.097 74.5077 98.0857 74.551 98.0857 74.5944V74.7415H98.0744C97.8188 77.9685 93.2117 80.5432 87.548 80.5432C81.8844 80.5432 77.283 77.9685 77.0273 74.7415H77V71.7048C77 75.063 81.7269 77.7894 87.548 77.7894C93.3692 77.7894 97.8942 75.177 98.0848 71.917V74.3276C98.0848 74.371 98.0961 74.4143 98.0961 74.4586H98.097Z" fill="#F1522D"/>
<path d="M98.0973 71.7046C98.0973 71.7753 98.0973 71.846 98.086 71.9167C97.8955 75.1768 93.2563 77.7892 87.5493 77.7892C81.8423 77.7892 77.0013 75.0627 77.0013 71.7046C77.0013 68.3465 81.7282 65.62 87.5493 65.62C93.3704 65.62 98.0973 68.3465 98.0973 71.7046Z" fill="#FFED0E"/>
<path d="M87.5509 76.9227C82.674 76.9227 78.7074 74.5818 78.7074 71.7045C78.7074 68.8272 82.674 66.4863 87.5509 66.4863C92.4278 66.4863 96.3944 68.8272 96.3944 71.7045C96.3944 74.5818 92.4278 76.9227 87.5509 76.9227ZM87.5509 67.0369C82.9777 67.0369 79.2573 69.1308 79.2573 71.7045C79.2573 74.2783 82.9777 76.3731 87.5509 76.3731C92.124 76.3731 95.8444 74.2783 95.8444 71.7045C95.8444 69.1308 92.124 67.0369 87.5509 67.0369Z" fill="#F2F2F2"/>
<path d="M90.9629 74.0301L90.0422 73.4777C89.4026 73.8208 88.6131 74.0726 88.0311 74.1386L87.4047 73.4513C88.0075 73.3627 88.7574 73.1675 89.3574 72.8243C89.9762 72.4699 90.1044 72.0513 89.6488 71.7779C89.2215 71.5214 88.6027 71.5525 87.6188 71.8156C86.2256 72.1899 85.1002 72.3002 84.2173 71.7703C83.4004 71.2801 83.3636 70.5664 84.1871 69.8961L83.257 69.338L84.0635 68.8761L84.9465 69.4059C85.5841 69.0627 86.1501 68.9062 86.6161 68.8167L87.2255 69.4926C86.8849 69.5652 86.2331 69.6821 85.5643 70.0639C84.8757 70.458 84.9719 70.804 85.2945 70.9973C85.6841 71.2301 86.2558 71.1585 87.4141 70.8738C88.9159 70.4825 89.9196 70.5089 90.7648 71.0161C91.5713 71.5007 91.7034 72.2596 90.7921 72.9818L91.7703 73.5682L90.9638 74.0301H90.9629Z" fill="#FFF6FB"/>
<path d="M98.097 70.8379C98.097 70.887 98.0857 70.9303 98.0857 70.9737V71.1208H98.0744C97.8188 74.3478 93.2117 76.9225 87.548 76.9225C81.8844 76.9225 77.283 74.3478 77.0273 71.1208H77V68.0841C77 71.4422 81.7269 74.1687 87.548 74.1687C93.3692 74.1687 97.8942 71.5563 98.0848 68.2962V70.7069C98.0848 70.7502 98.0961 70.7936 98.0961 70.8379H98.097Z" fill="#F1522D"/>
<path d="M98.0974 68.0846C98.0974 68.1553 98.0974 68.226 98.086 68.2967C97.8955 71.5568 93.2563 74.1691 87.5493 74.1691C81.8423 74.1691 77.0013 71.4427 77.0013 68.0846C77.0013 64.7264 81.7282 62 87.5493 62C93.3705 62 98.0974 64.7264 98.0974 68.0846Z" fill="#FFED0E"/>
<path d="M87.5509 73.3026C82.674 73.3026 78.7074 70.9617 78.7074 68.0844C78.7074 65.2071 82.674 62.8662 87.5509 62.8662C92.4278 62.8662 96.3944 65.2071 96.3944 68.0844C96.3944 70.9617 92.4278 73.3026 87.5509 73.3026ZM87.5509 63.4168C82.9777 63.4168 79.2573 65.5106 79.2573 68.0844C79.2573 70.6581 82.9777 72.7529 87.5509 72.7529C92.124 72.7529 95.8444 70.6581 95.8444 68.0844C95.8444 65.5106 92.124 63.4168 87.5509 63.4168Z" fill="#F1522D"/>
</svg>
