<svg width="128" height="128" viewBox="0 0 128 128" fill="none" xmlns="http://www.w3.org/2000/svg">
<path d="M88.7539 78.5588C89.8467 79.1695 91.1772 79.1759 92.2812 78.5843C112.535 67.7249 109.42 60.4193 112.795 50.7349C116.267 40.7731 126 38.6095 126 38.6095V38.1917L95.7686 21.7216C95.7686 21.7216 86.0355 23.8852 82.5641 33.847C79.2299 43.4134 82.2291 50.6568 62.7821 61.2994C61.7004 61.8909 61.6956 63.4439 62.7725 64.045L88.7524 78.5588H88.7539Z" fill="#BFB0FE"/>
<path d="M88.754 78.1412C89.8468 78.7519 91.1773 78.7583 92.2812 78.1667C112.535 67.3073 109.42 60.0017 112.796 50.3173C116.267 40.3555 126 38.1919 126 38.1919L95.7686 21.304C95.7686 21.304 86.0355 23.4676 82.5641 33.4294C79.2299 42.9958 82.2291 50.2392 62.7821 60.8818C61.7005 61.4733 61.6957 63.0263 62.7725 63.6274L88.7524 78.1412H88.754Z" fill="#E6EFFF"/>
<path d="M109.328 36.2549L99.4751 30.8345C99.3447 30.7628 99.1807 30.8103 99.1089 30.9406L98.8558 31.4002C98.784 31.5306 98.8316 31.6944 98.962 31.7662L108.815 37.1865C108.945 37.2583 109.109 37.2108 109.181 37.0804L109.434 36.6208C109.506 36.4905 109.459 36.3266 109.328 36.2549Z" fill="#BFB0FE"/>
<path d="M90.6721 70.1275L80.8191 64.7072C80.6887 64.6354 80.5247 64.683 80.4529 64.8133L80.1998 65.2729C80.128 65.4032 80.1755 65.5671 80.306 65.6389L90.159 71.0592C90.2894 71.131 90.4534 71.0834 90.5252 70.9531L90.7783 70.4935C90.8501 70.3632 90.8026 70.1993 90.6721 70.1275Z" fill="#BFB0FE"/>
<path d="M96.778 34.6153L90.6552 31.247C90.5247 31.1752 90.3608 31.2228 90.289 31.3531L90.0359 31.8127C89.9641 31.943 90.0116 32.1069 90.1421 32.1787L96.2649 35.5469C96.3953 35.6187 96.5593 35.5712 96.6311 35.4408L96.8842 34.9813C96.956 34.8509 96.9085 34.6871 96.778 34.6153Z" fill="#BFB0FE"/>
<path d="M98.9056 39.5781L89.0525 34.1578C88.9221 34.086 88.7582 34.1335 88.6864 34.2639L88.4333 34.7234C88.3615 34.8538 88.409 35.0177 88.5394 35.0894L98.3924 40.5097C98.5229 40.5815 98.6869 40.534 98.7587 40.4036L99.0118 39.9441C99.0836 39.8137 99.036 39.6499 98.9056 39.5781Z" fill="#BFB0FE"/>
<path d="M96.1974 41.8817L88.2633 37.517C88.1329 37.4453 87.9689 37.4928 87.8971 37.6231L87.644 38.0827C87.5722 38.2131 87.6198 38.3769 87.7502 38.4487L95.6843 42.8134C95.8148 42.8851 95.9787 42.8376 96.0505 42.7073L96.3036 42.2477C96.3754 42.1173 96.3279 41.9535 96.1974 41.8817Z" fill="#BFB0FE"/>
<path d="M96.5392 45.8627L87.4744 40.876C87.344 40.8043 87.18 40.8518 87.1082 40.9822L86.8551 41.4417C86.7833 41.5721 86.8309 41.7359 86.9613 41.8077L96.0261 46.7944C96.1565 46.8662 96.3205 46.8186 96.3923 46.6883L96.6454 46.2287C96.7172 46.0984 96.6697 45.9345 96.5392 45.8627Z" fill="#BFB0FE"/>
<path d="M96.5401 49.6541L86.6871 44.2338C86.5566 44.1621 86.3927 44.2096 86.3209 44.3399L86.0678 44.7995C85.996 44.9299 86.0435 45.0937 86.1739 45.1655L96.027 50.5858C96.1574 50.6576 96.3214 50.6101 96.3932 50.4797L96.6463 50.0201C96.7181 49.8898 96.6705 49.7259 96.5401 49.6541Z" fill="#BFB0FE"/>
<path d="M90.9563 50.376L85.0822 47.1446C84.9518 47.0728 84.7878 47.1203 84.716 47.2507L84.4629 47.7102C84.3911 47.8406 84.4386 48.0045 84.5691 48.0762L90.4432 51.3077C90.5736 51.3794 90.7376 51.3319 90.8094 51.2016L91.0625 50.742C91.1343 50.6116 91.0867 50.4478 90.9563 50.376Z" fill="#BFB0FE"/>
<path d="M91.4132 54.4218L83.4791 50.0571C83.3487 49.9853 83.1847 50.0328 83.1129 50.1632L82.8598 50.6227C82.788 50.7531 82.8356 50.9169 82.966 50.9887L90.9001 55.3534C91.0306 55.4252 91.1945 55.3777 91.2663 55.2473L91.5194 54.7878C91.5912 54.6574 91.5437 54.4935 91.4132 54.4218Z" fill="#BFB0FE"/>
<path d="M107.332 41.6339L111.078 43.6944C111.208 43.7662 111.372 43.7187 111.444 43.5883L111.697 43.1287C111.769 42.9984 111.721 42.8345 111.591 42.7628L107.845 40.7023C107.715 40.6305 107.551 40.678 107.479 40.8084L107.226 41.2679C107.154 41.3983 107.202 41.5622 107.332 41.6339Z" fill="#BFB0FE"/>
<path d="M101.999 42.4948L109.474 46.6074C109.605 46.6791 109.769 46.6316 109.841 46.5012L110.094 46.0417C110.166 45.9113 110.118 45.7475 109.988 45.6757L102.512 41.5632C102.381 41.4914 102.217 41.5389 102.146 41.6693L101.893 42.1288C101.821 42.2592 101.868 42.4231 101.999 42.4948Z" fill="#BFB0FE"/>
<path d="M103.13 46.9081L108.686 49.965C108.817 50.0368 108.981 49.9893 109.053 49.8589L109.306 49.3994C109.378 49.269 109.33 49.1051 109.2 49.0334L103.643 45.9765C103.512 45.9047 103.348 45.9522 103.277 46.0826L103.023 46.5421C102.952 46.6725 102.999 46.8364 103.13 46.9081Z" fill="#BFB0FE"/>
<path d="M101.208 49.6457L107.897 53.3254C108.027 53.3971 108.191 53.3496 108.263 53.2193L108.516 52.7597C108.588 52.6294 108.54 52.4655 108.41 52.3937L101.721 48.7141C101.591 48.6423 101.427 48.6898 101.355 48.8202L101.102 49.2797C101.03 49.4101 101.078 49.574 101.208 49.6457Z" fill="#BFB0FE"/>
<path d="M99.6325 52.572L107.108 56.6845C107.239 56.7563 107.403 56.7088 107.474 56.5784L107.727 56.1189C107.799 55.9885 107.752 55.8246 107.621 55.7529L100.146 51.6403C100.015 51.5686 99.8512 51.6161 99.7794 51.7465L99.5263 52.206C99.4545 52.3364 99.502 52.5002 99.6325 52.572Z" fill="#BFB0FE"/>
<path d="M102.008 57.6718L105.505 59.5954C105.635 59.6672 105.799 59.6197 105.871 59.4893L106.124 59.0297C106.196 58.8994 106.148 58.7355 106.018 58.6638L102.521 56.7401C102.391 56.6684 102.227 56.7159 102.155 56.8462L101.902 57.3058C101.83 57.4361 101.877 57.6 102.008 57.6718Z" fill="#BFB0FE"/>
<path d="M98.3451 59.4482L103.902 62.5051C104.032 62.5768 104.196 62.5293 104.268 62.399L104.521 61.9394C104.593 61.809 104.545 61.6452 104.415 61.5734L98.8582 58.5165C98.7277 58.4447 98.5638 58.4923 98.492 58.6226L98.2389 59.0822C98.1671 59.2125 98.2146 59.3764 98.3451 59.4482Z" fill="#BFB0FE"/>
<path d="M85.2625 59.8087L77.3284 55.444C77.198 55.3723 77.034 55.4198 76.9622 55.5501L76.7091 56.0097C76.6373 56.1401 76.6849 56.3039 76.8153 56.3757L84.7494 60.7404C84.8799 60.8121 85.0438 60.7646 85.1156 60.6343L85.3687 60.1747C85.4405 60.0444 85.393 59.8805 85.2625 59.8087Z" fill="#FBBC04"/>
<path d="M92.1942 64.836L97.751 67.8929C97.8815 67.9646 98.0455 67.9171 98.1173 67.7868L98.3703 67.3272C98.4421 67.1969 98.3946 67.033 98.2642 66.9612L92.7073 63.9043C92.5769 63.8326 92.4129 63.8801 92.3411 64.0105L92.088 64.47C92.0162 64.6004 92.0638 64.7642 92.1942 64.836Z" fill="#04C984"/>
<path d="M101.939 64.7029L80.5307 52.9258L80.2084 53.511L101.617 65.2881L101.939 64.7029Z" fill="#BFB0FE"/>
<path d="M47.294 42.4765C46.6578 42.1089 46.0816 42.075 45.6657 42.3162L2.67661 67.298C3.09248 67.0568 3.66869 67.0907 4.30487 67.4584L10.5546 71.0669L53.5437 46.085L47.294 42.4765Z" fill="#3F13C2"/>
<path d="M53.5424 46.084L10.5546 71.0658L21.9563 80.2487L64.9454 55.2669L53.5424 46.084Z" fill="#6634FA"/>
<path d="M15.0156 71.4041L53.309 49.1495L60.483 54.9273L22.1909 77.1832L15.0156 71.4041Z" fill="#BFB0FE"/>
<path opacity="0.4" d="M53.2738 50.2642L59.6578 55.4058L60.483 54.9273L53.309 49.1495L15.0156 71.4041L15.8057 72.0403L53.2738 50.2642Z" fill="#BFB0FE"/>
<path d="M110.758 82.9902C110.749 82.9485 110.74 82.9094 110.73 82.8677C110.687 82.6995 110.632 82.5313 110.559 82.3658C110.483 82.2002 110.408 82.062 110.325 81.9291C110.299 81.8874 110.273 81.8483 110.246 81.8078C110.177 81.7036 110.103 81.6058 110.024 81.5106C110.005 81.4872 109.989 81.4598 109.97 81.4376C109.872 81.3333 109.804 81.2694 109.736 81.2069C109.702 81.1756 109.67 81.1417 109.635 81.1117C109.529 81.0244 109.421 80.9448 109.309 80.881L64.9441 55.2668L21.955 80.2487L66.3195 105.863C66.4316 105.928 66.5398 106.006 66.6454 106.094C66.6806 106.122 66.7118 106.156 66.7457 106.187C66.8148 106.25 66.8826 106.315 66.9465 106.386C66.9765 106.419 67.0052 106.456 67.0352 106.491C67.1134 106.586 67.1877 106.685 67.2581 106.788C67.2855 106.829 67.3128 106.868 67.3376 106.91C67.4184 107.043 67.494 107.179 67.5566 107.32C67.6427 107.512 67.6974 107.68 67.7404 107.848C67.7509 107.89 67.76 107.93 67.7691 107.972C67.8043 108.14 67.8304 108.308 67.8291 108.469L67.8252 109.733C67.8239 110.21 67.6544 110.545 67.3832 110.703L110.371 85.7214C110.644 85.5636 110.812 85.2273 110.813 84.7515L110.817 83.4869C110.82 83.3279 110.795 83.1597 110.758 82.9902Z" fill="#3F13C2"/>
<path d="M109.971 81.4371L66.9817 106.419C67.219 106.69 67.4223 107.009 67.5696 107.345L110.559 82.3627C110.411 82.0277 110.208 81.7083 109.971 81.4371Z" fill="#6634FA"/>
<path d="M66.3208 105.863L21.9563 80.2488L10.5546 71.0659L4.30486 67.4574C3.03641 66.7247 2.01044 67.3166 2.00653 68.7741L2.00001 70.826C1.9961 72.2835 3.01555 74.0565 4.284 74.7891L66.3077 110.599C67.142 111.081 67.8239 110.693 67.8278 109.733L67.8317 108.469C67.833 107.519 67.1564 106.345 66.3208 105.863Z" fill="#2A0B88"/>
<path opacity="0.7" d="M53.3638 57.0171L53.3286 57.4877L52.8775 57.4421C52.0836 56.7616 50.3432 55.2689 49.7435 54.7566L49.7592 54.4398L50.4136 54.5115C52.0458 55.8959 51.7212 55.6196 53.3638 57.0171ZM51.4787 53.509L51.5035 53.0423L51.0485 53.0032L49.8022 53.7267L49.7826 54.0396L50.441 54.1112L51.4787 53.509ZM52.038 53.5689C54.5175 55.63 53.8944 55.1112 55.0272 56.0537L55.7064 56.115L55.7299 55.7916C54.3832 54.6809 54.0912 54.4411 52.5203 53.1466L52.0614 53.1022L52.038 53.5689ZM53.9348 57.0692L53.8996 57.5425L54.3493 57.5842L55.6465 56.8346L55.6803 56.5126L55.0051 56.4513L53.9348 57.0692ZM56.4599 55.4045L57.147 55.9663L57.7362 55.6261L57.0453 55.0668L56.4599 55.4045Z" fill="#4A62AF"/>
<path d="M103.185 80.8436L99.9744 82.717C99.2144 83.1589 97.9629 83.155 97.1964 82.713L88.1151 77.4698C87.7306 77.2469 87.5376 76.9548 87.5389 76.6615L87.5363 77.5845C87.535 77.8765 87.728 78.1698 88.1125 78.3927L97.1938 83.636C97.959 84.078 99.2105 84.0819 99.9718 83.6399L103.183 81.7666C103.563 81.545 103.752 81.2556 103.754 80.9662L103.756 80.0432C103.755 80.3326 103.566 80.6233 103.185 80.8436Z" fill="#2A0B88"/>
<path d="M103.178 79.2312L94.0965 73.988C93.3313 73.546 92.0863 73.546 91.3198 73.9919L88.1089 75.8652C87.3489 76.3071 87.3528 77.0281 88.118 77.47L97.1992 82.7133C97.9645 83.1552 99.216 83.1591 99.9773 82.7172L103.188 80.8438C103.953 80.398 103.943 79.6732 103.178 79.2312Z" fill="#6634FA"/>
<path d="M88.9834 72.6454L85.7725 74.5187C85.0125 74.9607 83.761 74.9567 82.9957 74.5148L81.0116 73.3689C80.627 73.146 80.434 72.8539 80.4353 72.5606L80.4327 73.4836C80.4314 73.7756 80.6244 74.0689 81.0089 74.2919L82.9931 75.4378C83.7583 75.8797 85.0098 75.8836 85.7712 75.4417L88.9821 73.5684C89.3627 73.3467 89.5518 73.0573 89.5531 72.7679L89.5557 71.8436C89.5531 72.1343 89.364 72.4237 88.9834 72.6454Z" fill="#2A0B88"/>
<path d="M88.9744 71.0312L86.9903 69.8853C86.225 69.4433 84.9814 69.4434 84.2135 69.8892L81.0026 71.7625C80.2426 72.2045 80.2465 72.9254 81.0118 73.3673L82.9959 74.5133C83.7612 74.9552 85.0127 74.9591 85.7727 74.5171L88.9836 72.6438C89.7514 72.1979 89.741 71.4731 88.9744 71.0312Z" fill="#6634FA"/>
<path d="M81.8798 68.5427L78.6689 70.4161C77.9089 70.858 76.6574 70.8541 75.8908 70.4122L73.9067 69.2662C73.5221 69.0433 73.3292 68.7513 73.3305 68.458L73.3279 69.381C73.3266 69.673 73.5195 69.9663 73.9041 70.1892L75.8882 71.3351C76.6535 71.7771 77.905 71.781 78.6663 71.3391L81.8772 69.4657C82.2578 69.2441 82.4469 68.9547 82.4482 68.6653L82.4508 67.7423C82.4495 68.0317 82.2605 68.3224 81.8798 68.5427Z" fill="#2A0B88"/>
<path d="M81.8708 66.9301L79.8866 65.7842C79.1214 65.3423 77.8777 65.3423 77.1099 65.7881L73.899 67.6615C73.139 68.1034 73.1429 68.8243 73.9081 69.2663L75.8923 70.4122C76.6575 70.8541 77.909 70.858 78.6703 70.4161L81.8812 68.5427C82.6478 68.0969 82.636 67.3721 81.8708 66.9301Z" fill="#6634FA"/>
<path d="M74.7749 64.4414L71.564 66.3147C70.804 66.7567 69.5525 66.7527 68.7859 66.3108L66.8018 65.1649C66.4159 64.9419 66.2243 64.6499 66.2256 64.3566L66.223 65.2809C66.2217 65.5729 66.4146 65.8663 66.7992 66.0892L68.7833 67.2351C69.5486 67.677 70.8001 67.6809 71.5614 67.239L74.7723 65.3657C75.153 65.144 75.342 64.8546 75.3433 64.5652L75.3459 63.6422C75.3446 63.9303 75.1556 64.2197 74.7749 64.4414Z" fill="#2A0B88"/>
<path d="M74.7659 62.8274L72.7817 61.6828C72.0165 61.2408 70.7715 61.2408 70.005 61.6867L66.7941 63.56C66.034 64.002 66.038 64.7229 66.8032 65.1648L68.7874 66.3107C69.5526 66.7527 70.8041 66.7566 71.5654 66.3147L74.7763 64.4413C75.5429 63.9941 75.5311 63.2693 74.7659 62.8274Z" fill="#6634FA"/>
<path d="M67.67 60.3389L64.4591 62.2122C63.6991 62.6542 62.4476 62.6503 61.681 62.2083L61.1179 61.8837C60.7333 61.6608 60.5404 61.3688 60.5417 61.0754L60.5391 61.9984C60.5378 62.2904 60.7307 62.5838 61.1153 62.8067L61.6784 63.1313C62.4437 63.5732 63.6952 63.5772 64.4552 63.1352L67.6661 61.2619C68.0468 61.0402 68.2358 60.7508 68.2371 60.4614L68.2397 59.5385C68.2397 59.8292 68.0507 60.1186 67.67 60.3389Z" fill="#2A0B88"/>
<path d="M67.661 58.7261L67.0978 58.4015C66.3325 57.9596 65.0888 57.9596 64.321 58.4054L61.1101 60.2788C60.3501 60.7207 60.354 61.4416 61.1192 61.8836L61.6824 62.2082C62.4477 62.6501 63.6992 62.654 64.4605 62.2121L67.6714 60.3387C68.4379 59.8929 68.4262 59.1681 67.661 58.7261Z" fill="#6634FA"/>
<path d="M95.0636 85.5425L91.8527 87.4159C91.0927 87.8578 89.8412 87.8539 89.0746 87.4119L87.0905 86.266C86.7059 86.0431 86.513 85.7511 86.5143 85.4578L86.5117 86.3808C86.5104 86.6728 86.7033 86.9661 87.0879 87.189L89.072 88.3349C89.8373 88.7769 91.0888 88.7808 91.8501 88.3388L95.061 86.4655C95.4417 86.2439 95.6307 85.9545 95.632 85.6651L95.6346 84.7421C95.6333 85.0315 95.4443 85.3209 95.0636 85.5425Z" fill="#038F5E"/>
<path d="M95.0547 83.9298L93.0706 82.7839C92.3053 82.3419 91.0604 82.3419 90.2925 82.7878L87.0816 84.6611C86.3216 85.103 86.3255 85.8239 87.0907 86.2659L89.0749 87.4118C89.8401 87.8537 91.0916 87.8577 91.853 87.4157L95.0639 85.5424C95.8317 85.0965 95.82 84.3704 95.0547 83.9298Z" fill="#04C984"/>
<path d="M87.9587 81.4399L84.7478 83.3133C83.9878 83.7552 82.7363 83.7513 81.9698 83.3094L79.9856 82.1635C79.601 81.9405 79.4081 81.6485 79.4094 81.3552L79.4068 82.2782C79.4055 82.5702 79.5984 82.8635 79.983 83.0865L81.9672 84.2324C82.7324 84.6743 83.9839 84.6782 84.7452 84.2363L87.9561 82.3629C88.3368 82.1413 88.5258 81.8519 88.5271 81.5625L88.5297 80.6395C88.5284 80.9302 88.3394 81.2196 87.9587 81.4399Z" fill="#038F5E"/>
<path d="M87.9498 79.8272L85.9656 78.6813C85.2004 78.2394 83.9567 78.2394 83.1889 78.6852L79.978 80.5586C79.2179 81.0005 79.2218 81.7214 79.9871 82.1633L81.9712 83.3093C82.7365 83.7512 83.988 83.7551 84.7493 83.3132L87.9602 81.4398C88.7267 80.994 88.715 80.2692 87.9498 79.8272Z" fill="#04C984"/>
<path d="M80.8538 77.3385L77.6429 79.2119C76.8829 79.6538 75.6314 79.6499 74.8649 79.208L72.8807 78.0621C72.4948 77.8391 72.3032 77.5471 72.3045 77.2538L72.3019 78.1768C72.3006 78.4688 72.4935 78.7621 72.8781 78.9851L74.8623 80.131C75.6275 80.5729 76.879 80.5768 77.6403 80.1349L80.8512 78.2615C81.2319 78.0399 81.4209 77.7505 81.4222 77.4611L81.4248 76.5381C81.4235 76.8275 81.2345 77.1169 80.8538 77.3385Z" fill="#038F5E"/>
<path d="M80.8448 75.726L78.8607 74.5801C78.0954 74.1382 76.8517 74.1382 76.0839 74.584L72.873 76.4574C72.113 76.8993 72.1169 77.6202 72.8821 78.0622L74.8663 79.2081C75.6315 79.65 76.883 79.6539 77.6443 79.212L80.8552 77.3386C81.6218 76.8928 81.6101 76.168 80.8448 75.726Z" fill="#04C984"/>
<path d="M73.7503 73.2372L70.5394 75.1105C69.7793 75.5525 68.5278 75.5486 67.7626 75.1066L65.7784 73.9607C65.3939 73.7378 65.2009 73.4458 65.2022 73.1525L65.1996 74.0755C65.1983 74.3675 65.3913 74.6608 65.7758 74.8837L67.76 76.0296C68.5252 76.4716 69.7767 76.4755 70.5368 76.0335L73.7476 74.1602C74.1283 73.9386 74.3173 73.6492 74.3187 73.3598L74.3213 72.4368C74.3186 72.7262 74.1296 73.0156 73.7503 73.2372Z" fill="#038F5E"/>
<path d="M73.7414 71.6235L71.7573 70.4776C70.992 70.0356 69.747 70.0356 68.9805 70.4815L65.7696 72.3548C65.0096 72.7968 65.0135 73.5177 65.7787 73.9596L67.7629 75.1055C68.5281 75.5475 69.7796 75.5514 70.5397 75.1095L73.7505 73.2361C74.5171 72.7902 74.5067 72.0654 73.7414 71.6235Z" fill="#04C984"/>
<path d="M66.6453 69.1348L63.4345 71.0082C62.6744 71.4501 61.4229 71.4462 60.6577 71.0042L58.6735 69.8583C58.289 69.6354 58.096 69.3434 58.0973 69.0501L58.0947 69.9731C58.0934 70.2651 58.2863 70.5584 58.6709 70.7813L60.6551 71.9272C61.4203 72.3692 62.6718 72.3731 63.4318 71.9311L66.6427 70.0578C67.0234 69.8362 67.2124 69.5468 67.2137 69.2573L67.2163 68.3344C67.215 68.6238 67.026 68.9145 66.6453 69.1348Z" fill="#2A0B88"/>
<path d="M66.6364 67.522L64.6523 66.3761C63.8871 65.9342 62.6421 65.9342 61.8755 66.38L58.6646 68.2534C57.9046 68.6953 57.9085 69.4162 58.6738 69.8582L60.6579 71.0041C61.4232 71.446 62.6747 71.45 63.4347 71.008L66.6456 69.1347C67.4134 68.6888 67.4017 67.964 66.6364 67.522Z" fill="#6634FA"/>
<path d="M59.5405 65.0334L56.3296 66.9067C55.5696 67.3486 54.3181 67.3447 53.5515 66.9028L52.9884 66.5782C52.6038 66.3553 52.4108 66.0633 52.4121 65.7699L52.4095 66.6929C52.4082 66.9849 52.6012 67.2783 52.9857 67.5012L53.5489 67.8258C54.3142 68.2677 55.5657 68.2716 56.3257 67.8297L59.5366 65.9564C59.9172 65.7347 60.1063 65.4453 60.1076 65.1559L60.1102 64.2329C60.1102 64.5223 59.9212 64.8117 59.5405 65.0334Z" fill="#2A0B88"/>
<path d="M59.5315 63.4195L58.9683 63.0949C58.2031 62.653 56.9594 62.6529 56.1915 63.0988L52.9807 64.9721C52.2206 65.4141 52.2245 66.135 52.9898 66.5769L53.553 66.9015C54.3182 67.3435 55.5697 67.3474 56.331 66.9055L59.5419 65.0321C60.3085 64.5876 60.2967 63.8614 59.5315 63.4195Z" fill="#6634FA"/>
<path d="M86.934 90.2355L83.7232 92.1088C82.9631 92.5508 81.7116 92.5469 80.9451 92.1049L78.9622 90.959C78.5764 90.7361 78.3847 90.4441 78.386 90.1508L78.3834 91.0738C78.3821 91.3658 78.5751 91.6591 78.9596 91.882L80.9438 93.0279C81.709 93.4699 82.9605 93.4738 83.7206 93.0318L86.9314 91.1585C87.3121 90.9369 87.5011 90.6475 87.5024 90.3581L87.505 89.4351C87.5024 89.7245 87.3134 90.0152 86.934 90.2355Z" fill="#038F5E"/>
<path d="M86.9251 88.623L84.941 87.4771C84.1757 87.0352 82.9321 87.0351 82.1642 87.481L78.9533 89.3543C78.1933 89.7963 78.1972 90.5172 78.9625 90.9591L80.9466 92.105C81.7119 92.547 82.9634 92.5509 83.7247 92.1089L86.9356 90.2356C87.7008 89.7898 87.6904 89.0649 86.9251 88.623Z" fill="#04C984"/>
<path d="M79.8292 86.1341L76.6183 88.0074C75.8582 88.4493 74.6067 88.4454 73.8415 88.0035L71.8573 86.8576C71.4728 86.6347 71.2798 86.3427 71.2811 86.0493L71.2785 86.9723C71.2772 87.2643 71.4702 87.5577 71.8547 87.7806L73.8389 88.9265C74.6041 89.3684 75.8556 89.3723 76.6157 88.9304L79.8266 87.057C80.2072 86.8354 80.3962 86.546 80.3975 86.2566L80.4002 85.3336C80.3989 85.623 80.2098 85.9125 79.8292 86.1341Z" fill="#038F5E"/>
<path d="M79.8201 84.5205L77.836 83.3746C77.0707 82.9326 75.8271 82.9326 75.0592 83.3784L71.8483 85.2518C71.0883 85.6937 71.0922 86.4146 71.8575 86.8566L73.8416 88.0025C74.6068 88.4444 75.8583 88.4483 76.6184 88.0064L79.8293 86.1331C80.5971 85.6885 80.5854 84.9637 79.8201 84.5205Z" fill="#04C984"/>
<path d="M72.7243 82.0318L69.5134 83.9051C68.7533 84.347 67.5018 84.3431 66.7366 83.9012L64.7524 82.7553C64.3679 82.5324 64.1749 82.2404 64.1762 81.947L64.1736 82.87C64.1723 83.1621 64.3653 83.4554 64.7498 83.6783L66.734 84.8242C67.4992 85.2661 68.7507 85.27 69.5121 84.8281L72.723 82.9547C73.1036 82.7331 73.2926 82.4437 73.294 82.1543L73.2966 81.2313C73.2939 81.522 73.1049 81.8115 72.7243 82.0318Z" fill="#038F5E"/>
<path d="M72.7152 80.4193L70.7311 79.2734C69.9658 78.8314 68.7208 78.8314 67.953 79.2773L64.7421 81.1506C63.9821 81.5925 63.986 82.3135 64.7512 82.7554L66.7354 83.9013C67.5006 84.3432 68.7521 84.3471 69.5122 83.9052L72.723 82.0319C73.4922 81.586 73.4805 80.8612 72.7152 80.4193Z" fill="#04C984"/>
<path d="M65.6194 77.9305L62.4085 79.8038C61.6484 80.2457 60.3969 80.2418 59.6304 79.7999L57.6462 78.654C57.2617 78.4311 57.0687 78.139 57.07 77.8457L57.0674 78.7687C57.0661 79.0607 57.2591 79.354 57.6436 79.577L59.6278 80.7229C60.393 81.1648 61.6445 81.1687 62.4046 80.7268L65.6154 78.8534C65.9961 78.6318 66.1851 78.3424 66.1864 78.053L66.1891 77.13C66.1891 77.4194 66 77.7088 65.6194 77.9305Z" fill="#038F5E"/>
<path d="M65.6104 76.3181L63.6263 75.1722C62.861 74.7302 61.6174 74.7302 60.8495 75.1761L57.6386 77.0494C56.8786 77.4913 56.8825 78.2123 57.6477 78.6542L59.6319 79.8001C60.3971 80.242 61.6486 80.2459 62.41 79.804L65.6209 77.9307C66.3874 77.4848 66.3757 76.76 65.6104 76.3181Z" fill="#04C984"/>
<path d="M58.5158 73.8292L55.3049 75.7026C54.5449 76.1445 53.2934 76.1406 52.5268 75.6987L50.5427 74.5528C50.1581 74.3299 49.9652 74.0378 49.9665 73.7445L49.9639 74.6675C49.9626 74.9595 50.1555 75.2528 50.5401 75.4757L52.5242 76.6217C53.2895 77.0636 54.541 77.0675 55.3023 76.6256L58.5132 74.7522C58.8939 74.5306 59.0829 74.2412 59.0842 73.9518L59.0868 73.0288C59.0855 73.3182 58.8952 73.6076 58.5158 73.8292Z" fill="#2A0B88"/>
<path d="M58.5068 72.2155L56.5226 71.0696C55.7574 70.6277 54.5124 70.6277 53.7459 71.0735L50.535 72.9469C49.775 73.3888 49.7789 74.1097 50.5441 74.5517L52.5283 75.6976C53.2935 76.1395 54.545 76.1434 55.3063 75.7015L58.5172 73.8281C59.2838 73.3823 59.272 72.6575 58.5068 72.2155Z" fill="#6634FA"/>
<path d="M51.4109 69.7266L48.2 71.5999C47.44 72.0419 46.1885 72.038 45.4233 71.596L44.8601 71.2714C44.4755 71.0485 44.2826 70.7565 44.2839 70.4632L44.2813 71.3861C44.28 71.6781 44.4729 71.9715 44.8575 72.1944L45.4193 72.519C46.1846 72.961 47.4361 72.9649 48.1961 72.5229L51.407 70.6496C51.7877 70.4279 51.9767 70.1386 51.978 69.8491L51.9806 68.9261C51.9806 69.2169 51.7916 69.5063 51.4109 69.7266Z" fill="#2A0B88"/>
<path d="M51.402 68.114L50.8389 67.7893C50.0736 67.3474 48.8299 67.3474 48.0621 67.7933L44.8512 69.6666C44.0912 70.1085 44.0951 70.8295 44.8603 71.2714L45.4235 71.596C46.1887 72.0379 47.4402 72.0418 48.2003 71.5999L51.4111 69.7266C52.179 69.2807 52.1673 68.5559 51.402 68.114Z" fill="#6634FA"/>
<path d="M78.8032 94.9295L75.5923 96.8028C74.8323 97.2448 73.5808 97.2409 72.8142 96.7989L70.8301 95.653C70.4455 95.4301 70.2525 95.1381 70.2538 94.8447L70.2512 95.769C70.2499 96.0611 70.4429 96.3544 70.8275 96.5773L72.8116 97.7232C73.5768 98.1651 74.8284 98.169 75.5897 97.7271L78.8006 95.8538C79.1812 95.6322 79.3703 95.3427 79.3716 95.0533L79.3742 94.1304C79.3729 94.4185 79.1838 94.7079 78.8032 94.9295Z" fill="#038F5E"/>
<path d="M78.7942 93.3158L76.8101 92.1698C76.0448 91.7279 74.8012 91.7279 74.0333 92.1738L70.8224 94.0471C70.0624 94.489 70.0663 95.21 70.8316 95.6519L72.8157 96.7978C73.581 97.2397 74.8325 97.2436 75.5938 96.8017L78.8047 94.9284C79.5712 94.4825 79.5608 93.7577 78.7942 93.3158Z" fill="#04C984"/>
<path d="M71.6996 90.8269L68.4887 92.7003C67.7287 93.1422 66.4772 93.1383 65.7106 92.6964L63.7265 91.5505C63.3419 91.3275 63.149 91.0355 63.1503 90.7422L63.1477 91.6652C63.1464 91.9572 63.3393 92.2505 63.7239 92.4734L65.708 93.6193C66.4733 94.0613 67.7248 94.0652 68.4861 93.6233L71.697 91.7499C72.0777 91.5283 72.2667 91.2389 72.268 90.9495L72.2706 90.0265C72.2693 90.3172 72.079 90.6066 71.6996 90.8269Z" fill="#038F5E"/>
<path d="M71.6907 89.2145L69.7065 88.0686C68.9413 87.6267 67.6976 87.6267 66.9298 88.0726L63.7189 89.9459C62.9589 90.3878 62.9628 91.1088 63.728 91.5507L65.7122 92.6966C66.4774 93.1385 67.7289 93.1424 68.4902 92.7005L71.7011 90.8271C72.4677 90.3813 72.4559 89.6565 71.6907 89.2145Z" fill="#04C984"/>
<path d="M64.5947 86.7258L61.3838 88.5992C60.6238 89.0411 59.3723 89.0372 58.6058 88.5953L56.6216 87.4494C56.237 87.2264 56.0441 86.9344 56.0454 86.6411L56.0428 87.5641C56.0415 87.8561 56.2344 88.1494 56.619 88.3723L58.6031 89.5182C59.3684 89.9602 60.6199 89.9641 61.3799 89.5222L64.5908 87.6488C64.9715 87.4272 65.1605 87.1377 65.1618 86.8483L65.1644 85.9241C65.1644 86.2148 64.9754 86.5042 64.5947 86.7258Z" fill="#038F5E"/>
<path d="M64.5857 85.1132L62.6016 83.9673C61.8363 83.5254 60.5913 83.5254 59.8248 83.9712L56.6139 85.8446C55.8539 86.2865 55.8578 87.0074 56.623 87.4494L58.6072 88.5953C59.3724 89.0372 60.6239 89.0411 61.3852 88.5992L64.5961 86.7258C65.3627 86.28 65.3509 85.5538 64.5857 85.1132Z" fill="#04C984"/>
<path d="M57.4898 82.6243L54.2789 84.4976C53.5189 84.9396 52.2674 84.9356 51.5022 84.4937L49.518 83.3478C49.1334 83.1249 48.9405 82.8329 48.9418 82.5395L48.9392 83.4625C48.9379 83.7545 49.1308 84.0479 49.5154 84.2708L51.4995 85.4167C52.2648 85.8586 53.5163 85.8626 54.2763 85.4206L57.4872 83.5473C57.8679 83.3256 58.0569 83.0362 58.0582 82.7468L58.0608 81.8239C58.0595 82.1133 57.8705 82.4027 57.4898 82.6243Z" fill="#038F5E"/>
<path d="M57.4809 81.0104L55.4967 79.8645C54.7315 79.4226 53.4865 79.4226 52.72 79.8685L49.5091 81.7418C48.749 82.1837 48.753 82.9047 49.5182 83.3466L51.5024 84.4925C52.2676 84.9344 53.5191 84.9383 54.2791 84.4964L57.49 82.623C58.2579 82.1772 58.2461 81.4524 57.4809 81.0104Z" fill="#04C984"/>
<path d="M50.3849 78.5218L47.174 80.3952C46.414 80.8371 45.1625 80.8332 44.3973 80.3913L42.4131 79.2454C42.0286 79.0224 41.8356 78.7304 41.8369 78.4371L41.8343 79.3614C41.833 79.6534 42.0259 79.9467 42.4105 80.1696L44.3947 81.3155C45.1599 81.7575 46.4114 81.7614 47.1727 81.3194L50.3836 79.4461C50.7643 79.2245 50.9533 78.9351 50.9546 78.6456L50.9572 77.7227C50.9546 78.0108 50.7656 78.3002 50.3849 78.5218Z" fill="#2A0B88"/>
<path d="M50.3772 76.9092L48.3931 75.7633C47.6278 75.3214 46.3828 75.3214 45.6163 75.7672L42.4054 77.6406C41.6454 78.0825 41.6493 78.8035 42.4145 79.2454L44.3987 80.3913C45.1639 80.8333 46.4154 80.8372 47.1755 80.3952L50.3864 78.5219C51.1529 78.076 51.1425 77.3512 50.3772 76.9092Z" fill="#6634FA"/>
<path d="M43.2814 74.4207L40.0705 76.294C39.3105 76.736 38.059 76.732 37.2924 76.2901L36.7305 75.9655C36.346 75.7426 36.153 75.4505 36.1543 75.1572L36.1517 76.0802C36.1504 76.3722 36.3434 76.6655 36.7279 76.8885L37.2898 77.2131C38.0551 77.655 39.3066 77.6589 40.0679 77.217L43.2788 75.3437C43.6594 75.122 43.8485 74.8326 43.8498 74.5432L43.8524 73.6202C43.8511 73.9096 43.662 74.199 43.2814 74.4207Z" fill="#2A0B88"/>
<path d="M43.2725 72.8066L42.7093 72.482C41.944 72.04 40.6991 72.04 39.9325 72.4859L36.7216 74.3592C35.9616 74.8012 35.9655 75.5221 36.7308 75.964L37.2926 76.2886C38.0579 76.7306 39.3094 76.7345 40.0707 76.2925L43.2816 74.4192C44.0494 73.9733 44.0377 73.2485 43.2725 72.8066Z" fill="#6634FA"/>
<path d="M70.6736 99.6231L67.4627 101.496C66.7027 101.938 65.4512 101.934 64.6846 101.492L62.7005 100.347C62.3159 100.124 62.123 99.8316 62.1243 99.5383L62.1217 100.461C62.1204 100.753 62.3133 101.047 62.6979 101.27L64.682 102.415C65.4473 102.857 66.6988 102.861 67.4588 102.419L70.6697 100.546C71.0504 100.324 71.2394 100.035 71.2407 99.7456L71.2433 98.8226C71.2433 99.112 71.0543 99.4027 70.6736 99.6231Z" fill="#AC2F12"/>
<path d="M70.6647 98.0104L68.6806 96.8645C67.9153 96.4226 66.6703 96.4226 65.9038 96.8684L62.6929 98.7418C61.9329 99.1837 61.9368 99.9046 62.702 100.347L64.6862 101.492C65.4514 101.934 66.7029 101.938 67.4642 101.496L70.6751 99.6231C71.4417 99.1772 71.43 98.4524 70.6647 98.0104Z" fill="#EE522E"/>
<path d="M63.5688 95.5216L60.3579 97.395C59.5978 97.8369 58.3463 97.833 57.5811 97.3911L55.5969 96.2452C55.2124 96.0222 55.0194 95.7302 55.0207 95.4369L55.0181 96.3599C55.0168 96.6519 55.2098 96.9452 55.5943 97.1682L57.5785 98.3141C58.3437 98.756 59.5952 98.7599 60.3553 98.318L63.5661 96.4446C63.9468 96.223 64.1358 95.9336 64.1371 95.6442L64.1397 94.7212C64.1384 95.0106 63.9494 95.3 63.5688 95.5216Z" fill="#2A0B88"/>
<path d="M63.561 93.9078L61.5769 92.7619C60.8116 92.3199 59.5667 92.3199 58.8001 92.7658L55.5892 94.6391C54.8292 95.0811 54.8331 95.802 55.5983 96.2439L57.5825 97.3899C58.3477 97.8318 59.5992 97.8357 60.3593 97.3938L63.5688 95.5217C64.3367 95.0759 64.3263 94.3497 63.561 93.9078Z" fill="#6634FA"/>
<path d="M56.4652 91.4191L53.2543 93.2924C52.4942 93.7344 51.2427 93.7304 50.4762 93.2885L48.492 92.1426C48.1075 91.9197 47.9145 91.6277 47.9158 91.3343L47.9132 92.2573C47.9119 92.5493 48.1049 92.8427 48.4894 93.0656L50.4736 94.2115C51.2388 94.6534 52.4903 94.6573 53.2517 94.2154L56.4625 92.3421C56.8432 92.1204 57.0322 91.831 57.0335 91.5416L57.0362 90.6187C57.0348 90.9094 56.8458 91.1988 56.4652 91.4191Z" fill="#2A0B88"/>
<path d="M56.4563 89.8065L54.4721 88.6606C53.7069 88.2186 52.4619 88.2186 51.6941 88.6645L48.4832 90.5378C47.7232 90.9798 47.7271 91.7007 48.4923 92.1426L50.4765 93.2885C51.2417 93.7304 52.4932 93.7344 53.2545 93.2924L56.4654 91.4191C57.2333 90.9732 57.2215 90.2484 56.4563 89.8065Z" fill="#6634FA"/>
<path d="M49.3603 87.3181L46.1494 89.1914C45.3893 89.6334 44.1378 89.6294 43.3713 89.1875L41.3871 88.0416C41.0026 87.8187 40.8096 87.5267 40.8109 87.2333L40.8083 88.1563C40.807 88.4484 41 88.7417 41.3845 88.9646L43.3687 90.1105C44.1339 90.5524 45.3854 90.5563 46.1468 90.1144L49.3577 88.2411C49.7383 88.0195 49.9274 87.73 49.9287 87.4406L49.9313 86.5164C49.93 86.8071 49.7409 87.0965 49.3603 87.3181Z" fill="#2A0B88"/>
<path d="M49.3513 85.7054L47.3672 84.5595C46.6019 84.1176 45.3583 84.1175 44.5904 84.5634L41.3795 86.4367C40.6195 86.8787 40.6234 87.5996 41.3886 88.0415L43.3728 89.1874C44.138 89.6294 45.3895 89.6333 46.1509 89.1914L49.3618 87.318C50.1283 86.8722 50.1166 86.1473 49.3513 85.7054Z" fill="#6634FA"/>
<path d="M42.2554 83.2153L39.0445 85.0887C38.2845 85.5306 37.033 85.5267 36.2677 85.0848L34.2836 83.9389C33.899 83.7159 33.7061 83.4239 33.7074 83.1306L33.7047 84.0536C33.7034 84.3456 33.8964 84.6389 34.281 84.8618L36.2651 86.0077C37.0304 86.4497 38.2819 86.4536 39.0432 86.0116L42.2541 84.1383C42.6347 83.9167 42.8238 83.6273 42.8251 83.3379L42.8277 82.4149C42.8251 82.7056 42.6361 82.995 42.2554 83.2153Z" fill="#2A0B88"/>
<path d="M42.2465 81.6029L40.2623 80.4569C39.4971 80.015 38.2521 80.015 37.4856 80.4608L34.2747 82.3342C33.5146 82.7761 33.5186 83.497 34.2838 83.939L36.2679 85.0849C37.0332 85.5268 38.2847 85.5308 39.0447 85.0888L42.2556 83.2155C43.0235 82.7696 43.0117 82.0448 42.2465 81.6029Z" fill="#6634FA"/>
<path d="M35.1518 79.1141L31.9409 80.9874C31.1809 81.4294 29.9294 81.4254 29.1642 80.9835L28.601 80.6589C28.2164 80.436 28.0235 80.1439 28.0248 79.8506L28.0222 80.7736C28.0209 81.0656 28.2138 81.3589 28.5984 81.5819L29.1602 81.9065C29.9255 82.3484 31.177 82.3523 31.937 81.9104L35.1479 80.0371C35.5286 79.8154 35.7176 79.526 35.7189 79.2366L35.7215 78.3136C35.7215 78.603 35.5325 78.8937 35.1518 79.1141Z" fill="#2A0B88"/>
<path d="M35.1428 77.5013L34.5797 77.1767C33.8144 76.7347 32.5707 76.7347 31.8029 77.1806L28.592 79.0539C27.832 79.4959 27.8359 80.2168 28.6011 80.6587L29.1643 80.9833C29.9295 81.4252 31.181 81.4292 31.9411 80.9872L35.152 79.1139C35.9198 78.668 35.9081 77.9432 35.1428 77.5013Z" fill="#6634FA"/>
<path d="M109.138 100.68C109.138 100.729 109.127 100.773 109.127 100.816V100.963H109.115C108.86 104.19 104.253 106.765 98.589 106.765C92.9254 106.765 88.3239 104.19 88.0683 100.963H88.0409V97.9265C88.0409 101.285 92.7678 104.011 98.589 104.011C104.41 104.011 108.935 101.399 109.126 98.1386V100.549C109.126 100.593 109.137 100.636 109.137 100.68H109.138Z" fill="#F1522D"/>
<path d="M109.138 97.9264C109.138 97.9971 109.138 98.0678 109.127 98.1385C108.936 101.399 104.297 104.011 98.5902 104.011C92.8832 104.011 88.0422 101.284 88.0422 97.9264C88.0422 94.5683 92.7691 91.8418 98.5902 91.8418C104.411 91.8418 109.138 94.5683 109.138 97.9264Z" fill="#FFED0E"/>
<path d="M98.5918 103.144C93.7149 103.144 89.7483 100.804 89.7483 97.9262C89.7483 95.0489 93.7149 92.708 98.5918 92.708C103.469 92.708 107.435 95.0489 107.435 97.9262C107.435 100.804 103.469 103.144 98.5918 103.144ZM98.5918 93.2586C94.0186 93.2586 90.2982 95.3525 90.2982 97.9262C90.2982 100.5 94.0186 102.595 98.5918 102.595C103.165 102.595 106.885 100.5 106.885 97.9262C106.885 95.3525 103.165 93.2586 98.5918 93.2586Z" fill="#F2F2F2"/>
<path d="M102.004 100.252L101.083 99.6995C100.444 100.043 99.654 100.294 99.0719 100.36L98.4456 99.6731C99.0484 99.5845 99.7983 99.3893 100.398 99.0461C101.017 98.6917 101.145 98.2731 100.69 97.9997C100.262 97.7432 99.6436 97.7744 98.6597 98.0374C97.2665 98.4117 96.142 98.522 95.2582 97.9921C94.4413 97.5019 94.4045 96.7882 95.228 96.1179L94.2979 95.5598L95.1044 95.0979L95.9873 95.6277C96.625 95.2845 97.191 95.128 97.657 95.0385L98.2664 95.7144C97.9258 95.787 97.274 95.9039 96.6052 96.2857C95.9166 96.6798 96.0128 97.0258 96.3354 97.2191C96.725 97.4519 97.2966 97.3803 98.455 97.0956C99.9568 96.7043 100.96 96.7307 101.806 97.2379C102.612 97.7225 102.744 98.4814 101.833 99.2036L102.811 99.79L102.005 100.252H102.004Z" fill="#FFF6FB"/>
<path d="M109.138 97.0602C109.138 97.1092 109.127 97.1526 109.127 97.196V97.343H109.115C108.86 100.57 104.253 103.145 98.589 103.145C92.9254 103.145 88.3239 100.57 88.0683 97.343H88.0409V94.3064C88.0409 97.6645 92.7678 100.391 98.589 100.391C104.41 100.391 108.935 97.7786 109.126 94.5185V96.9291C109.126 96.9725 109.137 97.0159 109.137 97.0602H109.138Z" fill="#F1522D"/>
<path d="M109.138 94.3061C109.138 94.3769 109.138 94.4476 109.127 94.5183C108.936 97.7783 104.297 100.391 98.5902 100.391C92.8832 100.391 88.0422 97.6643 88.0422 94.3061C88.0422 90.948 92.7691 88.2216 98.5902 88.2216C104.411 88.2216 109.138 90.948 109.138 94.3061Z" fill="#FFED0E"/>
<path d="M98.5918 99.5243C93.7149 99.5243 89.7483 97.1834 89.7483 94.3061C89.7483 91.4288 93.7149 89.0879 98.5918 89.0879C103.469 89.0879 107.435 91.4288 107.435 94.3061C107.435 97.1834 103.469 99.5243 98.5918 99.5243ZM98.5918 89.6385C94.0186 89.6385 90.2982 91.7323 90.2982 94.3061C90.2982 96.8798 94.0186 98.9746 98.5918 98.9746C103.165 98.9746 106.885 96.8798 106.885 94.3061C106.885 91.7323 103.165 89.6385 98.5918 89.6385Z" fill="#F2F2F2"/>
<path d="M102.004 96.6318L101.083 96.0793C100.444 96.4225 99.654 96.6742 99.0719 96.7402L98.4456 96.0529C99.0484 95.9643 99.7983 95.7692 100.398 95.426C101.017 95.0715 101.145 94.6529 100.69 94.3795C100.262 94.1231 99.6436 94.1542 98.6597 94.4173C97.2665 94.7915 96.142 94.9018 95.2582 94.372C94.4413 93.8818 94.4045 93.1681 95.228 92.4978L94.2979 91.9397L95.1044 91.4777L95.9873 92.0076C96.625 91.6644 97.191 91.5079 97.657 91.4183L98.2664 92.0943C97.9258 92.1669 97.274 92.2838 96.6052 92.6656C95.9166 93.0597 96.0128 93.4057 96.3354 93.599C96.725 93.8318 97.2966 93.7602 98.455 93.4754C99.9568 93.0842 100.96 93.1106 101.806 93.6178C102.612 94.1024 102.744 94.8613 101.833 95.5834L102.811 96.1698L102.005 96.6318H102.004Z" fill="#FFF6FB"/>
<path d="M109.138 93.4401C109.138 93.4891 109.127 93.5325 109.127 93.5759V93.7229H109.115C108.86 96.95 104.253 99.5247 98.589 99.5247C92.9254 99.5247 88.3239 96.95 88.0683 93.7229H88.0409V90.6863C88.0409 94.0444 92.7678 96.7709 98.589 96.7709C104.41 96.7709 108.935 94.1585 109.126 90.8984V93.309C109.126 93.3524 109.137 93.3958 109.137 93.4401H109.138Z" fill="#F1522D"/>
<path d="M109.138 90.6861C109.138 90.7568 109.138 90.8276 109.127 90.8983C108.936 94.1583 104.297 96.7707 98.5902 96.7707C92.8832 96.7707 88.0422 94.0443 88.0422 90.6861C88.0422 87.328 92.7691 84.6016 98.5902 84.6016C104.411 84.6016 109.138 87.328 109.138 90.6861Z" fill="#FFED0E"/>
<path d="M98.5918 95.9044C93.7149 95.9044 89.7483 93.5635 89.7483 90.6862C89.7483 87.8089 93.7149 85.468 98.5918 85.468C103.469 85.468 107.435 87.8089 107.435 90.6862C107.435 93.5635 103.469 95.9044 98.5918 95.9044ZM98.5918 86.0186C94.0186 86.0186 90.2982 88.1124 90.2982 90.6862C90.2982 93.2599 94.0186 95.3547 98.5918 95.3547C103.165 95.3547 106.885 93.2599 106.885 90.6862C106.885 88.1124 103.165 86.0186 98.5918 86.0186Z" fill="#F2F2F2"/>
<path d="M102.004 93.0118L101.083 92.4593C100.444 92.8025 99.654 93.0542 99.0719 93.1202L98.4456 92.4329C99.0484 92.3443 99.7983 92.1492 100.398 91.806C101.017 91.4515 101.145 91.0329 100.69 90.7595C100.262 90.5031 99.6436 90.5342 98.6597 90.7972C97.2665 91.1715 96.142 91.2818 95.2582 90.752C94.4413 90.2618 94.4045 89.5481 95.228 88.8778L94.2979 88.3197L95.1044 87.8577L95.9873 88.3876C96.625 88.0444 97.191 87.8879 97.657 87.7983L98.2664 88.4743C97.9258 88.5469 97.274 88.6638 96.6052 89.0456C95.9166 89.4397 96.0128 89.7857 96.3354 89.9789C96.725 90.2118 97.2966 90.1401 98.455 89.8554C99.9568 89.4642 100.96 89.4906 101.806 89.9978C102.612 90.4824 102.744 91.2413 101.833 91.9635L102.811 92.5498L102.005 93.0118H102.004Z" fill="#FFF6FB"/>
<path d="M109.138 89.8194C109.138 89.8684 109.127 89.9117 109.127 89.9551V90.1022H109.115C108.86 93.3293 104.253 95.9039 98.589 95.9039C92.9254 95.9039 88.3239 93.3293 88.0683 90.1022H88.0409V87.0656C88.0409 90.4237 92.7678 93.1501 98.589 93.1501C104.41 93.1501 108.935 90.5377 109.126 87.2777V89.6883C109.126 89.7317 109.137 89.775 109.137 89.8194H109.138Z" fill="#F1522D"/>
<path d="M109.138 87.0657C109.138 87.1364 109.138 87.2071 109.127 87.2778C108.936 90.5379 104.297 93.1503 98.5902 93.1503C92.8832 93.1503 88.0422 90.4238 88.0422 87.0657C88.0422 83.7075 92.7691 80.9811 98.5902 80.9811C104.411 80.9811 109.138 83.7075 109.138 87.0657Z" fill="#FFED0E"/>
<path d="M98.5918 92.2835C93.7149 92.2835 89.7483 89.9427 89.7483 87.0654C89.7483 84.1881 93.7149 81.8472 98.5918 81.8472C103.469 81.8472 107.435 84.1881 107.435 87.0654C107.435 89.9427 103.469 92.2835 98.5918 92.2835ZM98.5918 82.3977C94.0186 82.3977 90.2982 84.4916 90.2982 87.0654C90.2982 89.6391 94.0186 91.7339 98.5918 91.7339C103.165 91.7339 106.885 89.6391 106.885 87.0654C106.885 84.4916 103.165 82.3977 98.5918 82.3977Z" fill="#F2F2F2"/>
<path d="M102.004 89.391L101.083 88.8385C100.444 89.1817 99.654 89.4334 99.0719 89.4994L98.4456 88.8121C99.0484 88.7235 99.7983 88.5283 100.398 88.1852C101.017 87.8307 101.145 87.4121 100.69 87.1387C100.262 86.8823 99.6436 86.9134 98.6597 87.1764C97.2665 87.5507 96.142 87.661 95.2582 87.1312C94.4413 86.6409 94.4045 85.9272 95.228 85.2569L94.2979 84.6988L95.1044 84.2369L95.9873 84.7667C96.625 84.4236 97.191 84.2671 97.657 84.1775L98.2664 84.8534C97.9258 84.926 97.274 85.0429 96.6052 85.4248C95.9166 85.8188 96.0128 86.1648 96.3354 86.3581C96.725 86.591 97.2966 86.5193 98.455 86.2346C99.9568 85.8433 100.96 85.8697 101.806 86.3769C102.612 86.8615 102.744 87.6205 101.833 88.3426L102.811 88.929L102.005 89.391H102.004Z" fill="#FFF6FB"/>
<path d="M109.138 86.1994C109.138 86.2484 109.127 86.2918 109.127 86.3351V86.4822H109.115C108.86 89.7093 104.253 92.2839 98.5889 92.2839C92.9253 92.2839 88.3239 89.7093 88.0682 86.4822H88.0409V83.4456C88.0409 86.8037 92.7678 89.5301 98.5889 89.5301C104.41 89.5301 108.935 86.9177 109.126 83.6577V86.0683C109.126 86.1117 109.137 86.1551 109.137 86.1994H109.138Z" fill="#F1522D"/>
<path d="M109.138 83.4453C109.138 83.516 109.138 83.5867 109.127 83.6574C108.936 86.9175 104.297 89.5299 98.5902 89.5299C92.8832 89.5299 88.0421 86.8034 88.0421 83.4453C88.0421 80.0872 92.769 77.3607 98.5902 77.3607C104.411 77.3607 109.138 80.0872 109.138 83.4453Z" fill="#FFED0E"/>
<path d="M98.5918 88.6635C93.7149 88.6635 89.7483 86.3227 89.7483 83.4454C89.7483 80.568 93.7149 78.2272 98.5918 78.2272C103.469 78.2272 107.435 80.568 107.435 83.4454C107.435 86.3227 103.469 88.6635 98.5918 88.6635ZM98.5918 78.7777C94.0186 78.7777 90.2982 80.8716 90.2982 83.4454C90.2982 86.0191 94.0186 88.1139 98.5918 88.1139C103.165 88.1139 106.885 86.0191 106.885 83.4454C106.885 80.8716 103.165 78.7777 98.5918 78.7777Z" fill="#F1522D"/>
<path d="M51.7773 107.489C51.7773 107.538 51.766 107.582 51.766 107.625V107.772H51.7547C51.499 110.999 46.8919 113.574 41.2283 113.574C35.5647 113.574 30.9633 110.999 30.7076 107.772H30.6803V104.735C30.6803 108.093 35.4072 110.82 41.2283 110.82C47.0495 110.82 51.5745 108.208 51.765 104.947V107.358C51.765 107.401 51.7764 107.445 51.7764 107.489H51.7773Z" fill="#F1522D"/>
<path d="M51.7776 104.735C51.7776 104.806 51.7776 104.877 51.7663 104.947C51.5757 108.208 46.9366 110.82 41.2296 110.82C35.5226 110.82 30.6815 108.093 30.6815 104.735C30.6815 101.377 35.4084 98.6508 41.2296 98.6508C47.0507 98.6508 51.7776 101.377 51.7776 104.735Z" fill="#FFED0E"/>
<path d="M41.2311 109.953C36.3542 109.953 32.3876 107.612 32.3876 104.735C32.3876 101.858 36.3542 99.517 41.2311 99.517C46.108 99.517 50.0746 101.858 50.0746 104.735C50.0746 107.612 46.108 109.953 41.2311 109.953ZM41.2311 100.068C36.658 100.068 32.9376 102.161 32.9376 104.735C32.9376 107.309 36.658 109.404 41.2311 109.404C45.8043 109.404 49.5247 107.309 49.5247 104.735C49.5247 102.161 45.8043 100.068 41.2311 100.068Z" fill="#F2F2F2"/>
<path d="M44.6431 107.062L43.7224 106.51C43.0829 106.853 42.2933 107.105 41.7113 107.171L41.085 106.483C41.6877 106.395 42.4377 106.199 43.0376 105.856C43.6564 105.502 43.7847 105.083 43.3291 104.81C42.9018 104.553 42.283 104.585 41.2991 104.848C39.9058 105.222 38.7805 105.332 37.8975 104.802C37.0806 104.312 37.0438 103.598 37.8673 102.928L36.9372 102.37L37.7438 101.908L38.6267 102.438C39.2644 102.095 39.8304 101.938 40.2964 101.849L40.9057 102.525C40.5652 102.597 39.9134 102.714 39.2446 103.096C38.556 103.49 38.6522 103.836 38.9748 104.029C39.3644 104.262 39.936 104.19 41.0944 103.906C42.5961 103.514 43.5998 103.541 44.445 104.048C45.2515 104.533 45.3836 105.292 44.4724 106.014L45.4506 106.6L44.644 107.062H44.6431Z" fill="#FFF6FB"/>
<path d="M51.7773 103.868C51.7773 103.917 51.766 103.961 51.766 104.004V104.151H51.7547C51.499 107.378 46.8919 109.953 41.2283 109.953C35.5647 109.953 30.9633 107.378 30.7076 104.151H30.6803V101.115C30.6803 104.473 35.4072 107.199 41.2283 107.199C47.0495 107.199 51.5745 104.587 51.765 101.327V103.737C51.765 103.781 51.7764 103.824 51.7764 103.868H51.7773Z" fill="#F1522D"/>
<path d="M51.7776 101.114C51.7776 101.185 51.7776 101.256 51.7662 101.327C51.5757 104.587 46.9365 107.199 41.2295 107.199C35.5225 107.199 30.6815 104.473 30.6815 101.114C30.6815 97.7564 35.4084 95.0299 41.2295 95.0299C47.0507 95.0299 51.7776 97.7564 51.7776 101.114Z" fill="#FFED0E"/>
<path d="M41.2311 106.333C36.3542 106.333 32.3876 103.992 32.3876 101.114C32.3876 98.2371 36.3542 95.8962 41.2311 95.8962C46.108 95.8962 50.0746 98.2371 50.0746 101.114C50.0746 103.992 46.108 106.333 41.2311 106.333ZM41.2311 96.4468C36.658 96.4468 32.9376 98.5407 32.9376 101.114C32.9376 103.688 36.658 105.783 41.2311 105.783C45.8043 105.783 49.5247 103.688 49.5247 101.114C49.5247 98.5407 45.8043 96.4468 41.2311 96.4468Z" fill="#F2F2F2"/>
<path d="M44.6431 103.441L43.7224 102.888C43.0829 103.231 42.2933 103.483 41.7113 103.549L41.085 102.862C41.6877 102.773 42.4377 102.578 43.0376 102.235C43.6564 101.88 43.7847 101.462 43.3291 101.189C42.9018 100.932 42.283 100.963 41.2991 101.226C39.9058 101.601 38.7805 101.711 37.8975 101.181C37.0806 100.691 37.0438 99.9771 37.8673 99.3068L36.9372 98.7486L37.7438 98.2867L38.6267 98.8165C39.2644 98.4734 39.8304 98.3169 40.2964 98.2273L40.9057 98.9032C40.5652 98.9758 39.9134 99.0927 39.2446 99.4746C38.556 99.8686 38.6522 100.215 38.9748 100.408C39.3644 100.641 39.936 100.569 41.0944 100.284C42.5961 99.8931 43.5998 99.9195 44.445 100.427C45.2515 100.911 45.3836 101.67 44.4724 102.392L45.4506 102.979L44.644 103.441H44.6431Z" fill="#FFF6FB"/>
<path d="M51.7773 100.249C51.7773 100.298 51.766 100.341 51.766 100.384V100.531H51.7547C51.499 103.758 46.8919 106.333 41.2283 106.333C35.5647 106.333 30.9633 103.758 30.7076 100.531H30.6803V97.4948C30.6803 100.853 35.4072 103.579 41.2283 103.579C47.0495 103.579 51.5745 100.967 51.765 97.7069V100.118C51.765 100.161 51.7764 100.204 51.7764 100.249H51.7773Z" fill="#F1522D"/>
<path d="M51.7776 97.4945C51.7776 97.5652 51.7776 97.6359 51.7663 97.7066C51.5757 100.967 46.9366 103.579 41.2296 103.579C35.5226 103.579 30.6815 100.853 30.6815 97.4945C30.6815 94.1364 35.4084 91.4099 41.2296 91.4099C47.0507 91.4099 51.7776 94.1364 51.7776 97.4945Z" fill="#FFED0E"/>
<path d="M41.2311 102.713C36.3542 102.713 32.3876 100.372 32.3876 97.4944C32.3876 94.6171 36.3542 92.2762 41.2311 92.2762C46.108 92.2762 50.0746 94.6171 50.0746 97.4944C50.0746 100.372 46.108 102.713 41.2311 102.713ZM41.2311 92.8268C36.658 92.8268 32.9376 94.9207 32.9376 97.4944C32.9376 100.068 36.658 102.163 41.2311 102.163C45.8043 102.163 49.5247 100.068 49.5247 97.4944C49.5247 94.9207 45.8043 92.8268 41.2311 92.8268Z" fill="#F2F2F2"/>
<path d="M44.6431 99.82L43.7224 99.2676C43.0829 99.6108 42.2933 99.8625 41.7113 99.9285L41.085 99.2412C41.6877 99.1526 42.4377 98.9574 43.0376 98.6142C43.6564 98.2598 43.7847 97.8412 43.3291 97.5678C42.9018 97.3114 42.283 97.3425 41.2991 97.6055C39.9058 97.9798 38.7805 98.0901 37.8975 97.5602C37.0806 97.07 37.0438 96.3564 37.8673 95.686L36.9372 95.1279L37.7438 94.666L38.6267 95.1958C39.2644 94.8526 39.8304 94.6961 40.2964 94.6066L40.9057 95.2825C40.5652 95.3551 39.9134 95.472 39.2446 95.8538C38.556 96.2479 38.6522 96.5939 38.9748 96.7872C39.3644 97.02 39.936 96.9484 41.0944 96.6637C42.5961 96.2724 43.5998 96.2988 44.445 96.806C45.2515 97.2906 45.3836 98.0495 44.4724 98.7717L45.4506 99.3581L44.644 99.82H44.6431Z" fill="#FFF6FB"/>
<path d="M51.7773 96.6278C51.7773 96.6769 51.766 96.7202 51.766 96.7636V96.9107H51.7547C51.499 100.138 46.8919 102.712 41.2283 102.712C35.5647 102.712 30.9633 100.138 30.7076 96.9107H30.6803V93.874C30.6803 97.2321 35.4072 99.9586 41.2283 99.9586C47.0495 99.9586 51.5745 97.3462 51.765 94.0861V96.4968C51.765 96.5402 51.7764 96.5835 51.7764 96.6278H51.7773Z" fill="#F1522D"/>
<path d="M51.7776 93.8745C51.7776 93.9452 51.7776 94.0159 51.7663 94.0866C51.5758 97.3467 46.9366 99.9591 41.2296 99.9591C35.5226 99.9591 30.6815 97.2326 30.6815 93.8745C30.6815 90.5164 35.4085 87.7899 41.2296 87.7899C47.0507 87.7899 51.7776 90.5164 51.7776 93.8745Z" fill="#FFED0E"/>
<path d="M41.2311 99.0925C36.3542 99.0925 32.3876 96.7516 32.3876 93.8743C32.3876 90.997 36.3542 88.6561 41.2311 88.6561C46.108 88.6561 50.0746 90.997 50.0746 93.8743C50.0746 96.7516 46.108 99.0925 41.2311 99.0925ZM41.2311 89.2067C36.658 89.2067 32.9376 91.3006 32.9376 93.8743C32.9376 96.448 36.658 98.5429 41.2311 98.5429C45.8043 98.5429 49.5247 96.448 49.5247 93.8743C49.5247 91.3006 45.8043 89.2067 41.2311 89.2067Z" fill="#F1522D"/>
<path d="M62.6539 81.351C62.6539 81.351 62.2293 82.9295 62.2817 83.8427C62.335 84.7558 62.5526 84.9735 62.8289 85.2817C63.1052 85.5899 63.4294 85.4567 63.4294 85.4567C63.4294 85.4567 63.5564 87.3399 64.4492 88.1012C65.3419 88.8624 66.9613 88.9344 67.7048 88.6581C68.4483 88.3819 67.9597 87.0334 67.2313 85.7108C66.5038 84.3881 65.5755 82.9659 65.3437 81.7711C63.5635 81.526 62.6539 81.351 62.6539 81.351Z" fill="#C63B1B"/>
<path d="M71.2482 77.2091C71.2482 77.2091 71.1673 77.8869 70.955 78.5949C70.7427 79.3038 71.0039 80.2915 71.0039 80.2915C71.0039 80.2915 71.1576 80.7268 71.814 80.8556C72.4252 80.9755 72.9199 80.829 72.9199 80.829C72.9199 80.829 73.5213 81.5556 74.3066 82.1117C75.0927 82.6678 76.8258 83.0995 77.2975 83.0275C78.0579 82.9111 78.4656 82.3187 78.4079 81.9358C78.3493 81.5538 77.4529 80.4941 76.7183 80.0348C76.2404 79.7364 75.154 78.729 74.8289 78.3782C74.2897 77.7972 73.8917 77.1567 73.8917 77.1567L71.2482 77.2091Z" fill="#C63B1B"/>
<path d="M75.9597 69.0692C76.4492 66.1929 77.0186 66.3866 77.0061 63.7128C76.9999 62.3999 76.53 59.3947 75.5804 53.158C75.0865 49.9183 74.3164 49.3756 73.2966 47.3334C73.1909 47.1229 69.9113 48.8035 68.4154 49.5959C68.2804 49.6678 66.9754 53.1207 67.5466 55.8176C67.766 56.8515 71.1576 63.8496 72.3248 65.1465C69.4103 68.0237 70.12 70.6753 71.0039 77.8252C71.7492 78.8263 73.1003 78.7304 74.4532 77.9407C74.4523 76.4714 75.631 71.0013 75.9597 69.0692Z" fill="#9C85FF"/>
<path d="M70.2106 55.6988C72.0441 53.4559 71.6665 51.753 70.7862 49.0845C70.7383 48.9388 63.1149 47.9182 63.0216 48.0816C60.1302 53.1494 60.521 61.2694 62.629 66.2305C61.6456 68.6325 62.1164 69.0287 61.3818 72.1981C60.7485 74.9314 61.0895 77.9357 61.2485 81.3512C62.2932 82.0654 65.2726 82.4509 65.794 81.162C67.5884 76.8786 68.9652 72.5739 67.7456 67.992C68.2964 66.5512 70.065 59.3373 70.2106 55.6988Z" fill="#BFB0FE"/>
<path d="M71.5111 28.4683C71.727 28.0926 72.101 28.0144 72.4829 28.0615C73.9024 28.2374 74.3759 28.1175 75.4916 29.4321C76.4892 30.6083 77.2211 31.5365 77.2735 32.8681C80.5052 37.1479 80.6944 38.5141 80.4821 39.9852C80.4146 40.4515 77.5667 41.1577 77.031 40.8317C76.4652 40.4862 75.2429 36.9632 74.7783 36.4924C74.3946 36.1042 72.2689 33.9092 72.0566 32.8548C71.8807 31.9825 71.6994 31.1119 71.5369 30.237C71.4418 29.7217 71.2171 28.9791 71.5111 28.4683Z" fill="#03B073"/>
<path d="M71.7199 29.0441C69.8696 28.2695 67.6675 29.2707 67.7483 29.1801C67.8043 29.1179 65.1802 30.636 65.1767 30.6458C63.3041 31.344 61.3827 31.8503 60.2803 34.3677C59.7438 35.5927 61.675 38.2159 62.4807 41.7691C62.8431 43.3671 62.8804 45.6465 62.2897 46.708C61.8766 47.4506 60.9652 48.5628 63.6381 49.4031C64.4154 49.6474 68.0281 51.0438 70.1343 50.653C71.1087 50.4718 75.7936 47.8761 74.3644 46.8839C73.9859 46.621 73.6759 46.0995 73.9478 45.619C74.176 45.2166 74.5873 44.4828 74.4132 43.6851C73.9859 41.7247 74.3333 40.9536 74.622 39.4204C75.9775 38.0009 74.7801 35.8619 73.9486 33.5754C73.3864 32.0217 73.6182 29.8383 71.7199 29.0441Z" fill="white"/>
<path d="M71.2766 28.6356C71.2766 28.6089 71.2784 28.5787 71.2793 28.5503C70.1814 28.7182 68.7334 28.0884 67.7829 27.4248C67.2722 28.672 67.1478 29.1463 66.375 30.4051C66.7889 30.4255 67.6053 31.5625 68.283 32.7582C68.5708 33.2654 69.8127 34.5783 70.5935 34.2754C71.7972 33.8081 71.1949 32.8443 71.2304 31.4888C71.2562 30.5383 71.2748 29.5852 71.2766 28.6356Z" fill="#F39B80"/>
<path d="M72.148 38.4507C71.9437 37.3599 71.631 36.341 71.4099 35.6864C71.3619 35.546 71.7758 34.2793 71.7758 34.2793L70.59 33.8112L69.8979 34.6435C69.8979 34.6435 70.2915 35.5691 70.7489 35.8116C70.7241 37.0224 70.6806 39.2387 70.6539 41.2489C70.6122 44.4592 70.6539 46.7679 70.6539 46.7679C70.6539 46.7679 71.4098 47.8383 72.1764 48.3411C72.7085 47.3871 72.9164 46.1736 72.9164 46.1736C72.9164 46.1736 72.4918 40.2886 72.148 38.4507Z" fill="#C63B1B"/>
<path d="M65.4449 30.428C65.4449 30.428 67.4258 31.2816 68.2555 31.9692C69.3667 32.8894 69.8971 33.1373 70.4505 33.6685C70.5029 33.5362 70.653 31.0374 70.653 31.0374C70.653 31.0374 71.5795 31.1537 71.5715 31.1706C71.5635 31.1875 72.1018 31.6823 72.3124 32.6754C72.5229 33.6685 72.148 34.8712 72.148 34.8712L70.6077 33.9305L69.5533 35.812C69.5533 35.812 67.496 34.0505 66.5579 32.9765C65.619 31.9025 65.4449 30.428 65.4449 30.428Z" fill="white"/>
<path d="M71.4099 29.037C71.4099 29.037 73.2007 28.9233 74.0543 30.8722C74.9089 32.8212 75.552 35.3626 75.5795 38.3811C75.5991 40.5832 75.1167 43.4604 75.4889 45.0273C75.8096 46.3758 77.596 51.3396 77.596 51.3396C77.596 51.3396 77.4592 53.3765 76.8001 54.1813C75.9491 55.2197 75.0235 55.1309 75.0235 55.1309C75.0235 55.1309 73.9157 48.9767 73.8038 48.0067C73.6919 47.0367 73.3277 41.9112 73.4281 40.3904C73.5284 38.8696 72.657 33.8019 72.3133 32.6764C71.9695 31.5509 69.8979 29.2449 69.8979 29.2449L71.4099 29.037Z" fill="#04C984"/>
<path d="M71.0563 30.6413C71.0563 30.6413 71.6648 31.4204 72.1533 32.5974C72.6419 33.7744 72.7983 36.3594 72.9377 37.8686C73.0772 39.3778 73.4023 40.8941 73.4023 40.8941C73.4023 40.8941 73.9726 39.2525 74.0765 38.1377C74.1813 37.0229 74.3244 36.1648 74.3244 36.1648L73.5453 35.5554L74.2666 33.8126C74.2666 33.8126 72.363 29.666 71.5591 29.4253C70.7552 29.1828 71.0563 30.6413 71.0563 30.6413Z" fill="#038F5E"/>
<path d="M66.2861 29.913C66.2861 29.913 68.554 32.8959 69.2211 37.0221C69.8882 41.1482 69.4671 45.3978 69.2211 48.3452C68.9111 52.0636 68.6348 57.3526 68.6348 57.3526C68.6348 57.3526 64.9395 57.9629 62.868 57.524C60.6534 57.055 59.8744 54.8876 59.8744 54.8876C59.8744 54.8876 59.8744 50.3661 61.7558 44.88C62.3741 43.0785 61.9814 39.1682 61.2495 36.9181C60.8142 35.5795 61.4467 32.9083 62.5713 31.6905C63.3379 30.8608 65.2113 30.5028 66.2861 29.913Z" fill="#04C984"/>
<path d="M66.9879 29.3159C66.9879 29.3159 65.6928 29.3968 65.2006 30.3828C65.4307 30.8918 65.9735 31.5713 66.2186 32.8416C66.4629 34.1119 66.3768 35.5332 66.3768 35.5332L67.838 36.186L66.9843 37.6926L69.5178 40.9705C69.5178 40.9705 69.8971 36.6524 68.8978 33.5327C67.8975 30.4121 66.9879 29.3159 66.9879 29.3159Z" fill="#038F5E"/>
<path d="M73.5 23.997C72.4909 22.7578 70.2844 22.4744 68.8897 23.3192C68.5548 23.4187 68.2475 23.5679 67.9961 23.7909C67.0874 24.5984 67.1869 26.0454 67.4587 27.1132C67.8682 28.7236 70.1591 32.4252 72.2768 31.0412C73.4032 30.3048 74.1351 28.4767 74.3163 27.1975C74.4789 26.0587 74.2355 24.8995 73.5 23.997Z" fill="#FFC9B6"/>
<path d="M74.9631 21.6231C74.2569 20.6726 72.4518 19.5356 71.2668 20.1974C70.8591 20.4248 70.6281 20.892 70.6539 21.313C69.5062 21.1034 67.4382 21.8487 66.9248 22.8347C66.0525 24.5109 66.6601 27.3802 67.4249 28.2418C68.2244 27.5454 69.4582 26.0646 69.7842 24.6442C71.1025 25.2775 72.904 25.345 74.1991 24.5998C75.2855 23.9753 75.743 22.6721 74.9631 21.6231Z" fill="#C63B1B"/>
<path d="M69.4094 26.3197C69.4094 26.3197 68.7663 25.2528 68.1747 26.0328C67.2766 27.2151 68.5921 27.7943 68.5921 27.7943L69.4094 26.3197Z" fill="#FFC9B6"/>
<path d="M74.6539 32.0014C74.6059 31.7794 74.3706 30.5313 74.1973 29.7123C74.1272 29.3801 74.3244 28.9173 74.3306 28.8062C74.3439 28.5779 74.1298 28.4305 73.874 28.6686C73.6226 28.9022 73.5311 29.3703 73.341 29.7887C73.1509 30.2071 72.9795 31.0261 71.0847 30.3599C70.4594 30.1396 69.5844 30.4141 69.3072 30.7001C68.9635 31.0554 69.3001 31.6079 69.7025 31.806C70.2799 32.0894 72.6757 32.9093 73.5302 33.7185C73.8198 33.993 75.4898 33.7185 75.4898 33.7185C75.4898 33.7185 74.7685 32.5362 74.6539 32.0014Z" fill="#FFC9B6"/>
<path d="M73.643 29.3425C73.643 29.3425 73.5684 30.4334 73.0363 30.6261C72.5042 30.8189 71.3965 30.2202 70.5739 30.2202C70.3803 30.2202 69.5302 30.4138 69.3081 30.6999C69.3081 30.6999 69.4307 30.1402 70.5588 30.0212C71.4773 29.9244 72.4482 30.4503 72.8844 30.2833C73.3206 30.1163 73.643 29.3425 73.643 29.3425Z" fill="#F39B80"/>
<path d="M74.8413 31.6379C74.8671 31.7188 72.6623 33.292 72.6623 33.292C72.6623 33.292 73.0754 34.286 73.643 36.2322C74.2106 38.1785 74.931 40.5503 76.053 41.6917C77.174 42.8332 79.5848 43.1565 80.0947 41.5922C80.5886 40.075 80.9795 38.1287 79.4436 36.5032C77.9068 34.8776 74.8413 31.6379 74.8413 31.6379Z" fill="#038F5E"/>
<path d="M63.5359 46.2479C63.5359 46.2479 65.1935 47.5466 65.6581 48.1995C66.1218 48.8533 65.8819 49.9069 65.7993 51.1585C65.7167 52.4101 64.5273 52.0876 63.5644 51.9659C62.6014 51.8442 62.3749 51.3797 62.9408 51.1585C63.5075 50.9373 64.2555 51.1585 64.2555 51.1585C64.2555 51.1585 62.7249 50.3075 62.6352 48.7529C62.5446 47.1993 63.5359 46.2479 63.5359 46.2479Z" fill="#FFC9B6"/>
<path d="M55.5243 42.6583C56.1088 41.3409 56.3673 40.9349 57.3356 39.3476C58.3038 37.7602 58.5561 37.205 59.7589 35.6602C60.1791 32.9296 61.4813 31.2756 63.2375 31.1938C64.3043 32.0075 65.0967 37.9218 64.052 39.7349C63.2153 41.1863 62.788 41.5923 61.929 42.088C61.7078 42.6592 61.1748 43.1228 60.8391 43.6016C61.4493 44.0369 62.1582 44.5477 62.716 44.9625C63.9463 45.8801 64.7272 47.0918 64.7272 47.0918C64.7272 47.0918 64.3683 47.766 63.8149 48.3416C63.2615 48.9172 62.7631 49.4014 62.7631 49.4014C62.7631 49.4014 58.8342 48.259 57.6785 47.3165C57.0967 46.8422 56.4242 46.0622 56.1524 45.2512C55.9436 44.6259 55.217 43.3503 55.5243 42.6583Z" fill="#03B073"/>
</svg>
