<svg width="128" height="128" viewBox="0 0 128 128" fill="none" xmlns="http://www.w3.org/2000/svg">
<path d="M90.8586 100.646V117.234C83.5429 120.963 74.4305 122.884 65.267 122.995C54.7231 123.124 44.1007 120.866 36.0568 116.219C35.81 116.076 35.5693 115.932 35.3349 115.789C34.6254 115.359 33.9483 114.917 33.3037 114.461C33.0954 114.311 32.881 114.155 32.679 114.006C32.3598 113.765 32.048 113.524 31.7475 113.276C31.5655 113.139 31.3959 112.997 31.2276 112.847C30.9408 112.607 30.6614 112.358 30.3884 112.112C30.2063 111.942 30.0368 111.78 29.8672 111.617C28.1814 109.969 26.8858 108.232 25.9681 106.448C25.7013 105.914 25.4606 105.375 25.2524 104.835C24.4456 102.694 24.1713 100.519 24.4132 98.3582C24.4007 98.3519 24.3159 98.3133 24.3159 98.3133V76.718L37.7501 76.7243L43.3026 80.1869C44.5196 79.7568 45.7566 79.3602 47.0184 79.0086C55.0897 76.7691 64.1884 76.1769 72.7995 77.2318C72.9429 77.2517 73.0863 77.2642 73.2222 77.2904C74.0352 77.3951 74.8495 77.5123 75.6562 77.6482C75.7609 77.6682 75.8706 77.6806 75.9754 77.7068C76.4766 77.7916 76.9779 77.8826 77.4792 77.9861C77.5901 78.0061 77.7074 78.0248 77.8171 78.051C78.3184 78.1545 78.8196 78.2655 79.3147 78.3764C79.4256 78.4026 79.5428 78.4288 79.6526 78.4612C80.2 78.5847 80.7399 78.7218 81.2735 78.8652C81.5666 78.9438 81.8658 79.0273 82.1589 79.1121C82.7512 79.2817 83.331 79.4575 83.9033 79.6395C84.5542 79.8478 85.1988 80.0697 85.836 80.3104C86.2462 80.4538 86.649 80.6096 87.0467 80.7655C89.0518 81.5598 90.9521 82.4713 92.7352 83.4987C99.6854 87.5088 104.33 97.8669 104.33 97.8669L90.8586 100.646Z" fill="#C63B1B"/>
<path d="M64.3941 79.0211L90.8585 94.095C75.1138 102.108 51.097 101.769 36.0568 93.08C20.4031 84.0462 20.4031 69.395 36.0568 60.3611C51.7105 51.321 77.0801 51.321 92.7338 60.3611C100.563 64.8774 104.476 70.8015 104.477 76.7206L64.3941 79.0211Z" fill="#F1522D"/>
<path d="M90.8586 100.646V94.0951L64.3942 79.0213L104.476 76.7207V97.8683L90.8586 100.646Z" fill="#FF6845"/>
<path d="M64.3941 56.8362C54.253 56.8362 44.7665 59.0881 37.6828 63.1805C35.4671 64.4586 33.5992 65.8613 32.0854 67.3464L27.5703 62.2989V76.7207C27.5703 81.6896 31.1615 86.4977 37.6828 90.2634C38.8424 90.933 40.0669 91.5539 41.3474 92.1238L91.1041 63.1805C84.0217 59.0881 74.5352 56.8362 64.3941 56.8362Z" fill="#FF6845"/>
<path d="M41.3487 77.7007C40.0681 77.1308 38.8436 76.5111 37.684 75.8403C31.1614 72.0758 27.5703 67.2665 27.5716 62.2976C27.5716 57.3286 31.1627 52.5206 37.684 48.7562C44.7677 44.665 54.2542 42.4119 64.3953 42.4119C74.5364 42.4119 84.0229 44.665 91.1066 48.7562L41.3487 77.7007Z" fill="#FFED0E"/>
<path d="M31.8822 33.4379C33.4296 31.4304 35.714 29.5288 38.6592 27.8281C42.0545 25.8667 46.0384 24.3454 50.3976 23.3155C54.7568 22.2855 59.4925 21.7456 64.3954 21.7456C68.59 21.7456 72.6624 22.1409 76.4817 22.9002C80.301 23.6596 83.8659 24.7831 87.0468 26.2395L64.146 39.5602L31.8822 33.4379Z" fill="#06D78E"/>
<path d="M41.3487 77.7008V92.1226L91.1054 63.1806V48.7576L41.3487 77.7008Z" fill="#FBBC04"/>
<path d="M87.0443 26.2407V48.8609L64.1436 62.1817V39.5627L87.0443 26.2407Z" fill="#08EC9C"/>
<path d="M31.8822 33.4377V56.0579L64.1436 62.1815V39.5626L31.8822 33.4377Z" fill="#038F5E"/>
<path d="M61.3342 49.6177C60.8947 48.4497 68.4993 47.5603 68.4993 47.5603C68.4993 47.5603 68.5159 53.2326 68.7216 55.621C69.0327 59.2254 68.9617 60.9499 67.922 65.7861C67.4606 67.9312 66.8823 76.0587 67.0368 78.922C67.2633 83.1142 69.1966 85.0954 69.8521 86.1309C70.5066 87.1664 68.0107 88.1456 66.4324 86.6351C64.8541 85.1246 64.6892 84.8292 63.7977 84.3564C62.9063 83.8824 63.2069 82.7509 63.2716 80.3845C63.3217 78.5546 62.5284 72.4574 62.2236 68.5481C61.7924 63 63.0096 62.8789 62.9251 60.0741C62.7664 54.7953 61.6202 50.3808 61.3342 49.6177Z" fill="#F9BBB7"/>
<path d="M62.543 81.5964C62.5451 81.5859 62.5483 81.5765 62.5514 81.5661C62.5775 81.4711 62.5994 81.42 62.5994 81.42L62.6015 81.4231C62.8082 80.8667 63.2727 80.3855 63.2727 80.3855C63.2727 80.3855 63.6464 83.7415 65.6204 85.1257C67.8219 86.6706 68.8062 86.9023 69.8532 86.1319C69.8532 86.1319 70.3814 86.9148 71.5985 88.2666C72.2489 88.989 71.7029 89.7134 69.7833 89.5756C68.7697 89.5026 67.3177 88.9848 66.516 87.9597C65.6725 86.8825 65.0212 85.7207 64.2331 85.016C64.1109 84.9064 64.0055 84.8104 63.899 84.7123V84.7133C63.8406 85.6017 63.8688 86.1695 63.8249 86.8136C63.6402 87.1079 63.3531 87.037 63.1297 86.8136C63.0013 86.1048 63.1683 85.4534 62.7706 84.1465C62.3468 82.7592 62.4574 81.9325 62.543 81.5964Z" fill="#2A0B88"/>
<path d="M61.2403 59.9699C61.2403 59.9699 60.1609 67.9074 59.6108 70.778C59.0607 73.6486 57.5795 82.9139 57.7622 85.2918C57.8864 86.9109 58.5273 89.0988 58.9271 90.4537C59.3259 91.8034 58.7893 92.7909 57.8791 93.0707C56.2329 93.5769 54.1191 87.9662 54.2412 85.3764C54.4249 81.5026 53.2214 70.9471 53.6086 68.5828C53.9949 66.2184 54.8091 64.7915 55.0523 63.4908C55.2611 62.376 54.3362 57.593 54.3362 57.593L61.2403 59.9699Z" fill="#FFC5B3"/>
<path d="M53.76 86.7847C53.76 86.7847 53.9103 88.3839 53.9531 89.1855C53.9959 89.9872 54.0961 90.6824 54.0961 90.6824C54.0961 90.6824 54.7443 91.2012 54.9135 90.4841C54.7986 88.173 53.76 86.7847 53.76 86.7847Z" fill="#4F4FAA"/>
<path d="M58.9229 90.3192C58.9229 90.3192 59.2361 91.2295 59.6495 93.1032C59.829 93.9132 59.6891 94.9612 58.8509 95.0834C56.7089 95.3934 56.0669 93.98 55.641 93.1032C55.1024 91.9957 54.5408 89.0478 54.0324 87.5561C53.1671 85.7899 54.2548 84.9893 54.2548 84.9893C54.2548 84.9893 54.3132 87.2847 55.0711 89.0603C56.0847 91.4351 56.8801 91.9445 57.9208 91.9737C59.0618 92.004 58.9229 90.3192 58.9229 90.3192Z" fill="#2A0B88"/>
<path d="M68.8793 58.3643C66.0911 60.2432 62.0817 62.523 58.9866 62.0825C56.2934 61.6994 55.546 61.2077 54.3362 60.4958C53.5857 56.9498 53.6097 53.5406 53.2976 49.5008C53.046 46.2388 54.1546 39.9318 55.3393 38.365C55.3477 38.3535 57.9302 37.2699 59.3843 37.247C62.0618 37.2042 65.0546 37.9234 67.5891 36.8848C67.7362 36.8242 67.8427 36.9077 67.8845 37.0246C67.9293 37.0226 67.9732 37.0403 67.9888 37.1008C69.206 41.651 69.5369 51.1877 68.8793 58.3643Z" fill="#3F13C2"/>
<path d="M76.3011 19.6768C74.0933 17.944 68.1339 13.8949 64.7988 12.8991C62.9564 12.3489 62.9491 13.1694 62.0566 14.7488C59.5472 19.1883 68.8187 23.5819 73.2019 24.1581C74.2875 24.3011 79.7083 22.3522 76.3011 19.6768Z" fill="#6634FA"/>
<path d="M67.2727 32.0757C67.3218 33.0068 67.6632 35.7731 67.9888 37.1029C66.2988 41.1646 57.473 39.9736 54.8456 38.8963C55.188 36.8816 56.0565 31.4254 55.9584 29.5203C55.9584 29.5203 51.5898 24.6862 52.8278 19.755C53.2026 18.2613 56.7465 16.6475 56.7465 16.6475L61.7017 13.9282C61.7017 13.9282 62.0597 13.8384 62.5764 13.7466C63.3541 14.6067 64.8802 16.8917 65.7091 17.8385C66.5087 18.7519 68.8594 21.9179 68.1412 24.9096C67.5285 27.4598 67.207 30.8158 67.2727 32.0757Z" fill="white"/>
<path d="M62.9972 15.1204C62.9972 15.1204 65.2686 18.54 65.7936 20.0923C64.8249 20.7301 62.9303 22.3105 62.9303 22.3105L61.6767 15.8051L62.9972 15.1204Z" fill="#DDCCD3"/>
<path d="M63.0859 18.49C62.161 18.5568 61.3458 18.6653 60.3938 18.0411C59.4992 17.4555 58.923 16.6632 58.2789 15.9075C58.2361 15.7707 58.1829 15.6444 58.1484 15.4993C58.2799 14.4168 58.2914 12.4732 57.7267 10.0545C59.3509 9.32698 62.3667 13.7978 62.3667 13.7978C62.3667 13.7978 62.3322 16.3689 62.7873 17.7394C62.8907 17.9023 62.994 18.1674 63.0859 18.49Z" fill="#F9BBB7"/>
<path d="M54.4594 30.3138C53.6003 24.5903 52.807 19.6977 52.9323 19.4806C53.7538 18.0536 57.5305 15.3375 57.5305 15.3375H58.6975C58.6975 15.3375 60.2925 22.4535 60.4146 22.6017C60.422 22.6007 64.4356 27.5423 64.4429 27.5413C64.4241 27.2563 65.3365 21.7124 64.4429 19.277C64.1621 18.5108 62.066 13.4596 62.066 13.4596C62.066 13.4596 62.4241 13.3698 62.9419 13.278C63.7195 14.1381 65.3438 16.3479 66.0755 17.372C67.3208 19.1142 69.2269 21.4535 68.5088 24.4452C67.896 26.9974 67.4962 28.7511 67.4419 30.0121C67.252 34.4453 69.0338 41.5394 69.0338 41.5394C69.0338 41.5394 67.49 43.8098 64.6976 44.6199C64.4826 43.6908 64.1913 42.8046 64.1913 42.8046C64.1913 42.8046 63.8813 43.9257 63.6746 44.885C58.5336 45.6898 54.1734 43.9466 53.0878 42.0979C53.0878 42.0979 55.14 34.8431 54.4594 30.3138Z" fill="#6634FA"/>
<path d="M64.444 32.4506C63.8584 30.9412 62.9387 27.2407 62.4178 25.7052V20.2479L63.0066 19.942C63.0066 19.942 63.9523 21.2333 64.6955 23.8106C64.7592 24.0277 65.0035 30.0288 64.444 32.4506Z" fill="#F1522D"/>
<path d="M63.6496 14.8313C64.588 16.0954 66.3615 18.5046 66.3615 18.5046L65.6653 19.4806C65.6653 19.4806 66.2352 19.7917 66.7352 20.4639C66.7352 22.8669 64.445 32.4506 64.445 32.4506C64.445 32.4506 65.2435 21.5443 62.6475 17.347C62.4178 13.611 63.2112 14.7801 63.6496 14.8313Z" fill="#2A0B88"/>
<path d="M63.0755 18.491C63.0755 18.491 63.2926 19.3271 63.2081 19.9044C63.1235 20.4816 62.7498 20.6726 62.1684 20.2102C61.5869 19.7478 61.3416 19.0745 61.3416 19.0745C61.3416 19.0745 61.9992 17.9847 63.0755 18.491Z" fill="#F1522D"/>
<path d="M62.9449 15.3375C62.9449 15.3375 63.5441 15.7665 63.994 17.8741C64.2894 19.2572 63.7226 20.1319 63.7226 20.1319L62.1526 18.3574C62.1526 18.3574 62.7748 17.1684 62.3802 15.3375C62.2268 14.6245 62.9449 15.3375 62.9449 15.3375Z" fill="#BFB0FE"/>
<path d="M57.9146 14.8291C57.9146 14.8291 57.7549 16.5525 59.8562 18.8991C63.0827 22.5004 64.4439 32.4494 64.4439 32.4494L58.7831 22.6831L59.5012 21.1204L57.8467 21.0192C57.8467 21.0192 56.378 18.8981 56.3884 16.54C56.3937 15.3208 57.9146 14.8291 57.9146 14.8291Z" fill="#2A0B88"/>
<path d="M61.5608 21.1789C61.9627 20.134 62.1516 18.3573 62.1516 18.3573C62.1516 18.3573 59.28 17.0306 57.9814 15.5358C57.7935 17.3469 59.2111 20.3156 61.5608 21.1789Z" fill="#BFB0FE"/>
<path d="M64.921 3.35608C64.921 3.35608 67.5233 4.87072 66.6861 11.2675C66.3406 13.9064 64.6663 15.4294 64.6663 15.4294C64.6663 15.4294 63.2132 13.2101 61.898 11.9731C60.5817 10.7351 64.921 3.35608 64.921 3.35608Z" fill="#7C1A13"/>
<path d="M58.1495 4.53665C59.6975 3.09717 63.6224 2.29653 65.4732 6.25172C67.4148 10.3979 64.0557 16.1475 61.8938 15.4398C60.683 15.0431 58.0649 13.47 57.1557 11.2758C56.1307 8.80604 56.9459 5.65462 58.1495 4.53665Z" fill="#FFC5B3"/>
<path d="M62.0702 6.63484C62.0702 6.63484 62.6057 8.74448 60.8363 11.8562C59.8781 13.5421 59.4929 14.9888 59.4365 16.5766C58.3102 16.1089 56.3717 16.2477 55.1431 13.7456C54.5408 9.97414 54.9062 6.27993 56.164 4.0586C57.2778 2.09092 60.0075 2.64521 60.0075 2.64521C60.0075 2.64521 63.3249 0.174393 66.0556 4.90308C67.2874 7.03673 66.5661 8.74553 66.0556 9.54095C64.8187 6.8885 62.0702 6.63484 62.0702 6.63484Z" fill="#7C1A13"/>
<path d="M52.0074 38.4497L63.2278 44.9289L63.2884 35.2826L52.068 28.8044L52.0074 38.4497Z" fill="#EA4E98"/>
<path d="M51.0481 38.9841L62.2685 45.4623L62.3301 35.8171L51.1097 29.3389L51.0481 38.9841Z" fill="#F1522D"/>
<path d="M62.3301 35.8169L63.2884 35.2825L63.2278 44.9288L62.2685 45.4622L62.3301 35.8169Z" fill="#EA4E98"/>
<path d="M63.2884 35.2826L62.3301 35.8171L51.0481 29.2731L52.068 28.8044L63.2884 35.2826Z" fill="#FF8AC2"/>
<path d="M52.378 29.5267L52.3853 28.3837L63.6068 34.8608L63.5452 44.5071L62.756 44.0509L62.8092 35.5487L52.378 29.5267Z" fill="white"/>
<path d="M56.3874 42.1772L61.2361 44.9769C61.2361 44.9769 59.8697 46.4153 57.9647 46.0354C56.0596 45.6554 55.4124 43.9362 55.4124 43.9362L56.3874 42.1772Z" fill="#FFC5B3"/>
<path d="M48.6503 28.2334C49.5365 22.7823 52.2005 17.3772 54.4134 18.3564C56.3874 19.2301 56.7496 22.3356 56.1212 25.2469C55.616 27.5872 54.4187 30.0382 53.2621 33.4318C53.2621 34.3431 54.2663 36.9433 54.8592 38.3087C56.1233 41.2221 57.4365 42.7827 57.4365 42.7827L55.2371 45.5729C55.2371 45.5729 52.0449 42.5718 50.6284 40.4538C48.9582 37.958 48 35.9131 48 33.4318C48 31.4975 48.3643 29.9923 48.6503 28.2334Z" fill="#6634FA"/>
<path d="M73.1873 20.4691C73.1873 20.4691 73.4368 18.4075 75.014 18.7154C77.4118 19.1841 81.3409 19.8376 82.9797 20.3146C84.6186 20.7917 86.3483 21.4775 86.3483 21.4775C86.3483 21.4775 85.3305 22.8543 85.9443 24.9723C83.6968 25.4108 79.0036 25.6905 76.5454 25.2041C73.7896 24.6602 70.9837 23.6393 70.9837 23.6393L73.1873 20.4691Z" fill="#6634FA"/>
<path d="M86.3483 21.4776C86.3483 21.4776 89.9131 21.465 91.126 21.3753C92.339 21.2865 93.6156 21.4567 94.5259 21.703C95.4361 21.9494 95.2952 22.6571 94.5374 22.6456C93.7795 22.6342 92.0039 22.464 91.7001 22.6039C91.3964 22.7438 91.5248 24.4609 90.7565 25.2532C89.9882 26.0455 86.5268 25.2647 85.9453 24.9724C85.3629 24.6812 85.1708 21.6101 86.3483 21.4776Z" fill="#FFC5B3"/>
</svg>
