<svg width="128" height="128" viewBox="0 0 128 128" fill="none" xmlns="http://www.w3.org/2000/svg">
<path d="M101.58 48.2295L101.49 89.3995L64.1 97.6995L64.19 56.5295L101.58 48.2295Z" fill="#C63B1B"/>
<path d="M97.37 110.719H64.19V76.4695L97.46 89.4795L99.43 96.3995L97.37 110.719Z" fill="#038F5E"/>
<path d="M104.28 76.4695L104.19 97.7995C104.18 102.429 101.75 106.929 97.36 110.709L97.45 89.3795C101.84 85.5995 104.26 81.0995 104.28 76.4695Z" fill="#038F5E"/>
<path d="M101.58 68.1594C106.48 75.5094 104.5 83.4194 97.46 89.4794L64.19 76.4694L101.58 68.1694V68.1594Z" fill="#08EC9C"/>
<path d="M24 97.5994L24.09 56.4294C24.09 59.2194 24.95 62.0594 26.79 64.8294C28.52 67.4094 30.94 69.7094 33.9 71.6894L33.81 112.859C30.85 110.879 28.42 108.579 26.69 105.999C24.86 103.239 24 100.399 24 97.5994Z" fill="#C63B1B"/>
<path d="M92.47 40.1194C93.16 40.5194 93.83 40.9294 94.47 41.3594C97.43 43.3394 99.86 45.6394 101.58 48.2194L64.19 56.5194L33.91 71.6794C30.95 69.6994 28.52 67.3994 26.8 64.8194C21.89 57.4794 23.88 49.5794 30.92 43.5194C35.34 39.7094 41.76 36.6194 49.73 34.8494C52.08 34.3294 54.47 33.9494 56.85 33.6994C69.96 32.3094 83.26 34.8194 92.46 40.1294L92.47 40.1194Z" fill="#FF6845"/>
<path d="M64.19 56.5295L64.1 97.6995L33.82 112.86L33.91 71.6995L64.19 56.5295Z" fill="#F1522D"/>
<path d="M97.46 93.1094L97.37 110.719C92.94 114.529 86.53 117.619 78.56 119.389C76.2 119.909 73.82 120.289 71.43 120.539L71.52 102.929C73.91 102.679 76.3 102.299 78.65 101.779C86.62 100.009 93.03 96.9194 97.46 93.1094Z" fill="#FBBC04"/>
<path d="M97.46 93.1094C93.03 96.9194 86.62 100.009 78.65 101.779C76.29 102.299 73.91 102.679 71.52 102.929L64.19 80.0894L97.46 93.0994V93.1094Z" fill="#FFED0E"/>
<path d="M64.19 73.1794L71.52 96.0194C58.43 97.4094 45.13 94.9094 35.93 89.5894C35.24 89.1894 34.56 88.7694 33.92 88.3394L64.2 73.1794H64.19Z" fill="#6634FA"/>
<path d="M71.51 96.0194L71.42 120.549C58.33 121.939 45.03 119.439 35.83 114.119C35.14 113.719 34.46 113.299 33.82 112.869L33.91 88.3394C34.56 88.7694 35.23 89.1894 35.92 89.5894C45.12 94.8994 58.42 97.4094 71.51 96.0194Z" fill="#2A0B88"/>
<path d="M86.0101 31.5394C86.6501 31.4894 86.8201 30.3194 86.7401 28.5194L84.3801 28.8494C83.8801 30.1994 84.7701 30.9394 86.0101 31.5394Z" fill="#E6EFFF"/>
<path d="M91.19 29.1794L90.27 30.7894L89.61 31.9494C88.68 32.0394 87.75 32.0594 86.82 31.6494L85.42 31.7494L85.17 31.7694L83.33 31.8194L83.78 29.2694L86.03 28.3194C86.03 28.3194 86.25 27.4194 86.6 26.8594C86.92 26.3394 87.26 25.8894 87.26 24.8594C87.26 23.6594 87.16 23.2294 87.43 23.2294C88.87 23.2294 88.27 26.7394 88.27 26.7394C89.35 26.6594 90.86 26.4994 91 27.0594L91.19 29.1794Z" fill="#FFB294"/>
<g style="mix-blend-mode:multiply" opacity="0.4">
<path d="M90.46 27.3594L90.27 30.7894L89.61 31.9494C88.68 32.0394 87.75 32.0594 86.82 31.6494L85.42 31.7494C85.42 31.7494 85.46 31.7294 85.49 31.7194C86.54 31.2294 87.2 30.1594 87.21 29.0094C87.24 26.6394 89.52 27.6594 90.45 27.3594H90.46Z" fill="#FFB294"/>
</g>
<path d="M91 27.0593C90.48 27.4193 89.7 27.7193 88.78 27.7293C87.49 27.7393 87.65 28.7793 88.14 28.8893C87.72 29.0393 87.37 29.1493 87.43 29.5893C87.49 30.0393 87.9 30.1693 88.36 30.1393C87.87 30.2993 87.9 31.2693 89.05 31.1593C89.05 31.1593 88.44 31.4193 88.88 31.8693C89.06 32.0593 89.59 32.0993 90.33 31.7993L90.75 31.6593C91.82 30.5193 91 27.0593 91 27.0593Z" fill="#FFB294"/>
<path d="M86.01 28.3294L75.05 27.0094C74.16 23.8194 71.3101 16.0394 68.2001 16.5094L66.3 22.5994C67.92 26.0194 69.6401 30.3494 72.3301 32.3994C73.9701 33.4094 85.14 32.1794 86.28 31.6994C85.84 31.4494 84.79 29.7394 86.01 28.3394V28.3294Z" fill="#08EC9C"/>
<path d="M72.7 65.9794C71.92 67.0794 71.46 68.3994 71.33 69.9194C71.59 70.6394 72.19 71.0894 72.98 71.3894C73.99 73.4094 75.17 74.7694 76.59 75.6994C77.71 76.2394 78.8 76.5694 79.84 76.7094C81.42 76.9294 81.55 75.0694 80.49 73.5694C79.6 72.4994 78.93 71.1494 78.45 69.5894L78.52 65.3294L73.26 64.1594L72.69 65.9794H72.7Z" fill="#7C1A13"/>
<path d="M81.4 70.8894C81.14 72.4094 81.23 72.9894 82 73.9694C82.31 74.4294 82.58 74.5994 82.95 75.2594C83.39 76.0794 84.6 77.8094 86.28 78.2294C88.31 78.9194 91.09 78.6394 91.98 76.9094C91.87 76.2394 91.71 75.0194 89.54 73.3894L86.78 70.2594L85.88 67.6694L80.84 68.7494L81.41 70.8994L81.4 70.8894Z" fill="#7C1A13"/>
<path d="M58.53 48.3395C63.83 50.7895 71.04 54.1895 75.91 55.3195C76.82 59.5195 79.04 65.4895 81.35 71.0095C83.08 72.8695 87.47 71.2895 87.13 69.4095C85.85 62.7795 83.89 56.3895 82.87 52.1695C82.59 51.0095 81.86 50.0095 80.82 49.3995C76.25 46.7395 68.39 42.9895 62.16 40.1995C57.67 40.4895 54.94 41.7195 55.53 44.6895C55.85 46.3095 57.02 47.6395 58.52 48.3295L58.53 48.3395Z" fill="#2A0B88"/>
<path d="M62.65 39.1993C59.16 38.0193 75.33 48.7293 74.96 49.2593C73.16 53.8293 72.76 59.3493 72.49 66.1793C72.86 67.9393 75.9 68.8593 78.55 68.9393C79.68 63.1793 80.67 56.4193 82.37 49.6593C82.92 46.8693 81.86 43.9993 79.61 42.2493L69.09 36.0393L62.65 39.1993Z" fill="#6634FA"/>
<path d="M53.89 32.5194L54.4 38.6894C54.27 39.7694 54.73 42.1794 55.44 42.8294C56.9 44.1394 59.58 43.3794 61.93 41.9394C64.2 40.5294 63.9 41.2194 65.52 40.4794C65.79 40.3594 66.07 40.2194 66.35 40.0694C68.72 38.7894 69.63 37.7294 70.1 36.9394C70.39 36.4594 69.53 33.2394 71.15 25.1794C71.8 21.9494 69.02 16.5494 69.02 16.5494L65.07 16.6594C64.85 16.6294 59.8 17.1994 59.8 17.1994L53.03 22.2494L53.88 32.5094L53.89 32.5194Z" fill="#04C984"/>
<path d="M64.47 22.0094L64.04 23.9594L65.02 25.9894C65.06 28.8794 65.37 34.4794 65.02 36.6694L66.71 39.4594L67.58 36.8594C67.41 33.3094 66.39 27.6694 66.03 25.3194L66.3 22.8994L65.07 21.8594L64.48 22.0094H64.47Z" fill="#EB3B58"/>
<path d="M62.96 15.3594L59.81 17.2094C57.78 21.3294 61.06 23.6194 63.03 26.3594L64.93 22.7694L68.19 23.9094L67.84 17.5794L62.96 15.3694V15.3594Z" fill="white"/>
<g style="mix-blend-mode:multiply" opacity="0.5">
<path d="M54.41 38.6894C54.28 39.7694 54.74 42.1794 55.45 42.8294C56.91 44.1394 59.59 43.3794 61.94 41.9394C64.21 40.5294 63.91 41.2194 65.53 40.4794C65.8 40.3594 66.08 40.2194 66.36 40.0694L60.08 36.0294L57.49 28.3794L53.89 32.5194L54.4 38.6894H54.41Z" fill="#227FBC"/>
</g>
<path d="M53.04 22.2694C52.44 22.8994 51.93 23.7094 51.52 24.6994C50.9 26.1794 50.69 27.7994 50.76 29.4094C50.93 33.3294 51.5 36.2294 53.08 40.1494C53.61 41.6294 60.12 44.0794 65.45 46.3094C66.19 46.4194 67.69 43.7194 67.45 42.2494C65.17 40.5594 61.85 38.6194 57.87 36.9494L57.52 28.9194C57.31 23.4994 55.03 21.1594 53.04 22.2794V22.2694Z" fill="#08EC9C"/>
<path d="M66.18 45.2094L67.76 46.0794C68.83 46.4894 69.78 46.5794 70.85 46.6494L72.91 47.6194L73.82 47.9494C74.19 48.0894 74.44 47.6894 74.01 47.3494L71.85 46.1794L71.98 45.9094L73.2 46.3394L74.26 46.8394C74.81 47.0694 74.95 46.5894 74.49 46.1394L73.25 45.3094L72.23 44.8394L72.35 44.7094L73.42 45.1394L74.53 45.8594C75.13 46.1194 75.38 45.7294 74.96 45.2994L73.9 44.5394L72.59 43.8394L72.72 43.6294L73.79 43.9994L75.14 44.7994C75.71 45.0294 75.82 44.6094 75.35 44.1394L74.06 43.1494L71.87 42.2894L71.96 42.1794H72.69L73.59 42.4794C74.15 42.6794 74.46 42.2894 73.79 41.8594L72.6 41.3594C72.6 41.3594 70.76 41.1594 70.3 41.3894C69.67 41.6994 68.05 42.5694 68.05 42.5694L67.53 42.4394C66.66 42.0994 65.35 44.7794 66.22 45.2194L66.18 45.2094Z" fill="#FFB294"/>
<path d="M65.7201 22.1995C65.5001 22.5095 65.2401 22.7195 64.9301 22.7695C61.9401 23.2095 60.0501 19.5895 60.6601 17.7095C61.2101 15.7595 61.5201 14.6995 61.5201 14.6995L66.8801 16.8695C66.8801 16.8695 66.8701 17.3995 66.7901 18.1395C66.6701 19.3995 66.3801 21.2695 65.7201 22.1995Z" fill="#FFB294"/>
<g style="mix-blend-mode:multiply" opacity="0.5">
<path d="M65.7201 22.1994C65.4201 22.3494 65.1001 22.4194 64.7701 22.3694C62.1401 21.9894 62.0101 16.9294 62.0101 16.9294L66.7801 18.1394C66.6601 19.3994 66.3701 21.2694 65.7101 22.1994H65.7201Z" fill="#FFB294"/>
</g>
<path d="M61.8101 15.7195C61.8101 15.7195 62.0701 18.2095 63.0001 19.3995C63.9301 20.5895 65.5701 21.3595 66.2201 21.4795C66.8701 21.6095 67.3901 21.6195 67.8901 21.1895C68.3901 20.7495 69.3001 16.2095 69.3001 16.2095C69.5401 14.4395 69.5901 13.8995 69.5201 12.8895C69.4201 11.3995 68.8301 8.02946 64.5201 8.00946C62.4401 7.99946 60.9701 9.29946 60.4501 11.0595C60.0401 12.4595 60.8101 15.1595 60.8101 15.1595L61.8201 15.7195H61.8101Z" fill="#FFB294"/>
<path d="M60.7101 15.4494L62.5601 16.8094L62.8801 15.6294C62.9501 15.0594 63.5001 14.6594 64.0701 14.7894C65.0201 14.9994 66.5101 15.1594 68.0201 14.6694C69.4601 14.1994 69.8201 13.3294 69.8201 13.3294C70.8701 10.8194 67.7301 8.31941 65.1301 8.03941C61.9701 7.69941 60.4001 9.61941 60.1301 11.4794C59.8801 13.1694 60.7001 15.4494 60.7001 15.4494H60.7101Z" fill="#2A0B88"/>
<path d="M61.3901 13.8994C61.1301 13.7194 60.7501 13.6894 60.5201 13.8994C60.4001 14.0194 60.3401 14.2094 60.3401 14.3794C60.3401 14.5594 60.3901 14.7294 60.4501 14.8894C60.5401 15.1794 60.6501 15.4694 60.7801 15.7394C60.8801 15.9694 61.0101 16.2094 61.2401 16.2994C61.4801 16.3894 61.7501 16.5994 61.9101 16.4094C62.0701 16.2194 62.1401 15.6294 62.1301 15.3794C62.1001 14.8394 61.8401 14.1994 61.3901 13.8794V13.8994Z" fill="#FFB294"/>
<path d="M62.75 53.6294L60.34 55.1694L45.75 44.4094L44.07 32.7794L45.46 31.8394L62.61 41.6094L62.75 53.6294Z" fill="#3F13C2"/>
<path d="M60.34 55.1693L43.34 45.3493L44.07 32.7793L61.07 42.5993L60.34 55.1693Z" fill="#6634FA"/>
<path d="M44.0701 32.7793L43.7401 38.3893L51.4001 45.2793L60.7701 47.6993L61.0701 42.5993L44.0701 32.7793Z" fill="#2A0B88"/>
<path d="M50.48 43.3694L50.2 45.7394C50.17 46.0294 50.32 46.3094 50.58 46.4394L51.01 46.6594C51.42 46.8594 51.91 46.6294 52 46.1794L52.38 44.3294L50.48 43.3694Z" fill="#666666"/>
<path d="M50.27 43.2793L49.99 45.6493C49.96 45.9393 50.11 46.2193 50.37 46.3493L50.8 46.5693C51.21 46.7693 51.7 46.5393 51.79 46.0893L52.17 44.2393L50.27 43.2793Z" fill="#BFB0FE"/>
<path d="M52.7101 45.2994L49.7401 43.5794L49.8601 42.4294L52.8301 44.1494L52.7101 45.2994Z" fill="#BFB0FE"/>
<path d="M55.58 35.9693L54.66 35.4693L52.67 34.2993C52.1 34.0393 51.3 34.4293 50.88 35.0993C50.68 35.6193 51.4 35.9393 51.59 35.5793L52.08 35.1393L52.66 35.2693C53.43 35.7893 54.86 36.5893 54.97 36.6393C55.55 37.0193 55.51 37.4993 55.67 38.2593C55.95 38.6893 56.55 38.4993 56.55 38.1893C56.38 37.1393 56.25 36.3593 55.57 35.9793L55.58 35.9693Z" fill="#2A0B88"/>
</svg>
