<svg width="128" height="128" viewBox="0 0 128 128" fill="none" xmlns="http://www.w3.org/2000/svg">
<path d="M101.851 16.8133L89.0531 9.40667L101.851 2L114.666 9.40667L101.851 16.8133Z" fill="#08EC9C"/>
<path d="M89.0531 9.40674V70.2103L101.851 77.617V16.8134L89.0531 9.40674Z" fill="#05B779"/>
<path d="M114.666 9.40674V70.2103L101.851 77.617V16.8134L114.666 9.40674Z" fill="#038F5E"/>
<path d="M82.9617 49.6472L70.1465 42.2577L82.9617 34.8511L95.777 42.2577L82.9617 49.6472Z" fill="#FFED0E"/>
<path d="M70.1465 42.2576V83.0631L82.9617 90.4698V49.647L70.1465 42.2576Z" fill="#F1522D"/>
<path d="M95.777 42.2576V83.0631L82.9617 90.4698V49.647L95.777 42.2576Z" fill="#FBBC04"/>
<path d="M63.9014 41.4344L51.1034 34.0277L63.9014 26.6383L76.7167 34.0277L63.9014 41.4344Z" fill="#FF6845"/>
<path d="M51.1035 34.0276V94.8484L63.9015 102.255V41.4343L51.1035 34.0276Z" fill="#F1522D"/>
<path d="M76.7167 34.0276V94.8484L63.9014 102.255V41.4343L76.7167 34.0276Z" fill="#C63B1B"/>
<path d="M44.8583 79.2131L32.0431 71.8237L44.8583 64.417L57.6736 71.8237L44.8583 79.2131Z" fill="#BFB0FE"/>
<path d="M32.0431 71.8237V106.411L44.8583 113.818V79.2132L32.0431 71.8237Z" fill="#6634FA"/>
<path d="M57.6736 71.8237V106.411L44.8583 113.818V79.2132L57.6736 71.8237Z" fill="#3F13C2"/>
<path d="M25.798 73.4815L13 66.0749L25.798 58.6682L38.6133 66.0749L25.798 73.4815Z" fill="#08EC9C"/>
<path d="M13 66.0444V118.666L25.798 126.072V73.4511L13 66.0444Z" fill="#05B779"/>
<path d="M38.6133 66.0444V118.666L25.798 126.072V73.4511L38.6133 66.0444Z" fill="#038F5E"/>
<path d="M70.698 103.45C70.1986 104.098 70.1986 105.608 70.3215 107.309C70.7825 109.033 72.4267 108.895 73.8327 109.117C76.5372 109.536 77.8817 111.557 81.4851 111.55C83.621 111.55 85.0501 111.092 85.5034 109.742C85.5725 109.124 85.2038 108.491 84.4431 107.851C84.4431 107.851 79.5413 105.669 79.4107 105.585C79.2877 105.502 77.0827 103.908 77.0442 103.74C76.9981 103.572 76.1991 99.835 76.1991 99.835H70.9131L70.7056 103.442L70.698 103.45Z" fill="#2A0B88"/>
<path d="M68.1087 111.588C67.6247 113.136 67.5248 113.586 67.7246 114.738C67.9551 115.348 68.1932 115.615 68.4468 116.461C68.7464 117.498 68.7003 119.23 70.2523 120.267C72.104 121.716 75.6843 121.785 76.8137 120.236C76.8137 119.481 76.3067 117.811 75.3693 116.461L73.5484 113.105L73.6637 109.963L68.4391 108.827L68.1011 111.595L68.1087 111.588Z" fill="#2A0B88"/>
<path d="M76.8522 63.3646V84.3913C75.1465 90.485 71.8658 96.2126 71.3434 102.306C71.3434 104.869 76.5833 105.433 77.9048 103.786C78.4272 99.0726 82.4455 92.6662 84.8811 85.215C86.4946 77.7027 87.8314 69.9082 87.3858 63.6315L76.8522 63.3569V63.3646Z" fill="#154C8C"/>
<path d="M76.8522 63.3646V84.3913C75.1465 90.485 71.8658 96.2126 71.3434 102.306C71.3434 104.869 76.5833 105.433 77.9048 103.786C78.4272 99.0726 82.4455 92.6662 84.8811 85.215C86.4946 77.7027 87.8314 69.9082 87.3858 63.6315L76.8522 63.3569V63.3646Z" fill="#2A0B88"/>
<path d="M87.2321 64.1729C87.3781 66.3159 84.4278 71.9521 81.0549 74.4917C80.9089 79.0601 80.3096 86.9766 79.5336 92.1322C77.0904 99.5835 74.8699 106.722 74.3552 111.435C73.4793 112.534 70.844 112.961 69.1998 112.358C69.0692 112.312 68.9616 112.274 68.8694 112.221C68.8387 112.206 68.8003 112.183 68.7618 112.167C68.1779 111.847 67.7938 111.351 67.7938 110.657C67.8322 104.663 68.9386 98.6073 70.6442 92.5059L70.1371 65.4313L70.1218 64.6762L87.2398 64.1805L87.2321 64.1729Z" fill="#3F13C2"/>
<path d="M73.7636 93.0778C70.5443 96.9598 69.8605 104.647 69.1921 112.358C69.1306 112.328 69.0231 112.282 68.8617 112.221C68.831 112.206 68.7926 112.183 68.7541 112.167C68.1702 111.847 67.7861 111.351 67.7861 110.657C67.8245 104.663 68.9309 98.6072 70.6365 92.5058L70.1294 65.4312L76.9213 69.0996C74.9237 75.8568 72.9184 83.5597 73.7636 93.0778Z" fill="#2A0B88"/>
<path d="M81.4621 32.2398C85.2192 31.9424 90.1056 36.4955 95.1765 40.0266L102.291 33.9024C103.712 33.155 106.717 37.5708 105.072 39.3479C102.099 44.0001 100.347 45.1136 97.0973 47.3864C93.5631 48.9956 84.3971 41.0639 82.8374 41.5443L81.4621 32.2398Z" fill="#6634FA"/>
<path d="M91.1736 67.2311C90.5436 67.9709 89.7522 68.5124 88.7611 68.7869C87.2322 68.4971 85.9798 67.6048 84.9272 66.2549C84.2357 69.4047 82.3303 73.8129 81.4775 74.4688C80.4402 75.3764 78.1353 75.5518 75.7382 75.0179C74.9391 74.8425 74.1324 74.5832 73.3564 74.2476C71.62 73.5002 70.0373 72.3639 69.0769 70.8309C68.2778 69.0539 69.7299 64.9126 69.5763 59.8866L68.8541 53.3124L66.8488 43.4054C69.6301 38.5091 73.3641 35.672 76.9137 33.3306H84.9349C86.7712 35.0389 87.7853 37.7845 88.3232 41.1098C88.3232 41.1098 88.2386 54.4183 88.8072 57.6444C89.3758 60.8705 91.4733 65.5914 91.4733 65.5914C91.6653 66.1557 91.5655 66.7964 91.1736 67.2464V67.2311Z" fill="#6634FA"/>
<path d="M80.5785 39.394H74.6395L84.059 56.0583C86.7327 49.7511 87.332 43.7565 84.1358 37.1594L80.5785 39.394Z" fill="#E6EFFF"/>
<path d="M80.471 39.6074L80.3019 41.8344L81.7233 43.9318C82.2227 47.1273 83.0909 50.6127 83.0448 53.1067L84.1973 56.2412L85.3728 53.0609C84.6199 49.156 83.5212 45.5868 82.7375 43.0394L82.6453 40.3091L81.1087 39.3481L80.471 39.6074Z" fill="#C63B1B"/>
<path d="M77.7281 32.4689L74.5012 35.0162C72.8877 39.9125 76.929 41.9259 79.5643 44.6563L81.1087 40.3777L84.9349 41.1175L83.5289 34.1467L77.7281 32.4689Z" fill="#BFB0FE"/>
<path d="M75.7381 34.04C73.3564 35.8476 74.6318 39.3863 77.4054 42.6277C79.9024 45.5487 83.9207 52.0619 84.3586 56.859C81.877 52.161 77.4515 46.3342 75.0313 44.664L75.7381 42.9404L74.1247 43.2988C72.565 41.1939 71.8274 38.9897 72.0349 36.9153L75.7305 34.0477L75.7381 34.04Z" fill="#3F13C2"/>
<path d="M81.4621 33.4068C84.9349 36.7244 86.9555 50.4066 84.1281 56.4164C87.2398 52.687 88.2156 47.0509 86.9632 38.2116L86.0413 37.6472L86.3102 36.6862L83.3598 33.1475L81.4698 33.4068H81.4621Z" fill="#3F13C2"/>
<path d="M81.9077 39.615C81.7156 39.9963 81.4544 40.2709 81.1087 40.37C77.8356 41.331 75.1465 37.6168 75.523 35.4356C75.8303 33.1857 76.007 31.9655 76.007 31.9655L82.3456 33.5137C82.3456 33.5137 82.4148 34.1009 82.4532 34.9399C82.5147 36.3584 82.4916 38.4786 81.9154 39.615H81.9077Z" fill="#FDC8B8"/>
<g style="mix-blend-mode:multiply" opacity="0.5">
<path d="M81.9077 39.6149C81.5927 39.8284 81.2469 39.9581 80.8705 39.9581C77.874 39.9581 76.9213 34.3601 76.9213 34.3601L82.4532 34.9397C82.5147 36.3583 82.4916 38.4785 81.9154 39.6149H81.9077Z" fill="#FFB294"/>
</g>
<path d="M76.4988 33.0559C76.4988 33.0559 77.1826 35.7786 78.4119 36.9531C79.6412 38.1276 81.5927 38.7149 82.3379 38.753C83.0832 38.7912 83.6671 38.7301 84.1512 38.1658C84.6352 37.6014 84.9349 32.4229 84.9349 32.4229C84.9195 30.4247 84.8888 29.8146 84.6506 28.7011C84.2972 27.0613 83.0986 23.4234 78.2812 24.0793C75.9532 24.392 74.5165 26.0775 74.2169 28.1062C73.9787 29.723 75.2771 32.5907 75.2771 32.5907L76.4988 33.0483V33.0559Z" fill="#FDC8B8"/>
<path d="M75.2233 32.9339L77.5129 34.1466L77.6819 32.789C77.6743 32.1408 78.2275 31.6222 78.8728 31.6679C79.9715 31.7518 81.6541 31.6908 83.2676 30.9052C84.8042 30.1578 85.0655 29.1359 85.0655 29.1359C85.8491 26.1843 81.9384 23.904 78.9881 24.0031C75.4077 24.1251 73.9556 26.5123 73.9479 28.6172C73.9479 30.5315 75.2233 32.9339 75.2233 32.9339Z" fill="#2A0B88"/>
<path d="M75.7304 31.096C75.4154 30.9359 74.9775 30.9588 74.7623 31.2409C74.6394 31.4011 74.6163 31.607 74.6471 31.8053C74.6778 32.0036 74.7623 32.179 74.8468 32.3621C75.0005 32.6671 75.1695 32.9722 75.3539 33.262C75.4999 33.4984 75.6843 33.7425 75.9609 33.8111C76.2375 33.8798 76.5756 34.0704 76.7292 33.8264C76.8829 33.5823 76.8675 32.9264 76.806 32.6443C76.6831 32.0494 76.299 31.3859 75.7381 31.1037L75.7304 31.096Z" fill="#FDC8B8"/>
<path d="M75.7381 75.0103C74.9391 74.8349 74.1324 74.5756 73.3564 74.24C71.62 73.4926 70.0372 72.3562 69.0768 70.8233C68.2778 69.0463 69.7299 64.905 69.5763 59.879L68.854 53.3048L73.2949 48.6907C73.2949 48.6907 73.6867 51.6193 72.9415 55.2877C75.3079 56.0885 79.5644 57.5605 82.4686 59.2155C84.2664 60.2374 87.624 63.9516 87.6701 64.8516C87.7085 65.6448 82.8374 65.9041 79.4184 65.1948C76.8138 65.4465 74.724 66.0871 74.3475 66.7201C72.0118 70.686 75.7381 75.0256 75.7381 75.0256V75.0103Z" fill="#3F13C2"/>
<path d="M102.022 34.7797L101.7 33.1704L101.784 32.4764L102.137 31.5078L103.121 29.7079L104.75 29.6393L106.993 30.463L107.823 31.3248L107.377 32.5222L107.032 34.1924L106.186 35.7711L104.796 36.6863C104.335 37.121 101.815 36.0304 102.03 34.7797H102.022Z" fill="#FDC8B8"/>
<g style="mix-blend-mode:multiply" opacity="0.5">
<path d="M102.383 34.543L101.7 33.1702L101.991 32.5296L102.468 31.6907L103.282 30.6534L104.25 30.6916L106.371 31.6525L107.162 31.8432L107.377 32.5143L107.032 34.1846L106.186 35.7633L104.796 36.6785C104.335 37.1132 102.176 35.7786 102.391 34.5354L102.383 34.543Z" fill="#FFB294"/>
</g>
<path d="M103.843 36.587C104.642 36.5336 104.78 34.6117 104.035 33.8262L103.451 33.2466L103.221 32.1788C103.221 32.1788 102.898 31.4467 102.683 31.2941C102.476 31.1416 102.276 31.0424 102.068 31.0348C101.73 31.0196 101.746 31.4467 101.746 31.4467L101.792 32.278L101.715 33.1398L102.314 35.771L103.835 36.587H103.843Z" fill="#FDC8B8"/>
<path d="M103.282 30.6538L104.289 30.3868C104.289 30.3868 104.104 31.6834 104.22 31.8817C104.335 32.0723 105.095 32.2783 105.095 32.2783C105.095 32.2783 105.165 32.6672 105.349 32.8197C105.526 32.9723 105.818 33.0333 106.048 33.0104C106.286 32.9875 106.586 32.7359 106.586 32.7359C106.586 32.7359 107.331 33.0333 107.639 32.8503C107.946 32.6748 107.869 31.9808 107.869 31.9808L107.823 31.3173L106.056 30.4326L103.282 30.6461V30.6538Z" fill="#FDC8B8"/>
<path d="M102.906 30.524L103.121 29.7004L104.427 25.4752C104.634 24.7201 105.649 24.6515 105.472 25.7116L104.75 29.6317L104.289 30.3868L102.906 30.524Z" fill="#FDC8B8"/>
<path d="M66.9332 43.1385C64.9049 47.1196 63.4681 50.8262 62.2388 54.7539C61.4244 57.3393 62.7536 60.1307 65.3044 61.0917C68.9231 62.4568 72.9645 63.4102 77.8971 63.9135C79.2339 63.5856 80.2865 59.4977 79.3261 58.2851L70.3753 55.8979L72.6111 51.5965C75.6229 46.6468 70.1909 39.9811 66.9409 43.1461L66.9332 43.1385Z" fill="#6634FA"/>
<path d="M97.5583 51.6421L93.0713 65.3701L83.5442 66.209L83.9975 64.5235L85.1884 60.1306L85.2883 59.734L85.7954 57.8502L87.3089 52.2598L97.5583 51.6421Z" fill="#E6E6E6"/>
<path d="M85.0424 60.6419L84.7197 60.8021L84.9579 60.9851L83.936 64.7603C83.8745 64.7451 83.7977 64.7222 83.7362 64.707L80.9088 63.0748L78.4733 62.4571C77.4668 62.2512 78.0814 58.9641 79.0803 59.0632L80.2097 59.4217C81.2392 59.0632 82.3686 58.7734 83.5595 58.5217L85.4803 59.0251L85.0424 60.6419Z" fill="#FDC8B8"/>
<path d="M90.3668 63.5934L89.2989 63.9061L88.6996 64.5009L88.0696 64.9204L87.2551 65.2712C86.0873 65.2865 84.9579 65.0577 83.9283 64.7679L84.9502 60.9927L87.4703 62.907L90.0672 62.7316C90.9892 62.7392 90.9815 63.4103 90.3591 63.601L90.3668 63.5934Z" fill="#FDC8B8"/>
</svg>
