<svg width="128" height="128" viewBox="0 0 128 128" fill="none" xmlns="http://www.w3.org/2000/svg">
<path d="M96.3016 12.4395C96.3016 12.4395 86.9045 8.94072 81.0278 15.5628C70.1933 27.774 60.1765 49.0443 53.8997 53.1051C44.7568 59.0222 33.5814 57.9575 17.581 59.834C1.58201 61.7106 4.15194 106.339 4.15194 106.339L29.6188 121.813C29.6188 121.813 30.6835 76.681 43.0478 74.5357C55.4122 72.3905 66.6396 77.5795 78.1603 71.073C88.2104 65.3986 121.767 27.1413 121.767 27.1413L96.3016 12.4395Z" fill="#6634FA"/>
<path d="M125 66.7463L29.6188 121.815L29.7993 89.181L34.2285 77.6169L76.5221 71.9209L121.768 27.1426L125 66.7463Z" fill="#3F13C2"/>
<path d="M121.768 30.1879C121.768 30.1879 90.3946 64.5723 80.3445 70.2482C68.8238 76.7546 54.8256 75.0009 42.4613 77.1461C30.0969 79.2913 31.9821 88.3533 31.9821 88.3533L29.7993 89.1811C29.7993 89.1811 27.0488 76.4137 43.0478 74.5372C59.0467 72.6606 70.2222 73.7253 79.3665 67.8082C85.9351 63.5582 94.1997 43.3641 107.175 33.1363C113.214 28.3764 121.768 27.1412 121.768 27.1412V30.1879Z" fill="#3F13C2"/>
<path d="M106.918 40.2435C114.203 36.0382 120.129 39.4172 120.129 47.7756C120.129 56.1341 114.202 66.3575 106.918 70.5628C99.6328 74.768 93.707 71.3891 93.707 63.0306C93.707 54.6707 99.6328 44.4487 106.918 40.2435Z" fill="#E6EFFF"/>
<path d="M91.5373 64.2833C91.5373 54.551 98.4367 42.6504 106.918 37.7546C115.399 32.8575 122.299 36.7911 122.299 46.5234C122.299 56.2557 115.399 68.1563 106.918 73.0535C98.4367 77.9492 91.5373 74.0141 91.5373 64.2833ZM93.7071 63.0308C93.7071 71.3893 99.6329 74.7697 106.918 70.563C114.203 66.3577 120.129 56.1343 120.129 47.7759C120.129 39.4174 114.202 36.0385 106.918 40.2437C99.6329 44.4489 93.7071 54.6709 93.7071 63.0308Z" fill="#2A0B88"/>
<path d="M106.194 45.242L107.642 44.407V41.187L106.194 42.022V45.242Z" fill="#EE522E"/>
<path d="M116.137 49.2506V50.9105L118.943 49.2896V47.6298L116.137 49.2506Z" fill="#EE522E"/>
<path d="M107.642 65.5631L106.194 66.3995V69.6181L107.642 68.7831V65.5631Z" fill="#EE522E"/>
<path d="M97.6984 61.5558V59.896L94.893 61.5154V63.1752L97.6984 61.5558Z" fill="#EE522E"/>
<path d="M113.871 61.5285L114.082 61.2121L107.084 55.269L106.873 55.5869L113.871 61.5285Z" fill="#C2561A"/>
<path d="M106.261 56.705C106.695 56.9635 107.533 56.3481 107.918 55.6937L114.521 43.8133C115.581 41.9671 114.606 41.3878 113.508 43.2124L106.31 54.8226C105.928 55.4756 105.826 56.4464 106.261 56.705Z" fill="#2A0B88"/>
<path d="M107.734 55.9567C108.235 55.246 108.357 54.411 108.077 54.138L103.874 50.7215C103.234 50.1393 102.11 51.7312 102.707 52.3755L106.264 56.7036C106.589 57.0142 107.233 56.6675 107.734 55.9567Z" fill="#EE522E"/>
<path d="M66.1657 47.2383C66.1657 47.2383 59.756 48.7999 55.4555 50.0336C51.1549 51.2673 46.6651 52.6974 46.6651 52.6974C46.6651 52.6974 45.0673 59.5535 48.7308 59.7167C52.3929 59.88 60.2443 59.3614 66.9227 56.8333C73.6011 54.3053 76.6131 50.8859 75.4386 49.7548C74.2627 48.6237 66.1657 47.2383 66.1657 47.2383Z" fill="#EE522E"/>
<path d="M29.2894 68.1721C28.9326 67.9742 24.5164 67.9251 23.095 67.0872C21.6735 66.2494 20.148 63.6476 19.5658 63.4064C18.9851 63.1651 17.9796 63.3645 17.8164 64.2674C17.6531 65.1717 17.9724 66.7867 19.0024 67.9569C20.0338 69.127 22.5099 70.4864 22.7829 71.6334C23.056 72.7818 23.8606 75.3243 24.8718 75.4139C25.883 75.5035 27.0214 74.719 27.8318 73.7512C28.6422 72.7847 29.8615 72.4727 29.8615 72.4727C29.8615 72.4727 30.2587 68.7066 29.2894 68.1721Z" fill="#BFB0FE"/>
<path d="M29.7488 67.9093C29.392 67.7114 24.9759 67.6623 23.5544 66.8244C22.1329 65.9865 20.6074 63.3848 20.0267 63.1436C19.4459 62.9023 18.4405 63.1017 18.2773 64.0046C18.114 64.9089 18.4318 66.5239 19.4633 67.6941C20.4947 68.8642 22.9693 70.2236 23.2438 71.3706C23.5183 72.519 24.3229 75.0615 25.3327 75.1511C26.3439 75.2407 27.4823 74.4548 28.2927 73.4884C29.1031 72.5219 30.3223 72.2099 30.3223 72.2099C30.3223 72.2099 30.7182 68.4453 29.7488 67.9093Z" fill="#05B779"/>
<path d="M73.2472 50.8527C70.1168 49.8285 53.3204 59.2025 52.9419 59.4986C52.5634 59.7933 44.8782 65.0315 39.7989 65.7986C34.7197 66.5656 27.8131 67.1767 27.8131 67.1767C27.8131 67.1767 30.0609 69.1529 29.8009 70.6943C29.5408 72.2371 29.5538 72.9089 29.5538 72.9089C29.5538 72.9089 40.9127 73.9446 45.404 72.6113C49.8953 71.2779 52.4363 67.8672 55.0785 68.1532C57.7207 68.4393 69.3396 67.8022 73.5333 66.125C85.0121 61.5355 81.9669 53.7058 73.2472 50.8527Z" fill="#B63416"/>
<path d="M71.8344 11.3603C71.8344 11.3603 71.9312 16.5189 71.9861 19.4269C72.041 22.3349 74.829 30.1877 74.829 30.1877L83.0705 26.4433C83.0705 26.4433 82.822 23.3215 80.8675 21.6111C78.9129 19.9007 78.8248 15.174 78.8248 15.174C78.8248 15.174 72.2548 7.40638 71.8344 11.3603Z" fill="#FFED0E"/>
<path d="M28.1525 62.1612C28.1525 62.1612 28.3359 59.9842 28.5468 60.0998C28.7563 60.2153 29.7531 60.5101 30.2399 61.6889C30.7253 62.8691 30.7325 65.2108 31.4187 65.27C32.1049 65.3292 32.9428 67.7417 32.9644 68.9061C32.9861 70.069 29.9524 73.6054 29.0524 73.1084C28.1525 72.6129 28.1525 62.1612 28.1525 62.1612Z" fill="#05B779"/>
<path d="M24.6451 63.4887C24.5468 65.9416 25.5032 66.9326 26.3482 67.8167C27.1933 68.7023 26.8611 74.0415 29.2245 73.2036C31.5864 72.3658 30.8944 70.0515 30.8019 68.9464C30.7095 67.8413 30.0435 66.4126 30.3079 65.3638C30.3079 65.3638 30.4004 60.9303 28.5469 60.0997C26.6921 59.2705 24.7433 61.0372 24.6451 63.4887Z" fill="#BFB0FE"/>
<path d="M83.9372 26.4361C83.9372 26.4361 76.3401 26.098 74.4144 31.0357C72.4888 35.9733 66.1658 47.2383 66.1658 47.2383C66.1658 47.2383 72.9164 49.0542 75.6871 52.2482C79.0083 56.0793 80.1856 62.9541 82.2138 58.3993C84.2421 53.8445 82.731 54.327 84.4226 52.2771C86.1143 50.2272 93.1581 41.5422 93.9772 39.1254C94.7963 36.7072 93.1552 31.1657 92.3723 30.4116C91.5879 29.6561 83.9372 26.4361 83.9372 26.4361Z" fill="#FFED0E"/>
<path d="M94.1795 20.5263C94.1795 20.5263 96.4374 21.7889 96.7378 22.4274C97.0383 23.0674 97.359 23.5108 97.359 23.5108L100.815 24.5813L99.0492 26.4882L96.3204 27.0443C96.3204 27.0443 93.8703 27.0906 92.7898 27.1108C91.7092 27.131 91.2469 26.8753 91.2469 26.8753L94.1795 20.5263Z" fill="#EA9C70"/>
<path d="M46.6651 52.6977C42.5826 55.3688 31.4188 65.2715 31.4188 65.2715C31.4188 65.2715 32.5918 65.7266 32.3289 68.6476C32.1179 70.995 31.2743 71.7202 31.2743 71.7202C31.2743 71.7202 41.2392 69.3294 43.9435 66.2972C46.6477 63.2664 49.4979 60.1403 49.4979 60.1403C49.4979 60.1403 50.7461 50.0267 46.6651 52.6977Z" fill="#EE522E"/>
<path d="M75.0183 17.2109C75.0183 17.2109 70.7639 12.2415 72.0222 10.6712C73.2804 9.10095 77.8713 10.6337 78.9519 11.7316C80.0325 12.8295 86.1865 18.6584 87.9301 18.6252C89.6737 18.592 89.9323 18.735 89.9323 18.735C89.9323 18.735 87.9445 22.4447 87.2988 22.6008C86.6545 22.7582 76.6059 18.5775 75.0183 17.2109Z" fill="#FFED0E"/>
<path d="M100.799 23.7174C100.799 23.7174 98.012 25.0175 97.6017 26.1674C97.1915 27.3173 97.6393 28.174 97.6393 28.174L103.993 28.7749C103.993 28.7749 110.255 25.6849 109.933 25.1952C109.609 24.7055 102.643 22.6599 100.799 23.7174Z" fill="#FFED0E"/>
<path d="M89.5885 33.5783C90.4611 32.0297 92.0429 31.0084 93.8039 30.7787C94.9552 30.6285 96.1961 30.4233 96.787 30.185C100.791 28.5685 105.345 25.3513 108.222 25.1115C111.102 24.8703 111.123 26.1011 111.149 27.407C111.174 28.7129 110.831 30.9362 108.757 33.0381C106.683 35.1399 91.2484 42.2185 91.2484 42.2185C91.2484 42.2185 85.9005 40.1267 89.5885 33.5783Z" fill="#FFED0E"/>
<path d="M87.8838 16.165C88.0225 15.7577 87.5776 14.1888 88.2782 13.767C88.9788 13.3452 87.7596 12.5752 89.1175 11.9728C90.4754 11.3704 94.7673 13.5128 96.0733 13.9259C97.3777 14.3391 98.1492 16.9913 97.8227 18.8C97.4962 20.6086 93.7344 23.7059 93.4484 23.8186C93.1624 23.9327 86.1619 21.2313 87.8838 16.165Z" fill="#2A0B88"/>
<path d="M86.3382 25.1418C86.3382 25.1418 85.8557 26.3524 85.2967 27.2509C84.7376 28.1509 84.1049 27.7291 84.9919 28.9136C85.8788 30.0982 90.5825 30.7353 91.6096 30.7598C92.6352 30.7844 92.4994 29.542 92.4994 29.542C92.4994 29.542 92.3203 25.62 92.8779 24.3285C93.4355 23.0385 93.4355 23.0385 93.4355 23.0385L86.3382 25.1418Z" fill="#F1AB85"/>
<path d="M88.2783 13.7669C88.2783 13.7669 85.8716 15.9064 85.6737 16.6504C85.4758 17.3943 85.4917 18.2394 85.4975 18.5269C85.5033 18.8144 84.7983 19.9094 84.6755 21.0651C84.5527 22.2208 84.4574 24.8167 84.1006 24.9669C83.7423 25.1186 85.0569 26.0302 86.3527 25.9334C87.6485 25.8366 89.8096 25.7947 90.5232 25.422C91.2369 25.0493 92.4186 24.3371 92.4186 24.3371C92.4186 24.3371 93.0975 24.3241 93.6739 24.314C94.2503 24.3024 95.4522 23.0312 95.2962 22.4548C95.1416 21.8784 93.9022 21.5403 93.9022 21.5403C93.9022 21.5403 91.754 22.4851 92.0372 21.575C92.3203 20.6664 93.6653 16.7659 92.9429 16.0696C92.2206 15.3733 89.9165 15.1913 89.5005 14.4156C89.083 13.6413 88.2783 13.7669 88.2783 13.7669Z" fill="#FCB28F"/>
<path d="M66.7725 78.5053L45.375 90.861V87.3795L66.7725 75.0253V78.5053Z" fill="#BFB0FE"/>
<path d="M35.3755 94.1185L36.3391 92.6103L38.1723 93.6071L40.345 88.0613L41.3634 88.3979L38.636 96.3966L35.3755 94.1185Z" fill="#04C984"/>
<path d="M66.7725 86.4233L45.375 98.7775V95.2975L66.7725 82.9432V86.4233Z" fill="#BFB0FE"/>
<path d="M35.3755 102.035L36.3391 100.528L38.1723 101.525L40.345 95.9794L41.3634 96.3145L38.636 104.313L35.3755 102.035Z" fill="#04C984"/>
<path d="M66.7725 94.3412L45.375 106.695V103.215L66.7725 90.8612V94.3412Z" fill="#BFB0FE"/>
<path d="M35.3755 109.953L36.3391 108.445L38.1723 109.442L40.345 103.896L41.3634 104.232L38.636 112.231L35.3755 109.953Z" fill="#04C984"/>
</svg>
