<svg width="128" height="128" viewBox="0 0 128 128" fill="none" xmlns="http://www.w3.org/2000/svg">
<path d="M79.4183 22.5551C79.4183 22.5551 78.4621 24.4071 77.6066 26.6315C77.365 27.2556 76.9724 28.3527 76.751 29.8021C76.4893 31.483 76.449 32.4795 76.449 32.4795L78.2407 33.6974C78.2407 33.6974 79.1767 31.9359 79.9618 28.9465C80.3544 27.4669 82.609 24.1252 82.609 24.1252L79.4183 22.5551Z" fill="#FFC2B0"/>
<path d="M78.14 23.2193C78.14 23.2193 78.9452 24.5379 80.4249 25.0814C81.8944 25.6249 82.8405 25.9772 82.8405 25.9772C82.8405 25.9772 84.0886 23.9742 85.4676 20.1997C86.2527 18.0759 83.4746 16.9083 81.9548 18.1363C79.9719 19.7468 78.14 23.2092 78.14 23.2092V23.2193Z" fill="#FBBC04"/>
<path d="M79.4888 66.9128C80.4551 65.9667 81.1798 65.1816 81.1798 65.1816L85.5884 64.9904V66.4498C85.5884 66.4498 85.4576 67.0537 84.7731 67.4866C84.0887 67.9194 82.75 68.6642 82.0152 68.9259C80.9885 69.2983 79.1466 69.6909 78.3313 69.7211C77.4053 69.7613 77.0027 69.3184 77.4959 68.8454C78.3313 68.0301 78.6031 67.7784 79.4989 66.9128H79.4888Z" fill="#2A0B88"/>
<path d="M89.7252 67.6075L93.7011 67.1647C93.7011 67.1647 94.2546 69.6911 93.3286 72.298C92.4026 74.9049 90.762 74.9351 90.1882 74.7237C89.6145 74.5124 89.3528 72.8617 89.4535 70.9794C89.5541 69.1073 89.7252 67.6075 89.7252 67.6075Z" fill="#2A0B88"/>
<path d="M84.5315 32.9827C82.6996 33.5263 81.0086 34.1805 81.0086 34.1805C81.0086 34.1805 79.8511 42.736 79.4988 47.8794C79.0962 53.7274 80.4148 65.2522 80.4148 65.2522C80.4148 65.2522 80.6261 66.5003 82.7701 66.3191C84.4208 66.1782 85.6789 64.7288 85.6789 64.7288L84.7731 51.4325L86.6653 43.189C86.3835 38.4985 84.9039 37.653 84.5315 32.9727V32.9827Z" fill="#E4E4FF"/>
<path d="M95.2411 66.1481C95.2411 66.1481 94.1137 57.6328 91.6477 52.0767C91.4464 47.8594 93.0166 43.028 92.0604 38.8509C90.8626 33.627 88.9804 33.7679 88.9804 33.7679C89.0911 32.8922 87.1687 33.0432 85.1656 33.4257C85.1656 36.9284 85.1958 40.4211 85.1656 43.9238L85.2059 43.7124C85.2059 43.7124 85.4877 50.6575 86.5647 54.4421C87.9839 59.4345 88.9804 68.1309 88.9804 68.1309C88.9804 68.1309 91.7886 69.1274 93.7011 68.1712C95.6235 67.215 95.2411 66.138 95.2411 66.138V66.1481Z" fill="#E4E4FF"/>
<path d="M83.8672 19.0522C84.5517 18.6295 85.1656 18.4483 85.1656 18.4483L88.8596 19.3039C88.8596 19.3039 92.4328 20.3909 93.2682 23.1689C93.3286 24.0446 93.228 26.0778 93.0871 26.9837C92.9562 27.0642 92.1208 26.9334 92.0604 27.1045C90.9431 30.3757 91.5873 34.6132 91.8188 37.8945C86.2728 40.3203 82.1158 39.1024 80.5759 37.5322C80.5759 31.7748 78.754 23.6823 83.8571 19.0422L83.8672 19.0522Z" fill="#FFED0E"/>
<path d="M84.5114 18.8912C84.5114 18.8912 84.3504 19.1831 83.6559 20.8439C82.9614 22.5047 82.6091 23.471 83.8874 23.9843C85.1757 24.4976 86.3534 23.1891 87.7726 21.8102C89.1918 20.4413 89.3226 19.475 89.3226 19.475C89.3226 19.475 88.3362 18.7503 87.1284 18.4484C85.9105 18.1464 84.5114 18.8812 84.5114 18.8812V18.8912Z" fill="#FBBC04"/>
<path d="M84.9341 18.6094L88.2859 16.1736L88.8495 19.3039C88.8495 19.3039 88.155 20.5117 87.3095 21.4579C86.6754 22.1625 84.7026 23.7025 83.9175 23.1589C82.9915 22.5248 84.763 19.6159 84.763 19.6159L84.9341 18.6094Z" fill="#EA9C92"/>
<path d="M88.6885 11.8455C89.4334 12.7917 89.6548 15.157 88.6382 16.8279C87.7323 18.3075 85.6589 19.1429 84.7429 19.2939C83.1023 19.5556 81.3308 15.0262 83.2029 12.2481C84.9945 9.60096 87.7323 10.6276 88.6885 11.8455Z" fill="#FFC2B0"/>
<path d="M87.1083 9.84251C88.0544 9.99349 88.759 10.5773 89.2622 11.2718C90.9331 11.6241 90.762 14.0398 90.3493 14.9456C89.5441 16.7071 88.6281 16.8279 88.6281 16.8279C88.6281 16.8279 88.8697 15.8717 88.6583 15.4489C88.4772 15.0966 87.9034 15.0262 87.7122 15.6603C87.5008 15.7207 87.2492 15.7106 87.2492 15.7106L87.4404 14.4424C87.4404 14.4424 86.4742 14.9356 85.377 14.3015C84.3604 13.7177 83.374 14.0599 83.0217 14.392C82.8104 13.8485 82.8305 13.5365 82.8607 13.1037C82.2064 12.6507 81.5925 12.2381 81.6831 11.926C82.1863 12.077 82.76 12.0871 83.2432 11.7751C82.8305 11.453 82.6292 11.1611 82.3977 10.8088C83.5451 10.9598 86.0111 9.66134 87.1083 9.84251Z" fill="#2A0B88"/>
<path d="M75.674 32.0869C75.674 32.0869 75.362 32.8821 75.7948 33.8081C76.0968 34.4422 76.8919 35.3481 77.7173 35.2978C78.6634 35.2474 78.1602 34.4422 77.4053 33.6873C76.6504 32.9324 75.674 32.0869 75.674 32.0869Z" fill="#F9B4AF"/>
<path d="M77.0972 26.5875L64.9707 19.532C60.4509 16.9083 54.2112 17.2831 47.3322 21.2518L59.4587 28.3072C66.3598 24.3385 72.5994 23.9637 77.0972 26.5875Z" fill="#9491C4"/>
<mask id="mask0_223_2989" style="mask-type:luminance" maskUnits="userSpaceOnUse" x="47" y="17" width="31" height="12">
<path d="M77.0972 26.5875L64.9707 19.532C60.4509 16.9083 54.2112 17.2831 47.3322 21.2518L59.4587 28.3072C66.3598 24.3385 72.5994 23.9637 77.0972 26.5875Z" fill="white"/>
</mask>
<g mask="url(#mask0_223_2989)">
<path d="M77.0972 26.5879L64.9708 19.5324C62.788 18.2757 60.2084 17.7025 57.3421 17.9009L69.4686 24.9563C72.3348 24.7578 74.9145 25.3311 77.0972 26.5879Z" fill="#6634FA"/>
<path d="M69.4686 24.9339L57.3421 17.8785C55.6885 17.9887 53.9467 18.3636 52.1167 19.003L64.2432 26.0583C66.0732 25.4189 67.815 25.0442 69.4686 24.9339Z" fill="#6634FA"/>
<path d="M64.2431 26.0589L52.1166 19.0035C50.5732 19.5547 48.9637 20.2823 47.3101 21.2524L59.4366 28.3079C61.0682 27.3598 62.6777 26.6101 64.2431 26.0589Z" fill="#6634FA"/>
</g>
<path d="M29.8259 79.988L41.9523 87.0434C37.4986 84.4638 34.7426 78.9517 34.7205 71.1467C34.6765 55.4043 45.7446 36.2445 59.4365 28.3292L47.31 21.2738C33.6181 29.1891 22.55 48.3489 22.5941 64.0913C22.6161 71.9184 25.3721 77.4084 29.8259 79.988Z" fill="#9491C4"/>
<mask id="mask1_223_2989" style="mask-type:luminance" maskUnits="userSpaceOnUse" x="22" y="21" width="38" height="67">
<path d="M29.8259 79.988L41.9523 87.0434C37.4986 84.4638 34.7426 78.9517 34.7205 71.1467C34.6765 55.4043 45.7446 36.2445 59.4365 28.3292L47.31 21.2738C33.6181 29.1891 22.55 48.3489 22.5941 64.0913C22.6161 71.9184 25.3721 77.4084 29.8259 79.988Z" fill="white"/>
</mask>
<g mask="url(#mask1_223_2989)">
<path d="M59.4365 28.3063L47.31 21.2509C47.31 21.2509 47.1557 21.339 47.0675 21.3831L59.194 28.4386C59.194 28.4386 59.3483 28.3504 59.4365 28.3063Z" fill="#6634FA"/>
<path d="M59.194 28.4389L47.0675 21.3835C45.2155 22.4638 43.4296 23.7647 41.6878 25.2199L53.8143 32.2753C55.534 30.8201 57.342 29.5193 59.194 28.4389Z" fill="#6634FA"/>
<path d="M53.8364 32.2747L41.7099 25.2194C39.8799 26.7627 38.1381 28.4825 36.4845 30.3565L48.611 37.412C50.2646 35.5379 52.0064 33.8181 53.8364 32.2747Z" fill="#6634FA"/>
<path d="M48.6107 37.4346L36.4843 30.3793C32.6038 34.7889 29.2966 40.0143 26.8933 45.4822L39.0198 52.5376C41.423 47.0697 44.7303 41.8663 48.6107 37.4346Z" fill="#6634FA"/>
<path d="M39.0199 52.5151L26.8935 45.4597C25.9895 47.4881 25.2178 49.5386 24.6005 51.6112L36.7269 58.6665C37.3663 56.594 38.138 54.5435 39.0199 52.5151Z" fill="#6634FA"/>
<path d="M36.7268 58.6667L24.6004 51.6113C23.9389 53.772 23.4318 55.9327 23.079 58.0934L35.2055 65.1489C35.5362 63.0102 36.0433 60.8495 36.7048 58.6888L36.7268 58.6667Z" fill="#6634FA"/>
<path d="M35.2056 65.1271L23.0791 58.0718C22.7704 60.1002 22.5941 62.1066 22.5941 64.0468V64.1129L34.7205 71.1684V71.1022C34.7205 69.162 34.8749 67.1556 35.2056 65.1271Z" fill="#6634FA"/>
<path d="M34.7205 71.1907L22.5941 64.1354C22.5941 66.2961 22.8366 68.3024 23.2335 70.0883L35.3599 77.1438C34.941 75.3358 34.7205 73.3515 34.7205 71.1907Z" fill="#6634FA"/>
<path d="M35.3821 77.1428L23.2556 70.0874C24.3139 74.7396 26.651 78.113 29.848 79.965L41.9745 87.0204C38.7775 85.1684 36.4404 81.795 35.3821 77.1428Z" fill="#6634FA"/>
</g>
<path d="M59.4365 28.3073C45.7446 36.2226 34.6764 55.3824 34.7205 71.1248C34.7646 86.8672 45.8989 93.2171 59.5908 85.3018C73.2827 77.3865 84.3509 58.2266 84.3068 42.4843C84.2627 26.7419 73.1284 20.392 59.4365 28.3073Z" fill="#BFB0FE"/>
<path d="M59.4586 33.1349C48.0818 39.7053 38.9098 55.624 38.9318 68.6765C38.9759 81.7511 48.2141 87.0206 59.5909 80.4502C70.9678 73.8799 80.1398 57.9611 80.1177 44.9086C80.0736 31.8341 70.8355 26.5646 59.4586 33.1349Z" fill="#E6EFFF"/>
<path d="M78.376 41.1615L60.8918 57.1906V32.3864L67.352 30.7328L73.8562 32.3643L78.376 41.1615Z" fill="#04C984"/>
<path d="M77.891 46.1662C77.8469 33.6869 69.3804 28.3292 58.7091 33.5987C58.9517 33.4444 59.2162 33.29 59.4588 33.1577C70.8356 26.5874 80.0738 31.8569 80.1179 44.9314C80.162 58.006 70.9679 73.9028 59.5911 80.4731C59.084 80.7597 58.4005 81.1125 57.9154 81.3771C68.9395 74.5642 77.9351 58.9541 77.891 46.1662Z" fill="#6634FA"/>
<path d="M75.4655 43.322L74.5395 42.7708L58.5987 57.1903L59.5027 57.7194L75.4655 43.322Z" fill="#EE522E"/>
<path d="M59.5025 57.7197L58.5986 57.1906L58.8631 58.1165L59.7892 58.6457L59.5025 57.7197Z" fill="#6B60AB"/>
<path d="M75.4655 43.322L59.5027 57.7195L59.7893 58.6454L75.7301 44.248L75.4655 43.322Z" fill="#DA401C"/>
<path d="M62.7439 53.8161L61.6414 53.1767C61.2005 52.9121 60.5831 52.9562 59.9217 53.353L61.0241 53.9924C61.7076 53.5956 62.3029 53.5735 62.7439 53.8161Z" fill="#2A0B88"/>
<mask id="mask2_223_2989" style="mask-type:luminance" maskUnits="userSpaceOnUse" x="59" y="53" width="4" height="1">
<path d="M62.7439 53.8161L61.6414 53.1767C61.2005 52.9121 60.5831 52.9562 59.9217 53.353L61.0241 53.9924C61.7076 53.5956 62.3029 53.5735 62.7439 53.8161Z" fill="white"/>
</mask>
<g mask="url(#mask2_223_2989)">
<path d="M62.7438 53.8165L61.6414 53.1771C61.4209 53.0448 61.1784 53.0007 60.8918 53.0227L61.9942 53.6622C62.2808 53.6622 62.5233 53.7063 62.7438 53.8165Z" fill="#2A0B88"/>
<path d="M61.9942 53.6621L60.8917 53.0227C60.7374 53.0227 60.561 53.0668 60.3846 53.1329L61.4871 53.7723C61.6634 53.7062 61.8398 53.6621 61.9942 53.6621Z" fill="#2A0B88"/>
<path d="M61.4871 53.772L60.3847 53.1326C60.2304 53.1767 60.076 53.2649 59.9217 53.3531L61.0241 53.9925C61.1784 53.9043 61.3328 53.8161 61.4871 53.772Z" fill="#2A0B88"/>
</g>
<path d="M58.202 59.0859L59.3044 59.7253C58.8634 59.4828 58.5989 58.9316 58.5989 58.1819C58.5989 56.6386 59.6792 54.7645 61.0242 53.9928L59.9218 53.3534C58.5768 54.1251 57.4965 55.9992 57.4965 57.5425C57.4965 58.3142 57.761 58.8434 58.202 59.0859Z" fill="#2A0B88"/>
<mask id="mask3_223_2989" style="mask-type:luminance" maskUnits="userSpaceOnUse" x="57" y="53" width="5" height="7">
<path d="M58.202 59.0859L59.3044 59.7253C58.8634 59.4828 58.5989 58.9316 58.5989 58.1819C58.5989 56.6386 59.6792 54.7645 61.0242 53.9928L59.9218 53.3534C58.5768 54.1251 57.4965 55.9992 57.4965 57.5425C57.4965 58.3142 57.761 58.8434 58.202 59.0859Z" fill="white"/>
</mask>
<g mask="url(#mask3_223_2989)">
<path d="M61.002 53.9927L59.9217 53.3533H59.8996L60.98 53.9927H61.002Z" fill="#2A0B88"/>
<path d="M60.9801 53.9927L59.8777 53.3533C59.7013 53.4635 59.5249 53.5958 59.3485 53.7281L60.4509 54.3675C60.6273 54.2352 60.8037 54.1029 60.9801 53.9927Z" fill="#2A0B88"/>
<path d="M60.4509 54.3673L59.3485 53.7279C59.1721 53.8822 58.9957 54.0586 58.8414 54.235L59.9438 54.8744C60.0981 54.698 60.2745 54.5217 60.4509 54.3673Z" fill="#2A0B88"/>
<path d="M59.9439 54.8742L58.8415 54.2347C58.4667 54.6757 58.136 55.1828 57.8934 55.712L58.9958 56.3514C59.2384 55.8223 59.547 55.3151 59.9439 54.8742Z" fill="#2A0B88"/>
<path d="M59.0178 56.3515L57.9154 55.712C57.8272 55.9105 57.761 56.1089 57.6949 56.3073L58.7973 56.9467C58.8634 56.7483 58.9296 56.5499 59.0178 56.3515Z" fill="#2A0B88"/>
<path d="M58.7753 56.9467L57.6729 56.3073C57.6067 56.5277 57.5627 56.7262 57.5186 56.9467L58.621 57.5861C58.643 57.3876 58.7092 57.1671 58.7753 56.9467Z" fill="#2A0B88"/>
<path d="M58.643 57.5862L57.5406 56.9468C57.5185 57.1452 57.4965 57.3436 57.4965 57.5421L58.5989 58.1815C58.5989 57.983 58.5989 57.7846 58.643 57.5862Z" fill="#2A0B88"/>
<path d="M58.5989 58.1815L57.4965 57.5421C57.4965 57.7626 57.5185 57.939 57.5626 58.1154L58.665 58.7548C58.6209 58.5784 58.5989 58.38 58.5989 58.1815Z" fill="#2A0B88"/>
<path d="M58.6431 58.7553L57.5406 58.1158C57.6509 58.5789 57.8714 58.9096 58.18 59.086L59.2825 59.7254C58.9738 59.549 58.7533 59.2183 58.6431 58.7553Z" fill="#2A0B88"/>
</g>
<path d="M61.002 53.9925C59.6571 54.7642 58.5767 56.6383 58.5767 58.1816C58.5767 59.725 59.6791 60.3424 61.002 59.5707C62.347 58.799 63.4273 56.9249 63.4273 55.3815C63.4273 53.8382 62.3249 53.2208 61.002 53.9925Z" fill="#6634FA"/>
<path d="M60.4286 41.1616L59.701 40.7427L59.7451 53.6849L60.4727 54.1038L60.4286 41.1616Z" fill="#B63416"/>
<path d="M61.5309 40.5221L60.8033 40.1033L60.2521 40.4119L60.9797 40.8308L61.5309 40.5221Z" fill="#EE522E"/>
<path d="M60.9798 40.831L60.2522 40.4121L59.701 40.7428L60.4286 41.1617L60.9798 40.831Z" fill="#EE522E"/>
<path d="M60.4285 41.1614L60.4726 54.1036L61.553 53.4863L61.5309 40.522L60.9797 40.8307L60.4285 41.1614Z" fill="#DA401C"/>
<path d="M54.3435 52.3838L53.1309 51.6783L52.4254 52.891L53.6601 53.5965L54.3435 52.3838Z" fill="#2A0B88"/>
<path d="M54.3438 52.3837L53.6603 53.5964L69.5129 62.6361L70.2184 61.4234L54.3438 52.3837Z" fill="#6634FA"/>
<path d="M57.7425 21.1034C54.9552 19.4962 50.4482 19.4625 47.6271 21.0585L48.1442 20.7662C50.6842 19.3389 54.7191 19.3613 57.2255 20.8112C57.3941 20.9123 57.5739 21.0135 57.7425 21.1147V21.1034Z" fill="#B2ADA8"/>
<path d="M59.8668 24.6208C59.8668 23.5643 59.1924 22.5078 57.8212 21.6986C55.0451 20.0351 50.4707 19.9902 47.616 21.5974C46.1661 22.4179 45.4355 23.4968 45.4243 24.5871V24.0588C45.4243 22.9686 46.1549 21.8896 47.616 21.0692C50.4707 19.4619 55.0451 19.5069 57.8212 21.1703C59.1924 21.9908 59.8668 23.0473 59.8668 24.0925V24.6208Z" fill="#B2ADA8"/>
<path d="M57.6863 27.6107C54.8315 29.218 50.2572 29.173 47.4811 27.5096C44.705 25.8462 44.7611 23.2049 47.6272 21.5977C50.4932 19.9905 55.0563 20.0355 57.8324 21.6989C60.6085 23.3623 60.5411 26.0035 57.6863 27.6107Z" fill="#B2ADA8"/>
<path d="M57.3041 20.8559C54.809 19.3611 50.7067 19.3274 48.1441 20.766C45.5816 22.2047 45.5142 24.5874 48.0093 26.071C50.5044 27.5658 54.6067 27.5995 57.1693 26.1609C59.7318 24.7222 59.7993 22.3395 57.3041 20.8559ZM54.8315 24.7672C53.5952 25.464 51.6171 25.4416 50.4145 24.7222C49.2119 24.0029 49.2344 22.8565 50.4819 22.1597C51.7182 21.4629 53.6963 21.4853 54.8989 22.2047C56.1015 22.924 56.0791 24.0704 54.8315 24.7672Z" fill="#BFB0FE"/>
<path d="M55.7869 23.4744C55.7869 23.0136 55.4947 22.564 54.899 22.2044C53.6964 21.4851 51.7183 21.4626 50.482 22.1594C49.8526 22.5078 49.5379 22.9799 49.5379 23.4519V18.5067C49.5491 18.0346 49.8751 17.5626 50.5044 17.2141C51.7408 16.5173 53.7189 16.5398 54.9215 17.2591C55.5172 17.6075 55.8094 18.0683 55.8094 18.5291C55.8094 20.0127 55.8094 21.9908 55.7982 23.4744H55.7869Z" fill="#B2ADA8"/>
<path d="M57.2142 20.8109C57.3828 20.9121 57.5626 21.0132 57.7312 21.1144C57.7649 21.1369 57.7987 21.1481 57.8211 21.1706C60.5972 22.834 60.541 25.4752 57.675 27.0824L57.158 26.1721C59.7206 24.7334 59.788 22.3507 57.2929 20.8671L57.2142 20.8222V20.8109Z" fill="#BFB0FE"/>
<path d="M59.8781 24.0818V24.61C59.8781 25.7002 59.1475 26.7792 57.6864 27.5997V27.0714C59.1363 26.251 59.8668 25.172 59.8781 24.0818Z" fill="#99A8EA"/>
<path d="M55.7982 18.5295V23.4748C55.7869 23.9469 55.461 24.4189 54.8316 24.7673V19.8221C55.4722 19.4736 55.7869 19.0016 55.7982 18.5295Z" fill="#3F13C2"/>
<path d="M47.6271 21.058L48.1441 20.7657C45.5815 22.2044 45.5141 24.5871 48.0092 26.0707C50.5043 27.5655 54.6067 27.5992 57.1692 26.1606L57.6862 27.071C54.8314 28.6782 50.2571 28.6332 47.481 26.9698C44.7049 25.3064 44.7723 22.6652 47.6271 21.058Z" fill="#BFB0FE"/>
<path d="M45.4354 24.5759V24.0476C45.4354 25.1041 46.1098 26.1606 47.481 26.9698C50.2571 28.6332 54.8314 28.6782 57.6862 27.071V27.5992C54.8202 29.2064 50.257 29.1615 47.4697 27.4981C46.0985 26.6776 45.4242 25.6211 45.4242 24.5759H45.4354Z" fill="#99A8EA"/>
<path d="M49.5267 23.4522V18.507C49.5379 18.9678 49.8301 19.4173 50.4258 19.777C51.6284 20.4963 53.6065 20.5188 54.8428 19.822V24.7672C53.5953 25.4641 51.6172 25.4416 50.4033 24.7223C49.8076 24.3739 49.5154 23.913 49.5154 23.4522H49.5267Z" fill="#3F13C2"/>
<path d="M58.1023 15.4724C55.18 13.7303 50.3921 13.6853 47.3912 15.36C44.3903 17.0459 44.3229 19.822 47.2339 21.5641C50.1561 23.3061 54.944 23.3511 57.9449 21.6765C60.9458 19.9906 61.0132 17.2145 58.1023 15.4724ZM54.8429 19.822C53.6065 20.5188 51.6284 20.4963 50.4258 19.777C49.2232 19.0577 49.2457 17.9113 50.4933 17.2145C51.7296 16.5176 53.7077 16.5401 54.9103 17.2594C56.1129 17.9787 56.0904 19.1251 54.8429 19.822Z" fill="#B2ADA8"/>
<path d="M60.2489 18.5406C60.2489 17.4391 59.5408 16.3265 58.1022 15.4723C55.18 13.7302 50.3921 13.6852 47.3912 15.3599C45.8626 16.2141 45.0983 17.3492 45.0983 18.4956L45.1208 11.3699C45.1208 10.2235 45.8963 9.08837 47.4136 8.23419C50.4145 6.54829 55.2137 6.59325 58.1247 8.34658C59.5633 9.20076 60.2714 10.3135 60.2714 11.4149L60.2489 18.5406Z" fill="#B2ADA8"/>
<path d="M60.2714 11.4261L60.2489 18.5519C60.2489 19.6983 59.4734 20.8334 57.9561 21.6876L57.9786 14.5619C59.5071 13.7077 60.2714 12.5726 60.2714 11.4261Z" fill="#B63416"/>
<path d="M57.9673 14.5618C54.9665 16.2477 50.1673 16.2027 47.2563 14.4494C44.3341 12.7073 44.4128 9.93118 47.4137 8.24529C50.4145 6.5594 55.2137 6.60436 58.1247 8.35769C61.0469 10.0998 60.9682 12.8759 57.9673 14.5618Z" fill="#EE522E"/>
<path d="M45.087 18.4957L45.1095 11.37C45.1095 12.4714 45.8176 13.5841 47.2562 14.4383C50.1784 16.1804 54.9663 16.2254 57.9672 14.5507L57.9447 21.6764C54.9439 23.3623 50.1447 23.3173 47.2337 21.564C45.7951 20.7098 45.087 19.5971 45.087 18.4957Z" fill="#B63416"/>
<mask id="mask4_223_2989" style="mask-type:luminance" maskUnits="userSpaceOnUse" x="64" y="14" width="10" height="9">
<path d="M71.1958 22.9579C71.2857 22.6882 70.9485 22.2836 70.1843 21.834C68.8805 21.0697 66.8462 20.474 65.6324 20.519C65.1266 20.5302 64.8456 20.6539 64.7782 20.8449L66.8462 14.5734C66.9136 14.3824 67.1946 14.2587 67.7004 14.2475C68.9142 14.2138 70.9485 14.7982 72.2523 15.5625C73.0166 16.012 73.3537 16.4167 73.2638 16.6864C72.6457 18.5634 71.8252 21.081 71.1958 22.9579Z" fill="white"/>
</mask>
<g mask="url(#mask4_223_2989)">
<path d="M71.1958 22.9581L73.2638 16.6865C73.3537 16.4168 73.0166 16.0122 72.2523 15.5626C70.9485 14.7983 68.9142 14.2027 67.7004 14.2476C67.1946 14.2589 66.9136 14.3825 66.8462 14.5736L64.7782 20.8451C64.8456 20.654 65.1266 20.5304 65.6324 20.5191C66.8462 20.4854 68.8805 21.0699 70.1843 21.8341C70.9485 22.2837 71.2857 22.6883 71.1958 22.9581Z" fill="#898482"/>
</g>
<mask id="mask5_223_2989" style="mask-type:luminance" maskUnits="userSpaceOnUse" x="62" y="8" width="17" height="11">
<path d="M77.3211 18.0236C77.5235 17.4167 76.748 16.495 75.0283 15.4835C72.0837 13.7527 67.4643 12.4152 64.7107 12.4939C63.5643 12.5276 62.9237 12.8086 62.7888 13.2357L64.0476 9.39183C64.1937 8.95349 64.8343 8.68375 65.9695 8.65003C68.7119 8.57135 73.3312 9.90883 76.2871 11.6397C78.0067 12.6512 78.7823 13.5728 78.58 14.1798C78.1978 15.3374 77.692 16.8659 77.3211 18.0236Z" fill="white"/>
</mask>
<g mask="url(#mask5_223_2989)">
<path d="M77.3211 18.0236L78.58 14.1798C78.7823 13.5728 78.0067 12.6512 76.2871 11.6397C73.3424 9.90883 68.7231 8.57135 65.9695 8.65003C64.8231 8.68375 64.1824 8.96473 64.0476 9.39183L62.7888 13.2357C62.9349 12.7973 63.5755 12.5276 64.7107 12.4939C67.4531 12.4152 72.0724 13.7527 75.0283 15.4835C76.748 16.495 77.5235 17.4167 77.3211 18.0236Z" fill="#898482"/>
</g>
<path d="M75.0284 15.4837C72.0837 13.7529 67.4644 12.4154 64.7107 12.4941C61.9684 12.5728 62.1257 14.0451 65.0816 15.7759C68.0263 17.5068 72.6457 18.8443 75.3993 18.7656C78.1417 18.6869 77.9843 17.2146 75.0284 15.4837ZM72.4096 17.0123C71.1958 17.046 69.1615 16.4615 67.8577 15.6973C66.554 14.933 66.4865 14.2811 67.7004 14.2474C68.9142 14.2137 70.9485 14.7981 72.2523 15.5624C73.556 16.3267 73.6235 16.9786 72.4096 17.0123Z" fill="#B1ABA8"/>
<path d="M76.6576 14.9217C73.9152 15.0004 69.2959 13.6629 66.34 11.9321C63.3953 10.2012 63.2267 8.72889 65.9691 8.65021C68.7115 8.57154 73.3308 9.90901 76.2867 11.6399C79.2314 13.3707 79.4 14.8431 76.6576 14.9217Z" fill="#EE522E"/>
<path d="M72.4097 17.0123C71.1958 17.0461 69.1615 16.4616 67.8578 15.6974C67.0935 15.2478 66.7563 14.8432 66.8462 14.5734L64.7782 20.8449C64.6883 21.1147 65.0255 21.5193 65.7897 21.9689C67.0935 22.7331 69.1278 23.3288 70.3417 23.2839C70.8474 23.2726 71.1284 23.149 71.1958 22.9579L73.2639 16.6864C73.1964 16.8775 72.9154 17.0011 72.4097 17.0123Z" fill="#BFB0FE"/>
<path d="M76.6582 14.9218C73.9158 15.0005 69.2964 13.663 66.3405 11.9322C64.6209 10.9206 63.8454 9.99901 64.0477 9.39209L62.7889 13.2359C62.5866 13.8428 63.3621 14.7645 65.0817 15.776C68.0264 17.5068 72.6457 18.8443 75.3994 18.7656C76.5458 18.7319 77.1864 18.4509 77.3213 18.0239L78.5801 14.18C78.434 14.6184 77.7933 14.8881 76.6582 14.9218Z" fill="#B63416"/>
<mask id="mask6_223_2989" style="mask-type:luminance" maskUnits="userSpaceOnUse" x="34" y="33" width="10" height="7">
<path d="M43.0865 34.7926C42.8618 34.3543 42.5021 33.9721 42.0188 33.6799C40.2655 32.6234 37.5231 33.2079 35.8934 34.9837C34.702 36.2762 34.4323 37.8384 35.0392 39.0073L34.9606 38.8725C34.3536 37.7036 34.6234 36.1413 35.8147 34.8488C37.4444 33.073 40.1868 32.4885 41.9401 33.545C42.4234 33.8373 42.7718 34.2194 43.0079 34.6577L43.0865 34.8038V34.7926Z" fill="white"/>
</mask>
<g mask="url(#mask6_223_2989)">
<path d="M43.0866 34.793L43.0079 34.6469C42.7831 34.2085 42.4235 33.8264 41.9402 33.5342C40.1869 32.4777 37.4445 33.0621 35.8148 34.8379C34.6234 36.1305 34.3537 37.6927 34.9606 38.8616L35.0393 38.9965C34.4324 37.8276 34.7021 36.2653 35.8935 34.9728C37.5232 33.197 40.2656 32.6126 42.0189 33.6691C42.5022 33.9613 42.8506 34.3434 43.0866 34.7817V34.793Z" fill="#898482"/>
</g>
<path d="M41.3558 38.1868C40.1419 39.513 38.0964 39.9401 36.7926 39.1534C35.4889 38.3666 35.4214 36.6583 36.6353 35.332C37.8491 34.0058 39.8947 33.5787 41.1984 34.3655C42.5022 35.1522 42.5696 36.8606 41.3558 38.1868Z" fill="#8F8A88"/>
<mask id="mask7_223_2989" style="mask-type:luminance" maskUnits="userSpaceOnUse" x="33" y="30" width="9" height="9">
<path d="M41.9963 35.1862C41.8277 34.8602 41.558 34.5792 41.2096 34.3545C39.9058 33.5677 37.8603 33.9948 36.6464 35.321C35.7585 36.2764 35.5562 37.4453 36.0058 38.3107L33.9715 34.4219C33.5219 33.5565 33.7242 32.3876 34.6121 31.4323C35.826 30.106 37.8715 29.6789 39.1753 30.4657C39.5349 30.6792 39.7934 30.9602 39.962 31.2974C40.569 32.4663 41.3894 34.0173 41.9963 35.1862Z" fill="white"/>
</mask>
<g mask="url(#mask7_223_2989)">
<path d="M41.9963 35.1862L39.962 31.2974C39.7934 30.9714 39.5237 30.6905 39.1753 30.4657C37.8715 29.6789 35.826 30.106 34.6121 31.4323C33.7242 32.3876 33.5219 33.5565 33.9715 34.4219L36.0058 38.3107C35.5562 37.4453 35.7585 36.2764 36.6464 35.321C37.8603 33.9948 39.9058 33.5677 41.2096 34.3545C41.5692 34.568 41.8277 34.849 41.9963 35.1862Z" fill="#898482"/>
</g>
<path d="M40.9511 28.5325C38.5908 27.1051 34.8931 27.8919 32.6902 30.2858C30.4873 32.6798 30.6109 35.7818 32.9712 37.2092C35.3314 38.6366 39.0291 37.8499 41.232 35.4559C43.4349 33.0619 43.3113 29.9599 40.9511 28.5325ZM39.3214 34.2983C38.1075 35.6245 36.062 36.0516 34.7582 35.2648C33.4545 34.4781 33.387 32.7697 34.6009 31.4435C35.8147 30.1173 37.8603 29.6902 39.164 30.4769C40.4678 31.2637 40.5352 32.972 39.3214 34.2983Z" fill="#8F8A88"/>
<mask id="mask8_223_2989" style="mask-type:luminance" maskUnits="userSpaceOnUse" x="29" y="24" width="14" height="12">
<path d="M42.3897 30.0269C42.075 29.4312 41.603 28.9254 40.9623 28.5321C38.6021 27.1047 34.9043 27.8914 32.7014 30.2854C31.1055 32.0275 30.7233 34.1404 31.5551 35.7027L29.6556 32.0724C28.8351 30.4989 29.206 28.3859 30.802 26.6551C33.0049 24.2611 36.7026 23.4744 39.0629 24.9018C39.7035 25.2951 40.1868 25.8121 40.4903 26.3966C41.0635 27.4868 41.8165 28.9367 42.3897 30.0269Z" fill="white"/>
</mask>
<g mask="url(#mask8_223_2989)">
<path d="M42.3897 30.0269L40.4903 26.3966C40.1756 25.8009 39.7035 25.2951 39.0629 24.9018C36.7026 23.4744 33.0049 24.2611 30.802 26.6551C29.206 28.3972 28.8239 30.5102 29.6556 32.0724L31.5551 35.7027C30.7346 34.1292 31.1055 32.0162 32.7014 30.2854C34.9043 27.8914 38.6021 27.1047 40.9623 28.5321C41.603 28.9254 42.0862 29.4424 42.3897 30.0269Z" fill="#898482"/>
</g>
<path d="M39.3327 31.8141C37.1299 34.208 33.4321 34.9948 31.0719 33.5674C28.7116 32.14 28.588 29.038 30.7909 26.644C32.9938 24.25 36.6915 23.4633 39.0518 24.8907C41.412 26.3181 41.5356 29.4201 39.3327 31.8141Z" fill="#EE522E"/>
<path d="M41.9964 35.1863L39.9621 31.2975C40.4117 32.1629 40.2094 33.3318 39.3215 34.2871C38.1076 35.6134 36.0621 36.0405 34.7583 35.2537C34.3987 35.0402 34.1402 34.7592 33.9716 34.422L36.0059 38.3108C36.1745 38.6367 36.4442 38.9177 36.7926 39.1425C38.0964 39.9293 40.1419 39.5022 41.3558 38.1759C42.2437 37.2206 42.446 36.0517 41.9964 35.1863Z" fill="#BFB0FE"/>
<path d="M42.3897 30.0271L40.4903 26.3969C41.3107 27.9703 40.9398 30.0833 39.3439 31.8142C37.141 34.2081 33.4432 34.9949 31.083 33.5675C30.4424 33.1741 29.9591 32.6571 29.6556 32.0727L31.5551 35.703C31.8698 36.2986 32.3418 36.8044 32.9824 37.1978C35.3427 38.6252 39.0404 37.8384 41.2433 35.4445C42.8393 33.7024 43.2102 31.5894 42.3897 30.0271Z" fill="#B63416"/>
<path d="M91.9498 21.5884C91.2754 21.8501 90.128 23.3398 89.5945 24.9805C89.1517 26.3191 89.5744 27.3055 89.2422 29.1878C89.0007 30.5265 89.2221 31.6236 89.2221 31.6236C89.2221 31.6236 84.9947 31.8048 83.9479 31.6236C82.9011 31.4424 82.2066 30.7076 81.4215 29.8923C80.5659 29.0066 79.3883 28.6442 78.7642 29.1173C78.2308 29.5199 78.5126 30.5365 78.8749 31.0901C79.6097 32.2074 79.5493 32.4489 80.2338 33.1736C80.5257 33.4756 81.2906 33.999 82.579 33.9084C83.2836 33.8581 84.1894 33.9789 84.894 34.1097C85.5986 34.2406 88.8497 34.9854 90.1481 34.9753C91.2553 34.9753 91.5875 34.1902 92.0102 33.5863C92.9161 32.2879 92.9463 28.6946 93.4596 26.148C93.9729 23.6116 93.2583 22.756 91.9498 21.5884Z" fill="#FFC2B0"/>
<path d="M91.668 21.2764C91.668 21.2764 90.7823 21.5784 89.806 23.7626C88.8296 25.9467 88.6686 29.0871 88.6686 29.0871C88.6686 29.0871 89.8663 29.9829 91.346 30.0836C92.896 30.1842 92.9967 29.8622 93.4295 29.4495C93.4295 29.4495 94.1039 25.2522 94.0435 24.0243C93.973 22.3434 91.668 21.2764 91.668 21.2764Z" fill="#FBBC04"/>
<path d="M28.0025 63.9395C24.5596 63.7053 24.4883 51.4208 24.4883 51.4208L25.018 50.6772C25.018 50.6772 27.045 49.8012 28.6544 53.5599C29.51 55.5665 31.1602 57.7769 31.3537 60.4151C31.4352 61.4541 31.0176 62.3912 30.6102 63.1043C30.111 63.9701 29.4999 64.0516 28.0025 63.9497V63.9395Z" fill="#B63416"/>
<path d="M29.5611 100.182C29.5611 100.182 30.3047 100.997 31.3029 101.965C32.2197 102.861 32.515 103.126 33.3707 103.961C33.8698 104.45 33.4624 104.898 32.5049 104.857C31.6696 104.827 29.775 104.419 28.7156 104.032C27.9618 103.757 26.5765 102.993 25.8737 102.555C25.1708 102.107 25.0282 101.486 25.0282 101.486V99.9884L29.5611 100.182Z" fill="#2A0B88"/>
<path d="M17.7043 102.056C17.7043 102.056 17.8775 103.594 17.9793 105.519C18.0812 107.455 17.8164 109.156 17.2256 109.37C16.6348 109.584 14.9541 109.553 13.9966 106.874C13.0391 104.195 13.6095 101.598 13.6095 101.598L17.7043 102.056Z" fill="#2A0B88"/>
<path d="M15.7995 75.6334C15.443 70.1329 18.4785 67.24 18.4785 67.24C18.234 65.3861 26.8311 67.9836 26.8311 67.9836C26.8311 67.9836 28.6748 77.9457 29.449 83.2017C30.3352 89.1606 29.9481 99.8153 29.9481 99.8153C29.9481 99.8153 29.836 101.109 27.6154 101.099C25.9144 101.099 24.5087 99.7033 24.5087 99.7033L24.3355 87.2762L22.3594 77.4771C22.3594 77.4771 22.0232 86.6243 20.7703 89.2625C18.4785 94.0907 18.4785 102.596 18.4785 102.596C18.4785 102.596 15.5958 103.625 13.6197 102.637C11.6436 101.649 12.0306 100.549 12.0306 100.549C12.0306 100.549 12.5297 93.9481 15.0661 88.2337C15.28 83.8944 15.9523 78.1596 15.7893 75.6334H15.7995Z" fill="#BFB0FE"/>
<path d="M28.0331 70.7337C26.3015 72.5672 23.4188 73.5451 20.9537 73.2904C19.1915 73.1071 17.633 72.3329 16.2172 71.3143C16.482 69.4808 16.6654 67.5862 16.5228 66.5268C16.0338 62.758 15.3004 56.6768 15.4328 55.6888C15.6569 54.0284 19.4258 52.2153 19.4258 52.2153C19.4258 52.2153 22.1048 50.1373 24.8754 51.2374C24.8754 51.2374 27.8396 53.6312 28.1961 57.0232C28.3692 58.7039 27.8599 64.3674 27.8396 68.0853C27.8396 68.7169 27.9109 69.6845 28.0127 70.7337H28.0331Z" fill="#EE522E"/>
<path d="M24.7532 53.1728C24.7532 53.1728 25.5579 54.3034 25.8125 55.4952C26.2913 57.7973 25.181 59.6512 25.181 59.6512C25.181 59.6512 24.03 58.3168 22.8891 57.2778C21.5242 56.0351 20.801 55.1183 20.801 55.1183L24.7532 53.1626V53.1728Z" fill="#B63416"/>
<path d="M24.8041 53.5497C24.8041 53.5497 25.2828 54.8128 25.3949 56.1981C25.5171 57.5732 25.0995 58.5307 25.0995 58.5307C25.0995 58.5307 22.7058 56.2694 21.9214 55.4952C21.4834 55.0572 22.7465 54.6702 23.6734 54.2627C24.4068 53.9368 24.8041 53.5599 24.8041 53.5599V53.5497Z" fill="#FAFAFF"/>
<path d="M23.8364 51.1356L24.0197 53.7432C24.0197 53.7432 23.6734 54.2627 22.7974 55.0063C21.8501 54.7109 19.6702 52.6838 19.6702 52.6838L20.4036 48.6298L23.8466 51.1356H23.8364Z" fill="#EA9C92"/>
<path d="M19.986 44.1785C20.9639 42.9256 23.7854 41.8765 25.6291 44.5962C27.5543 47.4483 25.731 52.1135 24.0503 51.8385C23.103 51.6857 20.974 50.8199 20.0471 49.3022C18.9979 47.5909 19.2322 45.1564 19.9962 44.1785H19.986Z" fill="#FFC2B0"/>
<path d="M23.7447 51.8488L23.6632 54.2629L25.3847 54.9657C25.3847 54.9657 25.4254 52.409 23.7447 51.8488Z" fill="#E4E4FF"/>
<path d="M19.9148 51.2477C19.9148 51.2477 20.2305 52.47 21.4631 53.1729C22.0946 53.5294 23.6735 54.2628 23.6735 54.2628L23.0317 56.2083C23.0317 56.2083 19.1101 54.3137 18.5295 53.183C18.2952 52.7247 18.9471 51.6348 19.9249 51.2579L19.9148 51.2477Z" fill="#E4E4FF"/>
<path d="M26.2505 60.9551L26.4644 64.2452L24.3864 65.4574L24.1624 62.1672L26.2505 60.9551Z" fill="white"/>
<path d="M26.1181 61.2709L26.1384 61.6376L24.366 62.6562L24.3355 62.2895L26.1181 61.2709Z" fill="#C33856"/>
<path d="M25.4866 62.3302L25.6495 64.4795L24.5698 65.1008L24.417 62.9414L25.4866 62.3302Z" fill="#DFDFEA"/>
<path d="M21.5954 61.3218C20.7194 61.6885 20.3018 61.8311 19.4869 62.1672L18.6822 62.4932V64.9277L22.4205 63.9498L21.6056 61.332L21.5954 61.3218Z" fill="#FFC2B0"/>
<path d="M28.6952 59.2642C28.6952 59.2642 26.6682 59.417 24.305 60.1504C22.4002 60.7412 21.3102 61.6987 21.3102 61.6987C21.3102 61.6987 21.6871 63.0738 22.1353 63.6035C22.5835 64.1331 28.9499 64.5202 30.0194 63.8479C31.0889 63.1756 30.9871 59.7429 28.685 59.2642H28.6952Z" fill="#C83A19"/>
<path d="M22.4817 60.9348C22.4817 60.9348 23.266 61.1895 23.3271 62.259C23.378 63.3184 23.2151 63.9397 23.2151 63.9397L21.8298 63.8481C21.8298 63.8481 21.4834 62.5952 21.3204 62.1266C21.1575 61.6682 21.0149 61.5664 21.0149 61.5664L22.4817 60.9348Z" fill="white"/>
<path d="M17.8367 65.6102C17.8367 65.6102 23.8873 61.2811 25.5986 60.3236C27.3098 59.3661 28.1043 59.142 28.1043 59.142C28.1043 59.142 28.6646 59.7226 28.6951 60.7208C28.7257 61.7191 27.8599 63.1044 26.6681 64.3063C25.4559 65.5287 22.176 67.953 20.536 68.1771C19.1609 68.3604 17.8265 65.6102 17.8265 65.6102H17.8367Z" fill="#B63416"/>
<path d="M20.3732 68.2281C19.1101 68.3707 17.4294 67.8308 16.2987 65.7427C15.2495 63.7971 14.8319 62.1979 14.6893 60.2116C14.455 56.9011 14.4856 55.1898 16.0848 54.5277C16.9608 54.762 18.397 56.1473 19.0693 58.9078C19.4971 60.6598 21.1982 65.8038 21.1982 65.8038C21.6057 66.9446 21.7075 68.0753 20.3732 68.2281Z" fill="#B63416"/>
<path d="M26.006 59.8651C26.006 59.8651 26.8718 59.9364 27.3302 60.1299C28.3182 60.5476 28.5933 61.3115 28.5933 61.3115C28.5933 61.3115 29.2655 60.3948 28.6951 59.5289C28.2469 58.8567 27.5135 58.8567 27.2283 58.9381C26.5968 59.1317 26.0162 59.8549 26.0162 59.8549L26.006 59.8651Z" fill="white"/>
<path d="M20.0369 50.5855C20.0369 50.5855 20.536 50.2698 20.5462 49.4039C20.3018 49.0474 19.9045 48.2936 20.312 47.5297C20.5462 47.0917 21.463 47.713 21.463 47.713C21.463 47.713 22.9094 45.9101 24.0197 45.4721C24.8041 46.5926 25.4458 47.2037 26.2912 47.4278C27.1265 47.6519 28.2572 46.837 28.2572 46.837C28.2572 46.837 26.9635 46.8472 26.9635 46.4601C27.5951 46.1749 28.9294 45.1054 28.9294 45.1054C28.9294 45.1054 27.7173 45.2378 26.8922 43.2209C26.4746 42.2023 25.6495 40.7253 22.8891 40.9189C21.4019 41.0207 20.2814 42.8441 20.2814 42.8441C20.2814 42.8441 19.66 42.3144 18.6822 43.5571C17.6432 44.8915 18.1219 46.9593 18.9063 48.0797C19.6906 49.2002 20.0369 50.5753 20.0369 50.5753V50.5855Z" fill="#2A0B88"/>
<path d="M109.467 63.1108C109.894 63.2229 113.032 63.0803 114.173 66.0852C115.313 69.0901 116.281 71.9219 116.668 73.5313C117.055 75.1407 116.495 76.8214 114.173 78.9605C111.85 81.0996 110.791 81.5987 110.791 81.5987C110.791 81.5987 108.387 79.3476 108.01 76.363C107.633 73.3785 109.456 63.1108 109.456 63.1108H109.467Z" fill="#03B073"/>
<path d="M97.2534 115.172C97.834 114.806 101.593 115.855 101.593 115.855L105.647 117.209L105.341 120.255C105.341 120.255 103.905 121.793 101.908 120.449C100.717 119.644 98.4146 118.615 97.559 117.372C96.9274 116.466 96.6931 115.529 97.2737 115.162L97.2534 115.172Z" fill="#2A0B88"/>
<path d="M107.277 109.264C107.857 108.898 111.616 109.947 111.616 109.947L115.67 111.302L115.364 114.347C115.364 114.347 113.928 115.885 111.932 114.541C110.74 113.736 108.438 112.707 107.582 111.465C106.951 110.558 106.716 109.621 107.297 109.254L107.277 109.264Z" fill="#2A0B88"/>
<path d="M112.461 81.3544C112.461 81.3544 114.325 83.1777 114.611 87.0179C114.743 88.7495 113.816 96.1141 113.816 96.1141C113.816 96.1141 115.232 99.9237 115.588 102.379C116.006 105.292 115.904 110.986 115.904 110.986C115.66 111.75 114.875 112.463 113.297 112.351C111.677 112.229 110.526 110.151 110.526 110.151C110.526 110.151 109.966 105.424 109.436 102.297C109.13 100.515 108.794 99.3329 108.621 97.8559C108.55 96.1548 108.377 92.0091 108.377 92.0091C108.377 92.0091 106.431 99.7506 105.81 102.114C107.012 106.056 105.942 116.792 105.83 117.648C103.426 119.542 101.949 117.749 100.951 116.201C101.012 113.818 100.625 109.611 100.544 106.27C100.472 103.642 100.513 102.542 100.472 101.655C100.391 99.9339 101.175 94.7695 101.562 90.8173C102.02 86.203 102.122 82.8721 102.122 82.8721L112.441 81.3544H112.461Z" fill="#6634FA"/>
<path d="M102.927 70.0782C102.112 72.6044 102.846 76.5668 102.784 77.9929C102.693 80.4885 101.623 83.1369 102.051 84.675C102.907 85.5306 105.168 86.59 107.755 86.3353C109.864 86.1316 112.288 84.9704 113.511 82.9026C113.521 82.4951 112.41 80.407 112.655 79.1133C113.235 76.0066 113.684 73.5211 113.765 70.9339C113.816 69.1207 113.765 68.1836 113.011 65.6982C112.675 64.5981 111.422 64.0582 109.945 64.0175C108.835 64.1193 108.204 66.1566 105.433 66.1566C103.498 67.2567 103.701 67.6845 102.927 70.068V70.0782Z" fill="#04C984"/>
<path d="M106.869 66.6659C108.275 66.4113 109.528 65.9733 110.801 65.3723L110.363 62.9072L106.92 63.7221C106.92 63.7221 107.338 65.4843 106.92 66.5641C106.91 66.6048 106.889 66.6354 106.879 66.6761L106.869 66.6659Z" fill="#EA9C92"/>
<path d="M111.595 57.7021C110.893 56.2047 108.265 54.4731 105.759 56.8159C104.231 58.2419 104.139 60.544 104.272 61.9803C104.394 63.2332 105.29 64.4046 106.095 64.5472C107.083 64.7203 109.039 64.2416 110.343 62.9072C111.809 61.4098 112.135 58.8735 111.585 57.7123L111.595 57.7021Z" fill="#FFC2B0"/>
<path d="M111.921 57.3149C111.504 55.3898 110.577 54.2387 108.265 54.7684C107.48 54.9416 107.032 55.1758 106.492 55.2777C105.84 55.3999 105.433 55.0027 105.209 54.7684C105.117 55.3999 105.015 55.675 105.433 56.062C104.75 56.2658 104.282 56.2352 104.282 56.2352C104.282 56.2352 104.75 58.2011 106.584 58.9855C106.645 59.2096 107.114 60.3504 107.226 60.5236C107.613 60.2893 108.051 60.2791 108.244 60.7375C108.509 61.3588 108.142 61.7968 107.602 62.4488C107.205 64.2823 109.772 65.3824 109.772 65.3824C109.772 65.3824 110.964 63.559 112.054 62.3571C113.154 61.1551 113.531 58.5169 111.911 57.3149H111.921Z" fill="#E7AC00"/>
<path d="M108.254 65.1686C106.9 65.8103 105.433 66.1566 105.433 66.1566C105.433 66.1566 107.664 67.2465 109.059 66.6659C109.793 66.3603 110.954 65.7288 111.219 65.3825C111.575 64.9241 110.791 64.1194 110.791 64.1194C110.791 64.1194 109.864 64.4046 108.244 65.1787L108.254 65.1686Z" fill="#03B073"/>
<path d="M88.9109 59.0364C88.9109 59.0364 86.3236 57.4983 85.0707 56.6427C83.8178 55.7768 82.5547 55.0231 82.5038 55.5833C82.4631 55.9908 83.1761 56.3269 83.4409 56.551C83.6956 56.7751 83.8993 56.989 84.0521 57.1112C83.8178 57.7631 83.3085 59.5254 84.4596 60.1365C85.6208 60.7477 87.4645 61.369 87.4645 61.369L88.9109 59.0568V59.0364Z" fill="#FFC2B0"/>
<path d="M105.606 66.9715C104.577 65.8714 102.153 65.0565 100.268 64.2518C98.8831 63.661 95.7764 61.9904 93.5048 60.7477C91.763 59.8004 89.5934 58.9855 89.2063 58.8123C88.7785 58.6188 88.1062 58.4558 87.3932 59.6374C86.9042 60.4319 86.7209 61.4098 87.3932 62.0108C88.208 62.7442 89.8582 63.7119 91.9362 65.4741C92.8326 66.2279 96.8765 68.8865 98.7507 70.2208C100.625 71.5552 103.365 75.3954 104.587 74.5398C105.586 73.8369 106.248 72.1358 106.431 70.4551C106.604 68.9272 106.411 67.8373 105.606 66.9715Z" fill="#03B073"/>
</svg>
