<svg width="128" height="128" viewBox="0 0 128 128" fill="none" xmlns="http://www.w3.org/2000/svg">
<path d="M97.169 33.7331L79.9996 23.7436C73.6001 20.0288 64.7657 20.5594 55.0259 26.1785L72.1953 36.168C81.9663 30.5489 90.8007 30.0183 97.169 33.7331Z" fill="#9491C4"/>
<mask id="mask0_223_3234" style="mask-type:luminance" maskUnits="userSpaceOnUse" x="55" y="21" width="43" height="16">
<path d="M97.169 33.7331L79.9996 23.7436C73.6001 20.0288 64.7657 20.5594 55.0259 26.1785L72.1953 36.168C81.9663 30.5489 90.8007 30.0183 97.169 33.7331Z" fill="white"/>
</mask>
<g mask="url(#mask0_223_3234)">
<path d="M97.1691 33.7336L79.9997 23.7441C76.9092 21.9648 73.2568 21.1531 69.1986 21.4341L86.368 31.4235C90.4262 31.1426 94.0786 31.9543 97.1691 33.7336Z" fill="#6634FA"/>
<path d="M86.368 31.392L69.1986 21.4025C66.8573 21.5586 64.3912 22.0893 61.8002 22.9946L78.9696 32.984C81.5606 32.0787 84.0267 31.5481 86.368 31.392Z" fill="#6634FA"/>
<path d="M78.9694 32.9847L61.8 22.9953C59.6148 23.7757 57.336 24.8059 54.9947 26.1794L72.1641 36.1689C74.4742 34.8266 76.753 33.7651 78.9694 32.9847Z" fill="#6634FA"/>
</g>
<path d="M30.2394 109.341L47.4088 119.33C41.1029 115.678 37.2008 107.874 37.1696 96.8228C37.1072 74.5338 52.7781 47.4061 72.1639 36.1991L54.9945 26.2097C35.6087 37.4167 19.9378 64.5442 20.0002 86.8332C20.0314 97.9153 23.9335 105.688 30.2394 109.341Z" fill="#9491C4"/>
<mask id="mask1_223_3234" style="mask-type:luminance" maskUnits="userSpaceOnUse" x="20" y="26" width="53" height="94">
<path d="M30.2394 109.341L47.4088 119.33C41.1029 115.678 37.2008 107.874 37.1696 96.8228C37.1072 74.5338 52.7781 47.4061 72.1639 36.1991L54.9945 26.2097C35.6087 37.4167 19.9378 64.5442 20.0002 86.8332C20.0314 97.9153 23.9335 105.688 30.2394 109.341Z" fill="white"/>
</mask>
<g mask="url(#mask1_223_3234)">
<path d="M72.1638 36.1668L54.9944 26.1772C54.9944 26.1772 54.7759 26.3021 54.651 26.3645L71.8204 36.354C71.8204 36.354 72.0389 36.2292 72.1638 36.1668Z" fill="#6634FA"/>
<path d="M71.8205 36.3545L54.6511 26.365C52.0289 27.8946 49.5003 29.7365 47.0342 31.7968L64.2036 41.7862C66.6385 39.7259 69.1983 37.8841 71.8205 36.3545Z" fill="#6634FA"/>
<path d="M64.2348 41.7854L47.0654 31.796C44.4744 33.9812 42.0083 36.4161 39.667 39.0696L56.8364 49.0591C59.1777 46.4056 61.6438 43.9706 64.2348 41.7854Z" fill="#6634FA"/>
<path d="M56.8361 49.0912L39.6667 39.1018C34.1725 45.3452 29.4899 52.7436 26.0872 60.4854L43.2566 70.4749C46.6593 62.7331 51.3419 55.3659 56.8361 49.0912Z" fill="#6634FA"/>
<path d="M43.2568 70.443L26.0874 60.4536C24.8075 63.3256 23.715 66.2288 22.8409 69.1632L40.0103 79.1526C40.9156 76.2182 42.0082 73.315 43.2568 70.443Z" fill="#6634FA"/>
<path d="M40.0101 79.1529L22.8407 69.1635C21.9042 72.2227 21.1862 75.2819 20.6867 78.3412L37.8561 88.3307C38.3244 85.3026 39.0424 82.2434 39.9789 79.1841L40.0101 79.1529Z" fill="#6634FA"/>
<path d="M37.8562 88.3L20.6868 78.3105C20.2497 81.1825 20 84.0232 20 86.7704V86.864L37.1694 96.8535V96.7599C37.1694 94.0128 37.3879 91.1719 37.8562 88.3Z" fill="#6634FA"/>
<path d="M37.1694 96.885L20 86.8956C20 89.9549 20.3434 92.7956 20.9053 95.3242L38.0747 105.314C37.4816 102.754 37.1694 99.9443 37.1694 96.885Z" fill="#6634FA"/>
<path d="M38.1061 105.312L20.9367 95.3229C22.4351 101.91 25.7441 106.686 30.2706 109.308L47.44 119.298C42.9135 116.675 39.6045 111.899 38.1061 105.312Z" fill="#6634FA"/>
</g>
<path d="M72.164 36.1682C52.7782 47.3751 37.1072 74.5027 37.1696 96.7917C37.2321 119.081 52.9967 128.071 72.3825 116.864C91.7683 105.657 107.439 78.5297 107.377 56.2407C107.314 33.9517 91.5498 24.9612 72.164 36.1682Z" fill="#BFB0FE"/>
<path d="M72.1952 43.0034C56.0872 52.3061 43.1009 74.8448 43.1321 93.3253C43.1946 111.837 56.2745 119.298 72.3825 109.995C88.4906 100.693 101.477 78.1538 101.446 59.6733C101.383 41.1616 88.3033 33.7007 72.1952 43.0034Z" fill="#E6EFFF"/>
<path d="M98.9796 54.3679L74.2245 77.0628V41.9436L83.3711 39.6023L92.5801 41.9123L98.9796 54.3679Z" fill="#04C984"/>
<path d="M98.2929 61.4539C98.2305 43.785 86.2431 36.1992 71.1341 43.6601C71.4775 43.4416 71.8521 43.2231 72.1955 43.0358C88.3035 33.7331 101.383 41.1939 101.446 59.7057C101.508 78.2174 88.4908 100.725 72.3828 110.028C71.6648 110.434 70.697 110.933 70.0103 111.308C85.6188 101.662 98.3554 79.5598 98.2929 61.4539Z" fill="#6634FA"/>
<path d="M94.8588 57.4268L93.5477 56.6464L70.9777 77.0624L72.2576 77.8115L94.8588 57.4268Z" fill="#EE522E"/>
<path d="M72.2574 77.812L70.9775 77.0629L71.3521 78.3739L72.6633 79.1231L72.2574 77.812Z" fill="#6B60AB"/>
<path d="M94.8587 57.427L72.2576 77.8118L72.6634 79.1228L95.2333 58.7381L94.8587 57.427Z" fill="#DA401C"/>
<path d="M76.8466 72.285L75.2858 71.3797C74.6614 71.0051 73.7873 71.0675 72.8508 71.6294L74.4117 72.5347C75.3794 71.9728 76.2223 71.9416 76.8466 72.285Z" fill="#231F20"/>
<mask id="mask2_223_3234" style="mask-type:luminance" maskUnits="userSpaceOnUse" x="72" y="71" width="5" height="2">
<path d="M76.8466 72.285L75.2858 71.3797C74.6614 71.0051 73.7873 71.0675 72.8508 71.6294L74.4117 72.5347C75.3794 71.9728 76.2223 71.9416 76.8466 72.285Z" fill="white"/>
</mask>
<g mask="url(#mask2_223_3234)">
<path d="M76.8466 72.2856L75.2857 71.3803C74.9736 71.193 74.6302 71.1305 74.2244 71.1617L75.7852 72.067C76.191 72.067 76.5344 72.1295 76.8466 72.2856Z" fill="#2A0B88"/>
<path d="M75.7852 72.0671L74.2243 71.1617C74.0058 71.1617 73.7561 71.2241 73.5063 71.3178L75.0672 72.2231C75.3169 72.1295 75.5667 72.0671 75.7852 72.0671Z" fill="#2A0B88"/>
<path d="M75.0672 72.2226L73.5064 71.3173C73.2879 71.3797 73.0693 71.5046 72.8508 71.6295L74.4117 72.5348C74.6302 72.4099 74.8487 72.285 75.0672 72.2226Z" fill="#2A0B88"/>
</g>
<path d="M70.416 79.7463L71.9769 80.6517C71.3525 80.3083 70.9779 79.5278 70.9779 78.4664C70.9779 76.2812 72.5076 73.6278 74.4118 72.5352L72.8509 71.6299C70.9467 72.7225 69.4171 75.3759 69.4171 77.5611C69.4171 78.6537 69.7917 79.403 70.416 79.7463Z" fill="#231F20"/>
<mask id="mask3_223_3234" style="mask-type:luminance" maskUnits="userSpaceOnUse" x="69" y="71" width="6" height="10">
<path d="M70.416 79.7463L71.9769 80.6517C71.3525 80.3083 70.9779 79.5278 70.9779 78.4664C70.9779 76.2812 72.5076 73.6278 74.4118 72.5352L72.8509 71.6299C70.9467 72.7225 69.4171 75.3759 69.4171 77.5611C69.4171 78.6537 69.7917 79.403 70.416 79.7463Z" fill="white"/>
</mask>
<g mask="url(#mask3_223_3234)">
<path d="M74.3804 72.5351L72.8508 71.6298H72.8196L74.3492 72.5351H74.3804Z" fill="#2A0B88"/>
<path d="M74.3494 72.5351L72.7885 71.6298C72.5388 71.7858 72.289 71.9732 72.0393 72.1605L73.6002 73.0658C73.8499 72.8785 74.0996 72.6912 74.3494 72.5351Z" fill="#2A0B88"/>
<path d="M73.6001 73.0655L72.0393 72.1602C71.7895 72.3787 71.5398 72.6284 71.3213 72.8781L72.8821 73.7834C73.1007 73.5337 73.3504 73.284 73.6001 73.0655Z" fill="#2A0B88"/>
<path d="M72.8823 73.7831L71.3215 72.8778C70.7908 73.5021 70.3225 74.2202 69.9791 74.9694L71.54 75.8747C71.8834 75.1255 72.3204 74.4075 72.8823 73.7831Z" fill="#2A0B88"/>
<path d="M71.571 75.8747L70.0101 74.9694C69.8852 75.2503 69.7916 75.5312 69.6979 75.8122L71.2588 76.7175C71.3524 76.4366 71.4461 76.1556 71.571 75.8747Z" fill="#2A0B88"/>
<path d="M71.2277 76.7176L69.6669 75.8123C69.5732 76.1244 69.5108 76.4054 69.4484 76.7176L71.0092 77.6229C71.0404 77.3419 71.1341 77.0297 71.2277 76.7176Z" fill="#2A0B88"/>
<path d="M71.0404 77.623L69.4795 76.7177C69.4483 76.9986 69.4171 77.2795 69.4171 77.5605L70.978 78.4658C70.978 78.1848 70.978 77.9039 71.0404 77.623Z" fill="#2A0B88"/>
<path d="M70.978 78.4659L69.4171 77.5605C69.4171 77.8727 69.4483 78.1225 69.5108 78.3722L71.0716 79.2775C71.0092 79.0278 70.978 78.7468 70.978 78.4659Z" fill="#2A0B88"/>
<path d="M71.0405 79.2782L69.4797 78.3729C69.6358 79.0285 69.9479 79.4967 70.385 79.7465L71.9458 80.6518C71.5088 80.4021 71.1966 79.9338 71.0405 79.2782Z" fill="#2A0B88"/>
</g>
<path d="M74.3804 72.5348C72.4762 73.6274 70.9465 76.2809 70.9465 78.4661C70.9465 80.6513 72.5074 81.5253 74.3804 80.4327C76.2847 79.3401 77.8143 76.6867 77.8143 74.5015C77.8143 72.3163 76.2534 71.4422 74.3804 72.5348Z" fill="#6634FA"/>
<path d="M73.5686 54.368L72.5385 53.7749L72.6009 72.0993L73.6311 72.6925L73.5686 54.368Z" fill="#B63416"/>
<path d="M75.1294 53.4625L74.0993 52.8695L73.3188 53.3065L74.349 53.8996L75.1294 53.4625Z" fill="#EE522E"/>
<path d="M74.349 53.9L73.3189 53.3069L72.5385 53.7751L73.5686 54.3683L74.349 53.9Z" fill="#EE522E"/>
<path d="M73.5685 54.3677L73.6309 72.6921L75.1605 71.8181L75.1293 53.4624L74.3489 53.8995L73.5685 54.3677Z" fill="#DA401C"/>
<path d="M64.9531 70.2572L63.2361 69.2583L62.2372 70.9752L63.9853 71.9742L64.9531 70.2572Z" fill="#2A0B88"/>
<path d="M64.9534 70.257L63.9857 71.974L86.4307 84.773L87.4297 83.056L64.9534 70.257Z" fill="#6634FA"/>
<path d="M69.7655 25.9684C65.819 23.6929 59.4378 23.6451 55.4436 25.9048L56.1756 25.4911C59.772 23.4701 65.4849 23.5019 69.0335 25.5547C69.2722 25.6979 69.5268 25.8411 69.7655 25.9844V25.9684Z" fill="#B2ADA8"/>
<path d="M72.7731 30.9485C72.7731 29.4527 71.8184 27.9568 69.8769 26.8111C65.9464 24.4559 59.4697 24.3923 55.4277 26.6679C53.3749 27.8295 52.3405 29.3572 52.3246 30.9008V30.1529C52.3246 28.6093 53.359 27.0816 55.4277 25.9199C59.4697 23.6443 65.9464 23.708 69.8769 26.0632C71.8184 27.2248 72.7731 28.7207 72.7731 30.2006V30.9485Z" fill="#B2ADA8"/>
<path d="M69.6859 35.1819C65.644 37.4575 59.1673 37.3939 55.2367 35.0387C51.3062 32.6836 51.3857 28.9439 55.4436 26.6684C59.5015 24.3928 65.9622 24.4564 69.8928 26.8116C73.8234 29.1667 73.7279 32.9063 69.6859 35.1819Z" fill="#B2ADA8"/>
<path d="M69.1448 25.6182C65.6121 23.5017 59.8038 23.454 56.1755 25.4909C52.5473 27.5278 52.4519 30.9014 55.9846 33.0019C59.5173 35.1184 65.3257 35.1661 68.9539 33.1292C72.5821 31.0923 72.6776 27.7187 69.1448 25.6182ZM65.6439 31.156C63.8935 32.1426 61.0927 32.1108 59.39 31.0923C57.6873 30.0739 57.7191 28.4507 59.4855 27.4641C61.236 26.4775 64.0367 26.5093 65.7394 27.5278C67.4421 28.5462 67.4103 30.1694 65.6439 31.156Z" fill="#BFB0FE"/>
<path d="M66.9966 29.3254C66.9966 28.673 66.5829 28.0365 65.7395 27.5273C64.0368 26.5088 61.236 26.477 59.4856 27.4636C58.5944 27.9569 58.1489 28.6253 58.1489 29.2936V22.2918C58.1648 21.6234 58.6263 20.9551 59.5174 20.4618C61.2678 19.4752 64.0686 19.507 65.7713 20.5254C66.6147 21.0187 67.0284 21.6712 67.0284 22.3236C67.0284 24.4242 67.0285 27.2249 67.0125 29.3254H66.9966Z" fill="#B2ADA8"/>
<path d="M69.0175 25.5543C69.2562 25.6975 69.5108 25.8408 69.7495 25.984C69.7973 26.0158 69.845 26.0317 69.8768 26.0635C73.8074 28.4187 73.7278 32.1583 69.6699 34.4339L68.938 33.1449C72.5662 31.108 72.6616 27.7344 69.1289 25.6339L69.0175 25.5702V25.5543Z" fill="#BFB0FE"/>
<path d="M72.7891 30.1853V30.9332C72.7891 32.4768 71.7548 34.0045 69.686 35.1661V34.4182C71.7389 33.2566 72.7732 31.7289 72.7891 30.1853Z" fill="#99A8EA"/>
<path d="M67.0126 22.3242V29.326C66.9967 29.9944 66.5352 30.6628 65.644 31.1561V24.1542C66.5511 23.6609 66.9967 22.9926 67.0126 22.3242Z" fill="#3F13C2"/>
<path d="M55.4435 25.9041L56.1755 25.4904C52.5473 27.5273 52.4518 30.9008 55.9846 33.0014C59.5173 35.1179 65.3256 35.1656 68.9538 33.1287L69.6859 34.4177C65.6439 36.6933 59.1672 36.6296 55.2366 34.2745C51.3061 31.9193 51.4015 28.1797 55.4435 25.9041Z" fill="#BFB0FE"/>
<path d="M52.3404 30.8849V30.137C52.3404 31.6328 53.2952 33.1286 55.2366 34.2744C59.1672 36.6296 65.6439 36.6932 69.6859 34.4176V35.1655C65.628 37.4411 59.1672 37.3775 55.2207 35.0223C53.2793 33.8607 52.3245 32.3648 52.3245 30.8849H52.3404Z" fill="#99A8EA"/>
<path d="M58.133 29.2941V22.2922C58.1489 22.9447 58.5627 23.5812 59.4061 24.0904C61.1088 25.1089 63.9095 25.1407 65.66 24.1541V31.1559C63.8936 32.1425 61.0929 32.1107 59.3742 31.0923C58.5308 30.5989 58.1171 29.9465 58.1171 29.2941H58.133Z" fill="#3F13C2"/>
<path d="M70.2748 17.9956C66.1374 15.5291 59.3584 15.4654 55.1095 17.8365C50.8607 20.2235 50.7652 24.1541 54.8867 26.6206C59.0242 29.0872 65.8032 29.1508 70.0521 26.7798C74.3009 24.3928 74.3964 20.4622 70.2748 17.9956ZM65.66 24.1541C63.9095 25.1407 61.1088 25.1089 59.4061 24.0904C57.7034 23.072 57.7352 21.4488 59.5016 20.4622C61.252 19.4756 64.0528 19.5074 65.7555 20.5259C67.4582 21.5443 67.4264 23.1675 65.66 24.1541Z" fill="#B2ADA8"/>
<path d="M73.3141 22.3399C73.3141 20.7804 72.3116 19.205 70.2747 17.9956C66.1373 15.529 59.3582 15.4653 55.1094 17.8364C52.9452 19.0458 51.8631 20.6531 51.8631 22.2762L51.8949 12.1872C51.8949 10.5641 52.9929 8.95684 55.1412 7.74743C59.39 5.36045 66.185 5.4241 70.3065 7.90656C72.3434 9.11597 73.3459 10.6914 73.3459 12.2509L73.3141 22.3399Z" fill="#B2ADA8"/>
<path d="M73.346 12.2668L73.3142 22.3558C73.3142 23.9789 72.2162 25.5862 70.0679 26.7956L70.0997 16.7066C72.2639 15.4972 73.346 13.8899 73.346 12.2668Z" fill="#B63416"/>
<path d="M70.0838 16.7063C65.835 19.0933 59.04 19.0296 54.9185 16.5472C50.781 14.0806 50.8924 10.15 55.1413 7.76305C59.3901 5.37607 66.1851 5.43973 70.3066 7.9222C74.444 10.3887 74.3326 14.3193 70.0838 16.7063Z" fill="#FFED0E"/>
<path d="M51.8471 22.2763L51.8789 12.1873C51.8789 13.7468 52.8814 15.3222 54.9183 16.5316C59.0558 18.9982 65.8348 19.0618 70.0837 16.6908L70.0518 26.7798C65.803 29.1667 59.0081 29.1031 54.8865 26.6206C52.8496 25.4112 51.8471 23.8358 51.8471 22.2763Z" fill="#B63416"/>
<mask id="mask4_223_3234" style="mask-type:luminance" maskUnits="userSpaceOnUse" x="79" y="16" width="13" height="13">
<path d="M88.8135 28.5942C88.9408 28.2123 88.4634 27.6394 87.3813 27.0029C85.5353 25.9208 82.655 25.0774 80.9364 25.141C80.2203 25.1569 79.8225 25.332 79.727 25.6025L82.655 16.7229C82.7505 16.4524 83.1484 16.2773 83.8644 16.2614C85.5831 16.2137 88.4634 17.0412 90.3093 18.1233C91.3914 18.7598 91.8688 19.3327 91.7415 19.7146C90.8663 22.3721 89.7046 25.9367 88.8135 28.5942Z" fill="white"/>
</mask>
<g mask="url(#mask4_223_3234)">
<path d="M88.8135 28.5944L91.7415 19.7149C91.8688 19.3329 91.3914 18.7601 90.3093 18.1235C88.4634 17.0414 85.5831 16.198 83.8644 16.2617C83.1484 16.2776 82.7505 16.4526 82.655 16.7232L79.727 25.6028C79.8225 25.3322 80.2203 25.1572 80.9364 25.1413C82.655 25.0935 85.5353 25.921 87.3813 27.0031C88.4634 27.6396 88.9408 28.2125 88.8135 28.5944Z" fill="#898482"/>
</g>
<mask id="mask5_223_3234" style="mask-type:luminance" maskUnits="userSpaceOnUse" x="76" y="8" width="24" height="14">
<path d="M97.4862 21.6079C97.7726 20.7485 96.6746 19.4437 94.2399 18.0115C90.0706 15.5608 83.5303 13.6672 79.6316 13.7786C78.0084 13.8263 77.1013 14.2241 76.9104 14.8288L78.6927 9.3865C78.8995 8.76588 79.8066 8.38396 81.4138 8.33622C85.2967 8.22482 91.837 10.1185 96.0222 12.5691C98.4569 14.0013 99.5549 15.3062 99.2685 16.1655C98.7274 17.8046 98.0113 19.9688 97.4862 21.6079Z" fill="white"/>
</mask>
<g mask="url(#mask5_223_3234)">
<path d="M97.4862 21.6079L99.2685 16.1655C99.5549 15.3062 98.4569 14.0013 96.0222 12.5691C91.8529 10.1185 85.3126 8.22482 81.4138 8.33622C79.7907 8.38396 78.8836 8.78179 78.6927 9.3865L76.9104 14.8288C77.1173 14.2082 78.0243 13.8263 79.6316 13.7786C83.5144 13.6672 90.0547 15.5608 94.2399 18.0115C96.6746 19.4437 97.7726 20.7485 97.4862 21.6079Z" fill="#898482"/>
</g>
<path d="M94.2399 18.0118C90.0706 15.5611 83.5303 13.6675 79.6316 13.7788C75.7487 13.8902 75.9715 15.9749 80.1567 18.4255C84.326 20.8761 90.8663 22.7698 94.7651 22.6584C98.6479 22.547 98.4251 20.4624 94.2399 18.0118ZM90.5321 20.176C88.8135 20.2237 85.9332 19.3962 84.0873 18.3141C82.2413 17.232 82.1458 16.309 83.8645 16.2613C85.5831 16.2136 88.4634 17.041 90.3093 18.1232C92.1553 19.2053 92.2508 20.1282 90.5321 20.176Z" fill="#B1ABA8"/>
<path d="M96.5472 17.216C92.6644 17.3274 86.1241 15.4338 81.9389 12.9831C77.7696 10.5325 77.5309 8.44785 81.4137 8.33646C85.2966 8.22507 91.8369 10.1187 96.0221 12.5694C100.191 15.02 100.43 17.1047 96.5472 17.216Z" fill="#FFED0E"/>
<path d="M90.5322 20.1761C88.8135 20.2238 85.9332 19.3963 84.0873 18.3142C83.0052 17.6777 82.5278 17.1048 82.6551 16.7229L79.7271 25.6025C79.5998 25.9844 80.0772 26.5573 81.1593 27.1938C83.0052 28.2759 85.8855 29.1193 87.6041 29.0557C88.3202 29.0397 88.7181 28.8647 88.8135 28.5942L91.7416 19.7146C91.6461 19.9851 91.2483 20.1602 90.5322 20.1761Z" fill="#BFB0FE"/>
<path d="M96.5474 17.2162C92.6646 17.3275 86.1243 15.4339 81.9391 12.9832C79.5044 11.551 78.4063 10.2462 78.6928 9.38684L76.9105 14.8292C76.6241 15.6885 77.7221 16.9934 80.1568 18.4256C84.3261 20.8762 90.8664 22.7699 94.7652 22.6585C96.3883 22.6107 97.2954 22.2129 97.4863 21.6082L99.2686 16.1659C99.0617 16.7865 98.1547 17.1684 96.5474 17.2162Z" fill="#B63416"/>
<mask id="mask6_223_3234" style="mask-type:luminance" maskUnits="userSpaceOnUse" x="37" y="42" width="13" height="10">
<path d="M49.0147 45.3504C48.6964 44.7298 48.1872 44.1888 47.503 43.775C45.0205 42.2792 41.1376 43.1067 38.8302 45.621C37.1434 47.451 36.7615 49.6629 37.6208 51.3179L37.5094 51.1269C36.6501 49.472 37.032 47.26 38.7188 45.43C41.0263 42.9157 44.9091 42.0882 47.3916 43.5841C48.0758 43.9978 48.5691 44.5389 48.9033 45.1595L49.0147 45.3664V45.3504Z" fill="white"/>
</mask>
<g mask="url(#mask6_223_3234)">
<path d="M49.0148 45.351L48.9034 45.1441C48.5851 44.5235 48.0759 43.9824 47.3916 43.5687C44.9091 42.0728 41.0263 42.9003 38.7189 45.4146C37.0321 47.2447 36.6502 49.4566 37.5095 51.1116L37.6209 51.3025C36.7616 49.6476 37.1435 47.4356 38.8303 45.6056C41.1377 43.0913 45.0206 42.2638 47.503 43.7597C48.1873 44.1734 48.6806 44.7144 49.0148 45.3351V45.351Z" fill="#898482"/>
</g>
<path d="M46.5641 50.1562C44.8455 52.034 41.9493 52.6386 40.1034 51.5247C38.2574 50.4108 38.1619 47.992 39.8806 46.1142C41.5992 44.2365 44.4954 43.6318 46.3413 44.7457C48.1873 45.8596 48.2828 48.2784 46.5641 50.1562Z" fill="#8F8A88"/>
<mask id="mask7_223_3234" style="mask-type:luminance" maskUnits="userSpaceOnUse" x="35" y="38" width="13" height="13">
<path d="M47.4712 45.9078C47.2325 45.4463 46.8506 45.0484 46.3573 44.7302C44.5113 43.6163 41.6151 44.221 39.8965 46.0987C38.6394 47.4513 38.3529 49.1063 38.9894 50.3316L36.1091 44.8257C35.4726 43.6003 35.759 41.9454 37.0162 40.5927C38.7348 38.715 41.631 38.1103 43.477 39.2242C43.9862 39.5266 44.3522 39.9244 44.5909 40.4018C45.4502 42.0568 46.6119 44.2528 47.4712 45.9078Z" fill="white"/>
</mask>
<g mask="url(#mask7_223_3234)">
<path d="M47.4712 45.9078L44.5909 40.4018C44.3522 39.9403 43.9703 39.5425 43.477 39.2242C41.631 38.1103 38.7348 38.715 37.0162 40.5927C35.759 41.9454 35.4726 43.6003 36.1091 44.8257L38.9894 50.3316C38.3529 49.1063 38.6394 47.4513 39.8965 46.0987C41.6151 44.221 44.5113 43.6163 46.3573 44.7302C46.8665 45.0325 47.2325 45.4304 47.4712 45.9078Z" fill="#898482"/>
</g>
<path d="M45.9911 36.487C42.6494 34.466 37.4139 35.58 34.2949 38.9695C31.1759 42.359 31.351 46.7511 34.6928 48.7721C38.0345 50.793 43.27 49.6791 46.389 46.2896C49.508 42.9001 49.3329 38.508 45.9911 36.487ZM43.6837 44.6505C41.9651 46.5283 39.0689 47.133 37.223 46.0191C35.377 44.9051 35.2815 42.4863 37.0002 40.6086C38.7188 38.7308 41.615 38.1261 43.4609 39.24C45.3069 40.354 45.4024 42.7728 43.6837 44.6505Z" fill="#8F8A88"/>
<mask id="mask8_223_3234" style="mask-type:luminance" maskUnits="userSpaceOnUse" x="29" y="30" width="20" height="17">
<path d="M48.0281 38.603C47.5825 37.7596 46.9141 37.0435 46.0071 36.4865C42.6653 34.4655 37.4298 35.5794 34.3108 38.969C32.0512 41.4355 31.5101 44.4272 32.6877 46.6391L29.9984 41.4992C28.8367 39.2713 29.3618 36.2796 31.6215 33.829C34.7405 30.4395 39.976 29.3255 43.3177 31.3465C44.2248 31.9035 44.9091 32.6355 45.3387 33.463C46.1503 35.0066 47.2165 37.0594 48.0281 38.603Z" fill="white"/>
</mask>
<g mask="url(#mask8_223_3234)">
<path d="M48.0281 38.603L45.3387 33.463C44.8932 32.6196 44.2248 31.9035 43.3177 31.3465C39.976 29.3255 34.7405 30.4395 31.6215 33.829C29.3618 36.2955 28.8208 39.2872 29.9984 41.4992L32.6877 46.6391C31.526 44.4113 32.0512 41.4196 34.3108 38.969C37.4298 35.5794 42.6653 34.4655 46.0071 36.4865C46.9141 37.0435 47.5984 37.7755 48.0281 38.603Z" fill="#898482"/>
</g>
<path d="M43.6998 41.1333C40.5808 44.5228 35.3454 45.6368 32.0036 43.6158C28.6618 41.5948 28.4868 37.2028 31.6058 33.8132C34.7248 30.4237 39.9602 29.3098 43.302 31.3308C46.6438 33.3518 46.8188 37.7438 43.6998 41.1333Z" fill="#FFED0E"/>
<path d="M47.4713 45.9078L44.591 40.4019C45.2275 41.6272 44.9411 43.2822 43.6839 44.6348C41.9653 46.5125 39.0691 47.1172 37.2231 46.0033C36.7139 45.701 36.3479 45.3031 36.1092 44.8257L38.9895 50.3317C39.2282 50.7932 39.6101 51.191 40.1034 51.5093C41.9494 52.6232 44.8456 52.0185 46.5642 50.1408C47.8214 48.7881 48.1078 47.1332 47.4713 45.9078Z" fill="#BFB0FE"/>
<path d="M48.0281 38.6034L45.3388 33.4634C46.5005 35.6912 45.9753 38.6829 43.7156 41.1336C40.5967 44.5231 35.3612 45.637 32.0194 43.616C31.1124 43.0591 30.4281 42.3271 29.9984 41.4996L32.6878 46.6395C33.1334 47.4829 33.8017 48.199 34.7087 48.756C38.0505 50.777 43.286 49.6631 46.405 46.2735C48.6647 43.807 49.1898 40.8153 48.0281 38.6034Z" fill="#B63416"/>
</svg>
