<svg width="128" height="128" viewBox="0 0 128 128" fill="none" xmlns="http://www.w3.org/2000/svg">
<path d="M91.8549 45.8336L65.9044 30.7519L71.888 27.3013L97.8256 42.383L91.8549 45.8336Z" fill="#508117"/>
<path d="M45.9634 123L20.0129 107.918L20 102.245L45.9376 117.327L45.9634 123Z" fill="#03B073"/>
<path d="M96.908 42.9129L97.0114 77.3025C97.0372 86.8918 91.1958 96.8817 82.8472 101.702L45.9763 122.987L45.9505 117.314L82.8214 96.0287C87.8745 93.108 91.9712 86.013 91.9454 80.2103L91.842 45.8207L96.8951 42.9L96.908 42.9129Z" fill="#038F5E"/>
<path d="M78.0396 6.9078L83.041 4L107.505 56.1982L102.504 59.106L78.0396 6.9078Z" fill="#038F5E"/>
<path d="M82.8214 96.0408L56.8708 80.9591C61.924 78.0383 66.0207 70.9433 65.9949 65.1406L91.9454 80.2224C91.9583 86.0251 87.8615 93.1201 82.8214 96.0408Z" fill="#05EF9D"/>
<path d="M91.9454 80.2227L65.9949 65.1409L65.9044 30.7513L91.8549 45.8331L91.9454 80.2227Z" fill="#05EF9D"/>
<path d="M45.9376 117.326L20 102.245L56.8709 80.9595L82.8214 96.0412L45.9376 117.326Z" fill="#05EF9D"/>
<path d="M78.0396 6.90784L102.504 59.106L53.3815 30.7389L78.0396 6.90784Z" fill="#05EF9D"/>
<path d="M74.3741 64.6423V79.5521L49.0633 105.084L23.8789 79.6731V64.9317L31.8336 55.0358L49.0633 49.2328L61.5951 53.2996L66.3983 54.8621H66.4037V54.8674L74.3741 64.6423Z" fill="#6E5CC8"/>
<path d="M23.877 79.6727L49.0619 105.083V88.5575L23.877 79.6727Z" fill="#3F13C2"/>
<path d="M74.372 79.5507L49.0619 105.083V88.5577L74.372 79.5507Z" fill="#6634FA"/>
<path d="M49.0619 71.6533V88.5577L74.372 79.5507L66.353 66.0327L49.0619 71.6533Z" fill="#3F13C2"/>
<path d="M49.0619 71.6533L31.896 66.0327L23.877 79.6729L49.0619 88.5577V71.6533Z" fill="#6634FA"/>
<path d="M31.8334 55.036L23.877 64.9329V79.6727L31.896 66.0325L31.8334 55.036Z" fill="#3C2DA1"/>
<path d="M66.3998 54.8604L66.3529 66.0325L74.3719 79.5505V64.6428L66.3998 54.8604Z" fill="#6634FA"/>
<path d="M49.0619 71.6534L66.353 66.0328L66.3999 54.8607L49.0619 49.2325L31.8334 55.0363L31.896 66.0328L49.0619 71.6534Z" fill="#BFB0FE"/>
<path d="M76.0387 51.3708L86.6987 57.5257C88.3974 58.5063 89.7872 57.4558 89.7872 55.1916V40.9778C89.7872 38.7136 88.3974 36.0576 86.6987 35.077L76.0387 28.9222C74.3399 27.9416 72.9501 28.9921 72.9501 31.2563V45.4701C72.9501 47.7343 74.3399 50.3903 76.0387 51.3708Z" fill="#EE522E"/>
<path d="M87.8797 54.4279C87.9414 54.5678 88.6912 57.6586 88.6912 57.6586L84.811 59.9229L83.0702 55.286L87.8797 54.4279Z" fill="#EE522E"/>
<path d="M74.1288 28.7096L70.2451 30.9447L71.8681 33.8362L75.1711 31.8693L74.1288 28.7096Z" fill="#EE522E"/>
<path d="M72.198 53.5794L82.8581 59.7344C84.5568 60.7149 85.9466 59.6644 85.9466 57.4002V43.1864C85.9466 40.9222 84.5568 38.2662 82.8581 37.2857L72.198 31.1308C70.4993 30.1502 69.1095 31.2007 69.1095 33.4649V47.6787C69.1095 49.9441 70.4993 52.5989 72.198 53.5794Z" fill="#FFED0E"/>
<path d="M71.7122 41.704L73.7875 44.9828V45.5718L72.2252 44.6697L70.0085 41.1209V40.3309L72.2252 39.343L73.7875 40.2441V40.8205L71.7122 41.704Z" fill="#3F13C2"/>
<path d="M75.7642 48.2419L74.2243 47.3525V46.8766L78.4285 41.0077L79.9567 41.8903V42.3662L75.7642 48.2419Z" fill="#3F13C2"/>
<path d="M80.3946 44.0603L81.9667 44.9682L84.1833 48.5161V49.3061L81.9667 50.294L80.3946 49.386V48.797L82.4806 47.9212L80.3946 44.6367V44.0603Z" fill="#3F13C2"/>
</svg>
