<svg width="128" height="128" viewBox="0 0 128 128" fill="none" xmlns="http://www.w3.org/2000/svg">
<path d="M44.1021 31.2831C41.5174 29.8007 38.5076 30.7891 34.5851 33.0352C26.7398 37.5273 20.2316 47.6533 20.2543 56.5928C20.2543 61.0178 21.4281 64.0996 23.9902 65.5818L10.1495 57.6249C7.58734 56.1652 6.02269 53.0428 6.00006 48.6181C5.97743 39.6783 12.326 28.7847 20.1713 24.2922C24.1164 22.0461 27.6763 21.8438 30.2613 23.3265L44.1021 31.2834V31.2831Z" fill="#6634FA"/>
<path d="M34.0063 32.252C41.8382 27.7727 48.2286 31.3803 48.2541 40.3117C48.2796 49.2268 41.9308 60.1204 34.0988 64.5997C26.2526 69.0873 19.862 65.4797 19.8365 56.5646C19.811 47.6332 26.1598 36.7393 34.0063 32.2517V32.252Z" fill="#3F13C2"/>
<path d="M47.6492 42.9858C47.6695 50.8395 42.0854 60.4294 35.1967 64.3663C28.1475 68.3866 22.622 64.967 22.622 57.3001C22.6017 49.4263 28.2064 39.8361 35.1152 35.8791C42.017 31.891 47.6489 35.2031 47.6489 42.9858H47.6492Z" fill="#2A0B88"/>
<path d="M119.613 106.078C119.327 106.26 119.022 106.462 118.695 106.643C118.695 106.643 118.675 106.966 118.512 107.41V107.43C117.901 109.268 115.312 113.306 104.694 108.5C104.205 108.278 103.655 108.016 103.125 107.753C103.125 107.753 103.145 107.976 103.145 108.319C103.125 109.974 102.758 114.557 98.8653 114.981C94.3613 115.486 68.9468 105.674 66.8884 104.887C66.8068 104.846 66.7662 104.826 66.7662 104.826C66.7662 104.826 66.1343 107.33 63.1385 106.623C60.384 106.016 45.9131 100.542 45.652 100.445C45.652 100.445 42.3503 99.5365 39.7212 95.6197C37.1124 91.7029 28.8583 81.3255 28.8583 81.3255C28.8583 81.3255 27.4929 78.3577 28.0227 75.8138C28.8281 72.0235 28.8249 66.5035 26.8814 63.1348C26.2701 62.0648 25.4345 61.0957 24.3541 60.3688C24.2725 60.3082 22.8663 59.4603 22.7848 59.3796C21.5538 51.5819 27.3644 40.3181 35.1149 35.8791C36.0932 35.3138 37.0306 34.91 37.9477 34.6274C39.2033 34.7441 41.5737 35.302 42.8186 35.9196C42.9706 35.9699 46.111 37.2199 46.2424 37.2722C49.0752 38.3626 52.6826 39.7557 55.3117 40.9266C61.7114 43.7733 70.8825 49.8908 79.5237 57.9261C88.1854 65.9414 96.5617 70.6454 100.047 72.3414C103.41 73.9767 121.874 82.3756 116.168 90.9358C115.964 91.2387 115.719 91.5618 115.454 91.8647C115.454 91.8647 115.699 92.0262 116.106 92.3493H116.127C118.593 94.2269 126.704 101.111 119.612 106.078L119.613 106.078Z" fill="#FDC8B8"/>
<path d="M115.455 91.863C115.455 91.863 115.71 92.0358 116.099 92.3413C111.412 90.4122 93.7971 83.0189 88.0583 78.3528C87.761 78.1111 87.7357 77.6697 87.996 77.3892C88.2382 77.1279 88.6406 77.0992 88.9168 77.3248C94.238 81.6689 110.955 88.7699 116.166 90.9327C115.965 91.2382 115.723 91.5572 115.455 91.863Z" fill="#FFA192"/>
<path d="M119.613 106.069C119.332 106.255 119.023 106.454 118.701 106.64C118.701 106.64 118.674 106.959 118.514 107.411C118.111 103.823 114.556 100.913 110.612 98.0158C106.569 95.0448 88.2823 87.2506 84.6798 85.7297C84.3395 85.586 84.1817 85.1965 84.3262 84.8591C84.4709 84.5208 84.8626 84.3622 85.2038 84.5056C88.8858 86.053 107.193 93.8541 111.417 96.9527C115.2 99.7302 118.661 102.547 119.613 106.069Z" fill="#FFA192"/>
<path d="M103.127 107.757C103.127 107.757 103.14 107.969 103.14 108.328C101.637 105.271 98.2839 100.913 92.7973 99.4243C88.3905 98.2296 77.8926 92.5904 75.2713 91.1605C74.9475 90.984 74.8309 90.5817 75.0093 90.2609C75.1872 89.9416 75.5907 89.8241 75.9139 89.9988C78.4955 91.395 88.9421 96.9937 93.1457 98.1485C99.5848 99.9026 103.26 105.045 104.696 108.501C104.2 108.275 103.663 108.022 103.126 107.757H103.127Z" fill="#FFA192"/>
<path d="M72.7002 63.4783C70.1297 72.3529 53.6221 82.3898 52.5991 83.008C52.9609 82.7237 55.5314 80.5728 56.9037 72.5633C58.3885 63.9109 46.9123 51.4512 46.9123 51.4512C61.5857 59.5032 60.2227 74.2354 60.2227 74.2354C63.1147 71.697 72.7341 64.1624 72.7002 63.4783Z" fill="#FFA192"/>
<path d="M48.3516 78.3328C48.3516 78.3328 49.9714 83.7237 53.0696 85.5444C56.1679 87.3651 66.8808 93.8677 67.511 99.3302C68.1411 104.792 66.7593 104.833 66.7593 104.833L65.6397 104.56C65.6397 104.56 67.406 100.943 64.8853 96.9372C62.3647 92.9316 55.1179 86.1689 47.4508 88.718C47.4508 88.718 49.5513 86.1689 51.2317 86.325C51.2317 86.325 46.207 81.8897 48.3516 78.3331V78.3328Z" fill="#FFA192"/>
<path d="M66.7662 104.826C66.7662 104.826 66.1343 107.33 63.1385 106.623C60.1223 105.916 45.652 100.445 45.652 100.445C45.652 100.445 42.3503 99.5367 39.7212 95.6199C37.1124 91.7031 28.8583 81.3257 28.8583 81.3257C28.8583 81.3257 27.4929 78.3579 28.0227 75.8141C28.2264 74.8047 28.5934 72.4224 28.5322 69.7975C28.9546 74.1646 29.6071 78.0303 31.3447 79.5288C33.872 82.6584 42.7783 95.8217 47.7307 98.6685C52.7035 101.515 66.7659 104.826 66.7659 104.826H66.7662Z" fill="#FFA192"/>
<path d="M66.8933 104.886C66.7996 104.846 66.7593 104.833 66.7593 104.833C66.7593 104.833 66.1422 107.332 63.1373 106.627C61.7154 106.295 57.7447 104.899 53.9482 103.518C53.9885 101.936 54.82 100.594 54.82 100.594C56.4163 97.7902 64.6666 99.6638 66.3165 102.229C66.8533 103.079 66.9873 104.009 66.8933 104.887V104.886Z" fill="#FDE2DA"/>
<path d="M107.955 41.5106V59.3334L77.6987 89.8534L47.5937 59.4781V41.8565L57.1026 30.0271L77.6987 23.0903L92.679 27.9517L98.4206 29.8195H98.427V29.8259L107.955 41.5106Z" fill="#05EF9D"/>
<path d="M47.5912 59.4777L77.6967 89.8521V70.0984L47.5912 59.4777Z" fill="#03B073"/>
<path d="M107.952 59.3317L77.6967 89.8522V70.0985L107.952 59.3317Z" fill="#04C984"/>
<path d="M77.6967 49.8912V70.0985L107.952 59.3316L98.3661 43.1725L77.6967 49.8912Z" fill="#03B073"/>
<path d="M77.6967 49.8912L57.177 43.1725L47.5912 59.4777L77.6967 70.0985V49.8912Z" fill="#04C984"/>
<path d="M57.1021 30.0273L47.5912 41.8579V59.4776L57.177 43.1723L57.1021 30.0273Z" fill="#03B073"/>
<path d="M98.4221 29.8174L98.3661 43.1723L107.952 59.3315V41.5111L98.4221 29.8174Z" fill="#038F5E"/>
<path d="M77.6967 49.8913L98.3662 43.1725L98.4222 29.8176L77.6967 23.0898L57.1021 30.0275L57.177 43.1725L77.6967 49.8913Z" fill="#05EF9D"/>
<path fill-rule="evenodd" clip-rule="evenodd" d="M91.0874 35.3184L91.0874 32.2274L87.7574 37.7658L80.4345 36.7276L80.4345 39.7163L80.6031 41.3709L90.5049 41.0347L91.0874 35.3184Z" fill="#6634FA"/>
<path fill-rule="evenodd" clip-rule="evenodd" d="M91.0874 35.3183L91.0874 32.2274L90.5049 37.9556V41.0347L91.0874 35.3183Z" fill="#3F13C2"/>
<path fill-rule="evenodd" clip-rule="evenodd" d="M80.6031 41.3708L80.6031 38.2862L80.4345 36.7275L80.4345 39.7162L80.6031 41.3708Z" fill="#3F13C2"/>
<path fill-rule="evenodd" clip-rule="evenodd" d="M65.854 36.2415L65.8541 33.1259L90.2154 28.4967L91.1233 30.0416L91.1233 33.1259L66.7619 37.8139L65.854 36.2415Z" fill="#6634FA"/>
<path fill-rule="evenodd" clip-rule="evenodd" d="M65.854 36.2415L65.854 33.126L66.7619 34.7305L66.7619 37.8139L65.854 36.2415Z" fill="#3F13C2"/>
<path fill-rule="evenodd" clip-rule="evenodd" d="M77.558 26.0035L77.558 29.0651L70.7641 29.2692L69.9916 26.1795L76.9434 25.4071L77.558 26.0035Z" fill="#6634FA"/>
<path fill-rule="evenodd" clip-rule="evenodd" d="M69.9916 26.1793L70.764 29.269L70.764 33.4629L69.9916 33.4629L69.9916 26.1793Z" fill="#3F13C2"/>
<path fill-rule="evenodd" clip-rule="evenodd" d="M69.9916 30.0415L69.9916 33.463L66.9051 33.463L66.9019 30.0415L69.9916 30.0415Z" fill="#6634FA"/>
<path fill-rule="evenodd" clip-rule="evenodd" d="M76.9434 24.6346L77.558 25.9753L69.9916 26.1794L69.9916 30.0416H66.9019L67.4875 24.657L76.9434 24.6346Z" fill="#E6EFFF"/>
<path fill-rule="evenodd" clip-rule="evenodd" d="M91.0874 32.2286L88.2213 32.1313L87.7887 36.3769L80.4345 36.6266L80.6031 38.2812L90.5049 37.945L91.0874 32.2286Z" fill="#E6EFFF"/>
<path fill-rule="evenodd" clip-rule="evenodd" d="M65.854 33.1517L90.2154 28.4638L91.1233 30.0362L66.7619 34.7241L65.854 33.1517Z" fill="#E6EFFF"/>
</svg>
