<svg width="128" height="128" viewBox="0 0 128 128" fill="none" xmlns="http://www.w3.org/2000/svg">
<path d="M98.1233 61.4851V71.6641L93.576 67.2382L98.1233 61.4851Z" fill="#2A0B88"/>
<path d="M86.8395 74.1162C67.8704 66.4432 41.1689 69.0626 27.2006 79.9669C13.2323 90.8712 17.2855 105.931 36.2546 113.604C55.2237 121.277 81.9252 118.657 95.8935 107.753C109.863 96.8488 105.81 81.7892 86.8395 74.1162ZM76.0509 99.7264C70.2777 104.233 59.2431 105.316 51.404 102.145C43.5648 98.9742 41.8897 92.7507 47.6618 88.2439C53.4351 83.7372 64.4696 82.6548 72.3087 85.8255C80.1479 88.9962 81.8231 95.2197 76.0509 99.7264Z" fill="#6634FA"/>
<path d="M26.9906 73.5837L24.1141 75.8293L19.2402 79.6343L16.3636 81.8799L22.5355 87.3724L27.7631 83.2923L32.9906 79.211L38.2194 75.1298L26.9906 73.5837Z" fill="#3F13C2"/>
<path d="M106.731 105.84L103.855 108.085L98.981 111.89L96.1045 114.136L84.8758 112.59L90.1045 108.509L95.332 104.427L100.56 100.347L106.731 105.84Z" fill="#6634FA"/>
<path d="M98.1233 73.8592L94.2172 72.2795L87.5985 69.6017L83.6924 68.022L73.8525 71.635L80.9517 74.5059L88.051 77.378L95.1502 80.25L98.1233 73.8592Z" fill="#2A0B88"/>
<path d="M39.4027 119.698L35.4966 118.119L28.878 115.441L24.9719 113.861L27.945 107.472L35.0442 110.342L42.1434 113.214L49.2427 116.087L39.4027 119.698Z" fill="#6634FA"/>
<path d="M62.9752 65.38L58.1798 65.8516L50.0522 66.6487L45.2557 67.1192L42.6621 73.5571L51.3793 72.7027L60.0953 71.8471L68.8124 70.9916L62.9752 65.38Z" fill="#2A0B88"/>
<path d="M77.8394 120.601L73.043 121.072L64.9164 121.869L60.1199 122.34L54.2827 116.728L62.9998 115.873L71.7158 115.018L80.433 114.163L77.8394 120.601Z" fill="#6634FA"/>
<path d="M111.847 94.0544V81.6804L97.8337 82.7313L99.1574 87.6479L100.481 92.5634L101.804 97.48L111.847 94.0544Z" fill="#2A0B88"/>
<path d="M13.9396 103.66L13.2109 100.955L11.977 96.3707L11.2495 93.666L13.2109 88.5798L21.2915 90.2404L22.6152 95.157L23.9378 100.072L25.2616 104.989L13.9396 103.66Z" fill="#6634FA"/>
<path d="M16.3636 69.5061V81.2918L21.141 80.306L23.5134 72.7026L16.3636 69.5061Z" fill="#2A0B88"/>
<path d="M103.767 84.4357V96.8108L111.847 94.0544V81.6804L103.767 84.4357Z" fill="#3F13C2"/>
<path d="M86.8395 61.7412C67.8704 54.0682 41.1689 56.6876 27.2006 67.5919C13.2323 78.4962 17.2854 93.5558 36.2545 101.229C55.2236 108.902 81.9252 106.282 95.8935 95.3781C109.863 84.4749 105.81 69.4142 86.8395 61.7412ZM76.0509 87.3514C70.2776 91.8582 59.2431 92.9406 51.404 89.7699C43.5648 86.5992 41.8897 80.3757 47.6618 75.8689C53.4351 71.3622 64.4696 70.2798 72.3087 73.4505C80.1479 76.6223 81.823 82.8458 76.0509 87.3514Z" fill="#BFB0FE"/>
<path d="M26.9905 61.2097L24.114 63.4552L19.2401 67.2603L16.3636 69.5058L22.5354 74.9984L27.763 70.9171L32.9906 66.8359L38.2193 62.7558L26.9905 61.2097Z" fill="#BFB0FE"/>
<path d="M106.731 93.4646L103.855 95.7101L98.9809 99.5152L96.1044 101.761L84.8757 100.215L90.1044 96.1345L95.332 92.0533L100.56 87.972L106.731 93.4646Z" fill="#BFB0FE"/>
<path d="M98.1233 61.4852L94.2172 59.9044L87.5985 57.2277L83.6924 55.6469L73.8525 59.2599L80.9517 62.1319L88.051 65.0028L95.1502 67.8749L98.1233 61.4852Z" fill="#BFB0FE"/>
<path d="M39.4027 107.324L35.4966 105.744L28.878 103.067L24.9719 101.486L27.945 95.0964L35.0442 97.9685L42.1434 100.839L49.2427 103.711L39.4027 107.324Z" fill="#BFB0FE"/>
<path d="M62.9751 53.006L58.1798 53.4764L50.0521 54.2736L45.2557 54.744L42.6621 61.1831L51.3793 60.3275L60.0953 59.472L68.8124 58.6176L62.9751 53.006Z" fill="#BFB0FE"/>
<path d="M77.8394 108.227L73.043 108.697L64.9164 109.495L60.1199 109.965L54.2827 104.353L62.9998 103.499L71.7158 102.644L80.433 101.788L77.8394 108.227Z" fill="#BFB0FE"/>
<path d="M111.847 81.68L111.118 78.9742L109.884 74.391L109.157 71.6852L97.8336 70.3558L99.1574 75.2724L100.481 80.189L101.804 85.1056L111.847 81.68Z" fill="#BFB0FE"/>
<path d="M13.9396 91.2851L13.2109 88.5793L11.977 83.9961L11.2495 81.2914L21.2915 77.8658L22.6152 82.7813L23.9378 87.6979L25.2615 92.6145L13.9396 91.2851Z" fill="#BFB0FE"/>
<path d="M60.1199 109.965V122.34L77.8394 120.601V108.227L60.1199 109.965Z" fill="#2A0B88"/>
<path d="M96.1045 101.761V114.136L106.731 105.84V93.4646L96.1045 101.761Z" fill="#2A0B88"/>
<path d="M39.4027 107.324V119.698L24.9718 113.861V101.486L39.4027 107.324Z" fill="#2A0B88"/>
<path d="M13.9396 91.2856V103.66L11.2494 93.6658V81.2919L13.9396 91.2856Z" fill="#2A0B88"/>
<path d="M47.3148 116.793V104.419L39.4027 107.324V119.698L47.3148 116.793Z" fill="#3F13C2"/>
<path d="M23.0474 92.3543V104.728L13.9396 103.659V91.2854L23.0474 92.3543Z" fill="#3F13C2"/>
<path d="M55.4246 105.451V117.826L60.12 122.34V109.965L55.4246 105.451Z" fill="#3F13C2"/>
<path d="M77.8394 108.227L79.9255 103.048V115.423L77.8394 120.601V108.227Z" fill="#3F13C2"/>
<path d="M87.0764 100.518V112.893L96.1046 114.136V101.761L87.0764 100.518Z" fill="#3F13C2"/>
<path d="M110.326 52.4507V58.1433L107.783 55.6683L110.326 52.4507Z" fill="#B13726"/>
<path d="M104.015 59.5143C93.4066 55.2238 78.4746 56.6888 70.6628 62.7863C62.8511 68.8848 65.1183 77.3071 75.7257 81.5976C86.3343 85.8891 101.267 84.4242 109.079 78.3256C116.891 72.2282 114.624 63.8059 104.015 59.5143ZM97.9816 73.837C94.7533 76.3567 88.5823 76.9629 84.1981 75.189C79.8138 73.4151 78.8773 69.9353 82.1056 67.4145C85.3338 64.8937 91.5048 64.2886 95.8891 66.0625C100.273 67.8364 101.21 71.3172 97.9816 73.837Z" fill="#B13726"/>
<path d="M70.5457 59.2174L68.9369 60.4736L66.2104 62.6012L64.6016 63.8574L68.0536 66.929L70.9772 64.6468L73.9007 62.3647L76.8243 60.0825L70.5457 59.2174Z" fill="#B13726"/>
<path d="M115.14 77.2566L113.532 78.5127L110.805 80.6404L109.196 81.8965L102.918 81.0314L105.841 78.7493L108.765 76.4671L111.688 74.1849L115.14 77.2566Z" fill="#B13726"/>
<path d="M110.326 59.3717L108.142 58.4874L104.439 56.9905L102.255 56.1062L96.7521 58.1273L100.723 59.7329L104.693 61.3385L108.663 62.9452L110.326 59.3717Z" fill="#B13726"/>
<path d="M77.487 85.006L75.3028 84.1228L71.6004 82.6259L69.4163 81.7415L71.0794 78.1681L75.0493 79.7748L79.019 81.3804L82.9899 82.986L77.487 85.006Z" fill="#B13726"/>
<path d="M90.6695 54.6296L87.9868 54.8928L83.4416 55.3392L80.76 55.6013L79.3099 59.2025L84.1843 58.7241L89.0586 58.2457L93.934 57.7673L90.6695 54.6296Z" fill="#B13726"/>
<path d="M98.9821 85.5114L96.3004 85.7745L91.7552 86.2209L89.0725 86.4841L85.808 83.3464L90.6834 82.868L95.5578 82.3896L100.432 81.9113L98.9821 85.5114Z" fill="#B13726"/>
<path d="M118 70.6656V63.7456L110.164 64.3327L110.904 67.0825L111.644 69.8313L112.384 72.5812L118 70.6656Z" fill="#B13726"/>
<path d="M63.2464 76.0376L62.8394 74.5247L62.149 71.9613L61.742 70.4483L62.8394 67.6036L67.3579 68.5327L68.0983 71.2826L68.8378 74.0314L69.5782 76.7813L63.2464 76.0376Z" fill="#B13726"/>
<path d="M64.6016 56.9371V63.5279L67.2737 62.976L68.6002 58.7239L64.6016 56.9371Z" fill="#EE522E"/>
<path d="M113.483 65.286V72.206L118 70.6653V63.7454L113.483 65.286Z" fill="#B13726"/>
<path d="M104.015 52.5949C93.4066 48.3044 78.4746 49.7694 70.6628 55.8669C62.8511 61.9654 65.1183 70.3876 75.7257 74.6781C86.3343 78.9697 101.267 77.5047 109.079 71.4062C116.891 65.3077 114.624 56.8854 104.015 52.5949ZM97.9816 66.9175C94.7533 69.4373 88.5823 70.0435 84.1981 68.2696C79.8138 66.4967 78.8773 63.0159 82.1056 60.4951C85.3338 57.9753 91.5048 57.3691 95.8891 59.1431C100.273 60.917 101.21 64.3967 97.9816 66.9175Z" fill="#FFED0E"/>
<path d="M70.5457 52.2974L68.9369 53.5535L66.2104 55.6812L64.6016 56.9373L68.0536 60.009L70.9772 57.7257L73.9007 55.4436L76.8243 53.1614L70.5457 52.2974Z" fill="#FFED0E"/>
<path d="M115.14 70.3365L113.532 71.5916L110.805 73.7203L109.196 74.9754L102.918 74.1113L105.841 71.8292L108.765 69.547L111.688 67.2638L115.14 70.3365Z" fill="#FFED0E"/>
<path d="M110.326 52.451L108.142 51.5678L104.439 50.0698L102.255 49.1865L96.7521 51.2066L100.723 52.8133L104.693 54.4189L108.663 56.0245L110.326 52.451Z" fill="#FFED0E"/>
<path d="M77.487 78.0864L75.3028 77.2031L71.6004 75.7051L69.4163 74.8219L71.0794 71.2484L75.0493 72.854L79.019 74.4607L82.9899 76.0663L77.487 78.0864Z" fill="#FFED0E"/>
<path d="M90.6695 47.7096L87.9868 47.9717L83.4416 48.4181L80.76 48.6813L79.3099 52.2824L84.1843 51.8041L89.0586 51.3257L93.934 50.8473L90.6695 47.7096Z" fill="#FFED0E"/>
<path d="M98.9821 78.5913L96.3004 78.8544L91.7552 79.3008L89.0725 79.564L85.808 76.4253L90.6834 75.9469L95.5578 75.4685L100.432 74.9901L98.9821 78.5913Z" fill="#FFED0E"/>
<path d="M118 63.7455L117.593 62.2326L116.903 59.6692L116.496 58.1563L110.164 57.4126L110.904 60.1614L111.644 62.9113L112.384 65.6612L118 63.7455Z" fill="#FFED0E"/>
<path d="M63.2464 69.116L62.8394 67.6031L62.149 65.0397L61.742 63.5278L67.3579 61.6122L68.0983 64.361L68.8378 67.1109L69.5782 69.8597L63.2464 69.116Z" fill="#FFED0E"/>
<path d="M89.0724 79.5639V86.4839L98.982 85.5112V78.5912L89.0724 79.5639Z" fill="#EE522E"/>
<path d="M109.196 74.9752V81.8963L115.14 77.2563V70.3363L109.196 74.9752Z" fill="#EE522E"/>
<path d="M77.487 78.0861V85.0061L69.4163 81.7416V74.8217L77.487 78.0861Z" fill="#EE522E"/>
<path d="M63.2464 69.1163V76.0373L61.742 70.4481V63.5281L63.2464 69.1163Z" fill="#EE522E"/>
<path d="M81.9116 83.3824V76.4613L77.4869 78.0861V85.0061L81.9116 83.3824Z" fill="#B13726"/>
<path d="M68.3402 69.7151V76.6351L63.2464 76.0374V69.1163L68.3402 69.7151Z" fill="#B13726"/>
<path d="M86.4473 77.0389V83.96L89.0725 86.484V79.564L86.4473 77.0389Z" fill="#B13726"/>
<path d="M98.9821 78.5914L100.149 75.6956V82.6156L98.9821 85.5114V78.5914Z" fill="#B13726"/>
<path d="M104.147 74.2802V81.2001L109.196 81.8959V74.9748L104.147 74.2802Z" fill="#B13726"/>
<path d="M43.3523 34.2665L45.9194 32.7869L45.6698 124.025L43.0849 125.522L43.3523 34.2665Z" fill="#038F5E"/>
<path d="M38.343 17.349L43.3523 34.2667L43.0849 125.522L9 105.841L9.2674 14.5858L14.348 3.49756L38.343 17.349Z" fill="#04C984"/>
<path d="M25.2621 46.0427L28.7158 60.3105L39.8923 66.7632L30.8503 69.1285L34.304 83.3963L25.2621 70.5903L16.2202 72.9556L19.6739 62.6758L10.6319 49.8698L21.8084 56.3225L25.2621 46.0427Z" fill="#E6EFFF"/>
<path d="M38.343 17.3489L40.91 15.8514L45.9194 32.7869L43.3523 34.2666L38.343 17.3489Z" fill="#03B073"/>
<path d="M14.348 3.49745L16.9151 2L40.91 15.8514L38.3429 17.3489L14.348 3.49745Z" fill="#03B073"/>
<path d="M35.7402 115.272L16.6299 104.237C14.2411 102.864 12.298 99.1562 12.298 95.9652C12.298 92.7742 14.2411 91.3124 16.6299 92.685L35.7402 103.72C38.129 105.093 40.0722 108.8 40.0722 111.991C40.0722 115.182 38.129 116.644 35.7402 115.272Z" fill="#E6EFFF"/>
<path d="M29.9287 24.3727C29.9287 26.7615 28.253 27.742 26.1673 26.5476C24.0993 25.3532 22.4058 22.4296 22.4058 20.0408C22.4058 17.652 24.0815 16.6715 26.1673 17.8659C28.2352 19.0603 29.9287 21.9839 29.9287 24.3727Z" fill="#E6EFFF"/>
</svg>
