<svg width="128" height="128" viewBox="0 0 128 128" fill="none" xmlns="http://www.w3.org/2000/svg">
<path d="M14.5917 112.721L12.1661 111.314C12.1661 112.705 12.6645 113.682 13.4454 114.129L15.8709 115.536C15.0734 115.072 14.5917 114.096 14.5917 112.721Z" fill="#2A0B88"/>
<path d="M14.5751 107.192L12.1495 105.784L12.1661 111.331L14.5917 112.721L14.5751 107.192Z" fill="#2A0B88"/>
<path d="M89.0021 5.70243L86.5765 4.29515C85.7791 3.83158 84.666 3.8978 83.4366 4.60972L85.8622 6.01699C87.0915 5.30508 88.2046 5.23885 89.0021 5.70243Z" fill="#2A0B88"/>
<path d="M14.4255 52.1758L12.0166 50.7686L12.1495 105.785L14.575 107.192L14.4255 52.1758Z" fill="#2A0B88"/>
<path d="M85.8622 6.01701L83.4367 4.60974L16.4191 43.1691L18.828 44.5763L85.8622 6.01701Z" fill="#2A0B88"/>
<path d="M18.828 44.5762L16.4025 43.1689C13.9604 44.5762 12 47.9702 12 50.7682L14.4255 52.1755C14.4255 49.3775 16.3859 45.9835 18.828 44.5762Z" fill="#2A0B88"/>
<path d="M33.9958 107.49L50.4263 97.9701C51.7719 97.1919 53.4333 97.1919 54.7789 97.9701L70.7276 107.142L73.3525 107.275V109.261C73.3525 109.609 73.1697 109.973 72.8208 110.172L54.7623 120.619C53.4166 121.397 51.7553 121.397 50.4097 120.619L32.3677 110.238C32.0189 110.04 31.8361 109.675 31.8361 109.328V107.357L33.9792 107.473L33.9958 107.49Z" fill="#2A0B88"/>
<path d="M54.7956 96L72.8375 106.381C73.5352 106.778 73.5352 107.805 72.8375 108.202L54.779 118.665C53.4333 119.444 51.772 119.444 50.4263 118.665L32.3844 108.285C31.6866 107.887 31.6866 106.861 32.3844 106.463L50.4429 96C51.7886 95.2218 53.4499 95.2218 54.8122 96H54.7956Z" fill="#6634FA"/>
<path d="M36.6207 110.718L58.4338 98.086L63.8165 69.6094L42.0034 82.2417L36.6207 110.718Z" fill="#3B1BC0"/>
<path d="M59.2146 93.8807L63.8165 69.6094L42.0034 82.2417L37.4348 106.414L59.2146 93.8807Z" fill="#3B1BC0"/>
<path d="M41.1395 79.808L35.4246 110.04L36.6041 110.718L41.9868 82.2417C41.4385 81.6126 41.0897 80.7351 41.1063 80.0067C41.1063 79.9404 41.1063 79.8742 41.1229 79.8245L41.1395 79.808Z" fill="#2A0B88"/>
<path d="M63.4177 66.3973C63.7168 66.2152 64.1321 66.2483 64.5973 66.5132L64.6471 66.5463C65.5442 67.1092 66.242 68.3841 66.1921 69.394C66.1921 69.8741 66.0094 70.2052 65.727 70.3542L43.9138 82.9866C44.1963 82.821 44.3624 82.4899 44.379 82.0263C44.4289 81.0164 43.7145 79.7416 42.834 79.1787L42.7841 79.1456C42.319 78.8807 41.9037 78.8475 41.6046 79.0297L63.4177 66.3973Z" fill="#848B92"/>
<path d="M42.7842 79.1459C41.9702 78.6658 41.2724 78.9638 41.1395 79.8081C41.1395 79.8744 41.1395 79.924 41.1229 79.9903C41.1063 80.7353 41.4551 81.5962 42.0034 82.2253C42.2027 82.4571 42.4353 82.6724 42.6845 82.8214C42.7011 82.8214 42.7344 82.8545 42.751 82.871C43.6149 83.3677 44.3458 82.9869 44.3791 82.0101C44.4289 81.0002 43.7145 79.7254 42.834 79.1624L42.7842 79.1293V79.1459Z" fill="#9FA7B0"/>
<mask id="mask0_229_23392" style="mask-type:luminance" maskUnits="userSpaceOnUse" x="13" y="111" width="4" height="6">
<path d="M14.492 114.742L16.9175 116.149C16.1201 115.685 15.6383 114.708 15.6383 113.334L13.2128 111.927C13.2128 113.318 13.7112 114.295 14.5086 114.742H14.492Z" fill="white"/>
</mask>
<g mask="url(#mask0_229_23392)">
<path d="M15.6218 113.318L13.1962 111.911C13.1962 113.301 13.6946 114.278 14.4921 114.725L16.9176 116.132C16.1201 115.669 15.6384 114.692 15.6384 113.318H15.6218Z" fill="#2A0B88"/>
</g>
<path d="M15.6051 107.787L13.1796 106.397L13.1962 111.926L15.6217 113.317L15.6051 107.787Z" fill="#2A0B88"/>
<path d="M91.4609 64.1456L89.0353 62.7383L13.1796 106.397L15.6051 107.788L91.4609 64.1456Z" fill="#908F90"/>
<path d="M15.6051 107.787V113.317C15.6217 116.115 17.6153 117.241 20.0574 115.834L87.075 77.2744C89.5171 75.8672 91.4775 72.4731 91.4775 69.6751V64.1454L15.6051 107.787Z" fill="#BFB0FE"/>
<path d="M53.4499 88.533C54.6959 87.8211 55.7093 88.384 55.7259 89.8244C55.7259 91.2482 54.7291 93.0032 53.4665 93.7151C52.2205 94.427 51.2071 93.8641 51.1905 92.4237C51.1905 90.9999 52.2039 89.2449 53.4499 88.533Z" fill="#6634FA"/>
<path d="M53.3835 89.1123C54.347 88.5494 55.1445 88.9964 55.1445 90.1057C55.1445 91.215 54.3637 92.5726 53.4001 93.1189C52.4365 93.6818 51.6391 93.2348 51.6391 92.1256C51.6391 91.0163 52.4199 89.6587 53.3835 89.0958V89.1123Z" fill="#BFB0FE"/>
<mask id="mask1_229_23392" style="mask-type:luminance" maskUnits="userSpaceOnUse" x="84" y="4" width="7" height="3">
<path d="M90.0321 6.29837L87.6066 4.8911C86.8092 4.42753 85.6961 4.49375 84.4667 5.20567L86.8923 6.61294C88.1216 5.90102 89.2347 5.8348 90.0321 6.29837Z" fill="white"/>
</mask>
<g mask="url(#mask1_229_23392)">
<path d="M90.0321 6.29837L87.6066 4.8911C86.8092 4.42753 85.6961 4.49375 84.4667 5.20567L86.8923 6.61294C88.1216 5.90102 89.2347 5.8348 90.0321 6.29837Z" fill="#2A0B88"/>
</g>
<path d="M15.4555 52.7715L13.0466 51.3643L13.1795 106.397L15.6051 107.788L15.4555 52.7715Z" fill="#2A0B88"/>
<path d="M86.8922 6.61272L84.4667 5.20544L17.4492 43.7648L19.8581 45.172L86.8922 6.61272Z" fill="#2A0B88"/>
<path d="M19.858 45.172L17.4325 43.7648C14.9904 45.172 13.03 48.5661 13.03 51.3641L15.4556 52.7713C15.4556 49.9733 17.4159 46.5793 19.858 45.172Z" fill="#2A0B88"/>
<mask id="mask2_229_23392" style="mask-type:luminance" maskUnits="userSpaceOnUse" x="13" y="43" width="7" height="10">
<path d="M19.858 45.172L17.4325 43.7648C14.9904 45.172 13.03 48.5661 13.03 51.3641L15.4556 52.7713C15.4556 49.9733 17.4159 46.5793 19.858 45.172Z" fill="white"/>
</mask>
<g mask="url(#mask2_229_23392)">
<path d="M19.858 45.172L17.4325 43.7648C14.9904 45.172 13.03 48.5661 13.03 51.3641L15.4556 52.7713C15.4556 49.9733 17.4159 46.5793 19.858 45.172Z" fill="#2A0B88"/>
</g>
<path d="M19.8581 45.1722C17.4159 46.5794 15.4556 49.9735 15.4556 52.7714L15.6051 107.804L91.4609 64.1621L91.3113 9.12939C91.3113 6.3314 89.3178 5.20558 86.8756 6.61285L19.8581 45.1722Z" fill="#E6EFFF"/>
<path d="M90.0321 9.36129V62.5894L16.9009 104.675V52.3577C16.9009 50.255 18.0306 48.3014 19.858 47.2418L87.8558 8.10302C88.8193 7.54011 90.0321 8.23547 90.0321 9.34473V9.36129Z" fill="#E6EFFF"/>
<path d="M57.653 50.4702C57.653 50.8014 57.6364 51.149 57.6032 51.4967L60.1118 52.9206C59.6799 54.5927 59.0153 56.2815 58.1847 57.8874L54.779 58.798C54.3138 59.4602 53.7988 60.0894 53.2672 60.6688L52.3701 65.0893C51.7388 65.586 51.0908 66.033 50.4263 66.4138C49.7618 66.7946 49.1139 67.0926 48.4826 67.3244L47.5688 63.947C47.0206 63.9966 46.5222 63.947 46.057 63.8145L42.6513 66.8277C41.8041 66.1986 41.1395 65.2715 40.691 64.096L43.183 59.8079C43.1497 59.4934 43.1331 59.1788 43.1331 58.8311C43.1331 58.4834 43.1497 58.1523 43.183 57.8046L40.6744 56.3808C41.1063 54.7086 41.7708 53.0199 42.6015 51.4139L46.0072 50.5034C46.4724 49.8411 46.9874 49.1954 47.519 48.6325L48.4161 44.212C49.0474 43.7153 49.6953 43.2683 50.3599 42.8875C51.0244 42.5067 51.6723 42.2087 52.3036 41.9769L53.2173 45.3544C53.7656 45.3047 54.264 45.3544 54.7457 45.4868L58.1514 42.4736C58.9987 43.1027 59.6632 44.0299 60.1118 45.2054L57.6198 49.4934C57.653 49.808 57.6697 50.1226 57.6697 50.4702H57.653ZM50.3931 58.3344C52.1707 57.3079 53.5994 54.8411 53.5994 52.8047C53.5994 50.7683 52.1541 49.957 50.3765 50.9669C48.5989 51.9934 47.1701 54.4603 47.1701 56.4967C47.1701 58.5331 48.6155 59.3443 50.3931 58.3344Z" fill="#6634FA"/>
<path d="M51.041 75.2053C46.5388 77.8046 42.4021 78.2847 39.4117 76.5629C36.521 74.9072 34.9096 71.2814 34.8431 66.3643C33.5639 67.0927 32.2681 67.7881 30.9556 68.4834C31.4706 73.8476 33.73 77.8874 37.4182 80.0065C39.2124 81.0496 41.2392 81.5628 43.4155 81.5628C46.4059 81.5628 49.6787 80.586 53.0345 78.6655L51.041 75.2218V75.2053Z" fill="#04C984"/>
<path d="M34.8431 66.0995V66.0332C34.8431 54.5598 43.0002 40.5202 53.0512 34.7586C55.7923 33.1858 58.384 32.3911 60.66 32.3911C62.1386 32.3911 63.5009 32.7222 64.6804 33.401C67.6375 35.1063 69.2656 38.848 69.2656 43.9473C69.2656 44.0301 69.2656 44.1129 69.2656 44.2122C70.5781 43.4837 71.8905 42.7553 73.1863 42.0268C72.771 36.3977 70.495 32.1593 66.674 29.9573C62.4044 27.4905 56.8556 27.9872 51.0576 31.315C45.6251 34.4441 40.5581 39.7586 36.7536 46.2817C32.9492 52.8214 30.856 59.8247 30.856 66.0332C30.856 66.7948 30.8892 67.5233 30.9556 68.2352C32.2681 67.5564 33.5639 66.8279 34.8597 66.0995H34.8431Z" fill="#6634FA"/>
<path d="M27.4336 67.4903L32.8495 74.2121L38.2488 61.2651L27.4336 67.4903Z" fill="#6634FA"/>
<path d="M76.7416 43.9141L71.3423 37.1758L65.943 50.1227L76.7416 43.9141Z" fill="#F1522D"/>
<path d="M77.3396 68.5498L85.9452 57.424L77.3396 56.1989V68.5498Z" fill="#04C984"/>
<path d="M20.9877 97.0923V92.5063L78.9843 59.129L80.9945 62.5727L20.9877 97.0923Z" fill="#04C984"/>
<path d="M73.1863 42.2585C71.8739 42.987 70.5448 43.7155 69.2324 44.4605C68.9832 55.8346 60.9258 69.5265 51.041 75.2053L53.0345 78.649C58.467 75.5199 63.5341 70.2054 67.3385 63.6822C71.1429 57.1425 73.2362 50.1393 73.2362 43.9307C73.2362 43.3678 73.2195 42.8049 73.1863 42.2585Z" fill="#F1522D"/>
<path d="M53.0346 78.6493L51.041 75.2056L20.9877 92.5068V97.0928L53.0346 78.6493Z" fill="#F1522D"/>
<path d="M60.2114 53.0033L58.6996 52.1259L61.2082 53.5497L62.72 54.4272L60.2114 53.0033Z" fill="#7A7B7B"/>
<path d="M51.0908 68.8312L49.579 67.9537L48.6653 64.5763L50.1605 65.4538L51.0908 68.8312Z" fill="#05B779"/>
<mask id="mask3_229_23392" style="mask-type:luminance" maskUnits="userSpaceOnUse" x="51" y="51" width="6" height="9">
<path d="M53.7655 51.381L55.2773 52.2585C55.8588 52.5896 56.2076 53.3015 56.2076 54.3114C56.2076 56.3478 54.7789 58.8147 53.0013 59.8412L51.4895 58.9637C53.2671 57.9372 54.6958 55.4704 54.6958 53.4339C54.6958 52.424 54.3304 51.7121 53.7655 51.381Z" fill="white"/>
</mask>
<g mask="url(#mask3_229_23392)">
<path d="M53.0013 59.8412L51.4895 58.9637C53.2671 57.9372 54.6958 55.4704 54.6958 53.4339C54.6958 52.424 54.3304 51.7121 53.7655 51.381L55.2773 52.2585C55.8588 52.5896 56.2076 53.3015 56.2076 54.3114C56.2076 56.3478 54.7789 58.8147 53.0013 59.8412Z" fill="#05B779"/>
</g>
<mask id="mask4_229_23392" style="mask-type:luminance" maskUnits="userSpaceOnUse" x="49" y="58" width="5" height="3">
<path d="M50.7254 60.0562L49.2136 59.1787C49.795 59.5099 50.6091 59.4767 51.5062 58.9635L53.018 59.841C52.1209 60.3542 51.3234 60.4039 50.7254 60.0562Z" fill="white"/>
</mask>
<g mask="url(#mask4_229_23392)">
<path d="M50.7254 60.0562L49.2136 59.1787C49.795 59.5099 50.6091 59.4767 51.5062 58.9635L53.018 59.841C52.1209 60.3542 51.3234 60.4039 50.7254 60.0562Z" fill="#05B779"/>
</g>
<path d="M57.3374 46.9935L55.8422 46.116L59.2313 43.1028L60.7431 43.9803L57.3374 46.9935Z" fill="#05B779"/>
<mask id="mask5_229_23392" style="mask-type:luminance" maskUnits="userSpaceOnUse" x="54" y="45" width="4" height="2">
<path d="M55.8256 46.8611L54.3138 45.9836C54.862 45.9339 55.3604 45.9836 55.8422 46.1161L57.354 46.9935C56.8888 46.8611 56.3738 46.8114 55.8256 46.8611Z" fill="white"/>
</mask>
<g mask="url(#mask5_229_23392)">
<path d="M55.8256 46.8611L54.3138 45.9836C54.862 45.9339 55.3604 45.9836 55.8422 46.1161L57.354 46.9935C56.8888 46.8611 56.3738 46.8114 55.8256 46.8611Z" fill="#038F5E"/>
</g>
<mask id="mask6_229_23392" style="mask-type:luminance" maskUnits="userSpaceOnUse" x="41" y="64" width="5" height="5">
<path d="M45.243 68.3346L43.7312 67.4571C42.8839 66.828 42.2194 65.9008 41.7708 64.7253L43.2826 65.6028C43.7146 66.7783 44.3957 67.7055 45.243 68.3346Z" fill="white"/>
</mask>
<g mask="url(#mask6_229_23392)">
<path d="M45.243 68.3346L43.7312 67.4571C42.8839 66.828 42.2194 65.9008 41.7708 64.7253L43.2826 65.6028C43.7146 66.7783 44.3957 67.7055 45.243 68.3346Z" fill="#05B779"/>
</g>
<path d="M43.2992 65.6027L41.7874 64.7252L44.2794 60.4371L45.7746 61.3146L43.2992 65.6027Z" fill="#038F5E"/>
<mask id="mask7_229_23392" style="mask-type:luminance" maskUnits="userSpaceOnUse" x="44" y="58" width="2" height="4">
<path d="M45.7746 61.3146L44.2628 60.4371C44.2296 60.1226 44.213 59.808 44.213 59.4603C44.213 59.1126 44.2296 58.7815 44.2628 58.4338L45.7746 59.3113C45.7414 59.659 45.7248 60.0067 45.7248 60.3378C45.7248 60.6689 45.7414 61 45.7746 61.3146Z" fill="white"/>
</mask>
<g mask="url(#mask7_229_23392)">
<path d="M45.7746 61.3146L44.2628 60.4371C44.2296 60.1226 44.213 59.808 44.213 59.4603C44.213 59.1126 44.2296 58.7815 44.2628 58.4338L45.7746 59.3113C45.7414 59.659 45.7248 60.0067 45.7248 60.3378C45.7248 60.6689 45.7414 61 45.7746 61.3146Z" fill="#05B779"/>
</g>
<mask id="mask8_229_23392" style="mask-type:luminance" maskUnits="userSpaceOnUse" x="47" y="49" width="4" height="4">
<path d="M48.6154 52.0099L47.1036 51.1324C47.5688 50.4702 48.0838 49.8245 48.6154 49.2616L50.1272 50.1391C49.579 50.7185 49.0806 51.3477 48.6154 52.0099Z" fill="white"/>
</mask>
<g mask="url(#mask8_229_23392)">
<path d="M48.6154 52.0099L47.1036 51.1324C47.5688 50.4702 48.0838 49.8245 48.6154 49.2616L50.1272 50.1391C49.579 50.7185 49.0806 51.3477 48.6154 52.0099Z" fill="#05B779"/>
</g>
<mask id="mask9_229_23392" style="mask-type:luminance" maskUnits="userSpaceOnUse" x="49" y="42" width="6" height="4">
<path d="M51.0244 45.7188L49.5126 44.8413C50.1439 44.3446 50.7918 43.8976 51.4563 43.5168C52.1208 43.136 52.7688 42.838 53.4001 42.6062L54.9119 43.4837C54.2806 43.7155 53.6326 44.0135 52.9681 44.3943C52.3036 44.7751 51.6557 45.2221 51.0244 45.7188Z" fill="white"/>
</mask>
<g mask="url(#mask9_229_23392)">
<path d="M51.0244 45.7188L49.5126 44.8413C50.1439 44.3446 50.7918 43.8976 51.4563 43.5168C52.1208 43.136 52.7688 42.838 53.4001 42.6062L54.9119 43.4837C54.2806 43.7155 53.6326 44.0135 52.9681 44.3943C52.3036 44.7751 51.6557 45.2221 51.0244 45.7188Z" fill="#05B779"/>
</g>
<path d="M50.1272 50.139L48.6154 49.2616L49.5125 44.8411L51.0243 45.7185L50.1272 50.139Z" fill="#038F5E"/>
<path d="M45.2097 52.9207L43.6979 52.0432L47.1036 51.1492L48.6154 52.0101L45.2097 52.9207Z" fill="#038F5E"/>
<mask id="mask10_229_23392" style="mask-type:luminance" maskUnits="userSpaceOnUse" x="41" y="52" width="5" height="6">
<path d="M43.266 57.8875L41.7542 57.0101C42.1862 55.3379 42.8507 53.6492 43.6813 52.0432L45.1931 52.9207C44.3459 54.5266 43.6813 56.2154 43.266 57.8875Z" fill="white"/>
</mask>
<g mask="url(#mask10_229_23392)">
<path d="M43.266 57.8875L41.7542 57.0101C42.1862 55.3379 42.8507 53.6492 43.6813 52.0432L45.1931 52.9207C44.3459 54.5266 43.6813 56.2154 43.266 57.8875Z" fill="#05B779"/>
</g>
<path d="M60.2613 51.977C60.2613 52.3081 60.2447 52.6558 60.2114 53.0034L62.72 54.4273C62.2881 56.0994 61.6235 57.7882 60.7929 59.3941L57.3872 60.3047C56.922 60.967 56.407 61.5961 55.8754 62.1756L54.9783 66.596C54.347 67.0927 53.6991 67.5398 53.0345 67.9205C52.37 68.3013 51.7221 68.5993 51.0908 68.8311L50.1771 65.4537C49.6288 65.5033 49.1304 65.4537 48.6653 65.3212L45.2596 68.3345C44.4123 67.7053 43.7478 66.7782 43.2992 65.6027L45.7912 61.3146C45.758 61.0001 45.7413 60.6855 45.7413 60.3378C45.7413 59.9901 45.758 59.659 45.7912 59.3113L43.2826 57.8875C43.7145 56.2153 44.3791 54.5266 45.2097 52.9207L48.6154 52.0101C49.0806 51.3478 49.5956 50.7021 50.1272 50.1392L51.0243 45.7187C51.6556 45.222 52.3036 44.775 52.9681 44.3942C53.6326 44.0134 54.2805 43.7154 54.9118 43.4836L55.8255 46.8611C56.3738 46.8114 56.8722 46.8611 57.354 46.9935L60.7597 43.9803C61.6069 44.6095 62.2715 45.5366 62.72 46.7121L60.228 51.0001C60.2613 51.3147 60.2779 51.6293 60.2779 51.977H60.2613ZM53.0013 59.8411C54.7789 58.8147 56.2076 56.3478 56.2076 54.3114C56.2076 52.275 54.7623 51.4637 52.9847 52.4736C51.2071 53.5001 49.7783 55.967 49.7783 58.0034C49.7783 60.0398 51.2237 60.8511 53.0013 59.8411Z" fill="#08EC9C"/>
<path d="M104.801 125.569L104.652 125.734C104.652 125.734 104.054 126.165 105.599 126.927C105.864 127.059 106.28 127.258 107.459 127.225C108.639 127.191 109.087 126.364 109.32 125.999C109.769 125.271 110.134 125.172 110.134 125.172L111.081 124.443C111.081 124.443 111.33 123.897 111.264 123.615C111.197 123.334 110.101 123.317 110.101 123.317L108.539 125.072L104.785 125.552L104.801 125.569Z" fill="#2A0B88"/>
<path d="M111.181 126.877C111.181 126.877 111.081 127.009 110.915 127.059C110.699 127.125 110.466 127.026 110.417 126.877C110.35 126.695 110.3 125.453 110.134 125.337C109.935 125.188 109.636 125.453 109.636 125.453C109.636 125.453 110.167 123.847 110.583 123.715C111.015 123.582 111.247 123.996 111.247 123.996C111.247 123.996 111.147 124.311 111.164 124.774C111.164 125.105 111.197 126.794 111.181 126.877Z" fill="#2A0B88"/>
<path d="M106.894 124.261C106.894 124.261 105.732 124.741 105.3 124.841C104.552 125.023 104.502 125.536 104.552 125.917C104.602 126.297 105.981 126.662 106.662 126.827C107.326 126.993 108.257 127.043 108.888 125.784C109.519 124.543 110.084 123.665 110.516 123.599C110.948 123.549 111.297 123.599 111.297 123.599C111.297 123.599 111.38 122.125 110.5 122.307C109.619 122.49 109.104 122.672 109.104 122.672L106.911 124.245L106.894 124.261Z" fill="#2A0B88"/>
<path d="M110.167 120.056C109.171 120.122 108.157 120.221 107.16 120.337C107.343 121.314 108.091 123.251 106.612 124.261C105.383 124.89 106.263 125.321 106.961 125.304C107.227 125.304 107.41 125.205 107.592 124.907C107.875 124.427 108.14 123.814 108.622 123.566C109.935 122.92 110.632 123.003 110.516 122.523C110.466 122.308 110.151 121.38 110.167 120.072V120.056Z" fill="#FDC8B8"/>
<path d="M92.6071 125.817C92.6071 125.817 91.4276 125.271 91.4608 125.569C91.4941 125.867 91.4608 126.099 91.5771 126.264C91.6934 126.413 93.5043 127.87 94.4844 127.788C95.4646 127.705 95.664 127.374 96.0128 126.96C96.3617 126.546 96.6774 126.165 96.8933 126.165C97.1093 126.165 98.1061 126.347 98.6709 125.95C99.2358 125.553 99.2192 125.039 99.2192 125.039L97.9566 125.238L95.5144 126.248L92.6071 125.801V125.817Z" fill="#2A0B88"/>
<path d="M97.0927 125.9C97.0927 125.9 97.425 126.479 97.4582 126.595C97.508 126.711 97.5413 127.821 97.5413 127.92C97.5413 127.97 97.8901 128.019 98.0397 127.986C98.2224 127.953 98.239 127.837 98.239 127.837C98.239 127.837 98.4218 126.33 98.5879 126.066C98.754 125.801 98.8537 125.585 98.8537 125.585C98.8537 125.585 97.724 125.999 97.0927 125.9Z" fill="#2A0B88"/>
<path d="M94.9164 125.254C94.9164 125.254 94.0525 124.956 93.604 125.072C93.1554 125.188 91.627 125.122 91.4775 125.42C91.328 125.718 92.2915 126.132 92.6736 126.397C93.0723 126.662 94.202 127.638 94.9164 127.407C95.6142 127.191 96.0461 125.9 96.8269 125.85C97.6077 125.801 98.2224 125.983 98.8537 125.602C99.485 125.221 99.485 123.45 98.8537 123.632C98.2224 123.814 94.9164 125.271 94.9164 125.271V125.254Z" fill="#2A0B88"/>
<path d="M98.8703 122.059C97.9068 122.109 96.9432 122.125 95.9962 122.125C95.963 122.771 95.7637 123.748 93.7701 125.056C93.1222 125.519 94.0691 126.033 94.6506 125.884C94.7004 125.884 94.7503 125.85 94.8001 125.817C95.3982 125.47 95.5975 124.923 97.0263 124.394C98.455 123.864 99.0365 124.394 98.9202 123.897C98.8869 123.715 98.8703 123.036 98.8537 122.059H98.8703Z" fill="#FDC8B8"/>
<path d="M103.705 87.3738C104.735 87.8705 104.27 85.4533 105.449 88.9798C106.629 92.5062 106.861 92.738 106.928 96.4797C106.994 100.221 107.194 103.963 107.526 105.652C107.858 107.341 103.489 107.821 102.658 107.043C101.827 106.264 99.9004 98.4168 98.9534 96.5956C98.0065 94.791 98.2723 88.7149 98.8371 87.9698C99.402 87.2248 103.705 87.3738 103.705 87.3738Z" fill="#05B779"/>
<path d="M99.5182 89.493C99.5348 89.7744 100.15 89.6585 100.349 91.6122C100.548 93.5658 100.166 95.4863 99.4019 96.4797C98.6377 97.4731 98.8371 101.016 99.053 102.539C99.269 104.062 99.8006 104.493 99.5514 107.39C99.2856 110.288 95.0326 111.446 94.418 109.509C93.8033 107.572 92.0921 101.066 91.4276 96.3638C90.7631 91.6618 91.9426 87.6387 92.0589 87.0923C92.1752 86.546 99.5182 89.493 99.5182 89.493Z" fill="#05EF9D"/>
<path d="M98.5879 104.973C98.6543 105.089 99.4351 103.963 99.5681 106.91C99.701 109.857 99.9169 113.102 99.485 115.983C99.053 118.864 99.1361 121.927 98.9201 122.572C98.7042 123.218 95.5975 123.185 95.4812 122.39C95.3649 121.596 94.3349 112.142 94.3349 107.374C94.3349 102.606 98.5879 104.973 98.5879 104.973Z" fill="#05EF9D"/>
<path d="M107.459 105.221C109.818 111.248 109.486 112.109 109.769 114.692C110.051 117.274 110.333 120.966 110.333 121.496C110.333 122.026 109.17 122.307 108.456 122.208C107.742 122.109 107.293 121.827 107.293 121.827C107.293 121.827 103.173 109.062 102.675 107.043C102.16 105.039 107.459 105.238 107.459 105.238V105.221Z" fill="#05B779"/>
<path d="M99.4684 69.7084C95.1988 69.278 94.8499 69.427 94.6007 69.7084C94.3515 69.9899 92.8564 71.0329 92.7567 76.3475C92.657 81.662 92.4576 84.3937 91.5771 87.109C91.5771 89.9566 93.6704 90.8672 98.1227 91.3639C102.575 91.8606 105.732 90.3705 105.449 88.9633C105.167 87.556 104.535 84.9732 104.668 83.7149C104.801 82.4567 107.011 78.6653 108.174 77.1256C109.337 75.5693 109.486 71.1654 108.174 70.7018C106.861 70.2382 104.635 69.7084 103.256 69.8905C101.877 70.0727 99.4518 69.7084 99.4518 69.7084H99.4684Z" fill="#FFED0E"/>
<path d="M98.3719 69.0296C98.3885 68.8475 98.4052 67.3409 98.2889 67.1588C98.1726 66.9766 97.8071 67.1422 97.1924 66.8442C96.5777 66.5462 96.4614 66.4137 96.4282 64.2283C96.395 62.0429 96.9432 60.9833 97.4084 60.1389C97.8735 59.2946 98.5547 59.0462 99.3355 58.8476C100.116 58.6489 105.034 60.6356 104.02 63.2846C103.007 65.9502 103.456 65.4535 103.206 67.6223C102.957 69.7912 103.223 69.8243 103.157 70.3044C103.09 70.7846 99.9502 70.47 99.0531 70.023L98.156 69.576L98.3886 69.013L98.3719 69.0296Z" fill="#FDC8B8"/>
<path d="M98.2057 65.1059C98.2224 64.9072 98.0562 64.3443 98.538 64.0628C99.0032 63.7814 99.2524 64.4105 99.0364 65.1721C98.8204 65.9337 98.6045 66.3476 98.3553 66.0992C98.0895 65.8509 98.2057 65.1059 98.2057 65.1059Z" fill="#FDC8B8"/>
<path d="M86.0449 63.4337C87.2909 64.9568 89.9158 67.1422 91.3944 67.8045C92.873 68.4667 95.3317 69.0628 95.7803 69.4436C96.2288 69.8244 95.9464 72.0429 94.7004 74.0131C93.4544 75.9832 93.471 75.9005 92.7899 75.7018C92.1087 75.5197 83.5696 67.9701 83.5696 66.1489C83.5696 64.3277 86.0449 63.4171 86.0449 63.4171V63.4337Z" fill="#F1522D"/>
<path d="M79.599 53.1854C79.599 53.1854 78.5358 51.1324 78.6022 50.8344C78.6687 50.5364 78.9843 50.5364 79.3 51.1324C79.6156 51.7285 80.8616 53.4834 80.9945 53.7814C81.1274 54.0794 81.5262 55.0066 81.6092 55.4205C81.6923 55.8344 82.0578 57.1589 82.0578 57.1589C82.0578 57.1589 81.9581 58.0032 81.5096 58.3013C81.061 58.5993 80.2802 58.7979 79.7818 58.1026C79.2668 57.4072 79.0342 57.2417 78.8348 56.6953C78.6355 56.149 78.5192 55.6688 78.5192 55.6688C78.5192 55.6688 78.1703 55.8509 77.8879 55.6688C77.5888 55.4702 77.5722 54.7417 77.6221 54.6589C77.6885 54.5761 78.3198 54.0132 78.3198 54.0132L79.6157 53.1854H79.599Z" fill="#FDC8B8"/>
<path d="M80.2303 57.8377C81.3268 56.8609 81.9415 56.8277 82.1575 57.1258C82.3734 57.4238 86.0449 63.4171 86.0449 63.4171C86.0449 63.4171 86.3938 64.1125 85.6794 64.5429C84.9651 64.9899 84.5331 67.2085 83.5696 66.1489C82.606 65.0727 80.4629 59.8906 80.0642 59.0132C79.6821 58.1357 80.2303 57.8377 80.2303 57.8377Z" fill="#F1522D"/>
<path d="M108.323 70.768C109.436 71.1488 110.45 72.8872 112.028 75.1554C113.606 77.4236 115.799 79.8739 115.999 82.3739C116.048 83.0527 114.852 82.7381 114.337 82.6885C112.958 82.556 111.164 81.0825 111.164 81.0825C111.164 81.0825 108.456 77.8541 108.19 77.109C107.925 76.364 108.323 70.7515 108.323 70.7515V70.768Z" fill="#F1522D"/>
<path d="M112.759 81.0329C113.141 81.1156 116.547 81.9269 115.882 82.6222C115.218 83.3176 113.506 84.6918 110.699 85.801C107.891 86.9103 107.409 87.0759 107.409 87.0759C107.409 87.0759 105.516 86.7447 105.964 85.4368C107.127 84.6255 110.848 81.4633 111.28 81.1488C111.696 80.8342 112.776 81.0163 112.776 81.0163L112.759 81.0329Z" fill="#F1522D"/>
<path d="M107.526 86.6621C107.526 86.6621 106.762 87.0098 106.662 87.4568C106.562 87.9039 106.662 89.4601 106.662 89.4601C106.662 89.4601 106.994 90.0396 106.978 90.5694C106.961 91.0992 106.894 91.9601 106.612 92.225C106.33 92.4899 106.014 92.4071 106.014 92.4071C106.014 92.4071 105.648 91.8277 105.748 90.8509C105.848 89.874 105.084 88.831 104.934 87.9866C104.785 87.1588 104.718 86.5297 104.934 86.1986C105.15 85.884 106.28 85.3211 106.529 85.2052C106.778 85.0893 107.526 86.629 107.526 86.629V86.6621Z" fill="#FDC8B8"/>
<path d="M97.5247 65.0232C97.5247 65.0232 98.5381 64.1291 99.0863 64.1788C99.6346 64.2285 99.7508 64.9735 99.8007 66.5463C99.8505 68.1192 101.528 68.5 102.99 68.2185C104.452 67.9371 105.167 67.4735 105.449 65.1556C105.732 62.8543 106.064 61.2815 104.768 59.6921C103.472 58.1193 101.246 57.7716 99.3355 58.351C97.425 58.9471 97.3253 61.447 97.3752 61.8609C97.425 62.2583 97.724 62.755 97.641 63.4669C97.5579 64.1788 97.5413 65.0232 97.5413 65.0232H97.5247Z" fill="#2A0B88"/>
<path d="M103.306 66.3309C104.535 65.2714 105.599 66.1157 105.698 68.1025C105.798 70.0726 104.087 70.6852 103.306 73.0196C102.542 75.3541 104.635 76.0329 104.635 76.0329C104.635 76.0329 103.123 77.1421 101.096 75.2878C99.0696 73.4335 99.784 70.0395 101.528 68.5329C103.273 67.0263 103.306 66.3475 103.306 66.3475V66.3309Z" fill="#2A0B88"/>
</svg>
