<svg width="128" height="128" viewBox="0 0 128 128" fill="none" xmlns="http://www.w3.org/2000/svg">
<g clip-path="url(#clip0_229_23631)">
<mask id="mask0_229_23631" style="mask-type:luminance" maskUnits="userSpaceOnUse" x="28" y="33" width="27" height="16">
<path d="M47.0272 48.1505L54.7182 44.0776L35.8633 33.1875L28.1725 37.2602L47.0272 48.1505Z" fill="white"/>
</mask>
<g mask="url(#mask0_229_23631)">
<path d="M47.0272 48.1505L54.7182 44.0776L35.8633 33.1875L28.1725 37.2602L47.0272 48.1505Z" fill="#038F5E"/>
</g>
<mask id="mask1_229_23631" style="mask-type:luminance" maskUnits="userSpaceOnUse" x="4" y="45" width="43" height="29">
<path d="M46.8158 65.6226L39.6991 69.6985V73.6509L13.8031 58.6928L4.15619 49.1747L11.6077 45.2862L46.8158 65.6226Z" fill="white"/>
</mask>
<g mask="url(#mask1_229_23631)">
<path d="M46.8158 65.6226L39.6991 69.6985V73.6509L13.8031 58.6928L4.15619 49.1747L11.6077 45.2862L46.8158 65.6226Z" fill="#6634FA"/>
</g>
<mask id="mask2_229_23631" style="mask-type:luminance" maskUnits="userSpaceOnUse" x="39" y="65" width="8" height="17">
<path d="M39.6991 69.7039V81.8447L46.8159 77.65V65.6234L39.6991 69.7039Z" fill="white"/>
</mask>
<g mask="url(#mask2_229_23631)">
<path d="M39.6991 69.7039V81.8447L46.8159 77.65V65.6234L39.6991 69.7039Z" fill="#BFB0FE"/>
</g>
<mask id="mask3_229_23631" style="mask-type:luminance" maskUnits="userSpaceOnUse" x="40" y="8" width="62" height="84">
<path d="M87.3229 89.4971C86.2637 90.0555 85.1771 90.511 84.0742 90.8634C78.7672 92.5775 73.0273 91.9937 67.4869 89.5061V89.7008L46.0081 77.2945V73.4772L46.1204 73.4131L53.1846 69.3006L67.4869 77.5623V77.5646L67.5143 77.5806V77.5234C71.4076 79.7181 75.4821 80.5557 79.2794 79.7433C80.4783 79.4893 81.6496 79.0682 82.7772 78.4754C92.8315 73.1843 95.7137 56.1116 89.2122 40.3434C82.7065 24.5752 69.2802 16.0801 59.2237 21.3713C57.8557 22.0899 56.6227 23.0282 55.5249 24.1496C51.6931 28.0699 49.5494 34.2467 49.3298 41.2795L43.2083 37.7459L40.3099 36.0707C41.1837 26.4175 44.7822 18.078 50.7346 13.0249C51.9514 11.9882 53.2668 11.0911 54.6782 10.3496C69.1681 2.72637 88.2242 14.2653 97.2398 36.121C106.251 57.9768 101.812 81.8762 87.3229 89.4971Z" fill="white"/>
</mask>
<g mask="url(#mask3_229_23631)">
<path d="M87.3229 89.4971C86.2637 90.0555 85.1771 90.511 84.0742 90.8634C78.7672 92.5775 73.0273 91.9937 67.4869 89.5061V89.7008L46.0081 77.2945V73.4772L46.1204 73.4131L53.1846 69.3006L67.4869 77.5623V77.5646L67.5143 77.5806V77.5234C71.4076 79.7181 75.4821 80.5557 79.2794 79.7433C80.4783 79.4893 81.6496 79.0682 82.7772 78.4754C92.8315 73.1843 95.7137 56.1116 89.2122 40.3434C82.7065 24.5752 69.2802 16.0801 59.2237 21.3713C57.8557 22.0899 56.6227 23.0282 55.5249 24.1496C51.6931 28.0699 49.5494 34.2467 49.3298 41.2795L43.2083 37.7459L40.3099 36.0707C41.1837 26.4175 44.7822 18.078 50.7346 13.0249C51.9514 11.9882 53.2668 11.0911 54.6782 10.3496C69.1681 2.72637 88.2242 14.2653 97.2398 36.121C106.251 57.9768 101.812 81.8762 87.3229 89.4971Z" fill="#08EC9C"/>
</g>
<mask id="mask4_229_23631" style="mask-type:luminance" maskUnits="userSpaceOnUse" x="35" y="33" width="20" height="27">
<path d="M45.2909 54.9678L54.7182 44.0775L35.8633 33.1874L37.5999 59.0405L45.2909 54.9678Z" fill="white"/>
</mask>
<g mask="url(#mask4_229_23631)">
<path d="M45.2909 54.9678L54.7182 44.0775L35.8633 33.1874L37.5999 59.0405L45.2909 54.9678Z" fill="#038F5E"/>
</g>
<mask id="mask5_229_23631" style="mask-type:luminance" maskUnits="userSpaceOnUse" x="37" y="37" width="13" height="9">
<path d="M42.1345 45.3245L49.3407 40.9719L42.7144 37.0202L37.1671 42.4555L42.1345 45.3245Z" fill="white"/>
</mask>
<g mask="url(#mask5_229_23631)">
<path d="M42.1345 45.3245L49.3407 40.9719L42.7144 37.0202L37.1671 42.4555L42.1345 45.3245Z" fill="#08EC9C"/>
</g>
<mask id="mask6_229_23631" style="mask-type:luminance" maskUnits="userSpaceOnUse" x="4" y="49" width="36" height="33">
<path d="M4.15619 49.1755L39.6991 69.7039V81.8447L4.15619 61.3141V49.1755Z" fill="white"/>
</mask>
<g mask="url(#mask6_229_23631)">
<path d="M4.15619 49.1755L39.6991 69.7039V81.8447L4.15619 61.3141V49.1755Z" fill="#3B1BC0"/>
</g>
<mask id="mask7_229_23631" style="mask-type:luminance" maskUnits="userSpaceOnUse" x="33" y="12" width="62" height="84">
<path d="M84.0743 90.8635C82.8575 91.9025 81.5396 92.7996 80.1281 93.5411C73.2103 97.1799 65.2519 96.4545 57.8421 92.3213V92.3236L57.3937 92.065C57.2955 92.0055 57.1947 91.9506 57.0942 91.8911L46.0082 85.4877V73.4773L46.1205 73.4132L57.8421 80.1828V80.1942L60.3196 81.6269V81.5674C65.4441 84.4555 70.8815 84.9954 75.5826 82.5217C76.9508 81.8031 78.1836 80.8648 79.2794 79.7434C86.2498 72.6122 87.6363 58.0112 82.0177 44.3874C76.2414 30.386 65.0071 22.122 55.5249 24.1497C54.3285 24.4037 53.1595 24.8248 52.0315 25.4176C47.7012 27.6924 44.7019 32.1505 43.2083 37.746C42.5564 40.1856 42.1901 42.8449 42.1263 45.6324L33.0876 40.4122C34.083 28.6559 39.1018 18.8036 47.4839 14.3936C48.5454 13.8351 49.6295 13.3797 50.7346 13.025C64.7095 8.51425 81.6906 19.909 90.0452 40.165C98.1777 59.8924 95.3548 81.2836 84.0743 90.8635Z" fill="white"/>
</mask>
<g mask="url(#mask7_229_23631)">
<path d="M84.0743 90.8635C82.8575 91.9025 81.5396 92.7996 80.1281 93.5411C73.2103 97.1799 65.2519 96.4545 57.8421 92.3213V92.3236L57.3937 92.065C57.2955 92.0055 57.1947 91.9506 57.0942 91.8911L46.0082 85.4877V73.4773L46.1205 73.4132L57.8421 80.1828V80.1942L60.3196 81.6269V81.5674C65.4441 84.4555 70.8815 84.9954 75.5826 82.5217C76.9508 81.8031 78.1836 80.8648 79.2794 79.7434C86.2498 72.6122 87.6363 58.0112 82.0177 44.3874C76.2414 30.386 65.0071 22.122 55.5249 24.1497C54.3285 24.4037 53.1595 24.8248 52.0315 25.4176C47.7012 27.6924 44.7019 32.1505 43.2083 37.746C42.5564 40.1856 42.1901 42.8449 42.1263 45.6324L33.0876 40.4122C34.083 28.6559 39.1018 18.8036 47.4839 14.3936C48.5454 13.8351 49.6295 13.3797 50.7346 13.025C64.7095 8.51425 81.6906 19.909 90.0452 40.165C98.1777 59.8924 95.3548 81.2836 84.0743 90.8635Z" fill="#05B779"/>
</g>
<mask id="mask8_229_23631" style="mask-type:luminance" maskUnits="userSpaceOnUse" x="28" y="37" width="20" height="23">
<path d="M37.5999 59.0405L47.0272 48.1504L28.1725 37.2601L37.5999 59.0405Z" fill="white"/>
</mask>
<g mask="url(#mask8_229_23631)">
<path d="M37.5999 59.0405L47.0272 48.1504L28.1725 37.2601L37.5999 59.0405Z" fill="#05B779"/>
</g>
<mask id="mask9_229_23631" style="mask-type:luminance" maskUnits="userSpaceOnUse" x="83" y="90" width="30" height="26">
<path d="M112.583 115.398L91.1668 103.065L83.476 94.9715L91.1668 90.9253L112.583 103.258V115.398Z" fill="white"/>
</mask>
<g mask="url(#mask9_229_23631)">
<path d="M112.583 115.398L91.1668 103.065L83.476 94.9715L91.1668 90.9253L112.583 103.258V115.398Z" fill="#F1522D"/>
</g>
<mask id="mask10_229_23631" style="mask-type:luminance" maskUnits="userSpaceOnUse" x="112" y="99" width="14" height="21">
<path d="M126 117.496L112.583 99.2543V119.365L126 117.496Z" fill="white"/>
</mask>
<g mask="url(#mask10_229_23631)">
<path d="M126 117.496L112.583 99.2543V119.365L126 117.496Z" fill="url(#paint0_linear_229_23631)"/>
</g>
<path fill-rule="evenodd" clip-rule="evenodd" d="M118.309 121.392L104.892 103.15L104.892 107.304L83.476 94.9714V107.111L104.892 119.444L104.892 123.261L118.309 121.392Z" fill="#C63B1B"/>
<mask id="mask11_229_23631" style="mask-type:luminance" maskUnits="userSpaceOnUse" x="104" y="99" width="22" height="23">
<path d="M104.892 103.151L112.583 99.2549L126 117.497L118.309 121.393L104.892 103.151Z" fill="white"/>
</mask>
<g mask="url(#mask11_229_23631)">
<path d="M104.892 103.151L112.583 99.2549L126 117.497L118.309 121.393L104.892 103.151Z" fill="#FF6845"/>
</g>
<path d="M53.1711 39.5073L56.3125 38.0044L57.2611 38.4944L56.8045 42.3234L54.807 42.5468L53.1711 39.5073Z" fill="#FF6845"/>
<path d="M66.5995 68.8755L69.7404 67.3726L69.9547 66.3263L66.6885 64.2782L65.2607 65.6942L66.5995 68.8755Z" fill="#FF6845"/>
<path d="M70.1352 56.6951C67.4104 54.3234 65.0881 49.4662 64.9506 45.8505C64.8112 42.2424 66.9072 41.2395 69.6274 43.6127C69.7365 43.7061 69.8408 43.8009 69.9422 43.9018C72.429 46.27 74.5156 50.6341 74.7862 54.0571C74.8015 54.1893 74.8077 54.326 74.8118 54.4573C74.9537 58.0703 72.8575 59.0731 70.1352 56.6951ZM73.8346 66.9288L76.471 68.3123L79.2821 66.9673L78.1445 64.5645C79.1361 63.7155 79.8892 62.4114 80.3108 60.6939L82.0865 62.3249L82.4315 57.4231L80.6574 56.0756C80.5243 53.9268 80.0409 51.6499 79.2805 49.4099L80.7379 48.7723L78.2094 43.4828L76.8785 44.0499C75.7607 41.7233 73.588 39.2054 72.7624 38.4864L72.9806 36.3772L69.0184 33.2206L68.6295 35.3199C67.0357 34.4164 65.9171 34.2388 64.5795 34.3317L63.4332 31.9338L60.5826 33.2977L60.2074 36.0328C59.5227 36.6171 59.9482 37.47 59.5611 39.2036L57.3911 37.4881L57.0441 42.3959L59.1722 43.9915C59.3031 46.1471 59.7208 48.4551 60.4879 50.6977L58.9458 51.371L61.4766 56.6644L63.0182 55.9909C63.0205 55.9952 64.8087 59.5013 67.063 61.5834L66.8616 63.7159L70.8236 66.8725L71.0466 64.6062C71.6126 65.1286 71.8844 67.2403 73.8346 66.9288Z" fill="#C63B1B"/>
<path d="M65.9153 58.7134C63.1903 56.342 60.8681 51.4845 60.7306 47.8688C60.5913 44.2609 62.6874 43.258 65.4074 45.6311C65.5165 45.7247 65.6206 45.8194 65.7224 45.9203C68.2093 48.2883 70.2958 52.6526 70.566 56.0756C70.5818 56.2076 70.588 56.3443 70.5921 56.4759C70.7339 60.0886 68.6378 61.0916 65.9153 58.7134ZM71.0318 67.758L72.2513 70.3306L75.0623 68.9856L73.9247 66.5828C74.9164 65.7338 75.6695 64.43 76.0909 62.7124L77.8665 64.3435L78.2115 59.4416L76.4377 58.0939C76.3043 55.9451 75.8209 53.6685 75.0607 51.4282L76.5182 50.7906L73.9892 45.5013L72.6587 46.0682C71.5408 43.7418 69.3682 41.224 68.5426 40.5049L68.7606 38.3958L64.7987 35.2392L64.4096 37.3385C62.816 36.4347 61.6971 36.2573 60.3595 36.3503L59.2132 33.9523L56.3628 35.3161L57.4172 37.5662C56.7325 38.1507 55.7285 39.4883 55.3412 41.2219L53.1711 39.5066L52.8241 44.4142L54.9523 46.01C55.0831 48.1656 55.5008 50.4736 56.2679 52.716L54.726 53.3893L57.2566 58.6829L58.7985 58.0092C58.8005 58.0135 60.589 61.5198 62.8432 63.6017L62.6417 65.7345L66.6036 68.8911L66.8269 66.6247C67.3926 67.1472 69.0816 68.0695 71.0318 67.758Z" fill="#F1522D"/>
<mask id="mask12_229_23631" style="mask-type:luminance" maskUnits="userSpaceOnUse" x="73" y="43" width="8" height="8">
<path d="M73.9892 45.5019L78.2094 43.4827L80.7379 48.7723L76.5182 50.7913L73.9892 45.5019Z" fill="white"/>
</mask>
<g mask="url(#mask12_229_23631)">
<path d="M73.9892 45.5019L78.2094 43.4827L80.7379 48.7723L76.5182 50.7913L73.9892 45.5019Z" fill="#FF6845"/>
</g>
<mask id="mask13_229_23631" style="mask-type:luminance" maskUnits="userSpaceOnUse" x="73" y="64" width="7" height="5">
<path d="M75.0623 68.9861L79.282 66.9671L78.1352 64.5687L73.9246 66.5833L75.0623 68.9861Z" fill="white"/>
</mask>
<g mask="url(#mask13_229_23631)">
<path d="M75.0623 68.9861L79.282 66.9671L78.1352 64.5687L73.9246 66.5833L75.0623 68.9861Z" fill="#FF6845"/>
</g>
<mask id="mask14_229_23631" style="mask-type:luminance" maskUnits="userSpaceOnUse" x="77" y="57" width="6" height="8">
<path d="M78.2114 59.4421L82.4314 57.4229C82.4314 57.4229 82.2628 62.487 82.0864 62.3248C81.9096 62.1625 77.8665 64.344 77.8665 64.344L78.2114 59.4421Z" fill="white"/>
</mask>
<g mask="url(#mask14_229_23631)">
<path d="M78.2114 59.4421L82.4314 57.4229C82.4314 57.4229 82.2628 62.487 82.0864 62.3248C81.9096 62.1625 77.8665 64.344 77.8665 64.344L78.2114 59.4421Z" fill="#FF6845"/>
</g>
<mask id="mask15_229_23631" style="mask-type:luminance" maskUnits="userSpaceOnUse" x="64" y="33" width="9" height="6">
<path d="M68.7606 38.3965L72.9806 36.3773L69.0185 33.2207L64.7987 35.2399L68.7606 38.3965Z" fill="white"/>
</mask>
<g mask="url(#mask15_229_23631)">
<path d="M68.7606 38.3965L72.9806 36.3773L69.0185 33.2207L64.7987 35.2399L68.7606 38.3965Z" fill="#FF6845"/>
</g>
<mask id="mask16_229_23631" style="mask-type:luminance" maskUnits="userSpaceOnUse" x="59" y="31" width="6" height="6">
<path d="M59.2132 33.9525C59.2132 33.9525 63.4002 31.8649 63.4332 31.9333C63.4657 32.0017 64.5795 34.3313 64.5795 34.3313L60.3595 36.3505L59.2132 33.9525Z" fill="white"/>
</mask>
<g mask="url(#mask16_229_23631)">
<path d="M59.2132 33.9525C59.2132 33.9525 63.4002 31.8649 63.4332 31.9333C63.4657 32.0017 64.5795 34.3313 64.5795 34.3313L60.3595 36.3505L59.2132 33.9525Z" fill="#FF6845"/>
</g>
<path d="M80.9625 76.9977C80.9827 76.5532 80.6999 76.001 80.3295 75.7586L70.1134 69.1252C69.743 68.8827 69.4198 69.0511 69.3996 69.4888L69.2581 72.2028L68.9753 77.5499C68.9551 77.9944 69.2312 78.5466 69.6083 78.789L79.8244 85.4224C80.1948 85.6649 80.518 85.5032 80.5382 85.0588L80.8211 79.7116L80.9625 76.9977Z" fill="#8C1F06"/>
<path d="M69.5949 69.0718L68.8271 69.6779L79.582 86.0559L80.3564 85.47L69.5949 69.0718Z" fill="#8C1F06"/>
<path d="M80.1275 77.6448L79.7032 85.7059C79.683 86.1503 79.3597 86.312 78.9894 86.0695L68.7733 79.4361C68.4029 79.1937 68.12 78.6415 68.1402 78.197L68.5645 70.1359C68.5847 69.6915 68.908 69.5298 69.2784 69.7723L79.4944 76.4057C79.8648 76.6481 80.1477 77.2071 80.1275 77.6448Z" fill="#C63B1B"/>
<path d="M80.1274 77.6448L79.986 80.3588C79.9389 81.2275 79.3126 81.544 78.5852 81.0726L69.6554 75.2743C68.9281 74.8029 68.3759 73.7186 68.423 72.8499L68.5645 70.1359C68.5847 69.6915 68.9079 69.5298 69.2783 69.7723L79.4944 76.4057C79.8648 76.6481 80.1476 77.2071 80.1274 77.6448Z" fill="#F1522D"/>
<path d="M74.2887 79.7121L73.8039 79.3956C73.6355 79.2879 73.5076 79.0319 73.5143 78.8299L73.6288 76.6008L74.7265 77.3147L74.612 79.5438C74.5985 79.7458 74.4571 79.8199 74.2887 79.7121Z" fill="white"/>
<path d="M74.9285 78.4325L73.3392 77.4022C73.2247 77.3281 73.1304 77.153 73.1371 77.0116L73.1573 76.5671C73.1641 76.4257 73.2651 76.3785 73.3863 76.4526L74.9756 77.483C75.0901 77.5571 75.1844 77.7321 75.1776 77.8736L75.1574 78.318C75.1507 78.4595 75.0497 78.5066 74.9285 78.4325Z" fill="white"/>
<path d="M73.4267 70.2507L73.3593 71.5572L72.6926 71.5235L72.7398 70.6548C72.7465 70.5133 72.8206 70.3517 72.9283 70.2238L73.4334 70.2507H73.4267Z" fill="#8C1F06"/>
<path d="M73.2718 71.4088C73.3997 71.4896 73.393 71.6108 73.2583 71.6849C73.1236 71.7522 72.9081 71.7455 72.7869 71.658C72.659 71.5771 72.6657 71.4559 72.8004 71.3819C72.9351 71.3145 73.1506 71.3212 73.2718 71.4088Z" fill="#382C2D"/>
<path d="M73.9116 71.6181L72.8408 70.8975L73.3594 70.0422L74.4503 70.7695L73.9116 71.6181Z" fill="#8C1F06"/>
<path d="M74.5513 71.0117C74.5378 71.2407 74.3695 71.5033 74.1675 71.6044C73.9654 71.7054 73.8105 71.6044 73.824 71.3821C73.8375 71.1532 74.0058 70.8905 74.2079 70.7895C74.4099 70.6885 74.5648 70.7895 74.5513 71.0117Z" fill="#8C1F06"/>
<path d="M73.4671 70.2847C73.4671 70.3521 73.4469 70.4261 73.4132 70.5002C73.3458 70.6618 73.2179 70.81 73.0832 70.8773C72.9889 70.9245 72.9081 70.9312 72.8475 70.8976C72.7734 70.8571 72.733 70.7763 72.7397 70.6551C72.7465 70.5137 72.8206 70.3521 72.9283 70.2241C72.9889 70.1568 73.0563 70.0962 73.1303 70.0625C73.2246 70.0153 73.3054 70.0086 73.366 70.0423L73.3997 70.0625C73.4469 70.1096 73.4738 70.1837 73.4738 70.2847H73.4671Z" fill="#8C1F06"/>
<path d="M73.5548 69.294L72.6725 71.3413L72.9419 72.54C73.319 72.971 73.9992 73.3078 74.7467 73.6243L76.0465 73.0316L76.3832 71.9474L75.9522 69.7251C75.171 69.1459 74.3696 68.9439 73.548 69.3008L73.5548 69.294Z" fill="#FFBB7D"/>
<path opacity="0.1" d="M75.8848 71.2745L75.2383 72.049V72.7696L75.5885 72.5137C75.7568 72.783 75.9117 72.8571 76.0936 72.7696L76.1272 72.48L75.8848 71.2745Z" fill="#2A0B88"/>
<path d="M75.2383 70.587L75.7097 71.4827V72.2975C75.7097 72.7016 76.1946 73.0046 76.336 72.5198L76.5043 71.1998L75.9589 69.7183L75.2383 70.587Z" fill="#FFBB7D"/>
<path d="M76.3831 73.2331L75.3124 72.5192L75.8309 71.6572L76.9219 72.3845L76.3831 73.2331Z" fill="#BFB0FE"/>
<path d="M77.0162 72.6275C77.0027 72.8564 76.8343 73.1191 76.6323 73.2201C76.4303 73.3211 76.2754 73.2201 76.2888 72.9978C76.3023 72.7689 76.4707 72.5062 76.6727 72.4052C76.8747 72.3042 77.0296 72.4052 77.0162 72.6275Z" fill="#BFB0FE"/>
<path d="M75.9386 71.8997C75.9252 72.1286 75.7568 72.3913 75.5548 72.4923C75.3527 72.5933 75.1979 72.4923 75.2113 72.2701C75.2248 72.0411 75.3932 71.7784 75.5952 71.6774C75.7972 71.5764 75.9521 71.6774 75.9386 71.8997Z" fill="#BFB0FE"/>
<path d="M76.3831 73.2331L75.3124 72.5192L75.8309 71.6572L76.9219 72.3845L76.3831 73.2331Z" fill="#8C1F06"/>
<path d="M77.0162 72.6275C77.0027 72.8564 76.8343 73.1191 76.6323 73.2201C76.4303 73.3211 76.2754 73.2201 76.2888 72.9978C76.3023 72.7689 76.4707 72.5062 76.6727 72.4052C76.8747 72.3042 77.0296 72.4052 77.0162 72.6275Z" fill="#8C1F06"/>
<path d="M75.9386 71.8997C75.9252 72.1286 75.7568 72.3913 75.5548 72.4923C75.3527 72.5933 75.1979 72.4923 75.2113 72.2701C75.2248 72.0411 75.3932 71.7784 75.5952 71.6774C75.7972 71.5764 75.9521 71.6774 75.9386 71.8997Z" fill="#8C1F06"/>
<path d="M76.3527 72.5915L76.2839 73.903L76.9497 73.9378L77.0185 72.6264L76.3527 72.5915Z" fill="#8C1F06"/>
<path d="M76.8614 73.7855C76.9893 73.8663 76.9826 73.9875 76.8479 74.0616C76.7132 74.129 76.4977 74.1222 76.3765 74.0347C76.2486 73.9539 76.2553 73.8326 76.39 73.7586C76.5247 73.6912 76.7402 73.698 76.8614 73.7855Z" fill="#8C1F06"/>
<path d="M113.375 73.7052L111.846 71.7589L112.87 74.0553C112.937 74.2237 112.931 74.3517 112.883 74.4325C112.796 74.5739 112.567 74.5402 112.365 74.2641L110.951 71.9946L111.22 74.1631C111.261 74.4123 111.186 74.5335 111.065 74.5537C110.904 74.5806 110.681 74.4123 110.614 74.0755C110.587 73.9409 110.021 71.4761 109.382 71.402C109.24 71.3751 109.132 71.5367 109.038 71.8061C108.903 72.1832 108.802 72.7489 108.688 73.254C108.648 73.4223 108.58 73.5368 108.506 73.6041C108.304 73.786 108.048 73.6445 108.102 73.3078C108.398 71.6512 108.324 70.0484 108.796 69.247C108.782 69.0382 108.836 68.8295 108.944 68.6544C109.247 68.156 109.954 67.9203 110.688 68.6813C111.692 69.6982 112.621 70.8565 113.49 72.1293C113.611 72.2977 113.665 72.4391 113.665 72.5334C113.671 72.6815 113.564 72.7287 113.395 72.6277L113.725 73.1529C113.867 73.3954 113.9 73.6176 113.853 73.7523C113.799 73.9409 113.604 73.9745 113.368 73.6984L113.375 73.7052Z" fill="#FFBB7D"/>
<path opacity="0.15" d="M108.506 73.6107C108.304 73.7925 108.048 73.6511 108.102 73.3144C108.399 71.6577 108.324 70.0549 108.796 69.2535C108.782 69.0448 108.836 68.836 108.944 68.6609C108.755 69.5027 108.614 70.2906 108.728 70.8765C108.459 71.9473 108.217 73.3346 108.5 73.6107H108.506Z" fill="#1D1D1B"/>
<path opacity="0.15" d="M111.072 74.5608C110.91 74.5877 110.688 74.4194 110.621 74.0827C110.594 73.948 110.028 71.4832 109.388 71.4091C109.247 71.3822 109.139 71.5438 109.045 71.8132C109.032 71.335 109.2 70.83 109.806 71.1599C110.473 72.197 110.715 74.0288 111.079 74.5608H111.072Z" fill="#1D1D1B"/>
<path opacity="0.15" d="M112.884 74.4401C112.796 74.5815 112.567 74.5479 112.365 74.2717L110.951 72.0023L111.079 71.5847C111.409 72.5141 112.318 74.1034 112.884 74.4401Z" fill="#1D1D1B"/>
<path opacity="0.15" d="M113.375 73.7056L111.846 71.7594L111.961 71.49C112.352 72.2914 113.267 73.5103 113.86 73.7527C113.806 73.9413 113.611 73.975 113.375 73.6989V73.7056Z" fill="#1D1D1B"/>
<path opacity="0.15" d="M113.402 72.6341L112.56 71.5229C112.971 72.0415 113.362 72.4658 113.678 72.5398C113.685 72.688 113.577 72.7351 113.409 72.6341H113.402Z" fill="#1D1D1B"/>
<path d="M74.1002 59.886L71.696 57.9667C71.4805 56.8623 70.9215 56.0407 69.9248 55.5828C69.2312 55.5828 68.4635 56.5458 67.6486 58.3035C66.7193 58.9971 65.3926 61.5292 66.066 62.1421C67.8304 63.1792 69.0494 61.078 69.5948 60.8019C70.5444 60.7548 71.4266 62.0343 72.2415 62.8424L74.1002 59.886Z" fill="#2A0B88"/>
<path d="M104.748 98.3723C104.748 98.3723 100.97 101.537 99.3609 101.295C97.7446 101.053 97.8052 101.309 97.8052 101.309L96.2227 98.0087L98.2295 95.5708L101.092 97.4564C103.045 97.2342 104.466 97.3891 104.742 98.3723H104.748Z" fill="#2A0B88"/>
<path d="M69.999 61.4484C69.9653 62.0747 70.0798 62.7818 70.3963 63.5428C72.6726 64.452 76.0061 68.1694 79.4204 72.1292C83.5621 73.7118 86.9966 71.6645 89.1786 69.193C90.815 67.3343 91.7444 65.2399 91.7174 64.2769L91.6838 64.2634L82.8348 61.408C81.5216 62.2296 80.7404 63.6102 80.3363 65.4015C78.417 62.2431 75.7502 59.8928 72.356 58.3035C71.1304 58.7277 70.0866 59.8591 69.999 61.4484Z" fill="#6634FA"/>
<g style="mix-blend-mode:multiply" opacity="0.5">
<path d="M69.999 61.4486C69.9653 62.0749 70.0798 62.782 70.3963 63.543C72.6726 64.4522 76.0061 68.1695 79.4204 72.1294C83.5621 73.7119 86.9966 71.6647 89.1786 69.1932C86.5858 68.4995 82.7068 65.3478 80.3363 65.4017C79.5888 66.0078 79.0702 67.523 78.0803 68.1965C75.6761 64.405 74.2147 62.6002 69.999 61.4486Z" fill="#3B1BC0"/>
</g>
<path d="M80.3295 65.4012C81.7841 71.4352 85.158 78.7892 89.2189 84.2104C89.037 88.7022 92.0743 94.1234 96.2496 99.8746C96.7143 99.3089 97.0847 98.6893 97.4348 98.1169C98.014 97.1539 98.5325 96.2986 99.3541 95.9956C97.1924 91.7731 95.1317 85.7795 93.145 81.5233C91.7982 74.762 90.6802 70.5126 88.532 66.4046L82.9155 61.6569L81.4743 63.7513L80.3295 65.4079V65.4012Z" fill="#6634FA"/>
<g style="mix-blend-mode:multiply" opacity="0.5">
<path d="M80.3295 65.4016C81.7841 71.4357 85.158 78.7896 89.2189 84.2108C89.037 88.7027 92.0743 94.1238 96.2496 99.875C96.7143 99.3093 97.0847 98.6898 97.4348 98.1173C93.6232 93.7198 90.9025 88.7229 90.155 82.6619C85.4745 77.0252 83.03 70.5467 81.4743 63.7517L80.3295 65.4084V65.4016Z" fill="#2A0B88"/>
</g>
<path d="M81.2723 62.8426C82.5451 67.7924 88.2626 67.5903 91.7106 64.277C91.7106 64.277 94.364 62.9369 95.731 61.1119C96.0947 60.627 96.3977 60.1286 96.6469 59.6236C96.9096 59.0983 97.1116 58.573 97.2665 58.0544C98.5191 53.8724 96.7681 49.8519 96.7681 49.8519C90.8621 48.9361 89.4007 52.5928 89.4007 52.5928C84.6462 52.4514 82.4104 58.5326 81.6225 61.3947C81.38 62.2702 81.2723 62.8493 81.2723 62.8493V62.8426Z" fill="#FFED0E"/>
<path d="M96.2766 59.226C96.3978 59.354 96.5257 59.4886 96.6537 59.6166C98.0073 60.9972 99.6034 62.4114 100.822 63.1118C102.997 65.8459 107.449 68.7215 108.466 69.368C108.607 69.4488 108.681 69.5027 108.681 69.5027C108.708 69.4219 108.742 69.3411 108.776 69.267C109.099 68.607 109.752 68.3983 110.183 68.3174C106.553 63.2936 102.499 57.1653 100.358 55.3605C100.358 55.3605 99.1252 51.01 96.7682 49.8383L93.9667 56.1282C93.6838 56.2359 94.7748 57.6502 96.2698 59.226H96.2766Z" fill="#FFED0E"/>
<path d="M95.7445 55.078C95.7445 55.078 94.5054 56.371 93.7714 56.7818C93.044 57.1926 89.6566 55.9871 90.9968 52.566L93.9195 50.2831L95.7445 55.078Z" fill="#EDA868"/>
<path d="M94.2024 56.4924L93.6434 58.0615L93.0575 58.1828L92.7814 56.4924H94.2024Z" fill="#6634FA"/>
<path d="M91.549 52.1343C91.549 52.1343 91.2257 55.8046 93.6366 56.4915L92.1349 57.7845C92.1349 57.7845 89.165 55.1783 90.5051 52.3498L91.7577 51.5148L91.8183 51.9256L91.549 52.1343Z" fill="#3B1BC0"/>
<path d="M95.4753 56.1555L94.3035 57.792L93.6435 56.4922L94.9971 55.6033L95.4753 56.1555Z" fill="#3B1BC0"/>
<path d="M99.3609 51.6094C99.3609 51.6094 98.6336 57.0912 96.5729 56.768C94.5189 56.4514 93.374 55.1719 93.5155 53.7105C93.5155 53.7105 91.751 52.761 92.2225 49.6968C92.6939 46.6327 95.9802 46.8617 95.9802 46.8617C95.9802 46.8617 99.3609 48.2287 99.3609 51.6094Z" fill="#FFBB7D"/>
<path d="M99.3609 51.8185C99.2801 52.2293 95.9601 54.1419 94.2024 52.3371L93.8118 53.226L92.97 52.6536L92.1416 53.226L91.8251 51.9263C91.8251 51.9263 91.4884 49.8386 92.3976 48.3907C93.4347 46.734 95.1452 46.5185 96.0274 46.7004C97.583 47.0169 99.9536 48.9025 99.3609 51.8185Z" fill="#2A0B88"/>
<path d="M93.603 53.4211C93.6434 53.1517 93.6771 52.8688 93.5963 52.6062C93.5155 52.3436 93.273 52.1146 92.9969 52.1348C92.741 52.155 92.539 52.3974 92.4918 52.6533C92.4447 52.9092 92.512 53.1719 92.5996 53.4143C92.6602 53.5759 92.7275 53.7443 92.8555 53.8655C92.9834 53.9867 93.1787 54.0474 93.3336 53.9665C93.5222 53.8723 93.5761 53.6298 93.603 53.4211Z" fill="#FFBB7D"/>
<path d="M93.6434 58.0608L93.0575 58.1821C93.0575 58.1821 92.7343 59.1316 91.4615 58.741C89.825 58.2427 89.3536 54.66 85.7979 54L84.7136 54.4781L85.1783 55.5287C88.4579 56.2089 88.9698 59.1047 91.0709 59.502C92.6872 59.8051 93.4212 59.2394 93.6502 58.0541L93.6434 58.0608Z" fill="#6634FA"/>
<path d="M81.2724 62.8424C82.5452 67.7922 88.2627 67.5902 91.7107 64.2769C91.7107 64.2769 94.3641 62.9367 95.7311 61.1117C96.0948 60.6268 96.3978 60.1285 96.647 59.6234C98.0006 61.004 99.5967 62.4182 100.816 63.1186C102.991 65.8527 107.442 68.7283 108.459 69.3748L108.769 69.2738C105.597 66.8292 103.085 64.5193 102.048 62.5057C99.8593 61.4956 98.2767 59.9938 97.2598 58.0476C97.2127 57.9667 97.1723 57.8725 97.1252 57.7849C96.8962 58.2563 96.6066 58.7412 96.2632 59.2261C94.5998 61.5696 91.7646 63.8257 89.8318 64.2095C85.212 65.1658 84.6935 64.2095 83.6631 60.6201L81.6091 61.3878C81.3667 62.2633 81.2589 62.8424 81.2589 62.8424H81.2724Z" fill="#F1522D"/>
<path d="M86.8484 61.3338C86.8484 61.3338 81.3599 62.8961 79.3597 62.2901L75.8915 69.873C74.9487 70.0548 74.1271 69.9403 73.5143 69.3275C73.5143 69.3275 74.5648 60.2832 77.0768 58.7343C79.5887 57.1786 82.8482 55.7307 85.946 55.8924C87.4612 57.5356 89.0101 60.8354 86.8484 61.3405V61.3338Z" fill="#FFED0E"/>
</g>
<defs>
<linearGradient id="paint0_linear_229_23631" x1="112.583" y1="109.31" x2="126" y2="109.31" gradientUnits="userSpaceOnUse">
<stop stop-color="#E9BB5E"/>
<stop offset="0.999999" stop-color="#DE862E"/>
<stop offset="1" stop-color="#DE862E"/>
</linearGradient>
<clipPath id="clip0_229_23631">
<rect width="128" height="128" fill="white"/>
</clipPath>
</defs>
</svg>
