<svg width="128" height="128" viewBox="0 0 128 128" fill="none" xmlns="http://www.w3.org/2000/svg">
<g clip-path="url(#clip0_216_225)">
<path d="M13.1585 70.2459C9.38625 75.7531 8.51851 81.7696 10.665 87.5345C12.8116 93.2995 17.8759 98.554 25.2178 102.634C32.5596 106.713 41.8491 109.435 51.9115 110.454C61.974 111.473 72.3575 110.744 81.749 108.359" stroke="#6634FA" stroke-width="6"/>
<ellipse cx="5.88936" cy="5.93576" rx="5.88936" ry="5.93576" transform="matrix(-0.902877 -0.477777 -0.828147 0.520952 91.7625 107.732)" fill="#BFB0FE"/>
<ellipse cx="5.88936" cy="5.93576" rx="5.88936" ry="5.93576" transform="matrix(-0.902877 -0.477777 -0.828147 0.520952 23.2433 69.3047)" fill="#BFB0FE"/>
<path d="M47.464 51.2065C56.9684 48.9784 67.3816 48.4224 77.3867 49.6087C87.3919 50.7951 96.5396 53.6705 103.673 57.8715C110.807 62.0724 115.606 67.4102 117.463 73.2097C119.321 79.0093 118.153 85.0102 114.109 90.4536" stroke="#6634FA" stroke-width="6"/>
<ellipse cx="5.88932" cy="5.9358" rx="5.88932" ry="5.9358" transform="matrix(-0.835834 -0.516844 0.894752 -0.482846 113.113 96.2404)" fill="#BFB0FE"/>
<ellipse cx="5.88932" cy="5.9358" rx="5.88932" ry="5.9358" transform="matrix(-0.835834 -0.516844 0.894752 -0.482846 45.9256 57.0372)" fill="#BFB0FE"/>
<path fill-rule="evenodd" clip-rule="evenodd" d="M55.5155 36.7959L48.3337 32.6221C48.8887 32.9442 49.2352 33.635 49.2379 34.6092C49.244 36.4319 48.0718 38.4872 46.7291 39.5594C46.0011 40.1383 44.8566 40.7104 43.9399 40.1795L51.0608 44.5344C53.7457 46.2605 56.8881 41.6616 56.6221 38.7828C56.6194 37.8088 56.1716 36.9966 55.5155 36.7959Z" fill="#6634FA"/>
<path fill-rule="evenodd" clip-rule="evenodd" d="M37.5882 50.5995L44.7699 54.7731L45.7425 57.2402L44.7922 62.6123L37.6103 58.4392L37.5882 50.5995ZM44.7584 50.7464L44.9292 50.3225L45.5535 46.6143L44.7361 42.907L37.5546 38.7332C37.5623 41.3539 37.5699 44.1557 37.5769 46.5733L44.7584 50.7464Z" fill="#6634FA"/>
<path fill-rule="evenodd" clip-rule="evenodd" d="M44.0255 34.9976L37.5544 38.733L44.7359 42.9068L47.3062 42.4002L51.207 39.1705L44.0255 34.9976ZM54.6997 28.8348L61.8812 33.0086L57.1362 36.3785L55.4142 36.7421L48.2324 32.5685L54.6997 28.8348Z" fill="#6634FA"/>
<path fill-rule="evenodd" clip-rule="evenodd" d="M33.7854 53.7023L40.4375 57.5698C40.1301 57.3912 43.9471 50.2329 44.5084 50.5577L37.7808 46.6037C35.5017 45.3527 32.542 49.188 32.788 51.8483C32.7902 52.7486 33.2295 53.3703 33.7854 53.7023Z" fill="#6634FA"/>
<path fill-rule="evenodd" clip-rule="evenodd" d="M61.8814 33.0085L55.4144 36.742C56.0277 37.0368 56.4172 37.7509 56.4197 38.7827C56.4251 40.7507 55.0373 43.1493 53.3286 44.1363C51.6154 45.1254 50.2227 44.3319 50.2173 42.3634C50.2139 41.3316 50.5977 40.172 51.207 39.1706L44.7359 42.907L44.7569 50.3428L44.7582 50.7464C44.2309 50.2619 43.4056 50.2396 42.4776 50.7755C40.8901 51.692 39.6062 53.9107 39.6118 55.7345C39.6166 57.5538 40.9092 58.2953 42.4961 57.3792C43.4246 56.8431 44.2467 55.859 44.7697 54.7733L44.7711 55.1768L44.792 62.6126C49.0989 60.1263 53.4011 57.6421 57.7081 55.1558C60.0375 53.8115 61.9307 50.5263 61.9233 47.8506C61.9093 42.9016 61.8949 37.9574 61.8814 33.0085Z" fill="#6634FA"/>
<path fill-rule="evenodd" clip-rule="evenodd" d="M44.4193 40.3487L51.1874 44.129C49.9299 43.3983 50.3576 41.2886 50.8365 40.1923C50.8376 40.1885 50.8396 40.1847 50.8415 40.1811C51.312 39.108 52.1708 37.9728 53.1973 37.3795C53.7868 37.04 54.5839 36.8089 55.2162 37.1772L48.6908 33.3836C48.1435 32.8545 47.3416 33.0444 46.6884 33.3388C44.265 34.4319 42.3506 39.147 44.4193 40.3487Z" fill="#6634FA"/>
<path fill-rule="evenodd" clip-rule="evenodd" d="M49.1929 27.9026L41.8289 23.7896C43.197 24.5845 42.7317 26.8802 42.2107 28.0727C42.2093 28.0767 42.2071 28.081 42.2053 28.085C41.6935 29.2525 40.759 30.4877 39.642 31.1331C39.0007 31.5025 38.1333 31.7538 37.4454 31.3531L44.5451 35.4808C45.1407 36.0565 46.0131 35.8499 46.7237 35.5294C49.3609 34.3401 51.4435 29.2101 49.1929 27.9026Z" fill="#6634FA"/>
<path fill-rule="evenodd" clip-rule="evenodd" d="M44.9681 35.2719L37.3618 31.3006L37.383 38.7364L44.5645 42.9102L44.9681 35.2719ZM45.0754 22.7996L37.3274 19.0308L37.3483 26.4666L44.5298 30.6401L45.0754 22.7996Z" fill="#6634FA"/>
<path fill-rule="evenodd" clip-rule="evenodd" d="M60.4292 15.458L53.2482 11.2842C52.294 10.7391 51.136 11.0583 50.2436 11.5736C45.9367 14.0601 41.6338 16.5441 37.3271 19.0306L44.5088 23.2042C48.8158 20.7173 52.9565 20.0143 57.2636 17.5273C58.1445 17.0216 59.4879 14.907 60.4292 15.458Z" fill="#3F13C2"/>
<path fill-rule="evenodd" clip-rule="evenodd" d="M54.8915 36.9477L55.2427 36.7452L61.7097 33.0118C61.6955 28.0676 61.682 23.1188 61.6676 18.1701C61.6602 15.4935 59.7542 14.4027 57.4253 15.7469C53.1182 18.2339 48.8156 20.7176 44.5086 23.2044L44.5298 30.6402C45.0916 29.6117 45.9013 28.7001 46.8034 28.1791C48.5167 27.1901 49.9093 27.9834 49.9147 29.9523C49.9204 31.9209 48.5372 34.3168 46.8239 35.3059C45.9218 35.8269 45.1094 35.8568 44.5433 35.4744L44.5645 42.9102L51.0356 39.1738L51.3867 38.9715C50.7033 39.9701 50.2679 41.1697 50.2713 42.2363C50.276 44.0605 51.569 44.7919 53.1565 43.8756C54.7393 42.9618 56.0232 40.7426 56.0185 38.9186C56.0151 37.8518 55.5743 37.1576 54.8915 36.9477Z" fill="#6634FA"/>
<path fill-rule="evenodd" clip-rule="evenodd" d="M28.6473 51.9742L20.2515 48.6913C20.2655 53.6402 20.2797 58.5843 20.2936 63.5332C20.2972 64.863 20.7714 65.8007 21.5323 66.2426L28.714 70.4164C43.6635 43.2372 28.7199 77.4531 28.6473 51.9742Z" fill="#FBBC04"/>
<path fill-rule="evenodd" clip-rule="evenodd" d="M37.4358 51.0602C37.0229 51.8123 36.4357 52.561 35.7633 53.0996C35.0407 53.6829 33.8755 54.2774 32.9563 53.7357L40.0768 58.0106C41.7602 58.9575 43.9116 56.9393 44.6177 55.2329L37.4358 51.0602Z" fill="#6634FA"/>
<path fill-rule="evenodd" clip-rule="evenodd" d="M37.4013 38.7893L30.4648 42.8088L37.6468 46.9826L39.9452 46.0938L44.5828 42.9631L37.4013 38.7893ZM27.0742 44.7518L35.4092 48.4397L33.9451 50.3021L27.4335 52.8642L20.2515 48.6909C22.5321 47.3741 25.0441 45.9235 27.0742 44.7518Z" fill="#6634FA"/>
<path fill-rule="evenodd" clip-rule="evenodd" d="M33.9111 48.7694L26.7148 44.5611C23.9864 42.7299 28.1088 35.9425 30.9989 37.5681L38.1194 41.8431C35.753 41.1892 32.3002 46.994 33.9111 48.7694Z" fill="#6634FA"/>
<path fill-rule="evenodd" clip-rule="evenodd" d="M44.6179 55.2329C44.0514 56.2645 43.2417 57.1759 42.3436 57.6939C40.6311 58.6832 39.2386 57.8852 39.2323 55.9212C39.2269 53.9524 40.6106 51.5564 42.3238 50.5674C43.2212 50.0491 44.0336 50.0245 44.6035 50.3989L44.5826 42.9631L38.1122 46.6995L37.7601 46.9017C38.4394 45.9057 38.8789 44.7033 38.8762 43.637C38.8708 41.8128 37.5788 41.0814 35.9915 41.9977C34.4039 42.914 33.1245 45.1306 33.1295 46.9547C33.1329 48.0212 33.5737 48.7154 34.256 48.9253L33.9048 49.1285L27.4337 52.8642C27.4477 57.8129 27.4614 62.7568 27.4756 67.7059C27.483 70.3825 29.3938 71.4704 31.7181 70.1286C36.0253 67.6419 40.3322 65.1554 44.6391 62.6685L44.6179 55.2329Z" fill="#6634FA"/>
<path fill-rule="evenodd" clip-rule="evenodd" d="M48.6807 28.0512L43.5771 25.3451C42.3632 24.9664 40.5293 28.8729 41.4048 29.9509L47.9615 33.699C49.5738 32.5099 50.0457 28.8981 48.6807 28.0512Z" fill="#6634FA"/>
<path fill-rule="evenodd" clip-rule="evenodd" d="M38.3926 41.1164L35.5753 39.6241C34.3616 39.2455 32.5277 43.1522 33.403 44.23L37.8351 46.8045C39.913 45.4537 39.7574 41.9635 38.3926 41.1164Z" fill="#6634FA"/>
<path fill-rule="evenodd" clip-rule="evenodd" d="M44.5688 23.1425L37.3873 18.9687C33.0804 21.4549 28.7733 23.9419 24.4668 26.4281C22.1132 27.7884 20.2452 31.1024 20.2515 33.7342C20.2657 38.6831 20.2797 43.6319 20.2934 48.5759L27.4754 52.749C27.4385 39.6748 33.3216 29.6354 44.5688 23.1425Z" fill="#03B073"/>
<path fill-rule="evenodd" clip-rule="evenodd" d="M46.8643 28.3811C45.9363 28.9172 45.1137 29.8959 44.5914 30.9816L44.5688 23.1422C40.2619 25.6284 35.9552 28.1153 31.6483 30.6018C29.3238 31.9443 27.4261 35.2313 27.4337 37.907C27.4477 42.8565 27.4617 47.8054 27.4756 52.7489L33.9467 49.0132C33.3334 48.7129 32.9446 48.0038 32.9417 46.9727C32.936 45.0038 34.3195 42.6126 36.0329 41.6235C37.7457 40.6345 39.1384 41.4231 39.144 43.391C39.1467 44.4229 38.7674 45.575 38.1543 46.5839L44.6249 42.8475L44.6031 35.0081C45.1295 35.4926 45.9557 35.5203 46.8835 34.9844C48.4712 34.0681 49.7504 31.8465 49.7454 30.022C49.7398 28.1985 48.4518 27.4648 46.8643 28.3811Z" fill="#04C984"/>
<path fill-rule="evenodd" clip-rule="evenodd" d="M44.6179 55.2329C44.0514 56.2645 43.2417 57.1759 42.3436 57.6939C40.6311 58.6832 39.2386 57.8852 39.2323 55.9212C39.2269 53.9524 40.6106 51.5564 42.3238 50.5674C43.2212 50.0491 44.0336 50.0245 44.6035 50.3989L44.5826 42.9631L38.1122 46.6995L37.7601 46.9017C38.4394 45.9057 38.8789 44.7033 38.8762 43.637C38.8708 41.8128 37.5788 41.0814 35.9915 41.9977C34.4039 42.914 33.1245 45.1306 33.1295 46.9547C33.1329 48.0212 33.5737 48.7154 34.256 48.9253L33.9048 49.1285L27.4337 52.8642C27.4477 57.8129 27.4614 62.7568 27.4756 67.7059C27.483 70.3825 29.3938 71.4704 31.7181 70.1286C36.0253 67.6419 40.3322 65.1554 44.6391 62.6685L44.6179 55.2329Z" fill="#FFED0E"/>
<path fill-rule="evenodd" clip-rule="evenodd" d="M54.8915 36.9475L55.2427 36.745L61.7097 33.0115C61.6955 28.0674 61.682 23.1185 61.6676 18.1699C61.6601 15.4933 59.7541 14.4024 57.4253 15.7467C53.1182 18.2336 48.8155 20.7174 44.5086 23.2041L44.5298 30.6399C45.0915 29.6114 45.9013 28.6999 46.8034 28.1789C48.5166 27.1898 49.9093 27.9831 49.9147 29.952C50.226 33.298 48.5371 34.3166 46.8239 35.3057C45.9218 35.8266 45.1093 35.8566 44.5433 35.4741L44.5645 42.9099L51.0355 39.1736L51.3867 38.9713C50.7033 39.9698 50.2679 41.1695 50.2713 42.236C50.276 44.0603 51.5689 44.7916 53.1565 43.8753C54.7393 42.9615 56.0232 40.7424 56.0184 38.9184C56.015 37.8516 55.5742 37.1574 54.8915 36.9475Z" fill="#6634FA"/>
<path fill-rule="evenodd" clip-rule="evenodd" d="M61.8814 33.0085L55.4144 36.742C56.0278 37.0368 56.4172 37.7509 56.4197 38.7827C56.4251 40.7507 55.0373 43.1493 53.3286 44.1363C51.6154 45.1254 50.2227 44.3319 50.2173 42.3634C50.2139 41.3316 50.5978 40.172 51.2071 39.1706L44.736 42.907L44.7569 50.3428L44.7583 50.7464C44.231 50.2619 43.4057 50.2396 42.4777 50.7755C40.8901 51.692 39.6062 53.9107 39.6119 55.7345C39.6166 57.5538 40.9093 58.2953 42.4961 57.3792C43.4246 56.8431 44.2467 55.859 44.7698 54.7733L44.7711 55.1768L44.7921 62.6126C49.099 60.1263 53.4012 57.6421 57.7081 55.1558C60.0376 53.8115 61.9308 50.5263 61.9233 47.8506C61.9094 42.9016 61.895 37.9574 61.8814 33.0085Z" fill="#6634FA"/>
<path d="M20.2515 48.7562L27.4612 52.7406L34.1017 48.946C33.1531 48.3768 32.443 46.2165 34.2915 43.4439C36.1887 40.598 37.9801 41.2509 38.4655 41.7363C39.4141 42.685 39.4141 43.8233 38.8449 45.1514C38.3896 46.2139 38.0228 46.7325 37.8963 46.859L51.367 39.0801C50.8611 39.839 50.3046 41.6604 50.6081 42.8747C50.9876 44.3925 52.4844 44.3473 53.2643 44.0131C54.7822 43.3626 55.1616 42.8747 55.7308 41.5466C56.1666 40.5297 56.4897 37.1828 55.1616 36.9931C56.3 36.4239 59.3356 34.5266 61.8021 33.0088" stroke="#E6EFFF" stroke-width="1.03807" stroke-linecap="round" stroke-linejoin="round"/>
<path d="M44.7265 62.7961V55.0172C44.1573 55.9659 42.5636 57.4837 41.5011 57.4837C40.173 57.4837 38.9961 56.234 39.6038 53.4994C39.8568 52.361 40.3628 51.5262 42.0703 50.8431C42.8292 50.5396 44.5367 51.0329 44.7265 50.6535C44.8783 50.3499 44.6633 40.1552 44.5368 35.0957C45.0427 35.3487 46.2085 35.4226 47.193 35.0957C48.8406 34.5487 49.8492 33.3881 50.0389 31.6805C50.1646 30.5491 50.2286 28.8346 48.9005 28.0757C47.9519 27.5336 46.4341 28.2654 45.8649 28.8346C45.4095 29.29 44.853 30.226 44.5368 30.732V23.3325L36.7579 19.1584" stroke="#E6EFFF" stroke-width="1.03807" stroke-linecap="round" stroke-linejoin="round"/>
<path fill-rule="evenodd" clip-rule="evenodd" d="M73.7926 50.6865L66.6108 46.5127C67.1658 46.8348 67.5123 47.5256 67.515 48.4998C67.5211 50.3225 66.3489 52.3779 65.0062 53.45C64.2782 54.0289 63.1337 54.601 62.217 54.0701L69.3379 58.425C72.0228 60.1511 75.1652 55.5522 74.8992 52.6734C74.8965 51.6994 74.4487 50.8872 73.7926 50.6865Z" fill="#F1522D"/>
<path fill-rule="evenodd" clip-rule="evenodd" d="M55.8653 64.4902L63.047 68.6637L64.0196 71.1309L63.0693 76.503L55.8874 72.3298L55.8653 64.4902ZM63.0355 64.637L63.2063 64.2131L63.8306 60.5049L63.0132 56.7976L55.8317 52.6238C55.8394 55.2445 55.847 58.0463 55.854 60.4639L63.0355 64.637Z" fill="#F1522D"/>
<path fill-rule="evenodd" clip-rule="evenodd" d="M62.3026 48.8882L55.8315 52.6237L63.013 56.7975L65.5833 56.2909L69.4841 53.0611L62.3026 48.8882ZM72.9768 42.7255L80.1583 46.8993L75.4133 50.2692L73.6913 50.6327L66.5095 46.4591L72.9768 42.7255Z" fill="#F1522D"/>
<path fill-rule="evenodd" clip-rule="evenodd" d="M52.0625 67.5928L58.7146 71.4603C58.4072 71.2817 62.2242 64.1234 62.7855 64.4482L56.0579 60.4942C53.7788 59.2432 50.8191 63.0785 51.0651 65.7388C51.0673 66.6391 51.5066 67.2608 52.0625 67.5928Z" fill="#F1522D"/>
<path fill-rule="evenodd" clip-rule="evenodd" d="M80.1585 46.8992L73.6915 50.6326C74.3048 50.9275 74.6942 51.6415 74.6967 52.6733C74.7021 54.6413 73.3144 57.0399 71.6057 58.027C69.8925 59.016 68.4998 58.2225 68.4944 56.2541C68.491 55.2222 68.8748 54.0627 69.4841 53.0612L63.013 56.7976L63.034 64.2334L63.0353 64.637C62.508 64.1525 61.6827 64.1302 60.7547 64.6661C59.1672 65.5826 57.8833 67.8013 57.8889 69.6251C57.8936 71.4444 59.1863 72.1859 60.7732 71.2698C61.7016 70.7337 62.5238 69.7496 63.0468 68.664L63.0482 69.0674L63.0691 76.5032C67.376 74.0169 71.6782 71.5327 75.9851 69.0464C78.3146 67.7022 80.2078 64.417 80.2004 61.7413C80.1864 56.7922 80.172 51.848 80.1585 46.8992Z" fill="#F1522D"/>
<path fill-rule="evenodd" clip-rule="evenodd" d="M62.6964 54.2392L69.4645 58.0195C68.207 57.2888 68.6347 55.1791 69.1136 54.0828C69.1147 54.079 69.1167 54.0752 69.1186 54.0716C69.5891 52.9985 70.4479 51.8633 71.4744 51.27C72.0639 50.9305 72.861 50.6994 73.4933 51.0677L66.9679 47.2741C66.4206 46.745 65.6187 46.9349 64.9655 47.2293C62.5421 48.3224 60.6277 53.0375 62.6964 54.2392Z" fill="#F1522D"/>
<path fill-rule="evenodd" clip-rule="evenodd" d="M67.47 41.7933L60.106 37.6803C61.4741 38.4752 61.0088 40.7709 60.4878 41.9633C60.4864 41.9674 60.4842 41.9717 60.4824 41.9757C59.9706 43.1432 59.0361 44.3784 57.9191 45.0238C57.2778 45.3932 56.4104 45.6445 55.7225 45.2438L62.8222 49.3714C63.4178 49.9472 64.2902 49.7406 65.0008 49.4201C67.638 48.2308 69.7206 43.1008 67.47 41.7933Z" fill="#F1522D"/>
<path fill-rule="evenodd" clip-rule="evenodd" d="M63.2452 49.1625L55.6389 45.1912L55.6601 52.627L62.8416 56.8008L63.2452 49.1625ZM63.3525 36.6902L55.6045 32.9214L55.6254 40.3572L62.8069 44.5308L63.3525 36.6902Z" fill="#F1522D"/>
<path fill-rule="evenodd" clip-rule="evenodd" d="M78.7063 29.3486L71.5252 25.1748C70.5711 24.6297 69.4131 24.9489 68.5207 25.4643C64.2138 27.9507 59.9109 30.4348 55.6042 32.9212L62.7859 37.0948C67.0929 34.6079 71.2336 33.9049 75.5407 31.4179C76.4216 30.9123 77.765 28.7977 78.7063 29.3486Z" fill="#3F13C2"/>
<path fill-rule="evenodd" clip-rule="evenodd" d="M73.1686 50.8384L73.5198 50.6359L79.9868 46.9025C79.9726 41.9583 79.9591 37.0094 79.9447 32.0608C79.9372 29.3842 78.0312 28.2934 75.7024 29.6376C71.3953 32.1246 67.0926 34.6083 62.7857 37.095L62.8069 44.5308C63.3686 43.5024 64.1784 42.5908 65.0805 42.0698C66.7937 41.0808 68.1864 41.8741 68.1918 43.8429C68.1974 45.8116 66.8142 48.2075 65.101 49.1966C64.1989 49.7176 63.3864 49.7475 62.8204 49.3651L62.8416 56.8009L69.3126 53.0645L69.6638 52.8622C68.9804 53.8607 68.545 55.0604 68.5484 56.1269C68.5531 57.9512 69.846 58.6826 71.4336 57.7663C73.0164 56.8525 74.3003 54.6333 74.2955 52.8093C74.2921 51.7425 73.8513 51.0483 73.1686 50.8384Z" fill="#F1522D"/>
<path fill-rule="evenodd" clip-rule="evenodd" d="M46.9245 65.8646L38.5287 62.5817C38.5426 67.5305 38.5568 72.4747 38.5708 77.4235C38.5744 78.7534 39.0485 79.6911 39.8094 80.133L46.9911 84.3068C61.9407 57.1276 46.997 91.3435 46.9245 65.8646Z" fill="#FBBC04"/>
<path fill-rule="evenodd" clip-rule="evenodd" d="M55.7129 64.9506C55.3 65.7027 54.7128 66.4514 54.0404 66.9899C53.3179 67.5733 52.1527 68.1677 51.2334 67.626L58.3539 71.901C60.0374 72.8479 62.1887 70.8297 62.8948 69.1232L55.7129 64.9506Z" fill="#F1522D"/>
<path fill-rule="evenodd" clip-rule="evenodd" d="M55.6784 52.6799L48.742 56.6994L55.9239 60.8732L58.2223 59.9844L62.8599 56.8537L55.6784 52.6799ZM45.3513 58.6424L53.6863 62.3303L52.2222 64.1927L45.7106 66.7548L38.5287 62.5815C40.8093 61.2647 43.3212 59.8141 45.3513 58.6424Z" fill="#F1522D"/>
<path fill-rule="evenodd" clip-rule="evenodd" d="M52.1883 62.66L44.9919 58.4517C42.2635 56.6205 46.3859 49.8332 49.2761 51.4588L56.3965 55.7337C54.0301 55.0798 50.5773 60.8846 52.1883 62.66Z" fill="#F1522D"/>
<path fill-rule="evenodd" clip-rule="evenodd" d="M62.895 69.1233C62.3285 70.1549 61.5188 71.0662 60.6207 71.5843C58.9082 72.5736 57.5157 71.7755 57.5094 69.8116C57.504 67.8428 58.8877 65.4468 60.6009 64.4578C61.4983 63.9395 62.3107 63.9149 62.8806 64.2893L62.8597 56.8535L56.3893 60.5898L56.0372 60.7921C56.7165 59.7961 57.156 58.5937 57.1533 57.5274C57.1479 55.7031 55.8559 54.9718 54.2686 55.8881C52.681 56.8044 51.4016 59.021 51.4066 60.8451C51.41 61.9116 51.8508 62.6058 52.5331 62.8157L52.1819 63.0189L45.7108 66.7546C45.7248 71.7032 45.7385 76.6472 45.7527 81.5963C45.7601 84.2728 47.6709 85.3608 49.9952 84.019C54.3024 81.5323 58.6093 79.0458 62.9162 76.5589L62.895 69.1233Z" fill="#F1522D"/>
<path fill-rule="evenodd" clip-rule="evenodd" d="M66.9578 41.9418L61.8542 39.2357C60.6404 38.8571 58.8064 42.7635 59.6819 43.8415L66.2386 47.5896C67.8509 46.4005 68.3228 42.7887 66.9578 41.9418Z" fill="#F1522D"/>
<path fill-rule="evenodd" clip-rule="evenodd" d="M56.6697 55.007L53.8524 53.5148C52.6387 53.1361 50.8048 57.0428 51.6801 58.1206L56.1122 60.6951C58.1901 59.3443 58.0345 55.8542 56.6697 55.007Z" fill="#F1522D"/>
<path fill-rule="evenodd" clip-rule="evenodd" d="M62.846 37.0331L55.6644 32.8593C51.3575 35.3455 47.0504 37.8324 42.7439 40.3187C40.3903 41.679 38.5224 44.993 38.5287 47.6248C38.5429 52.5736 38.5568 57.5225 38.5706 62.4664L45.7525 66.6395C45.7156 53.5654 51.5988 43.526 62.846 37.0331Z" fill="#03B073"/>
<path fill-rule="evenodd" clip-rule="evenodd" d="M65.1414 42.2718C64.2134 42.8079 63.3908 43.7866 62.8685 44.8723L62.8459 37.0328C58.539 39.5191 54.2323 42.006 49.9254 44.4925C47.6009 45.835 45.7032 49.122 45.7108 51.7977C45.7248 56.7472 45.7388 61.6961 45.7527 66.6396L52.2238 62.9039C51.6105 62.6036 51.2217 61.8945 51.2188 60.8634C51.2131 58.8945 52.5966 56.5033 54.31 55.5142C56.0228 54.5252 57.4155 55.3138 57.4211 57.2817C57.4238 58.3136 57.0445 59.4657 56.4314 60.4746L62.902 56.7382L62.8802 48.8988C63.4066 49.3833 64.2328 49.411 65.1606 48.8751C66.7483 47.9588 68.0275 45.7372 68.0225 43.9127C68.0169 42.0891 66.7289 41.3555 65.1414 42.2718Z" fill="#E6EFFF"/>
<path fill-rule="evenodd" clip-rule="evenodd" d="M62.895 69.1234C62.3285 70.155 61.5188 71.0664 60.6207 71.5844C58.9082 72.5737 57.5157 71.7757 57.5094 69.8118C57.504 67.8429 58.8877 65.4469 60.6009 64.4579C61.4983 63.9396 62.3107 63.915 62.8806 64.2894L62.8597 56.8536L56.3893 60.59L56.0372 60.7922C56.7165 59.7962 57.156 58.5938 57.1533 57.5275C57.1479 55.7033 55.8559 54.9719 54.2686 55.8882C52.681 56.8045 51.4016 59.0211 51.4066 60.8452C51.41 61.9117 51.8508 62.6059 52.5331 62.8158L52.1819 63.019L45.7108 66.7547C45.7248 71.7034 45.7385 76.6473 45.7527 81.5964C45.7601 84.273 47.6709 85.3609 49.9952 84.0191C54.3024 81.5324 58.6093 79.0459 62.9162 76.559L62.895 69.1234Z" fill="#E6EFFF"/>
<path fill-rule="evenodd" clip-rule="evenodd" d="M73.1686 50.8382L73.5198 50.6357L79.9868 46.9022C79.9726 41.9581 79.9591 37.0092 79.9447 32.0606C79.9373 29.384 78.0313 28.2931 75.7024 29.6374C71.3953 32.1243 67.0927 34.6081 62.7857 37.0948L62.8069 44.5306C63.3687 43.5021 64.1784 42.5906 65.0805 42.0696C66.7938 41.0805 68.1864 41.8738 68.1918 43.8427C68.1975 45.8113 66.8143 48.2073 65.101 49.1963C64.1989 49.7173 63.3865 49.7473 62.8204 49.3648L62.8416 56.8006L69.3127 53.0643L69.6638 52.862C68.9804 53.8605 68.545 55.0602 68.5484 56.1267C68.5531 57.951 69.8461 58.6823 71.4336 57.766C73.0164 56.8522 74.3003 54.6331 74.2956 52.8091C74.2922 51.7423 73.8514 51.0481 73.1686 50.8382Z" fill="#E6EFFF"/>
<path fill-rule="evenodd" clip-rule="evenodd" d="M80.1586 46.8992L73.6915 50.6326C74.3049 50.9275 74.6943 51.6415 74.6968 52.6733C74.7022 54.6413 73.3145 57.0399 71.6058 58.027C69.8925 59.016 68.4999 58.2225 68.4945 56.2541C68.4911 55.2222 68.8749 54.0627 69.4842 53.0612L63.0131 56.7976L63.034 64.2334L63.0354 64.637C62.5081 64.1525 61.6828 64.1302 60.7548 64.6661C59.1673 65.5826 57.8834 67.8013 57.889 69.6251C57.8937 71.4444 59.1864 72.1859 60.7733 71.2698C61.7017 70.7337 62.5239 69.7496 63.0469 68.664L63.0482 69.0674L63.0692 76.5032C67.3761 74.0169 71.6783 71.5327 75.9852 69.0464C78.3147 67.7022 80.2079 64.417 80.2005 61.7413C80.1865 56.7922 80.1721 51.848 80.1586 46.8992Z" fill="#F1522D"/>
<path d="M38.5287 62.647L45.7383 66.6313L52.3789 62.8367C51.4302 62.2676 50.7201 60.1073 52.5686 57.3346C54.4659 54.4887 56.2572 55.1417 56.7426 55.6271C57.6913 56.5757 57.6913 57.7141 57.1221 59.0422C56.6667 60.1047 56.2999 60.6232 56.1734 60.7497L69.6442 52.9709C69.1382 53.7298 68.5817 55.5512 68.8853 56.7654C69.2647 58.2833 70.7616 58.238 71.5415 57.9038C73.0593 57.2533 73.4387 56.7654 74.0079 55.4373C74.4437 54.4205 74.7668 51.0736 73.4387 50.8838C74.5771 50.3147 77.6128 48.4174 80.0793 46.8995" stroke="#E6EFFF" stroke-width="1.03807" stroke-linecap="round" stroke-linejoin="round"/>
<path d="M63.0036 76.6868V68.9079C62.4344 69.8566 60.8407 71.3743 59.7782 71.3743C58.4501 71.3743 57.2733 70.1246 57.881 67.39C58.1339 66.2516 58.6399 65.4168 60.3474 64.7338C61.1063 64.4303 62.8139 64.9236 63.0036 64.5442C63.1554 64.2406 62.9404 54.0458 62.8139 48.9864C63.3198 49.2394 64.4856 49.3133 65.4701 48.9864C67.1178 48.4394 68.1263 47.2788 68.316 45.5712C68.4418 44.4397 68.5058 42.7253 67.1777 41.9664C66.229 41.4243 64.7112 42.1561 64.142 42.7253C63.6867 43.1806 63.1301 44.1167 62.8139 44.6226V37.2231L55.3435 32.9327" stroke="#E6EFFF" stroke-width="1.03807" stroke-linecap="round" stroke-linejoin="round"/>
<path fill-rule="evenodd" clip-rule="evenodd" d="M81.1034 55.073L73.9217 50.8992C74.4767 51.2213 74.8231 51.9121 74.8258 52.8863C74.8319 54.709 73.6597 56.7643 72.317 57.8365C71.5891 58.4154 70.4446 58.9875 69.5278 58.4566L76.6487 62.8115C79.3337 64.5376 82.4761 59.9387 82.2101 57.0599C82.2073 56.0859 81.7596 55.2737 81.1034 55.073Z" fill="#FFED0E"/>
<path fill-rule="evenodd" clip-rule="evenodd" d="M63.1761 68.8766L70.3578 73.0502L71.3304 75.5173L70.3801 80.8894L63.1982 76.7163L63.1761 68.8766ZM70.3464 69.0235L70.5171 68.5996L71.1415 64.8914L70.3241 61.1841L63.1425 57.0103C63.1502 59.631 63.1579 62.4328 63.1648 64.8504L70.3464 69.0235Z" fill="#FFED0E"/>
<path fill-rule="evenodd" clip-rule="evenodd" d="M69.6135 53.2748L63.1424 57.0102L70.3239 61.184L72.8942 60.6775L76.795 57.4477L69.6135 53.2748ZM80.2876 47.1121L87.4691 51.2859L82.7241 54.6558L81.0021 55.0193L73.8204 50.8457L80.2876 47.1121Z" fill="#FFED0E"/>
<path fill-rule="evenodd" clip-rule="evenodd" d="M59.3733 71.9794L66.0255 75.8469C65.718 75.6683 69.535 68.51 70.0963 68.8348L63.3687 64.8808C61.0897 63.6298 58.13 67.4651 58.3759 70.1254C58.3782 71.0257 58.8174 71.6474 59.3733 71.9794Z" fill="#FFED0E"/>
<path fill-rule="evenodd" clip-rule="evenodd" d="M87.4693 51.2858L81.0023 55.0192C81.6156 55.3141 82.0051 56.0281 82.0076 57.0599C82.013 59.0279 80.6252 61.4265 78.9165 62.4136C77.2033 63.4026 75.8106 62.6091 75.8052 60.6407C75.8018 59.6088 76.1857 58.4492 76.7949 57.4478L70.3239 61.1842L70.3448 68.62L70.3462 69.0236C69.8189 68.5391 68.9936 68.5168 68.0656 69.0527C66.478 69.9692 65.1941 72.1879 65.1998 74.0117C65.2045 75.831 66.4972 76.5725 68.084 75.6564C69.0125 75.1203 69.8346 74.1362 70.3577 73.0506L70.359 73.454L70.3799 80.8898C74.6869 78.4035 78.9891 75.9193 83.296 73.433C85.6255 72.0888 87.5187 68.8036 87.5112 66.1279C87.4973 61.1788 87.4828 56.2346 87.4693 51.2858Z" fill="#FFED0E"/>
<path fill-rule="evenodd" clip-rule="evenodd" d="M70.0072 58.6258L76.7754 62.4061C75.5178 61.6754 75.9455 59.5657 76.4244 58.4694C76.4255 58.4656 76.4276 58.4618 76.4294 58.4582C76.8999 57.3851 77.7588 56.2499 78.7852 55.6566C79.3747 55.3171 80.1718 55.086 80.8041 55.4543L74.2787 51.6607C73.7314 51.1316 72.9295 51.3215 72.2763 51.6159C69.8529 52.709 67.9385 57.4241 70.0072 58.6258Z" fill="#FFED0E"/>
<path fill-rule="evenodd" clip-rule="evenodd" d="M74.7808 46.1798L67.4169 42.0668C68.785 42.8617 68.3196 45.1574 67.7986 46.3498C67.7973 46.3539 67.795 46.3582 67.7932 46.3622C67.2815 47.5297 66.3469 48.7649 65.2299 49.4102C64.5887 49.7796 63.7213 50.031 63.0334 49.6303L70.1331 53.7579C70.7286 54.3336 71.601 54.1271 72.3117 53.8066C74.9488 52.6173 77.0315 47.4873 74.7808 46.1798Z" fill="#FFED0E"/>
<path fill-rule="evenodd" clip-rule="evenodd" d="M70.5561 53.5491L62.9497 49.5778L62.9709 57.0136L70.1524 61.1874L70.5561 53.5491ZM70.6633 41.0768L62.9153 37.308L62.9362 44.7438L70.1177 48.9174L70.6633 41.0768Z" fill="#FFED0E"/>
<path fill-rule="evenodd" clip-rule="evenodd" d="M86.0172 33.7351L78.8361 29.5613C77.882 29.0162 76.724 29.3354 75.8316 29.8507C71.5246 32.3372 67.2218 34.8212 62.9151 37.3077L70.0968 41.4813C74.4037 38.9944 78.5444 38.2914 82.8516 35.8044C83.7325 35.2987 85.0759 33.1841 86.0172 33.7351Z" fill="#3F13C2"/>
<path fill-rule="evenodd" clip-rule="evenodd" d="M80.4795 55.2249L80.8306 55.0224L87.2977 51.2889C87.2835 46.3448 87.2699 41.3959 87.2555 36.4473C87.2481 33.7707 85.3421 32.6798 83.0133 34.0241C78.7061 36.511 74.4035 38.9948 70.0966 41.4815L70.1177 48.9173C70.6795 47.8889 71.4892 46.9773 72.3914 46.4563C74.1046 45.4672 75.4973 46.2606 75.5027 48.2294C75.5083 50.1981 74.1251 52.594 72.4119 53.5831C71.5097 54.1041 70.6973 54.134 70.1312 53.7515L70.1524 61.1873L76.6235 57.451L76.9746 57.2487C76.2913 58.2472 75.8559 59.4469 75.8592 60.5134C75.864 62.3377 77.1569 63.069 78.7444 62.1527C80.3272 61.2389 81.6111 59.0198 81.6064 57.1958C81.603 56.129 81.1622 55.4348 80.4795 55.2249Z" fill="#FFED0E"/>
<path fill-rule="evenodd" clip-rule="evenodd" d="M54.2352 70.2512L45.8394 66.9683C45.8534 71.9171 45.8676 76.8613 45.8816 81.8101C45.8852 83.14 46.3593 84.0777 47.1202 84.5196L54.3019 88.6934C69.2515 61.5142 54.3078 95.7301 54.2352 70.2512Z" fill="#FBBC04"/>
<path fill-rule="evenodd" clip-rule="evenodd" d="M63.0237 69.3373C62.6108 70.0894 62.0236 70.8381 61.3512 71.3767C60.6286 71.96 59.4634 72.5545 58.5442 72.0128L65.6647 76.2877C67.3482 77.2346 69.4995 75.2164 70.2056 73.51L63.0237 69.3373Z" fill="#FFED0E"/>
<path fill-rule="evenodd" clip-rule="evenodd" d="M62.9892 57.0664L56.0528 61.0859L63.2347 65.2597L65.5331 64.3709L70.1707 61.2402L62.9892 57.0664ZM52.6621 63.0289L60.9971 66.7168L59.533 68.5792L53.0214 71.1413L45.8394 66.968C48.1201 65.6512 50.632 64.2006 52.6621 63.0289Z" fill="#FFED0E"/>
<path fill-rule="evenodd" clip-rule="evenodd" d="M59.4991 67.0466L52.3027 62.8383C49.5743 61.0071 53.6967 54.2198 56.5869 55.8454L63.7073 60.1203C61.3409 59.4664 57.8881 65.2712 59.4991 67.0466Z" fill="#FFED0E"/>
<path fill-rule="evenodd" clip-rule="evenodd" d="M70.2058 73.5099C69.6393 74.5415 68.8296 75.4528 67.9315 75.9709C66.219 76.9602 64.8265 76.1621 64.8202 74.1982C64.8148 72.2294 66.1985 69.8334 67.9117 68.8444C68.8091 68.3261 69.6216 68.3015 70.1914 68.6759L70.1705 61.2401L63.7001 64.9764L63.348 65.1787C64.0274 64.1827 64.4668 62.9803 64.4641 61.914C64.4587 60.0897 63.1667 59.3584 61.5794 60.2747C59.9919 61.191 58.7125 63.4076 58.7174 65.2316C58.7208 66.2982 59.1616 66.9924 59.8439 67.2023L59.4927 67.4055L53.0216 71.1412C53.0356 76.0898 53.0493 81.0338 53.0635 85.9828C53.071 88.6594 54.9817 89.7474 57.306 88.4056C61.6132 85.9189 65.9201 83.4324 70.227 80.9455L70.2058 73.5099Z" fill="#FFED0E"/>
<path fill-rule="evenodd" clip-rule="evenodd" d="M74.2686 46.3284L69.165 43.6223C67.9512 43.2437 66.1172 47.1501 66.9928 48.2281L73.5494 51.9762C75.1617 50.7871 75.6336 47.1753 74.2686 46.3284Z" fill="#FFED0E"/>
<path fill-rule="evenodd" clip-rule="evenodd" d="M63.9806 59.3935L61.1632 57.9012C59.9496 57.5226 58.1156 61.4293 58.9909 62.5071L63.4231 65.0816C65.501 63.7308 65.3453 60.2406 63.9806 59.3935Z" fill="#FFED0E"/>
<path fill-rule="evenodd" clip-rule="evenodd" d="M70.1567 41.4198L62.9752 37.246C58.6683 39.7322 54.3612 42.2192 50.0547 44.7054C47.7011 46.0657 45.8332 49.3797 45.8395 52.0115C45.8537 56.9604 45.8676 61.9092 45.8814 66.8531L53.0633 71.0263C53.0264 57.9521 58.9096 47.9127 70.1567 41.4198Z" fill="#03B073"/>
<path fill-rule="evenodd" clip-rule="evenodd" d="M72.4522 46.6583C71.5242 47.1944 70.7016 48.1731 70.1793 49.2588L70.1568 41.4193C65.8498 43.9056 61.5431 46.3925 57.2362 48.879C54.9117 50.2215 53.014 53.5085 53.0217 56.1842C53.0356 61.1337 53.0496 66.0826 53.0636 71.026L59.5346 67.2903C58.9213 66.9901 58.5325 66.281 58.5296 65.2498C58.524 63.281 59.9074 60.8898 61.6209 59.9007C63.3336 58.9117 64.7263 59.7002 64.7319 61.6682C64.7347 62.7001 64.3553 63.8522 63.7422 64.8611L70.2128 61.1247L70.191 53.2852C70.7174 53.7697 71.5436 53.7975 72.4714 53.2616C74.0591 52.3453 75.3383 50.1237 75.3334 48.2992C75.3277 46.4756 74.0398 45.742 72.4522 46.6583Z" fill="#04C984"/>
<path fill-rule="evenodd" clip-rule="evenodd" d="M70.2058 73.51C69.6393 74.5416 68.8296 75.453 67.9315 75.971C66.219 76.9603 64.8265 76.1623 64.8202 74.1983C64.8148 72.2295 66.1985 69.8335 67.9117 68.8445C68.8091 68.3262 69.6216 68.3016 70.1914 68.676L70.1705 61.2402L63.7001 64.9766L63.348 65.1788C64.0274 64.1828 64.4668 62.9804 64.4641 61.9141C64.4587 60.0899 63.1667 59.3585 61.5794 60.2748C59.9919 61.1911 58.7125 63.4077 58.7174 65.2318C58.7208 66.2983 59.1616 66.9925 59.8439 67.2024L59.4927 67.4056L53.0216 71.1413C53.0356 76.09 53.0493 81.0339 53.0635 85.983C53.071 88.6596 54.9817 89.7475 57.306 88.4057C61.6132 85.919 65.9201 83.4325 70.227 80.9456L70.2058 73.51Z" fill="#FFED0E"/>
<path fill-rule="evenodd" clip-rule="evenodd" d="M80.4794 55.2246L80.8306 55.0221L87.2976 51.2887C87.2834 46.3445 87.2699 41.3957 87.2555 36.447C87.2481 33.7704 85.342 32.6796 83.0132 34.0238C78.7061 36.5108 74.4034 38.9946 70.0965 41.4813L70.1177 48.9171C70.6795 47.8886 71.4892 46.977 72.3913 46.456C74.1045 45.467 75.4972 46.2603 75.5026 48.2292C75.8592 51.9407 74.125 52.5938 72.4118 53.5828C71.5097 54.1038 70.6973 54.1338 70.1312 53.7513L70.1524 61.1871L76.6235 57.4507L76.9746 57.2485C76.2912 58.247 75.8558 59.4466 75.8592 60.5132C75.8639 62.3374 77.1568 63.0688 78.7444 62.1525C80.3272 61.2387 81.6111 59.0196 81.6063 57.1955C81.603 56.1288 81.1622 55.4346 80.4794 55.2246Z" fill="#6634FA"/>
<path fill-rule="evenodd" clip-rule="evenodd" d="M87.4694 51.2858L81.0024 55.0192C81.6157 55.3141 82.0052 56.0281 82.0076 57.0599C82.013 59.0279 80.6253 61.4265 78.9166 62.4136C77.2034 63.4026 75.8107 62.6091 75.8053 60.6407C75.8019 59.6088 76.1857 58.4492 76.795 57.4478L70.3239 61.1842L70.3449 68.62L70.3462 69.0236C69.8189 68.5391 68.9936 68.5168 68.0656 69.0527C66.4781 69.9692 65.1942 72.1879 65.1998 74.0117C65.2045 75.831 66.4972 76.5725 68.0841 75.6564C69.0125 75.1203 69.8347 74.1362 70.3577 73.0506L70.3591 73.454L70.38 80.8898C74.6869 78.4035 78.9891 75.9193 83.296 73.433C85.6255 72.0888 87.5187 68.8036 87.5113 66.1279C87.4973 61.1788 87.4829 56.2346 87.4694 51.2858Z" fill="#6634FA"/>
<path d="M46.205 67.2232L53.0491 71.0178L59.6896 67.2232C58.741 66.654 58.0309 64.4937 59.8794 61.7211C61.7767 58.8752 63.568 59.5281 64.0534 60.0135C65.002 60.9622 65.002 62.1006 64.4329 63.4287C63.9775 64.4911 63.6107 65.0097 63.4842 65.1362L76.955 57.3573C76.449 58.1162 75.8925 59.9376 76.196 61.1519C76.5755 62.6697 78.0724 62.6245 78.8522 62.2903C80.3701 61.6398 80.7495 61.1519 81.3187 59.8238C81.7545 58.807 82.0776 55.46 80.7495 55.2703C81.8879 54.7011 84.9236 52.8038 87.39 51.286" stroke="#E6EFFF" stroke-width="1.03807" stroke-linecap="round" stroke-linejoin="round"/>
<path d="M70.3145 81.0734V73.2945C69.7453 74.2432 68.1516 75.7609 67.0891 75.7609C65.761 75.7609 64.5841 74.5112 65.1918 71.7766C65.4448 70.6382 65.9507 69.8034 67.6583 69.1204C68.4172 68.8169 70.1247 69.3102 70.3145 68.9308C70.4663 68.6272 70.2512 58.4324 70.1247 53.373C70.6307 53.626 71.7965 53.6999 72.781 53.373C74.4286 52.8259 75.4372 51.6654 75.6269 49.9578C75.7526 48.8263 75.8166 47.1119 74.4885 46.353C73.5399 45.8109 72.022 46.5427 71.4528 47.1119C70.9975 47.5672 70.441 48.5033 70.1247 49.0092V41.6097L63.0199 37.3193" stroke="#E6EFFF" stroke-width="1.03807" stroke-linecap="round" stroke-linejoin="round"/>
<path fill-rule="evenodd" clip-rule="evenodd" d="M102.305 68.9635L95.1231 64.7897C95.6781 65.1118 96.0246 65.8026 96.0273 66.7768C96.0334 68.5995 94.8612 70.6548 93.5185 71.727C92.7905 72.3059 91.646 72.878 90.7293 72.3471L97.8502 76.702C100.535 78.4281 103.678 73.8292 103.411 70.9504C103.409 69.9764 102.961 69.1642 102.305 68.9635Z" fill="#6634FA"/>
<path fill-rule="evenodd" clip-rule="evenodd" d="M84.3776 82.7673L91.5593 86.9408L92.5319 89.408L91.5816 94.7801L84.3996 90.6069L84.3776 82.7673ZM91.5478 82.9141L91.7185 82.4902L92.3429 78.782L91.5255 75.0747L84.344 70.9009C84.3517 73.5216 84.3593 76.3234 84.3663 78.741L91.5478 82.9141Z" fill="#FFED0E"/>
<path fill-rule="evenodd" clip-rule="evenodd" d="M90.8149 67.1653L84.3438 70.9008L91.5253 75.0746L94.0956 74.568L97.9964 71.3382L90.8149 67.1653ZM101.489 61.0026L108.671 65.1764L103.926 68.5463L102.204 68.9098L95.0218 64.7362L101.489 61.0026Z" fill="#04C984"/>
<path fill-rule="evenodd" clip-rule="evenodd" d="M80.5747 85.8699L87.2269 89.7374C86.9194 89.5588 90.7365 82.4005 91.2978 82.7253L84.5701 78.7713C82.2911 77.5203 79.3314 81.3556 79.5773 84.0159C79.5796 84.9162 80.0188 85.5379 80.5747 85.8699Z" fill="#FFED0E"/>
<path fill-rule="evenodd" clip-rule="evenodd" d="M108.671 65.1763L102.204 68.9097C102.817 69.2046 103.207 69.9186 103.209 70.9504C103.214 72.9184 101.827 75.317 100.118 76.3041C98.4048 77.2931 97.0121 76.4996 97.0067 74.5312C97.0033 73.4993 97.3871 72.3398 97.9964 71.3383L91.5253 75.0747L91.5463 82.5105L91.5476 82.9141C91.0203 82.4296 90.195 82.4073 89.267 82.9432C87.6795 83.8597 86.3956 86.0784 86.4012 87.9022C86.4059 89.7215 87.6986 90.463 89.2855 89.5469C90.2139 89.0108 91.0361 88.0267 91.5591 86.9411L91.5605 87.3445L91.5814 94.7803C95.8883 92.294 100.191 89.8098 104.497 87.3235C106.827 85.9793 108.72 82.6941 108.713 80.0184C108.699 75.0693 108.684 70.1251 108.671 65.1763Z" fill="#EE522E"/>
<path fill-rule="evenodd" clip-rule="evenodd" d="M91.2086 72.5164L97.9768 76.2967C96.7193 75.566 97.147 73.4563 97.6259 72.3601C97.627 72.3562 97.629 72.3524 97.6308 72.3488C98.1014 71.2757 98.9602 70.1405 99.9867 69.5472C100.576 69.2078 101.373 68.9767 102.006 69.3449L95.4802 65.5513C94.9328 65.0222 94.131 65.2121 93.4777 65.5065C91.0543 66.5996 89.14 71.3147 91.2086 72.5164Z" fill="#6634FA"/>
<path fill-rule="evenodd" clip-rule="evenodd" d="M95.9822 60.0704L88.6183 55.9574C89.9864 56.7523 89.5211 59.048 89.0001 60.2404C88.9987 60.2445 88.9965 60.2488 88.9947 60.2528C88.4829 61.4203 87.5484 62.6555 86.4314 63.3009C85.7901 63.6703 84.9227 63.9216 84.2348 63.5209L91.3345 67.6485C91.9301 68.2243 92.8024 68.0177 93.5131 67.6972C96.1503 66.5079 98.2329 61.3779 95.9822 60.0704Z" fill="#6634FA"/>
<path fill-rule="evenodd" clip-rule="evenodd" d="M91.7575 67.4396L84.1512 63.4683L84.1724 70.9041L91.3539 75.0779L91.7575 67.4396ZM91.8647 54.9673L84.1167 51.1985L84.1377 58.6343L91.3192 62.8079L91.8647 54.9673Z" fill="#6634FA"/>
<path fill-rule="evenodd" clip-rule="evenodd" d="M107.219 47.6257L100.038 43.4519C99.0834 42.9068 97.9254 43.226 97.033 43.7414C92.7261 46.2278 88.4232 48.7119 84.1165 51.1983L91.2982 55.3719C95.6051 52.885 99.7458 52.182 104.053 49.695C104.934 49.1894 106.277 47.0748 107.219 47.6257Z" fill="#3F13C2"/>
<path fill-rule="evenodd" clip-rule="evenodd" d="M101.681 69.1155L102.032 68.913L108.499 65.1796C108.485 60.2354 108.471 55.2865 108.457 50.3379C108.45 47.6613 106.544 46.5704 104.215 47.9147C99.9076 50.4017 95.6049 52.8854 91.298 55.3721L91.3192 62.8079C91.8809 61.7795 92.6907 60.8679 93.5928 60.3469C95.306 59.3579 96.6987 60.1512 96.7041 62.12C96.7097 64.0887 95.3265 66.4846 93.6133 67.4737C92.7112 67.9947 91.8987 68.0246 91.3327 67.6422L91.3539 75.078L97.8249 71.3416L98.1761 71.1393C97.4927 72.1378 97.0573 73.3375 97.0607 74.404C97.0654 76.2283 98.3583 76.9597 99.9458 76.0434C101.529 75.1296 102.813 72.9104 102.808 71.0864C102.804 70.0196 102.364 69.3254 101.681 69.1155Z" fill="#6634FA"/>
<path fill-rule="evenodd" clip-rule="evenodd" d="M75.4367 84.1418L67.0409 80.8589C67.0549 85.8078 67.069 90.7519 67.083 95.7008C67.0866 97.0306 67.5608 97.9683 68.3216 98.4102L75.5034 102.584C90.4529 75.4048 75.5092 109.621 75.4367 84.1418Z" fill="#FBBC04"/>
<path fill-rule="evenodd" clip-rule="evenodd" d="M84.2251 83.2278C83.8123 83.9799 83.225 84.7286 82.5527 85.2672C81.8301 85.8505 80.6649 86.445 79.7457 85.9033L86.8661 90.1782C88.5496 91.1251 90.7009 89.1069 91.4071 87.4005L84.2251 83.2278Z" fill="#FFED0E"/>
<path fill-rule="evenodd" clip-rule="evenodd" d="M84.1906 70.9572L77.2542 74.9767L84.4362 79.1505L86.7346 78.2616L91.3721 75.131L84.1906 70.9572ZM73.8636 76.9196L82.1986 80.6076L80.7345 82.4699L74.2228 85.0321L67.0409 80.8587C69.3215 79.5419 71.8334 78.0914 73.8636 76.9196Z" fill="#FFED0E"/>
<path fill-rule="evenodd" clip-rule="evenodd" d="M80.7005 80.9372L73.5041 76.729C70.7757 74.8977 74.8982 68.1104 77.7883 69.736L84.9088 74.0109C82.5423 73.357 79.0895 79.1618 80.7005 80.9372Z" fill="#04C984"/>
<path fill-rule="evenodd" clip-rule="evenodd" d="M91.4073 87.4005C90.8408 88.4321 90.031 89.3435 89.133 89.8615C87.4204 90.8508 86.028 90.0528 86.0217 88.0889C86.0163 86.12 87.3999 83.724 89.1132 82.735C90.0105 82.2167 90.823 82.1921 91.3929 82.5665L91.3719 75.1307L84.9015 78.8671L84.5495 79.0693C85.2288 78.0733 85.6683 76.8709 85.6656 75.8046C85.6601 73.9804 84.3681 73.249 82.7808 74.1653C81.1933 75.0816 79.9139 77.2982 79.9189 79.1223C79.9222 80.1888 80.363 80.883 81.0453 81.0929L80.6942 81.2961L74.2231 85.0318C74.237 89.9805 74.2508 94.9244 74.265 99.8735C74.2724 102.55 76.1832 103.638 78.5075 102.296C82.8146 99.8095 87.1215 97.323 91.4285 94.8361L91.4073 87.4005Z" fill="#FFED0E"/>
<path fill-rule="evenodd" clip-rule="evenodd" d="M95.47 60.2189L90.3664 57.5128C89.1526 57.1342 87.3186 61.0406 88.1942 62.1186L94.7508 65.8667C96.3631 64.6776 96.835 61.0658 95.47 60.2189Z" fill="#6634FA"/>
<path fill-rule="evenodd" clip-rule="evenodd" d="M85.182 73.284L82.3646 71.7917C81.151 71.4131 79.3171 75.3198 80.1924 76.3976L84.6245 78.9721C86.7024 77.6213 86.5468 74.1311 85.182 73.284Z" fill="#04C984"/>
<path fill-rule="evenodd" clip-rule="evenodd" d="M91.3582 55.3102L84.1767 51.1364C79.8698 53.6226 75.5626 56.1095 71.2562 58.5958C68.9026 59.9561 67.0346 63.2701 67.0409 65.9019C67.0551 70.8507 67.0691 75.7996 67.0828 80.7435L74.2648 84.9166C74.2278 71.8425 80.111 61.8031 91.3582 55.3102Z" fill="#03B073"/>
<path fill-rule="evenodd" clip-rule="evenodd" d="M93.6537 60.5489C92.7257 61.085 91.9031 62.0637 91.3807 63.1494L91.3582 55.3099C87.0513 57.7962 82.7446 60.2831 78.4377 62.7696C76.1131 64.1121 74.2154 67.3991 74.2231 70.0748C74.2371 75.0243 74.251 79.9732 74.265 84.9167L80.7361 81.181C80.1227 80.8807 79.734 80.1716 79.731 79.1405C79.7254 77.1716 81.1089 74.7804 82.8223 73.7913C84.5351 72.8023 85.9278 73.5909 85.9334 75.5588C85.9361 76.5907 85.5568 77.7428 84.9437 78.7517L91.4143 75.0153L91.3924 67.1759C91.9188 67.6604 93.0722 68.0359 94 67.5C95.5877 66.5837 97 65.5 96.5348 62.1898C96.3546 60.9076 95.2412 59.6326 93.6537 60.5489Z" fill="#04C984"/>
<path fill-rule="evenodd" clip-rule="evenodd" d="M91.1842 87.6302C90.6177 88.6619 89.8079 89.5732 88.9099 90.0913C87.1973 91.0805 85.8049 90.2825 85.7986 88.3186C85.7931 86.3497 87.1768 83.9538 88.89 82.9647C89.7874 82.4464 90.5999 82.4219 91.1698 82.7962L91.1488 75.3604L84.6784 79.0968L84.3263 79.2991C85.0057 78.303 85.4451 77.1007 85.4424 76.0344C85.437 74.2101 84.145 73.4787 82.5577 74.395C80.9702 75.3113 79.6908 77.528 79.6957 79.352C79.6991 80.4185 80.1399 81.1128 80.8222 81.3227L80.471 81.5259L74 85.2615C74.0139 90.2102 74.0277 95.1541 74.0419 100.103C74.0493 102.78 75.9601 103.868 78.2844 102.526C82.5915 100.039 86.8984 97.5528 91.2053 95.0658L91.1842 87.6302Z" fill="#FFED0E"/>
<path fill-rule="evenodd" clip-rule="evenodd" d="M108.671 65.1763L102.204 68.9097C102.817 69.2046 103.207 69.9186 103.209 70.9504C103.214 72.9184 101.827 75.317 100.118 76.3041C98.4048 77.2931 97.0121 76.4996 97.0067 74.5312C97.0033 73.4993 97.3871 72.3398 97.9964 71.3383L91.5253 75.0747L91.5463 82.5105L91.5476 82.9141C91.0203 82.4296 90.195 82.4073 89.267 82.9432C86.7801 84.1084 86.3956 86.0784 86.4012 87.9022C86.406 89.7215 87.6986 90.463 89.2855 89.5469C90.214 89.0108 91.0361 88.0267 91.5591 86.9411L91.5605 87.3445L91.5814 94.7803C95.8883 92.294 100.191 89.8098 104.497 87.3235C106.827 85.9793 108.72 82.6941 108.713 80.0184C108.699 75.0693 108.684 70.1251 108.671 65.1763Z" fill="#EE522E"/>
<path d="M67.0409 80.9241L74.2506 84.9084L80.8911 81.1138C79.9424 80.5447 79.2324 78.3844 81.0808 75.6117C82.9781 72.7658 84.7695 73.4188 85.2549 73.9042C86.2035 74.8528 86.2035 75.9912 85.6343 77.3193C85.179 78.3818 84.8122 78.9003 84.6857 79.0268L98.1564 71.248C97.6505 72.0069 97.0939 73.8283 97.3975 75.0425C97.777 76.5604 99.2738 76.5151 100.054 76.1809C101.572 75.5304 101.951 75.0425 102.52 73.7144C102.956 72.6976 103.279 69.3507 101.951 69.1609C103.089 68.5918 106.125 66.6945 108.591 65.1766" stroke="#E6EFFF" stroke-width="1.03807" stroke-linecap="round" stroke-linejoin="round"/>
<path d="M91.5159 94.9639V87.185C90.9467 88.1336 89.353 89.6514 88.2905 89.6514C86.9624 89.6514 85.7855 88.4017 86.3932 85.6671C86.6462 84.5287 87.1521 83.6939 88.8597 83.0109C89.6186 82.7073 91.3261 83.2007 91.5159 82.8212C91.6677 82.5176 91.4527 72.3229 91.3262 67.2635C91.8321 67.5164 92.9979 67.5903 93.9824 67.2635C95.63 66.7164 96.6386 65.5558 96.8283 63.8483C96.954 62.7168 97.018 61.0023 95.6899 60.2434C94.7413 59.7013 93.2235 60.4332 92.6543 61.0023C92.1989 61.4577 91.6424 62.3938 91.3262 62.8997V55.5002L83.5473 51.3262" stroke="#E6EFFF" stroke-width="1.03807" stroke-linecap="round" stroke-linejoin="round"/>
<path d="M46.5705 84.1084C46.3268 84.5958 45.8395 83.3042 45.8395 74.2388C45.8395 62.907 45.8395 56.6927 45.8395 54.4995C45.8395 52.3062 45.4739 47.1887 50.5915 44.2643C55.7091 41.34 71.4274 32.2014 72.1585 31.8359C72.8896 31.4704 74.7173 30.3737 75.4483 30.0082C76.1794 29.6426 76.9105 29.2771 78.3727 29.2771" stroke="#E6EFFF" stroke-linecap="round"/>
</g>
<defs>
<clipPath id="clip0_216_225">
<rect width="128" height="128" fill="white"/>
</clipPath>
</defs>
</svg>
