<svg width="128" height="128" viewBox="0 0 128 128" fill="none" xmlns="http://www.w3.org/2000/svg">
<g clip-path="url(#clip0_216_66)">
<path d="M12.9229 69.3465C9.08058 74.9559 8.19673 81.0841 10.3831 86.9562C12.5695 92.8282 17.728 98.1803 25.2061 102.336C32.6843 106.491 42.1463 109.263 52.3957 110.301C62.6451 111.339 73.2214 110.597 82.7873 108.168" stroke="#6634FA" stroke-width="6"/>
<ellipse cx="5.99874" cy="6.04601" rx="5.99874" ry="6.04601" transform="matrix(-0.902877 -0.477777 -0.828147 0.520952 92.9868 107.529)" fill="#BFB0FE"/>
<ellipse cx="5.99874" cy="6.04601" rx="5.99874" ry="6.04601" transform="matrix(-0.902877 -0.477777 -0.828147 0.520952 23.195 68.3876)" fill="#BFB0FE"/>
<path d="M47.8655 49.9533C57.5464 47.6838 68.153 47.1174 78.344 48.3258C88.535 49.5342 97.8527 52.463 105.119 56.742C112.385 61.021 117.273 66.4579 119.165 72.3652C121.057 78.2724 119.868 84.3848 115.748 89.9293" stroke="#6634FA" stroke-width="6"/>
<ellipse cx="5.99871" cy="6.04605" rx="5.99871" ry="6.04605" transform="matrix(-0.835834 -0.516844 0.894752 -0.482846 114.734 95.8236)" fill="#BFB0FE"/>
<ellipse cx="5.99871" cy="6.04605" rx="5.99871" ry="6.04605" transform="matrix(-0.835834 -0.516844 0.894752 -0.482846 46.2986 55.8925)" fill="#BFB0FE"/>
<path fill-rule="evenodd" clip-rule="evenodd" d="M56.0667 35.2748L48.7515 31.0234C49.3169 31.3515 49.6697 32.0552 49.6725 33.0475C49.6787 34.904 48.4847 36.9975 47.1171 38.0896C46.3756 38.6793 45.2099 39.262 44.2761 38.7212L51.5292 43.157C54.264 44.9151 57.4648 40.2309 57.1939 37.2986C57.1911 36.3065 56.735 35.4792 56.0667 35.2748Z" fill="#6634FA"/>
<path fill-rule="evenodd" clip-rule="evenodd" d="M37.8064 49.3348L45.1215 53.5859L46.1122 56.0989L45.1442 61.5707L37.8289 57.3201L37.8064 49.3348ZM45.1098 49.4844L45.2837 49.0526L45.9197 45.2755L45.0871 41.4994L37.7722 37.248C37.78 39.9175 37.7878 42.7713 37.7949 45.2338L45.1098 49.4844Z" fill="#6634FA"/>
<path fill-rule="evenodd" clip-rule="evenodd" d="M44.3633 33.4431L37.772 37.2479L45.0869 41.4992L47.7049 40.9833L51.6782 37.6935L44.3633 33.4431ZM55.2357 27.1659L62.5506 31.4172L57.7175 34.8497L55.9635 35.22L48.6483 30.9689L55.2357 27.1659Z" fill="#6634FA"/>
<path fill-rule="evenodd" clip-rule="evenodd" d="M33.9329 52.4952L40.7087 56.4345C40.3955 56.2526 44.2834 48.9613 44.8552 49.2922L38.0026 45.2648C35.6812 43.9905 32.6665 47.897 32.917 50.6068C32.9193 51.5238 33.3667 52.157 33.9329 52.4952Z" fill="#6634FA"/>
<path fill-rule="evenodd" clip-rule="evenodd" d="M62.5508 31.4172L55.9637 35.22C56.5884 35.5203 56.9851 36.2476 56.9876 37.2987C56.9931 39.3032 55.5796 41.7464 53.8392 42.7517C52.0941 43.7591 50.6756 42.9509 50.6701 40.9459C50.6666 39.8949 51.0576 38.7138 51.6782 37.6937L45.0869 41.4995L45.1082 49.0734L45.1096 49.4845C44.5725 48.991 43.7319 48.9683 42.7867 49.5141C41.1696 50.4477 39.8619 52.7076 39.8676 54.5653C39.8725 56.4184 41.1891 57.1736 42.8055 56.2405C43.7512 55.6945 44.5886 54.6921 45.1213 53.5863L45.1227 53.9972L45.144 61.5711C49.531 59.0387 53.9131 56.5083 58.3 53.9759C60.6727 52.6066 62.6011 49.2604 62.5935 46.535C62.5793 41.494 62.5646 36.458 62.5508 31.4172Z" fill="#6634FA"/>
<path fill-rule="evenodd" clip-rule="evenodd" d="M44.7643 38.8936L51.6582 42.7442C50.3773 41.9999 50.813 39.8511 51.3007 38.7344C51.3019 38.7305 51.304 38.7266 51.3058 38.7229C51.7851 37.6299 52.6599 36.4736 53.7054 35.8693C54.3058 35.5236 55.1178 35.2882 55.7618 35.6633L49.1152 31.7992C48.5577 31.2603 47.7409 31.4537 47.0756 31.7536C44.6071 32.867 42.6572 37.6696 44.7643 38.8936Z" fill="#6634FA"/>
<path fill-rule="evenodd" clip-rule="evenodd" d="M49.6266 26.2165L42.1259 22.0272C43.5194 22.8368 43.0454 25.1752 42.5147 26.3898C42.5134 26.3939 42.5111 26.3982 42.5092 26.4024C41.988 27.5915 41.0361 28.8497 39.8983 29.507C39.2452 29.8833 38.3616 30.1393 37.6609 29.7312L44.8926 33.9354C45.4992 34.5219 46.3877 34.3115 47.1116 33.985C49.7977 32.7736 51.919 27.5484 49.6266 26.2165Z" fill="#6634FA"/>
<path fill-rule="evenodd" clip-rule="evenodd" d="M45.3234 33.7227L37.5758 29.6776L37.5974 37.2515L44.9123 41.5029L45.3234 33.7227ZM45.4326 21.0187L37.5407 17.1799L37.5621 24.7538L44.877 29.0049L45.4326 21.0187Z" fill="#6634FA"/>
<path fill-rule="evenodd" clip-rule="evenodd" d="M61.0717 13.5407L53.7572 9.28935C52.7854 8.73413 51.6059 9.05923 50.6969 9.58416C46.31 12.1168 41.9272 14.647 37.5405 17.1796L44.8556 21.4307C49.2425 18.8976 53.4601 18.1816 57.8473 15.6484C58.7446 15.1334 60.1129 12.9795 61.0717 13.5407Z" fill="#3B1BC0"/>
<path fill-rule="evenodd" clip-rule="evenodd" d="M55.4311 35.4296L55.7888 35.2233L62.376 31.4205C62.3615 26.3846 62.3477 21.3438 62.3331 16.3032C62.3255 13.5769 60.3841 12.4658 58.012 13.835C53.6248 16.3681 49.2423 18.8981 44.8554 21.431L44.8769 29.0049C45.4491 27.9573 46.2739 27.0288 47.1928 26.4981C48.9378 25.4907 50.3564 26.2988 50.3619 28.3042C50.3676 30.3094 48.9587 32.7498 47.2137 33.7573C46.2948 34.2879 45.4673 34.3184 44.8907 33.9289L44.9123 41.5028L51.5035 37.697L51.8612 37.491C51.1651 38.5081 50.7216 39.73 50.7251 40.8163C50.7299 42.6745 52.0468 43.4194 53.6638 42.4861C55.276 41.5553 56.5838 39.295 56.579 37.4371C56.5755 36.3505 56.1265 35.6434 55.4311 35.4296Z" fill="#6634FA"/>
<path fill-rule="evenodd" clip-rule="evenodd" d="M28.6995 50.7352L20.1477 47.3912C20.162 52.432 20.1764 57.468 20.1906 62.5088C20.1943 63.8633 20.6773 64.8184 21.4523 65.2686L28.7674 69.5199C43.9946 41.8358 28.7733 76.6873 28.6995 50.7352Z" fill="#3B1BC0"/>
<path fill-rule="evenodd" clip-rule="evenodd" d="M37.6511 49.8042C37.2306 50.5703 36.6325 51.3329 35.9476 51.8815C35.2116 52.4757 34.0248 53.0811 33.0885 52.5294L40.3412 56.8837C42.056 57.8482 44.2472 55.7925 44.9665 54.0544L37.6511 49.8042Z" fill="#6634FA"/>
<path fill-rule="evenodd" clip-rule="evenodd" d="M37.616 37.3055L30.5507 41.3997L37.8661 45.651L40.2072 44.7457L44.9309 41.5569L37.616 37.3055ZM27.0971 43.3788L35.5869 47.1352L34.0956 49.0321L27.4631 51.6419L20.1477 47.391C22.4707 46.0498 25.0293 44.5723 27.0971 43.3788Z" fill="#6634FA"/>
<path fill-rule="evenodd" clip-rule="evenodd" d="M34.0611 47.4708L26.731 43.1844C23.952 41.3191 28.151 34.4057 31.0948 36.0615L38.3475 40.4159C35.9371 39.7498 32.4202 45.6625 34.0611 47.4708Z" fill="#6634FA"/>
<path fill-rule="evenodd" clip-rule="evenodd" d="M44.9667 54.0543C44.3897 55.1051 43.5649 56.0334 42.6501 56.561C40.9058 57.5687 39.4875 56.7558 39.481 54.7554C39.4755 52.75 40.8849 50.3096 42.6299 49.3021C43.544 48.7742 44.3715 48.7492 44.952 49.1305L44.9307 41.5566L38.3401 45.3624L37.9815 45.5684C38.6734 44.5539 39.1211 43.3292 39.1183 42.2431C39.1128 40.3849 37.7968 39.6399 36.18 40.5733C34.563 41.5066 33.2598 43.7644 33.2649 45.6223C33.2683 46.7087 33.7173 47.4158 34.4122 47.6296L34.0546 47.8365L27.4633 51.6416C27.4775 56.6822 27.4915 61.7179 27.506 66.7589C27.5135 69.4852 29.4598 70.5934 31.8273 69.2267C36.2144 66.6938 40.6013 64.1611 44.9882 61.628L44.9667 54.0543Z" fill="#6634FA"/>
<path fill-rule="evenodd" clip-rule="evenodd" d="M49.1049 26.3679L43.9065 23.6115C42.6701 23.2259 40.8021 27.2049 41.6939 28.3029L48.3723 32.1206C50.0146 30.9095 50.4952 27.2306 49.1049 26.3679Z" fill="#6634FA"/>
<path fill-rule="evenodd" clip-rule="evenodd" d="M38.6258 39.6756L35.7561 38.1556C34.5199 37.7699 32.6519 41.7492 33.5435 42.847L38.0579 45.4694C40.1744 44.0935 40.0159 40.5385 38.6258 39.6756Z" fill="#6634FA"/>
<path fill-rule="evenodd" clip-rule="evenodd" d="M44.9167 21.368L37.6018 17.1167C33.2149 19.6491 28.8277 22.1823 24.4413 24.7147C22.044 26.1002 20.1413 29.4758 20.1478 32.1565C20.1622 37.1973 20.1764 42.238 20.1904 47.2738L27.5058 51.5244C27.4681 38.2074 33.4606 27.9815 44.9167 21.368Z" fill="#3B1BC0"/>
<path fill-rule="evenodd" clip-rule="evenodd" d="M47.2548 26.7038C46.3095 27.2499 45.4717 28.2468 44.9396 29.3526L44.9167 21.3676C40.5298 23.9 36.1431 26.4331 31.7562 28.9658C29.3885 30.3332 27.4555 33.6812 27.4633 36.4066C27.4776 41.4481 27.4918 46.4889 27.506 51.5242L34.0973 47.7191C33.4725 47.4133 33.0765 46.691 33.0736 45.6407C33.0678 43.6353 34.477 41.1996 36.2222 40.1922C37.9668 39.1848 39.3854 39.988 39.3911 41.9925C39.3939 43.0436 39.0075 44.2171 38.383 45.2447L44.9738 41.4389L44.9516 33.4539C45.4877 33.9474 46.3293 33.9756 47.2743 33.4298C48.8915 32.4965 50.1945 30.2336 50.1894 28.3752C50.1837 26.5178 48.8718 25.7705 47.2548 26.7038Z" fill="#6634FA"/>
<path fill-rule="evenodd" clip-rule="evenodd" d="M44.9667 54.0544C44.3897 55.1052 43.5649 56.0335 42.6501 56.5612C40.9058 57.5688 39.4875 56.7559 39.481 54.7556C39.4755 52.7501 40.8849 50.3097 42.6299 49.3022C43.544 48.7743 44.3715 48.7493 44.952 49.1306L44.9307 41.5567L38.3401 45.3625L37.9815 45.5685C38.6734 44.554 39.1211 43.3293 39.1183 42.2432C39.1128 40.385 37.7968 39.6401 36.18 40.5734C34.563 41.5067 33.2598 43.7645 33.2649 45.6224C33.2683 46.7088 33.7173 47.4159 34.4122 47.6297L34.0546 47.8367L27.4633 51.6417C27.4775 56.6823 27.4915 61.718 27.506 66.7591C27.5135 69.4854 29.4598 70.5935 31.8273 69.2268C36.2144 66.6939 40.6013 64.1612 44.9882 61.6281L44.9667 54.0544Z" fill="#6634FA"/>
<path fill-rule="evenodd" clip-rule="evenodd" d="M55.4311 35.4294L55.7888 35.2231L62.3759 31.4203C62.3615 26.3844 62.3477 21.3436 62.333 16.303C62.3255 13.5767 60.384 12.4656 58.012 13.8348C53.6248 16.368 49.2423 18.8979 44.8553 21.4308L44.8769 29.0047C45.4491 27.9571 46.2739 27.0286 47.1928 26.4979C48.9378 25.4905 50.3564 26.2986 50.3619 28.304C50.3676 30.3092 48.9587 32.7497 47.2136 33.7571C46.2948 34.2878 45.4672 34.3183 44.8907 33.9287L44.9122 41.5026L51.5035 37.6968L51.8612 37.4908C51.1651 38.5079 50.7216 39.7298 50.7251 40.8162C50.7299 42.6743 52.0468 43.4193 53.6638 42.4859C55.276 41.5551 56.5838 39.2948 56.5789 37.4369C56.5755 36.3503 56.1265 35.6432 55.4311 35.4294Z" fill="#6634FA"/>
<path fill-rule="evenodd" clip-rule="evenodd" d="M62.5509 31.4172L55.9637 35.22C56.5885 35.5203 56.9851 36.2476 56.9877 37.2987C56.9932 39.3032 55.5797 41.7464 53.8392 42.7517C52.0942 43.7591 50.6756 42.9509 50.6701 40.9459C50.6667 39.8949 51.0576 38.7138 51.6782 37.6937L45.0869 41.4995L45.1083 49.0734L45.1097 49.4845C44.5726 48.991 43.7319 48.9683 42.7867 49.5141C41.1697 50.4477 39.8619 52.7076 39.8677 54.5653C39.8725 56.4184 41.1892 57.1736 42.8055 56.2405C43.7512 55.6945 44.5886 54.6921 45.1214 53.5863L45.1227 53.9972L45.1441 61.5711C49.531 59.0387 53.9131 56.5083 58.3 53.9759C60.6728 52.6066 62.6011 49.2604 62.5935 46.535C62.5793 41.494 62.5646 36.458 62.5509 31.4172Z" fill="#6634FA"/>
<path d="M20.1477 47.4575L27.4913 51.5159L34.2552 47.6508C33.2889 47.0711 32.5657 44.8706 34.4484 42.0465C36.381 39.1477 38.2056 39.8128 38.7 40.3072C39.6663 41.2735 39.6663 42.433 39.0865 43.7858C38.6227 44.868 38.2491 45.3962 38.1202 45.525L51.8412 37.6017C51.3258 38.3747 50.759 40.2299 51.0682 41.4667C51.4547 43.0128 52.9793 42.9667 53.7737 42.6263C55.3197 41.9637 55.7062 41.4667 56.286 40.114C56.7299 39.0782 57.059 35.6692 55.7062 35.4759C56.8657 34.8962 59.9578 32.9636 62.4701 31.4176" stroke="#E6EFFF" stroke-width="1.03807" stroke-linecap="round" stroke-linejoin="round"/>
<path d="M45.0773 61.7581V53.8348C44.4976 54.801 42.8743 56.347 41.792 56.347C40.4393 56.347 39.2405 55.0741 39.8595 52.2887C40.1172 51.1292 40.6325 50.2788 42.3718 49.5831C43.1448 49.2739 44.884 49.7765 45.0773 49.3899C45.2319 49.0807 45.0129 38.6966 44.8841 33.5432C45.3994 33.8009 46.5869 33.8762 47.5896 33.5432C49.2679 32.986 50.2952 31.8039 50.4884 30.0646C50.6165 28.9121 50.6817 27.1658 49.3289 26.3928C48.3626 25.8407 46.8166 26.5861 46.2369 27.1658C45.773 27.6296 45.2062 28.5831 44.8841 29.0984V21.5615L36.9607 17.3099" stroke="#E6EFFF" stroke-width="1.03807" stroke-linecap="round" stroke-linejoin="round"/>
<path fill-rule="evenodd" clip-rule="evenodd" d="M74.6833 49.4234L67.3681 45.1721C67.9335 45.5002 68.2863 46.2039 68.2891 47.1961C68.2953 49.0527 67.1013 51.1462 65.7337 52.2383C64.9922 52.8279 63.8264 53.4107 62.8927 52.8699L70.1458 57.3057C72.8806 59.0638 76.0814 54.3796 75.8104 51.4472C75.8077 50.4552 75.3516 49.6279 74.6833 49.4234Z" fill="#F1522D"/>
<path fill-rule="evenodd" clip-rule="evenodd" d="M56.423 63.4835L63.7381 67.7346L64.7288 70.2475L63.7608 75.7194L56.4454 71.4688L56.423 63.4835ZM63.7264 63.6331L63.9003 63.2013L64.5363 59.4242L63.7037 55.648L56.3888 51.3967C56.3966 54.0661 56.4044 56.92 56.4115 59.3825L63.7264 63.6331Z" fill="#F1522D"/>
<path fill-rule="evenodd" clip-rule="evenodd" d="M62.9799 47.5916L56.3886 51.3965L63.7035 55.6478L66.3215 55.1318L70.2948 51.842L62.9799 47.5916ZM73.8523 41.3145L81.1672 45.5658L76.334 48.9983L74.5801 49.3686L67.2649 45.1175L73.8523 41.3145Z" fill="#F1522D"/>
<path fill-rule="evenodd" clip-rule="evenodd" d="M52.5495 66.6439L59.3253 70.5832C59.0121 70.4012 62.9 63.11 63.4717 63.4408L56.6191 59.4134C54.2978 58.1392 51.2831 62.0457 51.5336 64.7555C51.5359 65.6725 51.9833 66.3057 52.5495 66.6439Z" fill="#F1522D"/>
<path fill-rule="evenodd" clip-rule="evenodd" d="M81.1674 45.5659L74.5803 49.3687C75.205 49.669 75.6017 50.3963 75.6042 51.4473C75.6097 53.4519 74.1962 55.895 72.4557 56.9004C70.7107 57.9078 69.2922 57.0995 69.2866 55.0946C69.2832 54.0436 69.6742 52.8625 70.2948 51.8424L63.7035 55.6482L63.7248 63.2221L63.7262 63.6332C63.1891 63.1397 62.3485 63.117 61.4032 63.6628C59.7862 64.5964 58.4785 66.8563 58.4842 68.7139C58.489 70.567 59.8057 71.3223 61.422 70.3892C62.3678 69.8432 63.2052 68.8408 63.7379 67.735L63.7393 68.1459L63.7606 75.7198C68.1475 73.1873 72.5296 70.657 76.9165 68.1245C79.2893 66.7553 81.2177 63.4091 81.2101 60.6837C81.1959 55.6427 81.1812 50.6067 81.1674 45.5659Z" fill="#F1522D"/>
<path fill-rule="evenodd" clip-rule="evenodd" d="M63.3809 53.0423L70.2748 56.8928C68.9939 56.1486 69.4295 53.9997 69.9173 52.8831C69.9185 52.8792 69.9205 52.8753 69.9224 52.8716C70.4016 51.7786 71.2765 50.6223 72.322 50.018C72.9224 49.6722 73.7343 49.4368 74.3783 49.812L67.7318 45.9479C67.1743 45.409 66.3575 45.6024 65.6922 45.9023C63.2237 47.0157 61.2738 51.8183 63.3809 53.0423Z" fill="#F1522D"/>
<path fill-rule="evenodd" clip-rule="evenodd" d="M68.2432 40.3652L60.7424 36.1758C62.136 36.9854 61.662 39.3238 61.1313 40.5384C61.1299 40.5425 61.1277 40.5469 61.1258 40.551C60.6046 41.7401 59.6527 42.9983 58.5149 43.6556C57.8617 44.0319 56.9782 44.2879 56.2775 43.8798L63.5091 48.0841C64.1157 48.6705 65.0043 48.4601 65.7282 48.1336C68.4143 46.9222 70.5356 41.697 68.2432 40.3652Z" fill="#F1522D"/>
<path fill-rule="evenodd" clip-rule="evenodd" d="M63.94 47.8712L56.1924 43.8262L56.214 51.4001L63.5289 55.6514L63.94 47.8712ZM64.0492 35.1673L56.1573 31.3285L56.1787 38.9024L63.4935 43.1535L64.0492 35.1673Z" fill="#F1522D"/>
<path fill-rule="evenodd" clip-rule="evenodd" d="M79.6882 27.6893L72.3738 23.438C71.4019 22.8827 70.2224 23.2079 69.3134 23.7328C64.9265 26.2655 60.5437 28.7956 56.157 31.3283L63.4722 35.5794C67.8591 33.0462 72.0767 32.3302 76.4638 29.7971C77.3611 29.282 78.7294 27.1281 79.6882 27.6893Z" fill="#C63B1B"/>
<path fill-rule="evenodd" clip-rule="evenodd" d="M74.0477 49.5782L74.4054 49.3719L80.9925 45.5692C80.9781 40.5332 80.9643 35.4924 80.9496 30.4518C80.942 27.7255 79.0006 26.6144 76.6285 27.9836C72.2414 30.5168 67.8588 33.0467 63.4719 35.5796L63.4935 43.1535C64.0657 42.1059 64.8905 41.1774 65.8093 40.6467C67.5544 39.6393 68.9729 40.4474 68.9784 42.4528C68.9842 44.458 67.5753 46.8985 65.8302 47.9059C64.9114 48.4366 64.0838 48.4671 63.5073 48.0775L63.5288 55.6514L70.1201 51.8456L70.4778 51.6396C69.7817 52.6567 69.3382 53.8786 69.3416 54.965C69.3465 56.8231 70.6634 57.5681 72.2804 56.6347C73.8926 55.704 75.2003 53.4436 75.1955 51.5857C75.1921 50.4991 74.7431 49.792 74.0477 49.5782Z" fill="#F1522D"/>
<path fill-rule="evenodd" clip-rule="evenodd" d="M47.3161 64.8836L38.7643 61.5397C38.7785 66.5805 38.793 71.6164 38.8072 76.6572C38.8109 78.0118 39.2938 78.9669 40.0688 79.417L47.384 83.6683C62.6112 55.9843 47.3899 90.8357 47.3161 64.8836Z" fill="#C63B1B"/>
<path fill-rule="evenodd" clip-rule="evenodd" d="M56.2677 63.9528C55.8472 64.7188 55.2491 65.4814 54.5642 66.03C53.8282 66.6242 52.6414 67.2297 51.7051 66.6779L58.9578 71.0323C60.6725 71.9968 62.8638 69.9411 63.5831 68.2029L56.2677 63.9528Z" fill="#F1522D"/>
<path fill-rule="evenodd" clip-rule="evenodd" d="M56.2326 51.454L49.1673 55.5481L56.4827 59.7995L58.8238 58.8941L63.5475 55.7053L56.2326 51.454ZM45.7137 57.5272L54.2035 61.2836L52.7122 63.1806L46.0797 65.7903L38.7643 61.5395C41.0873 60.1982 43.6459 58.7207 45.7137 57.5272Z" fill="#F1522D"/>
<path fill-rule="evenodd" clip-rule="evenodd" d="M52.6776 61.6193L45.3476 57.3328C42.5685 55.4676 46.7675 48.5542 49.7113 50.21L56.9641 54.5643C54.5537 53.8983 51.0368 59.8109 52.6776 61.6193Z" fill="#F1522D"/>
<path fill-rule="evenodd" clip-rule="evenodd" d="M63.5832 68.2029C63.0062 69.2536 62.1814 70.1819 61.2667 70.7096C59.5223 71.7172 58.104 70.9044 58.0976 68.904C58.0921 66.8986 59.5015 64.4581 61.2465 63.4507C62.1605 62.9228 62.9881 62.8978 63.5686 63.2791L63.5472 55.7052L56.9566 59.5109L56.598 59.717C57.29 58.7024 57.7376 57.4777 57.7349 56.3916C57.7294 54.5335 56.4134 53.7885 54.7966 54.7218C53.1795 55.6551 51.8764 57.913 51.8814 59.7709C51.8849 60.8572 52.3339 61.5643 53.0288 61.7781L52.6711 61.9851L46.0799 65.7902C46.0941 70.8307 46.1081 75.8665 46.1225 80.9075C46.1301 83.6338 48.0764 84.7419 50.4438 83.3752C54.831 80.8423 59.2179 78.3097 63.6048 75.7765L63.5832 68.2029Z" fill="#F1522D"/>
<path fill-rule="evenodd" clip-rule="evenodd" d="M67.7215 40.5163L62.5231 37.76C61.2867 37.3743 59.4187 41.3533 60.3105 42.4514L66.9889 46.2691C68.6312 45.0579 69.1118 41.379 67.7215 40.5163Z" fill="#F1522D"/>
<path fill-rule="evenodd" clip-rule="evenodd" d="M57.2423 53.8241L54.3726 52.3042C53.1365 51.9185 51.2685 55.8977 52.16 56.9955L56.6745 59.6179C58.791 58.242 58.6325 54.687 57.2423 53.8241Z" fill="#F1522D"/>
<path fill-rule="evenodd" clip-rule="evenodd" d="M63.5333 35.5165L56.2184 31.2651C51.8315 33.7976 47.4443 36.3307 43.0579 38.8631C40.6606 40.2487 38.7579 43.6243 38.7643 46.3049C38.7788 51.3457 38.793 56.3865 38.807 61.4222L46.1223 65.6728C46.0847 52.3559 52.0772 42.13 63.5333 35.5165Z" fill="#C63B1B"/>
<path fill-rule="evenodd" clip-rule="evenodd" d="M65.8714 40.8524C64.9261 41.3984 64.0882 42.3953 63.5562 43.5012L63.5333 35.5161C59.1463 38.0486 54.7596 40.5817 50.3727 43.1143C48.005 44.4817 46.0721 47.8298 46.0799 50.5552C46.0941 55.5967 46.1083 60.6374 46.1226 65.6727L52.7138 61.8676C52.0891 61.5618 51.6931 60.8396 51.6901 59.7893C51.6844 57.7838 53.0935 55.3482 54.8388 54.3408C56.5834 53.3333 58.0019 54.1366 58.0077 56.1411C58.0104 57.1921 57.6241 58.3656 56.9996 59.3933L63.5904 55.5875L63.5681 47.6024C64.1043 48.0959 64.9458 48.1242 65.8909 47.5783C67.5081 46.645 68.811 44.3822 68.806 42.5238C68.8003 40.6663 67.4884 39.9191 65.8714 40.8524Z" fill="#F1522D"/>
<path fill-rule="evenodd" clip-rule="evenodd" d="M63.5832 68.2029C63.0062 69.2536 62.1814 70.1819 61.2667 70.7096C59.5223 71.7172 58.104 70.9044 58.0976 68.904C58.0921 66.8986 59.5015 64.4581 61.2465 63.4507C62.1605 62.9228 62.9881 62.8978 63.5686 63.2791L63.5472 55.7052L56.9566 59.5109L56.598 59.717C57.29 58.7024 57.7376 57.4777 57.7349 56.3916C57.7294 54.5335 56.4134 53.7885 54.7966 54.7218C53.1795 55.6551 51.8764 57.913 51.8814 59.7709C51.8849 60.8572 52.3339 61.5643 53.0288 61.7781L52.6711 61.9851L46.0799 65.7902C46.0941 70.8307 46.1081 75.8665 46.1225 80.9075C46.1301 83.6338 48.0764 84.7419 50.4438 83.3752C54.831 80.8423 59.2179 78.3097 63.6048 75.7765L63.5832 68.2029Z" fill="#F1522D"/>
<path fill-rule="evenodd" clip-rule="evenodd" d="M74.0477 49.5778L74.4054 49.3716L80.9925 45.5688C80.978 40.5328 80.9643 35.492 80.9496 30.4515C80.942 27.7252 79.0006 26.614 76.6285 27.9833C72.2414 30.5164 67.8588 33.0463 63.4719 35.5792L63.4935 43.1531C64.0657 42.1056 64.8905 41.1771 65.8093 40.6464C67.5544 39.639 68.9729 40.447 68.9784 42.4524C68.9842 44.4577 67.5752 46.8981 65.8302 47.9055C64.9113 48.4362 64.0838 48.4667 63.5072 48.0771L63.5288 55.651L70.1201 51.8453L70.4778 51.6392C69.7817 52.6563 69.3382 53.8782 69.3416 54.9646C69.3464 56.8227 70.6634 57.5677 72.2804 56.6344C73.8926 55.7036 75.2003 53.4432 75.1955 51.5853C75.1921 50.4988 74.7431 49.7917 74.0477 49.5778Z" fill="#F1522D"/>
<path fill-rule="evenodd" clip-rule="evenodd" d="M81.1674 45.5657L74.5803 49.3685C75.205 49.6688 75.6017 50.3961 75.6042 51.4471C75.6097 53.4516 74.1962 55.8948 72.4558 56.9002C70.7107 57.9076 69.2922 57.0993 69.2867 55.0943C69.2832 54.0433 69.6742 52.8622 70.2948 51.8422L63.7035 55.6479L63.7249 63.2219L63.7262 63.633C63.1891 63.1395 62.3485 63.1168 61.4033 63.6626C59.7862 64.5961 58.4785 66.856 58.4842 68.7137C58.4891 70.5668 59.8058 71.3221 61.4221 70.389C62.3678 69.8429 63.2052 68.8406 63.7379 67.7347L63.7393 68.1456L63.7606 75.7195C68.1476 73.1871 72.5297 70.6567 76.9166 68.1243C79.2893 66.7551 81.2177 63.4088 81.2101 60.6834C81.1959 55.6424 81.1812 50.6065 81.1674 45.5657Z" fill="#F1522D"/>
<path d="M38.7643 61.6061L46.1079 65.6644L52.8718 61.7994C51.9055 61.2196 51.1822 59.0192 53.065 56.1951C54.9975 53.2963 56.8222 53.9614 57.3166 54.4558C58.2828 55.422 58.2828 56.5816 57.7031 57.9343C57.2393 59.0165 56.8656 59.5448 56.7368 59.6736L70.4578 51.7502C69.9424 52.5233 69.3755 54.3785 69.6847 55.6153C70.0712 57.1613 71.5959 57.1153 72.3903 56.7748C73.9363 56.1122 74.3228 55.6153 74.9026 54.2625C75.3464 53.2268 75.6756 49.8177 74.3228 49.6245C75.4823 49.0447 78.5744 47.1122 81.0866 45.5662" stroke="#E6EFFF" stroke-width="1.03807" stroke-linecap="round" stroke-linejoin="round"/>
<path d="M63.6939 75.9067V67.9833C63.1141 68.9496 61.4908 70.4955 60.4086 70.4955C59.0558 70.4955 57.8571 69.2226 58.4761 66.4372C58.7338 65.2777 59.2491 64.4274 60.9884 63.7317C61.7614 63.4225 63.5006 63.925 63.6939 63.5385C63.8485 63.2293 63.6295 52.8452 63.5007 47.6918C64.016 47.9495 65.2034 48.0247 66.2062 47.6918C67.8844 47.1346 68.9117 45.9525 69.105 44.2132C69.233 43.0607 69.2982 41.3144 67.9455 40.5414C66.9792 39.9892 65.4332 40.7346 64.8534 41.3144C64.3896 41.7782 63.8227 42.7316 63.5007 43.247V35.7101L55.8915 31.34" stroke="#E6EFFF" stroke-width="1.03807" stroke-linecap="round" stroke-linejoin="round"/>
<path fill-rule="evenodd" clip-rule="evenodd" d="M82.1299 53.8915L74.8148 49.6401C75.3801 49.9682 75.7329 50.6719 75.7357 51.6642C75.7419 53.5207 74.5479 55.6142 73.1803 56.7063C72.4388 57.296 71.2731 57.8787 70.3393 57.3379L77.5925 61.7737C80.3273 63.5318 83.528 58.8476 83.2571 55.9153C83.2543 54.9232 82.7982 54.0959 82.1299 53.8915Z" fill="#FFED0E"/>
<path fill-rule="evenodd" clip-rule="evenodd" d="M63.8696 67.9515L71.1847 72.2026L72.1754 74.7156L71.2074 80.1874L63.8921 75.9368L63.8696 67.9515ZM71.173 68.1011L71.3469 67.6693L71.9829 63.8922L71.1503 60.1161L63.8354 55.8647C63.8432 58.5342 63.851 61.388 63.8581 63.8505L71.173 68.1011Z" fill="#FFED0E"/>
<path fill-rule="evenodd" clip-rule="evenodd" d="M70.4265 52.0598L63.8353 55.8646L71.1501 60.1159L73.7682 59.6L77.7414 56.3102L70.4265 52.0598ZM81.2989 45.7826L88.6138 50.0339L83.7807 53.4664L82.0267 53.8367L74.7116 49.5856L81.2989 45.7826Z" fill="#FFED0E"/>
<path fill-rule="evenodd" clip-rule="evenodd" d="M59.9962 71.112L66.7719 75.0513C66.4587 74.8694 70.3466 67.5781 70.9184 67.909L64.0658 63.8816C61.7444 62.6073 58.7297 66.5138 58.9802 69.2236C58.9825 70.1406 59.4299 70.7739 59.9962 71.112Z" fill="#FFED0E"/>
<path fill-rule="evenodd" clip-rule="evenodd" d="M88.614 50.0341L82.0269 53.8368C82.6516 54.1372 83.0483 54.8645 83.0508 55.9155C83.0563 57.92 81.6428 60.3632 79.9024 61.3685C78.1573 62.376 76.7388 61.5677 76.7333 59.5627C76.7298 58.5117 77.1208 57.3306 77.7414 56.3105L71.1501 60.1163L71.1715 67.6902L71.1728 68.1014C70.6357 67.6079 69.7951 67.5852 68.8499 68.131C67.2328 69.0645 65.9251 71.3244 65.9308 73.1821C65.9357 75.0352 67.2523 75.7905 68.8687 74.8574C69.8144 74.3113 70.6518 73.3089 71.1845 72.2031L71.1859 72.614L71.2072 80.1879C75.5942 77.6555 79.9763 75.1251 84.3632 72.5927C86.7359 71.2234 88.6643 67.8772 88.6567 65.1518C88.6425 60.1108 88.6278 55.0748 88.614 50.0341Z" fill="#FFED0E"/>
<path fill-rule="evenodd" clip-rule="evenodd" d="M70.8275 57.5102L77.7214 61.3607C76.4405 60.6165 76.8762 58.4676 77.3639 57.351C77.3651 57.3471 77.3672 57.3432 77.369 57.3395C77.8483 56.2465 78.7231 55.0902 79.7686 54.4859C80.369 54.1401 81.181 53.9047 81.825 54.2799L75.1784 50.4158C74.6209 49.8769 73.8041 50.0703 73.1388 50.3702C70.6703 51.4836 68.7204 56.2862 70.8275 57.5102Z" fill="#FFED0E"/>
<path fill-rule="evenodd" clip-rule="evenodd" d="M75.6898 44.8332L68.1891 40.6438C69.5826 41.4535 69.1086 43.7918 68.5779 45.0064C68.5766 45.0105 68.5743 45.0149 68.5724 45.019C68.0512 46.2081 67.0993 47.4663 65.9615 48.1236C65.3084 48.4999 64.4248 48.756 63.7242 48.3478L70.9558 52.5521C71.5624 53.1385 72.4509 52.9281 73.1748 52.6016C75.8609 51.3903 77.9823 46.165 75.6898 44.8332Z" fill="#FFED0E"/>
<path fill-rule="evenodd" clip-rule="evenodd" d="M71.3866 52.3394L63.639 48.2943L63.6606 55.8682L70.9755 60.1196L71.3866 52.3394ZM71.4958 39.6354L63.6039 35.7966L63.6253 43.3705L70.9402 47.6216L71.4958 39.6354Z" fill="#FFED0E"/>
<path fill-rule="evenodd" clip-rule="evenodd" d="M87.1348 32.1574L79.8204 27.906C78.8485 27.3508 77.669 27.6759 76.76 28.2009C72.3731 30.7335 67.9903 33.2637 63.6037 35.7963L70.9188 40.0474C75.3057 37.5143 79.5233 36.7983 83.9104 34.2651C84.8077 33.7501 86.176 31.5962 87.1348 32.1574Z" fill="#FBBC04"/>
<path fill-rule="evenodd" clip-rule="evenodd" d="M81.4943 54.0462L81.852 53.84L88.4391 50.0372C88.4247 45.0012 88.4109 39.9604 88.3962 34.9199C88.3887 32.1935 86.4472 31.0824 84.0752 32.4517C79.688 34.9848 75.3055 37.5147 70.9185 40.0476L70.9401 47.6215C71.5123 46.5739 72.3371 45.6454 73.256 45.1148C75.001 44.1073 76.4196 44.9154 76.4251 46.9208C76.4308 48.926 75.0219 51.3665 73.2768 52.3739C72.358 52.9046 71.5304 52.9351 70.9539 52.5455L70.9754 60.1194L77.5667 56.3137L77.9244 56.1076C77.2283 57.1247 76.7848 58.3466 76.7883 59.433C76.7931 61.2911 78.11 62.0361 79.727 61.1028C81.3392 60.172 82.647 57.9116 82.6421 56.0537C82.6387 54.9671 82.1897 54.26 81.4943 54.0462Z" fill="#FFED0E"/>
<path fill-rule="evenodd" clip-rule="evenodd" d="M54.7627 69.3516L46.2109 66.0077C46.2251 71.0485 46.2396 76.0844 46.2538 81.1252C46.2575 82.4798 46.7404 83.4349 47.5155 83.885L54.8306 88.1364C70.0578 60.4523 54.8365 95.3037 54.7627 69.3516Z" fill="#FBBC04"/>
<path fill-rule="evenodd" clip-rule="evenodd" d="M63.7143 68.4207C63.2938 69.1867 62.6957 69.9493 62.0108 70.4979C61.2748 71.0921 60.088 71.6976 59.1517 71.1458L66.4044 75.5002C68.1191 76.4647 70.3104 74.409 71.0297 72.6708L63.7143 68.4207Z" fill="#FFED0E"/>
<path fill-rule="evenodd" clip-rule="evenodd" d="M63.6792 55.9219L56.6139 60.016L63.9293 64.2674L66.2704 63.362L70.9941 60.1732L63.6792 55.9219ZM53.1603 61.9951L61.6501 65.7515L60.1588 67.6485L53.5263 70.2582L46.2109 66.0074C48.5339 64.6661 51.0925 63.1886 53.1603 61.9951Z" fill="#FFED0E"/>
<path fill-rule="evenodd" clip-rule="evenodd" d="M60.1242 66.0874L52.7942 61.801C50.0151 59.9357 54.2141 53.0223 57.158 54.6781L64.4107 59.0324C62.0003 58.3664 58.4834 64.279 60.1242 66.0874Z" fill="#FFED0E"/>
<path fill-rule="evenodd" clip-rule="evenodd" d="M71.0299 72.6709C70.4528 73.7217 69.628 74.6499 68.7133 75.1776C66.969 76.1853 65.5506 75.3724 65.5442 73.372C65.5387 71.3666 66.9481 68.9261 68.6931 67.9187C69.6072 67.3908 70.4347 67.3658 71.0152 67.7471L70.9938 60.1732L64.4033 63.9789L64.0447 64.185C64.7366 63.1704 65.1842 61.9457 65.1815 60.8596C65.176 59.0015 63.86 58.2565 62.2432 59.1898C60.6262 60.1232 59.323 62.381 59.3281 64.2389C59.3315 65.3252 59.7805 66.0323 60.4754 66.2462L60.1178 66.4531L53.5265 70.2582C53.5407 75.2987 53.5547 80.3345 53.5692 85.3755C53.5767 88.1018 55.523 89.21 57.8905 87.8432C62.2776 85.3103 66.6645 82.7777 71.0514 80.2446L71.0299 72.6709Z" fill="#FFED0E"/>
<path fill-rule="evenodd" clip-rule="evenodd" d="M75.1681 44.9845L69.9697 42.2281C68.7333 41.8425 66.8653 45.8214 67.7571 46.9195L74.4355 50.7372C76.0778 49.526 76.5584 45.8471 75.1681 44.9845Z" fill="#FFED0E"/>
<path fill-rule="evenodd" clip-rule="evenodd" d="M64.689 58.2923L61.8193 56.7723C60.5831 56.3866 58.7151 60.3659 59.6066 61.4637L64.1211 64.0861C66.2376 62.7102 66.0791 59.1552 64.689 58.2923Z" fill="#FFED0E"/>
<path fill-rule="evenodd" clip-rule="evenodd" d="M70.9799 39.9845L63.665 35.7332C59.2781 38.2656 54.8909 40.7987 50.5045 43.3312C48.1072 44.7167 46.2045 48.0923 46.2109 50.7729C46.2254 55.8137 46.2396 60.8545 46.2536 65.8902L53.569 70.1409C53.5313 56.8239 59.5238 46.598 70.9799 39.9845Z" fill="#FBBC04"/>
<path fill-rule="evenodd" clip-rule="evenodd" d="M73.318 45.3205C72.3727 45.8666 71.5349 46.8635 71.0028 47.9693L70.9799 39.9843C66.593 42.5167 62.2063 45.0498 57.8194 47.5825C55.4516 48.9499 53.5187 52.2979 53.5265 55.0233C53.5407 60.0648 53.555 65.1056 53.5692 70.1409L60.1605 66.3358C59.5357 66.03 59.1397 65.3077 59.1367 64.2574C59.131 62.252 60.5402 59.8163 62.2854 58.8089C64.03 57.8015 65.4486 58.6047 65.4543 60.6092C65.4571 61.6603 65.0707 62.8338 64.4462 63.8614L71.037 60.0556L71.0147 52.0706C71.5509 52.5641 72.3925 52.5923 73.3375 52.0465C74.9547 51.1132 76.2577 48.8503 76.2526 46.9919C76.2469 45.1345 74.935 44.3872 73.318 45.3205Z" fill="#FFED0E"/>
<path fill-rule="evenodd" clip-rule="evenodd" d="M71.0299 72.671C70.4528 73.7218 69.628 74.65 68.7133 75.1777C66.969 76.1854 65.5506 75.3725 65.5442 73.3721C65.5387 71.3667 66.9481 68.9263 68.6931 67.9188C69.6072 67.3909 70.4347 67.3659 71.0152 67.7472L70.9938 60.1733L64.4033 63.9791L64.0447 64.1851C64.7366 63.1706 65.1842 61.9459 65.1815 60.8598C65.176 59.0016 63.86 58.2566 62.2432 59.19C60.6262 60.1233 59.323 62.3811 59.3281 64.239C59.3315 65.3254 59.7805 66.0325 60.4754 66.2463L60.1178 66.4532L53.5265 70.2583C53.5407 75.2989 53.5547 80.3346 53.5692 85.3756C53.5767 88.1019 55.523 89.2101 57.8905 87.8434C62.2776 85.3105 66.6645 82.7778 71.0514 80.2447L71.0299 72.671Z" fill="#FFED0E"/>
<path fill-rule="evenodd" clip-rule="evenodd" d="M81.4943 54.046L81.852 53.8397L88.4391 50.0369C88.4247 45.001 88.4109 39.9602 88.3962 34.9196C88.3886 32.1933 86.4472 31.0822 84.0751 32.4514C79.688 34.9845 75.3054 37.5145 70.9185 40.0474L70.9401 47.6213C71.5123 46.5737 72.3371 45.6452 73.256 45.1145C75.001 44.1071 76.4195 44.9151 76.4251 46.9206C76.4308 48.9258 75.0219 51.3662 73.2768 52.3737C72.358 52.9043 71.5304 52.9348 70.9539 52.5453L70.9754 60.1192L77.5667 56.3134L77.9244 56.1074C77.2283 57.1244 76.7848 58.3464 76.7882 59.4327C76.7931 61.2909 78.11 62.0358 79.727 61.1025C81.3392 60.1717 82.6469 57.9114 82.6421 56.0535C82.6387 54.9669 82.1897 54.2598 81.4943 54.046Z" fill="#FFED0E"/>
<path fill-rule="evenodd" clip-rule="evenodd" d="M88.6141 50.0339L82.0269 53.8367C82.6517 54.137 83.0483 54.8643 83.0509 55.9153C83.0564 57.9199 81.6429 60.3631 79.9024 61.3684C78.1574 62.3758 76.7388 61.5676 76.7333 59.5626C76.7299 58.5116 77.1208 57.3305 77.7414 56.3104L71.1501 60.1162L71.1715 67.6901L71.1729 68.1012C70.6358 67.6077 69.7951 67.585 68.8499 68.1308C67.2329 69.0644 65.9251 71.3243 65.9309 73.182C65.9357 75.0351 67.2524 75.7903 68.8687 74.8572C69.8144 74.3112 70.6518 73.3088 71.1846 72.203L71.1859 72.6139L71.2073 80.1878C75.5942 77.6554 79.9763 75.125 84.3632 72.5926C86.736 71.2233 88.6643 67.8771 88.6567 65.1517C88.6425 60.1107 88.6278 55.0747 88.6141 50.0339Z" fill="#FFED0E"/>
<path d="M46.5833 66.2675L53.5545 70.1326L60.3184 66.2675C59.3521 65.6878 58.6289 63.4873 60.5116 60.6632C62.4442 57.7644 64.2688 58.4295 64.7632 58.9239C65.7295 59.8902 65.7295 61.0497 65.1497 62.4025C64.6859 63.4847 64.3123 64.0129 64.1834 64.1417L77.9044 56.2184C77.389 56.9914 76.8222 58.8466 77.1314 60.0834C77.5179 61.6295 79.0425 61.5834 79.8369 61.243C81.3829 60.5804 81.7694 60.0834 82.3492 58.7307C82.7931 57.6949 83.1222 54.2859 81.7694 54.0926C82.9289 53.5128 86.021 51.5803 88.5333 50.0343" stroke="#E6EFFF" stroke-width="1.03807" stroke-linecap="round" stroke-linejoin="round"/>
<path d="M71.1405 80.3747V72.4513C70.5608 73.4176 68.9374 74.9636 67.8552 74.9636C66.5025 74.9636 65.3037 73.6907 65.9227 70.9053C66.1804 69.7457 66.6957 68.8954 68.435 68.1997C69.208 67.8905 70.9472 68.393 71.1405 68.0065C71.2951 67.6973 71.0761 57.3132 70.9473 52.1598C71.4626 52.4175 72.6501 52.4927 73.6528 52.1598C75.3311 51.6026 76.3584 50.4205 76.5516 48.6812C76.6797 47.5287 76.7449 45.7824 75.3921 45.0094C74.4258 44.4572 72.8798 45.2026 72.3 45.7824C71.8362 46.2462 71.2694 47.1997 70.9473 47.715V40.1781L63.7105 35.808" stroke="#E6EFFF" stroke-width="1.03807" stroke-linecap="round" stroke-linejoin="round"/>
<path fill-rule="evenodd" clip-rule="evenodd" d="M103.725 68.0399L96.41 63.7886C96.9753 64.1167 97.3282 64.8203 97.3309 65.8126C97.3371 67.6691 96.1432 69.7627 94.7755 70.8548C94.034 71.4444 92.8683 72.0271 91.9345 71.4864L99.1877 75.9222C101.922 77.6803 105.123 72.996 104.852 70.0637C104.85 69.0716 104.393 68.2443 103.725 68.0399Z" fill="#04C984"/>
<path fill-rule="evenodd" clip-rule="evenodd" d="M85.4648 82.1L92.7799 86.3511L93.7706 88.864L92.8026 94.3359L85.4873 90.0853L85.4648 82.1ZM92.7682 82.2496L92.9421 81.8178L93.5781 78.0407L92.7455 74.2645L85.4306 70.0132C85.4384 72.6826 85.4462 75.5365 85.4533 77.9989L92.7682 82.2496Z" fill="#04C984"/>
<path fill-rule="evenodd" clip-rule="evenodd" d="M92.0217 66.2082L85.4305 70.0131L92.7453 74.2644L95.3634 73.7484L99.3366 70.4586L92.0217 66.2082ZM102.894 59.931L110.209 64.1824L105.376 67.6148L103.622 67.9851L96.3068 63.734L102.894 59.931Z" fill="#04C984"/>
<path fill-rule="evenodd" clip-rule="evenodd" d="M81.5914 85.2605L88.3671 89.1998C88.0539 89.0178 91.9418 81.7266 92.5136 82.0574L85.661 78.03C83.3396 76.7558 80.3249 80.6622 80.5755 83.372C80.5778 84.2891 81.0252 84.9223 81.5914 85.2605Z" fill="#04C984"/>
<path fill-rule="evenodd" clip-rule="evenodd" d="M110.209 64.1825L103.622 67.9853C104.247 68.2856 104.644 69.0129 104.646 70.0639C104.652 72.0684 103.238 74.5116 101.498 75.517C99.7526 76.5244 98.334 75.7161 98.3285 73.7111C98.325 72.6601 98.716 71.479 99.3366 70.459L92.7453 74.2648L92.7667 81.8387L92.768 82.2498C92.231 81.7563 91.3903 81.7336 90.4451 82.2794C88.8281 83.2129 87.5203 85.4728 87.5261 87.3305C87.5309 89.1836 88.8476 89.9389 90.4639 89.0058C91.4096 88.4598 92.247 87.4574 92.7797 86.3515L92.7811 86.7624L92.8025 94.3364C97.1894 91.8039 101.571 89.2736 105.958 86.7411C108.331 85.3719 110.259 82.0257 110.252 79.3003C110.238 74.2592 110.223 69.2233 110.209 64.1825Z" fill="#04C984"/>
<path fill-rule="evenodd" clip-rule="evenodd" d="M92.4227 71.6587L99.3166 75.5092C98.0357 74.7649 98.4714 72.6161 98.9592 71.4994C98.9603 71.4955 98.9624 71.4916 98.9642 71.488C99.4435 70.395 100.318 69.2386 101.364 68.6343C101.964 68.2886 102.776 68.0532 103.42 68.4283L96.7736 64.5643C96.2161 64.0253 95.3994 64.2187 94.734 64.5186C92.2656 65.632 90.3157 70.4347 92.4227 71.6587Z" fill="#04C984"/>
<path fill-rule="evenodd" clip-rule="evenodd" d="M97.285 58.9816L89.7843 54.7922C91.1778 55.6019 90.7038 57.9402 90.1732 59.1548C90.1718 59.159 90.1695 59.1633 90.1677 59.1674C89.6464 60.3566 88.6945 61.6148 87.5568 62.2721C86.9036 62.6483 86.02 62.9044 85.3194 62.4962L92.551 66.7005C93.1576 67.2869 94.0462 67.0766 94.77 66.7501C97.4562 65.5387 99.5775 60.3134 97.285 58.9816Z" fill="#04C984"/>
<path fill-rule="evenodd" clip-rule="evenodd" d="M92.9818 66.4877L85.2342 62.4426L85.2558 70.0166L92.5707 74.2679L92.9818 66.4877ZM93.091 53.7838L85.1991 49.9449L85.2205 57.5189L92.5354 61.77L93.091 53.7838Z" fill="#04C984"/>
<path fill-rule="evenodd" clip-rule="evenodd" d="M108.73 46.3058L101.416 42.0545C100.444 41.4993 99.2643 41.8244 98.3553 42.3493C93.9684 44.882 89.5856 47.4121 85.1989 49.9448L92.514 54.1959C96.9009 51.6627 101.119 50.9467 105.506 48.4136C106.403 47.8985 107.771 45.7446 108.73 46.3058Z" fill="#03B073"/>
<path fill-rule="evenodd" clip-rule="evenodd" d="M103.09 68.1948L103.447 67.9885L110.034 64.1857C110.02 59.1498 110.006 54.109 109.991 49.0684C109.984 46.3421 108.042 45.231 105.67 46.6002C101.283 49.1333 96.9007 51.6633 92.5138 54.1962L92.5353 61.7701C93.1075 60.7225 93.9323 59.794 94.8512 59.2633C96.5962 58.2559 98.0148 59.064 98.0203 61.0694C98.026 63.0746 96.6171 65.515 94.8721 66.5225C93.9532 67.0531 93.1257 67.0836 92.5491 66.6941L92.5707 74.268L99.1619 70.4622L99.5196 70.2562C98.8235 71.2733 98.38 72.4952 98.3835 73.5815C98.3883 75.4397 99.7052 76.1846 101.322 75.2513C102.934 74.3205 104.242 72.0602 104.237 70.2023C104.234 69.1157 103.785 68.4086 103.09 68.1948Z" fill="#04C984"/>
<path fill-rule="evenodd" clip-rule="evenodd" d="M76.3579 83.5002L67.8062 80.1562C67.8204 85.197 67.8348 90.233 67.8491 95.2738C67.8527 96.6283 68.3357 97.5835 69.1107 98.0336L76.4258 102.285C91.653 74.6009 76.4318 109.452 76.3579 83.5002Z" fill="#03B073"/>
<path fill-rule="evenodd" clip-rule="evenodd" d="M85.3096 82.5692C84.889 83.3353 84.2909 84.0979 83.606 84.6465C82.87 85.2407 81.6832 85.8462 80.7469 85.2944L87.9996 89.6487C89.7144 90.6132 91.9056 88.5575 92.6249 86.8194L85.3096 82.5692Z" fill="#04C984"/>
<path fill-rule="evenodd" clip-rule="evenodd" d="M85.2744 70.0704L78.2092 74.1646L85.5245 78.4159L87.8656 77.5106L92.5893 74.3218L85.2744 70.0704ZM74.7556 76.1437L83.2454 79.9001L81.7541 81.797L75.1215 84.4068L67.8062 80.1559C70.1291 78.8147 72.6877 77.3371 74.7556 76.1437Z" fill="#04C984"/>
<path fill-rule="evenodd" clip-rule="evenodd" d="M81.7195 80.2361L74.3894 75.9496C71.6104 74.0844 75.8094 67.171 78.7532 68.8268L86.0059 73.1811C83.5955 72.5151 80.0786 78.4277 81.7195 80.2361Z" fill="#04C984"/>
<path fill-rule="evenodd" clip-rule="evenodd" d="M92.6251 86.8194C92.0481 87.8702 91.2233 88.7985 90.3085 89.3262C88.5642 90.3338 87.1459 89.521 87.1394 87.5206C87.1339 85.5151 88.5433 83.0747 90.2884 82.0673C91.2024 81.5393 92.03 81.5143 92.6104 81.8957L92.5891 74.3217L85.9985 78.1275L85.6399 78.3335C86.3319 77.319 86.7795 76.0943 86.7767 75.0082C86.7712 73.15 85.4552 72.4051 83.8384 73.3384C82.2214 74.2717 80.9182 76.5295 80.9233 78.3874C80.9267 79.4738 81.3757 80.1809 82.0707 80.3947L81.713 80.6017L75.1217 84.4068C75.1359 89.4473 75.1499 94.4831 75.1644 99.5241C75.172 102.25 77.1182 103.359 79.4857 101.992C83.8728 99.4589 88.2597 96.9262 92.6467 94.3931L92.6251 86.8194Z" fill="#04C984"/>
<path fill-rule="evenodd" clip-rule="evenodd" d="M96.7633 59.133L91.5649 56.3767C90.3285 55.991 88.4605 59.97 89.3523 61.0681L96.0308 64.8858C97.673 63.6746 98.1537 59.9957 96.7633 59.133Z" fill="#04C984"/>
<path fill-rule="evenodd" clip-rule="evenodd" d="M86.2842 72.4408L83.4145 70.9209C82.1783 70.5352 80.3103 74.5144 81.2019 75.6122L85.7163 78.2346C87.8328 76.8587 87.6743 73.3037 86.2842 72.4408Z" fill="#04C984"/>
<path fill-rule="evenodd" clip-rule="evenodd" d="M92.5751 54.1332L85.2602 49.8818C80.8733 52.4143 76.4862 54.9474 72.0997 57.4798C69.7024 58.8654 67.7998 62.241 67.8062 64.9216C67.8206 69.9624 67.8349 75.0032 67.8489 80.0389L75.1642 84.2895C75.1266 70.9726 81.119 60.7467 92.5751 54.1332Z" fill="#03B073"/>
<path fill-rule="evenodd" clip-rule="evenodd" d="M94.9132 59.469C93.968 60.015 93.1301 61.0119 92.598 62.1177L92.5751 54.1327C88.1882 56.6651 83.8015 59.1983 79.4146 61.7309C77.0469 63.0983 75.1139 66.4464 75.1217 69.1718C75.136 74.2132 75.1502 79.254 75.1644 84.2893L81.7557 80.4842C81.1309 80.1784 80.735 79.4562 80.732 78.4058C80.7262 76.4004 82.1354 73.9648 83.8807 72.9573C85.6252 71.9499 87.0438 72.7532 87.0495 74.7577C87.0523 75.8087 86.6659 76.9822 86.0414 78.0098L92.6322 74.2041L92.61 66.219C93.1462 66.7125 93.9877 66.7407 94.9327 66.1949C96.55 65.2616 97.8529 62.9987 97.8478 61.1404C97.8421 59.2829 96.5302 58.5357 94.9132 59.469Z" fill="#04C984"/>
<path fill-rule="evenodd" clip-rule="evenodd" d="M92.6251 86.8196C92.0481 87.8703 91.2233 88.7986 90.3085 89.3263C88.5642 90.3339 87.1459 89.5211 87.1394 87.5207C87.1339 85.5153 88.5433 83.0748 90.2884 82.0674C91.2024 81.5395 92.03 81.5145 92.6104 81.8958L92.5891 74.3219L85.9985 78.1276L85.6399 78.3337C86.3319 77.3191 86.7795 76.0944 86.7767 75.0083C86.7712 73.1502 85.4552 72.4052 83.8384 73.3385C82.2214 74.2718 80.9182 76.5297 80.9233 78.3876C80.9267 79.4739 81.3757 80.181 82.0707 80.3948L81.713 80.6018L75.1217 84.4069C75.1359 89.4474 75.1499 94.4832 75.1644 99.5242C75.172 102.25 77.1182 103.359 79.4857 101.992C83.8728 99.459 88.2597 96.9264 92.6467 94.3932L92.6251 86.8196Z" fill="#04C984"/>
<path fill-rule="evenodd" clip-rule="evenodd" d="M103.09 68.1946L103.447 67.9884L110.034 64.1856C110.02 59.1496 110.006 54.1088 109.991 49.0683C109.984 46.342 108.042 45.2309 105.67 46.6001C101.283 49.1332 96.9007 51.6631 92.5138 54.196L92.5353 61.7699C93.1075 60.7224 93.9323 59.7939 94.8512 59.2632C96.5962 58.2558 98.0148 59.0638 98.0203 61.0693C98.026 63.0745 96.6171 65.5149 94.8721 66.5223C93.9532 67.053 93.1256 67.0835 92.5491 66.694L92.5707 74.2679L99.1619 70.4621L99.5196 70.2561C98.8235 71.2731 98.38 72.4951 98.3835 73.5814C98.3883 75.4396 99.7052 76.1845 101.322 75.2512C102.934 74.3204 104.242 72.0601 104.237 70.2022C104.234 69.1156 103.785 68.4085 103.09 68.1946Z" fill="#04C984"/>
<path fill-rule="evenodd" clip-rule="evenodd" d="M110.209 64.1825L103.622 67.9853C104.247 68.2856 104.644 69.0129 104.646 70.0639C104.652 72.0684 103.238 74.5116 101.498 75.517C99.7526 76.5244 98.334 75.7161 98.3285 73.7111C98.3251 72.6601 98.716 71.479 99.3366 70.459L92.7454 74.2648L92.7667 81.8387L92.7681 82.2498C92.231 81.7563 91.3904 81.7336 90.4451 82.2794C88.8281 83.2129 87.5203 85.4728 87.5261 87.3305C87.5309 89.1836 88.8476 89.9389 90.4639 89.0058C91.4096 88.4598 92.247 87.4574 92.7798 86.3515L92.7812 86.7624L92.8025 94.3364C97.1894 91.8039 101.572 89.2736 105.958 86.7411C108.331 85.3719 110.26 82.0257 110.252 79.3003C110.238 74.2592 110.223 69.2233 110.209 64.1825Z" fill="#04C984"/>
<path d="M67.8062 80.2227L75.1498 84.281L81.9136 80.4159C80.9473 79.8362 80.2241 77.6358 82.1069 74.8116C84.0394 71.9129 85.864 72.578 86.3584 73.0724C87.3247 74.0386 87.3247 75.1981 86.7449 76.5509C86.2811 77.6331 85.9075 78.1613 85.7787 78.2902L99.4996 70.3668C98.9843 71.1398 98.4174 72.9951 98.7266 74.2319C99.1131 75.7779 100.638 75.7318 101.432 75.3914C102.978 74.7288 103.365 74.2319 103.944 72.8791C104.388 71.8434 104.717 68.4343 103.365 68.241C104.524 67.6613 107.616 65.7288 110.129 64.1827" stroke="#E6EFFF" stroke-width="1.03807" stroke-linecap="round" stroke-linejoin="round"/>
<path d="M92.7357 94.5233V86.5999C92.156 87.5662 90.5327 89.1121 89.4505 89.1121C88.0977 89.1121 86.899 87.8392 87.5179 85.0538C87.7756 83.8943 88.291 83.044 90.0302 82.3483C90.8032 82.0391 92.5425 82.5416 92.7357 82.1551C92.8904 81.8459 92.6713 71.4618 92.5425 66.3084C93.0579 66.566 94.2453 66.6413 95.2481 66.3084C96.9263 65.7512 97.9536 64.569 98.1468 62.8298C98.2749 61.6773 98.3401 59.931 96.9873 59.1579C96.0211 58.6058 94.475 59.3512 93.8953 59.931C93.4315 60.3948 92.8646 61.3482 92.5425 61.8636V54.3266L84.6192 50.0751" stroke="#E6EFFF" stroke-width="1.03807" stroke-linecap="round" stroke-linejoin="round"/>
</g>
<defs>
<clipPath id="clip0_216_66">
<rect width="128" height="128" fill="white"/>
</clipPath>
</defs>
</svg>
