<svg width="128" height="128" viewBox="0 0 128 128" fill="none" xmlns="http://www.w3.org/2000/svg">
<path d="M74.6419 77.4066L58.681 79.9175L54.3426 89.1146L70.279 86.6499L74.6419 77.4066Z" fill="#954A83"/>
<path d="M75.291 76.0308L59.3507 78.4965L58.681 79.9174L74.6419 77.4065L75.291 76.0308Z" fill="#E6EFFF"/>
<path d="M62.8572 71.0622C62.8562 71.0652 62.8553 71.0671 62.8543 71.0701L59.3506 78.4977L75.2909 76.032L76.5213 73.4239C76.8228 72.8651 77.0889 72.3044 77.3148 71.7417L77.3933 71.5758L77.3786 71.5748C77.5563 71.1182 77.7036 70.6606 77.8313 70.203L71.2432 67.1206L62.8572 71.0622Z" fill="#954A83"/>
<path d="M63.3866 69.2338C63.2805 69.8426 63.1096 70.4534 62.8573 71.0622L71.2453 67.1206L77.8333 70.203C77.9874 69.6511 78.0964 69.1002 78.1789 68.5493L71.4956 65.4227L63.3866 69.2338Z" fill="#E6EFFF"/>
<path d="M42.7407 56.9198C48.4558 56.6793 54.0157 57.6985 58.0624 60.0346C62.2534 62.4542 63.9807 65.8106 63.3856 69.2327L71.4947 65.4217L78.178 68.5483C79.0078 62.9658 76.11 57.5149 69.2686 53.5645C61.5435 49.1044 54.5175 43.5405 43.5774 44.7091L35.0745 53.8561L42.7407 56.9198Z" fill="#AC2F12"/>
<path d="M39.2321 57.2282C40.4006 57.074 41.5741 56.9699 42.7416 56.9208L35.0754 53.8571L39.5649 48.7047C38.6615 48.8009 37.7581 48.9129 36.8577 49.0464L32.1825 54.4119L39.2321 57.2282Z" fill="#DAE0F6"/>
<path d="M19.0527 69.7815C19.7941 66.7885 22.3079 63.7817 26.5343 61.3425C30.2383 59.2037 34.6974 57.8251 39.2321 57.228L32.1826 54.4118L36.8577 49.0463C29.6933 50.1117 22.6938 52.3545 16.8295 55.7394C8.34333 60.6384 4.00401 66.9102 4.00107 72.859L12.498 74.7621L19.0527 69.7815Z" fill="#FBBC04"/>
<path d="M18.8239 71.9823C18.7895 71.2557 18.869 70.5192 19.0517 69.7817L12.497 74.7623L4.00006 72.8592C4.00006 73.362 4.02067 73.8638 4.08352 74.3607L13.0499 76.3698L18.8239 71.9823Z" fill="#E6EFFF"/>
<path d="M36.4894 76.6144C31.2732 76.6468 18.9574 74.8203 18.8238 71.9824L13.0499 76.3699L4.0835 74.3608C4.62947 78.7384 7.59307 82.8567 13.0636 86.0148C19.308 89.6196 27.7175 91.3243 36.4885 91.231L43.3397 86.601L36.4894 76.6144Z" fill="#FBBC04"/>
<path d="M41.093 82.5618C40.1238 82.6393 39.1566 82.6816 38.1962 82.6875L43.3417 86.5996L36.4905 91.2296C37.4656 91.2188 38.4436 91.1854 39.4256 91.1304L46.2758 86.5004L41.093 82.5618Z" fill="#C66BC6"/>
<path d="M83.7496 84.5063L85.1686 84.2834C85.8569 84.1793 86.5483 84.0998 87.2406 84.0321L93.5055 79.7978L87.8572 75.5037C86.9568 75.5773 86.0553 75.6667 85.1558 75.7786L90.5723 79.897L83.7496 84.5063Z" fill="#DAE0F6"/>
<path d="M66.4434 94.8169L66.4296 94.806L69.6299 88.0256L59.4145 89.633L57.9601 88.5607L83.7506 84.5062L90.5723 79.8958L85.1558 75.7775C85.0183 75.7942 84.8808 75.8059 84.7434 75.8246L84.7424 75.8177L84.4144 75.8688C83.4619 75.9974 82.5113 76.1467 81.5657 76.3165L48.332 81.5446C48.332 81.5446 44.2607 82.1897 43.4702 82.3007C42.6798 82.4107 41.8853 82.4981 41.0929 82.5619L46.2747 86.5015L39.4245 91.1315C41.1341 91.0363 42.8487 90.8811 44.5583 90.6513L44.5592 90.668L45.2044 90.5669C45.5844 90.5119 45.9634 90.4491 46.3425 90.3882L55.4758 88.9525C55.0241 89.4465 54.6136 89.9473 54.2247 90.451L53.6729 90.5374L52.2255 93.6061C52.1223 93.8143 52.0242 94.0214 51.9309 94.2296L51.6736 94.7756L51.6972 94.7677C51.4094 95.4787 51.1777 96.1916 51.0117 96.9035L58.1732 93.3714L65.7472 96.6924C65.9043 96.0649 66.1301 95.4384 66.4434 94.8169Z" fill="#C66BC6"/>
<path d="M65.5076 98.355C65.5253 97.8031 65.6049 97.2473 65.7453 96.6905L58.1714 93.3695L51.0099 96.9017C50.8734 97.4859 50.7791 98.0702 50.7241 98.6525L58.0005 95.0634L65.5076 98.355Z" fill="#E6EFFF"/>
<path d="M84.9536 109.634C79.704 109.678 74.6733 108.646 70.935 106.488C67.1809 104.321 65.4084 101.4 65.5066 98.3562L58.0005 95.0657L50.7241 98.6548C50.2184 103.998 53.1653 109.169 59.7297 112.958C65.2602 116.151 72.4894 117.862 80.1645 118.15L76.8346 113.196L84.9536 109.634Z" fill="#3F13C2"/>
<path d="M89.0326 109.384C87.6706 109.538 86.3057 109.622 84.9545 109.634L76.8356 113.195L80.1654 118.149C81.0257 118.182 81.8918 118.193 82.7618 118.19L79.6195 113.514L89.0326 109.384Z" fill="#DAE0F6"/>
<path d="M124.381 97.5771C124.821 96.1758 125.027 94.7736 124.997 93.389C124.893 88.5587 121.913 83.9601 115.934 80.5085C108.592 76.2694 98.2553 74.6501 87.8573 75.5034L93.5055 79.7976L87.2406 84.0318C93.6951 83.4014 100.17 84.3461 104.728 86.9777C108.783 89.3188 110.547 92.5367 110.12 95.8429L115.345 100.202L124.381 97.5771Z" fill="#03B073"/>
<path d="M123.796 99.1375L114.384 101.87L109.583 97.8649C108.545 100.478 106.16 103.046 102.463 105.18C98.5596 107.433 93.8177 108.843 89.0316 109.383L79.6175 113.514L82.7598 118.19C92.9899 118.148 103.748 115.644 112.168 110.784C118.071 107.375 121.967 103.303 123.796 99.1375Z" fill="#3F13C2"/>
<path d="M123.796 99.1374C124.024 98.618 124.217 98.0975 124.381 97.5771L115.344 100.201L110.12 95.8419C110.034 96.5146 109.852 97.1911 109.584 97.8648L114.385 101.87L123.796 99.1374Z" fill="#E6EFFF"/>
<path d="M70.279 86.6501L54.3426 89.1149L53.6719 90.5368L69.6299 88.0269L70.279 86.6501Z" fill="#E6EFFF"/>
<path d="M124.997 82.0767L124.988 93.1366L123.39 93.7837L122.275 82.8083L124.997 82.0767Z" fill="#03B073"/>
<path d="M50.6681 88.5488V100.201L54.3426 100.083L59.3507 92.4777L50.6681 88.5488Z" fill="#3F13C2"/>
<path d="M70.2789 75.3131V86.6499C70.2789 86.6499 67.7621 91.983 67.7445 92.0203C67.7268 92.0576 63.4827 89.4112 63.4827 89.4112C63.4827 89.4112 63.1351 83.3721 64.4912 80.8485C65.8483 78.3238 70.2789 75.3131 70.2789 75.3131Z" fill="#B13113"/>
<path d="M80.1644 106.812V118.149C80.1644 118.149 70.8612 117.172 67.8113 113.787C64.7622 110.404 62.8572 99.6362 62.8572 99.6362L80.1644 106.812Z" fill="#3F13C2"/>
<path d="M82.7607 106.853L81.4626 112.501L82.7607 118.189C82.7607 118.189 107.801 109.116 112.499 106.811C117.195 104.508 123.797 99.1363 123.797 99.1363V87.7994L82.7607 106.853Z" fill="#3F13C2"/>
<path d="M82.7607 106.853V118.19L80.1644 118.148V106.812L82.7607 106.853Z" fill="#DAE0F6"/>
<path d="M123.796 87.8004V99.1373L124.381 97.5769V86.2401L123.796 87.8004Z" fill="#DAE0F6"/>
<path d="M87.2405 72.6951V84.032C87.2405 84.032 95.1483 81.6468 98.6471 80.9761C102.146 80.3054 110.677 79.8949 110.677 79.8949C110.677 79.8949 105.741 74.1219 99.8451 72.3495C93.9503 70.5751 87.2405 72.6951 87.2405 72.6951Z" fill="#03B073"/>
<path d="M4.08441 63.0233V74.3602L11.7536 77.7774L19.4218 74.7618L11.13 66.309L4.08441 63.0233Z" fill="#FBBC04"/>
<path d="M39.4245 79.7948V91.1316C39.4245 91.1316 44.025 90.8498 48.0726 90.1153C51.104 89.5654 53.6483 89.2384 53.6483 89.2384L54.3415 77.7778L39.4245 79.7948Z" fill="#03B073"/>
<path d="M4.00098 61.5222V72.859L4.08444 74.3605V63.0236L4.00098 61.5222Z" fill="#DAE0F6"/>
<path d="M65.7452 85.3544V89.2911C65.7452 89.2911 65.3121 87.7376 65.2286 86.8971C65.1452 86.0565 65.7452 85.3544 65.7452 85.3544Z" fill="#DAE0F6"/>
<path d="M19.0527 58.4447V62.9225C19.0527 62.9225 18.1757 61.2924 18.2082 60.3664C18.2396 59.4394 19.0527 58.4447 19.0527 58.4447Z" fill="#DAE0F6"/>
<path d="M39.2321 57.2282V45.8914C39.2321 45.8914 35.1108 44.6462 28.1133 47.2985C21.1158 49.9508 19.4229 54.5837 19.4229 54.5837C19.4229 54.5837 25.2705 56.8845 29.7119 57.076C34.1514 57.2674 39.2321 57.2282 39.2321 57.2282Z" fill="#FBBC04"/>
<path d="M39.2321 45.8911V57.2279L42.7407 56.9195V45.5837L40.7021 45.4128L39.2321 45.8911Z" fill="#DAE0F6"/>
<path d="M83.7496 73.1692V84.5061L87.2405 84.0308V72.6949L83.7496 73.1692Z" fill="#DAE0F6"/>
<path d="M36.4893 79.8938V91.2307L39.4245 91.1315V79.7947L36.4893 79.8938Z" fill="#DAE0F6"/>
<path d="M78.3164 55.3099V66.8363C78.3164 66.8363 74.1892 68.5135 73.5597 66.3885C72.9303 64.2635 78.3164 55.3099 78.3164 55.3099Z" fill="#B13113"/>
<path d="M77.8323 58.8658V67.2675L78.1779 65.9733V57.2122L77.8323 58.8658Z" fill="#DAE0F6"/>
<path d="M74.6418 66.0696L58.6809 68.5805L54.3426 77.7776L70.2789 75.3129L74.6418 66.0696Z" fill="#954A83"/>
<path d="M75.291 64.6941L59.3507 67.1598L58.681 68.5807L74.6419 66.0698L75.291 64.6941Z" fill="#EE522E"/>
<path d="M62.8571 59.7249C62.8562 59.7279 62.8552 59.7298 62.8542 59.7328L59.3506 67.1594L75.2909 64.6937L76.5212 62.0856C76.8227 61.5269 77.0888 60.9662 77.3147 60.4035L77.3932 60.2375L77.3785 60.2365C77.5563 59.7799 77.7036 59.3224 77.8312 58.8648L71.2432 55.7823L62.8571 59.7249Z" fill="#EE522E"/>
<path d="M63.3865 57.8968C63.2804 58.5056 63.1096 59.1164 62.8572 59.7252L71.2452 55.7836L77.8332 58.866C77.9874 58.3142 78.0964 57.7633 78.1789 57.2124L71.4956 54.0858L63.3865 57.8968Z" fill="#E6EFFF"/>
<path d="M42.7407 45.5837C48.4557 45.3431 54.0156 46.3624 58.0623 48.6985C62.2534 51.1181 63.9807 54.4744 63.3856 57.8966L71.4947 54.0856L78.178 57.2122C79.0077 51.6297 76.1099 46.1788 69.2686 42.2283C61.5434 37.7682 50.5031 36.199 39.564 37.3666L35.0744 42.519L42.7407 45.5837Z" fill="#EE522E"/>
<path d="M39.232 45.891C39.8163 45.8145 40.4015 45.7496 40.9868 45.6976C41.572 45.6465 42.1573 45.6073 42.7416 45.5827L35.0753 42.5189L39.5649 37.3666C38.6615 37.4628 37.7581 37.5747 36.8576 37.7083L32.1825 43.0738L39.232 45.891Z" fill="#E6EFFF"/>
<path d="M19.0526 58.4446C19.794 55.4516 22.3078 52.4458 26.5342 50.0056C30.2382 47.8668 34.6973 46.4881 39.232 45.8911L32.1825 43.0748L36.8576 37.7094C29.6932 38.7748 22.6937 41.0176 16.8294 44.4024C8.34324 49.3015 4.00392 55.5733 4.00098 61.5221L12.4979 63.4251L19.0526 58.4446Z" fill="#FFED0E"/>
<path d="M18.8238 60.6453C18.7894 59.9186 18.869 59.1822 19.0516 58.4447L12.497 63.4252L4 61.5222C4 62.025 4.02061 62.5267 4.08346 63.0236L13.0498 65.0327L18.8238 60.6453Z" fill="#E6EFFF"/>
<path d="M38.195 71.3517C32.9788 71.3841 27.9865 70.354 24.2697 68.2084C20.7504 66.1767 18.9573 63.4832 18.8237 60.6453L13.0498 65.0327L4.0834 63.0236C4.62938 67.4012 7.59298 71.5196 13.0635 74.6776C19.3079 78.2824 27.7174 79.9871 36.4884 79.8938L43.3396 75.2638L38.195 71.3517Z" fill="#FFED0E"/>
<path d="M41.0929 71.2257C40.1237 71.3033 39.1565 71.3455 38.1961 71.3514L43.3416 75.2636L36.4904 79.8935C37.4655 79.8827 38.4436 79.8494 39.4255 79.7944L46.2758 75.1644L41.0929 71.2257Z" fill="#E6EFFF"/>
<path d="M83.7496 73.1692L85.1685 72.9463C85.8569 72.8422 86.5482 72.7627 87.2405 72.6949L93.5054 68.4606L87.8572 64.1665C86.9567 64.2402 86.0552 64.3295 85.1558 64.4415L90.5723 68.5598L83.7496 73.1692Z" fill="#E6EFFF"/>
<path d="M85.1557 64.4407C85.0182 64.4574 84.8808 64.4692 84.7433 64.4878L84.7423 64.4809L84.4143 64.532C83.4618 64.6607 82.5113 64.8099 81.5656 64.9798L48.3319 70.2078C48.3319 70.2078 44.2607 70.8529 43.4702 70.9639C42.6797 71.0739 41.8853 71.1613 41.0928 71.2251L46.2747 75.1648L39.4245 79.7947C41.1341 79.6995 42.8486 79.5443 44.5582 79.3146L44.5592 79.3312L45.2043 79.2301C45.5843 79.1751 45.9634 79.1123 46.3424 79.0514L55.4757 77.6157C55.3687 77.7336 55.2705 77.8524 55.1674 77.9702C56.165 77.7032 57.3081 77.5647 58.3705 77.5264L57.9611 77.2249L83.7515 73.1704L90.5732 68.56L85.1557 64.4407Z" fill="#04C984"/>
<path d="M59.4145 78.2971L58.7389 77.7992C58.1173 77.9249 57.4937 78.0467 56.8741 78.1783C56.1524 78.3314 55.4051 78.5386 54.6637 78.5641C54.5154 78.7468 54.3662 78.9304 54.2238 79.114L53.6719 79.2005L52.2245 82.2691C52.1214 82.4763 52.0232 82.6845 51.9299 82.8927L51.6726 83.4387L51.6962 83.4308C51.4085 84.1418 51.1767 84.8547 51.0108 85.5666L58.1723 82.0344L65.7462 85.3555C65.9043 84.729 66.1311 84.1035 66.4444 83.4809L66.4306 83.4701L69.6309 76.6896L59.4145 78.2971Z" fill="#EE522E"/>
<path d="M65.5076 87.0189C65.5253 86.467 65.6048 85.9112 65.7453 85.3545L58.1713 82.0334L51.0098 85.5656C50.8733 86.1498 50.7791 86.7341 50.7241 87.3164L58.0005 83.7273L65.5076 87.0189Z" fill="#E6EFFF"/>
<path d="M84.9535 98.2966C79.7039 98.3408 74.6733 97.3088 70.9349 95.1504C67.1809 92.9832 65.4084 90.0628 65.5066 87.0187L58.0005 83.7281L50.7241 87.3172C50.2184 92.6601 53.1652 97.8312 59.7297 101.621C65.2601 104.813 72.4894 106.525 80.1645 106.812L76.8346 101.858L84.9535 98.2966Z" fill="#6634FA"/>
<path d="M89.0326 98.0475C87.6706 98.2007 86.3056 98.2851 84.9545 98.2969L76.8355 101.859L80.1654 106.813C81.0256 106.845 81.8917 106.857 82.7617 106.854L79.6194 102.178L89.0326 98.0475Z" fill="#E6EFFF"/>
<path d="M124.381 86.2403C126.354 79.9508 123.625 73.6122 115.934 69.1708C108.591 64.9316 98.2552 63.3123 87.8572 64.1657L93.5054 68.4598L87.2405 72.6941C93.695 72.0636 100.17 73.0083 104.728 75.64C108.783 77.981 110.547 81.1989 110.12 84.5052L115.344 88.8642L124.381 86.2403Z" fill="#04C984"/>
<path d="M123.796 87.8003L114.384 90.5341L109.583 86.5287C108.545 89.1417 106.16 91.7095 102.463 93.8433C98.5596 96.097 93.8177 97.5071 89.0316 98.0472L79.6175 102.177L82.7598 106.853C92.9899 106.812 103.748 104.308 112.168 99.4474C118.071 96.038 121.967 91.9658 123.796 87.8003Z" fill="#6634FA"/>
<path d="M123.796 87.8004C124.024 87.2809 124.216 86.7605 124.38 86.24L115.344 88.8638L110.12 84.5049C110.034 85.1775 109.852 85.8541 109.584 86.5277L114.385 90.5332L123.796 87.8004Z" fill="#E6EFFF"/>
<path d="M54.3426 77.7778L53.6719 79.2007L69.6299 76.6898L70.2789 75.3131L54.3426 77.7778Z" fill="#EE522E"/>
<path d="M83.7495 73.1692V84.506L70.2789 86.6496V75.3128L83.7495 73.1692Z" fill="#03B073"/>
<path d="M78.5789 36.9629C72.0857 33.2896 65.7354 27.0216 60.4117 19.0339L60.3381 18.9906C55.0144 20.8316 48.6641 19.766 42.1709 15.9411L41.924 15.7938L42.2748 27.9313C43.5094 46.7439 49.9247 54.9308 60.2515 72.4223L60.5027 72.5696C70.8295 67.0033 77.2448 66.2236 78.4793 48.8361L78.8302 37.1058L78.5833 36.9672L78.5789 36.9629Z" fill="#6634FA"/>
<path d="M82.2435 34.1691C75.7503 30.4958 69.4 24.2278 64.0763 16.2401L64.0027 16.1968C58.679 18.0378 52.3287 16.9722 45.8355 13.1473L45.5885 13L41.9932 15.8329L42.1708 15.9369C48.6641 19.7618 55.0144 20.8274 60.338 18.9864L60.4117 19.0297C65.7353 27.0174 72.0856 33.2854 78.5789 36.9587L78.8258 37.0973L78.4749 48.8276C77.6692 60.1767 74.6587 64.4477 69.7898 67.5969C75.8715 64.0059 81.2342 58.7949 82.1395 46.038L82.4904 34.3077L82.2435 34.1691Z" fill="#3F13C2"/>
<path d="M82.4948 34.3117L82.2478 34.1731C75.7546 30.4998 69.4043 24.2318 64.0806 16.2441L64.007 16.2008L60.3424 18.9904L60.416 19.0337C65.7397 27.0214 72.09 33.2894 78.5832 36.9627L78.8301 37.1013L82.4948 34.3117Z" fill="#3F13C2"/>
<path d="M78.8301 37.1013L78.4792 48.8315C77.6735 60.1806 74.663 64.4517 69.7942 67.6009C75.8759 64.0099 81.2385 58.7988 82.1439 46.0419L82.4947 34.3116L78.8301 37.1013Z" fill="#2A0B88"/>
<path d="M59.0948 64.4607C51.0768 51.1624 47.0483 44.4742 46.0737 29.8807L45.8528 22.2179C50.9989 24.544 55.9327 25.2847 60.3813 24.4011C64.8257 30.4178 69.7595 35.3733 74.9056 38.9903L74.6847 46.3975C73.7143 59.8691 69.6815 61.905 61.6635 65.9465C61.2434 66.1588 60.8188 66.3754 60.3813 66.5963C59.9438 65.8729 59.515 65.1582 59.0992 64.4651L59.0948 64.4607Z" fill="#E4E4FF"/>
<path d="M62.3177 65.3658C61.8975 65.578 61.473 65.7946 61.0355 66.0155C60.598 65.2921 60.1691 64.5774 59.7533 63.8843C51.7353 50.586 47.7025 43.8978 46.7322 29.3043L46.5372 22.5165C46.312 22.4212 46.0824 22.3216 45.8571 22.2219L46.0781 29.8847C47.0484 44.4783 51.0812 51.1708 59.0992 64.4648C59.5194 65.1622 59.9482 65.8726 60.3814 66.596C60.8189 66.3751 61.2434 66.1585 61.6636 65.9462C64.934 64.2958 67.5417 62.9833 69.5473 61.086C67.637 62.6801 65.2459 63.8887 62.3177 65.3658Z" fill="#2A0B88"/>
<path d="M51.5981 38.5597L58.3947 53.357L70.375 40.7823L64.8317 35.735L58.3947 46.5869L55.3542 39.2904L51.5981 38.5597Z" fill="#03B073"/>
<path d="M50.5833 39.3016L57.38 54.1027L69.3602 41.5242L63.8169 36.4769L57.38 47.3288L54.3395 40.0324L50.5833 39.3016Z" fill="#04C984"/>
<path d="M70.3749 40.7826L69.3602 41.5247L57.3799 54.1032L58.3947 53.3573L70.3749 40.7826Z" fill="#0BA19F"/>
<path d="M51.5981 38.5598L50.5833 39.302L54.3395 40.0327L55.3542 39.2906L51.5981 38.5598Z" fill="#03B073"/>
<path d="M69.3602 41.5247L63.8168 36.4774L64.8316 35.7352L70.3749 40.7825L69.3602 41.5247Z" fill="#03B073"/>
</svg>
