<svg width="128" height="128" viewBox="0 0 128 128" fill="none" xmlns="http://www.w3.org/2000/svg">
<path d="M78.6454 75.5649L63.6365 77.9261L59.5569 86.5746L74.5428 84.2569L78.6454 75.5649Z" fill="#954A83"/>
<path d="M79.2559 74.2712L64.2663 76.5899L63.6366 77.9261L78.6455 75.5649L79.2559 74.2712Z" fill="#E6EFFF"/>
<path d="M67.5637 69.599C67.5627 69.6018 67.5618 69.6036 67.5609 69.6064L64.2662 76.591L79.2558 74.2723L80.4128 71.8198C80.6962 71.2943 80.9465 70.7671 81.1589 70.238L81.2327 70.0819L81.2189 70.081C81.386 69.6516 81.5246 69.2213 81.6446 68.791L75.4495 65.8925L67.5637 69.599Z" fill="#954A83"/>
<path d="M68.0614 67.8795C67.9617 68.452 67.801 69.0264 67.5637 69.5989L75.4514 65.8923L81.6465 68.7909C81.7915 68.2719 81.894 67.7539 81.9715 67.2359L75.6869 64.2958L68.0614 67.8795Z" fill="#E6EFFF"/>
<path d="M48.647 56.3002C54.0212 56.0739 59.2495 57.0324 63.0548 59.2292C66.9959 61.5045 68.6201 64.6606 68.0606 67.8787L75.686 64.295L81.9706 67.2351C82.7509 61.9856 80.026 56.8598 73.5926 53.1449C66.3283 48.9508 59.7213 43.7189 49.4337 44.8177L41.438 53.4192L48.647 56.3002Z" fill="#AC2F12"/>
<path d="M45.3476 56.5901C46.4465 56.4451 47.5499 56.3472 48.6478 56.301L41.4389 53.42L45.6606 48.575C44.8111 48.6654 43.9616 48.7707 43.1148 48.8963L38.7185 53.9418L45.3476 56.5901Z" fill="#DAE0F6"/>
<path d="M26.3718 68.3947C27.069 65.5802 29.4329 62.7528 33.4072 60.4591C36.8902 58.4479 41.0834 57.1514 45.3476 56.59L38.7186 53.9417L43.1149 48.8962C36.3777 49.8981 29.7958 52.0072 24.2812 55.1901C16.3012 59.797 12.2207 65.6947 12.2179 71.2887L20.2081 73.0782L26.3718 68.3947Z" fill="#FBBC04"/>
<path d="M26.1567 70.4642C26.1243 69.7809 26.1991 69.0884 26.3709 68.3949L20.2072 73.0784L12.217 71.2888C12.217 71.7616 12.2364 72.2335 12.2955 72.7007L20.7271 74.59L26.1567 70.4642Z" fill="#E6EFFF"/>
<path d="M42.7686 74.82C37.8635 74.8505 26.2822 73.133 26.1566 70.4644L20.727 74.5901L12.2954 72.7009C12.8089 76.8174 15.5957 80.6901 20.7399 83.6597C26.6118 87.0495 34.5198 88.6526 42.7676 88.5649L49.2102 84.211L42.7686 74.82Z" fill="#FBBC04"/>
<path d="M47.0975 80.4127C46.1861 80.4857 45.2766 80.5254 44.3735 80.5309L49.2121 84.2097L42.7696 88.5636C43.6865 88.5534 44.6062 88.522 45.5296 88.4703L51.9712 84.1165L47.0975 80.4127Z" fill="#C66BC6"/>
<path d="M87.21 82.2412L88.5443 82.0316C89.1916 81.9337 89.8417 81.859 90.4927 81.7952L96.3839 77.8135L91.0726 73.7755C90.2258 73.8448 89.3781 73.9288 88.5323 74.0341L93.6257 77.9068L87.21 82.2412Z" fill="#DAE0F6"/>
<path d="M70.9359 91.9368L70.923 91.9266L73.9323 85.5505L64.3262 87.0621L62.9587 86.0538L87.2108 82.2411L93.6257 77.9057L88.5322 74.033C88.4029 74.0487 88.2737 74.0597 88.1444 74.0773L88.1435 74.0708L87.8351 74.1188C86.9394 74.2398 86.0455 74.3801 85.1563 74.5399L53.9047 79.4561C53.9047 79.4561 50.0763 80.0628 49.333 80.1671C48.5897 80.2705 47.8426 80.3527 47.0974 80.4127L51.9702 84.1174L45.5286 88.4712C47.1362 88.3817 48.7485 88.2358 50.3561 88.0197L50.357 88.0354L50.9637 87.9403C51.3211 87.8886 51.6775 87.8295 52.0339 87.7722L60.6225 86.4222C60.1977 86.8867 59.8117 87.3576 59.4461 87.8313L58.9271 87.9126L57.566 90.7982C57.4691 90.994 57.3767 91.1888 57.289 91.3845L57.0471 91.898L57.0692 91.8906C56.7987 92.5591 56.5808 93.2295 56.4247 93.899L63.1591 90.5775L70.2812 93.7004C70.429 93.1104 70.6414 92.5213 70.9359 91.9368Z" fill="#C66BC6"/>
<path d="M70.056 95.2639C70.0726 94.745 70.1474 94.2223 70.2795 93.6988L63.1573 90.5758L56.4229 93.8973C56.2946 94.4467 56.206 94.9961 56.1543 95.5437L62.9966 92.1687L70.056 95.2639Z" fill="#E6EFFF"/>
<path d="M88.3421 105.87C83.4056 105.912 78.675 104.941 75.1596 102.912C71.6295 100.874 69.9627 98.1276 70.055 95.2651L62.9966 92.1708L56.1542 95.5458C55.6787 100.57 58.4498 105.433 64.6227 108.996C69.8233 111.998 76.6213 113.607 83.8386 113.878L80.7074 109.219L88.3421 105.87Z" fill="#3F13C2"/>
<path d="M92.1778 105.635C90.8971 105.78 89.6136 105.859 88.343 105.87L80.7083 109.219L83.8395 113.878C84.6484 113.908 85.4629 113.919 86.281 113.916L83.3261 109.519L92.1778 105.635Z" fill="#DAE0F6"/>
<path d="M125.418 94.5323C125.831 93.2146 126.025 91.896 125.997 90.594C125.9 86.0518 123.097 81.7275 117.474 78.4818C110.57 74.4955 100.85 72.9728 91.0726 73.7752L96.384 77.8132L90.4927 81.795C96.5622 81.2021 102.651 82.0904 106.938 84.5652C110.75 86.7665 112.409 89.7925 112.008 92.9016L116.92 97.0006L125.418 94.5323Z" fill="#03B073"/>
<path d="M124.868 95.9998L116.017 98.5697L111.503 94.8031C110.527 97.2603 108.284 99.675 104.807 101.682C101.137 103.801 96.6776 105.127 92.1769 105.635L83.3243 109.518L86.2792 113.916C95.8991 113.877 106.016 111.522 113.933 106.951C119.485 103.746 123.148 99.9169 124.868 95.9998Z" fill="#3F13C2"/>
<path d="M124.868 95.9999C125.082 95.5115 125.263 95.022 125.417 94.5326L116.92 97L112.008 92.901C111.927 93.5335 111.756 94.1697 111.504 94.8032L116.018 98.5698L124.868 95.9999Z" fill="#E6EFFF"/>
<path d="M74.5428 84.2572L59.5569 86.5749L58.9263 87.912L73.9324 85.5518L74.5428 84.2572Z" fill="#E6EFFF"/>
<path d="M125.997 79.9564L125.989 90.3567L124.486 90.9652L123.438 80.6444L125.997 79.9564Z" fill="#03B073"/>
<path d="M56.1015 86.0427V96.9998L59.5569 96.889L64.2663 89.7373L56.1015 86.0427Z" fill="#3F13C2"/>
<path d="M74.5427 73.5963V84.2569C74.5427 84.2569 72.176 89.2719 72.1594 89.307C72.1428 89.3421 68.1519 86.8536 68.1519 86.8536C68.1519 86.8536 67.825 81.1746 69.1002 78.8015C70.3763 76.4275 74.5427 73.5963 74.5427 73.5963Z" fill="#B13113"/>
<path d="M83.8386 103.217V113.878C83.8386 113.878 75.0903 112.959 72.2223 109.776C69.3551 106.594 67.5637 96.4689 67.5637 96.4689L83.8386 103.217Z" fill="#3F13C2"/>
<path d="M86.2801 103.255L85.0593 108.566L86.2801 113.915C86.2801 113.915 109.827 105.383 114.244 103.216C118.661 101.05 124.869 95.9987 124.869 95.9987V85.338L86.2801 103.255Z" fill="#3F13C2"/>
<path d="M86.2801 103.255V113.916L83.8386 113.877V103.217L86.2801 103.255Z" fill="#DAE0F6"/>
<path d="M124.868 85.339V95.9996L125.417 94.5323V83.8717L124.868 85.339Z" fill="#DAE0F6"/>
<path d="M90.4926 71.1345V81.7952C90.4926 81.7952 97.9288 79.5522 101.219 78.9215C104.509 78.2909 112.531 77.9049 112.531 77.9049C112.531 77.9049 107.889 72.4762 102.345 70.8095C96.8022 69.1409 90.4926 71.1345 90.4926 71.1345Z" fill="#03B073"/>
<path d="M12.2963 62.0397V72.7003L19.5081 75.9137L26.7189 73.078L18.9217 65.1294L12.2963 62.0397Z" fill="#FBBC04"/>
<path d="M45.5286 77.8107V88.4714C45.5286 88.4714 49.8547 88.2064 53.6609 87.5157C56.5115 86.9985 58.904 86.6911 58.904 86.6911L59.5559 75.9141L45.5286 77.8107Z" fill="#03B073"/>
<path d="M12.2179 60.6282V71.2888L12.2964 72.7007V62.04L12.2179 60.6282Z" fill="#DAE0F6"/>
<path d="M70.2794 83.0388V86.7407C70.2794 86.7407 69.8722 85.2799 69.7937 84.4895C69.7152 83.6991 70.2794 83.0388 70.2794 83.0388Z" fill="#DAE0F6"/>
<path d="M26.3718 57.734V61.9447C26.3718 61.9447 25.5472 60.4119 25.5777 59.5411C25.6072 58.6694 26.3718 57.734 26.3718 57.734Z" fill="#DAE0F6"/>
<path d="M45.3477 56.59V45.9294C45.3477 45.9294 41.4722 44.7585 34.892 47.2526C28.3119 49.7467 26.7199 54.1033 26.7199 54.1033C26.7199 54.1033 32.2188 56.2668 36.3953 56.4469C40.57 56.6269 45.3477 56.59 45.3477 56.59Z" fill="#FBBC04"/>
<path d="M45.3477 45.9293V56.5899L48.647 56.3V45.6403L46.73 45.4796L45.3477 45.9293Z" fill="#DAE0F6"/>
<path d="M87.2099 71.5804V82.2411L90.4926 81.7941V71.1344L87.2099 71.5804Z" fill="#DAE0F6"/>
<path d="M42.7685 77.904V88.5647L45.5285 88.4714V77.8108L42.7685 77.904Z" fill="#DAE0F6"/>
<path d="M82.1008 54.7865V65.6254C82.1008 65.6254 78.2197 67.2025 77.6278 65.2043C77.0359 63.2061 82.1008 54.7865 82.1008 54.7865Z" fill="#B13113"/>
<path d="M81.6455 58.1301V66.0307L81.9706 64.8136V56.5751L81.6455 58.1301Z" fill="#DAE0F6"/>
<path d="M78.6454 64.9042L63.6364 67.2653L59.5569 75.9139L74.5427 73.5962L78.6454 64.9042Z" fill="#954A83"/>
<path d="M79.2558 63.6107L64.2663 65.9294L63.6365 67.2655L78.6455 64.9044L79.2558 63.6107Z" fill="#EE522E"/>
<path d="M67.5636 58.938C67.5627 58.9408 67.5618 58.9426 67.5609 58.9454L64.2662 65.9291L79.2557 63.6104L80.4127 61.1579C80.6962 60.6325 80.9465 60.1052 81.1589 59.5761L81.2327 59.42L81.2189 59.4191C81.386 58.9897 81.5245 58.5595 81.6446 58.1291L75.4495 55.2306L67.5636 58.938Z" fill="#EE522E"/>
<path d="M68.0614 57.2188C67.9617 57.7913 67.801 58.3657 67.5637 58.9382L75.4514 55.2317L81.6465 58.1302C81.7914 57.6113 81.8939 57.0933 81.9715 56.5752L75.6868 53.6351L68.0614 57.2188Z" fill="#E6EFFF"/>
<path d="M48.6469 45.6402C54.0211 45.414 59.2494 46.3725 63.0547 48.5693C66.9958 50.8445 68.6201 54.0007 68.0605 57.2188L75.6859 53.6351L81.9706 56.5752C82.7509 51.3256 80.0259 46.1998 73.5926 42.485C66.3282 38.2909 55.9464 36.8153 45.6597 37.9133L41.4379 42.7583L48.6469 45.6402Z" fill="#EE522E"/>
<path d="M45.3476 45.9291C45.897 45.8571 46.4473 45.7961 46.9977 45.7472C47.548 45.6992 48.0984 45.6623 48.6478 45.6392L41.4388 42.7581L45.6606 37.9131C44.8111 38.0036 43.9615 38.1088 43.1148 38.2344L38.7185 43.2799L45.3476 45.9291Z" fill="#E6EFFF"/>
<path d="M26.3718 57.734C27.0689 54.9195 29.4328 52.0929 33.4071 49.7983C36.8902 47.7871 41.0833 46.4907 45.3476 45.9292L38.7185 43.2809L43.1148 38.2355C36.3777 39.2374 29.7957 41.3464 24.2812 44.5293C16.3011 49.1362 12.2207 55.034 12.2179 60.6279L20.208 62.4175L26.3718 57.734Z" fill="#FFED0E"/>
<path d="M26.1566 59.8033C26.1243 59.12 26.1991 58.4275 26.3708 57.734L20.2071 62.4175L12.217 60.6279C12.217 61.1007 12.2363 61.5726 12.2954 62.0398L20.727 63.9291L26.1566 59.8033Z" fill="#E6EFFF"/>
<path d="M44.3725 69.8713C39.4674 69.9018 34.7728 68.9331 31.2777 66.9155C27.9683 65.005 26.2821 62.4721 26.1566 59.8035L20.727 63.9292L12.2954 62.0399C12.8088 66.1565 15.5956 70.0292 20.7399 72.9989C26.6118 76.3887 34.5198 77.9917 42.7676 77.9039L49.2102 73.5501L44.3725 69.8713Z" fill="#FFED0E"/>
<path d="M47.0975 69.7528C46.1861 69.8258 45.2766 69.8655 44.3735 69.871L49.2121 73.5498L42.7695 77.9037C43.6865 77.8935 44.6062 77.8621 45.5296 77.8104L51.9712 73.4566L47.0975 69.7528Z" fill="#E6EFFF"/>
<path d="M87.2099 71.5804L88.5442 71.3707C89.1916 71.2729 89.8416 71.1981 90.4926 71.1343L96.3839 67.1526L91.0725 63.1146C90.2258 63.1839 89.3781 63.2679 88.5322 63.3732L93.6257 67.2459L87.2099 71.5804Z" fill="#E6EFFF"/>
<path d="M88.5322 63.3723C88.4029 63.388 88.2737 63.3991 88.1444 63.4166L88.1435 63.4102L87.835 63.4582C86.9393 63.5792 86.0455 63.7195 85.1562 63.8793L53.9047 68.7955C53.9047 68.7955 50.0763 69.4021 49.333 69.5065C48.5896 69.6099 47.8426 69.6921 47.0974 69.7521L51.9702 73.4568L45.5286 77.8106C47.1362 77.721 48.7485 77.5751 50.3561 77.3591L50.357 77.3747L50.9637 77.2796C51.321 77.2279 51.6775 77.1688 52.0339 77.1116L60.6224 75.7616C60.5218 75.8724 60.4294 75.9841 60.3325 76.0949C61.2707 75.8438 62.3455 75.7136 63.3446 75.6776L62.9596 75.3941L87.2117 71.5814L93.6266 67.246L88.5322 63.3723Z" fill="#04C984"/>
<path d="M64.3263 76.4025L63.691 75.9343C63.1065 76.0525 62.5201 76.167 61.9375 76.2908C61.2588 76.4348 60.556 76.6296 59.8589 76.6536C59.7194 76.8254 59.5791 76.9981 59.4452 77.1707L58.9262 77.252L57.5651 80.1376C57.4682 80.3325 57.3759 80.5282 57.2881 80.724L57.0462 81.2374L57.0684 81.23C56.7978 81.8986 56.5799 82.5689 56.4238 83.2384L63.1582 79.9169L70.2804 83.0399C70.429 82.4508 70.6423 81.8626 70.9369 81.2771L70.924 81.2669L73.9333 74.8909L64.3263 76.4025Z" fill="#EE522E"/>
<path d="M70.056 84.604C70.0726 84.085 70.1474 83.5624 70.2794 83.0388L63.1572 79.9159L56.4229 83.2373C56.2945 83.7868 56.2059 84.3362 56.1542 84.8838L62.9966 81.5088L70.056 84.604Z" fill="#E6EFFF"/>
<path d="M88.3421 95.2091C83.4056 95.2506 78.675 94.2802 75.1596 92.2505C71.6294 90.2126 69.9627 87.4664 70.055 84.6038L62.9966 81.5095L56.1542 84.8845C55.6786 89.9088 58.4497 94.7714 64.6227 98.3348C69.8233 101.337 76.6213 102.946 83.8386 103.217L80.7074 98.5583L88.3421 95.2091Z" fill="#6634FA"/>
<path d="M92.1778 94.9749C90.897 95.1189 89.6135 95.1983 88.3429 95.2094L80.7083 98.5586L83.8395 103.217C84.6484 103.248 85.4628 103.259 86.281 103.256L83.3261 98.8587L92.1778 94.9749Z" fill="#E6EFFF"/>
<path d="M125.417 83.8718C127.273 77.9574 124.707 71.9968 117.474 67.8203C110.57 63.834 100.85 62.3113 91.0725 63.1137L96.3839 67.1518L90.4926 71.1335C96.5622 70.5406 102.651 71.4289 106.937 73.9037C110.75 76.105 112.409 79.131 112.008 82.2401L116.92 86.3391L125.417 83.8718Z" fill="#04C984"/>
<path d="M124.868 85.3389L116.017 87.9096L111.503 84.1431C110.527 86.6002 108.284 89.0149 104.807 91.0214C101.137 93.1406 96.6775 94.4667 92.1769 94.9745L83.3243 98.8583L86.2791 103.256C95.8991 103.217 106.016 100.862 113.933 96.2913C119.485 93.0852 123.148 89.2559 124.868 85.3389Z" fill="#6634FA"/>
<path d="M124.868 85.3389C125.082 84.8504 125.263 84.361 125.417 83.8716L116.92 86.339L112.008 82.24C111.927 82.8725 111.756 83.5087 111.504 84.1422L116.018 87.9087L124.868 85.3389Z" fill="#E6EFFF"/>
<path d="M59.5569 75.914L58.9262 77.252L73.9323 74.8909L74.5427 73.5963L59.5569 75.914Z" fill="#EE522E"/>
<path d="M87.2099 71.5806V82.2412L74.5427 84.257V73.5964L87.2099 71.5806Z" fill="#03B073"/>
<path d="M26.9581 45.8597C26.9581 45.8597 24.8667 47.667 23.5744 50.3304C22.8117 51.9033 21.1284 54.1198 20.0669 55.5214C19.4863 54.9008 16.6552 51.8826 15.3387 50.3341C14.1266 48.9082 13.314 49.1475 12.1456 48.9082C10.9335 48.6593 11.038 47.5734 9.79793 47.5079C8.55789 47.4423 8.76679 48.0423 9.79793 49.4074C10.4356 50.2515 11.3137 51.0082 11.8651 51.1588C13.0335 51.4782 14.1666 51.4077 14.5031 52.4717C14.712 53.1336 16.7536 57.7027 17.7835 58.4083C19.1438 59.3399 19.2033 59.6435 20.2478 59.5816C20.9838 59.5379 21.6129 58.7763 21.9287 58.4083C22.9222 57.2691 24.1453 56.1177 25.0367 54.8424C26.2561 53.0996 28.7787 48.4564 28.8746 48.2864C28.9694 48.1152 26.9581 45.8597 26.9581 45.8597Z" fill="#FFB9A4"/>
<path d="M27.195 45.467C27.195 45.467 25.9234 45.7695 24.7453 47.1006C23.5672 48.4329 21.2656 52.4871 21.2656 52.4871C21.2656 52.4871 22.3405 54.134 22.8591 54.4838C23.3777 54.8336 24.6943 55.5975 24.6943 55.5975L29.1625 48.9018L27.195 45.467Z" fill="#E4E4FF"/>
<path d="M15.8682 88.9575C15.2476 89.6413 14.5516 90.4077 13.914 91.0817C13.0529 91.9914 12.0376 92.9558 11.1048 93.7889C9.96193 94.8091 9.87448 96.0443 11.7485 95.9386C14.7776 95.7698 15.4857 94.4982 16.886 93.4245C17.0816 93.2752 17.4058 93.6347 18.1722 93.3262C19.145 92.9339 19.2629 92.7784 19.2629 91.8129C19.2629 91.1971 19.1608 89.9291 18.8815 89.289C18.8912 89.2781 18.9009 89.2696 18.9106 89.2587C19.0612 89.0899 16.6953 88.0454 15.8682 88.9575Z" fill="#2A0B88"/>
<path d="M21.7101 95.5013C21.0895 96.1851 20.3936 96.9515 19.7572 97.6255C18.8961 98.5352 17.8807 99.4996 16.948 100.333C15.8051 101.353 15.7176 102.587 17.5917 102.482C20.6207 102.314 21.3288 101.042 22.7291 99.9684C22.9247 99.819 23.249 100.178 24.0153 99.87C24.9882 99.4777 25.106 99.3222 25.106 98.3567C25.106 97.7409 25.004 96.4729 24.7246 95.8329C24.7343 95.8219 24.7441 95.8134 24.7538 95.8025C24.9044 95.6337 22.5385 94.5892 21.7101 95.5013Z" fill="#2A0B88"/>
<path d="M34.4299 66.2384C34.1785 65.7088 28.3682 63.7729 28.5224 63.8433C23.8719 65.5983 18.2219 67.5416 14.3148 70.9046C13.5982 71.0236 12.8658 71.2629 12.901 72.588C12.929 73.6179 13.5314 75.3935 13.7014 76.4332C14.2929 80.0464 15.0483 85.9017 15.3277 89.549C15.941 90.6421 17.7556 90.642 18.9118 89.8198C19.2628 87.2061 19.3939 83.6901 19.8397 81.5974C20.4299 78.8307 19.4632 77.4874 18.6142 76.0069C20.9012 76.0955 25.8541 73.5256 28.0754 72.9037C30.7656 72.1519 31.5053 72.1301 33.5044 70.0824C34.8768 68.6796 35.3602 68.1998 34.4299 66.2384Z" fill="#03B073"/>
<path d="M34.2053 66.6098C32.7673 66.6438 31.1714 66.7483 29.7601 66.3244C29.6204 66.5284 29.4771 66.7264 29.3617 66.962C28.848 68.0077 28.3707 68.796 28.7678 69.9874C28.0695 70.9773 24.9177 74.848 24.353 76.0322C23.6267 76.7548 23.2356 77.1666 23.3267 78.8244C23.4299 80.7081 23.3012 81.5717 23.0874 83.6655C22.6769 87.6917 21.9604 91.0949 21.6701 95.132C22.6077 96.5748 23.8647 96.6344 25.1072 95.4988C26.3157 91.7519 28.6767 89.137 28.9233 85.859C29.086 83.6886 29.1213 82.0514 28.1557 80.6741C32.1394 78.4868 37.2429 77.2589 39.4315 73.0991C40.85 70.4028 40.1638 68.4025 38.7064 65.6382C37.3777 66.4507 35.8364 66.5709 34.2053 66.6098Z" fill="#04C984"/>
<path d="M26.4322 47.2842C28.0597 45.2207 27.3808 45.8159 29.352 46.9454C31.7653 48.3275 33.7134 49.1984 34.77 50.0765C36.5627 51.5667 37.6023 54.6371 37.906 58.4993C37.9521 59.0847 38.3055 61.0802 38.5132 61.6729C39.2553 63.7825 38.8934 64.1298 38.3663 64.6217C39.1472 64.6217 39.5164 65.7343 38.9395 66.1399C35.2522 68.7366 28.1763 68.773 27.1719 64.4566C27.1087 64.1833 27.3869 63.3525 27.5569 63.1303C27.1075 62.8765 26.8865 61.9898 26.8865 61.4093C26.0582 60.9624 25.8784 60.2688 25.6902 59.098C24.0311 58.7239 22.2955 56.8694 23.085 54.954C23.7287 53.3946 23.9485 51.9894 24.4137 50.9194C25.4898 48.4502 25.9683 47.8733 26.4322 47.2842Z" fill="#C63B1B"/>
<path d="M27.116 48.4247C27.5702 48.3506 28.7568 47.7445 28.4022 45.5426C28.3026 44.9256 31.0742 43.2702 31.0729 43.3564C31.0438 45.3519 31.5308 47.5126 32.4442 48.5486C31.1264 49.9259 29.8888 53.0581 27.6176 51.9395C26.4832 51.3809 26.2196 50.9643 27.116 48.4247Z" fill="#FFB9A4"/>
<path d="M26.3811 46.9757C26.3811 46.9757 25.497 49.406 25.1933 50.2052C24.8885 51.0043 24.3128 52.5104 24.3128 52.5104C24.3128 52.5104 25.1642 52.1326 25.5929 52.3634C26.0216 52.5942 26.6228 53.2658 26.992 53.3714C27.3625 53.4759 27.8507 53.3982 27.8507 53.3982L28.1446 52.3804C28.1446 52.3804 27.3722 52.1387 27.3819 50.8331C27.3916 49.5274 27.6018 47.7603 27.6018 47.7603L26.3811 46.9757Z" fill="#E4E4FF"/>
<path d="M31.4118 46.5079C31.4118 46.5079 31.3899 47.3387 30.694 48.535C29.9981 49.7313 28.3925 51.1135 27.6528 51.7074C26.5682 52.5758 27.2046 54.1559 27.2046 54.1559C27.2046 54.1559 27.6164 53.2462 28.1131 53.4065C28.6099 53.5656 28.8698 54.0259 29.4443 54.5567C29.9009 53.868 30.122 53.2778 31.1312 52.2867C31.9304 51.5021 33.4243 49.7714 33.0612 48.3322C32.698 46.8905 31.4118 46.5079 31.4118 46.5079Z" fill="#E4E4FF"/>
<path d="M24.8363 43.683C24.8144 43.6405 24.7865 43.6089 24.7561 43.5858C24.7743 43.5664 24.7938 43.547 24.8108 43.5275C24.8314 43.5045 24.812 43.468 24.7804 43.4753C24.7173 43.4899 24.6529 43.5215 24.5897 43.5433C24.5436 43.5482 24.4986 43.564 24.4585 43.5907C23.3339 44.0474 22.259 45.4732 22.6902 46.6732C22.8894 47.227 23.3849 47.4359 23.9424 47.3496C23.946 47.3484 23.9509 47.3485 23.9545 47.3472C23.5622 48.6213 24.0432 50.1577 25.5723 49.5589C26.5949 49.1581 26.8427 47.8768 26.8123 46.8991C26.7698 45.5097 25.4399 44.8526 24.8363 43.683Z" fill="#2A0B88"/>
<path d="M25.1448 40.6638C27.0225 40.2423 28.005 40.1646 29.6726 40.8399C30.6114 41.0937 31.492 41.5115 32.3397 42.0666C32.4029 42.1079 32.4563 42.2014 32.4429 42.2791C32.0142 44.7531 31.1835 47.3753 28.407 48.4732C26.1237 49.3756 24.8423 46.8701 24.4464 45.1916C23.9825 43.2349 23.8428 40.9565 25.1448 40.6638Z" fill="#FFC9B6"/>
<path d="M29.5366 44.5551C29.5366 44.5551 29.9859 43.0357 30.9758 43.8155C31.9656 44.5952 30.5641 46.134 30.5641 46.134L29.5366 44.5551Z" fill="#FFC9B6"/>
<path d="M31.6098 63.446C31.6098 63.446 33.8494 62.721 35.0578 62.8655C36.2675 63.01 37.3072 63.446 37.3072 63.446C37.3072 63.446 35.6008 63.6877 34.4579 63.7363C33.3162 63.7849 31.6098 63.446 31.6098 63.446Z" fill="#AC2F12"/>
<path d="M31.028 65.206C31.1725 65.206 33.6878 65.1331 35.042 65.0371C36.3963 64.94 36.9282 64.8744 36.9282 64.8744C36.9282 64.8744 35.8157 65.7136 34.2441 65.7136C32.6725 65.7136 31.028 65.206 31.028 65.206Z" fill="#AC2F12"/>
<path d="M13.2108 49.7426C13.2108 49.7426 12.7529 48.9665 12.3484 48.0702C12.0751 47.4629 12.182 46.8982 12.5136 46.8156C12.8452 46.733 12.8512 47.486 13.2095 47.8237C13.5678 48.1601 14.9645 49.3357 14.7447 49.943C14.5249 50.5515 13.2108 49.7426 13.2108 49.7426Z" fill="#FFB9A4"/>
<path d="M8.93563 70.4613L9.3413 70.9228C9.49919 70.7758 9.67771 70.6349 9.89997 70.5062L15.9727 66.9998C17.3451 66.2079 19.4414 66.1205 20.6304 66.8067L30.3115 72.396C30.3843 72.4385 30.4366 72.4871 30.4985 72.5332L30.9418 72.0292C30.9418 72.0292 31.4313 72.9656 31.0402 73.9555C31.0341 73.97 31.0256 73.981 31.0196 73.9943C30.8689 74.3842 30.5252 74.768 29.9763 75.085L23.9036 78.5914C22.5311 79.3832 20.4361 79.4707 19.2471 78.7845L9.56598 73.1952C9.21984 72.9948 9.00121 72.7482 8.87855 72.4822C8.85911 72.447 8.83847 72.4142 8.82147 72.3717C8.43039 71.3831 8.93563 70.4613 8.93563 70.4613Z" fill="#2A0B88"/>
<path d="M19.247 77.8348L9.56597 72.2455C8.37815 71.5593 8.52753 70.3496 9.89996 69.5565L15.9726 66.0502C17.3451 65.2571 19.4413 65.1708 20.6304 65.857L30.3114 71.4464C31.5005 72.1326 31.3499 73.3422 29.9775 74.1353L23.9048 77.6417C22.5311 78.4348 20.4361 78.521 19.247 77.8348Z" fill="#3F13C2"/>
<path d="M19.3855 66.4375L18.6021 65.9857C18.5256 65.942 18.3895 65.9468 18.3009 65.9978L17.8685 66.248C17.7799 66.299 17.7701 66.378 17.8466 66.4217L18.63 66.8735C18.7065 66.9184 18.8426 66.9123 18.9312 66.8613L19.3636 66.6111C19.4523 66.5601 19.4632 66.4812 19.3855 66.4375Z" fill="#6634FA"/>
<path d="M22.4595 68.2121L20.113 66.8579C20.0365 66.8141 19.9005 66.819 19.8118 66.87L19.3794 67.1202C19.2907 67.1712 19.281 67.2489 19.3575 67.2939L21.704 68.6481C21.7805 68.693 21.9166 68.6869 22.0053 68.6359L22.4376 68.3857C22.5263 68.3347 22.536 68.257 22.4595 68.2121Z" fill="#6634FA"/>
<path d="M23.9703 69.0841L23.187 68.6323C23.1105 68.5885 22.9744 68.5934 22.8857 68.6444L22.4534 68.8946C22.3647 68.9456 22.355 69.0234 22.4315 69.0683L23.2149 69.5201C23.2914 69.5638 23.4262 69.559 23.5161 69.508L23.9485 69.2578C24.0383 69.2068 24.0481 69.129 23.9703 69.0841Z" fill="#6634FA"/>
<path d="M17.0741 67.7719L16.2907 67.3202C16.2142 67.2764 16.0782 67.2813 15.9895 67.3323L15.5571 67.5825C15.4685 67.6335 15.4588 67.7112 15.5353 67.7561L16.3187 68.208C16.3952 68.2517 16.5312 68.2468 16.6199 68.1958L17.0523 67.9456C17.1409 67.8946 17.1506 67.8157 17.0741 67.7719Z" fill="#6634FA"/>
<path d="M18.5851 68.6444L17.8018 68.1926C17.7253 68.1489 17.5892 68.1537 17.5006 68.2047L17.0682 68.4549C16.9795 68.5059 16.9698 68.5837 17.0463 68.6286L17.8297 69.0804C17.9062 69.1241 18.0422 69.1193 18.1309 69.0683L18.5633 68.8181C18.6519 68.7671 18.6617 68.6893 18.5851 68.6444Z" fill="#6634FA"/>
<path d="M20.1481 69.5467L19.3647 69.0949C19.2882 69.05 19.1522 69.056 19.0635 69.1071L18.6311 69.3573C18.5425 69.4083 18.5328 69.4872 18.6093 69.5309L19.3927 69.9828C19.4692 70.0277 19.6052 70.0216 19.6939 69.9706L20.1263 69.7204C20.2149 69.6694 20.2246 69.5917 20.1481 69.5467Z" fill="#6634FA"/>
<path d="M21.6591 70.4191L20.8757 69.9672C20.7992 69.9235 20.6632 69.9284 20.5746 69.9794L20.1422 70.2296C20.0535 70.2806 20.0438 70.3583 20.1203 70.4033L20.9037 70.8551C20.9802 70.9 21.115 70.8939 21.2049 70.8429L21.6373 70.5927C21.7259 70.5417 21.7357 70.464 21.6591 70.4191Z" fill="#6634FA"/>
<path d="M15.918 68.4392L15.1346 67.9874C15.0581 67.9424 14.9221 67.9485 14.8334 67.9995L14.401 68.2497C14.3124 68.3007 14.3026 68.3797 14.3792 68.4234L15.1626 68.8752C15.2391 68.9202 15.3751 68.9141 15.4638 68.8631L15.8961 68.6129C15.9848 68.5619 15.9945 68.4841 15.918 68.4392Z" fill="#6634FA"/>
<path d="M17.4289 69.3122L16.6455 68.8604C16.569 68.8167 16.4329 68.8215 16.3443 68.8726L15.9119 69.1227C15.8233 69.1738 15.8135 69.2527 15.8901 69.2964L16.6734 69.7482C16.7499 69.7932 16.886 69.7871 16.9746 69.7361L17.407 69.4859C17.4957 69.4337 17.5054 69.3559 17.4289 69.3122Z" fill="#6634FA"/>
<path d="M18.992 70.215L18.2086 69.7631C18.1321 69.7182 17.996 69.7243 17.9074 69.7753L17.475 70.0255C17.3864 70.0765 17.3766 70.1554 17.4532 70.1992L18.2366 70.651C18.3131 70.6947 18.4491 70.6898 18.5377 70.6388L18.9701 70.3886C19.0588 70.3364 19.0685 70.2587 18.992 70.215Z" fill="#6634FA"/>
<path d="M20.5027 71.0869L19.7193 70.6351C19.6428 70.5914 19.5068 70.5962 19.4182 70.6472L18.9858 70.8974C18.8971 70.9484 18.8874 71.0274 18.9639 71.0711L19.7473 71.5229C19.8238 71.5678 19.9598 71.5618 20.0485 71.5107L20.4809 71.2606C20.5695 71.2096 20.5793 71.1306 20.5027 71.0869Z" fill="#6634FA"/>
<path d="M14.452 69.2871L13.6686 68.8353C13.5921 68.7916 13.4561 68.7964 13.3674 68.8474L12.935 69.0976C12.8464 69.1486 12.8367 69.2276 12.9132 69.2713L13.6966 69.7231C13.7731 69.7681 13.9091 69.762 13.9978 69.711L14.4302 69.4608C14.5188 69.4086 14.5285 69.3308 14.452 69.2871Z" fill="#6634FA"/>
<path d="M15.9629 70.1589L15.1795 69.7071C15.103 69.6634 14.967 69.6682 14.8783 69.7193L14.4459 69.9694C14.3573 70.0205 14.3476 70.0994 14.4241 70.1431L15.2074 70.5949C15.2839 70.6386 15.42 70.6338 15.5087 70.5828L15.941 70.3326C16.0297 70.2816 16.0394 70.2026 15.9629 70.1589Z" fill="#6634FA"/>
<path d="M17.526 71.0611L16.7426 70.6093C16.6661 70.5644 16.53 70.5705 16.4414 70.6215L16.009 70.8717C15.9204 70.9227 15.9106 71.0016 15.9872 71.0454L16.7705 71.4972C16.8471 71.5409 16.9831 71.536 17.0717 71.485L17.5041 71.2348C17.5928 71.1838 17.6025 71.1049 17.526 71.0611Z" fill="#6634FA"/>
<path d="M19.0369 71.9337L18.2535 71.4819C18.177 71.4382 18.041 71.443 17.9523 71.494L17.5199 71.7442C17.4313 71.7952 17.4216 71.873 17.4981 71.9179L18.2815 72.3697C18.358 72.4146 18.494 72.4086 18.5826 72.3576L19.015 72.1073C19.1037 72.0563 19.1134 71.9786 19.0369 71.9337Z" fill="#6634FA"/>
<path d="M18.2292 67.1045L17.4458 66.6527C17.3693 66.6089 17.2333 66.6138 17.1446 66.6648L16.7122 66.915C16.6236 66.966 16.6139 67.045 16.6904 67.0887L17.4737 67.5405C17.5502 67.5854 17.6863 67.5794 17.775 67.5283L18.2073 67.2782C18.2972 67.2272 18.3069 67.1494 18.2292 67.1045Z" fill="#6634FA"/>
<path d="M19.7413 67.9779L18.9579 67.5261C18.8814 67.4824 18.7454 67.4872 18.6567 67.5382L18.2243 67.7884C18.1357 67.8394 18.126 67.9184 18.2025 67.9621L18.9858 68.4139C19.0623 68.4588 19.1984 68.4528 19.2871 68.4017L19.7194 68.1516C19.8081 68.1005 19.8178 68.0216 19.7413 67.9779Z" fill="#6634FA"/>
<path d="M21.3032 68.8802L20.5198 68.4284C20.4433 68.3835 20.3073 68.3896 20.2186 68.4406L19.7862 68.6908C19.6976 68.7418 19.6879 68.8207 19.7644 68.8644L20.5477 69.3163C20.6243 69.36 20.7603 69.3551 20.849 69.3041L21.2813 69.0539C21.3712 69.0017 21.3809 68.924 21.3032 68.8802Z" fill="#6634FA"/>
<path d="M22.8153 69.752L22.0319 69.3003C21.9554 69.2565 21.8193 69.2614 21.7307 69.3124L21.2983 69.5626C21.2097 69.6136 21.1999 69.6925 21.2765 69.7362L22.0598 70.1881C22.1363 70.2318 22.2724 70.2269 22.361 70.1759L22.7934 69.9257C22.8821 69.8747 22.8918 69.7958 22.8153 69.752Z" fill="#6634FA"/>
<path d="M25.5042 69.9705L24.7209 69.5188C24.6443 69.475 24.5083 69.4799 24.4196 69.5309L23.9873 69.7811C23.8986 69.8321 23.8889 69.9099 23.9654 69.9548L24.7488 70.4066C24.8253 70.4503 24.9613 70.4455 25.05 70.3945L25.4824 70.1442C25.5722 70.0932 25.5807 70.0143 25.5042 69.9705Z" fill="#6634FA"/>
<path d="M23.193 71.3054L22.4096 70.8536C22.3331 70.8099 22.1971 70.8147 22.1084 70.8657L20.5198 71.7827C20.4311 71.8337 20.4214 71.9114 20.498 71.9564L21.2813 72.4082C21.3578 72.4519 21.4938 72.447 21.5825 72.396L23.1711 71.4791C23.2598 71.428 23.2695 71.3491 23.193 71.3054Z" fill="#6634FA"/>
<path d="M20.5708 72.8186L19.7874 72.3668C19.7109 72.3219 19.5749 72.3279 19.4862 72.3789L19.0538 72.6291C18.9651 72.6801 18.9555 72.7578 19.032 72.8028L19.8153 73.2546C19.8918 73.2983 20.0266 73.2935 20.1165 73.2424L20.5489 72.9923C20.6376 72.9412 20.6473 72.8635 20.5708 72.8186Z" fill="#6634FA"/>
<path d="M24.348 70.6376L23.5646 70.1857C23.4881 70.142 23.352 70.1469 23.2634 70.1979L22.831 70.4481C22.7424 70.4991 22.7326 70.5768 22.8092 70.6218L23.5925 71.0736C23.669 71.1173 23.8051 71.1124 23.8937 71.0614L24.3261 70.8112C24.416 70.7602 24.4257 70.6825 24.348 70.6376Z" fill="#6634FA"/>
<path d="M27.0151 70.8426L26.2317 70.3908C26.1552 70.3471 26.0192 70.352 25.9305 70.403L25.4981 70.6532C25.4095 70.7042 25.3998 70.7819 25.4763 70.8268L26.2597 71.2787C26.3362 71.3224 26.4722 71.3175 26.5609 71.2665L26.9932 71.0163C27.0831 70.9653 27.0928 70.8864 27.0151 70.8426Z" fill="#6634FA"/>
<path d="M30.0891 72.617L27.7426 71.2628C27.6661 71.2191 27.5301 71.2239 27.4414 71.2749L27.0091 71.5251C26.9204 71.5761 26.9107 71.6551 26.9872 71.6988L29.3337 73.053C29.4102 73.0979 29.5462 73.0919 29.6349 73.0408L30.0673 72.7907C30.1571 72.7397 30.1668 72.6619 30.0891 72.617Z" fill="#6634FA"/>
<path d="M24.7039 72.1776L23.9206 71.7258C23.8441 71.6808 23.708 71.6869 23.6193 71.7379L23.187 71.9881C23.0983 72.0391 23.0886 72.1181 23.1651 72.1618L23.9485 72.6136C24.025 72.6574 24.161 72.6525 24.2497 72.6015L24.6821 72.3513C24.7707 72.3003 24.7804 72.2225 24.7039 72.1776Z" fill="#6634FA"/>
<path d="M26.2149 73.0495L25.4315 72.5977C25.355 72.554 25.2189 72.5589 25.1303 72.6099L24.6979 72.8601C24.6092 72.9111 24.5995 72.99 24.676 73.0337L25.4594 73.4856C25.5359 73.5293 25.6719 73.5244 25.7606 73.4734L26.193 73.2232C26.2817 73.1722 26.2914 73.0945 26.2149 73.0495Z" fill="#6634FA"/>
<path d="M27.7779 73.9519L26.9946 73.5001C26.918 73.4563 26.782 73.4612 26.6933 73.5122L26.261 73.7624C26.1723 73.8134 26.1626 73.8924 26.2391 73.9361L27.0225 74.3879C27.099 74.4329 27.235 74.4268 27.3237 74.3758L27.7561 74.1268C27.8447 74.0746 27.8544 73.9968 27.7779 73.9519Z" fill="#6634FA"/>
<path d="M23.5476 72.8442L22.7643 72.3924C22.6878 72.3475 22.5517 72.3536 22.4631 72.4046L22.0307 72.6548C21.942 72.7058 21.9323 72.7847 22.0088 72.8284L22.7922 73.2802C22.8687 73.3239 23.0035 73.3191 23.0934 73.2681L23.5258 73.0179C23.6144 72.9669 23.6242 72.8892 23.5476 72.8442Z" fill="#6634FA"/>
<path d="M25.0585 73.7174L24.2752 73.2656C24.1986 73.2218 24.0626 73.2267 23.974 73.2777L23.5416 73.5279C23.4529 73.5789 23.4432 73.6579 23.5197 73.7016L24.3031 74.1534C24.3796 74.1971 24.5156 74.1923 24.6043 74.1413L25.0367 73.8911C25.1254 73.8401 25.135 73.7611 25.0585 73.7174Z" fill="#6634FA"/>
<path d="M26.6217 74.6198L25.8383 74.1681C25.7617 74.1231 25.6257 74.1292 25.5371 74.1802L25.1047 74.4304C25.016 74.4814 25.0063 74.5591 25.0828 74.6041L25.8662 75.0559C25.9427 75.1008 26.0788 75.0947 26.1674 75.0437L26.5998 74.7935C26.6884 74.7425 26.6982 74.6636 26.6217 74.6198Z" fill="#6634FA"/>
<path d="M22.0816 73.6907L21.2983 73.2388C21.2218 73.1939 21.0857 73.2 20.9971 73.251L20.5647 73.5012C20.476 73.5522 20.4663 73.6312 20.5428 73.6749L21.3262 74.1267C21.4027 74.1704 21.5388 74.1655 21.6274 74.1145L22.0598 73.8643C22.1484 73.8133 22.1582 73.7356 22.0816 73.6907Z" fill="#6634FA"/>
<path d="M23.5926 74.5638L22.8092 74.112C22.7327 74.0671 22.5967 74.0732 22.508 74.1242L22.0756 74.3744C21.9869 74.4254 21.9772 74.5043 22.0537 74.548L22.8371 74.9999C22.9137 75.0448 23.0497 75.0387 23.1383 74.9877L23.5707 74.7375C23.6594 74.6853 23.6691 74.6076 23.5926 74.5638Z" fill="#6634FA"/>
<path d="M25.1557 75.466L24.3723 75.0142C24.2957 74.9705 24.1597 74.9754 24.0711 75.0264L23.6387 75.2766C23.5501 75.3276 23.5403 75.4065 23.6168 75.4503L24.4002 75.902C24.4767 75.9458 24.6128 75.9409 24.7014 75.8899L25.1338 75.6397C25.2225 75.5887 25.2322 75.5098 25.1557 75.466Z" fill="#6634FA"/>
<path d="M19.3089 73.5232L18.5255 73.0714C18.449 73.0264 18.313 73.0325 18.2243 73.0835L17.7919 73.3337C17.7033 73.3847 17.6936 73.4625 17.7701 73.5074L18.5535 73.9592C18.63 74.0029 18.766 73.9981 18.8547 73.9471L19.2871 73.6969C19.3757 73.6459 19.3854 73.5681 19.3089 73.5232Z" fill="#6634FA"/>
<path d="M20.8198 74.3964L20.0365 73.9445C19.96 73.8996 19.8239 73.9057 19.7352 73.9567L19.3029 74.2069C19.2142 74.2579 19.2045 74.3356 19.281 74.3806L20.0644 74.8324C20.1409 74.8761 20.2769 74.8712 20.3656 74.8202L20.798 74.57C20.8866 74.519 20.8976 74.4401 20.8198 74.3964Z" fill="#6634FA"/>
<path d="M22.3307 75.2683L21.5474 74.8165C21.4709 74.7728 21.3349 74.7776 21.2462 74.8286L20.8138 75.0788C20.7251 75.1298 20.7154 75.2076 20.7919 75.2525L21.5753 75.7043C21.6518 75.748 21.7879 75.7432 21.8765 75.6922L22.3089 75.442C22.3988 75.3909 22.4085 75.3132 22.3307 75.2683Z" fill="#6634FA"/>
<path d="M23.8938 76.1709L23.1104 75.7191C23.0339 75.6753 22.8979 75.6802 22.8092 75.7312L22.3769 75.9814C22.2882 76.0324 22.2785 76.1102 22.355 76.1551L23.1384 76.6069C23.2149 76.6506 23.3509 76.6458 23.4396 76.5948L23.8719 76.3446C23.9606 76.2936 23.9703 76.2158 23.8938 76.1709Z" fill="#6634FA"/>
<path d="M25.8602 71.5094L25.0768 71.0576C25.0003 71.0126 24.8643 71.0187 24.7756 71.0697L24.3432 71.3199C24.2546 71.3709 24.2448 71.4499 24.3214 71.4936L25.1048 71.9454C25.1813 71.9891 25.3173 71.9843 25.406 71.9333L25.8383 71.683C25.927 71.632 25.9367 71.5543 25.8602 71.5094Z" fill="#6634FA"/>
<path d="M27.371 72.3828L26.5876 71.931C26.5111 71.8873 26.375 71.8921 26.2864 71.9431L25.854 72.1933C25.7653 72.2443 25.7556 72.3233 25.8322 72.367L26.6155 72.8188C26.692 72.8625 26.828 72.8577 26.9167 72.8067L27.3491 72.5565C27.4378 72.5055 27.4475 72.4265 27.371 72.3828Z" fill="#6634FA"/>
<path d="M28.9342 73.2851L28.1508 72.8333C28.0743 72.7896 27.9383 72.7944 27.8496 72.8455L27.4173 73.0957C27.3286 73.1467 27.3189 73.2256 27.3954 73.2693L28.1787 73.7211C28.2553 73.7661 28.3913 73.76 28.48 73.709L28.9123 73.4588C29.001 73.4078 29.0107 73.3288 28.9342 73.2851Z" fill="#6634FA"/>
<path d="M3.0876 59.7539C3.44224 59.0823 4.22441 59.0179 4.32886 59.0118C4.3325 59.0118 4.33615 59.0118 4.33979 59.0118L4.3495 59.0106L4.35073 59.0118C4.61792 58.9997 4.94099 59.1053 5.24584 59.2815L16.6831 65.8217C17.3863 66.2286 18.0033 67.1031 18.33 68.0565C18.46 68.4378 20.6522 73.5923 21.2947 75.2963C21.5583 75.9971 21.6372 76.4842 21.5886 76.8048C21.5813 76.8546 21.5704 76.9007 21.557 76.942C21.3907 77.7133 20.4117 77.7594 20.4117 77.7594L20.3182 77.0526C20.2927 77.038 20.2672 77.0271 20.2417 77.0113L9.92059 71.0528C8.87973 70.4516 8.0587 69.067 7.40771 67.6776C7.40771 67.6776 4.9823 62.5 4.222 60.8786L4.00703 61.0851C4.00703 61.0851 2.8374 60.2288 3.0876 59.7539Z" fill="#2A0B88"/>
<path d="M9.14818 71.5214L19.4693 77.4799C20.5101 78.0811 21.2935 77.8079 20.5235 75.7638C19.881 74.0598 17.69 68.9065 17.5588 68.5239C17.2333 67.5705 16.6164 66.6961 15.9119 66.2892L4.47462 59.7489C3.85278 59.3894 3.15077 59.319 3.01353 59.9542C2.95645 60.2153 3.09007 60.5784 3.22609 60.8675C3.32569 61.08 6.63649 68.145 6.63649 68.145C7.28627 69.5356 8.10732 70.9202 9.14818 71.5214Z" fill="#6634FA"/>
<path d="M16.8496 76.9421L18.4807 77.8846L17.8783 76.3871L16.2484 75.4458L16.8496 76.9421Z" fill="#BDD6E5"/>
<path d="M16.2484 75.4459L16.5107 75.2916L18.1407 76.2329L17.8783 76.3871L16.2484 75.4459Z" fill="#E9F1FF"/>
<path d="M18.4807 77.8845L18.7431 77.7302L18.1407 76.2327L17.8783 76.3869L18.4807 77.8845Z" fill="#A3C6D8"/>
<path d="M9.84646 72.8772L11.4776 73.8185L10.8752 72.3209L9.24405 71.3796L9.84646 72.8772Z" fill="#BDD6E5"/>
<path d="M9.24408 71.3796L9.50642 71.2253L11.1376 72.1666L10.8752 72.3209L9.24408 71.3796Z" fill="#E9F1FF"/>
<path d="M11.4776 73.8187L11.7399 73.6644L11.1375 72.1669L10.8752 72.3211L11.4776 73.8187Z" fill="#A3C6D8"/>
<path d="M35.5438 43.8653C35.3859 43.2386 34.8369 42.4225 34.1628 41.9974C34.3705 41.5662 34.4774 40.7634 34.2418 40.3396C33.8944 39.7165 32.8572 38.8117 31.9463 38.8008C32.3568 37.4963 31.1326 36.8465 30.5958 36.7567C29.7796 36.6182 28.8748 36.7457 28.3756 37.3469C28.0805 36.7567 26.8149 36.7069 26.7056 37.5461C26.4263 37.6809 26.0291 37.7392 25.4498 37.9566C23.9061 37.8121 22.6576 38.3927 22.4705 39.193C22.3636 39.6521 22.5579 40.0395 22.8871 40.325C22.2045 40.8302 21.8195 41.644 22.4912 42.3897C23.277 43.2605 25.0283 43.0905 25.9271 42.3023C26.1967 43.3455 27.0068 44.3002 28.095 44.4058C28.5128 44.4459 28.9999 44.254 29.3703 43.9516C29.5379 44.8649 30.0698 45.1151 30.9006 45.041C30.5326 45.6082 30.6686 47.4956 31.0803 47.7664C30.2362 48.5717 29.1213 50.1008 29.465 51.2837C29.7419 52.2371 30.8812 52.978 32.3884 52.0088C33.1147 51.5424 33.7038 49.9198 33.4523 49.2822C34.0256 49.4473 34.7167 49.0781 34.8855 48.415C35.0215 47.8806 34.8394 47.2053 34.4811 46.6782C35.4393 46.2726 35.7721 44.7726 35.5438 43.8653Z" fill="#2A0B88"/>
<path d="M37.8306 57.1157C37.2501 55.5526 33.9234 57.4315 33.9234 57.4315C33.9234 57.4315 33.9137 58.8404 33.9234 60.2104C33.9332 61.5804 34.0583 65.0406 34.0583 65.0406C34.0583 65.0406 30.3053 70.7428 29.8924 71.31C29.7479 71.508 28.877 71.2942 28.3001 71.6841C27.5605 72.1832 27.5131 72.5646 27.1111 72.8039C26.3204 73.2751 26.2901 73.7391 26.8986 73.7136C27.4852 73.6893 28.0293 73.0383 28.2139 73.0541C28.4921 73.0783 28.3171 73.6456 27.9504 74.4192C27.6139 75.1297 26.6326 76.2155 27.1075 76.9017C27.5824 77.5867 28.7082 77.1434 29.8062 76.0588C30.711 75.1661 30.8081 73.8605 31.3826 72.6411C31.6923 71.9853 35.7283 67.7964 36.5019 67.1745C37.0728 66.7154 37.1565 66.4956 37.2513 66.1932C37.4808 65.4608 37.5707 65.0916 37.5707 64.1345C37.5719 62.6358 38.4112 58.68 37.8306 57.1157Z" fill="#FFC9B6"/>
<path d="M35.0044 51.3383C33.7923 51.778 33.2227 53.5245 33.1571 55.7179C33.0915 57.9114 33.1267 61.0011 33.1267 61.0011C33.1267 61.0011 34.3729 61.7724 36.0295 61.7724C37.7724 61.7724 38.642 60.842 38.642 60.842C38.642 60.842 38.3735 54.8107 37.7444 53.1273C37.1153 51.4452 36.0453 50.9606 35.0044 51.3383Z" fill="#E4E4FF"/>
<path d="M82.3477 37.5337C76.2417 34.0795 70.2702 28.1853 65.264 20.6741L65.1948 20.6333C60.1886 22.3645 54.2171 21.3625 48.1111 17.7657L47.879 17.6272L48.2089 29.0407C49.3698 46.7313 55.4024 54.4299 65.1133 70.8781L65.3496 71.0166C75.0604 65.7823 81.0931 65.0491 82.254 48.6987L82.5839 37.6681L82.3517 37.5377L82.3477 37.5337Z" fill="#6634FA"/>
<path d="M85.7937 34.9065C79.6877 31.4523 73.7162 25.5581 68.71 18.0469L68.6408 18.0061C63.6347 19.7373 57.6631 18.7353 51.5572 15.1385L51.325 15L47.9441 17.664L48.1111 17.7617C54.2171 21.3585 60.1886 22.3605 65.1947 20.6294L65.264 20.6701C70.2701 28.1814 76.2417 34.0755 82.3476 37.5297L82.5798 37.66L82.2499 48.6907C81.4922 59.3628 78.6612 63.3792 74.0828 66.3405C79.8018 62.9637 84.8446 58.0634 85.6959 46.0674L86.0259 35.0368L85.7937 34.9065Z" fill="#3F13C2"/>
<path d="M86.0299 35.0406L85.7978 34.9102C79.6918 31.456 73.7203 25.5619 68.7141 18.0506L68.6449 18.0099L65.1988 20.6331L65.2681 20.6739C70.2742 28.1851 76.2457 34.0793 82.3517 37.5335L82.5839 37.6638L86.0299 35.0406Z" fill="#3F13C2"/>
<path d="M82.5839 37.6639L82.2539 48.6945C81.4963 59.3667 78.6653 63.383 74.0869 66.3443C79.8059 62.9675 84.8487 58.0673 85.7 46.0713L86.0299 35.0406L82.5839 37.6639Z" fill="#2A0B88"/>
<path d="M64.0257 63.3915C56.4859 50.8863 52.6977 44.5971 51.7812 30.874L51.5735 23.6682C56.4126 25.8556 61.0522 26.5521 65.2355 25.7212C69.4147 31.3791 74.0543 36.039 78.8934 39.4402L78.6857 46.4056C77.7733 59.0738 73.981 60.9882 66.4412 64.7887C66.0461 64.9883 65.6469 65.1919 65.2355 65.3997C64.8241 64.7194 64.4208 64.0473 64.0298 63.3956L64.0257 63.3915Z" fill="#E4E4FF"/>
<path d="M67.0563 64.2424C66.6612 64.442 66.262 64.6457 65.8506 64.8534C65.4392 64.1732 65.0359 63.5011 64.6449 62.8494C57.1051 50.3442 53.3128 44.0549 52.4004 30.3318L52.2171 23.9489C52.0052 23.8592 51.7894 23.7656 51.5775 23.6719L51.7853 30.8776C52.6977 44.6007 56.49 50.8941 64.0298 63.3952C64.4249 64.051 64.8281 64.719 65.2355 65.3993C65.6469 65.1915 66.0461 64.9879 66.4412 64.7883C69.5166 63.2363 71.9687 62.0021 73.8547 60.218C72.0583 61.717 69.8099 62.8534 67.0563 64.2424Z" fill="#2A0B88"/>
<path d="M56.9761 39.0351L63.3674 52.9498L74.633 41.1252L69.4204 36.3789L63.3674 46.5835L60.5082 39.7223L56.9761 39.0351Z" fill="#03B073"/>
<path d="M56.0219 39.7329L62.4131 53.6512L73.6788 41.8229L68.4661 37.0767L62.4131 47.2813L59.554 40.42L56.0219 39.7329Z" fill="#04C984"/>
<path d="M74.633 41.1255L73.6788 41.8234L62.4131 53.6516L63.3673 52.9502L74.633 41.1255Z" fill="#0BA19F"/>
<path d="M56.9761 39.0354L56.0219 39.7333L59.554 40.4205L60.5082 39.7226L56.9761 39.0354Z" fill="#03B073"/>
<path d="M73.6788 41.8233L68.4661 37.077L69.4203 36.3792L74.633 41.1254L73.6788 41.8233Z" fill="#03B073"/>
</svg>
