<svg width="128" height="128" viewBox="0 0 128 128" fill="none" xmlns="http://www.w3.org/2000/svg">
<path d="M34.3013 113.545L26 118.345V123.172L34.3491 128H42.6983L51.0379 123.287V118.345L42.6732 113.514L34.3013 113.545Z" fill="#C6C6C6"/>
<path d="M34.3013 112.188L26 116.987V121.815L34.3491 126.643H42.6983L51.0379 121.93V116.987L42.6732 112.157L34.3013 112.188Z" fill="#6634FA"/>
<path d="M26 121.815V123.172L34.3491 128V126.643L26 121.815Z" fill="#2A0B88"/>
<path d="M42.6983 126.643H34.3492V128H42.6983V126.643Z" fill="#3F13C2"/>
<path d="M42.6983 126.643L51.0379 121.93V123.287L42.6983 128V126.643Z" fill="#BFB0FE"/>
<path d="M35.6111 65.6463C34.0117 64.7117 34.0117 63.1886 35.6111 62.2617C37.2105 61.3347 39.8276 61.3347 41.4269 62.2617C43.0263 63.1886 43.0263 64.7119 41.4269 65.6463C39.8274 66.5808 37.2103 66.5808 35.6111 65.6463Z" fill="#FFED0E"/>
<path d="M35.6111 63.3152C34.0117 62.3806 34.0117 60.8576 35.6111 59.9306C37.2105 59.0036 39.8276 59.0036 41.4269 59.9306C43.0263 60.8576 43.0263 62.3808 41.4269 63.3152C39.8274 64.2498 37.2103 64.2498 35.6111 63.3152Z" fill="#FFED0E"/>
<path d="M35.6111 60.9846C34.0117 60.05 34.0117 58.527 35.6111 57.6C37.2105 56.673 39.8276 56.673 41.4269 57.6C43.0263 58.527 43.0263 60.05 41.4269 60.9846C39.8274 61.9192 37.2103 61.9192 35.6111 60.9846Z" fill="#FFED0E"/>
<path d="M35.6111 58.6541C34.0117 57.7195 34.0117 56.1965 35.6111 55.2695C37.2105 54.3425 39.8276 54.3425 41.4269 55.2695C43.0263 56.1965 43.0263 57.7195 41.4269 58.6541C39.8274 59.5887 37.2103 59.5887 35.6111 58.6541Z" fill="#FFED0E"/>
<path d="M42.6264 54.6335H34.4118V56.9529C34.4118 56.9567 34.4118 56.9605 34.4118 56.9643V59.2836C34.4118 59.2874 34.4118 59.2912 34.4118 59.295V61.6144C34.4118 61.6182 34.4118 61.622 34.4118 61.6258V63.945C34.4118 63.9488 34.4118 63.9526 34.4118 63.9564V118.66C34.4093 119.275 34.8088 119.892 35.6111 120.361C37.2105 121.296 39.8276 121.296 41.4268 120.361C42.3122 119.844 42.7066 119.146 42.6116 118.469L42.6264 118.468V63.9564H42.6252C42.6254 63.8888 42.621 63.821 42.6116 63.7536L42.6264 63.7532V61.6256H42.6252C42.6254 61.5578 42.621 61.4902 42.6116 61.4228L42.6264 61.4225V59.2948H42.6252C42.6254 59.2273 42.621 59.1595 42.6116 59.0921L42.6264 59.0917V56.9641H42.6252C42.6254 56.8965 42.621 56.8287 42.6116 56.7613L42.6264 56.7609V54.6333V54.6335Z" fill="#3F13C2"/>
<path d="M35.6111 56.3235C34.0117 55.3889 34.0117 53.8659 35.6111 52.9389C37.2105 52.0119 39.8276 52.0119 41.4269 52.9389C43.0263 53.8659 43.0263 55.3889 41.4269 56.3235C39.8274 57.2581 37.2103 57.2581 35.6111 56.3235Z" fill="#2A0B88"/>
<path d="M36.0017 56.0963C34.6171 55.2872 34.6171 53.9687 36.0017 53.1663C37.3863 52.3638 39.6519 52.3638 41.0364 53.1663C42.421 53.9687 42.421 55.2872 41.0364 56.0963C39.6519 56.9054 37.3863 56.9054 36.0017 56.0963Z" fill="#6634FA"/>
<path d="M85.9838 83.5616L77.6825 88.3606V93.1883L86.0316 98.016H94.3807L102.721 93.3034V88.3606L94.3557 83.5303L85.9838 83.5616Z" fill="#C6C6C6"/>
<path d="M85.9838 82.2046L77.6825 87.0036V91.8313L86.0316 96.659H94.3807L102.721 91.9462V87.0036L94.3557 82.1731L85.9838 82.2046Z" fill="#6634FA"/>
<path d="M77.6825 91.8313V93.1884L86.0316 98.0161V96.659L77.6825 91.8313Z" fill="#2A0B88"/>
<path d="M94.3808 96.6587H86.0316V98.0158H94.3808V96.6587Z" fill="#3F13C2"/>
<path d="M94.3808 96.6586L102.721 91.9458V93.3031L94.3808 98.0157V96.6586Z" fill="#BFB0FE"/>
<path d="M87.2936 35.6626C85.6942 34.728 85.6942 33.205 87.2936 32.278C88.8931 31.351 91.5102 31.351 93.1094 32.278C94.7088 33.205 94.7088 34.7282 93.1094 35.6626C91.51 36.5972 88.8929 36.5972 87.2936 35.6626Z" fill="#FFED0E"/>
<path d="M87.2936 33.3318C85.6942 32.3972 85.6942 30.8742 87.2936 29.9472C88.8931 29.0202 91.5102 29.0202 93.1094 29.9472C94.7088 30.8742 94.7088 32.3974 93.1094 33.3318C91.51 34.2664 88.8929 34.2664 87.2936 33.3318Z" fill="#FFED0E"/>
<path d="M87.2936 31.0012C85.6942 30.0667 85.6942 28.5436 87.2936 27.6166C88.8931 26.6896 91.5102 26.6896 93.1094 27.6166C94.7088 28.5436 94.7088 30.0667 93.1094 31.0012C91.51 31.9358 88.8929 31.9358 87.2936 31.0012Z" fill="#FFED0E"/>
<path d="M87.2936 28.6704C85.6942 27.7358 85.6942 26.2128 87.2936 25.2858C88.8931 24.3588 91.5102 24.3588 93.1094 25.2858C94.7088 26.2128 94.7088 27.7358 93.1094 28.6704C91.51 29.605 88.8929 29.605 87.2936 28.6704Z" fill="#FFED0E"/>
<path d="M94.3091 24.6504H86.0945V26.9698C86.0945 26.9736 86.0945 26.9774 86.0945 26.9812V29.3005C86.0945 29.3043 86.0945 29.3081 86.0945 29.3119V31.6313C86.0945 31.6351 86.0945 31.6389 86.0945 31.6427V33.9619C86.0945 33.9657 86.0945 33.9695 86.0945 33.9733V88.6769C86.092 89.2923 86.4915 89.909 87.2938 90.3779C88.8932 91.3124 91.5103 91.3124 93.1096 90.3779C93.995 89.8604 94.3894 89.1628 94.2943 88.4857L94.3091 88.4853V33.9733H94.3079C94.3081 33.9057 94.3038 33.8379 94.2943 33.7705L94.3091 33.7701V31.6425H94.3079C94.3081 31.5747 94.3038 31.5071 94.2943 31.4397L94.3091 31.4394V29.3117H94.3079C94.3081 29.2442 94.3038 29.1764 94.2943 29.109L94.3091 29.1086V26.981H94.3079C94.3081 26.9134 94.3038 26.8456 94.2943 26.7782L94.3091 26.7778V24.6504Z" fill="#3F13C2"/>
<path d="M87.2936 26.3401C85.6942 25.4055 85.6942 23.8825 87.2936 22.9555C88.893 22.0285 91.5101 22.0285 93.1094 22.9555C94.7088 23.8825 94.7088 25.4055 93.1094 26.3401C91.5099 27.2747 88.8928 27.2747 87.2936 26.3401Z" fill="#2A0B88"/>
<path d="M87.6842 26.1129C86.2996 25.3038 86.2996 23.9853 87.6842 23.1829C89.0687 22.3804 91.3343 22.3804 92.7189 23.1829C94.1035 23.9853 94.1035 25.3038 92.7189 26.1129C91.3343 26.922 89.0687 26.922 87.6842 26.1129Z" fill="#6634FA"/>
<path d="M34.9631 67.2552V80.6134L97.9149 44.1876V31.0901L34.9631 67.2552Z" fill="#3A3A3A"/>
<path d="M34.9631 80.6134L38.3827 82.5682V69.2099L34.9631 67.2551V80.6134Z" fill="#D49E00"/>
<path d="M38.3826 69.21L34.9631 67.2552L97.9149 31.0901L101.334 33.0449L38.3826 69.21Z" fill="#FBBC04"/>
<path d="M73.8938 62.0491L78.0579 59.6395L78.0647 59.6074L73.9002 62.017L73.8938 62.0491Z" fill="#DBD628"/>
<path d="M82.1983 57.2475L86.3624 54.8379L86.3702 54.8013L82.2057 57.2108L82.1983 57.2475Z" fill="#DBD628"/>
<path d="M90.2014 52.6164L94.3657 50.2068L94.3733 50.1702L90.209 52.5797L90.2014 52.6164Z" fill="#DBD628"/>
<path d="M97.4778 35.2604L93.2907 37.666L89.4825 39.8538L85.2952 42.2594L81.1852 44.6206L76.9977 47.0262L38.3827 69.21V82.5682L73.9002 62.0168L78.0647 59.6072L82.2057 57.2109L86.3702 54.8013L90.209 52.5799L94.3733 50.1704L98.5145 47.7743L101.334 46.1426V34.127V33.0449L97.4778 35.2604Z" fill="#FFED0E"/>
<path d="M39.9872 64.3687L43.5547 66.2387L48.5268 63.3823L44.9582 61.5129L39.9872 64.3687Z" fill="#6634FA"/>
<path d="M43.5547 66.2387V79.5755L48.5268 76.6984V63.3823L43.5547 66.2387Z" fill="#2A0B88"/>
<path d="M49.9912 58.5745L53.5587 60.4445L58.5307 57.5879L54.9622 55.7188L49.9912 58.5745Z" fill="#6634FA"/>
<path d="M53.5586 60.4447V73.7815L58.5307 70.9044V57.5881L53.5586 60.4447Z" fill="#2A0B88"/>
<path d="M59.5212 53.0286L63.0886 54.8986L68.0607 52.0422L64.4921 50.1729L59.5212 53.0286Z" fill="#6634FA"/>
<path d="M63.0886 54.8986V68.2354L68.0607 65.3583V52.0422L63.0886 54.8986Z" fill="#2A0B88"/>
<path d="M69.5252 47.2342L73.0926 49.104L78.0647 46.2476L74.4961 44.3784L69.5252 47.2342Z" fill="#6634FA"/>
<path d="M73.0926 49.1044V62.4414L78.0647 59.5643V46.248L73.0926 49.1044Z" fill="#2A0B88"/>
<path d="M79.1727 41.6947L82.7401 43.5646L87.7122 40.7083L84.1437 38.8391L79.1727 41.6947Z" fill="#6634FA"/>
<path d="M82.7401 43.5646V56.9014L87.7122 54.0245V40.7083L82.7401 43.5646Z" fill="#2A0B88"/>
<path d="M89.1767 35.9007L92.7441 37.7707L97.7162 34.9143L94.1477 33.0449L89.1767 35.9007Z" fill="#6634FA"/>
<path d="M92.7441 37.7707V51.1074L97.7162 48.2304V34.9143L92.7441 37.7707Z" fill="#2A0B88"/>
<path d="M34.9631 91.8838V105.242L97.9149 68.8163V55.7188L34.9631 91.8838Z" fill="#3A3A3A"/>
<path d="M34.9631 105.242L38.3827 107.197V93.8388L34.9631 91.884V105.242Z" fill="#D49E00"/>
<path d="M38.3826 93.8386L34.9631 91.8838L97.9149 55.7188L101.334 57.6736L38.3826 93.8386Z" fill="#FBBC04"/>
<path d="M73.8938 86.678L78.0579 84.2684L78.0647 84.2363L73.9002 86.6459L73.8938 86.678Z" fill="#DBD628"/>
<path d="M82.1983 81.8764L86.3624 79.4668L86.3702 79.4302L82.2057 81.8397L82.1983 81.8764Z" fill="#DBD628"/>
<path d="M90.2014 77.2455L94.3657 74.836L94.3733 74.7993L90.209 77.2089L90.2014 77.2455Z" fill="#DBD628"/>
<path d="M97.4778 59.8893L93.2907 62.2949L89.4825 64.4827L85.2952 66.8883L81.1852 69.2495L76.9977 71.6551L38.3827 93.8389V107.197L73.9002 86.6457L78.0647 84.2361L82.2057 81.8398L86.3702 79.4303L90.209 77.2089L94.3733 74.7993L98.5145 72.4032L101.334 70.7715V58.756V57.6738L97.4778 59.8893Z" fill="#FFED0E"/>
<path d="M39.9872 88.9979L43.5547 90.8679L48.5268 88.0115L44.9582 86.1423L39.9872 88.9979Z" fill="#6634FA"/>
<path d="M43.5547 90.8678V104.205L48.5268 101.328V88.0115L43.5547 90.8678Z" fill="#2A0B88"/>
<path d="M49.9912 83.2035L53.5587 85.0734L58.5307 82.2168L54.9622 80.3477L49.9912 83.2035Z" fill="#6634FA"/>
<path d="M53.5586 85.0738V98.4106L58.5307 95.5335V82.2173L53.5586 85.0738Z" fill="#2A0B88"/>
<path d="M59.5212 77.6568L63.0886 79.5268L68.0607 76.6704L64.4921 74.801L59.5212 77.6568Z" fill="#6634FA"/>
<path d="M63.0886 79.527V92.8638L68.0607 89.9867V76.6707L63.0886 79.527Z" fill="#2A0B88"/>
<path d="M69.5252 71.8626L73.0926 73.7326L78.0647 70.876L74.4961 69.0068L69.5252 71.8626Z" fill="#6634FA"/>
<path d="M73.0926 73.7328V87.0695L78.0647 84.1925V70.8762L73.0926 73.7328Z" fill="#2A0B88"/>
<path d="M79.1727 66.3236L82.7401 68.1936L87.7122 65.3372L84.1437 63.468L79.1727 66.3236Z" fill="#6634FA"/>
<path d="M82.7401 68.1938V81.5305L87.7122 78.6537V65.3374L82.7401 68.1938Z" fill="#2A0B88"/>
<path d="M89.1767 60.5296L92.7441 62.3996L97.7162 59.5432L94.1477 57.6738L89.1767 60.5296Z" fill="#6634FA"/>
<path d="M92.7441 62.3996V75.7364L97.7162 72.8593V59.5432L92.7441 62.3996Z" fill="#2A0B88"/>
<path d="M48.904 50.2113L48.887 54.4202C48.8827 55.8944 47.8855 57.3669 45.8885 58.4942C41.872 60.7612 35.3374 60.7575 31.3014 58.4942C29.2671 57.3534 28.251 55.8566 28.2554 54.3622L28.2725 50.1533C28.2681 51.6478 29.2841 53.1445 31.3185 54.2853C35.3545 56.5486 41.8891 56.5523 45.9056 54.2853C47.9025 53.1581 48.8997 51.6855 48.904 50.2113Z" fill="#BFB0FE"/>
<path d="M47.1929 53.3923C46.8241 53.7128 46.3906 54.0081 45.899 54.2846C41.8815 56.5531 35.3474 56.5468 31.3104 54.2846C30.7928 53.9956 30.3399 53.6814 29.9518 53.342C27.7004 51.4192 27.7004 48.9057 29.9518 46.9829C30.327 46.6624 30.7669 46.3608 31.2651 46.078C35.2826 43.8096 41.8038 43.8096 45.8472 46.078C46.3583 46.3671 46.8112 46.675 47.1929 47.008C49.4572 48.9371 49.4701 51.4632 47.1929 53.3923Z" fill="#6634FA"/>
<path d="M45.7367 52.8238C45.4303 53.0901 45.0701 53.3355 44.6616 53.5652C41.3233 55.4501 35.8939 55.4449 32.5394 53.5652C32.1094 53.325 31.7331 53.064 31.4106 52.782C29.5399 51.1843 29.5399 49.0958 31.4106 47.498C31.7224 47.2317 32.0879 46.9811 32.5018 46.7462C35.8401 44.8613 41.2588 44.8613 44.6186 46.7462C45.0432 46.9863 45.4196 47.2422 45.7367 47.5189C47.6182 49.1218 47.629 51.2208 45.7367 52.8238Z" fill="#5B5E71"/>
<path d="M38.9444 28.1963H38.2152V31.0152H38.9444V28.1963Z" fill="#EE522E"/>
<path d="M29.348 31.9477L28.8324 32.4485L30.8847 34.4418L31.4003 33.9411L29.348 31.9477Z" fill="#EE522E"/>
<path d="M28.9022 41.0603H26V41.7686H28.9022V41.0603Z" fill="#EE522E"/>
<path d="M51.2282 41.0603H48.326V41.7686H51.2282V41.0603Z" fill="#EE522E"/>
<path d="M47.8096 31.9486L45.7577 33.9417L46.2733 34.4424L48.3252 32.4494L47.8096 31.9486Z" fill="#EE522E"/>
<path d="M47.1005 50.3567C47.1005 51.5753 46.2781 52.8006 44.6262 53.7281C41.3085 55.6034 35.9207 55.5966 32.5751 53.7281C30.8953 52.7871 30.0589 51.555 30.0589 50.3229C30.0589 49.0975 30.8813 47.879 32.5333 46.9515C35.851 45.0762 41.2457 45.0762 44.5843 46.9447C46.2641 47.8857 47.1005 49.1246 47.1005 50.3567Z" fill="#B63416"/>
<path opacity="0.7" d="M43.6141 41.0337V50.6823C43.6141 51.4022 43.1282 52.1262 42.1521 52.6742C40.1919 53.7822 37.0086 53.7782 35.0319 52.6742C34.0394 52.1182 33.5452 51.3903 33.5452 50.6623V41.0337C33.5452 38.3337 35.8019 36.1458 38.5817 36.1458C39.9737 36.1458 41.2297 36.6937 42.1398 37.5777C43.0499 38.4617 43.6141 39.6817 43.6141 41.0337Z" fill="#F1C40F"/>
<path opacity="0.7" d="M47.1005 39.9044V50.3567C47.1005 51.5753 46.2781 52.8006 44.6262 53.7281C41.3085 55.6034 35.9207 55.5966 32.5751 53.7281C30.8953 52.7871 30.0589 51.555 30.0589 50.3228V39.9044C30.0589 35.3347 33.8785 31.6316 38.5832 31.6316C40.9391 31.6316 43.0649 32.559 44.6052 34.0552C46.1457 35.5513 47.1005 37.6162 47.1005 39.9044Z" fill="#F1522D"/>
<path d="M44.9813 38.1598C44.9063 39.3237 44.0291 39.7602 43.0234 39.1159C42.0284 38.4716 41.2688 37.0064 41.3437 35.8425C41.4186 34.6578 42.2852 34.2213 43.2909 34.8552C44.2966 35.4995 45.0561 36.9752 44.9813 38.1598Z" fill="#FFCBBF"/>
<path d="M99.3605 22.0151L99.3435 26.2239C99.3392 27.6981 98.342 29.1707 96.345 30.2979C92.3286 32.5649 85.7939 32.5612 81.7579 30.2979C79.7236 29.1571 78.7075 27.6604 78.7119 26.1659L78.729 21.957C78.7247 23.4515 79.7407 24.9482 81.775 26.089C85.811 28.3523 92.3456 28.3561 96.3621 26.089C98.3591 24.9618 99.3563 23.4892 99.3605 22.0151Z" fill="#BFB0FE"/>
<path d="M97.6494 25.196C97.2807 25.5165 96.8471 25.8118 96.3555 26.0883C92.338 28.3568 85.8039 28.3505 81.7669 26.0883C81.2493 25.7993 80.7964 25.4851 80.4083 25.1458C78.1569 23.223 78.1569 20.7094 80.4083 18.7866C80.7835 18.4661 81.2235 18.1645 81.7216 17.8817C85.7391 15.6133 92.2604 15.6133 96.3038 17.8817C96.8148 18.1708 97.2677 18.4787 97.6494 18.8117C99.9137 20.7408 99.9267 23.2669 97.6494 25.196Z" fill="#6634FA"/>
<path d="M96.1932 24.6275C95.8868 24.8938 95.5266 25.1392 95.1181 25.3689C91.7798 27.2538 86.3504 27.2486 82.9959 25.3689C82.5659 25.1287 82.1896 24.8677 81.8671 24.5857C79.9964 22.988 79.9964 20.8995 81.8671 19.3017C82.1789 19.0354 82.5445 18.7848 82.9583 18.5499C86.2966 16.665 91.7153 16.665 95.0751 18.5499C95.4997 18.7901 95.8761 19.0459 96.1932 19.3226C98.0747 20.9255 98.0855 23.0245 96.1932 24.6275Z" fill="#5B5E71"/>
<path d="M89.4009 0H88.6718V2.81888H89.4009V0Z" fill="#EE522E"/>
<path d="M79.8045 3.75142L79.2889 4.2522L81.3412 6.24556L81.8568 5.74478L79.8045 3.75142Z" fill="#EE522E"/>
<path d="M79.3587 12.864H76.4565V13.5723H79.3587V12.864Z" fill="#EE522E"/>
<path d="M101.685 12.864H98.7826V13.5723H101.685V12.864Z" fill="#EE522E"/>
<path d="M98.2661 3.75236L96.2142 5.74536L96.7298 6.24613L98.7817 4.25313L98.2661 3.75236Z" fill="#EE522E"/>
<path d="M97.557 22.1605C97.557 23.379 96.7346 24.6044 95.0827 25.5319C91.7649 27.4071 86.3772 27.4003 83.0316 25.5319C81.3518 24.5908 80.5154 23.3588 80.5154 22.1266C80.5154 20.9012 81.3378 19.6827 82.9898 18.7552C86.3074 16.8799 91.7022 16.8799 95.0408 18.7484C96.7206 19.6894 97.557 20.9283 97.557 22.1605Z" fill="#B63416"/>
<path opacity="0.7" d="M94.0706 12.8376V22.4862C94.0706 23.2062 93.5847 23.9302 92.6086 24.4782C90.6484 25.5861 87.4651 25.5822 85.4884 24.4782C84.4959 23.9222 84.0017 23.1942 84.0017 22.4662V12.8376C84.0017 10.1377 86.2585 7.94971 89.0382 7.94971C90.4302 7.94971 91.6862 8.49767 92.5963 9.38167C93.5064 10.2656 94.0706 11.4857 94.0706 12.8376Z" fill="#F1C40F"/>
<path opacity="0.7" d="M97.557 11.7081V22.1604C97.557 23.379 96.7346 24.6043 95.0827 25.5318C91.7649 27.4071 86.3772 27.4003 83.0316 25.5318C81.3518 24.5908 80.5154 23.3587 80.5154 22.1266V11.7081C80.5154 7.13841 84.3349 3.4353 89.0397 3.4353C91.3956 3.4353 93.5214 4.36276 95.0617 5.85892C96.6021 7.35504 97.557 9.41986 97.557 11.7081Z" fill="#F1522D"/>
<path d="M95.4378 9.96351C95.3629 11.1274 94.4856 11.5639 93.4799 10.9196C92.485 10.2753 91.7253 8.81007 91.8002 7.64619C91.8751 6.46152 92.7417 6.02505 93.7474 6.65894C94.7531 7.30323 95.5126 8.77889 95.4378 9.96351Z" fill="#FFCBBF"/>
</svg>
