<svg width="128" height="128" viewBox="0 0 128 128" fill="none" xmlns="http://www.w3.org/2000/svg">
<path d="M30.3423 106.733L21 112.134V117.567L30.3961 123H39.7923L49.1778 117.696V112.134L39.7641 106.698L30.3423 106.733Z" fill="#C6C6C6"/>
<path d="M30.3423 105.205L21 110.606V116.039L30.3961 121.472H39.7923L49.1778 116.168V110.606L39.7641 105.17L30.3423 105.205Z" fill="#6634FA"/>
<path d="M21 116.039V117.567L30.3961 123V121.472L21 116.039Z" fill="#2A0B88"/>
<path d="M39.7923 121.472H30.3961V122.999H39.7923V121.472Z" fill="#3F13C2"/>
<path d="M39.7923 121.473L49.1778 116.169V117.696L39.7923 123V121.473Z" fill="#BFB0FE"/>
<path d="M31.8164 52.8268C30.0164 51.775 30.0164 50.061 31.8164 49.0178C33.6164 47.9745 36.5617 47.9745 38.3614 49.0178C40.1614 50.061 40.1614 51.7753 38.3614 52.8268C36.5614 53.8786 33.6161 53.8786 31.8164 52.8268Z" fill="#FFED0E"/>
<path d="M31.8164 50.2033C30.0164 49.1515 30.0164 47.4375 31.8164 46.3942C33.6164 45.351 36.5617 45.351 38.3614 46.3942C40.1614 47.4375 40.1614 49.1517 38.3614 50.2033C36.5614 51.2551 33.6161 51.2551 31.8164 50.2033Z" fill="#FFED0E"/>
<path d="M31.8164 47.5805C30.0164 46.5287 30.0164 44.8147 31.8164 43.7714C33.6164 42.7282 36.5617 42.7282 38.3614 43.7714C40.1614 44.8147 40.1614 46.5287 38.3614 47.5805C36.5614 48.6323 33.6161 48.6323 31.8164 47.5805Z" fill="#FFED0E"/>
<path d="M31.8164 44.9577C30.0164 43.9059 30.0164 42.1919 31.8164 41.1486C33.6164 40.1054 36.5617 40.1054 38.3614 41.1486C40.1614 42.1919 40.1614 43.9059 38.3614 44.9577C36.5614 46.0095 33.6161 46.0095 31.8164 44.9577Z" fill="#FFED0E"/>
<path d="M39.7114 40.4331H30.4667V43.0433C30.4667 43.0476 30.4667 43.0519 30.4667 43.0561V45.6664C30.4667 45.6707 30.4667 45.6749 30.4667 45.6792V48.2894C30.4667 48.2937 30.4667 48.298 30.4667 48.3023V50.9123C30.4667 50.9166 30.4667 50.9208 30.4667 50.9251V112.489C30.4639 113.181 30.9135 113.875 31.8164 114.403C33.6164 115.455 36.5617 115.455 38.3614 114.403C39.3579 113.821 39.8017 113.036 39.6947 112.274L39.7114 112.273V50.9251H39.7101C39.7103 50.849 39.7054 50.7728 39.6947 50.6969L39.7114 50.6965V48.3021H39.7101C39.7103 48.2258 39.7054 48.1497 39.6947 48.0738L39.7114 48.0734V45.679H39.7101C39.7103 45.6029 39.7054 45.5266 39.6947 45.4508L39.7114 45.4503V43.0559H39.7101C39.7103 42.9799 39.7054 42.9036 39.6947 42.8277L39.7114 42.8273V40.4329V40.4331Z" fill="#BFB0FE"/>
<path d="M31.8164 42.3351C30.0164 41.2833 30.0164 39.5693 31.8164 38.5261C33.6163 37.4828 36.5616 37.4828 38.3614 38.5261C40.1614 39.5693 40.1614 41.2833 38.3614 42.3351C36.5614 43.3869 33.6161 43.3869 31.8164 42.3351Z" fill="#2A0B88"/>
<path d="M32.256 42.0793C30.6978 41.1687 30.6978 39.6848 32.256 38.7818C33.8142 37.8787 36.3639 37.8787 37.9221 38.7818C39.4803 39.6848 39.4803 41.1687 37.9221 42.0793C36.3639 42.9898 33.8142 42.9898 32.256 42.0793Z" fill="#6634FA"/>
<path d="M88.506 72.9886L79.1636 78.3895V83.8226L88.5598 89.2557H97.956L107.342 83.9521V78.3895L97.9278 72.9534L88.506 72.9886Z" fill="#C6C6C6"/>
<path d="M88.506 71.4615L79.1637 76.8623V82.2954L88.5598 87.7286H97.956L107.342 82.4247V76.8623L97.9278 71.426L88.506 71.4615Z" fill="#6634FA"/>
<path d="M79.1636 82.2957V83.8229L88.5598 89.256V87.7288L79.1636 82.2957Z" fill="#2A0B88"/>
<path d="M97.956 87.7283H88.5598V89.2555H97.956V87.7283Z" fill="#3F13C2"/>
<path d="M97.956 87.7284L107.342 82.4246V83.952L97.956 89.2556V87.7284Z" fill="#BFB0FE"/>
<path d="M89.9801 19.0832C88.1801 18.0314 88.1801 16.3174 89.9801 15.2741C91.7801 14.2309 94.7254 14.2309 96.5252 15.2741C98.3252 16.3174 98.3252 18.0316 96.5252 19.0832C94.7252 20.135 91.7799 20.135 89.9801 19.0832Z" fill="#FFED0E"/>
<path d="M89.9801 16.4601C88.1801 15.4083 88.1801 13.6943 89.9801 12.6511C91.7801 11.6078 94.7254 11.6078 96.5252 12.6511C98.3252 13.6943 98.3252 15.4086 96.5252 16.4601C94.7252 17.5119 91.7799 17.5119 89.9801 16.4601Z" fill="#FFED0E"/>
<path d="M89.9801 13.8373C88.1801 12.7855 88.1801 11.0715 89.9801 10.0283C91.7801 8.98504 94.7254 8.98504 96.5252 10.0283C98.3252 11.0715 98.3252 12.7855 96.5252 13.8373C94.7252 14.8891 91.7799 14.8891 89.9801 13.8373Z" fill="#FFED0E"/>
<path d="M89.9801 11.2143C88.1801 10.1625 88.1801 8.44848 89.9801 7.40523C91.7801 6.36199 94.7254 6.36199 96.5252 7.40523C98.3252 8.44848 98.3252 10.1625 96.5252 11.2143C94.7252 12.2661 91.7799 12.2661 89.9801 11.2143Z" fill="#FFED0E"/>
<path d="M97.8753 6.69019H88.6306V9.30043C88.6306 9.3047 88.6306 9.30898 88.6306 9.31325V11.9235C88.6306 11.9278 88.6306 11.932 88.6306 11.9363V14.5466C88.6306 14.5508 88.6306 14.5551 88.6306 14.5594V17.1694C88.6306 17.1737 88.6306 17.178 88.6306 17.1822V78.7459C88.6278 79.4385 89.0774 80.1325 89.9803 80.6602C91.7803 81.7119 94.7256 81.7119 96.5254 80.6602C97.5218 80.0778 97.9657 79.2927 97.8586 78.5307L97.8753 78.5303V17.1822H97.874C97.8742 17.1062 97.8693 17.0299 97.8586 16.954L97.8753 16.9536V14.5592H97.874C97.8742 14.4829 97.8693 14.4068 97.8586 14.3309L97.8753 14.3305V11.9361H97.874C97.8742 11.86 97.8693 11.7837 97.8586 11.7079L97.8753 11.7074V9.31304H97.874C97.8742 9.23696 97.8693 9.16067 97.8586 9.08481L97.8753 9.08439V6.69019Z" fill="#BFB0FE"/>
<path d="M89.9801 8.59148C88.1801 7.53969 88.1801 5.82567 89.9801 4.78243C91.7801 3.73919 94.7254 3.73919 96.5252 4.78243C98.3252 5.82567 98.3252 7.53969 96.5252 8.59148C94.7252 9.64327 91.7799 9.64327 89.9801 8.59148Z" fill="#2A0B88"/>
<path d="M90.4197 8.33585C88.8615 7.42531 88.8615 5.94144 90.4197 5.03838C91.9778 4.13532 94.5276 4.13532 96.0858 5.03838C97.644 5.94144 97.644 7.42531 96.0858 8.33585C94.5276 9.24639 91.9778 9.24639 90.4197 8.33585Z" fill="#6634FA"/>
<path d="M31.0871 54.6376V69.671L101.933 28.6773V13.9373L31.0871 54.6376Z" fill="#3A3A3A"/>
<path d="M31.0871 69.6706L34.9355 71.8706V56.8372L31.0871 54.6372V69.6706Z" fill="#D49E00"/>
<path d="M34.9355 56.8375L31.0871 54.6376L101.933 13.9373L105.782 16.1372L34.9355 56.8375Z" fill="#FBBC04"/>
<path d="M74.8998 48.7786L79.5862 46.0669L79.5939 46.0308L74.9071 48.7425L74.8998 48.7786Z" fill="#DBD628"/>
<path d="M84.2458 43.3748L88.9321 40.6631L88.9409 40.6218L84.2542 43.3336L84.2458 43.3748Z" fill="#DBD628"/>
<path d="M93.2526 38.1631L97.9391 35.4514L97.9477 35.4102L93.2611 38.1219L93.2526 38.1631Z" fill="#DBD628"/>
<path d="M101.441 18.6306L96.7293 21.3378L92.4435 23.8L87.7311 26.5072L83.1056 29.1645L78.393 31.8717L34.9355 56.8375V71.871L74.9071 48.7423L79.5939 46.0305L84.2541 43.3337L88.9409 40.622L93.2611 38.122L97.9477 35.4103L102.608 32.7137L105.782 30.8774V17.355V16.1372L101.441 18.6306Z" fill="#FFED0E"/>
<path d="M36.7413 51.389L40.7561 53.4934L46.3517 50.2788L42.3357 48.175L36.7413 51.389Z" fill="#6634FA"/>
<path d="M40.7561 53.4936V68.5029L46.3517 65.265V50.2791L40.7561 53.4936Z" fill="#2A0B88"/>
<path d="M47.9998 44.868L52.0146 46.9724L57.6102 43.7576L53.5942 41.6541L47.9998 44.868Z" fill="#6634FA"/>
<path d="M52.0146 46.9731V61.9823L57.6102 58.7445V43.7583L52.0146 46.9731Z" fill="#2A0B88"/>
<path d="M58.7249 38.6268L62.7397 40.7312L68.3353 37.5166L64.3193 35.4128L58.7249 38.6268Z" fill="#6634FA"/>
<path d="M62.7397 40.7312V55.7404L68.3353 52.5026V37.5166L62.7397 40.7312Z" fill="#2A0B88"/>
<path d="M69.9835 32.1058L73.9982 34.21L79.5939 30.9954L75.5778 28.8918L69.9835 32.1058Z" fill="#6634FA"/>
<path d="M73.9982 34.2104V49.2199L79.5938 45.982V30.9958L73.9982 34.2104Z" fill="#2A0B88"/>
<path d="M80.8408 25.8717L84.8556 27.9761L90.4512 24.7615L86.4351 22.658L80.8408 25.8717Z" fill="#6634FA"/>
<path d="M84.8556 27.976V42.9853L90.4512 39.7477V24.7615L84.8556 27.976Z" fill="#2A0B88"/>
<path d="M92.0993 19.3511L96.1141 21.4556L101.71 18.241L97.6937 16.1372L92.0993 19.3511Z" fill="#6634FA"/>
<path d="M96.1141 21.4555V36.4648L101.71 33.2269V18.241L96.1141 21.4555Z" fill="#2A0B88"/>
<path d="M31.0871 82.3546V97.388L101.933 56.3943V41.6543L31.0871 82.3546Z" fill="#3A3A3A"/>
<path d="M31.0871 97.3884L34.9355 99.5884V84.5549L31.0871 82.355V97.3884Z" fill="#D49E00"/>
<path d="M34.9355 84.5546L31.0871 82.3546L101.933 41.6543L105.782 43.8543L34.9355 84.5546Z" fill="#FBBC04"/>
<path d="M74.8998 76.4959L79.5862 73.7842L79.5939 73.748L74.9071 76.4598L74.8998 76.4959Z" fill="#DBD628"/>
<path d="M84.2458 71.0923L88.9321 68.3806L88.9409 68.3394L84.2542 71.0511L84.2458 71.0923Z" fill="#DBD628"/>
<path d="M93.2526 65.8807L97.9391 63.1689L97.9477 63.1277L93.2611 65.8394L93.2526 65.8807Z" fill="#DBD628"/>
<path d="M101.441 46.3478L96.7293 49.0551L92.4435 51.5173L87.7311 54.2245L83.1056 56.8818L78.393 59.589L34.9355 84.5548V99.5882L74.9071 76.4595L79.5939 73.7478L84.2541 71.051L88.9409 68.3393L93.2611 65.8393L97.9477 63.1275L102.608 60.431L105.782 58.5947V45.0723V43.8545L101.441 46.3478Z" fill="#FFED0E"/>
<path d="M36.7413 79.1073L40.7561 81.2117L46.3517 77.9971L42.3357 75.8936L36.7413 79.1073Z" fill="#6634FA"/>
<path d="M40.7561 81.2114V96.2206L46.3517 92.983V77.9968L40.7561 81.2114Z" fill="#2A0B88"/>
<path d="M47.9998 72.5858L52.0146 74.6902L57.6102 71.4754L53.5942 69.3718L47.9998 72.5858Z" fill="#6634FA"/>
<path d="M52.0146 74.6906V89.6999L57.6102 86.462V71.4758L52.0146 74.6906Z" fill="#2A0B88"/>
<path d="M58.7249 66.3436L62.7397 68.448L68.3353 65.2334L64.3193 63.1296L58.7249 66.3436Z" fill="#6634FA"/>
<path d="M62.7397 68.4484V83.4577L68.3353 80.2199V65.2339L62.7397 68.4484Z" fill="#2A0B88"/>
<path d="M69.9835 59.8228L73.9982 61.9272L79.5939 58.7125L75.5778 56.6089L69.9835 59.8228Z" fill="#6634FA"/>
<path d="M73.9982 61.9274V76.9367L79.5938 73.6988V58.7126L73.9982 61.9274Z" fill="#2A0B88"/>
<path d="M80.8408 53.5892L84.8556 55.6936L90.4512 52.4791L86.4351 50.3755L80.8408 53.5892Z" fill="#6634FA"/>
<path d="M84.8556 55.6938V70.7031L90.4512 67.4654V52.4792L84.8556 55.6938Z" fill="#2A0B88"/>
<path d="M92.0993 47.0684L96.1141 49.1728L101.71 45.9583L97.6937 43.8545L92.0993 47.0684Z" fill="#6634FA"/>
<path d="M96.1141 49.1731V64.1823L101.71 60.9445V45.9585L96.1141 49.1731Z" fill="#2A0B88"/>
</svg>
