<svg width="128" height="128" viewBox="0 0 128 128" fill="none" xmlns="http://www.w3.org/2000/svg">
<path d="M100.466 98.3353L100.377 98.1028C100.288 97.8702 100.206 97.6377 100.104 97.4119L92.1421 76.8789C93.8657 82.1045 91.2256 87.7268 84.2285 91.7828C73.0044 98.2943 54.8311 98.3285 43.6344 91.858C36.6715 87.8362 34.0518 82.2481 35.7618 77.0294L27.4993 98.3353H27.7319C25.3653 105.127 28.7373 112.459 37.8616 117.726C52.3482 126.091 75.8429 126.091 90.3296 117.726C99.4538 112.459 102.826 105.127 100.459 98.3353H100.466Z" fill="#3F13C2"/>
<path d="M92.149 76.8722L92.0942 76.7286L85.4665 59.636C86.1368 62.3377 85.2955 65.1352 82.9358 67.5838C81.9782 68.5824 80.7881 69.5195 79.3244 70.3676C70.8157 75.2991 57.0403 75.3265 48.5522 70.4292C47.109 69.5947 45.9325 68.6645 44.975 67.6864C42.6494 65.2856 41.7945 62.5429 42.41 59.8822L35.8986 76.6739L35.7618 77.0296C34.0518 82.2483 36.6715 87.8364 43.6344 91.8582C54.8311 98.3218 73.0044 98.2876 84.2285 91.783C91.2324 87.7201 93.8658 82.0978 92.1421 76.8791L92.149 76.8722Z" fill="#FFED0E"/>
<path d="M48.5522 70.429C47.109 69.5946 45.9325 68.6644 44.975 67.6863C42.6494 65.2855 41.7945 62.5428 42.41 59.8821L35.8986 76.6738L35.7618 77.0294C34.0518 82.2482 36.6715 87.8363 43.6344 91.8581C48.7163 94.7923 55.2278 96.3792 61.8829 96.6391L62.2865 74.0473C57.2797 73.8421 52.3824 72.6383 48.5522 70.429Z" fill="#FFED0E"/>
<path d="M85.4665 59.6426L84.7005 57.6659L78.2369 40.9905C78.8524 43.5075 77.505 46.1545 74.1603 48.097C73.1481 48.6852 72.0195 49.164 70.8157 49.5402C66.5477 50.8876 61.3699 50.9013 57.1019 49.5744C55.8913 49.1982 54.7559 48.7194 53.7367 48.1312C50.5084 46.264 49.1404 43.7332 49.6192 41.2983L43.2719 57.6727L42.4169 59.882C41.8013 62.5426 42.6563 65.2854 44.9818 67.6862C45.9325 68.6711 47.109 69.5945 48.559 70.4289C57.0472 75.3262 70.8225 75.2988 79.3312 70.3674C80.7949 69.5192 81.9851 68.5822 82.9426 67.5836C85.3092 65.1349 86.1505 62.3375 85.4734 59.6357L85.4665 59.6426Z" fill="#6634FA"/>
<path d="M57.1019 49.5813C55.8913 49.2051 54.7559 48.7263 53.7367 48.1381C50.5084 46.2709 49.1404 43.7401 49.6192 41.3052L43.2719 57.6796L42.4169 59.8889C41.8013 62.5496 42.6563 65.2923 44.9818 67.6931C45.9325 68.678 47.109 69.6014 48.559 70.4358C52.3825 72.6451 57.2866 73.8489 62.2933 74.0541L62.7105 50.532C60.7749 50.4431 58.8597 50.1285 57.1088 49.5813H57.1019Z" fill="#6634FA"/>
<path d="M74.215 48.5417C68.5517 51.8112 59.3659 51.8112 53.7025 48.5417C48.0392 45.2723 48.0392 39.9715 53.7025 36.7021C59.3659 33.4326 68.5517 33.4326 74.215 36.7021C79.8784 39.9715 79.8784 45.2723 74.215 48.5486V48.5417Z" fill="#BFB0FE"/>
<path d="M79.2295 37.0951L79.2046 43.2311C79.1984 45.3802 77.7446 47.527 74.8332 49.1704C68.9777 52.4755 59.4511 52.47 53.5671 49.1705C50.6013 47.5073 49.12 45.3252 49.1264 43.1465L49.1513 37.0105C49.145 39.1892 50.6262 41.3712 53.592 43.0344C59.4759 46.334 69.0026 46.3395 74.8581 43.0344C77.7694 41.391 79.2232 39.2442 79.2295 37.0951Z" fill="#FFED0E"/>
<path d="M76.7349 41.7325C76.1973 42.1997 75.5653 42.6302 74.8486 43.0333C68.9915 46.3404 59.4656 46.3313 53.5802 43.0333C52.8257 42.612 52.1654 42.1539 51.5995 41.6592C48.3174 38.856 48.3174 35.1916 51.5995 32.3884C52.1466 31.9212 52.7879 31.4814 53.5142 31.0692C59.3712 27.7621 68.8783 27.7621 74.7731 31.0692C75.5182 31.4906 76.1785 31.9395 76.7349 32.425C80.036 35.2374 80.0548 38.9201 76.7349 41.7325Z" fill="#6634FA"/>
<path d="M74.612 40.9037C74.1652 41.292 73.6401 41.6497 73.0445 41.9846C68.1777 44.7325 60.2623 44.7249 55.372 41.9846C54.745 41.6345 54.1965 41.2539 53.7262 40.8428C50.999 38.5135 50.999 35.4687 53.7262 33.1394C54.1808 32.7512 54.7138 32.3859 55.3172 32.0434C60.1839 29.2954 68.0836 29.2954 72.9818 32.0434C73.6009 32.3935 74.1495 32.7665 74.612 33.1699C77.3549 35.5068 77.3706 38.5668 74.612 40.9037Z" fill="#5B5E71"/>
<path d="M64.7097 5H63.6466V9.10957H64.7097V5Z" fill="#EE522E"/>
<path d="M50.7193 10.4689L49.9676 11.199L52.9596 14.105L53.7112 13.375L50.7193 10.4689Z" fill="#EE522E"/>
<path d="M50.0694 23.7539H45.8383V24.7865H50.0694V23.7539Z" fill="#EE522E"/>
<path d="M82.6179 23.7539H78.3868V24.7865H82.6179V23.7539Z" fill="#EE522E"/>
<path d="M77.634 10.4702L74.6426 13.3757L75.3942 14.1058L78.3856 11.2003L77.634 10.4702Z" fill="#EE522E"/>
<path d="M76.6002 37.3071C76.6002 39.0836 75.4012 40.87 72.9929 42.2222C68.1561 44.9561 60.3014 44.9462 55.424 42.2222C52.975 40.8503 51.7556 39.0541 51.7556 37.2578C51.7556 35.4713 52.9546 33.6948 55.363 32.3426C60.1997 29.6088 68.0646 29.6088 72.9319 32.3328C75.3808 33.7046 76.6002 35.5108 76.6002 37.3071Z" fill="#B63416"/>
<path opacity="0.7" d="M71.5174 23.7156V37.782C71.5174 38.8316 70.809 39.8871 69.3861 40.686C66.5283 42.3013 61.8874 42.2955 59.0056 40.686C57.5588 39.8755 56.8383 38.8142 56.8383 37.7528V23.7156C56.8383 19.7794 60.1283 16.5896 64.1809 16.5896C66.2102 16.5896 68.0413 17.3885 69.3681 18.6772C70.6949 19.9659 71.5174 21.7446 71.5174 23.7156Z" fill="#F1C40F"/>
<path opacity="0.7" d="M76.6002 22.069V37.3071C76.6002 39.0837 75.4012 40.87 72.9929 42.2222C68.1561 44.9561 60.3014 44.9462 55.424 42.2222C52.975 40.8503 51.7556 39.0541 51.7556 37.2578V22.069C51.7556 15.407 57.3241 10.0083 64.183 10.0083C67.6176 10.0083 70.7167 11.3604 72.9623 13.5416C75.2081 15.7228 76.6002 18.733 76.6002 22.069Z" fill="#F1522D"/>
<path d="M73.5106 19.5256C73.4014 21.2224 72.1225 21.8588 70.6563 20.9195C69.2058 19.9802 68.0983 17.8441 68.2074 16.1473C68.3167 14.4202 69.58 13.7838 71.0463 14.708C72.5124 15.6473 73.6198 17.7986 73.5106 19.5256Z" fill="#FFCBBF"/>
</svg>
