<svg width="128" height="128" viewBox="0 0 128 128" fill="none" xmlns="http://www.w3.org/2000/svg">
<path d="M27.9823 35.8669L25.8533 34.6307L26.0887 118.212L28.2178 119.458L27.9823 35.8669Z" fill="#6634FA"/>
<path d="M81.0312 5.23621L78.9022 4L25.8533 34.6304L27.9823 35.8666L81.0312 5.23621Z" fill="#3F13C2"/>
<path d="M27.9822 35.8664L28.2177 119.457L81.2765 88.827L81.0312 5.23596L27.9822 35.8664Z" fill="#2A0B88"/>
<path d="M31.0826 36.5635L79.0788 8.85681V88.6902L31.0826 116.397V36.5635Z" fill="#E6EFFF"/>
<path d="M33.3981 41.312L76.7634 16.2837V23.1711L33.3981 48.2092V41.312Z" fill="#EE522E"/>
<path d="M63.8911 13.6246L63.1259 13.1831C62.91 13.0555 62.6157 13.0751 62.2919 13.2615L63.0572 13.703C63.381 13.5166 63.6753 13.497 63.8911 13.6246Z" fill="#BFB0FE"/>
<mask id="mask0_228_12312" style="mask-type:luminance" maskUnits="userSpaceOnUse" x="62" y="13" width="2" height="1">
<path d="M63.8911 13.6246L63.1259 13.1831C62.91 13.0555 62.6157 13.0751 62.2919 13.2615L63.0572 13.703C63.381 13.5166 63.6753 13.497 63.8911 13.6246Z" fill="white"/>
</mask>
<g mask="url(#mask0_228_12312)">
<path d="M63.8911 13.6243L63.1259 13.1828C62.9395 13.0749 62.6844 13.0749 62.3998 13.2123L63.1651 13.6538C63.4496 13.5262 63.6949 13.5164 63.8911 13.6341V13.6243Z" fill="#BFB0FE"/>
<path d="M63.1651 13.644L62.3999 13.2025C62.3999 13.2025 62.3312 13.2418 62.2919 13.2614L63.0572 13.7029C63.0572 13.7029 63.1259 13.6636 63.1651 13.644Z" fill="#BFB0FE"/>
</g>
<path d="M63.0572 13.7031L62.2919 13.2616L58.8875 15.2238L59.6429 15.6751L63.0572 13.7031Z" fill="#BFB0FE"/>
<path d="M58.7894 14.4096L58.0241 13.9681C57.4355 13.6247 56.6211 13.6737 55.7185 14.1937L56.4838 14.6352C57.3864 14.1152 58.2007 14.0662 58.7894 14.4096Z" fill="#BFB0FE"/>
<mask id="mask1_228_12312" style="mask-type:luminance" maskUnits="userSpaceOnUse" x="55" y="13" width="4" height="2">
<path d="M58.7894 14.4096L58.0241 13.9681C57.4355 13.6247 56.6211 13.6737 55.7185 14.1937L56.4838 14.6352C57.3864 14.1152 58.2007 14.0662 58.7894 14.4096Z" fill="white"/>
</mask>
<g mask="url(#mask1_228_12312)">
<path d="M58.7894 14.4095L58.0242 13.968C57.5042 13.6638 56.7978 13.6638 56.0129 14.0367L56.7781 14.4782C57.563 14.1053 58.2596 14.1053 58.7894 14.4095Z" fill="#BFB0FE"/>
<path d="M56.7879 14.4781L56.0226 14.0366C55.9245 14.0857 55.8264 14.1347 55.7185 14.1936L56.4838 14.6351C56.5819 14.5762 56.6898 14.5272 56.7879 14.4781Z" fill="#BFB0FE"/>
</g>
<path d="M56.4838 14.635L55.7185 14.1935L51.0287 16.9014L51.794 17.3429L56.4838 14.635Z" fill="#BFB0FE"/>
<path d="M51.794 17.343L51.0288 16.9015C49.4982 17.7845 48.2228 19.7467 47.8794 21.5814L48.6447 22.0229C48.9881 20.1882 50.2635 18.226 51.794 17.343Z" fill="#BFB0FE"/>
<mask id="mask2_228_12312" style="mask-type:luminance" maskUnits="userSpaceOnUse" x="47" y="16" width="5" height="7">
<path d="M51.794 17.343L51.0288 16.9015C49.4982 17.7845 48.2228 19.7467 47.8794 21.5814L48.6447 22.0229C48.9881 20.1882 50.2635 18.226 51.794 17.343Z" fill="white"/>
</mask>
<g mask="url(#mask2_228_12312)">
<path d="M51.7941 17.343L51.0288 16.9015C50.5187 17.1958 50.0379 17.6079 49.616 18.0985L50.3813 18.54C50.813 18.0494 51.2937 17.6373 51.7941 17.343Z" fill="#BFB0FE"/>
<path d="M50.3714 18.5403L49.6062 18.0988C49.096 18.6776 48.6643 19.3644 48.3503 20.0708L49.1156 20.5123C49.4296 19.7961 49.8613 19.1093 50.3714 18.5403Z" fill="#BFB0FE"/>
<path d="M49.1156 20.5121L48.3503 20.0706C48.1345 20.5709 47.9677 21.0811 47.8794 21.5815L48.6447 22.023C48.733 21.5226 48.8998 21.0124 49.1156 20.5121Z" fill="#BFB0FE"/>
</g>
<path d="M44.0628 26.0063L43.3074 25.5648L43.3172 30.9413L44.0825 31.3828L44.0628 26.0063Z" fill="#BFB0FE"/>
<path d="M48.6445 22.023L47.8792 21.5815L44.465 23.5536L45.2302 23.9951L48.6445 22.023Z" fill="#BFB0FE"/>
<path d="M51.794 17.3431C50.2635 18.2261 48.988 20.1884 48.6446 22.0231L45.2303 23.9951C44.5828 24.3679 44.0628 25.2705 44.0628 26.0064V31.3829L64.2346 19.7469V14.3703C64.2247 13.6247 63.6949 13.3304 63.0572 13.7032L59.6429 15.6752C59.2897 14.233 58.0143 13.7522 56.4739 14.6352L51.7842 17.3431H51.794Z" fill="#6634FA"/>
<path d="M45.2303 23.9948L44.4651 23.5533C43.8175 23.9262 43.2975 24.8288 43.2975 25.5646L44.0628 26.0061C44.0628 25.2605 44.5828 24.3677 45.2303 23.9948Z" fill="#BFB0FE"/>
<mask id="mask3_228_12312" style="mask-type:luminance" maskUnits="userSpaceOnUse" x="43" y="23" width="3" height="4">
<path d="M45.2303 23.9948L44.4651 23.5533C43.8175 23.9262 43.2975 24.8288 43.2975 25.5646L44.0628 26.0061C44.0628 25.2605 44.5828 24.3677 45.2303 23.9948Z" fill="white"/>
</mask>
<g mask="url(#mask3_228_12312)">
<path d="M45.2304 23.995L44.4651 23.5535C44.2787 23.6614 44.1119 23.8086 43.955 23.9852L44.7202 24.4267C44.8772 24.2501 45.044 24.1029 45.2304 23.995Z" fill="#BFB0FE"/>
<path d="M44.7201 24.4266L43.9549 23.9851C43.7684 24.1911 43.6213 24.4364 43.5035 24.6915L44.2688 25.133C44.3865 24.8779 44.5337 24.6326 44.7201 24.4266Z" fill="#BFB0FE"/>
<path d="M44.2689 25.1333L43.5036 24.6918C43.3957 24.9371 43.327 25.1921 43.3074 25.4276L44.0726 25.8691C44.0923 25.6238 44.1609 25.3786 44.2689 25.1333Z" fill="#BFB0FE"/>
<path d="M44.0726 25.869L43.3074 25.4275C43.3074 25.4275 43.3074 25.5158 43.3074 25.5648L44.0726 26.0063C44.0726 26.0063 44.0726 25.918 44.0726 25.869Z" fill="#BFB0FE"/>
</g>
<path d="M75.7136 31.0398L34.752 54.6945V50.9074L75.7136 27.2527V31.0398Z" fill="#BFB0FE"/>
<path d="M75.7136 38.0254L34.752 61.6801V57.8832L75.7136 34.2383V38.0254Z" fill="#BFB0FE"/>
<path d="M75.7136 45.0111L34.752 68.656V64.8689L75.7136 41.224V45.0111Z" fill="#BFB0FE"/>
<path d="M53.766 64.6626L34.752 75.6413V71.8542L53.766 60.8755V64.6626Z" fill="#BFB0FE"/>
<path d="M53.766 92.5756L34.752 103.554V99.7671L53.766 88.7885V92.5756Z" fill="#BFB0FE"/>
<path d="M75.7136 58.9821L34.752 82.627V78.8399L75.7136 55.1852V58.9821Z" fill="#BFB0FE"/>
<path d="M75.7136 65.9575L34.752 89.6122V85.8251L75.7136 62.1704V65.9575Z" fill="#BFB0FE"/>
<path d="M68.3945 77.1716L34.752 96.5976V92.8007L68.3945 73.3746V77.1716Z" fill="#BFB0FE"/>
<path d="M72.0933 83.824L72.7016 81.5674L71.3575 81.0376L71.0435 79.2225L69.3168 79.8603L68.1787 78.9576L66.5304 80.6059L64.8723 80.8708L63.744 83.0783L62.0173 84.4323L61.7033 86.6103L60.3592 88.6903L60.9577 90.2601L60.3592 92.5069L61.7033 93.0367L62.0173 94.8615L63.744 94.214L64.8723 95.1166L66.5304 93.4683L68.1787 93.2133L69.3168 91.0057L71.0435 89.642L71.3575 87.4737L72.7016 85.3839L72.0933 83.824Z" fill="#FDDA4C"/>
<path d="M71.7499 84.03C71.7499 80.704 69.4149 79.3501 66.5304 81.018C63.6459 82.6859 61.3109 86.7281 61.3109 90.0639C61.3109 93.3899 63.6459 94.7438 66.5304 93.0759C69.4149 91.408 71.7499 87.3658 71.7499 84.0398V84.03Z" fill="#FBC70E"/>
<path d="M47.8009 75.1016C47.3986 81.3513 46.9964 87.601 46.5941 93.8507L47.8598 94.6847C48.262 88.4349 48.6643 82.1852 49.0665 75.9355C49.1058 75.3076 49.3216 74.8367 49.6454 74.5325C49.302 74.0518 48.988 73.5612 48.7035 73.0216C48.1933 73.4533 47.8696 74.1597 47.8009 75.1114V75.1016Z" fill="#6634FA"/>
<path d="M49.8809 74.346L99.6627 45.4128C99.2016 45.6777 98.8975 46.2272 98.8484 46.9924C98.4462 53.2421 98.0439 59.4919 97.6416 65.7416L47.8598 94.6747C48.2621 88.425 48.6643 82.1753 49.0666 75.9255C49.1156 75.1505 49.4198 74.6109 49.8809 74.346Z" fill="#2E2E37"/>
<mask id="mask4_228_12312" style="mask-type:luminance" maskUnits="userSpaceOnUse" x="49" y="45" width="59" height="33">
<path d="M49.7827 74.5223L99.3977 45.6971C100.065 45.3047 100.987 45.3635 102.008 45.9522C103.764 46.9627 105.52 47.9831 107.276 48.9936L57.6611 77.8188C55.9049 76.8083 54.1487 75.7879 52.3925 74.7774C51.3819 74.1887 50.4499 74.1298 49.7827 74.5223Z" fill="white"/>
</mask>
<g mask="url(#mask4_228_12312)">
<path d="M49.7827 74.5219L99.3978 45.6967C99.9864 45.3533 100.781 45.3631 101.664 45.7752L52.0491 74.6004C51.1661 74.1883 50.3714 74.1785 49.7827 74.5219Z" fill="#2A0B88"/>
<path d="M52.049 74.6003L101.664 45.7751C101.772 45.8242 101.89 45.8831 102.007 45.9517C103.764 46.9623 105.52 47.9827 107.276 48.9932L57.661 77.8184C55.9048 76.8078 54.1486 75.7875 52.3924 74.7769C52.2747 74.7083 52.1667 74.6494 52.049 74.6003Z" fill="#2A0B88"/>
</g>
<mask id="mask5_228_12312" style="mask-type:luminance" maskUnits="userSpaceOnUse" x="57" y="48" width="56" height="76">
<path d="M112.329 94.8118L62.7139 123.637C63.1554 123.382 63.4203 122.803 63.381 121.989C62.7041 109.283 62.0075 96.568 61.3109 83.8527C61.1833 81.5667 59.5939 78.9275 57.6611 77.8188L107.276 48.9937C109.199 50.1023 110.798 52.7415 110.926 55.0275C111.623 67.7428 112.319 80.458 112.996 93.1635C113.035 93.9778 112.78 94.5567 112.329 94.8118Z" fill="white"/>
</mask>
<g mask="url(#mask5_228_12312)">
<path d="M57.6611 77.8188L107.276 48.9937C107.845 49.3272 108.395 49.7884 108.875 50.3378L59.2604 79.163C58.7796 78.6135 58.2302 78.1426 57.6611 77.8188Z" fill="#2A0B88"/>
<path d="M59.2604 79.1727L108.875 50.3475C109.444 50.9951 109.935 51.7701 110.298 52.5747L60.683 81.3999C60.3298 80.5953 59.8392 79.8203 59.2604 79.1727Z" fill="#BB9081"/>
<path d="M60.683 81.3999L110.298 52.5747C110.632 53.34 110.857 54.1347 110.916 54.8901L61.3011 83.7153C61.2422 82.9501 61.0264 82.1554 60.683 81.3999Z" fill="#2A0B88"/>
<path d="M61.3011 83.7252L110.916 54.9C110.916 54.9 110.916 54.9883 110.916 55.0374C111.613 67.7526 112.309 80.4679 112.986 93.1734C113.026 93.9877 112.77 94.5665 112.319 94.8216L62.7041 123.647C63.1456 123.392 63.4105 122.813 63.3712 121.999C62.6943 109.293 61.9977 96.5778 61.3011 83.8626C61.3011 83.8135 61.3011 83.7743 61.3011 83.7252Z" fill="#3F13C2"/>
</g>
<path d="M57.6611 77.8193C59.5841 78.928 61.1833 81.5672 61.3109 83.8532C62.0074 96.5685 62.704 109.284 63.381 121.989C63.4693 123.569 62.4097 124.236 61.1146 123.48C61.0361 123.431 60.9577 123.382 60.8694 123.324C58.8679 121.93 56.886 120.655 54.9042 119.517C52.9223 118.369 50.9405 117.349 48.939 116.436C48.8605 116.397 48.7722 116.358 48.6937 116.309C47.3986 115.563 46.3488 113.679 46.4371 112.198C47.1828 100.316 47.9481 88.4448 48.7231 76.5733C48.8605 74.4345 50.4597 73.6496 52.3925 74.7583C54.1487 75.7688 55.9049 76.7892 57.6611 77.7997V77.8193Z" fill="#2A0B88"/>
<path d="M112.437 72.8448L62.6452 101.601C62.3901 96.7939 62.1154 91.8294 61.8308 86.6295C61.5856 82.1066 58.3969 76.8478 54.5902 74.6403L104.372 45.7072C108.11 47.8656 111.24 52.9674 111.593 57.4217C111.593 57.51 111.603 57.5983 111.613 57.6866C111.897 62.9454 112.172 67.9785 112.437 72.835V72.8448Z" fill="#6634FA"/>
<mask id="mask6_228_12312" style="mask-type:luminance" maskUnits="userSpaceOnUse" x="48" y="43" width="54" height="31">
<path d="M48.9881 72.8056L98.7699 43.8725C99.5156 43.4408 100.546 43.4997 101.674 44.1472L51.8922 73.0804C50.7639 72.4328 49.7337 72.3641 48.9881 72.8056Z" fill="white"/>
</mask>
<g mask="url(#mask6_228_12312)">
<path d="M48.9881 72.8057L98.7699 43.8726C99.4273 43.4899 100.32 43.4899 101.301 43.9511L51.5194 72.8842C50.5383 72.4231 49.6553 72.4132 48.9881 72.8057Z" fill="#3F13C2"/>
<path d="M51.5095 72.8843L101.291 43.9512C101.419 44.01 101.537 44.0787 101.664 44.1474L51.8823 73.0805C51.7548 73.0118 51.6273 72.9432 51.5095 72.8843Z" fill="#6634FA"/>
</g>
<path d="M51.8823 73.0805L101.674 44.1473L104.362 45.7073L54.5804 74.6404L51.8823 73.0805Z" fill="#6634FA"/>
<path d="M54.5804 74.6403L104.362 45.7072C108.1 47.8656 111.23 52.9674 111.583 57.4217L61.8014 86.3548C61.4482 81.8907 58.3184 76.7889 54.5804 74.6403Z" fill="#6634FA"/>
<path d="M62.6353 101.591L61.3599 100.856C61.1048 96.0873 60.8301 91.1425 60.5455 85.9917C60.3395 82.2536 57.7101 77.9073 54.5705 76.0922L51.8725 74.542C50.9699 74.022 50.1555 74.0515 49.6355 74.5224C49.302 74.0417 48.9782 73.5413 48.6937 73.0115C49.4491 72.3738 50.597 72.3443 51.8725 73.0802L54.5705 74.6401C58.3871 76.8378 61.5659 82.1064 61.8112 86.6294C62.0957 91.8195 62.3704 96.7937 62.6255 101.601L62.6353 101.591Z" fill="#3F13C2"/>
<path d="M85.0833 50.8872L88.6349 52.9574C89.2923 53.34 89.8025 53.8894 90.1361 54.6253L86.5844 52.5551C86.2508 51.8291 85.7308 51.2698 85.0833 50.8872Z" fill="#2A0B88"/>
<mask id="mask7_228_12312" style="mask-type:luminance" maskUnits="userSpaceOnUse" x="85" y="50" width="6" height="5">
<path d="M85.0833 50.8872L88.6349 52.9574C89.2923 53.34 89.8025 53.8894 90.1361 54.6253L86.5844 52.5551C86.2508 51.8291 85.7308 51.2698 85.0833 50.8872Z" fill="white"/>
</mask>
<g mask="url(#mask7_228_12312)">
<path d="M90.1458 54.6157L86.5941 52.5456C86.2605 51.8196 85.7406 51.2603 85.093 50.8777L88.6447 52.9478C89.302 53.3305 89.8122 53.8799 90.1458 54.6157Z" fill="#2A0B88"/>
</g>
<mask id="mask8_228_12312" style="mask-type:luminance" maskUnits="userSpaceOnUse" x="76" y="49" width="14" height="5">
<path d="M85.5935 49.9257L89.1451 51.9959C87.1044 50.8087 83.8569 51.2208 80.2857 53.2909L76.734 51.2208C80.3151 49.1604 83.5528 48.7386 85.5935 49.9257Z" fill="white"/>
</mask>
<g mask="url(#mask8_228_12312)">
<path d="M80.2857 53.2814L76.734 51.2112C78.2645 50.3282 79.7362 49.7396 81.0804 49.4648L84.632 51.535C83.2879 51.8195 81.8162 52.3984 80.2857 53.2814Z" fill="#2A0B88"/>
<path d="M84.6321 51.5348L81.0804 49.4647C82.7876 49.1017 84.2887 49.2292 85.4366 49.8375L88.9882 51.9076C87.8403 51.3092 86.3392 51.1816 84.6321 51.5348Z" fill="#2A0B88"/>
<path d="M88.9882 51.8977L85.4365 49.8275C85.4954 49.8569 85.5444 49.8864 85.5935 49.9158L89.1451 51.986C89.0961 51.9565 89.0372 51.9271 88.9882 51.8977Z" fill="#2A0B88"/>
</g>
<mask id="mask9_228_12312" style="mask-type:luminance" maskUnits="userSpaceOnUse" x="66" y="51" width="15" height="16">
<path d="M69.7681 66.0457L66.2164 63.9756C67.6489 59.1485 71.8775 54.0173 76.734 51.2211L80.2856 53.2912C75.4291 56.0972 71.2005 61.2186 69.7681 66.0457Z" fill="white"/>
</mask>
<g mask="url(#mask9_228_12312)">
<path d="M69.7681 66.046L66.2165 63.9759C66.4127 63.3087 66.6678 62.6318 66.9719 61.9646L70.5236 64.0348C70.2194 64.7117 69.9742 65.3789 69.7681 66.046Z" fill="#2A0B88"/>
<path d="M70.5236 64.0247L66.972 61.9546C67.7471 60.218 68.8459 58.4814 70.1606 56.8822L73.7123 58.9524C72.3976 60.5516 71.2987 62.2882 70.5236 64.0247Z" fill="#2A0B88"/>
<path d="M73.7025 58.9526L70.1508 56.8824C72.0051 54.6258 74.2911 52.6244 76.7341 51.2115L80.2857 53.2817C77.8428 54.6945 75.5568 56.696 73.7025 58.9526Z" fill="#2A0B88"/>
</g>
<path d="M80.2856 53.2812C85.1422 50.4752 89.3806 50.7106 90.8424 53.8698L90.1458 54.6155C88.8213 51.7604 84.7791 51.5642 80.2954 54.1544C75.8117 56.7445 71.7794 61.601 70.4745 65.967L69.7681 66.0357C71.2005 61.2086 75.4291 56.0773 80.2856 53.2812Z" fill="#2A0B88"/>
<path d="M77.0382 89.9162L77.931 90.4362C77.7642 90.3381 77.5385 90.3577 77.2834 90.5048L76.3906 89.9849C76.6457 89.8377 76.8714 89.8279 77.0382 89.9162Z" fill="#BFB0FE"/>
<mask id="mask10_228_12312" style="mask-type:luminance" maskUnits="userSpaceOnUse" x="76" y="89" width="2" height="2">
<path d="M77.0382 89.9162L77.931 90.4362C77.7642 90.3381 77.5385 90.3577 77.2834 90.5048L76.3906 89.9849C76.6457 89.8377 76.8714 89.8279 77.0382 89.9162Z" fill="white"/>
</mask>
<g mask="url(#mask10_228_12312)">
<path d="M77.2833 90.4956L76.3905 89.9756C76.4886 89.9167 76.5769 89.8873 76.6652 89.8677L77.558 90.3877C77.4697 90.4073 77.3814 90.4465 77.2833 90.4956Z" fill="#BFB0FE"/>
<path d="M77.5581 90.3876L76.6653 89.8676C76.8026 89.8382 76.9204 89.8578 77.0185 89.9068L77.9113 90.4268C77.8132 90.3778 77.6955 90.3582 77.5581 90.3876Z" fill="#BFB0FE"/>
<path d="M77.9113 90.4168L77.0185 89.8969H77.0381L77.9309 90.4266H77.9113V90.4168Z" fill="#BFB0FE"/>
</g>
<path d="M72.1719 99.3155L71.2791 98.7955C70.6904 98.4521 70.3176 97.7163 70.3176 96.6763L71.2104 97.1963C71.2104 98.2362 71.5832 98.9721 72.1719 99.3155Z" fill="#BFB0FE"/>
<mask id="mask11_228_12312" style="mask-type:luminance" maskUnits="userSpaceOnUse" x="70" y="96" width="3" height="4">
<path d="M72.1719 99.3155L71.2791 98.7955C70.6904 98.4521 70.3176 97.7163 70.3176 96.6763L71.2104 97.1963C71.2104 98.2362 71.5832 98.9721 72.1719 99.3155Z" fill="white"/>
</mask>
<g mask="url(#mask11_228_12312)">
<path d="M72.1719 99.3155L71.2791 98.7955C70.6904 98.4521 70.3176 97.7163 70.3176 96.6763L71.2104 97.1963C71.2104 98.2362 71.5832 98.9721 72.1719 99.3155Z" fill="#BFB0FE"/>
</g>
<path d="M71.2104 97.1959L70.3176 96.6857V94.5272L71.2006 95.0472L71.2104 97.1959Z" fill="#BFB0FE"/>
<path d="M72.1032 93.4778L71.2202 92.9676L76.3906 89.9752L77.2835 90.4952L72.1032 93.4778Z" fill="#BFB0FE"/>
<path d="M71.2006 95.0475L70.3077 94.5275C70.3077 93.9487 70.71 93.2521 71.2104 92.9578L72.1032 93.4778C71.6028 93.7721 71.2006 94.4687 71.2006 95.0475Z" fill="#BFB0FE"/>
<mask id="mask12_228_12312" style="mask-type:luminance" maskUnits="userSpaceOnUse" x="70" y="92" width="3" height="4">
<path d="M71.2006 95.0475L70.3077 94.5275C70.3077 93.9487 70.71 93.2521 71.2104 92.9578L72.1032 93.4778C71.6028 93.7721 71.2006 94.4687 71.2006 95.0475Z" fill="white"/>
</mask>
<g mask="url(#mask12_228_12312)">
<path d="M71.2006 95.0475L70.3077 94.5275C70.3077 94.3018 70.3666 94.0664 70.4647 93.8407L71.3575 94.3607C71.2594 94.5863 71.2006 94.8316 71.2006 95.0475Z" fill="#BFB0FE"/>
<path d="M71.3576 94.3606L70.4648 93.8407C70.5433 93.6641 70.6512 93.4973 70.7689 93.3501L71.6617 93.8701C71.544 94.0173 71.4361 94.184 71.3576 94.3606Z" fill="#BFB0FE"/>
<path d="M71.6715 93.8604L70.7787 93.3404C70.9062 93.1834 71.0632 93.0461 71.2202 92.9578L72.113 93.4778C71.956 93.5661 71.7991 93.7034 71.6715 93.8604Z" fill="#BFB0FE"/>
</g>
<path d="M77.2835 90.495C77.7838 90.2007 78.1959 90.4361 78.1959 91.015V93.1636C78.2057 95.2534 76.734 97.8043 74.919 98.8541L74.5265 99.0798C72.7016 100.13 71.2202 99.2858 71.2202 97.196V95.0474C71.2202 94.4685 71.6126 93.7719 72.1228 93.4776L77.2933 90.495H77.2835Z" fill="#E6EFFF"/>
<path d="M103.891 74.6498L104.784 75.1698C104.617 75.0717 104.392 75.0913 104.137 75.2385L103.244 74.7185C103.499 74.5713 103.725 74.5615 103.891 74.6498Z" fill="#E6EFFF"/>
<mask id="mask13_228_12312" style="mask-type:luminance" maskUnits="userSpaceOnUse" x="103" y="74" width="2" height="2">
<path d="M103.891 74.6498L104.784 75.1698C104.617 75.0717 104.392 75.0913 104.137 75.2385L103.244 74.7185C103.499 74.5713 103.725 74.5615 103.891 74.6498Z" fill="white"/>
</mask>
<g mask="url(#mask13_228_12312)">
<path d="M104.136 75.2284L103.244 74.7084C103.342 74.6495 103.43 74.6201 103.518 74.6005L104.411 75.1205C104.323 75.1401 104.235 75.1793 104.136 75.2284Z" fill="#BFB0FE"/>
<path d="M104.411 75.1109L103.518 74.5909C103.656 74.5614 103.774 74.581 103.872 74.6301L104.764 75.1501C104.666 75.101 104.549 75.0814 104.411 75.1109Z" fill="#BFB0FE"/>
<path d="M104.764 75.1501L103.872 74.6301H103.891L104.784 75.1599H104.764V75.1501Z" fill="#BFB0FE"/>
</g>
<path d="M99.025 84.0491L98.1322 83.5291C97.5435 83.1857 97.1707 82.4499 97.1707 81.4099L98.0635 81.9299C98.0635 82.9699 98.4364 83.7057 99.025 84.0491Z" fill="#BFB0FE"/>
<mask id="mask14_228_12312" style="mask-type:luminance" maskUnits="userSpaceOnUse" x="97" y="81" width="3" height="4">
<path d="M99.025 84.0491L98.1322 83.5291C97.5435 83.1857 97.1707 82.4499 97.1707 81.4099L98.0635 81.9299C98.0635 82.9699 98.4364 83.7057 99.025 84.0491Z" fill="white"/>
</mask>
<g mask="url(#mask14_228_12312)">
<path d="M99.025 84.0491L98.1322 83.5291C97.5435 83.1857 97.1707 82.4499 97.1707 81.4099L98.0635 81.9299C98.0635 82.9699 98.4364 83.7057 99.025 84.0491Z" fill="#BFB0FE"/>
</g>
<path d="M98.0635 81.9295L97.1707 81.4193L97.1609 79.2609L98.0537 79.7809L98.0635 81.9295Z" fill="#BFB0FE"/>
<path d="M98.9564 78.2113L98.0734 77.6913L103.244 74.7087L104.137 75.2287L98.9564 78.2113Z" fill="#BFB0FE"/>
<path d="M98.0537 79.7813L97.1609 79.2613C97.1609 78.6825 97.5631 77.9859 98.0635 77.6915L98.9563 78.2115C98.456 78.5059 98.0537 79.2024 98.0537 79.7813Z" fill="#E6EFFF"/>
<mask id="mask15_228_12312" style="mask-type:luminance" maskUnits="userSpaceOnUse" x="97" y="77" width="2" height="3">
<path d="M98.0537 79.7813L97.1609 79.2613C97.1609 78.6825 97.5631 77.9859 98.0635 77.6915L98.9563 78.2115C98.456 78.5059 98.0537 79.2024 98.0537 79.7813Z" fill="white"/>
</mask>
<g mask="url(#mask15_228_12312)">
<path d="M98.0537 79.7812L97.1609 79.2612C97.1609 79.0356 97.2198 78.8001 97.3179 78.5745L98.2107 79.0945C98.1126 79.3201 98.0537 79.5654 98.0537 79.7812Z" fill="#BFB0FE"/>
<path d="M98.2107 79.0945L97.3179 78.5745C97.3964 78.3979 97.5043 78.2312 97.6221 78.084L98.5149 78.604C98.3972 78.7511 98.2892 78.9179 98.2107 79.0945Z" fill="#BFB0FE"/>
<path d="M98.5148 78.5943L97.622 78.0743C97.7496 77.9173 97.9065 77.78 98.0635 77.6917L98.9563 78.2116C98.7993 78.2999 98.6424 78.4373 98.5148 78.5943Z" fill="#BFB0FE"/>
</g>
<path d="M104.137 75.2286C104.637 74.9343 105.049 75.1698 105.049 75.7486V77.8973C105.059 79.9871 103.587 82.538 101.772 83.5878L101.38 83.8134C99.5549 84.8632 98.0734 84.0194 98.0734 81.9297V79.781C98.0734 79.2022 98.4659 78.5056 98.9761 78.2112L104.147 75.2286H104.137Z" fill="#E6EFFF"/>
<path d="M40.3879 50.735C39.9338 54.6805 38.4822 59.0609 36.0458 63.3006C33.6095 67.5403 30.5528 70.9871 27.3874 73.3467L23.0517 80.8861L18.4987 78.2579C12.5004 74.7536 12.5004 63.4477 18.4987 53.0115C24.497 42.5753 34.2233 36.9607 40.228 40.465L44.7811 43.0933L40.3879 50.7286V50.735Z" fill="#00A658"/>
<path d="M23.0517 55.6397C17.0535 66.0759 17.0535 77.3754 23.0517 80.8861C29.05 84.3904 38.7764 78.7758 44.781 68.3396C50.7793 57.9034 50.7793 46.6039 44.781 43.0932C38.7828 39.5889 29.0564 45.2034 23.0517 55.6397Z" fill="#00D158"/>
<path d="M29.9133 72.6051L31.4417 73.494C31.3713 73.4556 31.3074 73.4108 31.2434 73.3597L29.7151 72.4708C29.779 72.522 29.843 72.5667 29.9133 72.6051Z" fill="#C6C0D0"/>
<path d="M44.7874 52.2379L43.2591 51.349C42.7347 51.042 42.0441 51.138 41.3535 51.5344C40.714 51.9053 40.0745 52.532 39.5629 53.3569L41.0913 54.2458C41.6028 53.4209 42.2423 52.7942 42.8818 52.4233C43.5724 52.0204 44.2695 51.9309 44.7874 52.2379Z" fill="#D3E1FC"/>
<path d="M41.0913 54.2457L39.563 53.3568L32.3753 64.9697L33.9036 65.8585L41.0913 54.2457Z" fill="#D3E1FC"/>
<path d="M26.895 69.8106L25.3667 68.9218L29.7151 72.4644L31.2435 73.3533L26.895 69.8106Z" fill="#D3E1FC"/>
<path d="M30.8597 63.3901L29.3314 62.5012C28.807 62.2007 28.1164 62.2902 27.4194 62.6931L28.9477 63.5819C29.6447 63.1791 30.3418 63.0895 30.8597 63.3901Z" fill="#D3E1FC"/>
<path d="M28.9477 63.5821L27.4194 62.6932C26.8183 63.0386 26.2172 63.6141 25.7184 64.3751C24.5737 66.1208 24.4202 68.1543 25.3667 68.9217L26.895 69.8106C25.9486 69.0432 26.1021 67.0097 27.2467 65.2639C27.7455 64.5029 28.3466 63.9274 28.9477 63.5821Z" fill="#D3E1FC"/>
<path d="M28.9478 63.5821C28.3466 63.9274 27.7455 64.5029 27.2468 65.2639C26.1021 67.0096 25.9486 69.0431 26.895 69.8105L31.2435 73.3532C31.8765 73.8648 32.7782 73.7944 33.6862 73.2701C34.4344 72.8352 35.189 72.0998 35.7901 71.1214L44.6852 56.7589C45.7851 54.9875 45.8682 52.986 44.877 52.2953C44.3463 51.9244 43.6109 52.0012 42.8755 52.4232C42.236 52.7941 41.5965 53.4208 41.085 54.2457L33.8973 65.8522L31.0133 63.4989C30.4761 63.0705 29.7087 63.128 28.935 63.5757L28.9478 63.5821Z" fill="white"/>
</svg>
