<svg width="128" height="128" viewBox="0 0 128 128" fill="none" xmlns="http://www.w3.org/2000/svg">
<mask id="mask0_229_22205" style="mask-type:luminance" maskUnits="userSpaceOnUse" x="27" y="33" width="28" height="15">
<path d="M46.56 47.8591L54.1952 43.8157L35.4771 33.0046L27.8422 37.0478L46.56 47.8591Z" fill="white"/>
</mask>
<g mask="url(#mask0_229_22205)">
<path d="M46.56 47.8591L54.1952 43.8157L35.4771 33.0046L27.8422 37.0478L46.56 47.8591Z" fill="#2A0B88"/>
</g>
<mask id="mask1_229_22205" style="mask-type:luminance" maskUnits="userSpaceOnUse" x="4" y="45" width="43" height="29">
<path d="M46.3502 65.2045L39.285 69.2509V73.1746L13.5769 58.325L4 48.876L11.3974 45.0157L46.3502 65.2045Z" fill="white"/>
</mask>
<g mask="url(#mask1_229_22205)">
<path d="M46.3502 65.2045L39.285 69.2509V73.1746L13.5769 58.325L4 48.876L11.3974 45.0157L46.3502 65.2045Z" fill="#F1522D"/>
</g>
<mask id="mask2_229_22205" style="mask-type:luminance" maskUnits="userSpaceOnUse" x="39" y="65" width="8" height="17">
<path d="M39.285 69.2561V81.3088L46.3502 77.1446V65.2052L39.285 69.2561Z" fill="white"/>
</mask>
<g mask="url(#mask2_229_22205)">
<path d="M39.285 69.2561V81.3088L46.3502 77.1446V65.2052L39.285 69.2561Z" fill="#FF6845"/>
</g>
<mask id="mask3_229_22205" style="mask-type:luminance" maskUnits="userSpaceOnUse" x="39" y="7" width="63" height="85">
<path d="M86.5634 88.9056C85.5119 89.46 84.4331 89.9121 83.3383 90.262C78.0697 91.9637 72.3715 91.3841 66.8713 88.9145V89.1078L45.5483 76.7916V73.0019L45.6598 72.9383L52.6728 68.8556L66.8713 77.0574V77.0597L66.8985 77.0756V77.0188C70.7636 79.1976 74.8085 80.0291 78.5782 79.2225C79.7684 78.9704 80.9312 78.5523 82.0506 77.9639C92.032 72.7111 94.8933 55.7623 88.439 40.1085C81.9804 24.4548 68.6515 16.0213 58.6681 21.274C57.31 21.9874 56.0859 22.9189 54.996 24.0322C51.1921 27.924 49.0639 34.0561 48.8459 41.0378L42.7688 37.5299L39.8914 35.8668C40.759 26.2837 44.3313 18.0047 50.2405 12.9882C51.4485 11.959 52.7543 11.0684 54.1555 10.3323C68.5402 2.76439 87.4581 14.2196 96.4083 35.9168C105.354 57.614 100.948 81.34 86.5634 88.9056Z" fill="white"/>
</mask>
<g mask="url(#mask3_229_22205)">
<path d="M86.5634 88.9056C85.5119 89.46 84.4331 89.9121 83.3383 90.262C78.0697 91.9637 72.3715 91.3841 66.8713 88.9145V89.1078L45.5483 76.7916V73.0019L45.6598 72.9383L52.6728 68.8556L66.8713 77.0574V77.0597L66.8985 77.0756V77.0188C70.7636 79.1976 74.8085 80.0291 78.5782 79.2225C79.7684 78.9704 80.9312 78.5523 82.0506 77.9639C92.032 72.7111 94.8933 55.7623 88.439 40.1085C81.9804 24.4548 68.6515 16.0213 58.6681 21.274C57.31 21.9874 56.0859 22.9189 54.996 24.0322C51.1921 27.924 49.0639 34.0561 48.8459 41.0378L42.7688 37.5299L39.8914 35.8668C40.759 26.2837 44.3313 18.0047 50.2405 12.9882C51.4485 11.959 52.7543 11.0684 54.1555 10.3323C68.5402 2.76439 87.4581 14.2196 96.4083 35.9168C105.354 57.614 100.948 81.34 86.5634 88.9056Z" fill="#3B1BC0"/>
</g>
<mask id="mask4_229_22205" style="mask-type:luminance" maskUnits="userSpaceOnUse" x="35" y="33" width="20" height="26">
<path d="M44.8363 54.6267L54.1952 43.8154L35.4772 33.0043L37.2011 58.6699L44.8363 54.6267Z" fill="white"/>
</mask>
<g mask="url(#mask4_229_22205)">
<path d="M44.8363 54.6267L54.1952 43.8154L35.4772 33.0043L37.2011 58.6699L44.8363 54.6267Z" fill="#2A0B88"/>
</g>
<mask id="mask5_229_22205" style="mask-type:luminance" maskUnits="userSpaceOnUse" x="36" y="36" width="13" height="10">
<path d="M41.7027 45.0535L48.8567 40.7324L42.2784 36.8094L36.7714 42.2053L41.7027 45.0535Z" fill="white"/>
</mask>
<g mask="url(#mask5_229_22205)">
<path d="M41.7027 45.0535L48.8567 40.7324L42.2784 36.8094L36.7714 42.2053L41.7027 45.0535Z" fill="#3B1BC0"/>
</g>
<mask id="mask6_229_22205" style="mask-type:luminance" maskUnits="userSpaceOnUse" x="4" y="48" width="36" height="34">
<path d="M4 48.8767L39.285 69.2561V81.3088L4 60.9271V48.8767Z" fill="white"/>
</mask>
<g mask="url(#mask6_229_22205)">
<path d="M4 48.8767L39.285 69.2561V81.3088L4 60.9271V48.8767Z" fill="#C63B1B"/>
</g>
<mask id="mask7_229_22205" style="mask-type:luminance" maskUnits="userSpaceOnUse" x="32" y="12" width="62" height="84">
<path d="M83.3383 90.262C82.1303 91.2935 80.822 92.1841 79.4208 92.9202C72.5532 96.5326 64.6525 95.8124 57.2964 91.7093V91.7115L56.8513 91.4548C56.7538 91.3957 56.6537 91.3412 56.554 91.2821L45.5483 84.9252V73.002L45.6598 72.9384L57.2964 79.6588V79.6702L59.7559 81.0924V81.0334C64.8432 83.9006 70.2413 84.4365 74.9082 81.9808C76.2665 81.2674 77.4904 80.3359 78.5782 79.2226C85.498 72.1432 86.8745 57.6481 81.2966 44.1231C75.5623 30.2233 64.4095 22.0193 54.9961 24.0322C53.8083 24.2844 52.6478 24.7025 51.528 25.2909C47.2291 27.5492 44.2516 31.975 42.7688 37.5299C42.1216 39.9518 41.758 42.5918 41.6946 45.3591L32.7216 40.1768C33.7097 28.5057 38.6921 18.7249 47.0134 14.3469C48.0671 13.7925 49.1434 13.3404 50.2405 12.9883C64.114 8.51023 80.9719 19.8223 89.2659 39.9314C97.3394 59.5157 94.537 80.7516 83.3383 90.262Z" fill="white"/>
</mask>
<g mask="url(#mask7_229_22205)">
<path d="M83.3383 90.262C82.1303 91.2935 80.822 92.1841 79.4208 92.9202C72.5532 96.5326 64.6525 95.8124 57.2964 91.7093V91.7115L56.8513 91.4548C56.7538 91.3957 56.6537 91.3412 56.554 91.2821L45.5483 84.9252V73.002L45.6598 72.9384L57.2964 79.6588V79.6702L59.7559 81.0924V81.0334C64.8432 83.9006 70.2413 84.4365 74.9082 81.9808C76.2665 81.2674 77.4904 80.3359 78.5782 79.2226C85.498 72.1432 86.8745 57.6481 81.2966 44.1231C75.5623 30.2233 64.4095 22.0193 54.9961 24.0322C53.8083 24.2844 52.6478 24.7025 51.528 25.2909C47.2291 27.5492 44.2516 31.975 42.7688 37.5299C42.1216 39.9518 41.758 42.5918 41.6946 45.3591L32.7216 40.1768C33.7097 28.5057 38.6921 18.7249 47.0134 14.3469C48.0671 13.7925 49.1434 13.3404 50.2405 12.9883C64.114 8.51023 80.9719 19.8223 89.2659 39.9314C97.3394 59.5157 94.537 80.7516 83.3383 90.262Z" fill="#6634FA"/>
</g>
<mask id="mask8_229_22205" style="mask-type:luminance" maskUnits="userSpaceOnUse" x="27" y="37" width="20" height="22">
<path d="M37.2011 58.6699L46.56 47.8588L27.8422 37.0475L37.2011 58.6699Z" fill="white"/>
</mask>
<g mask="url(#mask8_229_22205)">
<path d="M37.2011 58.6699L46.56 47.8588L27.8422 37.0475L37.2011 58.6699Z" fill="#6634FA"/>
</g>
<mask id="mask9_229_22205" style="mask-type:luminance" maskUnits="userSpaceOnUse" x="82" y="90" width="30" height="25">
<path d="M111.64 114.619L90.3794 102.375L82.7444 94.3404L90.3794 90.3236L111.64 102.567V114.619Z" fill="white"/>
</mask>
<g mask="url(#mask9_229_22205)">
<path d="M111.64 114.619L90.3794 102.375L82.7444 94.3404L90.3794 90.3236L111.64 102.567V114.619Z" fill="#08EC9C"/>
</g>
<mask id="mask10_229_22205" style="mask-type:luminance" maskUnits="userSpaceOnUse" x="111" y="98" width="14" height="21">
<path d="M124.96 116.702L111.64 98.5922V118.557L124.96 116.702Z" fill="white"/>
</mask>
<g mask="url(#mask10_229_22205)">
<path d="M124.96 116.702L111.64 98.5922V118.557L124.96 116.702Z" fill="url(#paint0_linear_229_22205)"/>
</g>
<path fill-rule="evenodd" clip-rule="evenodd" d="M117.325 120.569L104.005 102.46V106.583L82.7444 94.3402V106.392L104.005 118.635V122.425L117.325 120.569Z" fill="#05B779"/>
<mask id="mask11_229_22205" style="mask-type:luminance" maskUnits="userSpaceOnUse" x="104" y="98" width="21" height="23">
<path d="M104.005 102.46L111.64 98.5925L124.96 116.702L117.325 120.57L104.005 102.46Z" fill="white"/>
</mask>
<g mask="url(#mask11_229_22205)">
<path d="M104.005 102.46L111.64 98.5925L124.96 116.702L117.325 120.57L104.005 102.46Z" fill="#08EC9C"/>
</g>
<path d="M54.2955 46.3376C54.2955 42.157 55.6068 39.1419 57.7105 37.6835L57.711 37.683C57.9746 37.5003 58.2513 37.3426 58.5389 37.2093L61.4864 35.5232C63.4204 34.3913 65.9489 34.4886 68.7166 36.0865C74.7953 39.5959 79.7228 49.0109 79.7228 57.1155C79.7228 61.4668 78.3018 64.5548 76.0456 65.9393C75.9281 66.0112 72.6532 67.8566 72.6532 67.8566C70.7043 69.0647 68.1279 68.9976 65.3027 67.3661C64.1961 66.7275 63.1284 65.8919 62.1207 64.9052L57.419 58.3779C55.486 54.6196 54.2955 50.3206 54.2955 46.3376Z" fill="#08EC9C"/>
<path d="M76.3071 59.0462C76.3071 67.1508 71.3796 70.876 65.301 67.3666C59.2223 63.8572 54.2948 54.4422 54.2948 46.3376C54.2948 38.2329 59.2223 34.5078 65.301 38.0172C71.3796 41.5266 76.3071 50.942 76.3071 59.0462Z" fill="#05B779"/>
<path d="M58.5607 49.3268C59.3657 48.7582 60.6702 49.4716 61.4752 51.0095L63.1191 54.075L68.7523 49.7913L70.7856 48.6091L70.7861 48.6134C71.5958 48.1306 72.8294 48.8804 73.6027 50.358C74.4076 51.896 74.4076 53.6358 73.6027 54.2442L64.7218 61.0228C64.6466 61.0799 64.566 61.1206 64.4831 61.1542L64.485 61.1575L62.4426 62.3475L56.6608 50.4299C56.6598 50.4295 58.5545 49.3311 58.5607 49.3268Z" fill="#6634FA"/>
<path d="M61.106 62.2315C61.6334 62.536 62.1607 62.5724 62.5635 62.268L71.4443 55.4894C72.2493 54.881 72.2493 53.1412 71.4443 51.6032C70.6394 50.0652 69.3344 49.312 68.5299 49.9204L61.1065 55.5973L59.3178 52.2552C58.5128 50.7172 57.2078 49.964 56.4033 50.5724C55.5984 51.1808 55.5984 52.9206 56.4033 54.4586L59.6495 60.5852C60.0508 61.3542 60.5782 61.9271 61.106 62.2315Z" fill="#E4E4FF"/>
<path d="M66.9818 89.746C66.946 89.7786 66.9102 89.8095 66.8744 89.8404C64.9341 91.53 62.4192 92.4465 59.8799 92.855C57.3406 93.2636 54.7508 93.1969 52.1789 93.1285C52.4117 94.797 52.7861 96.6884 54.2348 97.5479C55.913 98.5441 58.1756 97.6195 59.958 98.4155C62.0008 99.3287 62.4746 101.948 63.6563 103.849C64.6834 105.501 66.3616 106.689 68.1945 107.342C69.6334 107.855 71.2709 108.047 72.6627 107.42C73.7533 106.93 74.5721 105.999 75.5292 105.281C76.8754 104.272 78.5292 103.683 80.2091 103.61C81.1808 103.569 82.208 103.685 83.0788 103.252C84.0327 102.778 84.5861 101.721 84.7326 100.667C85.234 97.0465 82.7939 93.6087 82.4912 90.0423C82.0826 85.229 84.6984 80.668 85.1135 75.8547C85.1705 75.1987 85.1444 74.5313 85.0289 73.8834C84.9377 73.3772 84.8205 72.5356 84.3338 72.285C83.5232 71.8699 82.7353 71.712 81.8466 71.8455C79.9925 72.1238 78.2068 72.8286 76.6556 73.8802C75.871 74.4125 75.1955 75.0375 74.5265 75.7049C74.2009 76.0288 73.9845 76.2307 73.7745 76.662C73.5369 77.1536 73.3317 77.6599 73.1136 78.1596C71.7837 81.2165 70.8885 84.5127 69.0393 87.3206C68.4533 88.2094 67.7729 89.0363 66.9818 89.746Z" fill="#F1522D"/>
<path d="M77.4776 74.1895C77.476 73.7973 77.4484 73.405 77.437 73.0127C77.4109 72.1988 77.4174 71.3768 77.559 70.5726C77.7283 69.6106 78.0913 68.6844 78.6203 67.864C78.7001 67.7403 78.7847 67.6183 78.8938 67.5173C79.1672 67.5564 79.5123 67.4669 79.7581 67.5971C80.1211 67.7908 80.3799 68.4256 80.5378 68.7821C80.9643 69.7441 81.0961 70.8412 80.8813 71.8749C80.7983 72.2737 80.6192 72.5781 80.4841 72.9476C80.3197 73.3968 80.1683 73.8412 79.9047 74.2449C79.5807 74.743 79.094 75.1662 78.5097 75.2785C78.2167 75.3355 77.8797 75.298 77.6762 75.0783C77.4548 74.839 77.4776 74.5102 77.476 74.2091C77.4776 74.2026 77.4776 74.1961 77.4776 74.1895Z" fill="#7C1A13"/>
<path d="M91.898 58.8314C92.0136 58.6084 92.2269 58.4489 92.4515 58.3366C93.0326 58.0468 93.7765 58.0419 94.3006 58.4245C94.5659 58.6182 94.6277 58.8509 94.7693 59.1195C94.8963 59.3588 95.0363 59.5997 94.9794 59.8748C94.9191 60.1613 94.7531 60.4022 94.5594 60.6154C94.3625 60.8335 94.1443 61.0354 94.0011 61.291C93.8855 61.4977 93.8237 61.7337 93.682 61.9225C93.4672 62.2074 93.0098 62.209 92.681 62.1944C92.458 62.1846 92.2285 62.1325 92.0576 61.9893C91.7776 61.7565 91.727 61.3463 91.7515 60.9833C91.7775 60.6138 91.7808 60.2524 91.7922 59.8846C91.8052 59.5346 91.7287 59.1618 91.898 58.8314Z" fill="#F3A984"/>
<path d="M92.6777 57.9377C92.4986 58.1103 92.4139 58.4033 92.5441 58.6149C92.6239 58.7435 92.7168 58.7972 92.8454 58.8623C93.0358 58.96 93.1969 59.0869 93.3467 59.2416C93.5355 59.4353 93.7031 59.6501 93.9164 59.8178C94.128 59.9855 94.3982 60.1027 94.6652 60.0603C95.5084 59.9285 95.173 58.7451 94.8052 58.3251C94.4959 57.9736 94.0727 57.7457 93.6511 57.5454C93.3825 57.4201 92.8828 57.7392 92.6777 57.9377Z" fill="#FFC7AD"/>
<path d="M91.693 59.1408C91.7776 58.6264 92.2105 58.143 92.7331 58.1495C92.7672 58.3757 92.5247 58.5467 92.4628 58.7664C92.3993 58.9878 92.5263 59.2157 92.6663 59.398C92.8063 59.5803 92.9707 59.7626 93.0016 59.9889C93.0651 60.4577 92.4792 60.7979 92.0869 60.5569C91.706 60.3258 91.6295 59.5266 91.693 59.1408Z" fill="#FFC7AD"/>
<path d="M87.4153 68.2773C86.7593 69.0212 86.0706 69.7342 85.3495 70.4162C84.3029 71.4091 82.7143 72.2523 83.5705 73.8882C83.9644 74.6403 84.3582 75.3923 84.7522 76.1443C84.9035 76.4324 85.1363 76.7661 85.4586 76.7238C85.6637 76.6961 85.8135 76.5203 85.9405 76.3559C88.8168 72.6576 91.6132 68.8242 93.3891 64.4862C93.6886 63.7538 94.2177 62.4174 93.8465 61.6279C93.7147 61.3495 93.4688 61.1379 93.197 60.9898C92.7624 60.7522 92.0917 60.6057 91.675 60.941C91.2844 61.2535 91.0289 61.8281 90.8205 62.2676C90.3973 63.158 89.9741 64.0484 89.5525 64.9388C89.17 65.7429 88.846 66.5616 88.2812 67.2567C87.998 67.605 87.7099 67.9436 87.4153 68.2773Z" fill="#FFED0E"/>
<path d="M85.1004 74.1829C85.2778 73.7532 85.4179 73.2339 85.4065 72.7163C85.4032 72.5747 85.3755 72.4722 85.2518 72.3924C85.1021 72.2964 84.6447 72.1303 84.4917 72.2491C84.3403 72.368 84.0945 72.4656 84.1661 72.6105C84.2752 72.8303 85.1557 74.0478 85.1004 74.1829Z" fill="#F1522D"/>
<path d="M77.183 117.372C77.3018 117.53 77.3962 117.706 77.4646 117.892C77.6355 118.357 77.5671 118.8 77.6094 119.274C77.6469 119.69 77.7885 120.138 78.0148 120.493C78.591 121.395 79.208 122.249 79.6328 123.245C79.8233 123.691 79.9649 124.25 79.6637 124.629C79.4033 124.958 78.9279 125 78.508 125C77.6778 125 76.7597 124.896 76.1982 124.282C75.7505 123.792 75.6366 123.087 75.2866 122.524C75.0034 122.068 74.5574 121.679 74.4826 121.147C74.4044 120.586 74.7479 120.188 74.9953 119.734C75.233 119.298 75.2361 118.777 75.2785 118.294C75.3013 118.033 75.316 117.771 75.3306 117.509C75.3388 117.35 75.2899 117.006 75.3876 116.879C75.6154 116.581 76.3561 116.755 76.6165 116.889C76.8428 117.004 77.0316 117.172 77.183 117.372Z" fill="#2A0B88"/>
<path d="M88.0614 115.769C88.6637 116.221 89.3571 116.531 90.0554 116.816C90.853 117.141 91.3544 117.592 91.452 118.495C91.5139 119.07 91.2795 119.589 90.7586 119.853C90.3109 120.081 89.8308 119.947 89.3636 119.812C88.7157 119.625 88.1054 119.316 87.5731 118.902C87.298 118.689 87.0441 118.45 86.8178 118.186C86.5264 117.846 86.3816 117.848 85.9323 117.778C84.6008 117.568 84.0505 116.501 84.3159 115.233C84.42 114.732 84.6122 114.112 84.8726 113.669C85.1119 113.264 85.571 113.337 85.9909 113.488C86.5362 113.684 86.7413 114.224 87.0392 114.672C87.3175 115.095 87.6561 115.465 88.0614 115.769Z" fill="#2A0B88"/>
<path d="M86.1959 115.346C85.6816 115.509 85.0223 115.439 84.7521 115.085C84.5144 114.773 84.4802 114.356 84.4249 113.967C84.2475 112.737 83.7542 111.574 83.5019 110.357C83.3392 109.571 83.2774 107.809 83.2578 107.008C83.2383 106.291 83.3408 105.555 83.2806 104.85C83.139 103.19 82.999 100.899 82.8573 99.2392C82.8232 98.842 82.7906 98.4383 82.8639 98.046C82.9127 97.7905 83.0201 97.4323 83.2301 97.2582C83.5133 97.0222 83.5883 97.1442 83.8682 97.3607C84.3126 97.7058 84.7244 98.09 85.0988 98.5116C85.8297 99.332 86.4141 100.284 86.8096 101.31C87.1873 102.291 87.3907 103.338 87.4152 104.388C87.438 105.392 87.1969 106.348 87.1351 107.341C86.9935 109.602 86.9414 111.869 86.9382 114.135C86.9382 114.413 86.9333 114.708 86.7852 114.944C86.668 115.129 86.4499 115.266 86.1959 115.346Z" fill="#3B1BC0"/>
<path d="M80.6208 104.438C80.9692 104.554 81.1888 104.681 81.0309 105.156C80.8763 105.623 80.5931 106.037 80.3864 106.481C79.0418 109.372 78.1499 112.559 77.9204 115.735C77.9008 116.013 77.8585 116.278 77.852 116.557C77.8439 116.895 77.8292 117.234 77.8113 117.571C77.7771 118.209 77.7234 118.845 77.655 119.482C77.6078 119.92 76.8688 120.092 76.5025 120.092C76.0647 120.125 75.5861 120.079 75.2541 119.791C75.0929 119.651 75.0538 119.44 74.9903 119.241C74.9171 119.012 74.8536 118.779 74.7983 118.543C74.4011 116.848 74.4466 115.058 74.388 113.327C74.3652 112.644 74.5264 111.931 74.6453 111.254C74.7706 110.532 74.9334 109.816 75.132 109.111C75.5357 107.674 75.9198 106.221 76.5058 104.843C76.6263 104.559 76.7533 104.109 76.9665 103.883C77.2139 103.619 77.5785 103.741 77.9431 103.784C78.731 103.878 79.509 104.059 80.2594 104.321C80.3863 104.367 80.5101 104.402 80.6208 104.438Z" fill="#6634FA"/>
<path d="M87.9865 94.3281C88.1541 96.1561 88.1721 97.9922 87.9263 99.8039C87.8725 100.196 87.5926 105.395 87.0848 105.955C86.6778 106.406 85.9404 105.163 85.3382 105.089C84.5275 104.99 83.8129 104.549 83.5508 103.776C83.3181 103.089 83.2578 102.358 83.1439 101.647C82.7418 99.1707 82.3691 96.6819 81.9328 94.2158C81.8465 93.7275 81.7831 93.2327 81.7717 92.7362C81.7538 91.9239 81.8042 91.0954 82.0353 90.3124C82.2111 89.7183 82.3821 88.9272 82.9925 88.6293C83.2855 88.4861 83.6257 88.504 83.9512 88.5235C84.8546 88.5789 87.1189 87.9278 87.1417 88.0385C87.4738 89.7427 87.8253 92.5783 87.9865 94.3281Z" fill="#3B1BC0"/>
<path d="M78.5991 88.7936C80.3311 89.251 82.0972 88.6992 83.8877 88.6438C84.1726 88.6357 84.4965 88.6357 84.6886 88.844C84.8465 89.0166 84.8595 89.2721 84.8644 89.5065C84.8872 90.6362 84.9018 91.8017 84.4802 92.85C84.1482 93.6769 83.5638 94.3768 83.1585 95.1712C82.5025 96.4603 82.0581 100.813 81.897 101.536C81.7765 102.078 81.3598 104.432 81.0066 105.219C80.699 105.905 79.9437 106.915 79.2779 107.261C78.6122 107.606 77.699 107.554 77.2057 106.989C76.5791 106.269 76.4016 97.8081 76.4521 96.5352C76.5058 95.1581 76.6605 93.8869 77.2513 92.2265C77.6811 91.0269 78.4185 89.3975 78.5991 88.7936Z" fill="#6634FA"/>
<path d="M77.6697 74.0007C78.5585 73.597 80.1862 72.801 81.062 72.2004C81.1906 72.1125 81.7798 72.4999 81.9312 72.4673C83.0658 72.2264 84.2751 72.2801 85.3283 72.7441C85.3397 72.7489 85.3511 72.7555 85.3625 72.7603V79.7288H78.6838L77.6697 74.0007Z" fill="#F3A984"/>
<path d="M80.1863 73.4683C80.1863 73.4683 84.3436 75.5584 84.1434 73.2502C83.8651 70.0337 83.6599 69.674 82.2177 69.2605C81.8221 69.1466 81.6675 68.8129 81.259 68.8292C79.7663 68.8894 80.393 69.6675 80.4825 70.2323C80.7495 71.9073 80.1602 72.5828 80.1863 73.4683Z" fill="#F3A984"/>
<path d="M83.94 72.223C83.9595 72.223 83.9774 72.2246 83.9969 72.2246C83.8309 72.1758 83.7365 72.2181 83.94 72.223Z" fill="#F4F5FA"/>
<path d="M75.5308 76.3998C75.5227 76.5284 75.5211 76.6603 75.5276 76.8003C75.5438 77.186 75.6448 77.5588 75.7294 77.9316C75.8304 78.3743 76.042 78.7731 76.2797 79.1556C76.532 79.5593 76.7371 79.9728 76.9877 80.3781C77.2417 80.7899 77.3718 81.2066 77.572 81.6429C78.0196 82.6195 78.4185 83.6304 78.5975 84.6933C78.7408 85.5495 78.7408 86.4138 78.6936 87.2749C78.6675 87.6835 78.4625 88.6309 78.4837 89.0345C78.4885 89.1469 80.2692 90.4263 83.4678 90.4914C86.1308 90.5451 87.1645 89.4675 87.3077 89.3617C87.5144 89.2022 87.4249 89.2494 87.2491 87.747C86.5264 81.5761 89.2512 81.4638 88.1899 78.2359C88.0093 77.6841 87.6382 77.1633 87.4086 76.6114C86.5638 74.5881 87.0961 72.3369 83.9984 72.2246C84.1889 72.2832 85.9827 75.3027 83.8243 76.1882C82.4342 76.7596 79.6784 75.2376 79.037 73.3461C78.1206 73.7759 77.2888 74.0477 76.5238 74.6109C75.871 75.0911 75.5781 75.6608 75.5308 76.3998Z" fill="#FFED0E"/>
<path d="M84.4835 72.0372C84.8254 72.4963 85.0044 73.0546 85.1672 73.6031C85.33 74.1517 85.4879 74.7133 85.7972 75.1935C86.0364 74.2136 86.0087 73.1913 85.9778 72.1837C85.9664 71.78 85.9469 71.3536 85.7337 71.0101C85.5742 70.7529 85.3088 70.5625 85.0142 70.4941C84.6724 70.4143 84.3077 70.4957 83.992 70.6504C83.7885 70.7497 83.585 70.8783 83.4124 71.0248C83.2073 71.1989 83.2562 71.251 83.4841 71.3161C83.8861 71.4284 84.2361 71.7052 84.4835 72.0372Z" fill="#E43727"/>
<path d="M81.7293 71.4726C81.6154 71.3977 81.5031 71.318 81.3973 71.2284C81.3484 71.1877 81.2996 71.1438 81.2524 71.0998C80.8422 70.7124 80.5916 70.185 80.2774 69.7227C79.9616 69.2572 79.7874 68.6452 79.7076 68.095C79.5432 66.9718 79.8313 65.7982 80.6273 64.9664C81.5193 64.0337 82.9388 63.6447 84.1824 63.9914C84.5193 64.0858 84.84 64.229 85.1509 64.3869C85.4194 64.5237 85.6864 64.6767 85.8915 64.8981C86.0266 65.0429 86.1308 65.2138 86.2252 65.388C86.3962 65.7005 86.4873 66.0082 86.5833 66.3484C86.637 66.5356 86.6192 66.7342 86.6192 66.9262C86.6192 67.2681 86.5948 67.5969 86.5296 67.9322C86.4743 68.2089 86.4368 68.4873 86.4303 68.7673C86.4238 69.0521 86.5622 69.293 86.6533 69.5567C86.7087 69.7179 86.8047 69.9702 86.7559 70.1329C86.7022 70.3104 86.5117 70.4536 86.4222 70.6148C86.3261 70.7873 86.2968 70.9175 86.2903 71.1194C86.2854 71.2496 86.2415 71.3326 86.1911 71.4466C86.1487 71.5426 86.1715 71.6142 86.1569 71.7102C86.139 71.8242 86.051 71.9235 86.0103 72.0309C85.9648 72.1514 85.9257 72.2669 85.8622 72.3809C85.4927 73.0499 84.9523 73.0938 84.2849 72.835C83.7624 72.6316 83.2822 72.3695 82.8053 72.083C82.4472 71.8681 82.0744 71.6972 81.7293 71.4726Z" fill="#FFC7AD"/>
<path d="M78.4998 66.9491C78.5177 66.6382 78.5747 66.3306 78.6691 66.0343C78.7603 65.7479 78.8873 65.4744 79.0452 65.2172C79.1265 65.087 79.2128 64.9503 79.3154 64.8347C79.4082 64.7305 79.6084 64.6198 79.6588 64.4928C79.6654 64.4766 80.1992 63.1532 82.6587 63.1532C83.5849 63.1532 84.4917 63.4918 85.2762 63.9768C85.8313 64.3203 86.1731 64.628 86.4385 65.2384C86.7005 65.8406 86.8324 66.5015 86.8145 67.1591C86.8112 67.2584 86.8015 67.3659 86.7331 67.4391C86.6306 67.5482 86.4548 67.5221 86.3099 67.4847C85.7646 67.3447 85.3105 67.164 84.8303 66.8889C84.6073 66.762 84.0179 66.4885 83.7559 66.6073C83.5394 66.705 83.7006 67.2633 83.6192 67.5124C83.5166 67.8265 83.3164 68.1114 83.0429 68.3002C82.8004 68.4679 82.5155 68.5623 82.2551 68.7039C81.9963 68.8455 81.7473 69.0538 81.6773 69.342C81.6024 69.6464 81.705 70.0549 81.4347 70.2144C81.1124 70.4049 80.227 69.6675 80.2725 69.744C80.4858 70.1054 80.4564 70.0435 80.5345 70.6816C79.5139 70.0761 78.7326 68.9839 78.5406 67.7988C78.4966 67.5189 78.4819 67.2324 78.4998 66.9491Z" fill="#7C1A13"/>
<path d="M80.598 68.533C79.9518 68.4923 79.7907 69.2948 80.2367 69.9133C80.3669 70.094 80.5964 70.2535 80.7673 70.3968C81.9296 71.3783 82.2161 70.3105 81.8466 69.9752C80.9887 69.1987 81.4119 68.5834 80.598 68.533Z" fill="#FFC7AD"/>
<path d="M81.0164 70.0011C80.9416 69.9327 80.2042 69.5013 80.7039 69.2035C80.8422 69.1204 80.9969 69.2425 81.0197 69.389C81.0311 69.4655 81.0083 69.5437 81.0197 69.6202C81.0262 69.6657 81.0458 69.7081 81.0702 69.7471C81.1369 69.8529 81.3599 69.9555 81.316 70.1118C81.2785 70.2469 81.0604 70.0401 81.0164 70.0011Z" fill="#F3A984"/>
<path d="M67.6835 65.1586C67.5207 64.9259 67.2586 64.7826 66.99 64.6915C66.2966 64.4571 65.4648 64.5645 64.939 65.074C64.6721 65.3312 64.6395 65.5998 64.5223 65.9221C64.4165 66.2102 64.2977 66.4983 64.4035 66.7978C64.5142 67.1087 64.7372 67.3512 64.9846 67.5612C65.2369 67.7745 65.5137 67.9665 65.7123 68.2319C65.8718 68.4451 65.9775 68.699 66.1647 68.8878C66.4479 69.1727 66.9591 69.106 67.3237 69.0376C67.5712 68.992 67.8202 68.8992 67.9895 68.7137C68.2662 68.4109 68.2613 67.9454 68.1767 67.5433C68.092 67.1347 68.0318 66.7311 67.9618 66.3225C67.895 65.9286 67.9244 65.5021 67.6835 65.1586Z" fill="#F3A984"/>
<path d="M66.8207 64.5271C67.0469 64.6915 67.187 65.0057 67.073 65.2628C67.003 65.4191 66.9085 65.4924 66.7751 65.5851C66.5765 65.7235 66.417 65.8912 66.2737 66.0849C66.0931 66.3307 65.9384 66.596 65.7268 66.8157C65.5152 67.0355 65.232 67.208 64.9276 67.2015C63.9656 67.1836 64.1593 65.8114 64.506 65.2856C64.7974 64.8461 65.2336 64.5255 65.6763 64.2373C65.9531 64.0567 66.5602 64.3366 66.8207 64.5271Z" fill="#FFC7AD"/>
<path d="M67.9602 65.4726C67.7876 64.911 67.2293 64.4373 66.6466 64.5252C66.6433 64.784 66.9396 64.937 67.0438 65.1731C67.1479 65.4107 67.0421 65.6842 66.9135 65.9088C66.7849 66.1334 66.6286 66.3613 66.6303 66.6218C66.6319 67.1557 67.3368 67.4454 67.7388 67.115C68.1262 66.7976 68.0904 65.8925 67.9602 65.4726Z" fill="#FFC7AD"/>
<path d="M69.482 69.5324C68.9172 68.6079 68.2303 67.4424 66.9427 67.9128C66.6562 68.017 66.0995 68.1911 65.927 68.4597C65.73 68.7674 66.0068 69.3469 66.1272 69.6854C66.443 70.5774 67.5417 72.7261 68.004 73.5481C68.6372 74.6778 69.4234 75.7489 70.4815 76.5155C71.437 77.209 72.5601 77.6143 73.7044 77.8715C74.4972 78.0505 76.3121 78.63 77.0462 78.1921C77.6322 77.8422 77.8471 76.7646 78.2215 76.2063C78.4869 75.8107 78.6366 75.3517 78.7098 74.8813C78.7277 74.7673 78.7456 73.47 78.6691 73.4928C76.9127 74.0153 74.9041 74.2481 73.0859 73.9274C71.6225 73.6686 70.1901 70.6914 69.482 69.5324Z" fill="#FFED0E"/>
<path d="M79.3886 77.5168C79.4765 77.6112 79.5888 77.7089 79.7157 77.6926C79.8801 77.6714 79.9567 77.481 79.9827 77.3182C80.0869 76.6622 79.8932 75.9981 79.6653 75.3747C79.4374 74.7512 79.1705 74.1278 79.1216 73.4653C79.1135 73.3465 79.1428 73.1202 79.0467 73.0323C78.9181 72.9135 78.6349 73.0209 78.5047 73.0746C78.0342 73.2651 77.5703 73.4669 77.1097 73.6801C77.0478 73.7094 76.9828 73.7404 76.9453 73.7973C76.8753 73.9048 76.9307 74.0464 76.9893 74.1603C77.3815 74.9189 77.9025 75.5895 78.3989 76.2813C78.7098 76.7094 79.0272 77.1326 79.3886 77.5168Z" fill="#E43727"/>
<defs>
<linearGradient id="paint0_linear_229_22205" x1="111.64" y1="108.575" x2="124.96" y2="108.575" gradientUnits="userSpaceOnUse">
<stop stop-color="#E9BB5E"/>
<stop offset="0.999999" stop-color="#DE862E"/>
<stop offset="1" stop-color="#DE862E"/>
</linearGradient>
</defs>
</svg>
