<svg width="128" height="128" viewBox="0 0 128 128" fill="none" xmlns="http://www.w3.org/2000/svg">
<path d="M66.1668 110.939L96.0242 93.7038C99.4956 91.694 99.0693 88.1922 95.0497 85.8779L71.7698 72.4337C67.7503 70.1194 61.6905 69.8606 58.2038 71.8704L28.3465 89.1057C24.875 91.1155 25.3014 94.6174 29.3209 96.9317L52.6008 110.376C56.6204 112.69 62.6802 112.949 66.1668 110.939Z" fill="#F1522D"/>
<path d="M98.3689 64.3797V90.2175L70.4604 93.9173L76.2766 62.9028L98.3689 64.3797Z" fill="#F1522D"/>
<path d="M34.117 65.354C33.7668 65.2474 26.017 66.4655 26.017 66.4655V92.4251L48.0179 94.1608L55.5394 79.7574L34.1018 65.354H34.117Z" fill="#F1522D"/>
<path d="M66.1668 84.8884L96.0242 67.6531C99.4956 65.6433 99.0693 62.1414 95.0497 59.8271L71.7698 46.3829C67.7503 44.0686 61.6905 43.8098 58.2038 45.8196L28.3465 63.0549C24.875 65.0647 25.3014 68.5666 29.3209 70.8809L52.6008 84.3251C56.6204 86.6393 62.6802 86.8982 66.1668 84.8884Z" fill="#FFED0E"/>
<path d="M88.8224 95.3178C88.8224 95.3178 88.6702 96.6119 88.2591 97.967C87.848 99.3221 88.3505 101.21 88.3505 101.21C88.3505 101.21 88.6397 102.047 89.9035 102.291C91.0758 102.519 92.0198 102.245 92.0198 102.245C92.0198 102.245 93.177 103.631 94.6691 104.697C96.1764 105.763 99.4956 106.585 100.394 106.448C101.856 106.219 102.632 105.093 102.525 104.362C102.419 103.631 100.698 101.606 99.2976 100.723C98.3841 100.144 96.2982 98.2258 95.674 97.5559C94.6386 96.4444 93.8773 95.2112 93.8773 95.2112L88.8224 95.3025V95.3178Z" fill="#2A0B88"/>
<path d="M84.9095 70.8047C85.7925 70.6982 86.6604 70.5916 87.5435 70.5002C89.0508 70.3632 90.5734 70.2414 92.0807 70.013C92.8572 69.8912 92.37 68.2468 93.177 68.0337C93.8926 68.6579 95.0954 69.6324 95.3085 71.1702C95.8567 74.9004 95.1258 81.3256 94.8518 85.2234C94.6995 87.3549 93.923 92.9123 94.3341 95.9269C93.8773 97.891 89.2792 98.1347 88.7311 95.8508C88.3961 94.4348 84.8638 81.9042 84.4984 77.9608C84.1482 74.0173 85.0769 71.2006 85.0769 71.2006L84.8942 70.8047H84.9095Z" fill="#3F13C2"/>
<path d="M63.5327 63.0549L66.6996 51.8489C66.6996 51.8489 77.2662 56.5231 80.7985 59.1572C84.2852 61.7607 89.7664 65.4605 94.1514 68.7645C93.923 69.1147 93.6946 69.4649 93.4205 69.7998C92.8572 70.5002 92.2786 71.1701 91.6544 71.8248C90.5125 73.0581 89.3249 74.2305 88.2286 75.5094C87.985 75.7987 87.7109 76.088 87.4521 76.3773C83.8132 75.0222 75.3478 71.8705 71.6023 70.3023C66.7606 68.2773 63.5175 63.0549 63.5175 63.0549H63.5327Z" fill="#3F13C2"/>
<path d="M69.4403 108.275C69.4403 108.275 69.014 111.244 69.3032 112.888C69.5925 114.533 70.0493 114.883 70.6126 115.385C71.176 115.888 71.7393 115.568 71.7393 115.568C71.7393 115.568 72.3788 118.963 74.1754 120.151C75.9568 121.338 78.9258 121.125 80.22 120.455C81.5142 119.785 80.3266 117.441 78.7127 115.203C77.0987 112.964 75.1042 110.574 74.419 108.458C71.1303 108.397 69.4403 108.275 69.4403 108.275Z" fill="#2A0B88"/>
<path d="M74.2364 85.4516C72.8661 86.1672 71.4501 86.7914 70.0037 87.3396C69.958 87.2482 69.9123 87.1873 69.9123 87.1873C69.9123 87.1873 69.486 86.761 66.8976 85.2384C64.3093 83.7159 58.0668 77.8997 58.0668 77.8997C58.0668 77.8997 51.398 72.3576 49.4339 69.1146C46.6324 64.5012 51.4894 50.7982 56.8031 53.1277C65.2837 56.8427 64.4159 63.207 64.4159 63.207C64.4159 63.207 71.0999 70.3022 75.1499 75.7529C77.4642 78.8437 78.8193 79.6659 78.1189 83.4571C77.8905 84.6751 75.9416 84.5381 74.2212 85.4364L74.2364 85.4516Z" fill="#6634FA"/>
<path d="M71.3283 82.4979C73.3685 82.8329 78.1189 81.9041 78.3016 81.8432C78.4082 83.381 77.8296 85.2995 77.5251 86.7763C76.6877 90.9481 75.226 108.945 75.226 108.945C75.226 108.945 73.9623 110.467 71.9982 110.498C69.8362 110.543 69.1815 109.021 69.1815 109.021C69.1815 109.021 67.7959 103.144 66.4256 94.8916C65.4816 89.1667 65.9232 83.9139 66.2734 81.219C67.9025 81.7671 69.5926 82.2087 71.2978 82.4979H71.3283Z" fill="#6634FA"/>
<path d="M76.2614 40.5056C75.835 36.1054 73.2467 31.4007 72.927 30.4263C72.5463 29.2996 70.8411 24.3817 69.1358 22.8591C67.4458 21.3366 64.5986 20.5144 64.5986 20.5144L60.442 24.534C60.442 24.534 66.5931 37.5518 70.2473 44.0532C70.7801 44.9971 72.6072 48.6056 76.0939 48.6056C77.8144 46.3218 74.7388 42.9265 76.2614 40.5056Z" fill="#038F5E"/>
<path d="M48.8857 31.4464C51.5502 26.1479 59.5436 22.3415 65.2989 23.1789C68.0547 25.3714 69.3337 26.8483 70.3234 29.4671C71.2217 31.8423 71.6023 34.659 71.313 37.156C70.4452 44.6317 72.2113 51.9096 72.866 54.7568C69.8209 57.9541 65.7557 60.0248 61.2946 60.7861C58.8737 61.2124 57.0923 60.2989 54.7324 59.4158C54.3822 59.294 54.2299 59.0504 54.1842 58.7002C53.3773 52.6556 51.3066 47.6007 49.2207 41.952C48.1092 38.9374 47.3632 34.4763 48.8857 31.4464Z" fill="#04C984"/>
<path d="M90.8475 56.8426L90.2993 57.4669C90.0862 57.2689 89.8426 57.071 89.5381 56.9035L81.3315 52.1684C79.4739 51.1026 76.642 50.9808 75.0433 51.9095L61.9645 59.4614C61.8732 59.5223 61.797 59.5832 61.7057 59.6441L61.1119 58.959C61.1119 58.959 60.4572 60.2227 60.9749 61.5625C60.9749 61.5778 60.9901 61.593 61.0053 61.6082C61.2033 62.1411 61.6752 62.6588 62.4213 63.0851L70.6279 67.8202C72.4854 68.886 75.3174 69.0078 76.916 68.0791L89.9948 60.5272C90.4668 60.2531 90.7561 59.9182 90.9236 59.568C90.954 59.5223 90.9845 59.4766 90.9997 59.4157C91.5326 58.0759 90.8475 56.8274 90.8475 56.8274V56.8426Z" fill="#BFB0FE"/>
<path d="M76.916 66.8001L89.9948 59.2482C91.5935 58.3195 91.3955 56.6903 89.538 55.6093L81.3314 50.8742C79.4739 49.8084 76.642 49.6866 75.0433 50.6153L61.9645 58.1672C60.3658 59.096 60.5637 60.7251 62.4213 61.8061L70.6279 66.5413C72.4854 67.6071 75.3173 67.7289 76.916 66.8001Z" fill="#6634FA"/>
<path d="M76.7333 51.4071L77.7839 50.798C77.8904 50.7371 78.0731 50.7524 78.1949 50.8133L78.7735 51.1482C78.8953 51.2244 78.9106 51.3157 78.804 51.3766L77.7382 51.9856C77.6316 52.0465 77.4489 52.0313 77.3271 51.9704L76.7485 51.6355C76.6267 51.5593 76.6115 51.468 76.7181 51.4071H76.7333Z" fill="#BFB0FE"/>
<path d="M72.5767 53.7975L75.7436 51.9704C75.8502 51.9095 76.0329 51.9247 76.1547 51.9856L76.7333 52.3206C76.8551 52.3967 76.8703 52.4881 76.7637 52.549L73.5968 54.3761C73.4903 54.437 73.3075 54.4217 73.1857 54.3608L72.6072 54.0259C72.4854 53.9497 72.4701 53.8584 72.5767 53.7975Z" fill="#BFB0FE"/>
<path d="M70.5365 54.9852L71.6023 54.3762C71.7089 54.3153 71.8916 54.3305 72.0134 54.3914L72.5919 54.7264C72.7137 54.8025 72.729 54.8938 72.6224 54.9547L71.5718 55.5638C71.4652 55.6247 71.2825 55.6094 71.1607 55.5485L70.5822 55.2136C70.4604 55.1375 70.4451 55.0461 70.5517 54.9852H70.5365Z" fill="#BFB0FE"/>
<path d="M79.8546 53.2037L80.9051 52.5947C81.0117 52.5338 81.1944 52.549 81.3162 52.6099L81.8948 52.9449C82.0166 53.021 82.0318 53.1123 81.9252 53.1733L80.8595 53.7823C80.7529 53.8432 80.5702 53.8279 80.4484 53.767L79.8698 53.4321C79.748 53.356 79.7328 53.2646 79.8393 53.2037H79.8546Z" fill="#BFB0FE"/>
<path d="M77.8143 54.3914L78.8649 53.7824C78.9714 53.7215 79.1541 53.7367 79.2759 53.7976L79.8545 54.1326C79.9763 54.2087 79.9915 54.3001 79.885 54.361L78.8192 54.97C78.7126 55.0309 78.5299 55.0157 78.4081 54.9548L77.8295 54.6198C77.7077 54.5437 77.6925 54.4523 77.7991 54.3914H77.8143Z" fill="#BFB0FE"/>
<path d="M75.698 55.6095L76.7485 55.0004C76.8551 54.9395 77.0378 54.9548 77.1596 55.0157L77.7382 55.3506C77.86 55.4268 77.8752 55.5181 77.7686 55.579L76.7028 56.188C76.5963 56.2489 76.4136 56.2337 76.2918 56.1728L75.7132 55.8378C75.5914 55.7617 75.5761 55.6704 75.6827 55.6095H75.698Z" fill="#BFB0FE"/>
<path d="M73.6576 56.7818L74.7234 56.1728C74.83 56.1119 75.0127 56.1271 75.1345 56.188L75.7131 56.523C75.8349 56.5991 75.8501 56.6905 75.7435 56.7514L74.693 57.3604C74.5864 57.4213 74.4037 57.4061 74.2819 57.3452L73.7033 57.0102C73.5815 56.9341 73.5663 56.8427 73.6729 56.7818H73.6576Z" fill="#BFB0FE"/>
<path d="M81.4075 54.1021L82.4581 53.4931C82.5647 53.4322 82.7474 53.4474 82.8692 53.5083L83.4478 53.8433C83.5696 53.9194 83.5848 54.0108 83.4782 54.0717L82.4277 54.6807C82.3211 54.7416 82.1384 54.7264 82.0166 54.6655L81.438 54.3305C81.3162 54.2544 81.301 54.163 81.4075 54.1021Z" fill="#BFB0FE"/>
<path d="M79.3673 55.2899L80.4179 54.6809C80.5245 54.62 80.7072 54.6352 80.829 54.6961L81.4076 55.031C81.5294 55.1072 81.5446 55.1985 81.438 55.2594L80.3874 55.8685C80.2809 55.9294 80.0982 55.9141 79.9764 55.8532L79.3978 55.5183C79.276 55.4421 79.2607 55.3508 79.3673 55.2899Z" fill="#BFB0FE"/>
<path d="M77.2662 56.5079L78.332 55.8989C78.4386 55.838 78.6213 55.8532 78.7431 55.9141L79.3217 56.2491C79.4435 56.3252 79.4587 56.4166 79.3521 56.4775L78.3016 57.0865C78.195 57.1474 78.0123 57.1322 77.8905 57.0712L77.3119 56.7363C77.1901 56.6602 77.1749 56.5688 77.2814 56.5079H77.2662Z" fill="#BFB0FE"/>
<path d="M75.2107 57.6803L76.2613 57.0712C76.3679 57.0103 76.5506 57.0256 76.6724 57.0865L77.2509 57.4214C77.3727 57.4976 77.388 57.5889 77.2814 57.6498L76.2156 58.2588C76.109 58.3197 75.9263 58.3045 75.8045 58.2436L75.2259 57.9086C75.1041 57.8325 75.0889 57.7412 75.1955 57.6803H75.2107Z" fill="#BFB0FE"/>
<path d="M83.3869 55.2594L84.4527 54.6503C84.5593 54.5894 84.742 54.6047 84.8638 54.6656L85.4423 55.0005C85.5641 55.0767 85.5794 55.168 85.4728 55.2289L84.4222 55.8379C84.3157 55.8988 84.1329 55.8836 84.0111 55.8227L83.4326 55.4877C83.3108 55.4116 83.2955 55.3203 83.4021 55.2594H83.3869Z" fill="#BFB0FE"/>
<path d="M81.3466 56.4317L82.3972 55.8227C82.5038 55.7618 82.6865 55.777 82.8083 55.8379L83.3869 56.1729C83.5087 56.249 83.5239 56.3404 83.4173 56.4013L82.3515 57.0103C82.2449 57.0712 82.0622 57.056 81.9404 56.9951L81.3619 56.6601C81.2401 56.584 81.2248 56.4926 81.3314 56.4317H81.3466Z" fill="#BFB0FE"/>
<path d="M79.2455 57.6497L80.3113 57.0407C80.4178 56.9798 80.6005 56.995 80.7224 57.0559L81.3009 57.3909C81.4227 57.467 81.438 57.5584 81.3314 57.6193L80.2656 58.2283C80.159 58.2892 79.9763 58.274 79.8545 58.2131L79.2759 57.8781C79.1541 57.802 79.1389 57.7107 79.2455 57.6497Z" fill="#BFB0FE"/>
<path d="M77.2053 58.8221L78.2711 58.2131C78.3777 58.1522 78.5604 58.1674 78.6822 58.2283L79.2608 58.5633C79.3826 58.6394 79.3978 58.7308 79.2912 58.7917L78.2254 59.4007C78.1188 59.4616 77.9361 59.4464 77.8143 59.3855L77.2358 59.0505C77.114 58.9744 77.0987 58.883 77.2053 58.8221Z" fill="#BFB0FE"/>
<path d="M78.2863 52.3055L79.3368 51.6965C79.4434 51.6356 79.6261 51.6508 79.7479 51.7117L80.3265 52.0467C80.4483 52.1228 80.4635 52.2142 80.357 52.2751L79.2912 52.8841C79.1846 52.945 79.0019 52.9298 78.8801 52.8689L78.3015 52.5339C78.1797 52.4578 78.1645 52.3664 78.271 52.3055H78.2863Z" fill="#BFB0FE"/>
<path d="M76.246 53.4779L77.3118 52.8688C77.4184 52.8079 77.6011 52.8232 77.7229 52.8841L78.3015 53.219C78.4233 53.2952 78.4385 53.3865 78.3319 53.4474L77.2814 54.0564C77.1748 54.1173 76.9921 54.1021 76.8703 54.0412L76.2917 53.7063C76.1699 53.6301 76.1547 53.5388 76.2612 53.4779H76.246Z" fill="#BFB0FE"/>
<path d="M74.1297 54.6959L75.1803 54.0869C75.2869 54.026 75.4696 54.0412 75.5914 54.1021L76.1699 54.4371C76.2917 54.5132 76.307 54.6045 76.2004 54.6654L75.1498 55.2745C75.0433 55.3354 74.8605 55.3201 74.7387 55.2592L74.1602 54.9243C74.0384 54.8481 74.0231 54.7568 74.1297 54.6959Z" fill="#BFB0FE"/>
<path d="M72.0895 55.8836L73.1401 55.2746C73.2466 55.2137 73.4293 55.2289 73.5511 55.2898L74.1297 55.6248C74.2515 55.7009 74.2668 55.7923 74.1602 55.8532L73.0944 56.4622C72.9878 56.5231 72.8051 56.5079 72.6833 56.447L72.1047 56.112C71.9829 56.0359 71.9677 55.9445 72.0743 55.8836H72.0895Z" fill="#BFB0FE"/>
<path d="M68.4658 56.1729L69.5316 55.5639C69.6382 55.503 69.8209 55.5182 69.9427 55.5791L70.5213 55.9141C70.6431 55.9902 70.6583 56.0816 70.5517 56.1425L69.5011 56.7515C69.3946 56.8124 69.2119 56.7972 69.0901 56.7363L68.5115 56.4013C68.3897 56.3252 68.3745 56.2338 68.481 56.1729H68.4658Z" fill="#BFB0FE"/>
<path d="M71.587 57.9847L72.6376 57.3757C72.7441 57.3148 72.9268 57.33 73.0486 57.3909L75.1955 58.6242C75.3173 58.7003 75.3325 58.7917 75.2259 58.8526L74.1753 59.4616C74.0688 59.5225 73.8861 59.5073 73.7643 59.4464L71.6174 58.2131C71.4956 58.137 71.4804 58.0456 71.587 57.9847Z" fill="#BFB0FE"/>
<path d="M75.1194 60.0247L76.1852 59.4157C76.2917 59.3548 76.4744 59.37 76.5963 59.4309L77.1748 59.7659C77.2966 59.842 77.3119 59.9334 77.2053 59.9943L76.1395 60.6033C76.0329 60.6642 75.8502 60.649 75.7284 60.5881L75.1498 60.2531C75.028 60.177 75.0128 60.0856 75.1194 60.0247Z" fill="#BFB0FE"/>
<path d="M70.0188 57.0711L71.0846 56.4621C71.1912 56.4012 71.3739 56.4164 71.4957 56.4773L72.0743 56.8123C72.1961 56.8884 72.2113 56.9798 72.1048 57.0407L71.039 57.6497C70.9324 57.7106 70.7497 57.6954 70.6279 57.6345L70.0493 57.2995C69.9275 57.2234 69.9123 57.132 70.0188 57.0711Z" fill="#BFB0FE"/>
<path d="M66.4103 57.3604L67.4609 56.7514C67.5674 56.6905 67.7501 56.7057 67.8719 56.7666L68.4505 57.1016C68.5723 57.1777 68.5876 57.2691 68.481 57.33L67.4304 57.939C67.3238 57.9999 67.1411 57.9847 67.0193 57.9238L66.4407 57.5888C66.3189 57.5127 66.3037 57.4213 66.4103 57.3604Z" fill="#BFB0FE"/>
<path d="M62.269 59.7508L65.4359 57.9238C65.5425 57.8629 65.7252 57.8781 65.847 57.939L66.4256 58.274C66.5474 58.3501 66.5626 58.4567 66.456 58.5024L63.2891 60.3294C63.1825 60.3903 62.9998 60.3751 62.878 60.3142L62.2994 59.9792C62.1776 59.9031 62.1624 59.8118 62.269 59.7508Z" fill="#BFB0FE"/>
<path d="M69.5468 59.1571L70.5974 58.548C70.704 58.4871 70.8867 58.5024 71.0085 58.5633L71.5871 58.8982C71.7089 58.9744 71.7241 59.0657 71.6175 59.1266L70.5517 59.7356C70.4451 59.7965 70.2624 59.7813 70.1406 59.7204L69.5621 59.3855C69.4403 59.3093 69.425 59.218 69.5316 59.1571H69.5468Z" fill="#BFB0FE"/>
<path d="M67.4914 60.3446L68.5572 59.7355C68.6638 59.6746 68.8465 59.6899 68.9683 59.7508L69.5468 60.0857C69.6686 60.1619 69.6839 60.2532 69.5773 60.3141L68.5267 60.9231C68.4201 60.984 68.2374 60.9688 68.1156 60.9079L67.5371 60.573C67.4153 60.4968 67.4 60.4055 67.5066 60.3446H67.4914Z" fill="#BFB0FE"/>
<path d="M65.3903 61.5626L66.4408 60.9536C66.5474 60.8927 66.7301 60.9079 66.8519 60.9688L67.4305 61.3038C67.5523 61.3799 67.5675 61.4712 67.461 61.5321L66.4104 62.1412C66.3038 62.2021 66.1211 62.1868 65.9993 62.1259L65.4207 61.791C65.2989 61.7148 65.2837 61.6083 65.3903 61.5626Z" fill="#BFB0FE"/>
<path d="M71.0998 60.0553L72.1656 59.4462C72.2722 59.3853 72.4549 59.4006 72.5767 59.4615L73.1553 59.7964C73.2771 59.8726 73.2923 59.9639 73.1857 60.0248L72.1352 60.6338C72.0286 60.6947 71.8459 60.6795 71.7241 60.6186L71.1455 60.2837C71.0237 60.2075 71.0085 60.1162 71.1151 60.0553H71.0998Z" fill="#BFB0FE"/>
<path d="M69.0596 61.243L70.1253 60.634C70.2319 60.5731 70.4146 60.5883 70.5364 60.6492L71.115 60.9842C71.2368 61.0603 71.252 61.1517 71.1455 61.2126L70.0949 61.8216C69.9883 61.8825 69.8056 61.8673 69.6838 61.8064L69.1052 61.4714C68.9834 61.3953 68.9682 61.3039 69.0748 61.243H69.0596Z" fill="#BFB0FE"/>
<path d="M66.9433 62.461L67.9938 61.852C68.1004 61.7911 68.2831 61.8063 68.4049 61.8672L68.9835 62.2022C69.1053 62.2783 69.1205 62.3697 69.0139 62.4306L67.9481 63.0396C67.8416 63.1005 67.6589 63.0853 67.537 63.0244L66.9585 62.6894C66.8367 62.6133 66.8215 62.5219 66.928 62.461H66.9433Z" fill="#BFB0FE"/>
<path d="M73.0791 61.1974L74.1449 60.5883C74.2515 60.5274 74.4342 60.5427 74.556 60.6036L75.1346 60.9385C75.2564 61.0147 75.2716 61.106 75.1651 61.1669L74.1145 61.7759C74.0079 61.8368 73.8252 61.8216 73.7034 61.7607L73.1248 61.4257C73.003 61.3496 72.9878 61.2583 73.0944 61.1974H73.0791Z" fill="#BFB0FE"/>
<path d="M71.039 62.3849L72.0895 61.7758C72.1961 61.7149 72.3788 61.7302 72.5006 61.7911L73.0792 62.126C73.201 62.2021 73.2162 62.2935 73.1096 62.3544L72.0438 62.9634C71.9373 63.0243 71.7546 63.0091 71.6328 62.9482L71.0542 62.6132C70.9324 62.5371 70.9172 62.4458 71.0237 62.3849H71.039Z" fill="#BFB0FE"/>
<path d="M68.9226 63.6029L69.9884 62.9938C70.095 62.9329 70.2777 62.9482 70.3995 63.0091L70.9781 63.344C71.0999 63.4202 71.1151 63.5115 71.0085 63.5724L69.9427 64.1814C69.8361 64.2423 69.6534 64.2271 69.5316 64.1662L68.953 63.8313C68.8312 63.7551 68.816 63.6638 68.9226 63.6029Z" fill="#BFB0FE"/>
<path d="M76.8247 60.9842L77.8752 60.3752C77.9818 60.3143 78.1645 60.3295 78.2863 60.3904L78.8649 60.7254C78.9867 60.8015 79.0019 60.8929 78.8953 60.9538L77.8448 61.5628C77.7382 61.6237 77.5555 61.6085 77.4337 61.5476L76.8551 61.2126C76.7333 61.1365 76.7181 61.0451 76.8247 60.9842Z" fill="#BFB0FE"/>
<path d="M74.7844 62.1566L75.835 61.5476C75.9416 61.4867 76.1243 61.5019 76.2461 61.5628L76.8247 61.8977C76.9465 61.9739 76.9617 62.0652 76.8551 62.1261L75.8046 62.7352C75.698 62.7961 75.5153 62.7808 75.3935 62.7199L74.8149 62.385C74.6931 62.3088 74.6779 62.2175 74.7844 62.1566Z" fill="#BFB0FE"/>
<path d="M72.7441 63.3287L73.8099 62.7197C73.9165 62.6588 74.0992 62.674 74.221 62.7349L74.7996 63.0699C74.9214 63.146 74.9366 63.2373 74.83 63.2983L73.7642 63.9073C73.6577 63.9682 73.475 63.9529 73.3532 63.892L72.7746 63.5571C72.6528 63.481 72.6376 63.3896 72.7441 63.3287Z" fill="#BFB0FE"/>
<path d="M70.6278 64.5621L71.6784 63.9531C71.785 63.8922 71.9677 63.9074 72.0895 63.9683L72.6681 64.3033C72.7899 64.3794 72.8051 64.4707 72.6985 64.5316L71.6327 65.1407C71.5261 65.2016 71.3434 65.1864 71.2216 65.1254L70.643 64.7905C70.5212 64.7144 70.506 64.623 70.6126 64.5621H70.6278Z" fill="#BFB0FE"/>
<path d="M67.9786 58.2589L69.0292 57.6499C69.1357 57.589 69.3184 57.6042 69.4402 57.6651L70.0188 58C70.1406 58.0762 70.1559 58.1675 70.0493 58.2284L68.9987 58.8374C68.8921 58.8984 68.7094 58.8831 68.5876 58.8222L68.009 58.4873C67.8872 58.4111 67.872 58.3198 67.9786 58.2589Z" fill="#BFB0FE"/>
<path d="M65.9384 59.431L67.0042 58.822C67.1108 58.7611 67.2935 58.7763 67.4153 58.8372L67.9939 59.1722C68.1157 59.2483 68.1309 59.3396 68.0243 59.4005L66.9737 60.0096C66.8672 60.0705 66.6845 60.0552 66.5627 59.9943L65.9841 59.6594C65.8623 59.5833 65.8471 59.4919 65.9536 59.431H65.9384Z" fill="#BFB0FE"/>
<path d="M63.822 60.649L64.8725 60.04C64.9791 59.9791 65.1618 59.9943 65.2836 60.0552L65.8622 60.3902C65.984 60.4663 65.9992 60.5577 65.8927 60.6186L64.8421 61.2276C64.7355 61.2885 64.5528 61.2733 64.431 61.2124L63.8524 60.8774C63.7306 60.8013 63.7154 60.7099 63.822 60.649Z" fill="#BFB0FE"/>
<path d="M75.0585 35.6488C75.0585 35.6488 76.4288 41.4497 77.3728 44.0228C78.3168 46.6112 78.8649 51.0723 76.6572 52.0163C72.5768 53.7824 71.3283 49.8238 71.2065 45.6215C71.0847 41.4193 75.0585 35.6335 75.0585 35.6335V35.6488Z" fill="#038F5E"/>
<path d="M76.2765 47.2202C77.1444 47.4486 77.4032 48.4078 77.5859 49.5954C77.7686 50.783 76.4136 51.2398 75.0433 51.392C73.673 51.5291 73.2923 51.5443 72.6681 49.9913C72.4245 49.3823 72.6528 48.5296 73.003 47.9967C73.5664 47.1593 74.6322 46.7939 76.2765 47.2202Z" fill="#E6EFFF"/>
<path d="M76.779 49.428C76.779 49.428 78.7735 52.4579 78.9562 53.5084C79.1389 54.559 79.55 56.6906 79.4587 57.6041C79.3673 58.5329 78.7735 58.5785 78.5147 57.8782C78.2558 57.1626 78.0275 56.1729 78.0275 56.1729C78.0275 56.1729 78.0275 57.528 77.8904 58.2893C77.7534 59.0505 76.7333 58.7765 76.6724 58.5633C76.6115 58.3654 76.4592 57.5432 76.4592 57.5432C76.4592 57.5432 76.4136 58.274 76.1852 58.6242C75.9416 58.9744 75.2412 58.6851 75.1194 58.1675C74.9976 57.665 74.5865 55.503 74.5865 55.503C74.5865 55.503 74.4342 55.8227 73.947 56.447C73.4598 57.0712 72.9726 56.9646 72.9117 56.5231C72.8508 56.0968 73.6273 54.6047 73.4293 53.0212C73.2162 51.3616 73.5664 50.1283 73.5664 50.1283C73.5664 50.1283 75.2107 48.5906 76.779 49.4128V49.428Z" fill="#FFC9B6"/>
<path d="M98.7495 42.3784C98.2775 41.4648 97.2117 41.3887 97.0747 41.3735H97.0443C96.6788 41.3582 96.2525 41.4953 95.8414 41.7389L80.3875 50.5697C79.4435 51.1178 78.6061 52.3054 78.1645 53.5844C77.9818 54.102 75.0281 61.0601 74.1602 63.3592C73.81 64.3032 73.7034 64.9579 73.7643 65.3994C73.7643 65.3994 73.7948 65.5365 73.81 65.5821C74.0384 66.6175 75.363 66.6936 75.363 66.6936L75.4848 65.7344C75.4848 65.7344 75.561 65.7039 75.5914 65.6735L89.538 57.6192C90.9388 56.8122 92.0503 54.9395 92.9333 53.0515C92.9333 53.0515 96.2068 46.0629 97.2422 43.8705L97.5315 44.1445C97.5315 44.1445 99.1149 42.9874 98.7647 42.3479L98.7495 42.3784Z" fill="#4214B2"/>
<path d="M90.5581 58.2737L76.6115 66.328C75.2108 67.135 74.145 66.7696 75.1803 64.0137C76.0482 61.7147 79.0019 54.7413 79.1846 54.2389C79.6262 52.9447 80.4636 51.7724 81.4076 51.2242L96.8615 42.3934C97.6989 41.9062 98.6429 41.8148 98.8409 42.6675C98.917 43.0177 98.7343 43.5049 98.5516 43.9007C98.4145 44.19 93.9382 53.7365 93.9382 53.7365C93.0551 55.6092 91.9437 57.482 90.5429 58.3041L90.5581 58.2737Z" fill="#BFB0FE"/>
<path d="M80.159 65.5975L77.9513 66.8765L78.7583 64.8515L80.966 63.5725L80.159 65.5975Z" fill="#BFB0FE"/>
<path d="M80.966 63.5725L80.6158 63.3594L78.4081 64.6383L78.7583 64.8515L80.966 63.5725Z" fill="#E9F1FF"/>
<path d="M77.9513 66.8766L77.6012 66.6634L78.4081 64.6384L78.7583 64.8516L77.9513 66.8766Z" fill="#E4E4FF"/>
<path d="M89.6142 60.1009L87.4065 61.3799L88.2286 59.3549L90.4363 58.0759L89.6142 60.1009Z" fill="#BFB0FE"/>
<path d="M90.4363 58.0759L90.0709 57.8779L87.8784 59.1417L88.2286 59.3548L90.4363 58.0759Z" fill="#E9F1FF"/>
<path d="M87.4064 61.3798L87.0562 61.1666L87.8784 59.1416L88.2286 59.3548L87.4064 61.3798Z" fill="#E4E4FF"/>
<path d="M63.6393 19.8905C63.6393 19.8905 63.0912 23.5294 64.431 24.7931C65.7709 26.0568 65.7709 28.6452 63.1064 29.513C59.8633 30.5636 57.5795 28.2341 55.5545 26.6202C56.4224 24.7779 56.8487 24.7779 56.8487 19.586C56.8487 15.3685 63.6393 19.8752 63.6393 19.8752V19.8905Z" fill="#F9BBA7"/>
<path d="M56.7269 23.0725C56.7269 23.0725 57.3512 25.2802 59.026 26.5439C61.051 28.0665 64.8422 28.3101 64.8422 29.3607C63.7459 29.3607 63.5175 29.4216 63.5175 30.2133C63.5175 31.7054 63.076 32.0556 63.076 32.0556C63.076 32.0556 60.3354 31.2791 58.3561 30.4569C55.8743 29.4216 54.7476 25.9958 54.7476 25.9958C54.7476 25.9958 55.2348 22.9507 56.7117 23.0877L56.7269 23.0725Z" fill="#E6EFFF"/>
<path d="M64.8574 23.1792C64.8574 23.1792 66.4561 24.9301 67.1564 25.7219C67.8416 26.5288 67.4457 28.0057 67.7807 28.6756C68.1309 29.3456 68.2831 29.7871 68.2831 29.7871C68.2831 29.7871 66.8519 29.4978 66.5779 28.6756C66.3038 27.8534 64.8726 29.3456 64.8726 29.3456L63.8525 28.5082C63.8525 28.5082 65.3751 27.5337 64.8726 26.4831C64.3702 25.4326 63.5023 24.0623 63.5023 24.0623L64.8726 23.1792H64.8574Z" fill="#E6EFFF"/>
<path d="M57.7775 10.9072C59.7873 8.68431 65.0858 7.77077 66.9738 11.029C68.405 13.4804 68.4659 17.8349 68.07 19.8447C67.2631 24.0469 63.8069 26.5591 59.8178 23.3313C56.0266 20.2405 54.3061 14.7441 57.7623 10.9225L57.7775 10.9072Z" fill="#FFC9B6"/>
<path d="M71.7089 9.67395C67.6893 9.99369 65.3598 7.0247 62.6345 6.35478C60.7922 5.89801 58.7063 5.76098 56.9858 6.68974C55.113 7.69463 54.3061 9.65873 54.8085 11.3792C52.3267 13.9371 54.1081 19.4792 56.529 21.961C58.6301 19.5858 57.8689 18.6418 58.7215 16.83C61.1576 18.4287 65.8927 16.495 66.654 14.7288C69.2424 15.3531 73.0488 13.5565 71.7241 9.65873L71.7089 9.67395Z" fill="#2A0B88"/>
<path d="M59.2239 18.3219C59.2239 18.3219 58.0667 16.5709 57.0314 17.8956C55.9961 19.2354 58.1124 20.5296 58.1124 20.5296L59.2239 18.3067V18.3219Z" fill="#FFC9B6"/>
<path d="M45.7188 35.1614C47.1195 30.8982 50.5301 29.0559 50.5301 29.0559C50.5301 29.0559 55.5088 31.827 54.9759 41.5713C54.1994 45.195 52.6921 49.8693 53.3316 52.4119C54.5953 53.2341 62.4517 60.0704 64.2635 62.4456C62.3604 63.2678 62.6192 64.2879 62.6192 64.2879C62.6192 64.2879 57.412 63.7702 53.6665 61.5016C52.1592 60.5881 47.7742 57.5734 46.5714 55.7768C45.6122 54.3456 45.8406 55.0155 45.2925 53.158C44.2571 49.5952 44.4246 39.0439 45.7036 35.1614H45.7188Z" fill="#038F5E"/>
<path d="M61.4163 60.9687C62.0406 60.9231 62.6496 61.6082 63.7458 61.7909C65.1466 62.0041 66.2276 62.2629 66.9432 62.4913C68.3287 62.9328 69.1662 63.7702 70.5365 64.227C71.8915 64.699 71.7088 65.4603 70.978 65.4907C70.5821 65.506 69.1357 65.4451 67.8872 65.034C66.9584 64.7295 65.8774 64.8969 65.8774 64.8969L67.0041 65.8257L70.6583 67.5462C70.6583 67.5462 67.1259 69.4037 64.4767 68.0791C61.8426 66.7545 59.574 63.6484 59.574 63.6484C59.574 63.6484 60.0004 61.0905 61.4468 60.9687H61.4163Z" fill="#FFC9B6"/>
<path d="M60.3658 58.5024C60.3658 58.5024 63.0455 60.3904 62.9389 61.5476C61.8427 62.1261 60.7769 65.1256 60.7769 65.1256L56.5442 63.0853C56.5442 63.0853 58.1885 59.0201 60.3506 58.5024H60.3658Z" fill="#E6EFFF"/>
</svg>
