<svg width="128" height="128" viewBox="0 0 128 128" fill="none" xmlns="http://www.w3.org/2000/svg">
<mask id="mask0_229_24658" style="mask-type:luminance" maskUnits="userSpaceOnUse" x="20" y="90" width="88" height="35">
<path d="M107.314 93.0859L107.181 101.193C106.954 107.615 102.526 113.891 93.9379 118.517C76.6488 127.831 49.05 126.936 32.2922 116.515C23.8596 111.272 19.7792 104.617 20.0092 98.1123L20.1427 90.0053C19.9127 96.5098 23.993 103.165 32.4248 108.408C49.1835 118.829 76.7822 119.724 94.0705 110.411C102.658 105.784 107.087 99.5082 107.314 93.0859Z" fill="white"/>
</mask>
<g mask="url(#mask0_229_24658)">
<path d="M107.314 93.0866L107.181 101.194C107.082 104.009 106.175 106.796 104.465 109.427L104.598 101.32C106.308 98.6888 107.214 95.9019 107.314 93.0866Z" fill="#E4E4FF"/>
<path d="M104.598 101.32L104.465 109.427C102.273 112.801 98.7613 115.92 93.9381 118.518C86.1703 122.703 76.3216 124.826 66.31 124.951L66.4435 116.844C76.455 116.72 86.3037 114.596 94.0707 110.412C98.8947 107.813 102.406 104.694 104.598 101.32Z" fill="#E4E4FF"/>
<path d="M66.4435 116.844L66.3101 124.951C61.3039 125.014 56.2574 124.576 51.409 123.647L51.5425 115.54C56.39 116.47 61.4373 116.907 66.4435 116.844Z" fill="#E4E4FF"/>
<path d="M51.5424 115.54L51.4089 123.647C44.3731 122.298 37.7561 119.913 32.2916 116.516C23.8598 111.272 19.7794 104.617 20.0094 98.1126L20.1429 90.0057C19.9129 96.5102 23.9932 103.166 32.425 108.409C37.8895 111.807 44.5065 114.191 51.5424 115.54Z" fill="#E4E4FF"/>
</g>
<path d="M95.0311 74.6828C111.79 85.1031 111.357 101.099 94.0708 110.411C76.7825 119.724 49.1838 118.829 32.4251 108.408C15.6673 97.9879 16.0996 81.9923 33.3879 72.6791C50.6746 63.3668 78.2733 64.2624 95.0311 74.6828Z" fill="#6634FA"/>
<path d="M97.3066 90.843C96.5058 95.0467 93.3144 99.1312 87.7282 102.355C68.3833 113.523 34.8022 107.182 31.0417 91.3626C29.7364 85.3222 30.7655 78.4005 32.718 74.7793C36.0915 68.5216 42.6506 62.8842 53.1247 59.9001C54.5785 59.4863 56.05 59.1379 57.5324 58.8433C58.9501 58.5621 60.5593 58.5327 61.9275 58.0912C64.8537 57.1477 68.432 57.1007 71.4757 57.491C76.9822 58.1961 85.0698 61.7006 87.75 63.3811C96.5176 68.8792 99.0081 80.635 97.3066 90.843Z" fill="#04C984"/>
<path d="M50.3344 69.4475C50.5719 70.1542 50.9044 70.8501 51.3434 71.5317C52.5882 73.4648 54.3644 74.9481 56.2077 76.2382C60.4064 79.1786 65.0349 80.9473 70.2433 80.3588C72.2151 80.1356 74.2515 79.5362 75.6147 78.095C77.2465 76.3708 77.5923 73.8048 77.5545 71.431C77.5067 68.4091 76.9762 65.4166 76.9334 62.394C76.8939 59.6869 77.7988 57.2291 77.3766 54.5422C76.5792 49.4663 73.7227 44.4467 70.1586 40.7953C66.283 36.8258 62.1154 34.9396 56.666 35.1898C47.7717 35.5994 51.6237 40.1498 52.1878 43.473C53.3092 50.0808 52.208 56.4006 50.4158 62.6701C49.7577 64.9692 49.5974 67.2608 50.3344 69.4475Z" fill="#FFAC8F"/>
<path d="M54.9075 50.7674C54.8378 50.6398 54.764 50.5139 54.6859 50.3905C53.9162 49.1692 52.7813 48.2316 51.7203 47.252C50.7005 46.3085 49.9853 45.2593 49.1643 44.1571C48.4341 43.1767 48.309 41.9369 48.1176 40.7525C47.6207 37.6837 47.5611 34.5241 48.1562 31.4637L48.1923 31.2824C49.0846 26.8931 51.4165 22.7112 55.0376 20.0755C58.5925 17.4876 63.0942 16.545 67.4843 16.2873C72.8649 15.9717 78.2992 16.592 83.4707 18.1122C85.0597 18.5789 87.3773 19.205 87.6904 21.0349C88.0681 23.2367 88.3418 25.4745 88.7312 27.6813C88.9579 28.9665 89.1728 30.2742 89.0183 31.5694C88.837 33.0896 88.1546 34.5141 87.9506 36.0317C87.7046 37.8641 88.1688 39.7066 88.4081 41.5399C89.3398 48.6832 86.861 55.7828 84.4217 62.5619C83.9953 63.7463 83.5261 64.9928 82.5423 65.7785C80.495 67.4128 77.6528 66.8831 75.2941 66.4827C72.5803 66.0227 69.9177 65.2631 67.3685 64.2239C63.8077 62.7717 59.8784 60.9972 57.6305 57.7412C56.954 56.7591 56.4159 55.6754 56.0693 54.533C55.8972 53.9664 55.9064 53.399 55.7327 52.824C55.5194 52.1155 55.2634 51.4171 54.9075 50.7674Z" fill="#FFC8B5"/>
<path d="M81.3756 10.2355C77.7435 7.04574 72.9572 5.24775 68.1927 4.40499C65.7887 3.97941 63.32 3.8703 60.8942 4.16829C58.8133 4.42515 56.7425 4.74579 54.8102 5.56085C49.3364 7.86836 44.9967 11.7901 42.46 17.2143C40.5814 21.2317 40.3271 25.8912 40.4958 30.2687C40.6427 34.077 41.1145 37.9055 42.3509 41.4982C44.0348 46.3894 47.7919 51.7993 52.616 53.7896C52.9492 51.4082 52.511 48.8245 54.3552 46.9333C54.8689 46.4062 55.5883 46.0477 56.3236 46.088C56.8516 46.1174 57.346 46.3449 57.848 46.5136C58.3499 46.6832 58.9098 46.794 59.4009 46.595C60.6214 46.0998 60.2806 44.6291 60.2612 43.6126C60.2277 41.9355 59.0315 40.4892 59.3018 38.7961C59.6006 36.9285 61.2811 35.7449 62.4982 34.5085C63.6298 33.3593 64.5229 31.4984 65.1533 30.0202C65.8558 28.3716 66.3184 26.5988 66.686 24.8553C66.7507 24.5473 66.8413 24.2199 66.942 23.8817C68.1382 24.4206 69.352 24.9385 70.6287 25.354C75.2185 26.8464 80.4262 26.7289 85.0874 25.6604C86.2584 25.3909 88.1949 24.2367 88.1949 24.2367C88.1949 24.2367 88.905 16.8483 81.3756 10.2355Z" fill="#2A0B88"/>
<path d="M50.1221 37.148C45.9344 36.7543 44.7323 41.9326 47.5066 46.0322C48.3141 47.2275 49.7729 48.3087 50.8465 49.2731C58.1938 55.8742 60.2655 48.9978 57.9353 46.7558C52.5245 41.5448 55.3911 37.6432 50.1221 37.148Z" fill="#FFAC8F"/>
</svg>
