<svg width="128" height="128" viewBox="0 0 128 128" fill="none" xmlns="http://www.w3.org/2000/svg">
<mask id="mask0_229_24599" style="mask-type:luminance" maskUnits="userSpaceOnUse" x="10" y="82" width="109" height="44">
<path d="M10.0116 86.3232L10.1767 96.4157C10.4599 104.411 15.9722 112.224 26.6636 117.983C48.1873 129.579 82.5457 128.464 103.408 115.491C113.906 108.963 118.986 100.678 118.699 92.5806L118.533 82.488C118.82 90.5857 113.74 98.8715 103.243 105.398C82.3795 118.371 48.0212 119.486 26.4985 107.892C15.8071 102.132 10.2937 94.3184 10.0116 86.3232Z" fill="white"/>
</mask>
<g mask="url(#mask0_229_24599)">
<path d="M10.0115 86.3231L10.1766 96.4157C10.301 99.9206 11.4296 103.39 13.5582 106.666L13.3931 96.5735C11.2634 93.2974 10.1359 89.828 10.0115 86.3231Z" fill="#E4E4FF"/>
<path d="M13.3932 96.5735L13.5583 106.666C16.2868 110.866 20.659 114.749 26.6635 117.983C36.3339 123.194 48.5948 125.836 61.0585 125.992L60.8923 115.9C48.4287 115.745 36.1678 113.101 26.4984 107.892C20.4929 104.657 16.1216 100.773 13.3932 96.5735Z" fill="#E4E4FF"/>
<path d="M60.8923 115.899L61.0584 125.992C67.2908 126.07 73.5733 125.525 79.6092 124.369L79.443 114.276C73.4082 115.433 67.1246 115.978 60.8923 115.899Z" fill="#E4E4FF"/>
<path d="M79.4431 114.276L79.6093 124.369C88.3684 122.69 96.6061 119.72 103.409 115.491C113.906 108.963 118.986 100.678 118.699 92.5802L118.533 82.4876C118.82 90.5853 113.74 98.871 103.243 105.398C96.44 109.628 88.2023 112.597 79.4431 114.276Z" fill="#E4E4FF"/>
</g>
<path d="M25.3029 63.4128C4.43956 76.3854 4.97775 96.2988 26.4984 107.892C48.0211 119.486 82.3794 118.371 103.243 105.399C124.105 92.426 123.567 72.5126 102.044 60.9184C80.5235 49.3253 46.1651 50.4403 25.3029 63.4128Z" fill="#6634FA"/>
<path d="M50.0141 104.23L31.0672 93.2049L31.044 84.0325L49.9909 95.0578L50.0141 104.23Z" fill="#038F5E"/>
<mask id="mask1_229_24599" style="mask-type:luminance" maskUnits="userSpaceOnUse" x="55" y="37" width="38" height="16">
<path d="M73.3851 39.5146L92.332 50.5167C87.8153 47.8994 81.5846 48.27 74.6822 52.2539L55.7353 41.2517C62.6377 37.2678 68.8684 36.8972 73.3851 39.5146Z" fill="white"/>
</mask>
<g mask="url(#mask1_229_24599)">
<path d="M74.7048 52.2532L55.7579 41.251C62.6603 37.2671 68.891 36.8965 73.4077 39.5138L92.3546 50.516C87.8379 47.8986 81.6072 48.2692 74.7048 52.2532Z" fill="#038F5E"/>
</g>
<path d="M49.991 95.0582L31.0441 84.056C30.9978 68.3287 42.0694 49.1501 55.7585 41.2517L74.7054 52.2539C61.0164 60.1523 49.9447 79.3308 49.991 95.0582Z" fill="#03B073"/>
<mask id="mask2_229_24599" style="mask-type:luminance" maskUnits="userSpaceOnUse" x="31" y="41" width="44" height="55">
<path d="M49.991 95.0582L31.0441 84.056C30.9978 68.3287 42.0694 49.1501 55.7585 41.2517L74.7054 52.2539C61.0164 60.1523 49.9447 79.3308 49.991 95.0582Z" fill="white"/>
</mask>
<g mask="url(#mask2_229_24599)">
<path d="M49.991 95.0582L31.0441 84.056C30.9978 68.3287 42.0694 49.1501 55.7585 41.2517L74.7054 52.2539C61.0164 60.1523 49.9447 79.3308 49.991 95.0582Z" fill="#038F5E"/>
</g>
<path d="M74.7053 52.2543C88.3943 44.3559 99.5354 50.7024 99.5818 66.4298V75.6021L50.0141 104.231V95.0585C49.9446 79.3312 61.0162 60.1527 74.7053 52.2543Z" fill="#08EC9C"/>
<path d="M67.1082 3.08051L86.0551 14.0827C83.1366 12.3918 79.06 12.6234 74.5897 15.2176L55.6428 4.21545C60.1131 1.62125 64.1897 1.38965 67.1082 3.08051Z" fill="#03B073"/>
<mask id="mask3_229_24599" style="mask-type:luminance" maskUnits="userSpaceOnUse" x="55" y="2" width="32" height="14">
<path d="M67.1082 3.08051L86.0551 14.0827C83.1366 12.3918 79.06 12.6234 74.5897 15.2176L55.6428 4.21545C60.1131 1.62125 64.1897 1.38965 67.1082 3.08051Z" fill="white"/>
</mask>
<g mask="url(#mask3_229_24599)">
<path d="M74.5897 15.2176L55.6428 4.21545C60.1131 1.62125 64.1897 1.38965 67.1082 3.08051L86.0551 14.0827C83.1366 12.3918 79.06 12.6234 74.5897 15.2176Z" fill="#03B073"/>
</g>
<path d="M63.2403 53.3664L44.2934 42.3642C41.398 40.6733 39.6145 37.1063 39.5914 32.0337C39.5682 21.7959 46.7718 9.35765 55.643 4.21558L74.5899 15.2178C65.6955 20.3367 58.5151 32.7981 58.5383 43.0359C58.5383 48.1085 60.345 51.6755 63.2403 53.3664Z" fill="#03B073"/>
<mask id="mask4_229_24599" style="mask-type:luminance" maskUnits="userSpaceOnUse" x="39" y="4" width="36" height="50">
<path d="M63.2403 53.3664L44.2934 42.3642C41.398 40.6733 39.6145 37.1063 39.5914 32.0337C39.5682 21.7959 46.7718 9.35765 55.643 4.21558L74.5899 15.2178C65.6955 20.3367 58.5151 32.7981 58.5383 43.0359C58.5383 48.1085 60.345 51.6755 63.2403 53.3664Z" fill="white"/>
</mask>
<g mask="url(#mask4_229_24599)">
<path d="M63.2403 53.3664L44.2934 42.3642C41.398 40.6733 39.6145 37.1063 39.5914 32.0337C39.5682 21.7959 46.7718 9.35765 55.643 4.21558L74.5899 15.2178C65.6955 20.3367 58.5151 32.7981 58.5383 43.0359C58.5383 48.1085 60.345 51.6755 63.2403 53.3664Z" fill="#03B073"/>
</g>
<path d="M74.5896 15.2178C83.484 10.0758 90.7107 14.1987 90.757 24.4365C90.7802 34.6512 83.5998 47.1126 74.7054 52.2546C65.811 57.3735 58.5843 53.2507 58.538 43.036C58.5149 32.7982 65.7184 20.3599 74.5896 15.2178Z" fill="#08EC9C"/>
</svg>
