<svg width="128" height="128" viewBox="0 0 128 128" fill="none" xmlns="http://www.w3.org/2000/svg">
<path d="M59.3239 14.8152C59.3239 14.8152 57.8392 4.83573 50.2255 5.00206C42.6117 5.16838 40.319 10.5169 37.6454 18.7192C34.9717 26.9216 36.3052 49.3228 37.6454 51.1436C38.9855 52.9644 40.3849 58.6632 47.7161 54.3825C55.0474 50.1019 59.3239 14.8152 59.3239 14.8152Z" fill="#3F13C2"/>
<path d="M89.4527 25.2104C89.4527 25.2104 82.398 8.18994 64.2006 8.18994C46.0033 8.18994 42.6263 25.8094 42.934 29.5394C43.2416 33.2626 44.438 45.0853 48.0474 48.2699C70.7428 68.3132 94.0533 46.6609 89.4527 25.2104Z" fill="#2A0B88"/>
<mask id="mask0_229_24708" style="mask-type:luminance" maskUnits="userSpaceOnUse" x="20" y="92" width="89" height="36">
<path d="M108.757 95.5584L108.623 103.799C108.391 110.328 103.89 116.708 95.1604 121.41C77.5853 130.878 49.5302 129.968 32.4953 119.375C23.9233 114.045 19.7755 107.28 20.0093 100.668L20.145 92.4269C19.9112 99.039 24.0589 105.805 32.6302 111.134C49.6659 121.727 77.721 122.637 95.2952 113.17C104.025 108.467 108.527 102.087 108.757 95.5584Z" fill="white"/>
</mask>
<g mask="url(#mask0_229_24708)">
<path d="M108.758 95.5586L108.623 103.8C108.521 106.661 107.6 109.494 105.862 112.169L105.996 103.928C107.735 101.253 108.656 98.4205 108.758 95.5586Z" fill="#E4E4FF"/>
<path d="M105.996 103.928L105.862 112.169C103.634 115.599 100.063 118.77 95.1605 121.41C87.2642 125.665 77.2527 127.823 67.0756 127.95L67.2113 119.709C77.3884 119.583 87.3999 117.424 95.2953 113.17C100.199 110.529 103.768 107.358 105.996 103.928Z" fill="#E4E4FF"/>
<path d="M67.2113 119.709L67.0756 127.95C61.9866 128.014 56.8567 127.568 51.9282 126.624L52.0638 118.383C56.9915 119.328 62.1223 119.773 67.2113 119.709Z" fill="#E4E4FF"/>
<path d="M52.0637 118.384L51.9281 126.625C44.7759 125.253 38.0494 122.828 32.4946 119.375C23.9234 114.045 19.7755 107.28 20.0093 100.668L20.145 92.4267C19.9112 99.0388 24.059 105.804 32.6302 111.134C38.1851 114.588 44.9115 117.012 52.0637 118.384Z" fill="#E4E4FF"/>
</g>
<path d="M96.2715 76.8513C113.307 87.4439 112.868 103.704 95.2953 113.17C77.7211 122.637 49.6661 121.727 32.6303 111.134C15.5954 100.542 16.0349 84.2816 33.609 74.8145C51.1815 65.3482 79.2366 66.2586 96.2715 76.8513Z" fill="#6634FA"/>
<path d="M98.5846 93.2786C97.7706 97.5519 94.5264 101.704 88.8478 104.981C69.1831 116.333 35.0467 109.888 31.224 93.8068C29.8971 87.6666 30.9433 80.6305 32.928 76.9494C36.3573 70.5882 43.0249 64.8575 53.6721 61.8241C55.15 61.4035 56.6458 61.0494 58.1527 60.7499C59.5939 60.464 61.2296 60.4341 62.6205 59.9853C65.595 59.0262 69.2325 58.9784 72.3265 59.3752C77.9241 60.0919 86.1455 63.6544 88.87 65.3627C97.7825 70.9517 100.314 82.9019 98.5846 93.2786Z" fill="#EE522E"/>
<path d="M50.8358 71.5297C51.0773 72.2482 51.4152 72.9555 51.8615 73.6484C53.1269 75.6135 54.9325 77.1212 56.8063 78.4327C61.0744 81.4218 63.4442 84.0339 70.9878 89.2778C75.2984 92.2745 78.2172 90.7427 79.6029 89.2776C81.2617 87.525 78.5444 75.9591 78.506 73.546C78.4574 70.4742 77.9181 67.4322 77.8746 64.3596C77.8345 61.6077 78.7544 59.1093 78.3252 56.378C77.5145 51.2182 74.6108 46.1156 70.9878 42.4038C67.0482 38.3686 62.8116 36.4513 57.2721 36.7056C48.2308 37.122 52.1465 41.7476 52.7199 45.1257C53.8599 51.8428 52.7404 58.2671 50.9186 64.6403C50.2496 66.9774 50.0866 69.3069 50.8358 71.5297Z" fill="#FFAC8F"/>
<path d="M55.4844 52.5406C55.4136 52.4109 55.3386 52.2829 55.2592 52.1574C54.4767 50.9159 53.3231 49.9628 52.2445 48.967C51.2078 48.0079 50.4808 46.9413 49.6463 45.821C48.9039 44.8243 48.7768 43.564 48.5823 42.3601C48.0771 39.2405 48.0165 36.0287 48.6215 32.9176L48.6582 32.7333C49.5652 28.2715 51.9357 24.0205 55.6167 21.3412C59.2304 18.7105 63.8065 17.7523 68.2692 17.4903C73.7387 17.1695 79.2629 17.8 84.5199 19.3453C86.1352 19.8197 88.4911 20.4563 88.8094 22.3164C89.1933 24.5546 89.4715 26.8295 89.8674 29.0727C90.0978 30.3791 90.3163 31.7085 90.1593 33.0251C89.9749 34.5704 89.2812 36.0184 89.0739 37.5612C88.8239 39.4239 89.2957 41.2969 89.5389 43.1604C90.4861 50.4218 87.9663 57.6389 85.4867 64.53C85.0532 65.734 84.5762 67.0011 83.5762 67.7998C81.495 69.4611 78.6058 68.9227 76.2081 68.5157C73.4494 68.0481 70.7428 67.2759 68.1514 66.2195C64.5318 64.7433 60.5376 62.9395 58.2525 59.6296C57.5647 58.6313 57.0178 57.5297 56.6654 56.3684C56.4905 55.7924 56.4998 55.2156 56.3232 54.6311C56.1065 53.9109 55.8462 53.201 55.4844 52.5406Z" fill="#FFC8B5"/>
<path d="M50.6199 38.696C46.3629 38.2958 45.141 43.5597 47.9611 47.7271C48.782 48.9422 50.265 50.0412 51.3563 51.0216C58.8251 57.7318 60.931 50.7418 58.5623 48.4627C53.062 43.1655 55.976 39.1994 50.6199 38.696Z" fill="#FFAC8F"/>
<path d="M75.2017 16.9443C75.2017 16.9443 75.343 26.9332 68.9478 30.4574C62.5526 33.9816 55.5218 36.7996 57.4364 44.7849C59.3589 52.7703 57.9699 55.5016 54.2819 58.8457C50.5939 62.1897 47.9808 62.1897 47.9808 62.1897C47.9808 62.1897 56.024 56.6116 51.9986 50.7163C47.981 44.821 44.5831 32.1007 47.9808 26.4288C53.5991 17.0597 70.5799 11.3589 75.2017 16.9443Z" fill="#3F13C2"/>
<path d="M89.2319 33.1379C89.2319 33.1379 88.6505 27.2753 83.6259 24.5398C78.6013 21.8044 74.1422 16.5997 74.1422 16.5997C74.1422 16.5997 81.7468 13.7091 86.9386 18.3297C92.1304 22.9504 89.2319 33.1379 89.2319 33.1379Z" fill="#3F13C2"/>
</svg>
