<svg width="128" height="128" viewBox="0 0 128 128" fill="none" xmlns="http://www.w3.org/2000/svg">
<path d="M27.9605 43.6412V98.4631L30.8009 96.8224V44.8419L95.4003 7.54495L92.5599 6.35168L27.9605 43.6412Z" fill="url(#paint0_linear_229_22622)"/>
<path d="M30.8009 44.8419V99.6564L95.4003 62.3602V7.54492L30.8009 44.8419Z" fill="#E6EFFF"/>
<path d="M109.827 43.5077L91.4985 53.9645V60.2068L108.716 50.3185L106.556 48.7733L109.827 43.5077Z" fill="#6634FA"/>
<path d="M109.827 30.0669L91.4985 40.268V46.3587L108.716 36.7122L106.556 35.2037L109.827 30.0669Z" fill="#EE522E"/>
<path d="M52.6148 41.4656L52.7138 85.0555L58.8091 81.3953L58.7105 37.8054L52.6148 41.4656Z" fill="#F1522D"/>
<path d="M44.3615 55.869L44.4544 90.0145L50.5472 86.3561L50.4543 52.2107L44.3615 55.869Z" fill="#6634FA"/>
<path d="M36.1065 73.0293L36.1926 94.9756L42.2854 91.3173L42.1993 69.371L36.1065 73.0293Z" fill="#04C984"/>
<path d="M61.7659 57.7556L61.8521 79.7019L67.9449 76.0436L67.8587 54.0973L61.7659 57.7556Z" fill="#04C984"/>
<path d="M27.9605 43.6411V98.463L30.8009 99.6563V44.8418L27.9605 43.6411Z" fill="#2A0B88"/>
<path d="M30.8009 97.3054V99.6578L33.6413 98.7628V98.5068L98.2407 61.2099L95.401 60.0166L30.8009 97.3054Z" fill="#6634FA"/>
<path d="M33.6413 98.5069V100.851L98.2407 63.5542V61.21L33.6413 98.5069Z" fill="#BFB0FE"/>
<path d="M30.8009 97.3054V99.6578L33.6414 100.851V98.5069L30.8009 97.3054Z" fill="#2A0B88"/>
<path d="M27.9604 41.2888V43.6412L33.6413 44.2104V43.9536L98.2407 6.65739L92.5598 4L27.9604 41.2888Z" fill="#6634FA"/>
<path d="M33.6413 43.9537V46.2979L98.2407 9.0017V6.65747L33.6413 43.9537Z" fill="#BFB0FE"/>
<path d="M27.9605 41.2887V43.6411L33.6414 46.2977V43.9535L27.9605 41.2887Z" fill="#2A0B88"/>
<path d="M27.9604 117.991V120.343L33.6413 120.912V120.656L98.2407 83.3597L92.5598 80.7023L27.9604 117.991Z" fill="#6634FA"/>
<path d="M33.6413 120.656V123L98.2407 85.7037V83.3595L33.6413 120.656Z" fill="#BFB0FE"/>
<path d="M27.9605 117.991V120.343L33.6414 123V120.656L27.9605 117.991Z" fill="#2A0B88"/>
<path d="M90.603 27.7704L82.1254 32.617V24.4355L90.603 19.589V27.7704Z" fill="#04C984"/>
<path d="M90.6619 38.6558L83.7599 42.6014V34.42L90.6619 30.4744V38.6558Z" fill="#6634FA"/>
<path d="M84.5524 50.9378L77.6504 54.8834V48.2678L84.5524 44.3221V50.9378Z" fill="#FBBC04"/>
<path d="M78.009 34.6591L70.935 38.6092V30.4278L78.009 26.4777V34.6591Z" fill="#F1522D"/>
<path d="M69.4781 39.4297L62.4041 43.3791V35.1976L69.4781 31.2483V39.4297Z" fill="#FBBC04"/>
<path d="M78.009 45.5231L70.935 49.4725V41.291L78.009 37.3409V45.5231Z" fill="#04C984"/>
<path d="M87.5756 62.6861L80.5015 66.6362V58.454L87.5756 54.5046V62.6861Z" fill="#F1522D"/>
<path d="M41.3118 96.4224V114.899L38.2569 116.663V98.1863L41.3118 96.4224Z" fill="#BFB0FE"/>
<path d="M38.2569 98.1863V116.663L35.9877 115.655V99.3929L38.2569 98.1863Z" fill="#3B1BC0"/>
<path d="M86.9191 70.1074V88.5837L83.8635 90.3469V71.8713L86.9191 70.1074Z" fill="#BFB0FE"/>
<path d="M83.8636 71.8713V90.3469L81.5943 89.3399V73.078L83.8636 71.8713Z" fill="#3B1BC0"/>
<path d="M36.921 53.9198L36.9198 47.5806L20.144 57.2157L21.5749 59.5569L19 64.2797L36.921 53.9198Z" fill="#EE522E"/>
<path d="M36.921 68.5824L36.9198 62.2432L20.144 71.8783L21.5749 74.2195L19 78.9423L36.921 68.5824Z" fill="#04C984"/>
<path d="M80.976 119.698C80.7162 119.967 79.8334 120.56 79.0088 120.532C78.8889 120.532 78.7655 120.515 78.65 120.482C77.7385 120.222 72.9542 117.908 72.5962 117.126C72.2373 116.346 71.6847 114.296 71.8785 114.032C72.0722 113.772 72.5632 113.513 72.922 113.612C73.2765 113.706 76.2092 114.882 77.4135 114.816C77.6359 114.804 77.8836 114.87 78.1477 114.989C79.3025 115.501 80.6719 116.997 80.6719 116.997C80.6719 116.997 81.2724 119.389 80.976 119.698Z" fill="#2A0B88"/>
<g opacity="0.5">
<path d="M79.0088 120.532C78.8889 120.532 78.7655 120.515 78.65 120.482C77.7385 120.222 72.9542 117.908 72.5962 117.126C72.2373 116.346 71.6847 114.296 71.8785 114.032C72.0722 113.772 72.5632 113.513 72.922 113.612C73.2765 113.706 76.2092 114.882 77.4135 114.816C77.6359 114.804 77.8836 114.87 78.1477 114.989C77.6733 115.9 77.2406 116.696 77.2406 116.696L77.0677 116.729L77.8922 118.593C77.8905 118.593 78.0808 119.686 79.0088 120.532Z" fill="#2A0B88"/>
</g>
<path d="M90.5273 114.375C90.5394 114.458 90.5229 114.536 90.4899 114.611C90.3535 114.899 89.9286 115.612 89.051 115.638C88.4862 115.654 88.0161 115.654 87.5373 115.534C87.0794 115.419 86.6137 115.196 86.0358 114.78C85.4919 114.388 84.6751 113.015 83.8131 112.43C82.9555 111.848 81.4001 110.759 81.4001 110.759C81.4001 110.759 81.4332 109.885 81.5114 109.708C81.5939 109.531 83.9113 109.692 84.3979 109.836C84.8107 109.959 86.625 110.925 87.1819 111.226C87.2853 111.28 87.347 111.313 87.347 111.313L90.2501 112.336L90.5273 114.375Z" fill="#2A0B88"/>
<g opacity="0.5">
<path d="M87.5373 115.533C87.0794 115.417 86.6137 115.195 86.0358 114.778C85.4919 114.387 84.6751 113.014 83.8131 112.428C82.9555 111.847 81.4001 110.758 81.4001 110.758C81.4001 110.758 81.4332 109.884 81.5114 109.707C81.5939 109.529 83.9113 109.69 84.3979 109.834C84.8107 109.958 86.625 110.923 87.1819 111.225L86.2539 112.639C86.2548 112.637 86.3 114.115 87.5373 115.533Z" fill="#2A0B88"/>
</g>
<path d="M93.4347 88.3181C93.3356 88.8134 90.5316 90.8623 90.5316 90.8623L90.2761 90.3349L89.4472 88.6396L91.3606 83.6868L92.8125 83.9301L93.2209 84.3428C93.2209 84.3428 93.5381 87.8193 93.4347 88.3181Z" fill="#FACE92"/>
<path opacity="0.75" d="M92.8117 83.9301L92.6344 88.0626L90.2753 90.3349L89.4464 88.6396L91.3606 83.6868L92.8117 83.9301Z" fill="#FBBC04"/>
<path d="M94.5234 83.9721C94.486 84.2563 94.2844 84.5413 93.9091 84.7603C93.2947 85.1148 92.3998 85.206 91.6447 85.0322C91.3849 84.9705 91.1416 84.8836 90.9313 84.7603C90.5185 84.5213 90.317 84.212 90.317 83.9026C90.317 83.8653 90.3169 83.8244 90.3248 83.7871C90.3369 83.7045 90.3665 83.6263 90.4073 83.5481C90.4403 83.4534 90.4777 83.3335 90.5229 83.1893C90.6958 82.6653 90.9556 81.8242 91.2241 80.8258C91.7767 78.7638 92.3711 76.0172 92.3007 73.8927C92.2303 71.769 91.5751 69.9374 91.0017 68.7131C90.5151 67.6947 90.0858 67.0925 90.0858 67.0925V59.7849C90.1275 59.7971 90.3743 59.884 90.7123 60.0777C90.9478 60.2142 91.2198 60.3949 91.4917 60.6425C92.1973 61.2821 95.6321 70.0416 95.9415 72.1983C96.2517 74.3541 94.5234 83.9721 94.5234 83.9721Z" fill="#FFED0E"/>
<g opacity="0.25">
<path d="M93.4555 73.3929C93.4885 76.0405 92.0861 82.9319 91.6447 85.0312C91.3849 84.9695 91.1416 84.8826 90.9313 84.7592C90.5185 84.5203 90.317 84.2109 90.317 83.9016C90.317 83.8642 90.3169 83.8234 90.3248 83.786C90.3369 83.7035 90.3665 83.6253 90.4073 83.5471C90.4403 83.4524 90.4777 83.3325 90.5229 83.1882C90.6958 82.6643 90.9556 81.8232 91.2241 80.8248C91.7767 78.7628 92.3711 76.0162 92.3007 73.8917C92.2303 71.768 91.5751 69.9363 91.0017 68.712C90.5151 67.6937 90.0858 67.0915 90.0858 67.0915V65.3597L91.2076 67.0011C91.2076 67.0011 93.4181 70.2509 93.4555 73.3929Z" fill="#BD221E"/>
</g>
<path d="M91.3562 84.8705C91.3562 84.8705 90.8079 92.5083 90.8487 95.2836C90.8861 98.0633 91.0503 99.7377 91.1329 100.348C91.2154 100.962 90.8687 112.196 90.8687 112.196C90.8687 112.563 90.6254 112.931 90.1388 113.215C89.3968 113.64 88.3037 113.742 87.3965 113.52C87.1124 113.449 86.8439 113.35 86.6093 113.215C86.1227 112.931 85.8794 112.563 85.8794 112.196C85.8629 112.196 85.9863 101.247 85.8629 99.4901C85.776 98.2527 85.0252 93.9351 84.5925 91.5056L80.9761 100.962V117.149C80.9761 117.52 80.7328 117.888 80.2462 118.167C79.545 118.576 78.5266 118.687 77.6481 118.51C77.3058 118.439 76.9886 118.328 76.7158 118.167C76.2292 117.887 75.9859 117.52 75.9859 117.149L75.4541 100.777C75.4541 100.777 75.5653 88.8875 77.6403 81.9422L80.2384 81.5625L90.4534 80.061C90.4534 80.061 91.6238 83.1839 91.3562 84.8705Z" fill="#3F13C2"/>
<g opacity="0.5">
<path d="M87.5583 100.349L87.3975 113.522C87.1134 113.451 86.8449 113.352 86.6103 113.217C86.1237 112.933 85.8804 112.565 85.8804 112.198C85.8639 112.198 85.9873 101.249 85.8639 99.4923C85.777 98.2549 85.0262 93.9373 84.5935 91.5078L86.1854 88.6577L87.5583 100.349Z" fill="#2A0B88"/>
</g>
<g opacity="0.5">
<path d="M77.6683 99.3259C77.458 101.974 77.5901 114.131 77.6474 118.511C77.3051 118.44 76.9879 118.329 76.7151 118.168C76.2285 117.888 75.9852 117.521 75.9852 117.15L75.4534 100.778C75.4534 100.778 75.5646 88.8885 77.6396 81.9432L80.2377 81.5635L81.0588 84.1164C81.0588 84.1164 77.9238 96.084 77.6683 99.3259Z" fill="#2A0B88"/>
</g>
<path d="M61.861 56.7731L59.9059 60.406L59.5844 59.783C59.5844 59.7787 58.0169 56.7192 58.0169 56.7192C57.897 56.4881 57.6667 56.3316 57.4069 56.323C57.2957 56.3186 57.1593 56.3065 56.9907 56.2778C56.3598 56.1744 55.968 53.6632 56.0879 53.0654C56.1252 52.8794 56.3268 52.624 56.591 52.3564C57.1028 51.8367 57.8405 51.2763 58.0299 51.1312L58.0751 51.0982C58.0751 51.0982 56.7926 49.3334 56.5536 48.6356C56.4832 48.4297 56.4919 48.2855 56.5493 48.1908C56.677 47.9553 57.048 47.9761 57.1844 48.0048C57.3539 48.0465 60.389 51.0773 61.1763 51.8645C61.2962 51.9879 61.3744 52.1452 61.3909 52.3181C61.4613 52.9611 61.6177 54.5903 61.5143 55.0769C61.3822 55.6887 61.7949 56.7322 61.861 56.7731Z" fill="#FACE92"/>
<path d="M91.451 82.5741C91.451 82.5741 91.1461 82.8417 90.523 83.1884C89.3726 83.8314 87.1334 84.7559 83.7064 84.7881C82.0033 84.8046 80.6956 84.689 79.7059 84.4952C77.6231 84.0868 76.9427 83.3326 76.9019 82.7383C76.848 81.8685 78.2548 76.8618 77.8707 74.6512C77.7221 73.7936 77.1695 72.5146 76.6951 71.0756C76.5586 70.6594 76.4309 70.2302 76.324 69.7931C75.9739 68.395 75.8166 66.9231 76.2458 65.5702C76.4153 65.0341 76.6751 64.5144 77.0539 64.0278C77.0539 64.0278 78.8561 62.3083 82.5759 61.0588C83.5083 60.7416 84.5596 60.4566 85.7353 60.2385C87.0343 59.9908 88.4863 59.8258 90.086 59.7849C90.1068 59.8136 90.1807 59.9248 90.2876 60.1064C90.7003 60.832 91.6031 62.7297 91.3928 65.22C91.2894 66.4321 91.1374 67.5748 91.0009 68.7131C90.7655 70.5934 90.5682 72.4659 90.6708 74.6521C90.7698 76.7714 91.034 79.2218 91.2234 80.8258C91.352 81.8807 91.451 82.5741 91.451 82.5741Z" fill="#FFED0E"/>
<g opacity="0.25">
<path d="M79.7057 84.4952C77.6229 84.0868 76.9426 83.3325 76.9017 82.7382C76.8479 81.8684 78.2547 76.8617 77.8706 74.6512C77.722 73.7936 77.1694 72.5145 76.6949 71.0756C76.5585 70.6594 76.4308 70.2301 76.3239 69.7931L79.5737 69.6115C79.5737 69.6115 79.9534 73.426 80.3487 76.0041C80.6624 78.0287 80.0064 82.6192 79.7057 84.4952Z" fill="#BD221E"/>
</g>
<path d="M80.3374 67.8471C80.1288 70.8014 78.8602 71.0795 77.105 71.0795H76.6966C74.2984 71.0187 66.704 70.5581 65.9915 70.0976C65.279 69.6371 59.631 61.0782 58.8577 59.9052C58.8229 59.8704 58.7968 59.8183 58.7708 59.7748C58.6665 59.5924 58.6144 59.3664 58.6144 59.0971C58.6144 58.819 58.6752 58.5149 58.7795 58.2108C58.9011 57.8632 59.0836 57.507 59.3182 57.1855C59.353 57.1246 59.3877 57.0725 59.4312 57.0204C59.7613 56.5946 60.1697 56.221 60.6042 55.969C61.4557 55.4737 62.1856 55.5953 62.4637 56.2036L68.3289 64.5973C68.5548 64.7016 69.7974 65.2403 71.4049 65.2577C73.1601 65.2838 74.8892 64.9102 76.4794 64.1716C76.6618 64.0847 76.853 64.0412 77.0528 64.0239C77.3309 64.0152 77.6089 64.0673 77.8609 64.189C78.1042 64.3019 78.3736 64.4583 78.6517 64.6495C79.5293 65.2577 80.4503 66.283 80.3374 67.8471Z" fill="#FFED0E"/>
<g opacity="0.25">
<path d="M65.9889 70.0979C65.2756 69.6399 59.6293 61.0785 58.8586 59.9072C58.8256 59.8655 58.7969 59.8203 58.7682 59.7751C58.6692 59.5935 58.6153 59.3667 58.6153 59.0991C58.6153 58.4396 58.9368 57.668 59.4321 57.0206C59.4321 57.0206 67.2133 69.9623 65.9889 70.0979Z" fill="#BD221E"/>
</g>
<g opacity="0.25">
<path d="M83.7184 61.2602C80.142 63.9382 80.8032 63.7661 78.65 64.6498C78.0401 64.9009 77.2476 65.2068 76.2457 65.5692C76.0685 65.6308 75.8825 65.6969 75.6888 65.7629C72.4842 66.8847 68.7235 64.8271 68.356 64.6168C68.5584 64.7037 69.7957 65.2355 71.4032 65.2563C73.1559 65.2807 74.8885 64.9053 76.476 64.1719C76.662 64.085 76.8557 64.0399 77.0538 64.0277C77.0538 64.0277 78.856 62.3081 82.5758 61.0586L83.7184 61.2602Z" fill="#BD221E"/>
</g>
<g opacity="0.25">
<path d="M90.7124 60.0768C90.5968 60.0854 90.4526 60.0933 90.2875 60.1054C90.2215 60.1133 90.1554 60.1176 90.0859 60.1219C88.7087 60.2453 86.3209 60.5382 86.3209 60.5382L85.7352 60.2375C87.0343 59.9899 88.4862 59.8248 90.0859 59.7839C90.1276 59.7961 90.3744 59.883 90.7124 60.0768Z" fill="#BD221E"/>
</g>
<path d="M86.943 59.3183C86.9308 59.6485 86.9265 60.036 86.9221 60.3949C86.9178 60.8441 86.91 60.7459 86.91 60.6469C86.9021 60.8076 86.8361 61.1708 86.3738 61.4263C85.4502 61.9381 84.2624 62.0493 83.2848 62.0284C83.0789 62.0241 82.8851 61.9998 82.7035 61.958C82.011 61.8051 81.5366 61.4671 81.487 61.4593C81.5035 61.3646 81.5452 60.7746 81.5983 59.6076C81.6061 59.4634 81.5157 59.327 81.3793 59.2861C80.9544 59.154 80.1341 58.8404 79.6345 57.8055C79.28 57.0712 79.0741 53.3349 79.0697 53.2897C79.0654 53.2315 79.1357 53.2445 79.2722 53.3106C79.4494 53.3975 79.7301 53.5782 80.0846 53.8258C80.142 53.8667 80.2045 53.9127 80.2705 53.9579C82.4733 55.528 86.943 59.194 86.943 59.3183Z" fill="#FACE92"/>
<path d="M88.7661 54.6209C88.6262 55.1944 88.0571 56.4812 87.9493 57.0625C87.859 57.57 86.9431 59.3182 86.9431 59.3182C86.102 59.8335 84.6918 60.0108 83.9775 59.9699C83.8124 59.9578 83.6847 59.9369 83.6108 59.9082C83.57 59.8917 83.4909 59.8587 83.3962 59.8135C82.6333 59.4625 82.0728 58.7821 81.8747 57.9662L81.8295 57.7768C81.7592 57.4926 81.747 57.1998 81.7679 56.9105C81.78 56.7575 81.7844 56.589 81.7757 56.3987C81.7261 55.4003 81.2682 55.2561 80.9224 55.19C80.5679 55.1118 80.5097 56.2006 80.5097 56.2006L80.0309 56.0476L79.9605 54.4966C79.9605 54.3359 79.9032 54.1829 79.7998 54.0595C79.4244 53.6303 78.1045 53.354 78.1088 51.697C78.1088 50.9419 78.9135 48.3064 82.9218 48.2656C83.4536 48.2613 84.0436 48.2986 84.6952 48.3977C89.0381 49.045 89.1128 53.1732 88.7661 54.6209Z" fill="#2A0B88"/>
<g opacity="0.5">
<path d="M83.9783 59.969C83.8132 59.9568 83.6855 59.936 83.6116 59.9073C83.5708 59.8908 83.4917 59.8578 83.397 59.8126C82.6341 59.4615 82.0736 58.7812 81.8755 57.9653L81.8303 57.7758C81.76 57.4917 81.7478 57.1989 81.7686 56.9095C81.7808 56.7566 81.7852 56.588 81.7765 56.3977C81.7269 55.3993 81.269 55.2551 80.9232 55.1891C80.5687 55.1109 80.5105 56.1996 80.5105 56.1996L80.0317 56.0467L79.9613 54.4957C79.9613 54.3349 79.9039 54.182 79.8005 54.0586C79.4252 53.6294 78.1053 53.353 78.1096 51.696C78.1096 50.9409 78.9143 48.3055 82.9226 48.2646C81.6566 48.9207 79.4295 50.3144 80.5183 51.63C82.0033 53.4243 82.2648 55.2864 82.3865 57.0199C82.5142 58.8394 83.2111 59.3425 83.9783 59.969Z" fill="#2A0B88"/>
</g>
<defs>
<linearGradient id="paint0_linear_229_22622" x1="72.5603" y1="15.0177" x2="37.1164" y2="60.3083" gradientUnits="userSpaceOnUse">
<stop stop-color="#EFEFEF"/>
<stop offset="1" stop-color="#FDFDFD"/>
</linearGradient>
</defs>
</svg>
