<svg width="128" height="128" viewBox="0 0 128 128" fill="none" xmlns="http://www.w3.org/2000/svg">
<mask id="mask0_229_22828" style="mask-type:luminance" maskUnits="userSpaceOnUse" x="33" y="34" width="26" height="16">
<path d="M51.0219 49.1194L58.3239 45.2525L40.4227 34.9132L33.121 38.7799L51.0219 49.1194Z" fill="white"/>
</mask>
<g mask="url(#mask0_229_22828)">
<path d="M51.0219 49.1194L58.3239 45.2525L40.4227 34.9132L33.121 38.7799L51.0219 49.1194Z" fill="#B02F11"/>
</g>
<mask id="mask1_229_22828" style="mask-type:luminance" maskUnits="userSpaceOnUse" x="10" y="46" width="41" height="28">
<path d="M50.8212 65.7078L44.0644 69.5775V73.33L19.4783 59.1285L10.3193 50.0919L17.3939 46.4001L50.8212 65.7078Z" fill="white"/>
</mask>
<g mask="url(#mask1_229_22828)">
<path d="M50.8212 65.7078L44.0644 69.5775V73.33L19.4783 59.1285L10.3193 50.0919L17.3939 46.4001L50.8212 65.7078Z" fill="#05B779"/>
</g>
<mask id="mask2_229_22828" style="mask-type:luminance" maskUnits="userSpaceOnUse" x="44" y="65" width="7" height="17">
<path d="M44.0645 69.5826V81.1093L50.8213 77.1267V65.7084L44.0645 69.5826Z" fill="white"/>
</mask>
<g mask="url(#mask2_229_22828)">
<path d="M44.0645 69.5826V81.1093L50.8213 77.1267V65.7084L44.0645 69.5826Z" fill="#08EC9C"/>
</g>
<mask id="mask3_229_22828" style="mask-type:luminance" maskUnits="userSpaceOnUse" x="44" y="10" width="60" height="81">
<path d="M89.2792 88.3746C88.2736 88.9048 87.242 89.3372 86.1949 89.6718C81.1563 91.2992 75.7067 90.7449 70.4466 88.3831V88.568L50.0543 76.7893V73.165L50.1609 73.1042L56.8678 69.1997L70.4466 77.0435V77.0456L70.4726 77.0609V77.0065C74.169 79.0902 78.0374 79.8855 81.6426 79.1141C82.7809 78.873 83.8929 78.4732 84.9634 77.9104C94.5092 72.8869 97.2456 56.6778 91.073 41.7072C84.8963 26.7366 72.1491 18.6712 62.6014 23.6947C61.3026 24.377 60.1319 25.2678 59.0896 26.3325C55.4517 30.0545 53.4164 35.9189 53.2079 42.5959L47.396 39.2411L44.6442 37.6506C45.4739 28.4858 48.8903 20.5681 54.5416 15.7705C55.6969 14.7863 56.9457 13.9345 58.2858 13.2305C72.0427 5.99294 90.1349 16.9482 98.6945 37.6984C107.25 58.4486 103.036 81.1392 89.2792 88.3746Z" fill="white"/>
</mask>
<g mask="url(#mask3_229_22828)">
<path d="M89.2792 88.3746C88.2736 88.9048 87.242 89.3372 86.1949 89.6718C81.1563 91.2992 75.7067 90.7449 70.4466 88.3831V88.568L50.0543 76.7893V73.165L50.1609 73.1042L56.8678 69.1997L70.4466 77.0435V77.0456L70.4726 77.0609V77.0065C74.169 79.0902 78.0374 79.8855 81.6426 79.1141C82.7809 78.873 83.8929 78.4732 84.9634 77.9104C94.5092 72.8869 97.2456 56.6778 91.073 41.7072C84.8963 26.7366 72.1491 18.6712 62.6014 23.6947C61.3026 24.377 60.1319 25.2678 59.0896 26.3325C55.4517 30.0545 53.4164 35.9189 53.2079 42.5959L47.396 39.2411L44.6442 37.6506C45.4739 28.4858 48.8903 20.5681 54.5416 15.7705C55.6969 14.7863 56.9457 13.9345 58.2858 13.2305C72.0427 5.99294 90.1349 16.9482 98.6945 37.6984C107.25 58.4486 103.036 81.1392 89.2792 88.3746Z" fill="#C63B1B"/>
</g>
<mask id="mask4_229_22828" style="mask-type:luminance" maskUnits="userSpaceOnUse" x="40" y="34" width="19" height="26">
<path d="M49.3734 55.5919L58.3239 45.2524L40.4227 34.9132L42.0714 59.4586L49.3734 55.5919Z" fill="white"/>
</mask>
<g mask="url(#mask4_229_22828)">
<path d="M49.3734 55.5919L58.3239 45.2524L40.4227 34.9132L42.0714 59.4586L49.3734 55.5919Z" fill="#B02F11"/>
</g>
<mask id="mask5_229_22828" style="mask-type:luminance" maskUnits="userSpaceOnUse" x="41" y="38" width="13" height="9">
<path d="M46.3766 46.4363L53.2183 42.3038L46.9271 38.5521L41.6605 43.7125L46.3766 46.4363Z" fill="white"/>
</mask>
<g mask="url(#mask5_229_22828)">
<path d="M46.3766 46.4363L53.2183 42.3038L46.9271 38.5521L41.6605 43.7125L46.3766 46.4363Z" fill="#C63B1B"/>
</g>
<mask id="mask6_229_22828" style="mask-type:luminance" maskUnits="userSpaceOnUse" x="10" y="50" width="35" height="32">
<path d="M10.3193 50.0925L44.0644 69.5826V81.1093L10.3193 61.6171V50.0925Z" fill="white"/>
</mask>
<g mask="url(#mask6_229_22828)">
<path d="M10.3193 50.0925L44.0644 69.5826V81.1093L10.3193 61.6171V50.0925Z" fill="#038F5E"/>
</g>
<mask id="mask7_229_22828" style="mask-type:luminance" maskUnits="userSpaceOnUse" x="37" y="14" width="60" height="81">
<path d="M86.1949 89.6718C85.0397 90.6582 83.7884 91.51 82.4483 92.2139C75.8805 95.6687 68.3246 94.9799 61.2896 91.0558V91.058L60.8639 90.8125C60.7707 90.756 60.6749 90.7038 60.5796 90.6474L50.0543 84.5679V73.165L50.1609 73.1042L61.2896 79.5313V79.5422L63.6417 80.9024V80.8459C68.507 83.5879 73.6695 84.1005 78.1328 81.7519C79.4318 81.0696 80.6022 80.1788 81.6426 79.1141C88.2604 72.3437 89.5768 58.4812 84.2423 45.5466C78.7583 32.2534 68.0922 24.4074 59.0896 26.3325C57.9537 26.5737 56.8439 26.9735 55.7729 27.5362C51.6617 29.696 48.8141 33.9286 47.3961 39.2411C46.7771 41.5573 46.4293 44.0821 46.3687 46.7286L37.7873 41.7724C38.7323 30.6107 43.4973 21.2568 51.4554 17.0698C52.4631 16.5397 53.4924 16.1073 54.5417 15.7705C67.8097 11.4879 83.9318 22.3063 91.8638 41.5377C99.585 60.2673 96.9048 80.5764 86.1949 89.6718Z" fill="white"/>
</mask>
<g mask="url(#mask7_229_22828)">
<path d="M86.1949 89.6718C85.0397 90.6582 83.7884 91.51 82.4483 92.2139C75.8805 95.6687 68.3246 94.9799 61.2896 91.0558V91.058L60.8639 90.8125C60.7707 90.756 60.6749 90.7038 60.5796 90.6474L50.0543 84.5679V73.165L50.1609 73.1042L61.2896 79.5313V79.5422L63.6417 80.9024V80.8459C68.507 83.5879 73.6695 84.1005 78.1328 81.7519C79.4318 81.0696 80.6022 80.1788 81.6426 79.1141C88.2604 72.3437 89.5768 58.4812 84.2423 45.5466C78.7583 32.2534 68.0922 24.4074 59.0896 26.3325C57.9537 26.5737 56.8439 26.9735 55.7729 27.5362C51.6617 29.696 48.8141 33.9286 47.3961 39.2411C46.7771 41.5573 46.4293 44.0821 46.3687 46.7286L37.7873 41.7724C38.7323 30.6107 43.4973 21.2568 51.4554 17.0698C52.4631 16.5397 53.4924 16.1073 54.5417 15.7705C67.8097 11.4879 83.9318 22.3063 91.8638 41.5377C99.585 60.2673 96.9048 80.5764 86.1949 89.6718Z" fill="#F1522D"/>
</g>
<mask id="mask8_229_22828" style="mask-type:luminance" maskUnits="userSpaceOnUse" x="33" y="38" width="19" height="22">
<path d="M42.0714 59.4586L51.0219 49.1194L33.121 38.7799L42.0714 59.4586Z" fill="white"/>
</mask>
<g mask="url(#mask8_229_22828)">
<path d="M42.0714 59.4586L51.0219 49.1194L33.121 38.7799L42.0714 59.4586Z" fill="#F1522D"/>
</g>
<mask id="mask9_229_22828" style="mask-type:luminance" maskUnits="userSpaceOnUse" x="85" y="89" width="29" height="24">
<path d="M113.262 112.965L92.9287 101.256L85.627 93.5721L92.9287 89.7306L113.262 101.439V112.965Z" fill="white"/>
</mask>
<g mask="url(#mask9_229_22828)">
<path d="M113.262 112.965L92.9287 101.256L85.627 93.5721L92.9287 89.7306L113.262 101.439V112.965Z" fill="#6634FA"/>
</g>
<mask id="mask10_229_22828" style="mask-type:luminance" maskUnits="userSpaceOnUse" x="113" y="97" width="13" height="20">
<path d="M126 114.957L113.261 97.6382V116.732L126 114.957Z" fill="white"/>
</mask>
<g mask="url(#mask10_229_22828)">
<path d="M126 114.957L113.261 97.6382V116.732L126 114.957Z" fill="url(#paint0_linear_229_22828)"/>
</g>
<path fill-rule="evenodd" clip-rule="evenodd" d="M118.698 118.656L105.96 101.337V120.431L118.698 118.656ZM85.627 105.098L105.96 116.807V105.281L85.627 93.5719V105.098Z" fill="#3B1BC0"/>
<mask id="mask11_229_22828" style="mask-type:luminance" maskUnits="userSpaceOnUse" x="105" y="97" width="21" height="22">
<path d="M105.96 101.337L113.262 97.6387L126 114.958L118.698 118.657L105.96 101.337Z" fill="white"/>
</mask>
<g mask="url(#mask11_229_22828)">
<path d="M105.96 101.337L113.262 97.6387L126 114.958L118.698 118.657L105.96 101.337Z" fill="#6634FA"/>
</g>
<path d="M71.9876 68.6743L74.2461 67.2831C74.9836 66.8544 74.9563 65.8065 74.954 65.7151L72.6955 67.1063C72.6981 67.1973 72.7255 68.2455 71.9876 68.6743Z" fill="#3B1BC0"/>
<path d="M72.6956 67.106L74.62 65.9877L67.0093 61.5936L65.0849 62.7119L72.6956 67.106Z" fill="#3B1BC0"/>
<path d="M65.0848 62.7119C65.08 62.8641 64.9855 65.7524 68.8553 68.0167L68.9093 68.0478C72.7776 70.251 72.6996 67.263 72.6955 67.106L65.0848 62.7119Z" fill="#FFED0E"/>
<path d="M59.1077 54.1967L61.0321 53.0784C60.7716 53.2298 60.4992 53.2871 60.2249 53.277C60.1091 53.2725 60.0064 53.2972 59.9194 53.3478L57.995 54.4661C58.082 54.4155 58.1847 54.3908 58.3005 54.3953C58.5748 54.4054 58.8472 54.3481 59.1077 54.1967Z" fill="#FFED0E"/>
<path d="M79.8017 69.7215L82.3133 68.275C82.5089 68.1614 82.6304 67.9197 82.6311 67.5764L80.1195 69.023C80.1187 69.3662 79.9973 69.608 79.8017 69.7215Z" fill="#3B1BC0"/>
<path d="M80.1195 69.023L82.6307 67.5727L82.6333 66.6752L80.1221 68.1254L80.1195 69.023Z" fill="#3B1BC0"/>
<path d="M65.5078 39.189L63.0592 40.6598C65.2812 39.3684 68.5563 40.8195 68.9857 41.0125L71.4343 39.5416C71.0052 39.3486 67.7297 37.8975 65.5078 39.189Z" fill="#3B1BC0"/>
<path d="M80.1221 68.1254L82.6333 66.6751C82.6348 66.1924 82.3342 65.527 81.953 65.102C80.5537 63.5355 79.215 60.2507 79.3166 53.3997C79.4395 45.1804 72.0387 39.9105 71.4342 39.4773L68.9861 41.0125C69.5905 41.4457 76.9913 46.7156 76.8684 54.9349C76.7669 61.7863 78.1055 65.0711 79.5049 66.6372C79.886 67.0622 80.1236 67.6427 80.1221 68.1254Z" fill="#3B1BC0"/>
<path d="M68.9857 41.0125C68.3246 40.7153 60.9205 37.4373 60.9943 45.7705C61.0584 52.7174 59.7055 54.4481 58.3001 54.3952C57.9194 54.3803 57.6795 54.6849 57.678 55.1676L57.6754 56.0652C57.6735 56.7562 58.16 57.5991 58.7596 57.945L79.026 69.6458C79.6274 69.9932 80.1169 69.714 80.1191 69.0229L80.1218 68.1254C80.1233 67.6427 79.8857 67.0622 79.5045 66.6372C78.1052 65.0707 76.7665 61.7859 76.8681 54.9349C76.991 46.7156 69.5906 41.4457 68.9857 41.0125Z" fill="#FFED0E"/>
<path d="M70.494 36.6617L68.3186 37.8796C68.479 37.7863 68.6971 37.7923 68.9388 37.9152L71.1143 36.6973C70.8725 36.5743 70.6548 36.5683 70.494 36.6617Z" fill="#3B1BC0"/>
<path d="M68.967 37.9332L70.8914 36.8149L70.8633 36.7969L68.9388 37.9152L68.967 37.9332Z" fill="#3B1BC0"/>
<path d="M68.9932 37.9482L71.1143 36.6973L70.8913 36.8149L68.9669 37.9332L68.9932 37.9482Z" fill="#3B1BC0"/>
<path d="M69.6037 40.157L71.7251 38.9061C71.8956 38.8068 72.0013 38.5954 72.0021 38.2952C72.0036 37.7144 71.6127 37.0173 71.1143 36.6973L68.9928 37.9482C69.4912 38.2682 69.8821 38.9653 69.8806 39.5461C69.8799 39.8463 69.7742 40.0577 69.6037 40.157Z" fill="#3B1BC0"/>
<path d="M68.9389 37.9151C68.442 37.6621 68.0451 37.9046 68.0432 38.4855C68.0417 39.0664 68.436 39.7694 68.9325 40.0846L68.9498 40.0988L68.9603 40.1048L68.9865 40.1221C69.4853 40.3758 69.8788 40.1277 69.8803 39.5468C69.8818 38.9659 69.4909 38.2689 68.9925 37.9488L68.9663 37.9338L68.9389 37.9151Z" fill="#FFED0E"/>
<path d="M70.7076 69.3143L72.9661 67.9231C73.7036 67.4944 73.6763 66.4465 73.674 66.3551L71.4156 67.7463C71.4182 67.8374 71.4455 68.8856 70.7076 69.3143Z" fill="#3B1BC0"/>
<path d="M71.4157 67.7459L73.3401 66.6276L65.7294 62.2335L63.805 63.3518L71.4157 67.7459Z" fill="#3B1BC0"/>
<path d="M63.8049 63.3518C63.8 63.504 63.7055 66.3922 67.5753 68.6566L67.6293 68.6877C71.4976 70.8909 71.4196 67.9029 71.4155 67.7459L63.8049 63.3518Z" fill="#6634FA"/>
<path d="M57.8277 54.8366L59.7521 53.7183C59.4917 53.8697 59.2192 53.927 58.9449 53.9169C58.8291 53.9124 58.7264 53.9371 58.6395 53.9877L56.7151 55.106C56.802 55.0554 56.9047 55.0307 57.0205 55.0352C57.2948 55.0453 57.5673 54.988 57.8277 54.8366Z" fill="#FFED0E"/>
<path d="M78.5218 70.3614L81.0334 68.9148C81.229 68.8013 81.3505 68.5596 81.3512 68.2163L78.8396 69.6628C78.8388 70.0061 78.7174 70.2478 78.5218 70.3614Z" fill="#3B1BC0"/>
<path d="M78.8395 69.6629L81.3507 68.2126L81.3533 67.3151L78.8421 68.7653L78.8395 69.6629Z" fill="#3B1BC0"/>
<path d="M64.2278 39.829L61.7793 41.2998C64.0012 40.0084 67.2763 41.4595 67.7058 41.6525L70.1543 40.1816C69.7252 39.9886 66.4498 38.5375 64.2278 39.829Z" fill="#3B1BC0"/>
<path d="M78.8421 68.7653L81.3533 67.315C81.3548 66.8323 81.0542 66.1669 80.6731 65.7419C79.2737 64.1754 77.9351 60.8906 78.0366 54.0396C78.1595 45.8203 70.7588 40.5504 70.1543 40.1172L67.7061 41.6524C68.3106 42.0856 75.7114 47.3555 75.5884 55.5748C75.4869 62.4262 76.8255 65.711 78.2249 67.2771C78.606 67.7021 78.8436 68.2826 78.8421 68.7653Z" fill="#3B1BC0"/>
<path d="M67.7057 41.6524C67.0447 41.3552 59.6405 38.0772 59.7143 46.4104C59.7784 53.3573 58.4255 55.088 57.0202 55.0351C56.6394 55.0201 56.3996 55.3248 56.3981 55.8075L56.3954 56.7051C56.3936 57.3961 56.88 58.239 57.4796 58.5849L77.746 70.2857C78.3475 70.6331 78.8369 70.3539 78.8392 69.6628L78.8418 68.7653C78.8433 68.2826 78.6057 67.7021 78.2246 67.2771C76.8252 65.7106 75.4866 62.4258 75.5881 55.5748C75.711 47.3555 68.3106 42.0856 67.7057 41.6524Z" fill="#BFB0FE"/>
<path d="M69.2141 37.3014L67.0386 38.5194C67.199 38.426 67.4171 38.432 67.6589 38.555L69.8343 37.337C69.5926 37.2141 69.3748 37.2081 69.2141 37.3014Z" fill="#3B1BC0"/>
<path d="M67.687 38.5732L69.6115 37.4549L69.5833 37.4369L67.6589 38.5552L67.687 38.5732Z" fill="#3B1BC0"/>
<path d="M67.7132 38.588L69.8343 37.337L69.6114 37.4547L67.687 38.573L67.7132 38.588Z" fill="#3B1BC0"/>
<path d="M68.3237 40.7968L70.4451 39.5459C70.6157 39.4466 70.7214 39.2352 70.7221 38.935C70.7236 38.3541 70.3327 37.6571 69.8343 37.337L67.7128 38.5879C68.2113 38.908 68.6021 39.605 68.6006 40.1859C68.5999 40.4861 68.4942 40.6975 68.3237 40.7968Z" fill="#3B1BC0"/>
<path d="M67.6589 38.5551C67.162 38.3021 66.7651 38.5446 66.7633 39.1255C66.7618 39.7064 67.156 40.4094 67.6526 40.7246L67.6698 40.7388L67.6803 40.7448L67.7065 40.7621C68.2053 41.0158 68.5988 40.7677 68.6003 40.1868C68.6018 39.6059 68.211 38.9089 67.7125 38.5888L67.6863 38.5738L67.6589 38.5551Z" fill="#BFB0FE"/>
<path d="M26.1976 53.1353L24.7553 54.5775L24.3164 56.6873L24.6668 57.8271C24.8254 58.041 25.0947 58.1259 25.3935 58.1701C25.6037 58.3509 25.8471 58.3435 26.1017 58.2808C26.3303 58.4504 26.548 58.3988 26.7656 58.2808C27.0017 58.4025 27.2082 58.3545 27.3816 58.1701L27.7246 56.9123C27.6914 56.7353 27.6287 56.6062 27.4738 56.6394C27.7873 56.0787 27.8722 55.1197 27.909 54.0758L28.3886 53.139L26.548 52.4012L26.1939 53.139L26.1976 53.1353Z" fill="#FCAF75"/>
<path d="M32.5123 48.0338C31.9554 50.3022 30.1812 52.3604 27.8906 54.3264C27.4775 53.6072 27.0164 52.9838 26.2012 53.1387C26.6549 52.1981 27.0717 51.3239 27.4959 50.5383C28.0049 49.5903 28.5213 48.7715 29.1078 48.1297C28.8459 48.3399 26.3525 47.119 25.1205 46.3739C24.6816 46.1084 24.4012 45.9018 24.4418 45.8428C24.4898 45.7727 24.2832 39.6571 24.2832 39.6571C25.6074 39.7604 26.5627 40.7821 27.6213 42.2059C30.0115 43.7809 31.4906 45.8022 32.5197 48.0375L32.5123 48.0338Z" fill="#F1522D"/>
<path d="M26.9722 52.8732C26.7435 52.7847 26.5111 52.7441 26.3009 52.733L25.9948 53.29C26.2013 53.2642 26.4816 53.2752 26.7804 53.3859C27.271 53.574 27.6583 53.9687 27.9239 54.5589L28.2853 54.0535C27.8759 53.1425 27.4111 53.0355 26.9759 52.8695L26.9722 52.8732Z" fill="#2A0B88"/>
<path d="M27.5587 53.2864C27.5587 53.5225 27.2968 53.718 26.9722 53.718C26.6476 53.718 26.3857 53.5262 26.3857 53.2864C26.3857 53.0467 26.6476 52.8549 26.9722 52.8549C27.2968 52.8549 27.5587 53.0467 27.5587 53.2864Z" fill="#2A0B88"/>
<path d="M27.5587 53.172C27.5587 53.4081 27.2968 53.6036 26.9722 53.6036C26.6476 53.6036 26.3857 53.4118 26.3857 53.172C26.3857 52.9323 26.6476 52.7405 26.9722 52.7405C27.2968 52.7405 27.5587 52.9323 27.5587 53.172Z" fill="#DADADA"/>
<path d="M26.9722 53.5335C26.6882 53.5335 26.4558 53.3712 26.4558 53.172C26.4558 52.9728 26.6882 52.8105 26.9722 52.8105C27.2562 52.8105 27.4886 52.9728 27.4886 53.172C27.4886 53.3712 27.2562 53.5335 26.9722 53.5335Z" fill="white"/>
<g style="mix-blend-mode:multiply" opacity="0.2">
<path d="M30.7713 48.0782C29.4029 48.104 28.4144 49.2253 27.4922 50.5311C28.0013 49.5831 28.5177 48.7642 29.1041 48.1224C28.8422 48.3327 26.3488 47.1118 25.1168 46.3667L25.2385 44.3564C25.7771 46.7577 27.9902 47.2815 30.775 48.0782H30.7713Z" fill="#3C3C3B"/>
</g>
<path d="M20.971 83.7683C20.7939 84.2036 20.8787 84.7495 20.9636 85.5204C21.1332 86.011 21.5537 86.4757 22.391 86.745C23.3537 87.4458 23.7337 88.6446 24.9546 88.9913C26.3525 89.3897 27.2046 88.8696 27.0939 88.0692C26.9095 86.697 25.2829 86.0847 24.5193 84.4987L23.8222 82.9126H21.3177L20.971 83.7683Z" fill="#2A0B88"/>
<path d="M14.1545 89.1464C13.7562 89.6702 13.6971 91.3116 13.9037 91.6104C14.8996 92.669 16.2644 94.7899 19.0086 94.6387C20.1189 94.4432 20.4287 93.9268 20.0156 93.119C19.5804 92.2706 18.2082 91.4628 17.6144 89.9358L16.9283 88.5931L14.1582 89.1464H14.1545Z" fill="#2A0B88"/>
<path d="M23.8959 56.9122L19.3774 63.0315C19.5988 64.7209 19.9565 69.3942 20.3512 70.9877C19.5139 77.0406 20.5947 83.8976 21.0926 84.2812C21.7861 84.8529 23.4348 85.1996 24.3939 83.7648C24.3939 83.7648 23.9217 77.1217 24.8107 70.2131L23.8959 56.9122Z" fill="#FBBC04"/>
<path d="M20.7532 61.8476L19.5028 73.2157C18.1085 80.2718 17.4999 89.4157 17.4999 89.4157C16.681 90.8653 14.5122 90.2862 13.8187 89.4157C13.7413 88.501 13.6675 87.553 13.6085 86.5792C13.3466 82.3596 13.3761 77.6862 14.9585 73.6804C14.4495 70.7333 13.9183 65.2115 14.1876 62.5078C13.6786 60.9513 13.4905 58.8156 14.3794 56.6025C14.3905 56.5767 14.4015 56.5509 14.4126 56.5214C14.4384 56.5435 14.4605 56.5656 14.4901 56.5841C14.8663 56.905 15.2942 57.13 15.7552 57.2775C19.0233 58.3472 23.9143 55.6545 23.9216 55.7209C24.0323 58.9964 22.8409 60.3021 20.7532 61.8439V61.8476Z" fill="#FFED0E"/>
<g style="mix-blend-mode:multiply">
<path d="M16.1279 73.9162C14.5455 76.7047 13.959 81.415 13.6123 86.5827C13.3504 82.363 13.3799 77.6896 14.9623 73.6838C14.4533 70.7367 13.9221 65.215 14.1914 62.5113C13.6824 60.9547 13.4942 58.819 14.3832 56.6059L14.4938 56.5912L16.1316 56.3403C15.9914 56.6575 15.866 56.9711 15.759 57.2846C15.1541 59.0477 15.0914 60.7334 15.652 62.3342C14.9955 65.6207 15.4234 69.6707 16.1316 73.9199L16.1279 73.9162Z" fill="#FBBC04"/>
</g>
<path d="M24.7111 51.5712C24.4972 52.9286 24.2279 54.227 23.955 55.4737C23.955 55.4737 23.955 55.8093 23.7558 56.2446C23.4349 56.9417 22.6013 57.8823 20.425 58.0815C18.9939 58.2917 17.8836 58.2991 17.0353 58.1848C16.4156 58.1036 15.9324 57.9598 15.5525 57.779C15.5303 57.7679 15.5119 57.7606 15.4898 57.7458L15.2611 57.6241L15.2389 57.613C14.1766 56.9675 14.1914 56.0675 14.1914 56.0675C13.7562 53.8138 13.45 51.5122 13.2693 49.1626C13.2213 48.565 13.2361 47.7425 13.2693 46.8462C13.3172 45.6695 13.4094 44.3712 13.4574 43.3015C13.4906 42.5417 13.959 41.8704 14.6635 41.579C16.198 40.9408 17.0795 40.4798 18.684 39.5835C20.709 39.1593 22.5791 39.329 24.3349 39.6499C25.4673 43.8917 25.2865 47.9159 24.7148 51.5712H24.7111Z" fill="#F1522D"/>
<path d="M22.107 39.4655L21.8562 40.5499L21.6533 41.4278C21.2439 42.9659 20.3328 43.4012 19.2299 42.7852C18.459 42.3573 17.2603 41.2323 17.4963 40.4024L18.0275 37.7208L22.1033 39.4655H22.107Z" fill="#EDA868"/>
<path d="M20.0635 33.0768C18.1824 33.0952 17.1053 34.0137 17.0352 36.0424C17.0905 38.1743 17.5553 40.1957 19.2151 41.3575C20.0229 42.0399 20.5578 42.3977 21.5205 42.3461C22.6639 42.2871 23.457 39.3621 23.6193 37.3075C23.8959 35.2346 22.1881 33.6448 20.0672 33.0768H20.0635Z" fill="#FCAF75"/>
<path d="M23.7853 37.0716C23.3611 38.1081 21.2845 38.311 19.4624 37.4921L19.2484 39.1851L18.4333 38.761L17.6845 39.5909L17.4042 39.1851C16.2828 37.5069 16.1685 34.3974 18.5513 33.2355C21.4136 32.1032 24.973 34.7478 23.7816 37.0716H23.7853Z" fill="#7C1A13"/>
<path d="M18.1714 39.4876C17.987 39.3327 17.8173 39.1556 17.7141 38.9343C17.6145 38.7167 17.5923 38.4511 17.7067 38.2372C17.821 38.0269 18.0903 37.8941 18.3153 37.9753C18.4702 38.0306 18.5845 38.1782 18.6399 38.3331C18.6952 38.488 18.7063 38.6577 18.7173 38.8236C18.7247 38.9749 18.7358 39.1261 18.7432 39.2773C18.7505 39.3806 18.7505 39.4987 18.6805 39.5761C18.6141 39.6462 18.5071 39.6609 18.4149 39.6351C18.3227 39.6093 18.2452 39.5466 18.1714 39.4839V39.4876Z" fill="#FCAF75"/>
<g style="mix-blend-mode:multiply" opacity="0.15">
<path d="M15.5487 57.7827L15.486 57.7495L15.2574 57.6278L15.2352 57.6167C14.1729 56.9712 14.1877 56.0712 14.1877 56.0712C13.7524 53.8175 13.4463 51.5159 13.2655 49.1663C13.2176 48.5687 13.2323 47.7462 13.2655 46.8499C14.1471 46.3704 15.191 45.7728 15.191 45.7728C14.3832 49.5757 14.6451 53.6073 15.5487 57.7827Z" fill="#3C3C3B"/>
</g>
<path d="M5.01433 32.5199L5.27253 35.5187L5.77417 38.0047L6.47868 39.3843L6.61885 40.0851L7.92828 40.2621L8.00943 39.3658C8.3414 38.5691 8.35615 37.6838 8.18279 36.7469C8.4041 36.9314 8.50738 36.7691 8.59591 36.5515L8.47418 35.8064C8.42992 35.5592 8.32664 35.3785 7.98361 35.467C8.02049 35.2088 7.87664 35.065 7.51885 35.0613C7.40082 34.8769 7.22008 34.7441 6.86967 34.7515L5.91803 35.1203L5.5418 32.5346C5.41639 31.8486 4.93688 31.8006 5.00696 32.5199H5.01433Z" fill="#FCAF75"/>
<path d="M6.47876 39.3807C6.53409 39.6499 7.51893 39.6278 8.01319 39.3585L9.88697 45.7655C11.6058 44.0798 12.3435 41.9331 14.387 41.7081L15.5452 46.4958C12.823 48.5245 10.2558 50.1364 8.26401 50.1954C5.73736 49.3913 6.31278 44.0356 6.47507 39.377L6.47876 39.3807Z" fill="#F1522D"/>
<defs>
<linearGradient id="paint0_linear_229_22828" x1="113.261" y1="107.185" x2="126" y2="107.185" gradientUnits="userSpaceOnUse">
<stop stop-color="#E9BB5E"/>
<stop offset="0.999999" stop-color="#DE862E"/>
<stop offset="1" stop-color="#DE862E"/>
</linearGradient>
</defs>
</svg>
