<svg width="128" height="128" viewBox="0 0 128 128" fill="none" xmlns="http://www.w3.org/2000/svg">
<path d="M92.4155 70.4628L86.1175 66.8076L82.8886 66.5625L89.1865 70.2283L92.4155 70.4628Z" fill="#03B073"/>
<path d="M117 28.5079L110.702 24.842L106.93 24.0535L113.228 27.7086L117 28.5079Z" fill="#FFCB32"/>
<path d="M78.53 75.3433C77.0275 78.9132 74.4593 82.0142 71.6566 83.634C73.7559 84.8489 75.8553 86.0743 77.9546 87.2892C80.7466 85.6801 83.3148 82.579 84.828 78.9984C82.7287 77.7836 80.6294 76.5581 78.53 75.3433Z" fill="#5589B9"/>
<path d="M79.617 67.6384C80.0859 69.8124 79.7023 72.5511 78.5301 75.3431C80.6294 76.5579 82.7287 77.7834 84.828 78.9983C86.0003 76.2063 86.3839 73.4675 85.915 71.2936C83.8157 70.0788 81.7163 68.8533 79.617 67.6384Z" fill="#5589B9"/>
<path d="M73.0952 92.4896L66.7973 88.8237L67.4153 92.6707L73.7133 96.3259L73.0952 92.4896Z" fill="#03B073"/>
<path d="M93.5131 55.6292L87.2151 51.9634L88.5152 56.2473L94.8132 59.9025L93.5131 55.6292Z" fill="#FFED0E"/>
<path d="M71.6673 83.6343C70.1008 84.5401 68.5876 84.9024 67.2555 84.6893C69.3548 85.9148 71.4542 87.1296 73.5535 88.3444C74.8749 88.5576 76.3988 88.1953 77.9653 87.2895C75.8659 86.0746 73.7666 84.8491 71.6673 83.6343Z" fill="#5589B9"/>
<path d="M82.3877 70.2709L76.0897 66.6157C76.9209 67.0953 77.507 67.9798 77.7628 69.1839C78.1251 70.857 77.8267 72.9563 76.9316 75.0983C75.7807 77.837 73.8092 80.2134 71.6673 81.4602C70.4737 82.1529 69.3015 82.43 68.2892 82.2701C67.8949 82.2062 67.5325 82.0783 67.2128 81.8865L73.5108 85.5417C73.8305 85.7335 74.1928 85.8613 74.5871 85.9253C75.5995 86.0851 76.7717 85.8081 77.9652 85.1154C80.1072 83.8792 82.0787 81.5028 83.2296 78.7535C84.1354 76.6115 84.4231 74.5122 84.0608 72.8391C83.805 71.6349 83.2189 70.7611 82.3877 70.2709Z" fill="white"/>
<path d="M80.9491 77.3578L74.6511 73.7026L72.3067 77.4431L78.6047 81.1089L80.9491 77.3578Z" fill="#5589B9"/>
<path d="M71.646 75.9615C71.3582 76.1213 71.0812 76.1959 70.8361 76.1533L77.1341 79.8085C77.3792 79.8511 77.6562 79.7872 77.944 79.6167C78.4555 79.3183 78.935 78.7535 79.2014 78.0928C79.2121 78.0608 79.2334 78.0182 79.244 77.9862C77.1447 76.7607 75.0454 75.5459 72.9461 74.3311C72.9354 74.363 72.9141 74.4057 72.9034 74.4376C72.6264 75.0983 72.1575 75.6631 71.646 75.9615Z" fill="white"/>
<path d="M80.3097 74.1929L74.0117 70.5271L74.6511 73.7027L80.9491 77.3579L80.3097 74.1929Z" fill="#5589B9"/>
<path d="M77.4431 64.2927C78.5301 64.9215 79.276 66.0724 79.6277 67.6389C81.727 68.8537 83.8263 70.0792 85.9257 71.294C85.5847 69.7275 84.828 68.5766 83.7411 67.9479C81.8549 66.8503 79.3293 65.3903 77.4431 64.2927Z" fill="#5589B9"/>
<path d="M72.9461 74.3418C75.0454 75.5566 77.1447 76.7821 79.244 77.9969C79.4252 77.528 79.4785 77.0698 79.3932 76.6968C79.3399 76.4091 79.1908 76.196 78.9989 76.0788L72.701 72.4236C72.9034 72.5408 73.042 72.7539 73.0952 73.0417C73.1805 73.4146 73.1272 73.8729 72.9461 74.3418Z" fill="white"/>
<path d="M70.8467 76.1536C70.7508 76.1429 70.6656 76.111 70.5803 76.0684L76.8783 79.7235C76.9529 79.7662 77.0488 79.7981 77.1447 79.8088C75.2585 78.7112 72.9141 76.8676 70.8467 76.1536Z" fill="white"/>
<path d="M67.2555 84.6894C66.744 84.6042 66.2751 84.4443 65.8488 84.1992L72.1468 87.8544C72.5624 88.0995 73.0313 88.2593 73.5535 88.3446L73.1911 88.1315C72.1255 87.5134 71.0598 86.8953 69.9942 86.2666L69.5786 86.0321C69.0458 85.7231 68.5236 85.4141 67.9908 85.105C67.767 84.9771 67.5006 84.764 67.2555 84.6788V84.6894Z" fill="#5589B9"/>
<path d="M78.6047 81.1087L72.3067 77.4429L69.3229 78.0183L75.6209 81.6842L78.6047 81.1087Z" fill="#5589B9"/>
<path d="M78.9989 76.0787L72.7009 72.4235C72.6264 72.3809 72.5411 72.3489 72.4452 72.3382C72.2001 72.2956 71.923 72.3702 71.6353 72.5301L77.9333 76.1852C78.221 76.0254 78.4981 75.9508 78.7432 75.9934C78.8391 76.0041 78.9243 76.036 78.9989 76.0787Z" fill="#5589B9"/>
<path d="M88.6857 60.5741L82.3877 56.9189L78.8178 60.1052L85.1157 63.7604L88.6857 60.5741Z" fill="#03B073"/>
<path d="M76.0897 66.6158C75.77 66.424 75.4077 66.2961 75.0134 66.2322C77.1127 67.447 79.2121 68.6725 81.3114 69.8874C81.7057 69.9513 82.068 70.0792 82.3877 70.271C80.5015 69.1734 77.9759 67.7134 76.0897 66.6158Z" fill="#5589B9"/>
<path d="M70.5803 76.0682L76.8783 79.7234C76.6865 79.6062 76.548 79.4037 76.484 79.116C76.3988 78.711 76.4734 78.2102 76.6865 77.6987C76.9636 77.0486 77.4325 76.4838 77.944 76.1855L71.646 72.5303C71.1345 72.8287 70.6549 73.3935 70.3885 74.0435C70.1754 74.555 70.1008 75.0559 70.186 75.4608C70.25 75.7485 70.3885 75.951 70.5803 76.0682Z" fill="#5589B9"/>
<path d="M80.3097 74.1929L74.0117 70.5271L71.0279 71.1025L77.3366 74.7684L80.3097 74.1929Z" fill="white"/>
<path d="M75.0134 66.232C74.6298 66.1681 74.2142 66.1788 73.7879 66.232C75.8872 67.4469 77.9866 68.6724 80.0859 69.8872C80.5122 69.8233 80.9171 69.8233 81.3114 69.8872C80.2564 69.2798 79.2121 68.6724 78.1571 68.0543C77.912 67.9158 77.5816 67.7239 77.3365 67.5748L76.9316 67.3403C76.5373 67.1165 76.143 66.8821 75.7487 66.6583C75.5249 66.5304 75.2585 66.3173 75.0134 66.232Z" fill="#5589B9"/>
<path d="M74.9921 78.5082L68.6941 74.853L69.3229 78.018L75.6208 81.6838L74.9921 78.5082Z" fill="white"/>
<path d="M77.3365 74.7676L71.0279 71.1018L68.6941 74.8529L74.9921 78.5081L77.3365 74.7676Z" fill="white"/>
<path d="M77.3365 74.7686L74.9921 78.509L75.6315 81.6846L78.6047 81.1092L80.9491 77.3688L80.3097 74.1931L77.3365 74.7686ZM76.484 79.1164C76.3988 78.7115 76.4734 78.2106 76.6865 77.6991C76.9636 77.0491 77.4325 76.4843 77.944 76.1859C78.2317 76.026 78.5088 75.9514 78.7539 75.9941C79.0949 76.0473 79.3293 76.3031 79.4039 76.6974C79.4892 77.0917 79.4252 77.6032 79.2121 78.104C78.935 78.7647 78.4661 79.3295 77.9546 79.6279C77.6669 79.7878 77.3898 79.8624 77.1447 79.8197C76.8037 79.7665 76.5693 79.5214 76.484 79.1271V79.1164Z" fill="white"/>
<path d="M65.5291 79.3184C65.7849 80.5225 66.371 81.3964 67.2022 81.8866L73.5002 85.5418C72.669 85.0622 72.0829 84.1777 71.8271 82.9735C69.7278 81.748 67.6285 80.5332 65.5291 79.3184Z" fill="#5589B9"/>
<path d="M85.1158 63.7596L78.8178 60.1044L76.4627 59.7314L82.7607 63.3973L85.1158 63.7596Z" fill="#03B073"/>
<path d="M73.7986 66.2428C73.1059 66.3494 72.3813 66.6158 71.6353 67.0421L77.9333 70.6973C78.6686 70.271 79.4039 70.0046 80.0966 69.898C79.0522 69.2906 77.9972 68.6832 76.9422 68.0651C76.0151 67.5216 75.088 66.9888 74.1502 66.4453C74.0437 66.3814 73.9158 66.2535 73.7879 66.2322L73.7986 66.2428Z" fill="#5589B9"/>
<path d="M66.3604 73.4038C65.4546 75.5458 65.1562 77.6451 65.5292 79.3182C67.6285 80.533 69.7278 81.7585 71.8272 82.9733C71.4648 81.3003 71.7632 79.2009 72.6584 77.059C70.559 75.8441 68.4597 74.6186 66.3604 73.4038Z" fill="#5589B9"/>
<path d="M71.6353 67.0422C69.4933 68.2784 67.5219 70.6548 66.371 73.4042C68.4703 74.619 70.5697 75.8445 72.669 77.0593C73.8199 74.3206 75.7913 71.9442 77.9333 70.6974C76.0471 69.5998 73.5215 68.1399 71.6353 67.0422Z" fill="#5589B9"/>
<path d="M84.6469 54.9152L78.3489 51.26L76.8357 57.0678L83.1337 60.7336L84.6469 54.9152Z" fill="#FFED0E"/>
<path d="M66.6694 85.6588L60.3714 82.0037L60.9788 84.785L67.2768 88.4402L66.6694 85.6588Z" fill="#03B073"/>
<path d="M65.8489 84.1995L72.1469 87.8546C71.0599 87.2259 70.3139 86.075 69.9623 84.5085C69.4934 82.3239 69.877 79.5852 71.0492 76.8039L64.7512 73.1487C63.579 75.93 63.1954 78.6687 63.6643 80.8533C64.0053 82.4198 64.7619 83.5707 65.8489 84.1995Z" fill="white"/>
<path d="M83.7411 67.9588L77.4431 64.3036C77.0275 64.0585 76.5586 63.8987 76.0364 63.8134C74.715 63.6003 73.1805 63.9732 71.6247 64.8684C68.822 66.4882 66.2644 69.5786 64.7512 73.1591L71.0492 76.8143C72.5518 73.2444 75.12 70.1434 77.9226 68.5236C79.4785 67.6284 81.0024 67.2554 82.3344 67.4686C82.8459 67.5538 83.3148 67.7137 83.7411 67.9588Z" fill="white"/>
<path d="M76.452 78.5404C76.452 78.4871 76.4627 78.4338 76.4734 78.3699C76.4734 78.3379 76.484 78.2953 76.4947 78.2633C76.4947 78.2314 76.5053 78.1994 76.516 78.1674C76.5586 78.0076 76.6119 77.8584 76.6758 77.6986C76.7398 77.5387 76.825 77.3789 76.9103 77.2297C76.9955 77.0805 77.1021 76.9419 77.2087 76.8141C77.2406 76.7821 77.2619 76.7501 77.2939 76.7075C77.4857 76.4944 77.6989 76.3132 77.9226 76.1853C78.2104 76.0255 78.4874 75.9509 78.7325 75.9935C79.0735 76.0468 79.308 76.3025 79.3826 76.6968C79.3932 76.7501 79.4039 76.7927 79.4039 76.846C79.4039 76.8993 79.4039 76.9526 79.4146 77.0059C79.4146 77.0378 79.4146 77.0592 79.4146 77.0911C79.4146 77.1444 79.4146 77.2083 79.4146 77.2616C79.4146 77.2936 79.4146 77.3256 79.4146 77.3469C79.3932 77.4961 79.3613 77.6559 79.308 77.8051C79.276 77.901 79.244 77.9969 79.2014 78.0928C79.1481 78.2207 79.0949 78.3379 79.0309 78.4552C78.9776 78.5511 78.9137 78.647 78.8498 78.7429C78.8284 78.7749 78.8071 78.8068 78.7858 78.8281C78.6899 78.956 78.594 79.0732 78.4981 79.1798C78.3276 79.361 78.1358 79.5102 77.944 79.6167C77.9013 79.6487 77.848 79.67 77.8054 79.6913C77.5497 79.8085 77.3365 79.8405 77.1447 79.8085C76.9529 79.7766 76.7931 79.6913 76.6758 79.5421C76.6652 79.5208 76.6545 79.5102 76.6332 79.4888C76.6012 79.4356 76.5693 79.3823 76.5373 79.3183C76.516 79.2544 76.484 79.1905 76.4734 79.1159C76.4627 79.0626 76.452 79.0093 76.452 78.956C76.4414 78.8495 76.4414 78.7429 76.452 78.6257C76.452 78.5937 76.452 78.5617 76.452 78.5298V78.5404Z" fill="#5589B9"/>
<path d="M115.679 14.6758L109.381 11.01L104.82 13.7914L111.118 17.4465L115.679 14.6758Z" fill="#FFED0E"/>
<path d="M65.1455 93.1393L58.8475 89.4841L60.8829 91.6474L67.1809 95.3026L65.1455 93.1393Z" fill="#08F4A1"/>
<path d="M67.2768 88.4406L60.9788 84.7854L58.8475 89.4849L65.1455 93.1401L67.2768 88.4406Z" fill="#03B073"/>
<path d="M66.6694 85.6593L63.4405 85.4142L64.0479 81.0557L67.6924 78.2424L69.1843 74.6724L68.1933 71.1451L71.0812 67.1489L74.097 67.8736L76.8144 65.6144L78.6367 60.8616L82.1213 59.5615L82.7501 63.3979L85.1051 63.7602L88.6644 60.5739L90.6998 62.7372L88.5685 67.426L89.1759 70.218L92.4048 70.4631L91.7974 74.8323L88.1529 77.6349L86.661 81.2049L87.652 84.7322L84.7535 88.739L81.7377 88.0144L79.0096 90.2735L77.198 95.0263L73.7134 96.3264L73.0953 92.4794L70.7402 92.1171L67.1809 95.3034L65.1455 93.1401L67.2768 88.4406L66.6694 85.6593ZM80.9491 77.3579L80.3097 74.1822L77.3366 74.7577L74.9921 78.4981L75.6315 81.6737L78.6047 81.0983L80.9491 77.3579Z" fill="#04C984"/>
<path d="M82.132 59.5609L75.834 55.9058L72.3493 57.1952L78.6473 60.861L82.132 59.5609Z" fill="#08F4A1"/>
<path d="M78.6473 60.8611L72.3493 57.1953L70.5377 61.9481L76.8357 65.6139L78.6473 60.8611Z" fill="#03B073"/>
<path d="M76.8357 65.6141L70.5377 61.9482L67.8096 64.2074L74.1076 67.8733L76.8357 65.6141Z" fill="#08F4A1"/>
<path d="M82.5369 52.8056L76.2389 49.1504L78.3489 51.2604L84.6469 54.9156L82.5369 52.8056Z" fill="#FFED0E"/>
<path d="M69.195 74.6832L62.897 71.0173L61.4051 74.5873L67.7031 78.2424L69.195 74.6832Z" fill="#08F4A1"/>
<path d="M110.521 9.51835L104.223 5.86318L100.845 5L107.153 8.65518L110.521 9.51835Z" fill="#FFCB32"/>
<path d="M107.153 8.65518L100.845 5L97.2429 10.275L103.541 13.9408L107.153 8.65518Z" fill="#FFED0E"/>
<path d="M64.0479 81.0662L57.7499 77.4004L57.1425 81.7589L63.4405 85.4141L64.0479 81.0662Z" fill="#08F4A1"/>
<path d="M67.7031 78.2416L61.4051 74.5864L57.7499 77.3997L64.0479 81.0656L67.7031 78.2416Z" fill="#03B073"/>
<path d="M74.1076 67.8734L67.8096 64.2076L64.7938 63.4829L71.0918 67.1487L74.1076 67.8734Z" fill="#5589B9"/>
<path d="M68.204 71.1449L61.906 67.4897L62.897 71.017L69.195 74.6829L68.204 71.1449Z" fill="#305A82"/>
<path d="M71.0918 67.1487L64.7938 63.4829L61.9059 67.4897L68.2039 71.1449L71.0918 67.1487Z" fill="#66A4DE"/>
<path d="M103.541 13.9412L97.2428 10.2754L93.8434 10.9681L100.141 14.6339L103.541 13.9412Z" fill="#FFCB32"/>
<path d="M76.6865 51.7818L70.3885 48.116L71.678 51.9203L77.976 55.5862L76.6865 51.7818Z" fill="#FFED0E"/>
<path d="M80.4376 46.6454L74.1396 42.9902L70.3885 48.116L76.6865 51.7818L80.4376 46.6454Z" fill="#FFCB32"/>
<path d="M80.4269 42.5424L74.1289 38.8872L74.1396 42.99L80.4376 46.6451L80.4269 42.5424Z" fill="#FFED0E"/>
<path d="M93.4065 18.5126L87.1085 14.8574L83.7091 18.097L90.0071 21.7522L93.4065 18.5126Z" fill="#FFED0E"/>
<path d="M94.6853 12.7472L88.3873 9.09204L87.1085 14.8572L93.4065 18.5124L94.6853 12.7472Z" fill="#FFCB32"/>
<path d="M98.8413 10.3495L92.5434 6.69434L88.3873 9.09205L94.6853 12.7472L98.8413 10.3495Z" fill="#FFED0E"/>
<path d="M84.5723 29.4459L78.2743 25.78L76.1856 30.3197L82.4836 33.9749L84.5723 29.4459Z" fill="#FFED0E"/>
<path d="M82.4836 33.975L76.1856 30.3198L71.6246 32.8028L77.9226 36.4686L82.4836 33.975Z" fill="#FFCB32"/>
<path d="M77.9227 36.4686L71.6247 32.8027L70.3566 38.0884L76.6545 41.7542L77.9227 36.4686Z" fill="#FFED0E"/>
<path d="M90.0071 21.7517L83.7091 18.0966L80.0966 16.9883L86.3946 20.6435L90.0071 21.7517Z" fill="#FFCB32"/>
<path d="M86.3945 20.6435L80.0965 16.9883L76.7397 21.7304L83.0377 25.3856L86.3945 20.6435Z" fill="#FFED0E"/>
<path d="M94.6853 12.7474L93.4065 18.5125L90.0071 21.7521L86.3946 20.6438L83.0378 25.386L84.5723 29.4461L82.4836 33.9751L77.9226 36.4687L76.6545 41.7543L80.4269 42.5429L80.4376 46.6457L76.6865 51.7821L77.9759 55.5865L82.5369 52.8051L84.6469 54.9151L83.1337 60.7335L86.5118 61.5967L90.1137 56.3218L93.5131 55.6291L94.8132 59.9023L98.9692 57.5046L100.248 51.7395L103.647 48.4999L107.26 49.6188L110.627 44.866L109.082 40.8166L111.171 36.2769L115.732 33.7939L117 28.5083L113.228 27.7091L113.217 23.6063L116.968 18.4699L115.679 14.6762L111.118 17.4469L109.008 15.3369L110.521 9.51845L107.153 8.65527L103.541 13.9409L100.141 14.6336L98.8413 10.3497L94.6853 12.7474Z" fill="#FBBC04"/>
<path d="M83.0378 25.3861L76.7398 21.731L78.2743 25.7804L84.5723 29.4463L83.0378 25.3861Z" fill="#FFCB32"/>
<path d="M82.1106 75.1941L80.2244 74.0964L77.2406 74.6719L79.1268 75.7695L82.1106 75.1941Z" fill="#A38DFF"/>
<path d="M76.7931 79.5095L74.8962 78.4119L75.5356 81.5875L77.4218 82.6851L76.7931 79.5095Z" fill="#A38DFF"/>
<path d="M79.1269 75.7695L77.2407 74.6719L74.8962 78.4123L76.7931 79.5099L79.1269 75.7695Z" fill="#BFB0FE"/>
<path d="M79.1268 75.7691L76.7931 79.5095L77.4218 82.6851L80.395 82.1097L82.7394 78.3692L82.1106 75.1936L79.1268 75.7691Z" fill="#E6EFFF"/>
<path d="M104.245 29.6978L100.49 27.5129L94.5504 28.6584L98.3051 30.8433L104.245 29.6978Z" fill="#C63B1B"/>
<path d="M93.6596 38.2886L89.8837 36.1038L91.1565 42.4251L94.9111 44.61L93.6596 38.2886Z" fill="#C63B1B"/>
<path d="M98.3051 30.8431L94.5505 28.6582L89.8837 36.1038L93.6596 38.2887L98.3051 30.8431Z" fill="#EE522E"/>
<path d="M98.3051 30.8427L93.6596 38.2883L94.9111 44.6097L100.829 43.4642L105.496 36.0186L104.245 29.6973L98.3051 30.8427Z" fill="#FFED0E"/>
<path d="M18.8537 108.411L17.7561 111.736L17.0954 116.542V120.964C17.0954 121.742 16.8609 122.307 16.3068 122.541C14.9321 122.946 12.982 122.68 11.895 121.668C10.7548 120.229 10.9572 118.044 11.1491 116.03L12.6516 111.128L13.5041 109.509L14.996 107.015L18.5873 108.411H18.8537Z" fill="#2A0B88"/>
<path d="M54.4144 108.229L54.8194 111.117L57.4089 113.472L64.0799 115.838C64.8471 116.669 64.7086 117.447 64.0799 118.204C61.5223 119.259 57.5261 118.801 53.2316 118.033C51.4199 118.598 49.6723 118.406 47.9886 117.597C47.85 115.625 47.9992 113.973 48.5533 112.79L48.9476 108.858L54.4144 108.251V108.229Z" fill="#2A0B88"/>
<path d="M13.3976 112.408C14.9321 114.379 18.3849 114.432 19.4292 112.738C20.8252 107.58 23.3827 102.657 25.6419 96.913L28.5298 92.011C32.2276 85.1056 35.286 78.9461 37.3214 72.6801L38.8666 72.7121C40.9127 79.2232 43.2251 85.0416 46.7311 90.615C46.6672 99.8222 46.0278 110.5 48.3083 113.622C49.0542 113.889 49.7789 114.027 50.4929 114.027C52.1766 114.027 53.7644 113.228 55.2137 111.257L54.6063 94.9841C55.1284 92.2028 55.2883 89.3575 54.6595 86.768C53.1996 79.2445 50.9404 72.2858 46.7311 64.1123C42.703 65.6575 35.7549 65.1353 30.2775 60.2227C29.1692 61.2563 27.7199 64.3893 27.2297 67.1813C23.8303 73.5113 22.1146 81.4291 21.017 89.9223C17.2446 94.089 15.1559 101.847 12.7049 109.69C12.5984 110.83 12.8861 111.747 13.4083 112.418L13.3976 112.408Z" fill="#BFB0FE"/>
<path d="M30.2562 60.2117C30.5013 60.7978 30.8742 61.3626 31.3644 61.8741C34.5401 65.2416 42.3513 66.8827 46.7098 64.1013L48.3189 60.2117C48.5534 60.0412 48.7878 59.8387 49.0222 59.6149C49.3846 59.2739 49.7682 58.8903 50.1412 58.464C51.7077 56.7164 53.3381 54.3187 54.521 52.1234L55.3629 43.5556C51.1322 41.6801 47.4025 41.5415 42.7456 42.5432C40.3905 41.3497 36.682 41.1472 34.3269 42.2768L33.2187 45.1434L31.2259 50.2798C30.3414 53.8391 29.8832 57.2172 30.2455 60.2117H30.2562Z" fill="#F1522D"/>
<g style="mix-blend-mode:multiply" opacity="0.15">
<path d="M30.2562 60.2118C30.5013 60.7979 31.4071 62.439 33.6876 63.6218C34.8172 60.2118 36.746 56.7271 38.5789 53.7859L49.0329 59.615L50.1519 58.4641L34.327 45.5484L33.2187 45.1648L31.2259 50.3012C30.3414 53.8605 29.8832 57.2386 30.2455 60.2331L30.2562 60.2118Z" fill="#3C3C3B"/>
</g>
<path d="M54.7554 43.2896C56.3326 43.8863 57.8458 45.3143 59.2844 47.6907L62.0764 50.6319L58.1762 55.1609C56.1941 54.1485 54.5317 52.2517 52.8479 50.7171L54.7554 43.2896Z" fill="#F1522D"/>
<path d="M49.3206 43.9926C48.5107 45.1328 48.3189 47.1043 46.3048 48.4896C42.7668 49.7257 40.3265 43.8007 41.9463 42.2875L44.312 40.2734L49.3206 43.9926Z" fill="#EDA868"/>
<path d="M53.2742 43.3748L52.1659 43.2896C51.8782 44.3339 53.1356 44.3126 53.2742 43.3748Z" fill="#FFBB7D"/>
<path d="M13.3976 112.407C15.2305 103.285 18.3422 95.8363 23.3614 90.8704C22.3277 84.0396 25.205 76.303 29.8299 68.1721C30.3947 65.9342 31.6202 64.357 33.6876 63.6217C32.0997 62.8332 30.9808 61.6716 30.2455 60.2117C29.1372 61.2453 27.688 64.3784 27.1978 67.1704C23.7983 73.5003 22.0826 81.4181 20.985 89.9113C17.2126 94.078 15.1239 101.836 12.673 109.679C12.5664 110.819 12.8541 111.736 13.3763 112.407H13.3976Z" fill="#6634FA"/>
<path d="M38.8559 72.7117C40.902 79.2228 43.2145 85.0413 46.7204 90.6146C46.6565 99.8218 46.0171 110.5 48.2976 113.622C49.0435 113.888 49.7682 114.027 50.4822 114.027C48.2656 109.7 48.2337 99.5128 48.2123 89.3039C44.3014 81.9402 41.5307 74.8963 42.7669 69.0139C41.0725 70.314 39.3888 70.9854 37.7157 70.4952L37.3214 72.6797L38.8666 72.7117H38.8559Z" fill="#6634FA"/>
<path d="M81.3008 73.4583L80.4802 72.9788C80.5441 73.0107 80.5974 73.064 80.6294 73.128C81.3221 74.5026 82.0467 75.8454 82.75 77.2094L83.5706 77.6889C82.8779 76.3249 82.1533 74.9822 81.4499 73.6075C81.418 73.5435 81.3647 73.4903 81.3008 73.4583Z" fill="#4A4A49"/>
<path d="M82.7713 77.2514L83.5919 77.7309C83.5919 77.7309 83.5599 77.7096 83.5492 77.6883L82.7287 77.2087C82.7287 77.2087 82.75 77.2407 82.7713 77.2514Z" fill="#E8C17D"/>
<path d="M83.6345 68.0975L82.8139 67.6179C81.5458 66.8826 79.4678 67.0105 77.7841 67.9802C76.7717 68.5663 75.8446 68.6942 75.1626 68.3106L75.9831 68.7901C76.6545 69.1844 77.5816 69.0459 78.6046 68.4598C80.2884 67.49 82.3664 67.3622 83.6345 68.0975Z" fill="#BFB0FE"/>
<path d="M72.4239 84.3917L73.2444 84.8712C72.0189 84.1572 71.5074 82.6866 71.4328 80.9816C71.4115 80.2357 71.4541 79.4364 71.5713 78.6372C71.7632 77.3051 71.5394 76.1649 70.8254 75.6214L70.0048 75.1418C70.7188 75.6853 70.9426 76.8256 70.7508 78.1576C70.6442 78.9462 70.591 79.7454 70.6123 80.5021C70.6869 82.2071 71.1984 83.6884 72.4239 84.3917Z" fill="#2A0B88"/>
<path d="M34.9876 48.2876L34.1671 47.8081L70.0049 75.142L70.8254 75.6215L34.9876 48.2876Z" fill="#4A4A49"/>
<path d="M39.4633 40.9556L38.6428 40.476C38.0567 40.135 37.2788 40.2309 36.5008 40.6891L37.3214 41.1687C38.0993 40.7211 38.8772 40.6145 39.4633 40.9556Z" fill="#3F13C2"/>
<path d="M37.3214 41.1685L36.5008 40.689C35.8082 41.0833 35.1155 41.7653 34.54 42.6498C33.2293 44.6851 33.0801 46.9763 34.1671 47.8075L34.9876 48.287C33.9006 47.4558 34.0498 45.1753 35.3606 43.1293C35.9254 42.2448 36.6287 41.5628 37.3214 41.1685Z" fill="#3F13C2"/>
<path d="M37.3214 41.1692C36.6287 41.5635 35.9361 42.2455 35.3606 43.13C34.0499 45.1654 33.9007 47.4565 34.9876 48.2877L70.8254 75.6216C71.5394 76.1651 71.7632 77.3053 71.5714 78.6374C71.4648 79.426 71.4115 80.2252 71.4328 80.9818C71.5607 83.7845 72.8501 85.9478 76.516 85.1592C76.7611 85.1059 77.2406 85.01 77.507 84.8608C77.6562 84.7755 77.7415 84.6583 77.6775 84.5198C76.889 83.0066 76.2283 81.7491 75.4503 80.2359C75.3118 79.9908 75.3757 79.4366 75.6208 79.021C76.9529 76.7405 78.7006 74.8011 80.5761 73.5436C80.9384 73.3305 81.3007 73.3838 81.4286 73.6289C82.1213 75.0035 82.8459 76.3463 83.5493 77.7103C83.5919 77.7742 83.6665 77.7849 83.7517 77.7316C83.8157 77.689 83.8903 77.625 83.9222 77.5291C85.542 73.6608 85.2756 69.6646 84.146 68.5137C82.9951 67.3628 80.5441 67.3628 78.6047 68.4818C77.507 69.1212 76.4947 69.2171 75.8127 68.6949L39.6125 41.0839C39.0158 40.6257 38.1633 40.7003 37.3107 41.1905L37.3214 41.1692Z" fill="#6634FA"/>
<path d="M65.5824 63.2702L65.8488 66.6163L65.2095 68.8222L63.7921 70.1969C63.3765 70.5059 63.0568 70.1969 62.8863 69.9411C62.3961 70.069 62.2256 69.8452 61.9379 69.5149C61.3944 69.6215 60.9362 69.2911 60.7764 68.8116C60.2755 68.7263 59.6681 68.3427 59.455 67.0532L60.1476 67.5647L60.9362 66.6909L60.9042 65.5933L59.4869 66.595C58.8688 66.968 58.4532 66.3499 59.1139 65.8064L60.9149 63.4833L62.3748 62.9611L62.3322 62.1299L65.3054 61.8635L65.5824 63.2595V63.2702Z" fill="#FFBB7D"/>
<path d="M64.0159 52.667C65.284 55.5762 65.5824 59.8281 65.5931 63.6219C65.1455 62.8333 63.984 62.6947 62.3748 62.9612C60.755 60.6807 59.6574 58.2616 59.2951 55.6188C58.9115 55.5016 58.5491 55.3418 58.1868 55.1606C58.4852 52.5178 59.5615 50.7595 62.0871 50.6316L64.0159 52.667Z" fill="#F1522D"/>
<path d="M22.9671 58.5068C23.3507 55.8853 24.6082 52.6777 26.4624 49.0651C27.0592 45.5378 29.7659 43.3319 34.3376 42.2876L31.098 52.9547L32.0038 52.2194L33.2186 57.1534C31.1086 59.4445 29.1052 61.2135 27.4641 62.2259C26.3772 62.9399 24.8107 62.9292 23.6171 62.4923C22.4129 61.9169 22.381 60.4463 22.9564 58.5174L22.9671 58.5068Z" fill="#F1522D"/>
<path d="M35.7549 53.3057C37.3108 52.6024 38.1633 51.931 39.3142 50.7588L40.0814 49.3202C40.1987 49.0218 41.1045 47.5193 41.2217 47.3381C41.6586 46.6454 41.2856 46.4216 40.934 46.72C40.8807 46.7627 39.6339 48.1693 39.5593 48.18C39.5593 48.1267 39.3994 48.116 39.474 47.9455C39.7191 47.3594 40.7741 45.6117 40.8381 45.4945C41.1364 44.9404 40.7528 44.674 40.4331 45.015C40.3479 45.1109 39.2183 46.6241 38.76 47.3168C38.76 47.2742 38.4297 47.402 38.5149 47.1996C38.8666 46.411 39.9429 44.2477 39.9962 44.1305C40.2413 43.5657 39.9216 43.0968 39.5273 43.6936C39.4421 43.8108 38.3551 45.7396 37.7796 46.4749C37.6198 46.6774 37.4493 46.2511 37.4067 46.2724C37.769 45.4199 38.5256 43.928 38.6748 43.4485C38.9838 42.4894 38.3125 42.7345 37.9928 43.246L36.3197 46.2298C36.0746 46.9651 35.3819 47.9562 34.5614 48.1054C34.4122 48.0095 34.2097 47.6471 33.7089 47.3274C33.1014 47.7963 33.4638 47.5406 33.2293 48.148C33.1121 49.0538 33.3892 50.0662 33.5703 51.1957L33.0482 52.1335L34.8385 54.1689L35.7656 53.327L35.7549 53.3057Z" fill="#FFBB7D"/>
<path d="M33.5171 50.9937C34.5081 50.6314 35.8402 52.4856 36.2984 53.53C35.2647 54.8514 34.231 56.0662 33.2187 57.1638C31.5456 56.1408 31.2792 54.4251 32.0038 52.2299L33.5171 51.0044V50.9937Z" fill="#F1522D"/>
<path d="M48.4255 33.2506C52.6241 33.24 54.9685 35.9574 55.1391 39.7511C55.1817 40.6995 54.9153 41.6373 54.4357 42.4472L53.839 43.4489L54.0841 44.749C54.2972 45.8786 53.4234 45.495 53.0823 45.6761C53.0823 45.6761 52.4749 47.2852 51.8036 47.8714C50.4822 48.4362 49.1927 47.7968 47.3598 46.8483C46.9016 46.6139 46.5712 46.1663 46.4753 45.6655L45.9638 42.8521L44.1629 41.9357C43.5235 41.0192 43.3743 39.6339 43.5768 37.9288C44.0563 35.4246 45.5482 33.2506 48.4361 33.24L48.4255 33.2506Z" fill="#FFBB7D"/>
<path d="M55.1923 41.1684C54.212 42.2873 51.6544 42.0742 50.1518 41.1684C50.1518 41.1684 49.8108 41.4242 48.9583 42.2873L47.0614 41.8398C45.5909 43.6727 43.3317 42.4898 43.0546 41.3389C43.0546 41.3389 42.4472 37.428 44.1735 35.1688C47.2 31.1939 51.7929 33.5597 53.2742 34.4548C55.3735 35.7336 56.8654 39.3355 55.1923 41.1684Z" fill="#2A0B88"/>
<path d="M47.3065 40.3154C46.9442 40.422 46.6671 40.7204 46.5073 41.0614C46.3474 41.4024 46.3155 41.786 46.3368 42.1696C46.3474 42.4041 46.3794 42.6385 46.4966 42.841C46.6032 43.0435 46.8056 43.214 47.0294 43.2353C47.3491 43.2673 47.6369 43.0222 47.8287 42.7557C48.1057 42.3828 48.2869 41.9565 48.3828 41.4983C48.4468 41.1786 48.4467 40.8269 48.2549 40.5712C48.0418 40.2941 47.6369 40.2195 47.3065 40.3154Z" fill="#FFBB7D"/>
</svg>
