<svg width="128" height="128" viewBox="0 0 128 128" fill="none" xmlns="http://www.w3.org/2000/svg">
<path d="M39.0605 82.6391C32.8912 79.0759 27.8882 70.4533 27.8882 63.3751C27.8882 60.753 28.5799 58.718 29.7623 57.3748C26.376 57.6161 24.0836 60.4554 24.0836 65.2332C24.0836 72.3114 29.0866 80.9339 35.2559 84.4971C39.1329 86.7332 42.5352 86.4275 44.538 84.1432C42.9213 84.2638 41.0552 83.7893 39.0605 82.6391Z" fill="#FFED0E"/>
<path d="M49.919 80.2984C49.919 79.4136 49.8386 78.5047 49.726 77.5878L54.2383 77.0167C53.7799 74.7404 53.0801 72.4481 52.1953 70.1798L47.0475 68.6274C46.1467 66.7051 45.0689 64.839 43.8463 63.1016L45.0769 57.9136C43.5486 56.0073 41.8997 54.2619 40.1463 52.7176L37.3794 56.2969C36.6394 55.7419 35.8913 55.2191 35.1192 54.7687C34.347 54.3263 33.599 53.9804 32.859 53.6828L30.092 46.9022C28.3386 46.4196 26.6897 46.2587 25.1614 46.4035L26.3921 53.0152C25.1695 53.3369 24.0917 53.9563 23.1908 54.841L18.043 50.4574C17.1502 51.6961 16.4585 53.1841 16 54.9295L20.5123 60.7127C20.3997 61.4929 20.3193 62.3134 20.3193 63.1981C20.3193 64.0829 20.3997 64.9918 20.5123 65.9088L16 66.4798C16.4585 68.7561 17.1582 71.0485 18.043 73.3167L23.1908 74.8691C24.0917 76.7915 25.1695 78.6576 26.3921 80.3949L25.1614 85.5829C26.6897 87.4892 28.3386 89.2346 30.092 90.779L32.859 87.1996C33.599 87.7546 34.347 88.2775 35.1192 88.7279C35.8913 89.1703 36.6394 89.5161 37.3794 89.8137L40.1463 96.5943C41.8997 97.0769 43.5486 97.2378 45.0769 97.093L43.8463 90.4814C45.0689 90.1596 46.1467 89.5403 47.0475 88.6555L52.1953 93.0392C53.0881 91.8005 53.7799 90.3124 54.2383 88.567L49.726 82.7838C49.8386 82.0036 49.919 81.1832 49.919 80.2984ZM35.2639 84.489C29.0947 80.9258 24.0917 72.3033 24.0917 65.2251C24.0917 58.1469 29.0947 55.2915 35.2639 58.8547C41.4332 62.4179 46.4362 71.0405 46.4362 78.1186C46.4362 85.1968 41.4332 88.0522 35.2639 84.489Z" fill="#F1522D"/>
<path d="M37.1863 51.2061L34.4194 44.4255L30.092 46.9109L32.859 53.6915L37.1863 51.2061Z" fill="#B63416"/>
<path d="M32.8589 53.691C33.5989 53.9886 34.347 54.3345 35.1191 54.7768C35.8913 55.2192 36.6393 55.7421 37.3793 56.3051L40.1463 52.7258C40.1463 52.7258 39.6797 52.4362 39.4384 52.2995C38.6663 51.8571 37.9182 51.5112 37.1782 51.2136L32.8509 53.699L32.8589 53.691Z" fill="#FFED0E"/>
<path d="M34.4194 44.4253C32.6659 43.9427 31.017 43.7898 29.4888 43.9266L25.1614 46.412C26.6897 46.2672 28.3386 46.4281 30.092 46.9107L34.4194 44.4253Z" fill="#FFED0E"/>
<path d="M49.4123 55.4287C47.8841 53.5224 46.2352 51.777 44.4817 50.2327L40.1544 52.7181C41.8998 54.2544 43.5567 56.0078 45.085 57.9141L49.4123 55.4287Z" fill="#FFED0E"/>
<path d="M45.0849 57.9134L43.8463 63.1094L48.1736 60.624L49.4123 55.428L45.0849 57.9134Z" fill="#B63416"/>
<path d="M43.8463 63.1097C45.0688 64.8471 46.1467 66.7051 47.0475 68.6355L51.3749 66.1501C50.474 64.2277 49.3962 62.3616 48.1736 60.6243L43.8463 63.1097Z" fill="#FFED0E"/>
<path d="M47.0475 68.6356L52.1953 70.1879L56.5226 67.7025L51.3749 66.1501L47.0475 68.6356Z" fill="#B63416"/>
<path d="M52.1953 70.1883C53.0881 72.4485 53.7799 74.7489 54.2383 77.0252L58.5657 74.5398C58.1072 72.2635 57.4074 69.9711 56.5227 67.7029L52.1953 70.1883Z" fill="#FFED0E"/>
<path d="M26.3921 53.0317L26.0302 51.1094L22.3704 47.9885L18.0431 50.4739L23.1908 54.8576C24.0917 53.9728 25.1695 53.3535 26.3921 53.0317Z" fill="#FFED0E"/>
<path d="M54.2383 88.5755C53.7799 90.3209 53.0801 91.817 52.1953 93.0476L56.5227 90.5622C57.4155 89.3235 58.1072 87.8355 58.5657 86.0901L54.2383 88.5755Z" fill="#FFED0E"/>
<path d="M54.0534 80.3066C54.166 79.5264 54.2464 78.706 54.2464 77.8212C54.2464 77.5638 54.2303 77.2984 54.2142 77.033L49.726 77.604C49.8386 78.521 49.9191 79.4299 49.9191 80.3147C49.9191 81.1994 49.8386 82.0199 49.726 82.8001L54.0534 80.3147V80.3066Z" fill="#FFED0E"/>
<path d="M49.726 82.7923L54.2384 88.5755L58.5657 86.0901L54.0534 80.3069L49.726 82.7923Z" fill="#B63416"/>
<path d="M47.0475 88.6638C46.1467 89.5486 45.0688 90.1679 43.8463 90.4897L45.0769 97.1014L49.4042 94.6159L48.5275 89.9266L47.0475 88.6638Z" fill="#FFED0E"/>
<path d="M20.3515 63.9382L16 66.496L20.5123 65.925C20.4319 65.2574 20.3756 64.5978 20.3515 63.9382Z" fill="#B63416"/>
<path d="M32.859 87.2083L30.092 90.7876L34.4516 88.3102C33.9127 87.9643 33.3818 87.6024 32.859 87.2083Z" fill="#FFED0E"/>
<g style="mix-blend-mode:color-dodge">
<path d="M25.8693 53.3292L25.8532 53.2649C25.6441 53.3453 25.451 53.4418 25.2499 53.5384C25.451 53.466 25.6521 53.3936 25.8612 53.3373L25.8693 53.3292Z" fill="white"/>
</g>
<path d="M70.0356 63.3029C60.7535 57.946 53.2329 44.972 53.2329 34.3225C53.2329 30.3732 54.2785 27.3167 56.0561 25.2898C50.9647 25.6598 47.5221 29.9228 47.5221 37.1136C47.5221 47.7631 55.0427 60.7371 64.3248 66.094C70.1562 69.4561 75.2718 68.9976 78.2801 65.5551C75.8429 65.732 73.0358 65.0242 70.0356 63.2949V63.3029Z" fill="#08F4A1"/>
<path d="M86.3637 59.7881C86.3637 58.4529 86.2511 57.0936 86.0742 55.7181L92.8628 54.8575C92.1711 51.4391 91.1254 47.9804 89.7822 44.578L82.0444 42.2374C80.6931 39.3418 79.0684 36.5427 77.2264 33.9286L79.0844 26.1184C76.7921 23.255 74.3067 20.6168 71.6765 18.3083L67.51 23.6974C66.4 22.8609 65.2659 22.0726 64.1076 21.405C62.9494 20.7374 61.8153 20.2146 60.7053 19.7722L56.5388 9.57316C53.9086 8.84926 51.4232 8.60795 49.1308 8.82513L50.9888 18.7748C49.1469 19.2574 47.5221 20.1824 46.1709 21.5176L38.4331 14.922C37.0899 16.78 36.0442 19.0322 35.3525 21.6463L42.1411 30.3493C41.9722 31.5236 41.8515 32.7623 41.8515 34.0894C41.8515 35.4166 41.9642 36.784 42.1411 38.1594L35.3525 39.0201C36.0442 42.4385 37.0899 45.8972 38.4331 49.2995L46.1709 51.6401C47.5221 54.5358 49.1469 57.3349 50.9888 59.949L49.1308 67.7591C51.4232 70.6226 53.9086 73.2608 56.5388 75.5693L60.7053 70.1802C61.8153 71.0167 62.9494 71.8049 64.1076 72.4726C65.2659 73.1402 66.4 73.663 67.51 74.1054L71.6765 84.3044C74.3067 85.0283 76.7921 85.2696 79.0844 85.0524L77.2264 75.1027C79.0684 74.6201 80.6931 73.6951 82.0444 72.3599L89.7822 78.9555C91.1254 77.0975 92.1711 74.8454 92.8628 72.2312L86.0742 63.5283C86.2431 62.354 86.3637 61.1153 86.3637 59.7881ZM64.3248 66.0941C55.0427 60.7372 47.5221 47.7632 47.5221 37.1138C47.5221 26.4643 55.0427 22.1772 64.3248 27.5341C73.6069 32.891 81.1275 45.865 81.1275 56.5144C81.1275 67.1639 73.6069 71.451 64.3248 66.0941Z" fill="#04C984"/>
<path d="M67.2123 16.0237L63.0459 5.82471L56.5388 9.56489L60.7052 19.7639L67.2123 16.0237Z" fill="#03B073"/>
<path d="M60.7053 19.7641C61.8153 20.2065 62.9494 20.7293 64.1076 21.3969C65.2659 22.0645 66.4 22.8528 67.51 23.6893L71.6765 18.3002C71.6765 18.3002 70.9767 17.8578 70.6147 17.6567C69.4565 16.9891 68.3224 16.4663 67.2124 16.0239L60.7053 19.7641Z" fill="#08F4A1"/>
<path d="M63.0459 5.82487C60.4157 5.10097 57.9303 4.85966 55.6379 5.07684L49.1308 8.81702C51.4232 8.59984 53.9086 8.84115 56.5388 9.56505L63.0459 5.82487Z" fill="#08F4A1"/>
<path d="M85.5996 22.3783C83.3072 19.5148 80.8218 16.8766 78.1916 14.5681L71.6845 18.3083C74.3147 20.6248 76.8001 23.255 79.0925 26.1184L85.5996 22.3783Z" fill="#08F4A1"/>
<path d="M79.0924 26.1106L77.2344 33.9207L83.7415 30.1886L85.5995 22.3784L79.0924 26.1106Z" fill="#03B073"/>
<path d="M77.2344 33.9208C79.0763 36.535 80.7011 39.3341 82.0524 42.2297L88.5595 38.4895C87.2082 35.5939 85.5834 32.7948 83.7415 30.1807L77.2344 33.9208Z" fill="#08F4A1"/>
<path d="M82.0524 42.2292L89.7901 44.5698L96.2972 40.8297L88.5595 38.4971L82.0524 42.2292Z" fill="#03B073"/>
<path d="M89.7901 44.5698C91.1333 47.9721 92.179 51.4308 92.8707 54.8492L99.3778 51.1091C98.6861 47.6906 97.6405 44.2319 96.2972 40.8296L89.7901 44.5698Z" fill="#08F4A1"/>
<path d="M50.9807 18.7663L50.4418 15.8707L44.9321 11.1733L38.425 14.9135L46.1627 21.5091C47.514 20.1739 49.1388 19.2489 50.9807 18.7663Z" fill="#08F4A1"/>
<path d="M92.8707 72.2314C92.179 74.8535 91.1333 77.0977 89.7901 78.9557L96.2972 75.2155C97.6405 73.3575 98.6861 71.1053 99.3778 68.4912L92.8707 72.2314Z" fill="#08F4A1"/>
<path d="M92.5812 59.788C92.7501 58.6137 92.8708 57.375 92.8708 56.0478C92.8708 55.6537 92.8466 55.2596 92.8225 54.8574L86.0741 55.71C86.243 57.0854 86.3637 58.4528 86.3637 59.78C86.3637 61.1071 86.2511 62.3458 86.0741 63.5202L92.5812 59.78V59.788Z" fill="#08F4A1"/>
<path d="M86.0741 63.5288L92.8708 72.2317L99.3779 68.4915L92.5812 59.7886L86.0741 63.5288Z" fill="#03B073"/>
<path d="M82.0524 72.3599C80.7011 73.6951 79.0763 74.6201 77.2344 75.1027L79.0924 85.0523L85.5995 81.3122L84.2884 74.2581L82.0604 72.3599H82.0524Z" fill="#FFED0E"/>
<path d="M41.8917 35.1755L35.3444 39.0203L42.133 38.1596C42.0044 37.1542 41.932 36.1649 41.8917 35.1755Z" fill="#03B073"/>
<path d="M60.7052 70.1804L56.5388 75.5695L63.0941 71.8374C62.2898 71.3226 61.4854 70.7756 60.7052 70.1804Z" fill="#03B073"/>
<g style="mix-blend-mode:color-dodge">
<path d="M50.1845 19.2174L50.1684 19.1208C49.8547 19.2415 49.5652 19.3782 49.2676 19.5311C49.5732 19.4185 49.8708 19.3058 50.1845 19.2254V19.2174Z" fill="white"/>
<path d="M78.4812 74.7651C79.5992 74.3629 80.6207 73.7918 81.5457 73.0519L81.2562 72.8105C80.4357 73.6229 79.4947 74.2664 78.4812 74.7731V74.7651Z" fill="white"/>
<g style="mix-blend-mode:color-dodge">
<path d="M77.0496 75.5533L78.8272 85.0767C78.618 85.0687 79.0282 85.0606 79.4143 85.0285L77.5804 75.1753C77.2104 75.3201 76.8324 75.4488 77.0496 75.5533Z" fill="white"/>
</g>
</g>
<path d="M71.0249 56.5469L63.2389 49.6537L61.1718 39.5351L66.8504 36.2615L74.6364 43.1547L76.7277 53.2974L71.0249 56.5469Z" fill="#08F4A1"/>
<path d="M71.0249 56.5466L63.2389 49.6534L74.6364 43.1543L76.7277 53.297L71.0249 56.5466Z" fill="#03B073"/>
<path d="M108.748 103.375L88.7525 68.8773L82.5832 44.5781C82.1489 42.881 81.2239 41.3447 79.9209 40.1704L72.0544 33.1083C71.1375 32.2798 69.7942 32.135 68.7164 32.7543L66.3195 34.0815L67.2927 34.8858C67.1801 35.7787 67.4777 36.7278 68.2338 37.3954L74.0331 42.5271L77.0655 57.2545L68.7888 61.976L57.4798 51.97L55.9194 44.3931C55.5252 42.4788 53.3696 41.5056 51.6725 42.4708L49.2836 43.7979L50.2327 44.8757C50.2327 45.109 50.2327 45.3423 50.289 45.5755L52.4768 55.8148C52.8468 57.528 53.7155 59.0965 54.9703 60.3191L73.0518 77.8376L93.0477 112.336C96.6753 118.594 102.185 122.454 106.432 122.1L106.351 122.728L108.748 121.401C113.084 118.931 113.084 110.864 108.748 103.383V103.375ZM104.148 113.454C102.37 114.467 99.4905 112.802 97.7048 109.738C95.9272 106.673 95.9272 103.359 97.7048 102.346C99.4824 101.332 102.362 102.997 104.148 106.062C105.925 109.126 105.925 112.44 104.148 113.454Z" fill="#3F13C2"/>
<path d="M66.3195 34.0813C64.6143 35.0545 64.365 37.4193 65.8369 38.7223L71.6362 43.854L74.6685 58.5815L66.3919 63.3029L55.0829 53.2969L53.5225 45.7201C53.1283 43.8057 50.9727 42.8325 49.2755 43.7977C48.1897 44.417 47.6266 45.6718 47.884 46.9024L50.0718 57.1417C50.4418 58.8549 51.3105 60.4234 52.5653 61.646L70.6468 79.1645L90.6427 113.663C94.9781 121.143 102.008 125.197 106.343 122.728C110.679 120.258 110.679 112.191 106.343 104.71L86.3476 70.2122L80.1783 45.9131C79.7439 44.2159 78.8189 42.6797 77.5159 41.5053L69.6495 34.4432C68.7325 33.6147 67.3893 33.47 66.3115 34.0893L66.3195 34.0813ZM101.751 114.789C99.9731 115.802 97.0935 114.137 95.3079 111.073C93.5303 108.008 93.5303 104.694 95.3079 103.681C97.0855 102.667 99.965 104.332 101.751 107.397C103.528 110.461 103.528 113.775 101.751 114.789Z" fill="#6634FA"/>
<path d="M65.3462 59.7962L57.5602 52.903L55.4689 42.7683L61.1717 39.5107L68.9577 46.4039L71.049 56.5467L65.3462 59.7962Z" fill="#04C984"/>
</svg>
