<svg width="128" height="128" viewBox="0 0 128 128" fill="none" xmlns="http://www.w3.org/2000/svg">
<path d="M17.7433 120.919C18.0057 120.766 18.1971 120.566 18.2695 120.333L20.4137 112.645C20.4993 112.325 20.7544 112.046 21.1198 111.833C21.675 111.51 22.4825 111.34 23.3335 111.419L32.4568 112.219C32.8686 112.256 33.2165 112.362 33.5282 112.493L32.2713 116.991C32.2321 117.128 32.2901 117.254 32.3379 117.378C32.2466 117.165 32.2814 122.181 32.2814 122.181C32.2858 122.866 33.46 123.412 34.6343 123.188C37.0322 122.729 39.2199 121.884 41.1003 120.788C45.4104 118.276 48.1156 114.437 48.0909 110.873L48.0692 107.832C48.4201 106.991 49.1841 106.204 50.2656 105.573L93.0216 80.4996C94.7266 79.5051 97.0969 79.0528 99.5049 79.0992C104.601 79.2094 109.658 78.2206 113.395 76.0417C114.166 75.5908 114.882 75.0906 115.529 74.5397C117.72 72.6637 119.02 69.886 119 67.0677L118.963 62.0516C118.979 58.9984 117.327 55.7161 113.321 53.6299C112.557 53.2414 111.451 53.3211 110.797 53.7024C110.58 53.8286 110.413 53.9895 110.324 54.175L106.671 62.1081C106.549 62.3647 106.317 62.5879 106.014 62.7648C105.389 63.1287 104.459 63.2983 103.537 63.1649L94.5903 61.808C94.3627 61.7428 96.3227 57.4935 96.3227 57.4935C96.3662 57.3993 96.3865 57.3065 96.3851 57.2152L96.3503 52.199C96.3503 52.2903 96.3314 52.3832 96.2879 52.4774C96.6605 51.6699 95.3108 50.916 93.9205 51.2059C91.2471 51.7757 88.8029 52.7282 86.7355 53.9329C82.5675 56.3627 79.9521 59.8204 80.0536 63.2548C80.0319 63.1099 80.0579 66.927 80.0579 66.927C79.6535 67.6998 78.9315 68.4217 77.9355 69.0016L35.2374 94.0403C33.592 95.0001 31.3391 95.4524 28.989 95.4393C25.4052 95.4205 21.7432 95.9236 18.3928 97.0384C16.9373 97.5197 15.6585 98.0938 14.5524 98.739C10.6584 101.009 8.90996 104.162 9.01724 107.287C8.9984 107.076 9.03463 112.093 9.03463 112.093C9.05783 115.434 11.2252 118.767 15.2106 120.978C15.9587 121.394 17.0778 121.307 17.7433 120.919Z" fill="#3F13C2"/>
<path d="M41.0655 115.774C39.1851 116.871 36.9975 117.715 34.5996 118.173C33.3267 118.416 32.0553 117.752 32.2713 116.991L34.5343 108.894C34.7503 108.088 33.8312 107.332 32.422 107.203L23.2973 106.402C22.4463 106.324 21.6388 106.492 21.0835 106.815C20.7182 107.029 20.4631 107.308 20.3775 107.627L18.2319 115.315C18.1594 115.549 17.968 115.749 17.7056 115.901C17.0388 116.29 15.921 116.377 15.1758 115.963C7.5472 111.732 6.58313 103.388 14.5539 98.7418C15.66 98.0981 16.9372 97.5226 18.3942 97.0412C21.7446 95.9264 25.4067 95.4233 28.9905 95.4422C31.3406 95.4552 33.5935 95.0029 35.2389 94.0432L77.937 69.0045C79.7593 67.9418 80.78 66.4182 80.3117 64.9452C79.1084 60.9888 81.8832 56.7642 86.7356 53.9358C88.8014 52.731 91.2472 51.7786 93.9205 51.2088C95.3108 50.9203 96.662 51.6742 96.288 52.4802L92.8115 60.0146C92.4374 60.7989 93.2406 61.6006 94.5918 61.8108L103.538 63.1678C104.46 63.3012 105.391 63.1316 106.016 62.7677C106.319 62.5908 106.551 62.3675 106.673 62.1109L110.326 54.1779C110.414 53.9909 110.581 53.8314 110.799 53.7038C111.452 53.3225 112.56 53.2428 113.323 53.6313C120.779 57.5123 120.141 65.5469 115.494 69.525C114.846 70.0773 114.131 70.5775 113.359 71.0283C109.623 73.2059 104.566 74.1946 99.4687 74.0844C97.0607 74.038 94.6903 74.4904 92.9854 75.4849L50.2294 100.558C48.5042 101.564 47.543 102.964 47.875 104.357C48.8202 108.303 45.9903 112.903 41.0655 115.774Z" fill="#6634FA"/>
<path d="M70.303 25.847C69.6192 26.2181 68.4385 26.6327 67.6975 26.8766C68.0033 28.9438 68.6939 33.6714 68.7156 33.6691C70.2823 33.4732 76.6236 26.4093 76.6236 26.4093C76.6236 26.4093 76.3235 25.7325 75.98 25.0236C75.6364 24.3136 74.8908 23.781 74.8908 23.781C74.8908 23.781 71.3474 25.279 70.303 25.847Z" fill="#E6EFFF"/>
<path d="M69.113 27.2494C68.5942 26.0285 66.7264 21.6205 66.4984 20.9448C66.2339 20.1591 65.0337 16.7108 63.8472 15.6446C62.6607 14.5783 60.6691 14 60.6691 14L57.7556 16.8173C57.7556 16.8173 62.0606 25.9323 64.6237 30.4824C64.9936 31.1386 66.2728 33.6673 68.7156 33.6673C69.9262 32.0697 68.0491 28.9466 69.113 27.2494Z" fill="#E6EFFF"/>
<path d="M65.8663 75.0055C65.8663 75.0055 65.7586 75.9137 65.4746 76.8631C65.1906 77.8125 65.5399 79.1364 65.5399 79.1364C65.5399 79.1364 65.7449 79.7193 66.6256 79.8923C67.4445 80.0526 68.1075 79.8568 68.1075 79.8568C68.1075 79.8568 68.9138 80.8302 69.9663 81.5758C71.0188 82.3213 73.3425 82.8997 73.9747 82.8035C74.9939 82.6477 75.5402 81.8529 75.4623 81.341C75.3845 80.8279 74.1831 79.409 73.1982 78.794C72.5568 78.3943 71.1024 77.044 70.6649 76.5733C69.9422 75.7957 69.4086 74.9368 69.4086 74.9368L65.8663 75.0055Z" fill="#FFED0E"/>
<path d="M64.4725 34.5176C64.4725 34.5176 67.4249 42.0499 67.883 45.0974C68.3411 48.146 69.2596 52.7602 69.8105 56.6003C70.3614 60.4414 70.3545 64.183 70.0979 67.9325C69.996 69.4213 69.452 73.3117 69.7395 75.4247C69.4165 76.799 66.1949 76.9708 65.8136 75.3732C65.5765 74.3825 63.1039 65.6099 62.8543 62.851C62.6046 60.0921 63.2562 58.1143 63.2562 58.1143C63.2562 58.1143 59.2341 49.5032 57.8243 46.1155C56.4145 42.7279 57.3731 38.5294 57.3731 38.5294L64.4725 34.5176Z" fill="#952309"/>
<path d="M50.71 82.7349C50.71 82.7349 50.1649 84.7574 50.2336 85.9278C50.3012 87.0983 50.5806 87.3777 50.9345 87.7728C51.2884 88.1679 51.7041 87.9973 51.7041 87.9973C51.7041 87.9973 51.8667 90.4115 53.012 91.3861C54.1561 92.3618 56.2313 92.4546 57.1841 92.0996C58.137 91.7457 57.5105 90.0175 56.5783 88.3225C55.646 86.6276 54.4561 84.8043 54.1584 83.2731C51.8747 82.9593 50.71 82.7349 50.71 82.7349Z" fill="#FFED0E"/>
<path d="M53.8938 37.6382C53.8938 37.6382 52.4474 39.6825 51.2953 43.2797C50.4856 45.8084 50.6173 51.8736 50.6173 51.8736C50.6173 51.8736 50.4088 57.845 50.7948 59.911C51.1796 61.9759 51.1464 62.395 51.1464 62.395C51.1464 62.395 49.4892 67.346 49.7446 73.2005C50 79.055 50.4776 83.2546 50.4776 83.2546C50.4776 83.2546 50.804 84.3621 52.3077 84.5155C53.6774 84.6552 54.6772 83.7047 54.6772 83.7047C54.6772 83.7047 57.1887 71.3097 58.1187 68.4843C59.0497 65.659 59.3922 62.4019 59.3922 62.4019L61.2933 48.4837C61.2933 48.4837 65.0554 46.0283 63.1268 39.8348C61.9197 35.9535 53.8938 37.6382 53.8938 37.6382Z" fill="#EE522E"/>
<path d="M49.0163 21.8078C50.8807 18.0994 56.4833 15.4356 60.5123 16.0174C62.442 17.5543 63.3353 18.5827 64.0316 20.4254C64.6615 22.0929 64.9295 24.0639 64.7279 25.8047C64.1198 31.0373 65.3624 36.1291 65.8136 38.1241C63.6766 40.3596 60.8398 41.8072 57.7087 42.3501C56.0091 42.6444 54.7688 42.0065 53.1139 41.3926C52.87 41.3022 52.7635 41.1373 52.7303 40.8887C52.168 36.6605 50.7158 33.1159 49.2499 29.1625C48.4677 27.0484 47.9523 23.9253 49.0163 21.8078Z" fill="#6634FA"/>
<path d="M59.3475 13.7163C59.3475 13.7163 58.9627 16.2679 59.8961 17.1509C60.8306 18.0339 60.8375 19.8503 58.9662 20.4607C56.6974 21.2005 55.0952 19.5651 53.682 18.4382C54.2924 17.144 54.5913 17.1521 54.5913 13.5182C54.5924 10.5612 59.3475 13.7163 59.3475 13.7163Z" fill="#F9BBA7"/>
<path d="M46.799 24.4093C47.7805 21.4202 50.1718 20.1318 50.1718 20.1318C50.1718 20.1318 53.6556 22.073 53.2869 28.8964C52.7394 31.4366 52.4806 34.8849 52.9284 36.6612C53.8102 37.2419 58.6123 40.7601 59.8835 42.423C57.6949 43.1914 58.2607 44.7387 58.2607 44.7387C58.2607 44.7387 53.9167 44.8738 51.2953 43.2785C50.2428 42.6383 48.8777 41.5228 48.0302 40.2619C47.3579 39.2609 46.8929 38.3127 46.5139 37.0071C45.7912 34.5173 45.9046 27.1305 46.799 24.4093Z" fill="#E6EFFF"/>
<path d="M54.51 15.9368C54.51 15.9368 54.9486 17.4783 56.1213 18.3624C57.5357 19.4275 60.1984 19.6027 60.1984 20.3299C59.4254 20.3299 59.2753 20.3746 59.2753 20.9323C59.2753 21.9768 58.9673 22.2173 58.9673 22.2173C58.9673 22.2173 57.0467 21.6699 55.6621 21.0927C53.9282 20.37 53.1391 17.9707 53.1391 17.9707C53.1391 17.9707 53.4792 15.8406 54.51 15.9368Z" fill="#E6EFFF"/>
<path d="M60.1973 16.0176C60.1973 16.0176 61.3208 17.2395 61.8029 17.8007C62.2851 18.363 62.0034 19.3983 62.2439 19.8645C62.4844 20.3294 62.592 20.6455 62.592 20.6455C62.592 20.6455 61.5888 20.4428 61.3941 19.8645C61.2005 19.2861 60.1962 20.3294 60.1962 20.3294L59.4872 19.7465C59.4872 19.7465 60.5581 19.0616 60.1962 18.331C59.8354 17.5992 59.233 16.636 59.233 16.636L60.1973 16.0176Z" fill="#E6EFFF"/>
<path d="M55.2383 7.42552C56.6447 5.86912 60.3507 5.23123 61.6792 7.51027C62.679 9.22585 62.7202 12.2791 62.4488 13.682C61.8796 16.6276 59.4609 18.3821 56.6756 16.118C54.0198 13.9592 52.8138 10.1088 55.2383 7.42552Z" fill="#FFC9B6"/>
<path d="M65.0005 6.56645C62.1854 6.79321 60.5546 4.71459 58.6443 4.24733C57.3571 3.93239 55.8934 3.82931 54.6863 4.48096C53.375 5.18758 52.8116 6.56188 53.1574 7.76439C51.4247 9.54983 52.6684 13.438 54.3576 15.1787C55.8293 13.5124 55.7102 12.8573 56.3126 11.5872C58.0224 12.7107 60.9142 11.3513 61.4502 10.119C63.2654 10.5519 65.9281 9.29673 65.0005 6.56645Z" fill="#952309"/>
<path d="M56.6951 12.2325C56.6951 12.2325 55.882 11.0013 55.1605 11.9381C54.4378 12.8749 55.9198 13.7843 55.9198 13.7843L56.6951 12.2325Z" fill="#FFC9B6"/>
<path d="M78.8786 19.2382C78.3632 18.8935 78.3816 20.2025 77.5501 21.0248C76.7175 21.8471 75.8471 21.8471 75.6753 22.7175C75.5035 23.5879 75.2321 24.2304 75.2321 24.2304L76.0865 25.6883C76.0865 25.6883 77.5364 24.945 77.7906 24.306C78.1422 23.4218 77.9326 22.1724 78.4812 21.562C79.4283 20.5106 79.1786 19.4387 78.8786 19.2382Z" fill="#FFC9B6"/>
<path d="M71.4013 45.366C76.3247 40.9854 79.3802 32.9034 78.2269 27.3146C77.0737 21.7258 72.1468 20.7454 67.2245 25.126C62.3011 29.5066 59.2456 37.5886 60.3989 43.1774C61.5521 48.7662 66.4778 49.7465 71.4013 45.366ZM65.549 38.5941C65.0726 36.2842 66.3358 32.9446 68.3698 31.134C70.4049 29.3233 72.44 29.7288 72.9164 32.0387C73.3928 34.3487 72.1308 37.6882 70.0957 39.4989C68.0617 41.3095 66.0255 40.9041 65.549 38.5941Z" fill="#03B073"/>
<path d="M80.1006 28.1644L79.8624 27.0135L79.4604 25.0631L79.2222 23.9121L76.7553 24.9096L77.1871 27.002L77.6189 29.0932L78.0506 31.1856L80.1006 28.1644Z" fill="#03B073"/>
<path d="M59.4037 46.5786L59.1666 45.4277L58.7635 43.4773L58.5264 42.3263L60.5752 39.3052L61.007 41.3975L61.4388 43.4888L61.8705 45.5811L59.4037 46.5786Z" fill="#03B073"/>
<path d="M69.8644 48.6594L70.879 47.7569L72.5969 46.2291L73.6105 45.3267L73.9724 41.97L72.1297 43.61L70.287 45.2488L68.4442 46.8888L69.8644 48.6594Z" fill="#03B073"/>
<path d="M65.0154 25.1635L66.0301 24.261L67.7479 22.7333L68.7615 21.8308L70.1816 23.6014L68.3389 25.2414L66.4962 26.8802L64.6535 28.5202L65.0154 25.1635Z" fill="#03B073"/>
<path d="M77.3303 39.7238L77.88 38.2728L78.8099 35.8128L79.3585 34.3606L77.8708 32.6931L76.8733 35.3318L75.8746 37.9693L74.8771 40.6079L77.3303 39.7238Z" fill="#03B073"/>
<path d="M59.2674 36.1311L59.816 34.6789L60.7471 32.219L61.2956 30.7679L63.7488 29.8838L62.7512 32.5224L61.7537 35.1599L60.7562 37.7986L59.2674 36.1311Z" fill="#03B073"/>
<path d="M62.0756 49.7377L65.0578 51.5197L67.3448 47.3098L65.7369 46.9891L64.129 46.6696L62.5211 46.3501L62.0756 49.7377Z" fill="#03B073"/>
<path d="M69.8713 48.6604L72.8535 50.4424L75.1406 46.2324L73.5326 45.9118L71.9247 45.5922L70.3168 45.2727L69.8713 48.6604Z" fill="#03B073"/>
<path d="M73.2818 20.103L74.166 20.2794L75.6662 20.5772L76.5504 20.7535L76.106 24.1412L74.4981 23.8217L72.889 23.5021L71.2811 23.1815L73.2818 20.103Z" fill="#03B073"/>
<path d="M61.5086 44.1082L58.5264 42.3262L59.4037 46.5785L62.3859 48.3605L61.5086 44.1082Z" fill="#08F4A1"/>
<path d="M59.2674 36.1308L62.2496 37.9128L64.2778 32.5496L61.2956 30.7676L59.2674 36.1308Z" fill="#08F4A1"/>
<path d="M65.0154 25.1632L67.9976 26.9453L71.7437 23.6126L68.7615 21.8306L65.0154 25.1632Z" fill="#08F4A1"/>
<path d="M73.2818 20.1025L76.264 21.8845L79.5326 22.5351L76.5503 20.7531L73.2818 20.1025Z" fill="#08F4A1"/>
<path d="M79.2222 23.9121L82.2044 25.6941L79.7376 26.6916L77.5811 24.9646L79.2222 23.9121Z" fill="#03B073"/>
<path d="M74.3835 47.148C79.3069 42.7674 82.3625 34.6854 81.2092 29.0966C80.0559 23.5077 75.1291 22.5274 70.2068 26.908C65.2834 31.2885 62.2279 39.3706 63.3811 44.9594C64.5344 50.5482 69.4601 51.5285 74.3835 47.148ZM68.5313 40.3761C68.0549 38.0661 69.3181 34.7266 71.3521 32.9159C73.3872 31.1053 75.4223 31.5107 75.8987 33.8207C76.3751 36.1307 75.1119 39.4702 73.0779 41.2808C71.044 43.0915 69.0077 42.6861 68.5313 40.3761Z" fill="#04C984"/>
<path d="M83.0817 29.9459L82.8446 28.7949L82.4415 26.8446L82.2044 25.6936L79.7375 26.6911L80.1693 28.7835L80.6011 30.8747L81.0328 32.9671L83.0817 29.9459Z" fill="#04C984"/>
<path d="M62.3859 48.3606L62.1489 47.2097L61.7457 45.2593L61.5087 44.1083L63.5575 41.0872L63.9893 43.1795L64.421 45.2708L64.8528 47.3631L62.3859 48.3606Z" fill="#04C984"/>
<path d="M72.8467 50.4409L73.8602 49.5384L75.5781 48.0095L76.5928 47.1082L76.9547 43.7515L75.1119 45.3915L73.2692 47.0303L71.4265 48.6703L72.8467 50.4409Z" fill="#04C984"/>
<path d="M67.9976 26.9455L69.0123 26.043L70.7302 24.5153L71.7438 23.6128L73.1639 25.3834L71.3212 27.0234L69.4784 28.6622L67.6357 30.3022L67.9976 26.9455Z" fill="#04C984"/>
<path d="M80.3125 41.505L80.861 40.054L81.7921 37.594L82.3407 36.1418L80.8519 34.4744L79.8544 37.113L78.8569 39.7505L77.8593 42.3892L80.3125 41.505Z" fill="#04C984"/>
<path d="M62.2496 37.9124L62.7982 36.4602L63.7281 34.0002L64.2778 32.5492L66.731 31.665L65.7334 34.3037L64.7359 36.9412L63.7384 39.5798L62.2496 37.9124Z" fill="#04C984"/>
<path d="M65.0577 51.5192L65.943 51.6956L67.4421 51.9934L68.3263 52.1697L70.327 49.0913L68.7191 48.7706L67.1112 48.4511L65.5032 48.1316L65.0577 51.5192Z" fill="#04C984"/>
<path d="M76.264 21.8845L77.1481 22.0609L78.6473 22.3587L79.5325 22.535L79.0882 25.9227L77.4791 25.6032L75.8712 25.2825L74.2632 24.963L76.264 21.8845Z" fill="#04C984"/>
<path d="M59.1002 42.1732C59.6304 42.2465 62.5611 42.7722 63.4269 42.9462C64.4473 43.1512 65.6452 43.4341 66.9932 45.0959C67.2337 45.3925 67.244 46.0579 66.4297 45.7132C66.3324 45.9525 66.5385 46.5732 66.3988 46.8412C66.2832 47.0623 65.9293 46.9351 65.5639 46.5286C65.5639 47.4058 65.0211 47.3429 64.7394 46.8103C64.4748 47.0336 64.3637 47.6246 63.8312 47.155C63.27 46.6591 62.1706 46.2468 61.6071 45.7773C58.6627 45.4051 58.5401 45.1783 57.948 44.6355C57.1315 43.8876 57.3571 41.9327 59.1002 42.1732Z" fill="#FFC9B6"/>
<path d="M77.7414 21.7523C77.7952 21.6687 78.3976 20.67 78.921 20.3321C79.4444 19.9943 79.8372 20.449 79.6894 20.8509C79.5417 21.2529 79.0424 21.9252 78.4354 22.2585C77.8261 22.5917 77.51 22.1084 77.7414 21.7523Z" fill="#FFC9B6"/>
<path d="M78.2625 22.5503C78.3163 22.4667 78.9187 21.4681 79.4409 21.1302C79.9643 20.7924 80.3571 21.2471 80.2094 21.649C80.0616 22.051 79.5623 22.7233 78.9553 23.0565C78.3472 23.3898 78.0311 22.9065 78.2625 22.5503Z" fill="#FFC9B6"/>
<path d="M78.4125 23.6597C78.4663 23.5761 79.0687 22.5775 79.5909 22.2396C80.1143 21.9018 80.5071 22.3564 80.3594 22.7584C80.2117 23.1604 79.7123 23.8327 79.1053 24.1659C78.4972 24.4992 78.1811 24.017 78.4125 23.6597Z" fill="#FFC9B6"/>
<path d="M78.6999 24.7396C78.7538 24.656 79.3562 23.6573 79.8795 23.3195C80.4029 22.9816 80.7946 23.4363 80.648 23.8383C80.5003 24.2402 80.0009 24.9125 79.394 25.2458C78.7847 25.579 78.4686 25.0969 78.6999 24.7396Z" fill="#FFC9B6"/>
</svg>
