<svg width="128" height="128" viewBox="0 0 128 128" fill="none" xmlns="http://www.w3.org/2000/svg">
<ellipse cx="65.4517" cy="67" rx="33.5213" ry="48.8208" transform="rotate(29.5212 65.4517 67)" fill="#E6EFFF"/>
<path d="M103.591 31.992C100.417 9.605 81.1326 1.31139 59.2811 13.8772L66.4327 18.6447L60.2732 29.8612L65.8117 33.2397C65.9786 33.2188 70.196 26.5665 70.363 26.5495C79.0776 25.6535 85.6871 30.6669 87.8333 40.2332L80.981 44.1893L86.5195 47.5679L95.1841 51.2142L114.928 31.1661L109.39 27.7876L103.591 31.992Z" fill="#FBBC04"/>
<path d="M58.4464 99.1014L58.9392 110.867L63.6558 102.278L58.4464 99.1014Z" fill="#AC2F12"/>
<path d="M95.0623 49.3827L88.5511 48.6761C88.0624 64.5262 78.5041 82.9338 65.7866 93.6429V85.73L58.7391 98.5669L52.6022 109.745L64.9148 118.078L71.3259 121.91L65.7874 110.457C85.8629 95.3577 107.089 67.1732 108.428 42.6311C108.428 42.6311 103.485 40.2228 103.5 39.7825C103.522 39.1284 102.888 39.9002 102.89 39.2526L95.0623 49.3827Z" fill="#038F5E"/>
<path d="M58.2536 13.6811L52.6022 10.2275V18.3042C31.625 34.0817 15.8725 64.4518 15.8298 89.7085L21.0384 92.8854L28.4335 79.7332C28.9215 63.8848 39.8855 45.8264 52.6014 35.1181L52.6022 43.0302L58.1407 46.408L65.7858 19.0172L58.2536 13.6811Z" fill="#2A0B88"/>
<path d="M107.934 35.2043C104.758 12.8173 86.6719 4.68983 64.8196 17.2565L71.9703 22.0239L65.8116 33.2404C79.2929 26.0203 90.4553 30.6119 93.371 43.6117L86.5194 47.5677L94.1114 51.3222L100.723 54.5927L108.414 41.9066L114.928 31.1668L107.934 35.2043Z" fill="#FFED0E"/>
<path d="M57.4962 113.495L63.6557 102.279C50.1728 109.498 39.0104 104.907 36.0947 91.9047L42.9487 87.9494L35.3543 84.1942L28.7432 80.9253L21.0512 93.6113L14.5392 104.351L21.5335 100.312C24.7081 122.703 42.7946 130.831 64.6469 118.264L57.4962 113.495Z" fill="#F1522D"/>
<path d="M28.7432 80.9245L35.3544 84.1926L42.9487 87.9487L37.4102 84.5693L29.8159 80.8157L23.2039 77.5468L15.512 90.2328L9 100.971L14.5385 104.35L21.0513 93.6097L28.7432 80.9245Z" fill="#AC2F12"/>
<path d="M23.2039 77.5468L15.8306 89.7077L21.0392 92.8855L28.2593 80.0454L23.2039 77.5468Z" fill="#2A0B88"/>
<path d="M63.6557 102.278L58.4463 99.1014C52.0278 102.539 45.8079 103.091 41.0807 101.541C46.2313 106.623 54.3959 107.238 63.6557 102.278Z" fill="#AC2F12"/>
<path d="M21.5328 100.311L17.2573 102.779C19.6648 110.895 24.425 116.49 30.7668 119.108C25.9921 115.06 22.7192 108.686 21.5328 100.311Z" fill="#AC2F12"/>
<path d="M100.723 55.3365L94.0896 52.0555C93.6016 67.9047 84.0426 86.3123 71.3251 97.0223V89.1102L64.2776 101.947L58.1406 113.123L65.2809 117.883L71.3259 121.911V113.836C92.3023 98.0595 108.385 67.8886 108.428 42.6311L100.723 55.3365Z" fill="#04C984"/>
<path d="M64.1848 17.6364L58.1415 13.6053V21.682C37.1643 37.4595 21.0811 67.6288 21.0392 92.8854L28.7432 80.2736L35.3786 83.5546C35.8665 67.7062 45.4256 49.2051 58.1415 38.4959L58.1423 46.4072L65.1898 33.572L71.3259 22.395L64.1848 17.6364Z" fill="#6634FA"/>
<path d="M71.3259 89.1093L65.7866 85.7307L64.6462 97.1053L71.3259 89.1093Z" fill="#038F5E"/>
<path d="M55.4256 77.0865C53.3147 75.8735 52.0214 73.5613 51.7267 70.491H49.5022C49.797 73.5613 51.0902 75.8735 53.2012 77.0865C54.2281 77.6835 56.4639 78.107 58.7845 78.107C61.1051 78.107 62.4432 77.4181 64.364 76.3189C62.4432 77.4181 60.57 77.9772 58.8584 77.9772C57.6127 77.9772 56.4526 77.6835 55.4256 77.0865Z" fill="#2A0B88"/>
<path d="M63.2231 74.3384C60.6462 75.8262 58.2785 76.101 56.5669 75.1155C54.9123 74.1678 53.9899 72.0925 53.9519 69.2781C53.2197 69.695 52.478 70.093 51.7268 70.491C52.0216 73.5614 53.3148 75.8736 55.4258 77.0865C56.4527 77.6836 57.6128 77.9773 58.8585 77.9773C60.5701 77.9773 62.4434 77.4182 64.3642 76.319L63.2231 74.3479V74.3384Z" fill="#6634FA"/>
<path d="M53.9519 69.1264V69.0885C53.9519 68.8267 53.9593 68.5626 53.9739 68.2965C54.1652 61.9542 56.5608 55.1242 62.0724 51.9648C63.1891 51.3241 64.2625 50.9089 65.2582 50.7229C66.4999 50.1311 67.6736 49.8326 68.7288 49.8326C69.5751 49.8326 70.3548 50.0222 71.0299 50.4107C72.7225 51.3868 73.6544 53.5284 73.6544 56.4471V56.8349H71.5478V56.4471C71.5478 54.1276 70.6159 52.1638 68.9233 51.1878C68.2482 50.7992 67.2738 50.6097 66.4275 50.6097C66.052 50.6097 65.6615 50.6475 65.2582 50.7229C64.9669 50.8617 64.6718 51.0167 64.3737 51.1878C58.8501 54.354 54.3259 61.8883 53.9739 68.2965C53.9656 68.5742 53.9614 68.8509 53.9614 69.1264H53.9519Z" fill="#AC2F12"/>
<path d="M74.4186 50.5763C75.2536 51.8436 75.7591 53.4589 75.8984 55.3478C75.7707 53.6167 75.2304 51.9467 74.4186 50.5763C73.8293 49.682 73.0758 48.961 72.1709 48.4396C69.7271 47.0276 66.5512 47.3119 63.2325 49.2166C60.1231 51.0077 57.2229 54.0495 55.0454 57.7832C52.8678 61.5263 51.6697 65.5348 51.6697 69.0884C51.6697 69.5243 51.6887 69.9413 51.7267 70.3488L49.2344 69.7643C49.1963 69.3568 49.1773 68.9398 49.1773 68.5039C49.1773 64.9503 50.3754 60.9418 52.553 57.1987C54.7305 53.465 57.6307 50.4231 60.7402 48.6321C64.0588 46.7274 69.363 46.4431 71.8068 47.8551C72.8188 48.4382 73.7194 49.3962 74.4186 50.5763Z" fill="#AC2F12"/>
<path d="M47.1816 69.9225L51.0493 73.7698H52.8107L55.9011 66.3594H53.3699L47.1816 69.9225Z" fill="#AC2F12"/>
<path d="M53.9518 69.1263V69.0884C53.9518 62.5213 58.6206 54.4854 64.3735 51.1877C65.9425 50.2874 67.4259 49.8325 68.7286 49.8325C69.5749 49.8325 70.3547 50.0221 71.0298 50.4106C72.7224 51.3867 73.6543 53.5283 73.6543 56.447C73.6543 56.4944 73.6543 56.5418 73.6543 56.5986C74.4055 56.1817 75.1567 55.7647 75.8984 55.3477C75.6606 52.1258 74.3579 49.6999 72.1709 48.4395C69.7271 47.0276 66.5511 47.3118 63.2325 49.2166C60.1231 51.0076 57.2228 54.0495 55.0453 57.7832C52.8677 61.5263 51.6696 65.5348 51.6696 69.0884C51.6696 69.5243 51.6886 69.9412 51.7267 70.3487C52.4779 69.9602 53.2196 69.5432 53.9613 69.1263H53.9518Z" fill="#EE522E"/>
<path d="M49.7108 69.9225L52.8107 73.7698L55.9011 66.3594L49.7108 69.9225Z" fill="#EE522E"/>
<path d="M42.8745 84.241L46.0213 84.2409L79.217 65.1367H76.3457L42.8745 84.241Z" fill="#2A0B88"/>
<path d="M78.2756 70.5289H76.3457V63.4596H78.2756V70.5289Z" fill="#2A0B88"/>
<path d="M78.2756 70.5289L83.2013 64.1608L78.2756 63.4596V70.5289Z" fill="#6634FA"/>
<path d="M46.0214 86.866V84.2411L79.217 65.1368L80.3676 67.1079L46.0214 86.866Z" fill="#6634FA"/>
<path d="M63.2233 74.3384C68.8811 71.0881 73.4929 63.2512 73.6355 56.741H71.5177C71.3751 63.2512 66.5201 71.1452 57.2377 75.3996C57.6244 76.1732 61.2627 75.6136 63.2233 74.3384Z" fill="#038F5E"/>
<path d="M75.8984 55.4806C75.1472 55.8975 74.3865 56.3145 73.6353 56.7409C73.4927 63.2512 68.8808 71.0881 63.223 74.3384L64.3641 76.3095C67.4735 74.5185 70.3737 71.4766 72.5513 67.7429C74.7288 63.9998 75.927 59.9913 75.927 56.4377C75.927 56.1155 75.9174 55.7933 75.8984 55.4806Z" fill="#04C984"/>
<path d="M59.9449 74.3385H63.223L46.0214 84.2412H42.9272L59.9449 74.3385Z" fill="#038F5E"/>
<path d="M64.3641 76.3096L63.223 74.3385L46.0214 84.2412V86.8662L64.3641 76.3096Z" fill="#04C984"/>
<path d="M42.9272 86.8661V84.2412H46.0214V86.8661H42.9272Z" fill="#05DD91"/>
<path d="M77.9333 56.4281L74.8429 52.5713H72.3213L68.8405 59.929H71.9346L77.9333 56.4281Z" fill="#038F5E"/>
<path d="M77.9333 56.4281L74.8429 52.5713L71.9346 59.929L77.9333 56.4281Z" fill="#04C984"/>
</svg>
