<svg width="128" height="128" viewBox="0 0 128 128" fill="none" xmlns="http://www.w3.org/2000/svg">
<path d="M81.6573 53.4097V97.903L69.511 90.8905V46.3972L81.6573 53.4097Z" fill="#03B073"/>
<path d="M93.8036 46.3973L81.6573 53.4098L69.511 46.3973L81.6573 39.3848L93.8036 46.3973Z" fill="#FFED0E"/>
<path d="M81.6572 53.4097V97.903L93.8035 90.8905V46.3972L81.6572 53.4097Z" fill="#04C984"/>
<path d="M66.0404 68.7566V106.803L53.8948 99.7909V61.7441L66.0404 68.7566Z" fill="#2A0B88"/>
<path d="M78.1867 61.7443L66.0405 68.7568L53.8949 61.7443L66.0405 54.7318L78.1867 61.7443Z" fill="#FFED0E"/>
<path d="M66.0403 68.7566V106.803L78.1866 99.7909V61.7441L66.0403 68.7566Z" fill="#6634FA"/>
<path d="M50.4242 81.9395V115.703L38.2779 108.691V74.927L50.4242 81.9395Z" fill="#2A0B88"/>
<path d="M62.5697 74.9271L50.4242 81.9396L38.2779 74.9271L50.4242 67.9146L62.5697 74.9271Z" fill="#FFED0E"/>
<path d="M50.4241 81.9395V115.703L62.5697 108.691V74.927L50.4241 81.9395Z" fill="#6634FA"/>
<path d="M34.8072 99.1301V124.603L22.6609 117.59V92.1176L34.8072 99.1301Z" fill="#2A0B88"/>
<path d="M46.9535 92.1176L34.8072 99.1301L22.6609 92.1176L34.8072 85.1051L46.9535 92.1176Z" fill="#FFED0E"/>
<path d="M34.8072 99.1301V124.603L46.9535 117.59V92.1176L34.8072 99.1301Z" fill="#6634FA"/>
<path d="M82.2155 44.2541L85.4617 42.365V47.188L82.2155 49.0771V44.2541Z" fill="#C63B1B"/>
<path d="M79.3597 42.604L82.6109 40.7197L85.4617 42.3648L82.2154 44.254L79.3597 42.604Z" fill="#EE522E"/>
<path d="M82.2154 44.254V49.0769L79.3597 47.427V42.604L82.2154 44.254Z" fill="#AC2F12"/>
<path d="M82.3424 4.20088L83.4505 3.5614V42.4624L82.3424 43.1019V4.20088Z" fill="#C63B1B"/>
<path d="M81.371 3.63948L82.4791 3L83.4505 3.56138L82.3424 4.20086L81.371 3.63948Z" fill="#EE522E"/>
<path d="M82.3424 4.2009V43.1019L81.371 42.5454V3.63953L82.3424 4.2009Z" fill="#AC2F12"/>
<path d="M98.5735 23.4732L99.6816 22.8289L105.066 36.5167L103.963 37.1562L98.5735 23.4732Z" fill="#FF7252"/>
<path d="M104.021 16.7172L105.125 16.0778L99.6816 22.8289L98.5735 23.4733L104.021 16.7172Z" fill="#AC2F12"/>
<path d="M82.3423 4.20088L83.4505 3.5614L105.125 16.0777L104.021 16.7172L82.3423 4.20088Z" fill="#FF7252"/>
<path d="M104.021 16.7172L82.3423 4.20093V24.679L103.963 37.1562L98.5735 23.4733L104.021 16.7172Z" fill="#EE522E"/>
</svg>
