<svg width="128" height="128" viewBox="0 0 128 128" fill="none" xmlns="http://www.w3.org/2000/svg">
<path d="M87.5005 68.8133V59.4233L39.029 71.7769L7.00002 79.0512V88.4412L57.9121 76.1748L87.5005 68.8133Z" fill="#3F13C2"/>
<path d="M121.138 88.2352V78.8452L77.1754 85.4856L40.2573 98.2512V107.641L63.8868 121.286L82.0646 98.7663L108.143 106.571L108.04 94.5745L121.138 88.2352Z" fill="#3F13C2"/>
<path d="M39.132 92.6966C38.3079 93.172 37.7374 93.7584 37.4204 94.4082C36.0733 97.1737 33.5218 99.6935 30.2333 101.857L7 88.4414L64.2434 55.3901L87.5005 68.8135C84.3784 70.0021 80.9077 70.8896 77.2626 71.4522C76.0898 71.6345 75.0439 71.9673 74.1881 72.4586C70.7332 74.4554 71.8188 78.3224 76.6207 81.0879C81.4227 83.8613 88.1185 84.4873 91.5734 82.4904C92.3975 82.015 92.9681 81.4286 93.285 80.7788C94.2993 78.6869 96.0109 76.7455 98.1979 74.9863L121.138 88.2354L98.6338 101.231C100.116 101.627 101.645 101.952 103.222 102.205C104.347 102.388 105.361 102.705 106.177 103.18C109.609 105.161 108.483 109.028 103.65 111.817C98.816 114.607 92.1202 115.256 88.6812 113.275C87.8333 112.784 87.2628 112.182 86.9616 111.508C86.5496 110.597 86.0345 109.71 85.4164 108.854L63.8868 121.287L40.2573 107.641C44.0846 105.795 48.6013 104.48 53.4429 103.735C54.6156 103.553 55.6616 103.22 56.5174 102.728C59.9723 100.732 58.8867 96.8646 54.0847 94.0992C49.2827 91.3257 42.5869 90.6997 39.132 92.6966Z" fill="#3F13C2"/>
<path d="M39.132 83.3065C38.3079 83.7819 37.7374 84.3683 37.4204 85.018C36.0733 87.7835 33.5218 90.3034 30.2333 92.4667L7 79.0512L64.2434 46L87.5005 59.4234C84.3784 60.612 80.9077 61.4995 77.2626 62.0621C76.0898 62.2443 75.0439 62.5771 74.1881 63.0684C70.7332 65.0653 71.8188 68.9322 76.6207 71.6977C81.4227 74.4711 88.1185 75.0971 91.5734 73.1003C92.3975 72.6248 92.9681 72.0384 93.285 71.3887C94.2993 69.2967 96.0109 67.3553 98.1979 65.5962L121.138 78.8452L98.6338 91.8407C100.116 92.2369 101.645 92.5618 103.222 92.8153C104.347 92.9976 105.361 93.3145 106.177 93.79C109.609 95.771 108.483 99.6379 103.65 102.427C98.816 105.216 92.1202 105.866 88.6812 103.885C87.8333 103.394 87.2628 102.792 86.9616 102.118C86.5496 101.207 86.0345 100.319 85.4164 99.4636L63.8868 111.896L40.2573 98.2512C44.0846 96.4049 48.6013 95.0895 53.4429 94.3447C54.6156 94.1624 55.6616 93.8296 56.5174 93.3383C59.9723 91.3414 58.8867 87.4745 54.0847 84.709C49.2827 81.9356 42.5869 81.3096 39.132 83.3065Z" fill="#BFB0FE"/>
<path d="M23.4771 15.2338C23.4771 15.2338 23.7274 20.3919 24.1207 23.8559C24.514 27.32 32.859 21.192 32.859 21.192V17.2452L23.4771 15.2294V15.2338Z" fill="#FBBC04"/>
<path d="M27.9244 79.4011C28.0496 79.714 30.2129 82.3466 32.3763 83.0037C33.3149 83.2897 33.9496 83.3255 34.3653 83.2763C34.781 83.2272 35.0402 82.7981 34.8972 82.4047C34.5262 81.3588 33.4579 79.1731 30.7493 77.8322C27.0796 76.013 27.9289 79.4011 27.9289 79.4011H27.9244Z" fill="#2A0B88"/>
<path d="M27.2004 80.4114C27.2004 80.4114 28.0139 82.3245 28.2642 83.9202C28.4161 84.8946 27.8798 86.164 27.4417 86.9998C27.1691 87.5228 26.4763 87.639 26.0383 87.2412C25.332 86.5975 24.4336 85.4846 24.2817 83.8844C24.0314 81.1892 24.2817 80.7199 24.2817 80.7199L27.1959 80.407L27.2004 80.4114Z" fill="#2A0B88"/>
<path d="M21.9931 47.8317C21.9931 47.8317 21.7115 51.2332 21.9931 54.9922C22.2747 58.7557 23.2848 76.344 23.4725 80.5769C23.4725 80.5769 23.3787 81.8597 25.8594 81.5781C28.3401 81.2965 28.1389 79.8751 28.1389 79.8751C28.1389 79.8751 31.6208 79.826 31.7326 77.7744C31.8443 75.7228 35.2994 53.2579 35.2994 45.1812L21.9931 47.8362V47.8317Z" fill="#E4E4FF"/>
<path d="M36.5867 30.2478L38.2941 32.8894L44.1584 39.9739C44.1584 39.9739 43.9573 40.631 43.2287 40.8053C42.6566 40.9394 37.722 36.2328 35.5944 34.1677C35.0268 33.618 34.9329 32.7464 35.3709 32.0893L36.5912 30.2478H36.5867Z" fill="#FFC2B0"/>
<path d="M33.2568 19.3995C33.2568 19.3995 35.9699 19.328 36.913 23.2479C37.8561 27.1679 38.5936 32.0711 37.7757 32.4779C35.3128 33.7026 33.7529 32.2678 33.7529 32.2678L33.2612 19.395L33.2568 19.3995Z" fill="#3F13C2"/>
<path d="M34.0703 19.565C33.6099 19.3728 33.087 19.346 32.6087 19.4845C30.2979 20.146 21.6132 22.6983 20.1829 23.9185C18.5291 25.3309 22.6636 33.2736 22.601 35.8795C22.5429 38.4853 22.2479 41.5515 22.0199 44.3853C21.792 47.2147 21.4791 48.7701 23.7944 49.9725C26.1097 51.1748 30.061 51.2329 33.0244 48.9757C35.9833 46.723 35.447 45.1765 35.3218 43.5406C35.1967 41.9046 34.191 34.8246 34.2804 32.8132C34.2804 32.8132 35.3218 32.0444 36.0951 30.7259C36.8683 29.4073 35.5051 26.9892 34.9374 25.4114C34.3698 23.838 35.2592 22.0367 35.0805 20.7539C34.9911 20.0924 34.5664 19.7706 34.0748 19.5605L34.0703 19.565Z" fill="#6634FA"/>
<path d="M27.4328 24.9151L28.4206 26.046C28.5502 26.1935 28.6084 26.3902 28.5771 26.5824L27.7144 32.6075C27.6921 32.7774 27.7323 32.9472 27.8306 33.0858L29.9403 36.009C30.0342 36.1386 30.2353 36.1073 30.289 35.9598L31.5807 32.241C31.6299 32.1025 31.6299 31.946 31.5807 31.8075L29.6319 26.2605C29.5872 26.1399 29.5828 26.0102 29.614 25.8851L29.9582 24.4369L27.4283 24.9151H27.4328Z" fill="#E6EFFF"/>
<path d="M31.2946 22.2737C31.4778 23.704 30.1638 25.0494 28.3625 25.2818C26.5612 25.5142 24.9521 24.5398 24.7688 23.1095C24.5855 21.6792 25.8996 20.3338 27.7009 20.1014C29.5022 19.869 31.1113 20.8434 31.2946 22.2737Z" fill="#E6EFFF"/>
<path d="M30.3649 22.3898C30.4945 23.4134 29.5559 24.3744 28.2686 24.5398C26.9813 24.7052 25.8326 24.0079 25.6985 22.9888C25.5689 21.9652 26.5075 21.0042 27.7948 20.8389C29.0821 20.6735 30.2308 21.3707 30.3649 22.3898Z" fill="#FFC2B0"/>
<path d="M29.0821 19.0333C29.0821 19.0333 27.5133 17.746 27.2048 18.3986C26.8964 19.0512 26.6417 21.8537 26.6417 21.8537L29.7571 22.6895L29.2833 19.8512C29.2833 19.8512 29.9046 19.3238 29.0777 19.0333H29.0821Z" fill="#FFC2B0"/>
<path d="M33.9496 15.9624C33.7976 18.5235 31.5985 20.4813 29.0374 20.3293C26.4762 20.1773 24.5185 17.9782 24.6705 15.4171C24.8225 12.8559 27.0216 10.8982 29.5827 11.0502C32.1439 11.2021 34.1016 13.4012 33.9496 15.9624Z" fill="#FFC2B0"/>
<path d="M26.9902 19.212C26.9634 19.3595 26.9366 19.5159 26.9098 19.6768C27.2226 21.2949 29.6408 22.0011 29.6408 22.0011L29.2832 19.8511C29.2832 19.8511 29.5782 19.6008 29.4933 19.355C28.5367 19.0511 27.3299 18.7873 26.9857 19.212H26.9902Z" fill="#EA9C92"/>
<path d="M33.9496 15.9624C33.7976 18.5235 31.5985 20.4813 29.0374 20.3293C26.4762 20.1773 24.5185 17.9782 24.6705 15.4171C24.8225 12.8559 27.0216 10.8982 29.5827 11.0502C32.1439 11.2021 34.1016 13.4012 33.9496 15.9624Z" fill="#FFC2B0"/>
<path d="M17.8542 35.3655L18.3771 47.8047L20.1963 47.9924L21.3763 36.7958L17.8542 35.3655Z" fill="#FFC2B0"/>
<path d="M23.8302 34.3242C23.7318 33.8906 22.9362 33.533 22.8156 32.9698C22.1898 30.0735 22.0423 25.8004 22.0423 25.8004L21.5327 31.6379C22.1183 33.3677 22.6234 34.9589 22.601 35.8796C22.5653 37.4083 22.449 39.0978 22.3149 40.8053C22.3149 40.8053 24.4336 36.9837 23.8302 34.3286V34.3242Z" fill="#3F13C2"/>
<path d="M20.5271 23.6638C20.5271 23.6638 19.0744 24.2181 18.252 28.6878C17.4295 33.153 16.8127 37.6272 18.2788 38.2038C19.7449 38.7804 20.974 39.214 21.4031 38.0206C21.8322 36.8271 22.1004 31.0701 22.154 29.0007C22.2077 26.9312 22.2881 24.075 20.5271 23.6683V23.6638Z" fill="#3F13C2"/>
<path d="M43.7249 39.4598C43.7249 39.4598 44.5116 39.7504 45.0837 40.3672C45.5486 40.8767 45.8078 41.3058 46.0089 41.6098C46.4604 42.2847 46.8448 43.7463 46.5677 43.9295C46.2905 44.1128 44.7127 41.4846 44.4579 42.097C44.2032 42.7093 44.4579 43.2725 44.1317 43.2814C43.8054 43.2904 42.6701 40.6398 41.7761 39.8174C40.8822 38.995 43.7249 39.4554 43.7249 39.4554V39.4598Z" fill="#FFC2B0"/>
<path d="M28.1389 79.8705C28.1389 79.8705 28.5725 79.8661 29.1357 79.7677L29.8196 52.422L28.1434 79.8705H28.1389Z" fill="#3F13C2"/>
<path d="M25.5063 65.1026L24.5408 63.8377L14.3633 57.9466C14.037 57.7589 13.7732 57.2538 13.7732 56.8158L13.7822 48.4842L13.1967 47.7199L13.7464 47.4025C13.8537 47.3355 13.9923 47.3355 14.1442 47.4249L25.6761 54.1026C26.0024 54.2904 26.2661 54.7954 26.2661 55.2335L26.2572 64.307C26.2572 64.5528 26.1723 64.7227 26.0426 64.7897L25.5063 65.1026Z" fill="#396CAA"/>
<path d="M18.4709 60.3245L17.7468 59.9043L13.7777 53.012V48.4842L13.1967 47.7199L13.7464 47.4025C13.8537 47.3355 13.9923 47.3355 14.1442 47.4249L25.6761 54.1026C25.8504 54.201 26.0024 54.3932 26.1097 54.6122L18.4665 60.3245H18.4709Z" fill="#396CAA"/>
<path d="M13.4559 48.0596L13.1967 47.7199L13.7464 47.4025C13.8537 47.3355 13.9923 47.3355 14.1442 47.4249L14.3454 47.5411L13.4514 48.0551L13.4559 48.0596Z" fill="#396CAA"/>
<path d="M25.7834 54.1787C26.0382 54.3888 26.2393 54.7866 26.2661 55.1486L25.1398 55.8012L24.5989 54.8626L25.7834 54.1787Z" fill="#396CAA"/>
<path d="M25.1308 54.42L13.5989 47.7423C13.2727 47.5545 13.0089 47.7512 13.0089 48.1892L13 57.2628C13 57.6963 13.2637 58.2059 13.59 58.3936L25.1219 65.0714C25.4482 65.2591 25.7119 65.0624 25.7119 64.6244L25.7208 55.5509C25.7208 55.1173 25.4571 54.6078 25.1308 54.42Z" fill="#CBD3FA"/>
<path d="M25.3051 54.3174L13.7732 47.6396C13.581 47.5279 13.4112 47.5547 13.3039 47.6843C13.3933 47.6664 13.4917 47.6843 13.5989 47.7469L25.1308 54.4246C25.4571 54.6124 25.7208 55.1174 25.7208 55.5555L25.7119 64.629C25.7119 64.8078 25.6672 64.9419 25.5912 65.0313C25.7655 64.9955 25.8862 64.8123 25.8862 64.5217L25.8951 55.4482C25.8951 55.0146 25.6314 54.5051 25.3051 54.3174Z" fill="#E6EFFF"/>
<path d="M22.7619 60.9279L22.2121 60.6106V55.895L22.7619 56.2124V60.9279Z" fill="#E6EFFF"/>
<path d="M21.4791 60.1903L20.9293 59.873V55.153L21.4791 55.4703V60.1903Z" fill="#E6EFFF"/>
<path d="M20.1963 59.4483L19.6465 59.1309V54.4109L20.1963 54.7282V59.4483Z" fill="#E6EFFF"/>
<path d="M18.3905 47.702C18.3905 47.702 17.9078 50.6073 17.9838 51.537C18.0553 52.4667 18.5559 53.9998 18.9313 53.9686C19.3113 53.9373 18.9447 50.2274 19.6063 50.5984C20.2678 50.9694 20.3393 51.5996 20.6388 51.3761C20.9382 51.1526 20.1158 47.9836 20.3348 46.6114C20.5538 45.2392 18.3905 47.7065 18.3905 47.7065V47.702Z" fill="#FFC2B0"/>
<path d="M31.0935 16.0965C33.4266 16.9234 33.8781 16.4183 33.9004 16.3915C33.9228 16.253 33.9407 16.1099 33.9496 15.9624C33.9809 15.4484 33.9228 14.9478 33.7932 14.4785L27.7456 13.6605C27.7456 13.6605 28.7022 15.2428 31.0935 16.092V16.0965Z" fill="#EA9C92"/>
<path d="M34.1149 11.3317C33.5652 10.8624 31.5806 8.53368 28.0317 9.08346C25.8102 9.42763 23.9419 10.9429 23.5262 14.398C23.2446 16.7267 24.1028 19.0196 25.6761 20.7137C25.761 20.6734 25.8504 20.6377 25.9264 20.584C26.8159 19.9985 26.9142 19.6767 26.9098 19.6722L27.1064 17.9112C27.102 17.6609 26.9142 17.4374 26.6639 17.424C26.4717 17.4105 26.2348 17.3212 26.0113 17.0261C25.5018 16.3602 25.7387 15.3187 26.7578 15.2785C27.2897 15.2561 27.4953 14.9701 27.5713 14.6974C27.6383 14.4605 27.8842 14.3309 28.1166 14.4158C29.2787 14.836 32.1393 15.7433 33.9809 15.2204C36.3364 14.5544 34.6647 11.8055 34.1149 11.3362V11.3317Z" fill="#FBBC04"/>
<path d="M20.8086 51.2823L19.5973 50.5895L20.0532 51.3315L20.6656 51.5594L20.8086 51.2823Z" fill="#396CAA"/>
<path fill-rule="evenodd" clip-rule="evenodd" d="M94.2781 76.0397C94.5768 76.5715 94.5225 77.1191 94.4546 77.669C93.4815 78.1397 92.4632 78.323 91.3973 78.2121V77.9406C90.0034 77.7731 88.727 78.8208 87.4326 78.9181C85.3688 79.1354 84.9638 78.5651 84.914 77.9406C87.0253 76.0781 90.9447 76.5262 94.2758 76.0397H94.2781Z" fill="#2A0B88"/>
<path fill-rule="evenodd" clip-rule="evenodd" d="M93.8436 74.2474C93.8436 74.2474 94.8529 75.3925 94.2781 76.963C93.1036 77.5174 92.0604 77.4789 90.8565 77.5604C89.3924 78.065 86.1201 79.5767 84.9909 78.1578C84.3799 76.1144 89.5892 75.6256 91.0737 74.5733L93.8436 74.2474Z" fill="#2A0B88"/>
<path fill-rule="evenodd" clip-rule="evenodd" d="M101.863 80.2578L102.298 81.0725C101.836 84.1456 101.698 89.2168 97.2471 88.1872C94.0156 87.3273 102.015 80.5158 101.863 80.2578Z" fill="#2A0B88"/>
<path fill-rule="evenodd" clip-rule="evenodd" d="M98.7134 80.0949C97.978 81.4889 97.2086 82.8761 96.6406 84.3493C96.2626 85.3405 95.4729 87.4427 97.075 87.9044C97.8196 88.2348 98.555 88.1624 99.2452 87.7437C101.483 86.7888 101.393 84.2724 101.809 82.2651C101.943 81.4889 102.764 80.233 102.081 79.6039C101.472 79.407 97.7811 78.7077 98.7134 80.0927V80.0949Z" fill="#2A0B88"/>
<path fill-rule="evenodd" clip-rule="evenodd" d="M89.3063 75.0848C90.7727 75.8814 92.9044 75.9877 94.57 74.9852C94.4523 67.2799 94.57 58.4498 93.1647 49.7782C92.5876 46.4811 95.052 42.3806 93.2869 39.3528L86.3305 39.5316C85.62 42.358 85.8689 44.7635 86.2921 47.0921C86.7469 50.3983 87.8422 57.3795 88.9759 60.3847C88.8945 65.5216 88.8537 70.267 89.3063 75.0848Z" fill="#E4E4FF"/>
<mask id="mask0_216_2142" style="mask-type:luminance" maskUnits="userSpaceOnUse" x="85" y="39" width="10" height="37">
<path d="M89.3063 75.0848C90.7727 75.8814 92.9044 75.9877 94.57 74.9852C94.4523 67.2799 94.57 58.4498 93.1647 49.7782C92.5876 46.4811 95.052 42.3806 93.2869 39.3528L86.3305 39.5316C85.62 42.358 85.8689 44.7635 86.2921 47.0921C86.7469 50.3983 87.8422 57.3795 88.9759 60.3847C88.8945 65.5216 88.8537 70.267 89.3063 75.0848Z" fill="white"/>
</mask>
<g mask="url(#mask0_216_2142)">
<path fill-rule="evenodd" clip-rule="evenodd" d="M90.9855 38.287C90.6053 45.1098 91.3611 53.4782 92.8026 59.7647C93.3978 66.4268 93.5834 73.6796 93.3073 78.9862L96.308 77.3501C96.9823 66.2141 96.3487 49.199 97.1475 38.1807L90.9855 38.287Z" fill="#028965"/>
</g>
<path fill-rule="evenodd" clip-rule="evenodd" d="M97.8965 80.371C99.7001 81.1269 100.958 81.1947 102.941 80.147C102.572 72.3172 102.443 63.9895 100.635 55.155C99.7884 51.7311 102.66 47.4564 100.427 44.4172L92.0061 44.7861C90.4899 49.8076 93.5132 55.9628 94.6447 60.5996C97.281 66.9857 96.5093 73.9013 97.8965 80.3688V80.371Z" fill="#E4E4FF"/>
<mask id="mask1_216_2142" style="mask-type:luminance" maskUnits="userSpaceOnUse" x="91" y="44" width="12" height="37">
<path d="M97.8965 80.371C99.7001 81.1269 100.958 81.1947 102.941 80.147C102.572 72.3172 102.443 63.9895 100.635 55.155C99.7884 51.7311 102.66 47.4564 100.427 44.4172L92.0061 44.7861C90.4899 49.8076 93.5132 55.9628 94.6447 60.5996C97.281 66.9857 96.5093 73.9013 97.8965 80.3688V80.371Z" fill="white"/>
</mask>
<g mask="url(#mask1_216_2142)">
<path fill-rule="evenodd" clip-rule="evenodd" d="M97.9191 43.58C97.6883 50.4707 98.8832 58.7599 100.834 65.0011C101.777 71.6428 102.241 78.8888 102.083 84.2L105.663 82.4824C106.111 71.3283 104.778 54.338 105.378 43.3062L97.9169 43.58H97.9191Z" fill="#028965"/>
</g>
<path fill-rule="evenodd" clip-rule="evenodd" d="M78.8085 29.0609C78.9918 31.6135 79.8992 34.1164 81.3022 36.5875L84.5767 35.4651C84.5767 35.4651 83.5652 32.3218 83.0764 30.8079C82.9203 30.3236 83.0628 29.7918 83.4385 29.4501C85.147 27.8955 89.8087 23.6592 89.8087 23.6592C90.9198 22.2924 91.3543 20.9754 90.5781 19.7534C89.5326 18.9342 88.6478 19.1967 87.806 19.7557C85.9458 21.6973 78.9261 26.187 78.8085 29.0609Z" fill="#04C984"/>
<mask id="mask2_216_2142" style="mask-type:luminance" maskUnits="userSpaceOnUse" x="78" y="19" width="13" height="18">
<path d="M78.8085 29.0609C78.9918 31.6135 79.8992 34.1164 81.3022 36.5875L84.5767 35.4651C84.5767 35.4651 83.5652 32.3218 83.0764 30.8079C82.9203 30.3236 83.0628 29.7918 83.4385 29.4501C85.147 27.8955 89.8087 23.6592 89.8087 23.6592C90.9198 22.2924 91.3543 20.9754 90.5781 19.7534C89.5326 18.9342 88.6478 19.1967 87.806 19.7557C85.9458 21.6973 78.9261 26.187 78.8085 29.0609Z" fill="white"/>
</mask>
<g mask="url(#mask2_216_2142)">
<path fill-rule="evenodd" clip-rule="evenodd" d="M84.5926 33.6682L80.8474 29.1944C82.3795 28.6852 86.3849 27.1261 88.6411 24.0914L87.883 28.5811L84.5926 33.6682Z" fill="#028965"/>
</g>
<path fill-rule="evenodd" clip-rule="evenodd" d="M86.1925 22.6815C87.0117 15.7116 100.015 19.2781 103.063 24.7272C100.096 30.4661 99.1321 37.3002 101.472 45.0667C96.3396 46.1257 88.4238 44.9626 85.6223 44.4444C85.6358 41.9189 86.5093 38.2393 86.7786 35.2477C86.4279 31.0771 85.3756 26.0126 86.1903 22.6793L86.1925 22.6815Z" fill="#04C984"/>
<path fill-rule="evenodd" clip-rule="evenodd" d="M81.7119 36.4787C82.0626 37.6758 82.4089 39.5971 82.9022 40.724C83.047 40.9594 83.4634 42.0456 83.701 41.455C83.6309 40.9888 83.3141 40.5475 83.3729 40.0814C83.529 40.4185 84.1717 41.7899 84.4931 41.9528C85.0362 41.636 83.744 40.1153 83.9115 39.4342C84.226 40.2466 84.8393 41.3192 85.2376 42.0909C86.2989 42.5864 85.1629 40.586 84.9004 40.2669L84.5428 39.2893C84.9615 39.8392 85.706 41.1133 86.0341 41.731C87.7019 42.4982 84.3618 38.3321 85.1651 37.6894C85.4842 37.393 87.0683 38.1216 87.1588 37.0875C86.5772 36.8408 85.4231 36.2841 84.7488 36.4471C84.5428 36.1099 84.4546 35.8293 84.2622 35.5713C83.1919 35.8791 82.4541 36.1235 81.7119 36.4787Z" fill="#FCCEB4"/>
<path fill-rule="evenodd" clip-rule="evenodd" d="M81.5512 36.9133L84.622 35.8181L84.5111 35.4922C83.5177 35.7547 82.4699 36.11 81.3792 36.5331L81.5512 36.9133Z" fill="white"/>
<mask id="mask3_216_2142" style="mask-type:luminance" maskUnits="userSpaceOnUse" x="85" y="18" width="19" height="28">
<path d="M86.1925 22.6815C87.0117 15.7116 100.015 19.2781 103.063 24.7272C100.096 30.4661 99.1321 37.3002 101.472 45.0667C96.3396 46.1257 88.4238 44.9626 85.6223 44.4444C85.6358 41.9189 86.5093 38.2393 86.7786 35.2477C86.4279 31.0771 85.3756 26.0126 86.1903 22.6793L86.1925 22.6815Z" fill="white"/>
</mask>
<g mask="url(#mask3_216_2142)">
<path fill-rule="evenodd" clip-rule="evenodd" d="M97.4236 49.7601C97.4236 49.7601 99.0167 43.7384 98.2043 41.1089C98.2043 41.1089 98.3106 36.9858 96.532 36.1756L99.4647 26.6327C99.4647 26.6327 100.967 23.4737 103.78 23.9036C106.591 24.3313 107.777 35.8135 107.777 35.8135L105.74 46.8409L97.4236 49.7624V49.7601Z" fill="#03B073"/>
</g>
<path fill-rule="evenodd" clip-rule="evenodd" d="M92.3297 20.8734L90.7456 22.1384C90.7456 22.1384 90.4401 20.6517 91.4448 19.2238L92.0196 19.6447L92.3297 20.8734Z" fill="white"/>
<path fill-rule="evenodd" clip-rule="evenodd" d="M89.3856 12.9735C88.9737 15.207 89.0801 20.9006 92.0423 20.1335C91.9902 20.2987 91.9563 20.4865 92.0536 20.6562L91.9812 21.7085L96.4414 20.0837C96.0839 19.1921 96.0862 18.0787 96.4822 17.1758L97.0502 14.6345L92.1124 11.6836L89.3878 12.9712L89.3856 12.9735Z" fill="#FED1A5"/>
<mask id="mask4_216_2142" style="mask-type:luminance" maskUnits="userSpaceOnUse" x="89" y="11" width="9" height="11">
<path d="M89.3856 12.9735C88.9737 15.207 89.0801 20.9006 92.0423 20.1335C91.9902 20.2987 91.9563 20.4865 92.0536 20.6562L91.9812 21.7085L96.4414 20.0837C96.0839 19.1921 96.0862 18.0787 96.4822 17.1758L97.0502 14.6345L92.1124 11.6836L89.3878 12.9712L89.3856 12.9735Z" fill="white"/>
</mask>
<g mask="url(#mask4_216_2142)">
<path fill-rule="evenodd" clip-rule="evenodd" d="M91.3656 20.9392L92.0423 20.1313C92.0423 20.1313 94.5157 20.5545 96.2242 18.0177C97.1475 19.1379 96.2242 17.194 98.6433 17.8502L98.2767 21.3488L92.8275 22.6703L91.3634 20.9369L91.3656 20.9392Z" fill="#EBBF93"/>
</g>
<path fill-rule="evenodd" clip-rule="evenodd" d="M92.4699 20.8079L92.7754 22.9826C94.2283 22.4282 95.5815 21.6045 96.6768 20.0837L96.2468 19.0111C95.061 19.9819 93.787 20.5047 92.4699 20.8102V20.8079Z" fill="white"/>
<path fill-rule="evenodd" clip-rule="evenodd" d="M92.737 14.424C92.737 14.424 93.1217 15.2704 94.1536 15.6234C94.1536 15.6234 94.536 16.0782 94.6016 16.8046C94.5179 13.5573 97.5661 14.605 96.2242 16.9314C96.1699 17.0083 95.982 17.5129 96.1721 18.1873C98.5256 15.6007 97.6362 7.65552 91.8657 9.19659C86.55 10.749 86.8148 16.1303 92.737 14.4263V14.424Z" fill="#2A0B88"/>
<mask id="mask5_216_2142" style="mask-type:luminance" maskUnits="userSpaceOnUse" x="88" y="9" width="10" height="10">
<path d="M92.737 14.424C92.737 14.424 93.1217 15.2704 94.1536 15.6234C94.1536 15.6234 94.536 16.0782 94.6016 16.8046C94.5179 13.5573 97.5661 14.605 96.2242 16.9314C96.1699 17.0083 95.982 17.5129 96.1721 18.1873C98.5256 15.6007 97.6362 7.65552 91.8657 9.19659C86.55 10.749 86.8148 16.1303 92.737 14.4263V14.424Z" fill="white"/>
</mask>
<g mask="url(#mask5_216_2142)">
<path fill-rule="evenodd" clip-rule="evenodd" d="M88.1069 9.58801C87.3353 17.7165 96.7333 11.5817 97.5231 9.59706L94.3617 7.6283L88.1069 9.58801Z" fill="#2A0B88"/>
<path fill-rule="evenodd" clip-rule="evenodd" d="M88.1138 7.771C87.3421 15.8995 96.7401 9.76466 97.5299 7.78005L94.3686 5.81128L88.1138 7.771Z" fill="#2A0B88"/>
<path fill-rule="evenodd" clip-rule="evenodd" d="M88.1477 6.45618C87.376 14.5847 96.774 8.44984 97.5638 6.46523L94.4025 4.49646L88.1477 6.45618Z" fill="#2A0B88"/>
</g>
<path fill-rule="evenodd" clip-rule="evenodd" d="M103.694 40.7377C103.199 41.1337 101.624 42.4304 101.099 42.72C99.9716 43.4102 98.116 43.8968 100.35 42.4598C100.051 42.5843 98.8311 43.0866 98.5279 43.0006C98.3808 42.4666 100.089 42.2652 100.381 41.7266C99.7001 42.0638 98.6772 42.3919 97.9689 42.6522C96.9958 42.3444 98.9012 41.7311 99.2588 41.6813L100.064 41.265C99.4715 41.3736 98.245 41.7515 97.6702 41.9552C96.2106 41.4573 100.476 40.8282 100.347 40.0362C100.193 39.7443 100.164 38.5426 100.164 38.5426C100.377 38.4906 101.42 39.0654 101.499 39.1853L102.477 38.7848C103.115 39.4003 103.604 39.9977 103.694 40.7422V40.7377Z" fill="#FCCEB4"/>
<path fill-rule="evenodd" clip-rule="evenodd" d="M102.61 38.4091L102.316 38.6557L103.644 40.7127L104.043 40.4435L102.61 38.4091Z" fill="white"/>
<path fill-rule="evenodd" clip-rule="evenodd" d="M102.411 38.133L104.246 40.8802C106.306 39.2373 110.171 35.5804 108.962 33.4645C107.544 31.0024 104.344 25.4492 104.344 25.4492C102.846 23.7022 101.68 22.72 100.144 24.0755C98.6501 25.1799 99.0597 26.6893 99.5055 27.642C99.5055 27.642 103.724 32.6838 105.066 34.286C105.876 35.7728 103.375 37.2256 102.413 38.133H102.411Z" fill="#04C984"/>
<mask id="mask6_216_2142" style="mask-type:luminance" maskUnits="userSpaceOnUse" x="99" y="23" width="11" height="18">
<path d="M102.411 38.133L104.246 40.8802C106.306 39.2373 110.171 35.5804 108.962 33.4645C107.544 31.0024 104.344 25.4492 104.344 25.4492C102.846 23.7022 101.68 22.72 100.144 24.0755C98.6501 25.1799 99.0597 26.6893 99.5055 27.642C99.5055 27.642 103.724 32.6838 105.066 34.286C105.876 35.7728 103.375 37.2256 102.413 38.133H102.411Z" fill="white"/>
</mask>
<g mask="url(#mask6_216_2142)">
<path fill-rule="evenodd" clip-rule="evenodd" d="M103.411 41.2446C105.007 39.4455 108.904 36.8545 108.591 34.2068C107.007 30.1041 104.602 26.334 101.796 23.0074L113.099 30.2172L112.95 38.8572L106.215 43.6207L103.409 41.2446H103.411Z" fill="#028965"/>
</g>
<path fill-rule="evenodd" clip-rule="evenodd" d="M58.1982 95.5646C58.3593 93.8547 56.8379 85.5613 56.8849 85.6892C56.6867 83.5144 56.8849 78.2741 57.2492 76.7562C57.2492 76.7562 58.3246 75.3145 60.5819 75.4793C61.4195 75.5408 63.035 75.7598 63.1019 76.4486C63.2407 77.8682 61.4095 83.9941 61.4095 83.9941C60.8049 87.1162 60.4209 90.7524 60.6092 93.7637C60.6092 93.7637 62.1257 96.561 62.2396 96.8168C62.7104 98.2511 63.1193 98.8662 64.8563 99.5477C65.114 99.6658 64.1674 100.246 64.1674 100.246L62.8046 100.109C61.5657 99.1048 59.457 97.3163 58.109 96.4503C58.1115 96.4281 58.1165 96.406 58.1189 96.3838L57.8092 96.1427C57.8786 96.0517 58.1288 95.7146 58.1982 95.5621V95.5646Z" fill="#FFC2B0"/>
<path fill-rule="evenodd" clip-rule="evenodd" d="M66.3306 99.9292L62.7922 101.622C61.3204 102.138 59.063 100.67 58.8152 99.0189C58.4758 99.8529 58.2676 100.645 58.1586 101.405C57.9331 101.55 57.7002 101.523 57.4598 101.361C57.6159 100.488 57.7051 99.6069 57.6333 98.7138C57.3211 96.7948 57.0212 96.8908 57.1972 95.8083C57.1972 95.8083 57.4152 93.9853 58.7706 94.3764C61.7267 95.5081 61.0478 99.8234 64.6234 99.0139V99.0189C64.6234 99.0189 66.2464 98.8565 66.3281 99.9292H66.3306Z" fill="#2A0B88"/>
<mask id="mask7_216_2142" style="mask-type:luminance" maskUnits="userSpaceOnUse" x="57" y="94" width="10" height="8">
<path d="M66.3306 99.9292L62.7922 101.622C61.3204 102.138 59.063 100.67 58.8152 99.0189C58.4758 99.8529 58.2676 100.645 58.1586 101.405C57.9331 101.55 57.7002 101.523 57.4598 101.361C57.6159 100.488 57.7051 99.6069 57.6333 98.7138C57.3211 96.7948 57.0212 96.8908 57.1972 95.8083C57.1972 95.8083 57.4152 93.9853 58.7706 94.3764C61.7267 95.5081 61.0478 99.8234 64.6234 99.0139V99.0189C64.6234 99.0189 66.2464 98.8565 66.3281 99.9292H66.3306Z" fill="white"/>
</mask>
<g mask="url(#mask7_216_2142)">
<path fill-rule="evenodd" clip-rule="evenodd" d="M63.0103 101.924C63.0103 101.924 61.5334 101.853 61.2188 100.839C60.7108 100.005 60.0145 96.4799 58.8152 98.9746L59.2959 100.537L61.5235 102.229L63.0103 101.927V101.924Z" fill="#E4E4FF"/>
<path fill-rule="evenodd" clip-rule="evenodd" d="M57.155 101.012H58.4658V101.794H57.155V101.012Z" fill="#3D4E86"/>
</g>
<path fill-rule="evenodd" clip-rule="evenodd" d="M63.1887 98.6793C63.2283 93.0503 61.5582 88.0733 62.921 83.9721C62.921 83.9721 63.315 78.4267 65.5699 78.594C66.4074 78.6555 67.9809 78.877 68.0899 79.5634C67.7925 87.227 64.3111 92.9937 67.2276 99.934C67.6984 101.368 68.1072 101.983 69.8442 102.665C70.1019 102.783 69.1554 103.364 69.1554 103.364L67.7925 103.226C66.5536 102.222 64.4449 100.433 63.097 99.5674C63.0995 99.5453 63.1044 99.5232 63.1069 99.501L62.7972 99.2599C62.8665 99.1689 63.1168 98.8318 63.1862 98.6793H63.1887Z" fill="#FFC2B0"/>
<path fill-rule="evenodd" clip-rule="evenodd" d="M71.3211 103.041L67.7827 104.734C66.3108 105.251 64.0534 103.782 63.8057 102.131C63.4662 102.965 63.2581 103.757 63.149 104.517C62.9235 104.663 62.6906 104.636 62.4503 104.473C62.6064 103.6 62.6956 102.719 62.6262 101.826C62.314 99.907 62.0142 100.003 62.1901 98.9205C62.1901 98.9205 62.4081 97.0974 63.7635 97.4886C66.7172 98.6203 66.0407 102.936 69.6163 102.126C69.6138 102.143 71.2393 101.959 71.3211 103.041Z" fill="#3F13C2"/>
<mask id="mask8_216_2142" style="mask-type:luminance" maskUnits="userSpaceOnUse" x="62" y="97" width="10" height="8">
<path d="M71.3211 103.041L67.7827 104.734C66.3108 105.251 64.0534 103.782 63.8057 102.131C63.4662 102.965 63.2581 103.757 63.149 104.517C62.9235 104.663 62.6906 104.636 62.4503 104.473C62.6064 103.6 62.6956 102.719 62.6262 101.826C62.314 99.907 62.0142 100.003 62.1901 98.9205C62.1901 98.9205 62.4081 97.0974 63.7635 97.4886C66.7172 98.6203 66.0407 102.936 69.6163 102.126C69.6138 102.143 71.2393 101.959 71.3211 103.041Z" fill="white"/>
</mask>
<g mask="url(#mask8_216_2142)">
<path fill-rule="evenodd" clip-rule="evenodd" d="M67.9982 105.037C67.9982 105.037 66.5214 104.965 66.2067 103.952C65.6987 103.118 65.0025 99.5922 63.8032 102.087L64.2839 103.649L66.5115 105.342L67.9982 105.039V105.037Z" fill="#E4E4FF"/>
<path fill-rule="evenodd" clip-rule="evenodd" d="M62.143 104.126H63.4538V104.906H62.143V104.126Z" fill="#3D4E86"/>
</g>
<path fill-rule="evenodd" clip-rule="evenodd" d="M75.08 49.8563C77.6124 49.6619 79.8871 50.3704 82.7664 51.2143C82.8952 52.0262 79.3419 51.731 78.7819 51.7826C79.1858 52.2771 79.9664 52.0778 80.514 52.2156C82.3649 53.1874 79.3147 52.993 78.6308 53.3104C77.2382 53.1923 76.0464 52.592 74.9239 51.822L75.08 49.8538V49.8563Z" fill="#FFCBC0"/>
<path fill-rule="evenodd" clip-rule="evenodd" d="M55.7377 43.3244C55.9682 45.3688 56.6595 48.6951 57.9083 50.309C60.0864 52.6388 75.1643 52.4986 75.1643 52.4986C75.749 51.5071 76.0142 50.4492 75.8159 49.3003C75.8159 49.3003 59.576 45.7649 58.6145 43.2408L60.4135 36.7974C60.3986 34.2363 57.7052 35.1761 56.8478 36.0323C55.4825 37.3928 55.6138 41.5555 55.7402 43.3269L55.7377 43.3244Z" fill="#FFED0E"/>
<path fill-rule="evenodd" clip-rule="evenodd" d="M65.7929 38.1652L66.0011 37.5427C66.0011 37.5427 65.3568 35.5032 65.8128 34.6643C65.8128 34.6643 68.2931 35.2031 68.7168 32.7256C69.1406 30.2482 69.594 27.5838 68.6128 26.6981C67.634 25.8124 62.1257 29.2912 62.1257 29.2912C62.1257 29.2912 61.7491 33.941 60.5374 35.1366C59.3257 36.3299 60.7604 37.5354 60.7604 37.5354L65.7929 38.1676V38.1652Z" fill="#FFC9B6"/>
<path fill-rule="evenodd" clip-rule="evenodd" d="M66.9476 29.9431C66.9476 29.9431 65.2849 28.7155 65.3766 30.7845C65.4435 32.2877 65.1883 32.4255 64.8439 32.9963C64.6556 33.3087 64.1848 35.4835 62.5246 35.4835C60.6092 35.4835 60.3441 34.3076 59.6329 33.6679C58.1734 32.3566 58.3543 29.4535 58.2726 27.756C58.1908 26.0584 58.4188 24.1272 60.0492 22.6879C61.6796 21.2462 63.8304 20.5328 65.332 21.3348C66.3901 22.0852 67.3044 22.314 68.9472 22.3066C71.7572 23.4407 69.5345 29.4412 67.2821 28.6171L66.9476 29.9431Z" fill="#AC2F12"/>
<mask id="mask9_216_2142" style="mask-type:luminance" maskUnits="userSpaceOnUse" x="58" y="21" width="13" height="15">
<path d="M66.9476 29.9431C66.9476 29.9431 65.2849 28.7155 65.3766 30.7845C65.4435 32.2877 65.1883 32.4255 64.8439 32.9963C64.6556 33.3087 64.1848 35.4835 62.5246 35.4835C60.6092 35.4835 60.3441 34.3076 59.6329 33.6679C58.1734 32.3566 58.3543 29.4535 58.2726 27.756C58.1908 26.0584 58.4188 24.1272 60.0492 22.6879C61.6796 21.2462 63.8304 20.5328 65.332 21.3348C66.3901 22.0852 67.3044 22.314 68.9472 22.3066C71.7572 23.4407 69.5345 29.4412 67.2821 28.6171L66.9476 29.9431Z" fill="white"/>
</mask>
<g mask="url(#mask9_216_2142)">
<path fill-rule="evenodd" clip-rule="evenodd" d="M58.2577 36.3275C59.3504 33.1858 60.795 30.2089 63.3175 27.7315C69.7847 20.9561 81.1507 22.2723 79.6541 34.5439L64.4623 42.3305L58.2577 36.33V36.3275Z" fill="#AC2F12"/>
</g>
<path fill-rule="evenodd" clip-rule="evenodd" d="M72.0124 77.8806L71.1947 49.2977C71.3359 48.2373 73.4917 46.2938 73.3455 43.9762C73.3777 41.2577 68.2956 36.8416 65.8995 36.416C61.7342 38.453 61.0577 35.2006 58.5997 35.0653C53.411 37.2992 58.3643 51.0395 58.6269 54.6536C55.7699 57.2787 54.9324 76.8448 55.8294 77.1671C59.1423 81.1158 67.6885 83.8368 72.0124 77.883V77.8806Z" fill="#F1522D"/>
<path fill-rule="evenodd" clip-rule="evenodd" d="M61.1073 23.5957C59.1572 20.7344 54.8035 27.7411 54.2336 30.1152C54.4938 32.1129 53.1632 34.2976 51 34.4182C54.6004 38.2487 57.2071 34.6445 58.5104 31.0255C58.7929 28.3242 58.5451 25.4039 61.1048 23.5981L61.1073 23.5957Z" fill="#EE522E"/>
<mask id="mask10_216_2142" style="mask-type:luminance" maskUnits="userSpaceOnUse" x="51" y="22" width="11" height="15">
<path d="M61.1073 23.5957C59.1572 20.7344 54.8035 27.7411 54.2336 30.1152C54.4938 32.1129 53.1632 34.2976 51 34.4182C54.6004 38.2487 57.2071 34.6445 58.5104 31.0255C58.7929 28.3242 58.5451 25.4039 61.1048 23.5981L61.1073 23.5957Z" fill="white"/>
</mask>
<g mask="url(#mask10_216_2142)">
<path fill-rule="evenodd" clip-rule="evenodd" d="M62.8789 23.4432C54.4566 22.4517 61.5929 39.5798 49.6595 33.6925L49.5604 38.7925L57.4673 40.8985C63.1664 32.2237 62.6386 33.968 62.8789 23.4432Z" fill="#AC2F12"/>
</g>
<path fill-rule="evenodd" clip-rule="evenodd" d="M67.9685 38.2269C71.2293 36.0619 72.5426 51.0053 70.0424 51.0372C66.9748 51.576 64.2839 38.9182 67.9685 38.2269Z" fill="#FFED0E"/>
<path fill-rule="evenodd" clip-rule="evenodd" d="M73.6924 61.3406L74.0864 63.1931C74.7108 63.6876 75.583 64.6225 75.6499 65.5648C75.7366 65.9387 74.7331 70.3253 73.6725 69.1001C73.8807 67.1393 72.7533 66.0667 71.5267 64.4946C71.3136 63.8131 71.3756 62.337 71.2715 61.6702L73.6924 61.3406Z" fill="#FFC9B6"/>
<path fill-rule="evenodd" clip-rule="evenodd" d="M69.5395 47.2041C71.7721 46.9851 71.3756 49.3838 71.896 52.2131C72.2453 54.1099 74.3937 61.8227 74.3937 61.8227C73.8312 62.6764 72.2652 62.9028 71.0188 62.5829C70.8007 61.8744 64.9827 46.7662 69.542 47.2016L69.5395 47.2041Z" fill="#FFED0E"/>
</svg>
