<svg width="128" height="128" viewBox="0 0 128 128" fill="none" xmlns="http://www.w3.org/2000/svg">
<path d="M87.5005 56.6439V47.2539L39.029 59.6075L7.00001 66.8818V76.2718L57.9121 64.0054L87.5005 56.6439Z" fill="#3F13C2"/>
<path d="M121.138 76.0658V66.6758L77.1754 73.3161L40.2573 86.0818V95.4718L63.8868 109.117L82.0646 86.5969L108.143 94.4021L108.04 82.405L121.138 76.0658Z" fill="#3F13C2"/>
<path d="M39.132 80.5272C38.3079 81.0026 37.7374 81.589 37.4204 82.2388C36.0733 85.0043 33.5218 87.5241 30.2333 89.6874L7 76.2719L64.2434 43.2207L87.5005 56.6441C84.3784 57.8327 80.9077 58.7202 77.2626 59.2828C76.0898 59.465 75.0439 59.7978 74.1881 60.2891C70.7332 62.286 71.8188 66.1529 76.6207 68.9184C81.4227 71.6918 88.1185 72.3178 91.5734 70.321C92.3975 69.8455 92.9681 69.2592 93.285 68.6094C94.2993 66.5174 96.0109 64.576 98.1979 62.8169L121.138 76.0659L98.6338 89.0614C100.116 89.4576 101.645 89.7825 103.222 90.036C104.347 90.2183 105.361 90.5352 106.177 91.0107C109.609 92.9917 108.483 96.8586 103.65 99.6479C98.816 102.437 92.1202 103.087 88.6812 101.106C87.8333 100.615 87.2628 100.012 86.9616 99.3389C86.5496 98.4276 86.0345 97.5401 85.4164 96.6843L63.8868 109.117L40.2573 95.4719C44.0846 93.6256 48.6013 92.3102 53.4429 91.5654C54.6156 91.3831 55.6616 91.0503 56.5174 90.559C59.9723 88.5622 58.8867 84.6952 54.0847 81.9297C49.2827 79.1563 42.5869 78.5303 39.132 80.5272Z" fill="#3F13C2"/>
<path d="M39.132 71.137C38.3079 71.6125 37.7374 72.1988 37.4204 72.8486C36.0733 75.6141 33.5218 78.134 30.2333 80.2972L7 66.8818L64.2434 33.8306L87.5005 47.2539C84.3784 48.4425 80.9077 49.33 77.2626 49.8926C76.0898 50.0749 75.0439 50.4077 74.1881 50.899C70.7332 52.8958 71.8188 56.7628 76.6207 59.5283C81.4227 62.3017 88.1185 62.9277 91.5734 60.9308C92.3975 60.4554 92.9681 59.869 93.285 59.2192C94.2993 57.1273 96.0109 55.1859 98.1979 53.4268L121.138 66.6758L98.6338 79.6712C100.116 80.0674 101.645 80.3923 103.222 80.6459C104.347 80.8281 105.361 81.1451 106.177 81.6205C109.609 83.6016 108.483 87.4685 103.65 90.2578C98.816 93.047 92.1202 93.6968 88.6812 91.7158C87.8333 91.2245 87.2628 90.6223 86.9616 89.9487C86.5496 89.0375 86.0345 88.15 85.4164 87.2942L63.8868 99.727L40.2573 86.0818C44.0846 84.2355 48.6013 82.9201 53.4429 82.1752C54.6156 81.993 55.6616 81.6602 56.5174 81.1689C59.9723 79.172 58.8867 75.3051 54.0847 72.5396C49.2827 69.7662 42.5869 69.1402 39.132 71.137Z" fill="#BFB0FE"/>
<path d="M34.4088 71.8002L24.6232 66.1059L24.6112 61.3685L34.3968 67.0629L34.4088 71.8002Z" fill="#F1522D"/>
<mask id="mask0_216_1981" style="mask-type:luminance" maskUnits="userSpaceOnUse" x="37" y="37" width="20" height="8">
<path d="M46.4794 38.3757L56.2651 44.0581C53.9323 42.7063 50.7143 42.8977 47.1493 44.9553L37.3637 39.273C40.9287 37.2153 44.1467 37.0239 46.4794 38.3757Z" fill="white"/>
</mask>
<g mask="url(#mask0_216_1981)">
<path d="M47.1612 44.9554L37.3755 39.2731C40.9405 37.2155 44.1585 37.0241 46.4913 38.3759L56.2769 44.0582C53.9441 42.7064 50.7261 42.8978 47.1612 44.9554Z" fill="#F1522D"/>
</g>
<path d="M34.397 67.0632L24.6114 61.3808C24.5875 53.258 30.3057 43.3528 37.3758 39.2734L47.1614 44.9558C40.0914 49.0351 34.3731 58.9404 34.397 67.0632Z" fill="#F1522D"/>
<mask id="mask1_216_1981" style="mask-type:luminance" maskUnits="userSpaceOnUse" x="24" y="39" width="24" height="29">
<path d="M34.397 67.0632L24.6114 61.3808C24.5875 53.258 30.3057 43.3528 37.3758 39.2734L47.1614 44.9558C40.0914 49.0351 34.3731 58.9404 34.397 67.0632Z" fill="white"/>
</mask>
<g mask="url(#mask1_216_1981)">
<path d="M34.397 67.0632L24.6114 61.3808C24.5875 53.258 30.3057 43.3528 37.3758 39.2734L47.1614 44.9558C40.0914 49.0351 34.3731 58.9404 34.397 67.0632Z" fill="#F1522D"/>
</g>
<path d="M47.1613 44.9558C54.2314 40.8765 59.9855 44.1543 60.0095 52.2771V57.0144L34.4089 71.8005V67.0632C34.373 58.9404 40.0913 49.0351 47.1613 44.9558Z" fill="#FFED0E"/>
<path d="M43.2375 19.5581L53.0232 25.2404C51.5158 24.3671 49.4104 24.4867 47.1015 25.8266L37.3159 20.1442C39.6248 18.8044 41.7302 18.6848 43.2375 19.5581Z" fill="#F1522D"/>
<mask id="mask2_216_1981" style="mask-type:luminance" maskUnits="userSpaceOnUse" x="37" y="19" width="17" height="7">
<path d="M43.2375 19.5581L53.0232 25.2404C51.5158 24.3671 49.4104 24.4867 47.1015 25.8266L37.3159 20.1442C39.6248 18.8044 41.7302 18.6848 43.2375 19.5581Z" fill="white"/>
</mask>
<g mask="url(#mask2_216_1981)">
<path d="M47.1015 25.8266L37.3159 20.1442C39.6248 18.8044 41.7302 18.6848 43.2375 19.5581L53.0232 25.2404C51.5158 24.3671 49.4104 24.4867 47.1015 25.8266Z" fill="#F1522D"/>
</g>
<path d="M41.2398 45.5297L31.4542 39.8474C29.9588 38.9741 29.0377 37.1318 29.0257 34.5119C29.0138 29.2244 32.7342 22.8003 37.316 20.1445L47.1016 25.8269C42.5079 28.4707 38.7994 34.9067 38.8114 40.1943C38.8114 42.8142 39.7445 44.6565 41.2398 45.5297Z" fill="#F1522D"/>
<mask id="mask3_216_1981" style="mask-type:luminance" maskUnits="userSpaceOnUse" x="29" y="20" width="19" height="26">
<path d="M41.2398 45.5297L31.4542 39.8474C29.9588 38.9741 29.0377 37.1318 29.0257 34.5119C29.0138 29.2244 32.7342 22.8003 37.316 20.1445L47.1016 25.8269C42.5079 28.4707 38.7994 34.9067 38.8114 40.1943C38.8114 42.8142 39.7445 44.6565 41.2398 45.5297Z" fill="white"/>
</mask>
<g mask="url(#mask3_216_1981)">
<path d="M41.2398 45.5297L31.4542 39.8474C29.9588 38.9741 29.0377 37.1318 29.0257 34.5119C29.0138 29.2244 32.7342 22.8003 37.316 20.1445L47.1016 25.8269C42.5079 28.4707 38.7994 34.9067 38.8114 40.1943C38.8114 42.8142 39.7445 44.6565 41.2398 45.5297Z" fill="#F1522D"/>
</g>
<path d="M47.1017 25.8267C51.6954 23.1709 55.4278 25.3003 55.4518 30.5879C55.4637 35.8635 51.7552 42.2995 47.1615 44.9553C42.5678 47.5991 38.8353 45.4697 38.8114 40.1941C38.7995 34.9065 42.5199 28.4824 47.1017 25.8267Z" fill="#FFED0E"/>
<path d="M74.273 71.823L64.4805 66.1366L64.4685 61.396L74.2611 67.0824L74.273 71.823Z" fill="#2A0B88"/>
<mask id="mask4_216_1981" style="mask-type:luminance" maskUnits="userSpaceOnUse" x="77" y="37" width="20" height="8">
<path d="M86.3642 38.375L96.1567 44.0614C93.8223 42.7086 90.602 42.9002 87.0346 44.9592L77.242 39.2729C80.8095 37.2138 84.0298 37.0222 86.3642 38.375Z" fill="white"/>
</mask>
<g mask="url(#mask4_216_1981)">
<path d="M87.0346 44.9592L77.242 39.2729C80.8095 37.2138 84.0298 37.0222 86.3642 38.375L96.1567 44.0614C93.8223 42.7086 90.602 42.9002 87.0346 44.9592Z" fill="#2A0B88"/>
</g>
<path d="M74.2611 67.0824L64.4685 61.396C64.4446 53.2675 70.1669 43.3552 77.242 39.2729L87.0345 44.9593C79.9595 49.0416 74.2371 58.9539 74.2611 67.0824Z" fill="#2A0B88"/>
<mask id="mask5_216_1981" style="mask-type:luminance" maskUnits="userSpaceOnUse" x="64" y="39" width="24" height="29">
<path d="M74.2611 67.0824L64.4685 61.396C64.4446 53.2675 70.1669 43.3552 77.242 39.2729L87.0345 44.9593C79.9595 49.0416 74.2371 58.9539 74.2611 67.0824Z" fill="white"/>
</mask>
<g mask="url(#mask5_216_1981)">
<path d="M74.2611 67.0824L64.4685 61.396C64.4446 53.2675 70.1669 43.3552 77.242 39.2729L87.0345 44.9593C79.9595 49.0416 74.2371 58.9539 74.2611 67.0824Z" fill="#2A0B88"/>
</g>
<path d="M87.0345 44.9594C94.1096 40.8771 99.8678 44.1573 99.8917 52.2858V57.0265L74.2731 71.8231V67.0824C74.2371 58.9539 79.9595 49.0416 87.0345 44.9594Z" fill="#6634FA"/>
<path d="M83.12 19.5681L92.9126 25.2545C91.3922 24.3686 89.2972 24.5003 86.9868 25.8291L77.1942 20.1427C79.5047 18.8019 81.5997 18.6822 83.12 19.5681Z" fill="#0F33FF"/>
<mask id="mask6_216_1981" style="mask-type:luminance" maskUnits="userSpaceOnUse" x="77" y="19" width="16" height="7">
<path d="M83.12 19.5681L92.9126 25.2545C91.3922 24.3686 89.2972 24.5003 86.9868 25.8291L77.1942 20.1427C79.5047 18.8019 81.5997 18.6822 83.12 19.5681Z" fill="white"/>
</mask>
<g mask="url(#mask6_216_1981)">
<path d="M86.9868 25.8407L77.1942 20.1543C79.5047 18.8135 81.5996 18.6938 83.12 19.5797L92.9126 25.2661C91.3922 24.3802 89.2972 24.5119 86.9868 25.8407Z" fill="#2A0B88"/>
</g>
<path d="M81.1088 45.5459L71.3162 39.8595C69.8198 38.9976 68.898 37.154 68.886 34.5323C68.874 29.2409 72.5852 22.8123 77.1822 20.1547L86.9747 25.8411C82.3777 28.4987 78.6666 34.9273 78.6786 40.2186C78.6786 42.8404 79.6123 44.684 81.1088 45.5459Z" fill="#0F33FF"/>
<mask id="mask7_216_1981" style="mask-type:luminance" maskUnits="userSpaceOnUse" x="68" y="20" width="19" height="26">
<path d="M81.1088 45.5459L71.3162 39.8595C69.8198 38.9976 68.898 37.154 68.886 34.5323C68.874 29.2409 72.5852 22.8123 77.1822 20.1547L86.9747 25.8411C82.3777 28.4987 78.6666 34.9273 78.6786 40.2186C78.6786 42.8404 79.6123 44.684 81.1088 45.5459Z" fill="white"/>
</mask>
<g mask="url(#mask7_216_1981)">
<path d="M81.1088 45.5459L71.3162 39.8595C69.8198 38.9976 68.898 37.154 68.886 34.5323C68.874 29.2409 72.5852 22.8123 77.1822 20.1547L86.9747 25.8411C82.3777 28.4987 78.6666 34.9273 78.6786 40.2186C78.6786 42.8404 79.6123 44.684 81.1088 45.5459Z" fill="#2A0B88"/>
</g>
<path d="M86.9867 25.8414C91.5837 23.1957 95.3307 25.3147 95.3427 30.606C95.3547 35.8853 91.6316 42.314 87.0466 44.9716C82.4496 47.6292 78.7145 45.4983 78.6906 40.219C78.6786 34.9276 82.3897 28.499 86.9867 25.8414Z" fill="#6634FA"/>
<path d="M59.4426 95.9362L49.65 90.2379L49.638 85.4972L59.4306 91.1956L59.4426 95.9362Z" fill="#03B073"/>
<mask id="mask8_216_1981" style="mask-type:luminance" maskUnits="userSpaceOnUse" x="62" y="61" width="20" height="9">
<path d="M71.5216 62.4885L81.3142 68.1749C78.9798 66.8222 75.7595 67.0137 72.192 69.0728L62.3995 63.3864C65.9669 61.3273 69.1872 61.1358 71.5216 62.4885Z" fill="white"/>
</mask>
<g mask="url(#mask8_216_1981)">
<path d="M72.2042 69.0727L62.4116 63.3863C65.9791 61.3272 69.1994 61.1356 71.5338 62.4884L81.3263 68.1748C78.9919 66.822 75.7716 67.0136 72.2042 69.0727Z" fill="#03B073"/>
</g>
<path d="M59.4306 91.1958L49.638 85.5094C49.6141 77.3809 55.3364 67.4686 62.4114 63.3864L72.204 69.0727C65.1289 73.155 59.4066 83.0673 59.4306 91.1958Z" fill="#03B073"/>
<mask id="mask9_216_1981" style="mask-type:luminance" maskUnits="userSpaceOnUse" x="49" y="63" width="24" height="29">
<path d="M59.4306 91.1958L49.638 85.5094C49.6141 77.3809 55.3364 67.4686 62.4114 63.3864L72.204 69.0727C65.1289 73.155 59.4066 83.0673 59.4306 91.1958Z" fill="white"/>
</mask>
<g mask="url(#mask9_216_1981)">
<path d="M59.4306 91.1958L49.638 85.5094C49.6141 77.3809 55.3364 67.4686 62.4114 63.3864L72.204 69.0727C65.1289 73.155 59.4066 83.0673 59.4306 91.1958Z" fill="#03B073"/>
</g>
<path d="M72.204 69.0729C79.279 64.9907 85.0372 68.2708 85.0612 76.3994V81.14L59.4425 95.9366V91.1959C59.4066 83.0674 65.1289 73.1551 72.204 69.0729Z" fill="#08EC9C"/>
<path d="M68.2774 43.6579L78.07 49.3443C76.5616 48.4704 74.4546 48.5901 72.1442 49.9309L62.3516 44.2445C64.6621 42.9037 66.769 42.784 68.2774 43.6579Z" fill="#03B073"/>
<mask id="mask10_216_1981" style="mask-type:luminance" maskUnits="userSpaceOnUse" x="62" y="43" width="17" height="7">
<path d="M68.2774 43.6579L78.07 49.3443C76.5616 48.4704 74.4546 48.5901 72.1442 49.9309L62.3516 44.2445C64.6621 42.9037 66.769 42.784 68.2774 43.6579Z" fill="white"/>
</mask>
<g mask="url(#mask10_216_1981)">
<path d="M72.1442 49.9309L62.3516 44.2445C64.6621 42.9037 66.769 42.784 68.2774 43.6579L78.07 49.3443C76.5616 48.4704 74.4546 48.5901 72.1442 49.9309Z" fill="#03B073"/>
</g>
<path d="M66.2783 69.6475L56.4858 63.9611C54.9893 63.0872 54.0675 61.2436 54.0556 58.6219C54.0436 53.3305 57.7667 46.9019 62.3517 44.2443L72.1443 49.9307C67.5473 52.5763 63.8362 59.0169 63.8481 64.3082C63.8481 66.93 64.7819 68.7735 66.2783 69.6475Z" fill="#03B073"/>
<mask id="mask11_216_1981" style="mask-type:luminance" maskUnits="userSpaceOnUse" x="54" y="44" width="19" height="26">
<path d="M66.2783 69.6475L56.4858 63.9611C54.9893 63.0872 54.0675 61.2436 54.0556 58.6219C54.0436 53.3305 57.7667 46.9019 62.3517 44.2443L72.1443 49.9307C67.5473 52.5763 63.8362 59.0169 63.8481 64.3082C63.8481 66.93 64.7819 68.7735 66.2783 69.6475Z" fill="white"/>
</mask>
<g mask="url(#mask11_216_1981)">
<path d="M66.2783 69.6475L56.4858 63.9611C54.9893 63.0872 54.0675 61.2436 54.0556 58.6219C54.0436 53.3305 57.7667 46.9019 62.3517 44.2443L72.1443 49.9307C67.5473 52.5763 63.8362 59.0169 63.8481 64.3082C63.8481 66.93 64.7819 68.7735 66.2783 69.6475Z" fill="#03B073"/>
</g>
<path d="M72.1442 49.9307C76.7411 47.2731 80.4762 49.404 80.5002 54.6953C80.5121 59.9747 76.801 66.4153 72.204 69.0729C67.607 71.7186 63.872 69.5877 63.848 64.3083C63.836 59.017 67.5591 52.5884 72.1442 49.9307Z" fill="#08EC9C"/>
</svg>
