<svg width="128" height="128" viewBox="0 0 128 128" fill="none" xmlns="http://www.w3.org/2000/svg">
<path d="M80.2558 104.942C80.2558 104.942 68.0528 98.2558 64.7186 95.919C62.3086 94.2307 63.0609 92.7848 64.5399 87.9742C66.0189 83.1636 69.2484 74.356 69.2484 74.356L67.0988 74.0113C67.4724 72.7204 67.9158 71.4295 68.548 70.1343C58.6954 71.1172 48.8648 78.4875 48.1704 79.3674C47.4309 80.3035 41.9702 100.565 41.2298 103.208C40.4903 105.85 41.2417 107.417 45.7894 110.141C50.3379 112.866 59.2698 117.03 59.2698 117.03L77.9744 106.459C79.3564 107.264 80.255 107.784 80.255 107.784L80.2558 104.942Z" fill="#6634FA"/>
<path d="M59.2706 117.03C59.2706 117.03 46.8276 110.003 43.5709 107.957C41.0792 106.391 42.0757 104.649 43.5547 99.8388C45.0337 95.0282 48.2632 86.2206 48.2632 86.2206L45.2882 85.7432C45.2882 85.7432 41.8247 96.3634 40.5907 100.428C39.3568 104.491 38.5161 107.65 42.2204 109.986C47.2565 113.162 59.2706 119.871 59.2706 119.871V117.03Z" fill="#BFB0FE"/>
<path d="M59.2707 117.029V119.87L80.2559 107.783V104.942L59.2707 117.029Z" fill="#3F13C2"/>
<path d="M87.582 4.3042L91.5152 6.59163L84.4869 8.37869L87.582 4.3042Z" fill="#B59EAB"/>
<path d="M84.5167 4.45558L17.6397 43.0655C16.0059 44.0084 15 45.752 15 47.6386V104.773C15 106.201 15.7778 107.361 16.8637 107.98L16.8585 108.002L20.5748 110.148L22.7882 106.71L22.7584 106.692L86.9199 69.6493C88.5537 68.7064 89.5605 66.9628 89.5605 65.0761V7.36764C89.5596 4.77895 86.7582 3.16124 84.5167 4.45558Z" fill="#3F13C2"/>
<path d="M18.7086 49.8139V106.948C18.7086 109.791 21.7866 111.569 24.2493 110.147L90.6285 71.8246C92.2623 70.8809 93.2691 69.1381 93.2691 67.2514V9.54295C93.2691 6.95511 90.4676 5.3374 88.2261 6.63089L21.3492 45.2416C19.7153 46.1845 18.7086 47.9273 18.7086 49.8139Z" fill="#BFB0FE"/>
<path d="M89.7894 9.51904L30.2241 43.9464L22.1883 48.5902V107.304L89.7894 68.2308V9.51904Z" fill="#E6EFFF"/>
<path d="M84.5652 17.7098V65.6363L28.854 97.8366V49.9084L35.2662 46.2024L84.5652 17.7098ZM85.3669 16.321L34.8654 45.5088L28.0524 49.4464V99.2254L85.3669 66.0984V16.321Z" fill="#BFB0FE"/>
<path d="M28.4089 54.8388V55.7638L85.1047 22.9951V22.0701L28.4089 54.8388Z" fill="#BFB0FE"/>
<path d="M28.4089 60.1109V61.0359L85.1047 28.268V27.343L28.4089 60.1109Z" fill="#BFB0FE"/>
<path d="M28.4089 65.3835V66.3085L85.1047 33.5398V32.6147L28.4089 65.3835Z" fill="#BFB0FE"/>
<path d="M83.6623 37.9809L79.8618 33.3865L77.1633 38.4524L70.8337 34.64L58.9455 59.5865L47.9789 54.7904L42.6611 64.9307L38.4794 63.3231L33.3046 72.4857L28.0523 68.372V88.1727L85.3668 54.0781V35.4144L83.6623 37.9809Z" fill="#04C984"/>
<path d="M82.0267 46.8303L73.322 41.8103L71.2439 46.1955L65.2683 41.3636L54.4098 64.8694L48.9576 62.7368L43.6679 71.8687L34.2049 65.5323L28.0523 76.3219V88.1854L85.3668 55.095V40.1348L82.0267 46.8303Z" fill="#EE522E"/>
<path d="M79.9231 44.1897L73.5441 55.4712L69.8381 52.2459L63.2949 66.3237L55.2778 62.8168L50.8059 72.1997L44.4712 68.1227L37.8905 80.3556L33.1276 77.0248L28.0523 85.8852V93.8887L85.3668 60.7983V49.9236C84.0997 48.2557 79.9231 44.1897 79.9231 44.1897Z" fill="#FFED0E"/>
<path d="M28.0523 89.1019L30.7295 90.1273L35.0985 83.1825L39.7933 86.3949L44.8397 76.2342L49.8681 78.7974L53.4303 71.2891L58.4196 73.3272L64.2897 59.9481L73.3748 65.739L79.9231 53.553L85.3668 57.2981V66.1662L28.0523 99.2567V89.1019Z" fill="#6634FA"/>
<path d="M85.3719 34.8255L78.8007 28.3316C78.9062 27.9955 78.97 27.65 78.97 27.3155C78.97 26.6475 78.7275 26.1233 78.3037 25.8791C77.9301 25.6646 77.4748 25.6893 77.0221 25.9506C76.1541 26.4518 75.4742 27.7342 75.4742 28.8711C75.4742 29.3341 75.5976 29.7204 75.8103 29.9995L72.2064 36.3649L66.1389 32.5933C66.1985 32.3406 66.2359 32.0861 66.2359 31.8377C66.2359 31.1696 65.9934 30.6454 65.5696 30.4012C65.196 30.1851 64.7407 30.2106 64.288 30.4727C63.4209 30.9739 62.7409 32.2563 62.7409 33.3924C62.7409 33.8953 62.8788 34.3157 63.1264 34.5974L52.4117 57.4633C52.3011 57.499 52.1888 57.5484 52.0773 57.613C51.7556 57.7986 51.4595 58.093 51.2144 58.447L43.6143 54.3334C43.6594 54.1138 43.6909 53.8934 43.6909 53.6781C43.6909 53.0101 43.4483 52.4867 43.0254 52.2417C42.6518 52.0255 42.1974 52.051 41.7438 52.3131C40.8767 52.8144 40.1967 54.0968 40.1967 55.2328C40.1967 55.78 40.3661 56.2208 40.658 56.5L28.0515 78.2519V79.9164L41.4026 56.814C41.4043 56.814 41.406 56.8148 41.4085 56.8148C41.6451 56.8148 41.8953 56.7425 42.1446 56.5987C42.6493 56.3068 43.0858 55.7477 43.3666 55.1095L50.8331 59.1508C50.6451 59.595 50.531 60.0749 50.531 60.5328C50.531 61.2008 50.7744 61.725 51.1974 61.9692C51.3659 62.0662 51.5497 62.1147 51.7428 62.1147C51.9794 62.1147 52.2296 62.0415 52.4781 61.8977C53.3452 61.3965 54.0252 60.1141 54.0252 58.978C54.0252 58.31 53.7826 57.7858 53.3589 57.5416C53.3325 57.5263 53.3027 57.5211 53.2746 57.5084L63.8404 34.9599C63.8778 34.9633 63.9136 34.9744 63.9519 34.9744C64.1885 34.9744 64.4386 34.9012 64.688 34.7574C65.1671 34.4808 65.5832 33.9634 65.8649 33.3669L72.4906 37.4856L76.4877 30.4267C76.5524 30.4386 76.617 30.4523 76.6851 30.4523C76.9217 30.4523 77.1719 30.3799 77.4212 30.2361C77.8246 30.0029 78.1837 29.5979 78.456 29.1205L85.3702 35.9522V34.8255H85.3719ZM41.7455 55.9043C41.6332 55.9698 41.4196 56.0643 41.2647 55.9758C41.1013 55.8813 40.9992 55.5971 40.9992 55.2328C40.9992 54.3853 41.5243 53.3658 42.1455 53.0075C42.2255 52.9616 42.3548 52.8994 42.4791 52.8994C42.5301 52.8994 42.5812 52.9105 42.6263 52.936C42.7897 53.0305 42.8909 53.3147 42.8909 53.6781C42.8918 54.5265 42.3667 55.546 41.7455 55.9043ZM52.079 61.2042C51.9667 61.2697 51.7565 61.365 51.599 61.2757C51.4356 61.1812 51.3335 60.8961 51.3335 60.5328C51.3335 59.6852 51.8586 58.6657 52.4798 58.3066C52.5598 58.2606 52.6891 58.1994 52.8134 58.1994C52.8644 58.1994 52.9146 58.2096 52.9598 58.236C53.1231 58.3296 53.2253 58.6146 53.2253 58.978C53.2253 59.8256 52.7002 60.8451 52.079 61.2042ZM64.2897 34.0638C64.1774 34.1285 63.9655 34.2247 63.8089 34.1345C63.6455 34.0408 63.5434 33.7558 63.5434 33.3924C63.5434 32.5448 64.0685 31.5253 64.6897 31.1662C64.7697 31.1203 64.899 31.059 65.0233 31.059C65.0743 31.059 65.1245 31.0692 65.1705 31.0956C65.3339 31.1892 65.436 31.4743 65.436 31.8377C65.436 32.6852 64.9109 33.7047 64.2897 34.0638ZM77.023 29.5417C76.9098 29.6072 76.6987 29.7026 76.5413 29.6132C76.3779 29.5187 76.2766 29.2345 76.2766 28.8711C76.2766 28.0227 76.8017 27.0032 77.4229 26.645C77.5029 26.599 77.6331 26.5377 77.7574 26.5377C77.8084 26.5377 77.8586 26.5479 77.9037 26.5735C78.0671 26.6679 78.1692 26.9522 78.1692 27.3164C78.1692 28.1631 77.6433 29.1826 77.023 29.5417Z" fill="#3F13C2"/>
<path d="M95.649 67.2298C95.4703 67.1702 93.1496 65.4342 92.7327 65.0521C92.3157 64.67 92.1974 64.9977 92.3752 65.4436C92.554 65.8895 92.8518 66.515 92.8518 66.515C92.8518 66.515 91.8698 65.8061 90.7388 65.7721C89.6079 65.738 89.1322 66.2478 90.1142 67.2298C90.8409 67.9566 94.6372 69.3428 94.6372 69.3428L95.649 67.2298Z" fill="#FFC5B3"/>
<path d="M108.46 73.4182C108.46 75.5712 105.987 77.1081 104.296 75.2895C103.801 74.7576 103.399 74.0692 103.156 73.3322C103.911 69.4628 105.306 65.6887 105.306 65.6887L107.797 66.0963C107.797 66.0963 108.46 70.7657 108.46 73.4182Z" fill="#FFC5B3"/>
<path d="M106.077 70.7658L109 69.6961C109 69.6961 108.173 65.9875 107.554 64.5264C107.084 63.415 106.643 62.2526 105.217 61.9785C104.105 61.7649 103.321 62.5657 103.17 63.4303C102.915 64.8923 106.077 70.7658 106.077 70.7658Z" fill="#04C984"/>
<path d="M105.479 120.471C105.066 121.454 104.113 121.363 102.188 120.67C100.479 120.055 99.0699 119.359 97.8556 118.461C96.6404 117.562 96.6285 117.442 96.4676 116.834C96.243 115.983 97.4854 115.506 99.5507 116.148C99.755 116.212 99.9422 116.272 100.119 116.33C99.7388 116.394 99.3456 116.534 99.1754 116.853C98.8002 117.558 99.9737 118.313 101.21 118.932C102.446 119.55 103.458 119.55 104.075 119.269C104.527 119.063 105.135 118.799 105.429 118.671C105.554 119.496 105.727 119.88 105.479 120.471Z" fill="#2A0B88"/>
<path d="M99.7532 110.232C99.7677 110.402 99.7013 108.713 99.6562 106.571C98.2359 107.233 96.7067 107.573 95.1256 107.849C95.2584 108.802 95.3988 109.751 95.5383 110.652C95.8889 114.749 96.1936 120.069 96.1936 120.069C96.1936 120.069 95.6251 119.814 94.4848 119.438C94.1044 119.502 93.7113 119.643 93.5411 119.962C93.1658 120.666 94.3393 121.422 95.5758 122.041C96.8114 122.658 97.8224 122.658 98.441 122.378C98.8938 122.172 99.5005 121.907 99.7949 121.779C99.7115 121.23 99.6494 120.488 99.7473 119.353C99.9354 117.151 99.8664 113.023 99.7532 110.232Z" fill="#FFC5B3"/>
<path d="M105.605 107.016C105.645 106.499 105.702 105.934 105.761 105.345C104.301 105.815 102.718 105.997 101.271 105.87C101.354 107.51 101.436 109.019 101.495 109.926C101.694 112.995 101.827 116.959 101.827 116.959C101.827 116.959 101.259 116.703 100.118 116.328C99.7379 116.392 99.3439 116.532 99.1746 116.851C98.7993 117.556 99.9728 118.311 101.209 118.93C102.445 119.547 103.457 119.547 104.075 119.267C104.527 119.061 105.134 118.796 105.428 118.669C105.345 118.12 105.283 117.378 105.381 116.243C105.537 114.416 105.468 108.772 105.605 107.016Z" fill="#FFC5B3"/>
<path d="M99.8452 123.58C99.4325 124.563 98.4794 124.471 96.5536 123.779C94.8448 123.163 93.4356 122.468 92.2204 121.57C91.0052 120.671 90.9933 120.551 90.8324 119.943C90.6078 119.092 91.8502 118.615 93.9155 119.257C94.1198 119.32 94.307 119.381 94.484 119.439C94.1036 119.503 93.7096 119.643 93.5403 119.962C93.165 120.667 94.3385 121.422 95.575 122.041C96.8106 122.659 97.8215 122.659 98.4402 122.378C98.8929 122.172 99.4997 121.907 99.7941 121.78C99.9192 122.606 100.093 122.989 99.8452 123.58Z" fill="#2A0B88"/>
<path d="M106.552 100.617C106.332 103.758 106.032 114.504 105.68 116.463C104.444 117.192 101.985 117.194 100.78 115.732C100.78 112.691 101.187 105.904 101.109 103.166C101.023 100.171 101.723 93.1576 101.629 91.6956C100.668 94.4724 100.215 95.7599 99.9711 100.616C99.5865 108.257 100.215 118.367 100.129 120.043C97.8215 120.666 96.6676 120.335 95.8336 119.327C95.826 118.729 93.816 104.087 93.8126 103.166C93.7972 99.3306 94.5061 86.1455 95.0831 83.3815C95.4703 81.5289 95.7171 79.2747 95.7171 79.2747L104.879 78.1412C104.879 78.1412 104.478 77.9786 106.077 81.7587C107.684 85.5583 107.428 88.4619 107.212 90.2336C107.041 91.6386 106.6 99.4404 106.552 100.617Z" fill="#EE522E"/>
<path d="M99.1686 51.074C98.6904 51.4059 96.7365 51.3489 96.2387 55.2762C95.797 58.7558 96.8071 59.0766 97.5135 59.3711C97.9032 59.5336 99.3269 60.0008 99.3269 60.0008L99.1686 63.5196C99.1686 63.5196 100.892 64.2012 102.544 63.5196C104.197 62.838 104.197 62.838 104.197 62.838C104.197 62.838 103.551 61.7249 103.659 59.7983C103.793 57.4087 104.64 54.0056 104.04 52.7402C102.959 50.4545 100.466 50.1737 99.1686 51.074Z" fill="#FFC5B3"/>
<path d="M107.503 83.8417C106.981 84.5139 106.246 84.6041 105.137 84.9582C104.971 84.0059 104.253 83.0196 104.253 83.0196C104.253 83.0196 103.929 84.5505 103.757 85.4858C102.8 85.7138 101.009 85.9887 100.591 86.0389C98.7346 86.2601 95.3247 85.1198 94.4542 83.7506C95.5851 80.2139 96.1068 73.3788 96.1068 73.3788C96.1068 73.3788 94.4482 68.8661 95.6336 66.4867C96.819 64.1074 98.3312 63.8274 99.4664 63.4436C100.668 63.0369 104.525 62.3552 104.525 62.3552C104.525 62.3552 108.182 65.2094 107.372 68.775C106.695 71.7568 106.662 73.5541 106.552 75.3063C106.467 76.6611 107.478 82.5167 107.503 83.8417Z" fill="#6634FA"/>
<path d="M94.4542 78.2527C93.4466 78.8501 93.2245 78.9565 91.8527 78.1897C91.0545 77.1473 92.4995 76.3661 92.0757 75.0887C92.0816 75.087 92.0901 75.0828 92.0969 75.0811C93.0432 72.4201 94.3563 69.5591 94.3563 69.5591L98.4206 70.8364C98.4206 70.8364 97.4105 73.3187 96.1689 75.7942C95.6328 76.8614 94.8133 78.04 94.4542 78.2527Z" fill="#FFC5B3"/>
<path d="M81.8597 69.548C83.2536 70.0722 84.0211 70.3071 84.0211 70.3071C84.0211 70.3071 84.079 69.714 83.8007 69.2195C83.5225 68.7251 83.9905 68.126 84.5062 69.0008C85.0219 69.8757 85.8703 70.3752 86.3094 71.1717C86.7485 71.9682 87.5127 72.2176 89.9176 73.237C91.2553 73.8038 92.4603 74.242 93.3998 74.6539C92.7803 75.8649 92.502 77.1328 92.3055 78.4357C89.6546 77.0784 86.1648 73.951 85.2449 73.5561C84.1564 73.0881 81.8503 71.9716 80.6649 70.6781C79.9645 69.9131 80.6138 69.0791 81.8597 69.548Z" fill="#FFC5B3"/>
<path d="M96.9637 64.672C97.6777 64.4984 99.0469 65.1043 99.5124 66.7016C100.225 69.1465 99.2878 70.3055 98.7363 71.5241C98.5568 71.9215 97.7841 73.3214 97.7841 73.3214C97.1535 73.398 96.157 73.4056 94.8524 72.6636C93.667 71.9905 93.4007 71.0195 93.4007 71.0195C93.4007 71.0195 93.8457 69.2971 94.3342 67.75C94.7639 66.3893 95.5451 65.0184 96.9637 64.672Z" fill="#04C984"/>
<path d="M98.1117 63.928C98.1117 63.928 98.5618 62.8073 99.7694 62.6907C103.264 62.3545 103.842 61.8618 103.842 61.8618C103.842 61.8618 104.606 61.7206 104.971 62.3545C105.199 62.7494 105.394 63.0736 105.394 63.0736C105.394 63.0736 101.288 65.1109 98.1117 63.928Z" fill="#4F2525"/>
<path d="M95.9136 53.8448C95.9136 53.8448 96.8854 54.5333 98.0308 54.9826C97.6632 61.2577 96.3961 62.5614 98.9295 64.0736C99.6783 64.5204 101.252 65.0965 101.539 67.6894C101.981 71.6805 104.472 72.466 104.472 72.466C104.472 72.466 107.077 69.9718 107.126 63.9613C107.152 60.8075 106.913 52.6322 105.704 51.1608C103.754 48.7857 101.641 48.7432 99.6273 49.5882C98.0308 49.2129 96.3212 49.9201 95.9136 53.8448Z" fill="#952309"/>
</svg>
