<svg width="128" height="128" viewBox="0 0 128 128" fill="none" xmlns="http://www.w3.org/2000/svg">
<path d="M77.4415 24.2943L75.6247 23.2181C74.8689 22.7597 73.7469 22.8436 72.4869 23.5689L17.649 55.229C15.3891 56.5347 13.5494 59.4277 13.5494 61.6876V97.1115C13.5494 98.1191 13.9162 98.8368 14.5264 99.196L16.3127 100.249C16.3356 100.272 16.3661 100.287 16.3966 100.303L17.2669 99.2265L17.5186 98.9138C17.572 98.8832 17.6101 98.868 17.6482 98.8451L62.0272 73.2242L62.5389 72.9344L64.8904 71.5676L66.1046 70.8728L68.0282 69.7584L72.4869 67.1858C73.2275 66.7503 73.93 66.1554 74.5256 65.4605C74.7773 65.1707 75.0145 64.8649 75.2204 64.5521C75.4188 64.2699 75.5949 63.9794 75.7475 63.6819C76.2363 62.7582 76.5414 61.7888 76.5719 60.9109C76.5796 60.8499 76.5795 60.7889 76.5795 60.7279V25.4724L76.6253 25.419L77.4956 24.3276C77.4796 24.3095 77.4644 24.3019 77.4415 24.2943Z" fill="#6634FA"/>
<path d="M19.9688 89.6684L17.5335 98.9368C17.5183 98.9445 17.2666 99.2572 17.2666 99.2572L16.4268 100.322C16.3963 100.306 16.3554 100.3 16.3117 100.28L14.5254 99.2267C13.9145 98.8675 13.5484 98.1505 13.5484 97.1422V61.7183L15.4491 62.8402L19.9688 89.6684Z" fill="#6634FA"/>
<path d="M114.3 87.4773V89.7677C114.3 90.1262 114.178 90.4854 113.941 90.821C113.705 91.1567 113.353 91.4701 112.881 91.7447L84.7861 107.968L56.691 124.183C55.7445 124.733 54.5074 125 53.271 125C52.0339 125 50.7975 124.733 49.851 124.183L34.4825 115.32L19.1146 106.457C18.6105 106.167 18.2444 105.83 18.0079 105.464C17.7791 105.105 17.6799 104.724 17.7104 104.342V102.204L114.3 87.4773Z" fill="#6634FA"/>
<path d="M49.8502 114.404V124.183L34.4817 115.32L19.1139 106.456C18.6097 106.167 18.2436 105.83 18.0071 105.464C17.7783 105.105 17.6791 104.724 17.7096 104.341V102.204L49.8502 114.404Z" fill="#6634FA"/>
<path d="M112.882 89.4505L56.6903 121.893C54.8021 122.983 51.7413 122.983 49.8537 121.893L19.1166 104.166C17.2284 103.076 17.2284 101.309 19.1166 100.219L75.3082 67.7765C77.1958 66.6865 80.2572 66.6865 82.1448 67.7765L112.882 85.5035C113.826 86.0485 114.298 86.7627 114.298 87.4769C114.298 88.1912 113.826 88.9054 112.882 89.4505Z" fill="#3F13C2"/>
<path d="M103.437 82.6523L44.9102 116.445C44.9102 116.445 39.4404 113.289 35.5954 111.069C31.7461 108.854 27.9017 106.635 25.0157 104.969C24.4574 104.649 23.9395 104.348 23.4624 104.073L81.9887 70.2856C82.8264 70.7676 84.1675 71.5414 85.8241 72.4963C88.7102 74.1619 99.5873 80.4333 103.437 82.6523Z" fill="#6634FA"/>
<path d="M65.1439 106L85.4005 94.3057L93.0483 98.7665L72.7925 110.462L65.1439 106Z" fill="#6634FA"/>
<path d="M21.278 100.271L75.3026 69.0823L78.6186 71.0343L24.5954 102.224L21.278 100.271Z" fill="#6634FA"/>
<path d="M77.4946 24.3249C77.4793 24.3096 77.4641 24.302 77.4412 24.2944C76.693 23.8818 75.5939 23.9816 74.3797 24.6834L19.5493 56.3434C17.2818 57.6492 15.4498 60.5421 15.4498 62.8097V98.2336C15.4498 99.1802 15.7701 99.8674 16.3124 100.249C16.3353 100.272 16.3658 100.288 16.3963 100.303C17.1445 100.776 18.2817 100.693 19.5493 99.9596L65.6459 73.3533C65.6459 73.3457 67.9134 72.0399 67.9134 72.0399L74.3797 68.3065C74.4941 68.2379 74.6085 68.1692 74.7229 68.0929C74.8373 68.0243 74.9441 67.948 75.0509 67.8565C75.3255 67.6582 75.6008 67.4293 75.8525 67.1769C76.2956 66.7567 76.6999 66.2761 77.0591 65.7644C77.9293 64.5121 78.4793 63.085 78.4793 61.8403V26.4163C78.4793 25.4011 78.1055 24.6834 77.4946 24.3249Z" fill="#2A0B88"/>
<path d="M76.6243 25.4161C76.548 25.4009 76.4794 25.4009 76.426 25.4009C76.0522 25.4009 75.5633 25.5611 75.0592 25.8516L20.2212 57.5116C18.3968 58.565 16.8012 61.0384 16.8012 62.8101V98.2341C16.8012 98.9594 17.0453 99.1654 17.2672 99.2264C17.3511 99.2493 17.435 99.2493 17.5036 99.2493C17.8774 99.2493 18.3663 99.0891 18.8704 98.7909L62.3638 73.6811L62.7529 73.4522L64.5391 72.4294L65.9669 71.6049C65.9669 71.5973 68.0285 70.4143 68.0285 70.4143L73.7084 67.1316C73.9906 66.9714 74.2659 66.7731 74.5329 66.5436C74.7236 66.391 74.9066 66.2149 75.0904 66.0242C75.3497 65.7572 75.5945 65.4667 75.8234 65.1616C76.2658 64.5583 76.6249 63.894 76.8538 63.2533C77.0292 62.7568 77.1284 62.2762 77.1284 61.8407V26.4168C77.1277 25.6457 76.8531 25.4619 76.6243 25.4161Z" fill="#E6EFFF"/>
<path d="M76.7547 61.2345C76.6133 61.4439 76.2291 61.4605 76.2291 61.4605C76.2291 61.4605 76.5003 61.2289 76.4496 60.9633C76.3935 60.6922 76.1612 60.1666 76.2062 60.0307C76.2118 60.0078 76.2229 59.9856 76.2458 59.9683C76.4441 60.3136 76.8622 61.0708 76.7547 61.2345Z" fill="url(#paint0_linear_229_26718)"/>
<path d="M81.3262 16.8555L80.3966 17.6121L70.4245 10.5213L69.4949 11.2779L78.2999 3.57145L79.2698 3L81.3262 16.8555Z" fill="#9E3337"/>
<path d="M81.3262 16.8555L80.3966 17.6121L70.4245 10.5213L69.4949 11.2779L78.2999 3.57145L79.2698 3L81.3262 16.8555Z" fill="#038F5E"/>
<path d="M77.9499 15.117L72.2274 11.793L73.0443 12.2558L78.7668 15.5838L77.9499 15.117Z" fill="black"/>
<path d="M67.8891 51.6815L62.1666 48.3574L72.2273 11.793L77.9498 15.117L67.8891 51.6815Z" fill="#04C984"/>
<path d="M42.5283 79.2795L36.8058 75.9555L48.0255 56.5183L53.748 59.8423L42.5283 79.2795Z" fill="#6634FA"/>
<path d="M53.748 59.8424L48.0255 56.5184L62.1667 48.3572L67.8892 51.6812L53.748 59.8424Z" fill="#FFED0E"/>
<path d="M20.8616 91.7873L15.1432 88.4632L36.8058 75.9558L42.5283 79.2799L20.8616 91.7873Z" fill="#EE522E"/>
<path d="M20.8657 93.1112L15.1432 89.7871V88.4631L20.8616 91.7872L20.8657 93.1112Z" fill="#7A1E22"/>
<path d="M77.9499 15.1169L78.7668 15.5838L68.7866 52.4903L54.2309 60.8929L43.0112 80.3301L20.8657 93.1112L20.8617 91.7872L42.5283 79.2798L53.748 59.8426L67.8892 51.6814L77.9499 15.1169Z" fill="#3F13C2"/>
<path d="M80.3966 17.6119L69.4949 11.2778L78.2999 3.57129L80.3966 17.6119Z" fill="#04C984"/>
<path d="M83.8218 80.9919L84.3369 62.3487L83.8218 62.0483C82.6082 63.1883 81.7315 65.2982 80.472 66.5311C78.2825 68.6743 77.3807 65.4306 76.1347 64.5786C75.0396 63.8299 73.4735 64.3552 72.0682 65.8571C70.4864 67.5478 69.3767 69.9608 68.2718 72.2053C66.9835 74.822 65.1302 78.1317 63.049 78.4375C61.6776 78.6391 60.6908 77.2768 59.1659 78.147C57.3679 79.1728 56.4285 82.4081 54.4869 82.812C53.4476 83.0282 52.6919 82.3946 51.9442 81.85C49.5813 80.129 46.7827 82.6844 45.3201 85.4706C44.6144 86.8154 44.0264 88.2178 43.3199 89.5543C42.7742 90.5863 42.1446 91.443 41.4581 92.175V105.451L83.8218 80.9919Z" fill="#038F5E"/>
<path d="M76.4331 64.7511L75.9803 64.4839C75.9803 64.4839 75.8232 64.5236 75.8349 64.5626C75.8469 64.6013 76.2472 65.0234 76.2472 65.0234L76.4331 64.7511Z" fill="#6262C4"/>
<path d="M52.0054 81.8747L51.6372 81.6523L51.5534 81.6972L51.8213 82.0304L52.0054 81.8747Z" fill="#6262C4"/>
<path d="M84.3364 81.2925V62.3494C83.1229 63.4893 82.2461 65.5993 80.9866 66.8322C78.7972 68.9753 77.8953 65.7316 76.6493 64.8797C75.5542 64.1309 73.9878 64.6562 72.5828 66.1581C71.001 67.8489 69.8914 70.2618 68.7861 72.5059C67.4978 75.1226 65.6448 78.4323 63.5633 78.7382C62.1918 78.9398 61.205 77.5775 59.6801 78.4476C57.8822 79.4734 56.9428 82.7088 55.0012 83.1127C53.9619 83.3289 53.2062 82.6953 52.4585 82.1507C50.0955 80.4296 47.2969 82.9851 45.8344 85.7713C45.1286 87.1161 44.5406 88.5185 43.8341 89.8549C43.2884 90.887 42.6588 91.7436 41.9724 92.4756V105.752L84.3364 81.2925Z" fill="#04C984"/>
<path d="M41.972 92.4759L41.4569 92.1755V105.451L41.972 105.752V92.4759Z" fill="#038F5E"/>
<path d="M89.3069 84.1528L89.822 70.1536L89.3069 69.8459C88.2683 70.5914 87.3694 71.9388 86.4453 73.164C85.7738 74.0542 85.0363 74.9645 84.2434 75.3476C83.1757 75.8638 82.3507 75.2919 81.6526 74.7163C80.6355 73.8778 79.4358 72.6168 77.7841 73.7466C76.2756 74.7786 75.7047 77.1445 74.5112 78.7244C72.3483 81.5872 70.8205 78.5181 69.4353 77.8437C68.2228 77.2535 66.6505 78.0292 65.2117 79.5129C63.5027 81.2751 62.2042 83.7628 60.8893 86.0889C59.4468 88.6407 57.5993 91.6555 55.536 92.5519C53.6965 93.3514 52.4176 92.0401 50.8731 91.8068C49.4754 91.5957 48.2269 92.545 46.9422 94.1074V108.611L89.3069 84.1528Z" fill="#B82C0C"/>
<path d="M80.847 73.9973L80.3056 73.6743L80.0873 73.7436L80.6323 74.2809L80.847 73.9973Z" fill="#B82C0C"/>
<path d="M70.0725 78.2167L69.4928 77.8733L69.3846 77.948L69.635 78.3355L70.0725 78.2167Z" fill="#B82C0C"/>
<path d="M89.8216 84.4602V70.1533C88.783 70.8988 87.8841 72.2462 86.96 73.4714C86.2885 74.3616 85.551 75.2722 84.7581 75.655C83.6904 76.1712 82.8654 75.5992 82.1673 75.0236C81.1502 74.1852 79.9505 72.9239 78.2988 74.0539C76.7903 75.086 76.2194 77.4519 75.0259 79.0318C72.863 81.8945 71.3352 78.8255 69.95 78.151C68.7375 77.5609 67.1652 78.3366 65.7264 79.8203C64.0174 81.5825 62.7189 84.0701 61.404 86.3963C59.9615 88.9481 58.114 91.9629 56.0507 92.8593C54.2112 93.6587 52.9323 92.3475 51.3878 92.1142C49.9901 91.9031 48.7415 92.8524 47.4569 94.4148V108.919L89.8216 84.4602Z" fill="#EE522E"/>
<path d="M47.4572 94.4151L46.9425 94.1074V108.612L47.4572 108.919V94.4151Z" fill="#B82C0C"/>
<path d="M95.121 76.0013C93.668 76.3494 92.7395 75.2996 91.3327 75.2908C90.0149 75.2828 88.6533 76.617 87.5134 78.3056C86.1492 80.3266 85.1635 82.7257 83.7834 84.7263C83.0754 85.7525 82.269 86.6533 81.4091 87.0743C80.3636 87.5861 79.4602 86.7535 78.6706 86.3554C77.1344 85.5808 75.8053 87.2023 74.5185 89.1978C74.1627 89.7493 73.8568 90.3614 73.4183 90.7817C72.8755 91.3023 72.3082 91.3996 71.8336 91.3198C70.9901 91.178 70.4633 90.3596 69.8432 89.7712C68.9235 88.8989 67.7259 88.7312 66.3068 89.5529C64.8234 90.4117 63.6587 92.046 62.6883 94.0364C61.252 96.9826 59.699 100.505 57.351 100.278C56.5993 100.205 55.899 100.237 55.0759 100.372C54.041 100.542 53.2984 100.948 52.7563 101.492V111.973L95.1207 87.5143L95.6507 76.3294L95.121 76.0013Z" fill="#FFB240"/>
<path d="M69.763 89.6265L69.2286 89.3174L68.9238 89.4388L69.7389 90.1828L69.763 89.6265Z" fill="#FFB240"/>
<path d="M95.6792 76.3228C94.2261 76.6713 93.2976 75.6211 91.8908 75.6123C90.573 75.6043 89.2114 76.9385 88.0719 78.6271C86.7078 80.6481 85.722 83.0472 84.3419 85.0478C83.6339 86.074 82.8276 86.9748 81.9676 87.3959C80.9221 87.9077 80.0188 87.0754 79.2291 86.677C77.6933 85.9023 76.3638 87.5238 75.077 89.5193C74.7212 90.0709 74.4153 90.6829 73.9768 91.1033C73.434 91.6238 72.8668 91.7212 72.3921 91.6413C71.5486 91.4995 71.0218 90.6808 70.4017 90.0928C69.482 89.2204 68.2844 89.0527 66.8653 89.8744C65.382 90.7333 64.2172 92.3675 63.2468 94.3579C61.8105 97.3042 60.2576 100.826 57.9095 100.599C57.1578 100.526 56.4576 100.558 55.6344 100.694C54.5995 100.864 53.8569 101.269 53.3148 101.814V112.295L95.6792 87.8359V76.3228Z" fill="#FFED0E"/>
<path d="M53.3148 101.814L52.7571 101.492V111.973L53.3148 112.295V101.814Z" fill="#F2982C"/>
<defs>
<linearGradient id="paint0_linear_229_26718" x1="76.2008" y1="60.7145" x2="76.7722" y2="60.7145" gradientUnits="userSpaceOnUse">
<stop offset="0.0054" stop-color="#EBEAF0"/>
<stop offset="0.9892" stop-color="#E5E4EC"/>
</linearGradient>
</defs>
</svg>
