<svg width="128" height="128" viewBox="0 0 128 128" fill="none" xmlns="http://www.w3.org/2000/svg">
<path d="M10.2852 107.951L51.1096 6.35567C52.0461 4.02514 54.8572 3.34336 56.748 4.67276V4.67127L75.5356 15.5723L71.0855 23.4878L98.4273 59.9579C99.779 61.7612 99.2509 64.3397 97.2992 65.4664L40.9334 98.0092L47.3554 101.221L30.3933 123.322L12.0498 112.696C11.9525 112.645 11.8567 112.59 11.7646 112.531C10.3528 111.628 9.53359 109.819 10.2844 107.951H10.2852Z" fill="#F1522D"/>
<path d="M115.997 76.3014L34.3473 123.442C31.2556 125.227 27.6506 122.099 28.9815 118.786L69.8074 17.1915C70.8999 14.4732 74.5435 13.995 76.3006 16.3389L117.125 70.7937C118.477 72.5962 117.949 75.1755 115.998 76.3022L115.997 76.3014Z" fill="#FFED0E"/>
<path d="M42.5175 111.966L102.074 77.5814C103.563 76.7222 104.889 75.0623 105.62 73.1424C106.352 71.2226 106.329 69.4632 105.559 68.4361L75.7815 28.716C75.0373 27.7238 73.7346 27.6272 72.2961 28.4576C70.8575 29.2879 69.5548 30.8891 68.8107 32.7399L39.0321 106.845C38.262 108.761 38.239 110.547 38.9712 111.621C39.7028 112.697 41.0285 112.825 42.5175 111.965V111.966ZM103.617 70.9114C103.958 71.366 103.968 72.1458 103.645 72.9954C103.321 73.8458 102.733 74.5803 102.074 74.9613L42.5175 109.346C41.858 109.727 41.2713 109.67 40.9468 109.194C40.623 108.718 40.6326 107.927 40.9742 107.079L70.7528 32.9738C71.087 32.142 71.6499 31.4506 72.2961 31.077C72.9422 30.7034 73.5052 30.7458 73.8394 31.1914L103.617 70.9114Z" fill="#2A0B88"/>
<path d="M77.4236 49.3745L67.1694 55.2952L68.8783 73.2539L75.7146 69.3073L77.4236 49.3753V49.3745ZM75.904 79.8534C76.8413 78.2893 77.3092 76.7765 77.3092 75.3141C77.3092 73.8518 76.8413 72.8588 75.904 72.4199C74.9675 71.9817 73.7644 72.186 72.2961 73.0341C70.8278 73.8815 69.6254 75.0661 68.6881 76.5863C67.7516 78.1066 67.283 79.612 67.283 81.1033C67.283 82.5946 67.7516 83.5371 68.6881 84.0198C69.6254 84.5026 70.8278 84.3191 72.2961 83.4717C73.7651 82.6236 74.9675 81.4182 75.904 79.8534Z" fill="#2A0B88"/>
</svg>
