<svg width="128" height="128" viewBox="0 0 128 128" fill="none" xmlns="http://www.w3.org/2000/svg">
<mask id="mask0_229_24401" style="mask-type:luminance" maskUnits="userSpaceOnUse" x="47" y="79" width="22" height="18">
<path d="M68.7008 82.8002L63.0461 79.5144C58.5498 85.1527 53.3066 89.9278 47.7026 93.1629L53.3573 96.4487C58.9613 93.2136 64.2045 88.4385 68.7008 82.8002Z" fill="white"/>
</mask>
<g mask="url(#mask0_229_24401)">
<path d="M68.7008 82.8002L63.0461 79.5144C58.5498 85.1527 53.3066 89.9278 47.7026 93.1629L53.3573 96.4487C58.9613 93.2136 64.2045 88.4385 68.7008 82.8002Z" fill="#C63B1B"/>
</g>
<mask id="mask1_229_24401" style="mask-type:luminance" maskUnits="userSpaceOnUse" x="70" y="40" width="14" height="31">
<path d="M83.6628 43.9584L78.008 40.6726C78.0319 49.2836 75.3052 58.7727 70.8253 67.4612L76.5172 70.7067C80.9971 62.0167 83.6866 52.5694 83.6628 43.9584Z" fill="white"/>
</mask>
<g mask="url(#mask1_229_24401)">
<path d="M83.6628 43.9584L78.008 40.6726C78.0319 49.2836 75.3097 58.7995 70.8283 67.488L76.5158 70.7067C80.9972 62.0167 83.6866 52.5694 83.6628 43.9584Z" fill="#C63B1B"/>
</g>
<mask id="mask2_229_24401" style="mask-type:luminance" maskUnits="userSpaceOnUse" x="69" y="21" width="15" height="23">
<path d="M74.7938 24.4584L69.1392 21.1726C74.5956 24.3436 77.9797 31.0866 78.0066 40.6711L83.6612 43.9569C83.6358 34.3739 80.2517 27.6294 74.7938 24.4584Z" fill="white"/>
</mask>
<g mask="url(#mask2_229_24401)">
<path d="M74.7938 24.4584L69.1392 21.1726C74.5956 24.3436 77.9797 31.0866 78.0066 40.6711L83.6612 43.9569C83.6358 34.3739 80.2517 27.6294 74.7938 24.4584Z" fill="#C63B1B"/>
</g>
<mask id="mask3_229_24401" style="mask-type:luminance" maskUnits="userSpaceOnUse" x="26" y="93" width="28" height="8">
<path d="M26.0708 95.2813L31.7255 98.5671C37.2535 101.78 44.9088 101.327 53.3573 96.4486L47.7026 93.1628C39.2541 98.0408 31.5987 98.4926 26.0708 95.2813Z" fill="white"/>
</mask>
<g mask="url(#mask3_229_24401)">
<path d="M53.3573 96.4486L47.7026 93.1628C39.2541 98.0408 31.5987 98.494 26.0708 95.2813L31.7255 98.5671C37.2535 101.78 44.9088 101.327 53.3573 96.4486Z" fill="#C63B1B"/>
</g>
<mask id="mask4_229_24401" style="mask-type:luminance" maskUnits="userSpaceOnUse" x="47" y="6" width="36" height="9">
<path d="M82.0198 12.0264L76.3652 8.74059C68.9811 4.45001 58.7571 5.05381 47.4716 11.5702L53.1262 14.8559C64.4117 8.33955 74.6373 7.73579 82.0198 12.0264Z" fill="white"/>
</mask>
<g mask="url(#mask4_229_24401)">
<path d="M82.0198 12.0264L76.3652 8.74059C68.9811 4.45001 58.7571 5.05381 47.4716 11.5702L53.1262 14.8559C64.4117 8.33955 74.6373 7.73579 82.0198 12.0264Z" fill="#C63B1B"/>
</g>
<mask id="mask5_229_24401" style="mask-type:luminance" maskUnits="userSpaceOnUse" x="7" y="11" width="47" height="101">
<path d="M18.8448 107.715L24.4994 111.001C17.2108 106.765 12.6907 97.7562 12.6549 84.9545C12.5819 59.1886 30.6998 27.8038 53.1262 14.8561L47.4716 11.5703C25.0452 24.5181 6.92716 55.9028 7.00021 81.6687C7.03599 94.4704 11.5562 103.479 18.8448 107.715Z" fill="white"/>
</mask>
<g mask="url(#mask5_229_24401)">
<path d="M53.1262 14.8561L47.4716 11.5703C25.0452 24.5181 6.92716 55.9028 7.00021 81.6687C7.03599 94.4719 11.5562 103.479 18.8448 107.715L24.4994 111.001C17.2108 106.765 12.6907 97.7562 12.6549 84.9545C12.5819 59.1871 30.6998 27.8038 53.1262 14.8561Z" fill="#C63B1B"/>
</g>
<path d="M53.1247 14.8545C75.5496 1.90971 93.7928 12.3007 93.8643 38.0666C93.9106 54.1123 86.8993 72.3376 76.1818 86.9327C75.8612 87.374 75.5377 87.8078 75.2052 88.2417C75.1039 88.3758 74.9995 88.5115 74.8981 88.6457C74.4986 89.1719 74.0901 89.6937 73.6742 90.2065C67.7154 97.6264 60.789 103.9 53.39 108.171C30.9651 121.12 12.7309 110.722 12.6549 84.9544C12.5833 59.1885 30.6983 27.8023 53.1247 14.8545ZM76.5186 70.7066C80.9956 62.0166 83.6895 52.5693 83.6642 43.9598C83.609 24.6656 69.95 16.8835 53.1589 26.5798C45.6646 30.9062 38.8173 37.9846 33.5323 46.2065L52.6879 57.0925L53.1932 57.8244L53.9089 58.868L54.5946 59.84L54.6036 59.8534L55.8499 60.001L58.1637 60.2709L76.5186 70.7066ZM53.3557 96.4471C58.9269 93.2314 64.1464 88.4936 68.6188 82.8971C68.6486 82.8628 68.6739 82.8345 68.6993 82.8002L68.4548 82.6615L56.3344 75.756L55.2744 75.1507L26.9653 59.0171C24.3355 65.7243 22.8372 72.6313 22.8536 79.0657C22.9102 98.3584 36.5646 106.143 53.3557 96.4471Z" fill="#F1522D"/>
<path d="M81.8622 74.8452C82.6369 74.8091 81.8869 76.7607 81.7999 77.4862C81.708 78.2412 81.1991 78.9438 80.4933 79.295C79.8335 79.6233 79.0669 79.6413 78.33 79.6545C76.2667 79.6889 74.2511 79.8399 72.2043 79.5297C71.3508 79.3967 70.4349 79.1407 69.9572 78.4546C69.6339 77.9917 69.2105 77.7833 69.4288 77.2581C69.9557 75.9811 71.3622 75.8284 71.5395 75.812C77.1399 75.2966 81.9869 74.8403 81.8622 74.8452Z" fill="#05EF9D"/>
<path d="M77.0135 113.309C76.8264 113.073 76.3947 113.03 76.1206 112.988C75.6971 112.924 75.2687 112.901 74.8419 112.881C73.6257 112.825 72.3881 112.842 71.1652 112.807C70.837 112.797 70.5021 112.789 70.187 112.881C69.2317 113.16 68.9854 114.539 69.4319 115.333C69.6338 115.693 70.013 115.921 70.4053 116.047C70.9945 116.236 71.7447 116.29 72.3487 116.162C72.997 116.026 73.6322 116.006 74.2724 116.208C75.0996 116.471 75.7529 116.828 76.6245 116.572C77.4993 116.316 78.0131 115.535 77.7177 114.642C77.611 114.322 77.4386 114.03 77.2679 113.739C77.1596 113.559 77.0923 113.411 77.0135 113.309Z" fill="#15151A"/>
<path d="M91.9796 116.173C91.0933 116.287 90.2545 116.74 89.6669 117.411C89.0957 118.063 88.6262 118.763 87.9533 119.326C87.5314 119.679 87.0866 120.014 86.7354 120.438C86.3841 120.861 86.1264 121.393 86.1576 121.943C86.1757 122.261 86.3021 122.586 86.5532 122.781C86.8388 123.003 87.2312 123.024 87.5906 122.982C88.5689 122.864 89.4552 122.345 90.2266 121.733C90.9997 121.122 91.6875 120.41 92.4721 119.812C92.8004 119.563 93.1483 119.33 93.4257 119.024C93.9165 118.483 93.964 117.933 93.5783 117.324C93.406 117.051 93.1828 116.815 92.9661 116.579C92.71 116.301 92.6296 116.131 92.2357 116.152C92.1487 116.155 92.065 116.163 91.9796 116.173Z" fill="#15151A"/>
<path d="M80.4408 92.2029C80.3439 92.0979 80.2504 92.0043 80.1618 91.9255C79.2459 91.1065 77.3451 90.2152 76.3619 91.2624C75.3394 92.3507 71.9351 96.8218 71.1669 97.8936C70.3101 99.0869 69.542 100.343 68.869 101.649C68.7229 101.931 68.5801 102.229 68.5785 102.544C68.5736 103.197 69.1513 103.683 69.6897 104.046C70.1559 104.361 70.7156 104.674 71.254 104.502C71.684 104.364 72.1058 103.952 72.5079 103.724C73.112 103.381 73.693 102.988 74.2691 102.603C75.4493 101.813 76.5917 100.971 77.6947 100.077C78.5859 99.3544 79.4559 98.5929 80.1699 97.695C80.8281 96.8661 81.3714 95.896 81.5831 94.8488C81.7735 93.9018 81.0563 92.8743 80.4408 92.2029Z" fill="#3F13C2"/>
<path d="M68.6654 102.964C68.6014 102.053 69.5074 101.093 69.9998 100.528C70.3314 100.147 70.7401 99.8043 71.2358 99.7272C72.2222 99.5729 72.5357 100.586 72.9756 101.286C73.3794 101.933 73.7454 102.603 74.0786 103.291C75.4131 106.038 76.2191 109.006 76.9347 111.959C77.0578 112.463 77.1776 112.978 77.1513 113.492C77.1004 114.442 76.3618 115.194 75.4837 115.378C75.0126 115.476 74.5021 115.389 74.0688 115.148C73.5764 114.874 73.3663 114.24 73.1512 113.731C72.2485 111.591 71.5049 109.388 70.6202 107.24C70.3461 106.577 70.0605 105.918 69.752 105.27C69.4778 104.692 68.6752 103.094 68.6654 102.964Z" fill="#3F13C2"/>
<path d="M79.9402 90.86C79.6595 90.8239 79.3787 90.8058 79.0964 90.819C78.3365 90.8551 77.588 91.1292 76.9856 91.5937C76.6311 91.8662 76.3126 92.2273 76.2289 92.6672C76.1501 93.0808 76.2881 93.5026 76.4358 93.8966C76.7723 94.7928 77.1711 95.666 77.6291 96.5064C77.9245 97.0497 78.2561 97.6077 78.3595 98.2265C78.4613 98.8306 78.4579 99.4625 78.5449 100.078C78.7353 101.409 78.9767 102.731 79.2442 104.049C79.474 105.179 79.625 106.322 79.9122 107.441C80.037 107.927 80.1896 108.426 80.531 108.794C80.9069 109.196 81.4748 109.383 82.0247 109.368C82.5745 109.353 83.1064 109.153 83.5824 108.877C84.8528 108.142 84.8544 106.566 84.8035 105.239C84.7559 104.021 84.8266 103.033 85.2238 101.885C85.644 100.671 85.9886 99.3049 86.1183 98.0263C86.2726 96.5129 85.9247 95.19 85.3765 93.7964C85.0531 92.9725 84.7002 91.2966 83.6415 91.1883C83.3362 91.1571 83.0308 91.2129 82.7255 91.2293C81.7883 91.2802 80.8692 90.9765 79.9402 90.86Z" fill="#6634FA"/>
<path d="M86.1741 84.9364C86.4466 84.4965 86.7551 84.078 87.0982 83.6906C87.6431 83.0751 88.2882 82.499 88.5426 81.7177C88.8463 80.7854 88.5164 79.7562 88.0026 78.9224C86.5484 76.5604 84.2389 75.1899 81.4731 75.0881C80.0041 75.034 78.8371 75.2359 77.9212 76.5178C77.3549 77.3089 77.0497 78.2528 76.7854 79.19C75.6053 83.3919 75.1932 85.9164 75.2655 90.2644C75.2769 90.9045 75.3081 91.5479 75.3048 92.1881C75.3032 92.3883 75.2868 92.5098 75.4509 92.6461C75.6593 92.8168 75.9286 92.9431 76.1699 93.0613C77.1761 93.5505 78.2889 93.7688 79.3887 93.9313C81.2155 94.2004 83.126 94.3235 84.8708 93.7179C85.4453 93.5193 84.9579 92.2143 84.8988 91.7203C84.7954 90.8586 84.7378 89.9903 84.8035 89.1236C84.9151 87.6431 85.3944 86.1954 86.1741 84.9364Z" fill="#05EF9D"/>
<path d="M81.5323 109.828C82.2807 110.59 83.0226 111.356 83.7596 112.129C84.3423 112.741 84.9201 113.357 85.4913 113.979C85.9312 114.458 86.3678 114.941 86.7994 115.427C87.3542 116.051 87.9107 116.679 88.4721 117.288C88.674 117.508 88.8446 117.887 89.0892 118.055C89.3453 118.232 89.8476 118.166 90.1397 118.133C90.921 118.046 91.676 117.7 92.2308 117.14C92.5312 116.838 92.6625 116.548 92.5131 116.154C92.3654 115.77 92.2062 115.427 91.9879 115.075C91.42 114.161 90.7601 113.308 90.0855 112.469C88.953 111.059 87.7762 109.684 86.5566 108.346C85.3929 107.07 84.3916 105.705 83.3017 104.367C83.1819 104.221 82.9652 104.145 82.7846 104.165C82.5516 104.19 80.4293 108.668 80.4293 108.668C80.4293 108.668 80.6082 108.887 81.5323 109.828Z" fill="#6634FA"/>
<path d="M85.7588 82.131C85.1039 81.6533 84.5458 81.1051 84.5064 80.2713C84.4703 79.4998 84.6427 78.7678 85.1991 78.1982C85.7769 77.604 84.426 75.6557 85.2352 75.8149C85.9902 75.9642 88.8627 78.1243 89.47 78.597C91.1721 79.9216 92.9136 81.1149 94.3712 82.7284C94.9769 83.4047 93.6982 83.3308 93.6292 84.2385C93.5833 84.8524 92.5 86.2377 92.3441 86.1343C87.4413 82.9057 85.6538 82.0538 85.7588 82.131Z" fill="#05EF9D"/>
<path d="M114.893 69.1606L62.0293 86.5921L62.0277 86.5971L114.893 69.1656V69.1606Z" fill="#47464E"/>
<path d="M114.893 68.7441L62.4315 86.0427C62.2411 86.1051 62.0934 86.2938 62.031 86.5909L114.895 69.1594L114.893 68.7441Z" fill="#47464E"/>
<path d="M114.893 71.4473L62.9108 88.5882C63.0405 88.6408 63.1668 88.6457 63.2785 88.6096L114.893 71.5901V71.4473Z" fill="#2A0B88"/>
<path d="M114.893 71.1621L62.6203 88.3983C62.6252 88.4032 62.6285 88.4065 62.6334 88.4098C62.7269 88.4918 62.8205 88.5509 62.9108 88.5871L114.893 71.4461V71.1621Z" fill="#2A0B88"/>
<path d="M114.893 70.6875L62.3182 88.0238C62.4052 88.1683 62.507 88.2963 62.6203 88.3997L114.893 71.1635V70.6875Z" fill="#2A0B88"/>
<path d="M114.893 70.0002L62.067 87.4186C62.1212 87.632 62.2082 87.8405 62.3182 88.0227L114.893 70.6863V70.0002Z" fill="#2A0B88"/>
<path d="M114.893 69.5554L62.0014 86.9968C62.008 87.1363 62.0309 87.2791 62.067 87.4203L114.893 70.0019V69.5554Z" fill="#2A0B88"/>
<path d="M114.893 69.1663L62.0293 86.5978C62.003 86.7225 61.9948 86.8588 62.0031 86.9966L114.895 69.5553L114.893 69.1663Z" fill="#2A0B88"/>
<path d="M97.1369 78.2413C96.8579 78.1264 96.5805 77.9753 96.4131 77.7144C96.2473 77.4534 96.3014 77.1514 96.344 76.8592C96.436 76.2059 96.6642 75.5707 97.0039 75.0061C97.1057 74.837 97.2157 74.6466 97.3536 74.5022C97.4849 74.3643 97.5357 74.4185 97.7064 74.4102C98.0249 74.3922 98.1545 74.0278 98.4582 73.9802C98.6141 73.9556 98.7684 74.041 98.9276 74.0377C99.1443 74.0327 99.3183 73.867 99.512 73.7685C99.7303 73.6569 99.9929 73.6323 100.229 73.6996C100.306 73.7209 100.384 73.7553 100.431 73.821C100.558 73.9966 100.272 74.5235 100.191 74.6959C100.024 75.057 99.8402 75.4854 99.8451 75.8891C99.8484 76.1255 99.8862 76.3635 99.8599 76.5982C99.8205 76.9741 99.622 77.3204 99.3675 77.6011C98.9572 78.0525 98.4992 78.4579 97.8656 78.3709C97.6112 78.3332 97.3831 78.3414 97.1369 78.2413Z" fill="#F9D5C3"/>
<path d="M97.8329 77.2793C98.1267 77.4368 98.3778 77.66 98.5107 77.9604C98.6601 78.3018 98.6322 78.699 98.5157 79.0519C98.3975 79.4065 98.1693 79.7019 98.0233 80.04C97.8657 80.4061 97.6589 80.7507 97.4635 81.1004C97.0532 81.8324 96.6445 82.5645 96.2276 83.2916C95.6268 84.3405 93.2928 86.4447 92.5854 86.2264C91.3428 85.844 91.1065 84.2994 91.5333 83.2687C91.7713 82.6925 92.1619 82.1952 92.546 81.7044C93.2222 80.841 93.9001 79.9777 94.5764 79.1143C94.9145 78.6826 95.2527 78.2509 95.5924 77.8192C95.8304 77.5156 96.1275 77.1726 96.5099 77.0527C96.7922 76.9641 97.1008 77.0084 97.3848 77.0921C97.5374 77.143 97.6901 77.2038 97.8329 77.2793Z" fill="#05EF9D"/>
<path d="M67.2769 86.2608C67.2916 86.4413 67.3229 86.617 67.3442 86.8008C67.3688 86.9978 67.3983 87.2636 67.633 87.3277C67.7397 87.3572 67.8513 87.3195 67.9613 87.3145C68.1665 87.3063 68.2273 87.4852 68.4423 87.39C68.6163 87.3129 68.7427 87.1569 68.8986 87.0502C69.135 86.8861 69.4337 87.1192 69.6684 86.9649C69.8014 86.8779 69.8276 86.6908 69.9392 86.5792C70.0344 86.484 70.1838 86.4495 70.2642 86.3412C70.384 86.1804 70.2889 85.8931 70.2757 85.7043C70.2544 85.3908 70.2314 85.1036 70.2922 84.7901C70.3037 84.7343 70.3118 84.6768 70.2971 84.6227C70.1887 84.2337 69.6372 84.4109 69.3697 84.4175C69.1694 84.4208 68.9101 84.3994 68.7148 84.3502C68.4686 84.2895 68.2814 83.9727 67.9975 84.1089C67.8678 84.1713 67.7808 84.2977 67.7086 84.4224C67.4361 84.8935 67.2884 85.4335 67.2704 85.9751C67.2654 86.0753 67.2703 86.1688 67.2769 86.2608Z" fill="#F9D5C3"/>
<path d="M68.4964 84.9595C68.2748 84.8824 68.073 84.7741 67.9203 84.6509C67.5855 84.3801 67.7233 84.1322 67.7611 83.7564C67.7922 83.4478 67.8251 83.1392 67.8645 82.8323C67.9417 82.2201 68.0385 81.6094 68.1616 81.0038C68.4012 79.8236 68.7426 78.6632 69.2301 77.5618C69.4058 77.1662 70.425 75.3082 72.1797 76.1075C72.9085 76.4391 72.6836 77.0694 72.7887 77.8818C72.8937 78.6976 72.5752 79.4034 72.288 80.1191C71.9614 80.9365 71.6085 81.7424 71.2294 82.5385C70.8715 83.2902 70.6286 84.1717 70.0361 84.7839C69.6733 85.1581 69.0266 85.145 68.4964 84.9595Z" fill="#05EF9D"/>
<path d="M105.882 84.8802L98.4222 61.1491C98.6011 61.7186 99.3627 62.111 100.727 62.2308C104.203 62.5344 110.279 60.9472 114.301 58.6837C116.743 57.3099 117.863 56.0017 117.585 55.1187L125.045 78.8498C125.323 79.7329 124.203 81.0411 121.761 82.4149C117.741 84.6784 111.665 86.2656 108.187 85.9619C106.823 85.8421 106.061 85.4498 105.882 84.8802Z" fill="#292930"/>
<mask id="mask6_229_24401" style="mask-type:luminance" maskUnits="userSpaceOnUse" x="98" y="55" width="28" height="31">
<path d="M105.882 84.8802L98.4222 61.1491C98.6011 61.7186 99.3627 62.111 100.727 62.2308C104.203 62.5344 110.279 60.9472 114.301 58.6837C116.743 57.3099 117.863 56.0017 117.585 55.1187L125.045 78.8498C125.323 79.7329 124.203 81.0411 121.761 82.4149C117.741 84.6784 111.665 86.2656 108.187 85.9619C106.823 85.8421 106.061 85.4498 105.882 84.8802Z" fill="white"/>
</mask>
<g mask="url(#mask6_229_24401)">
<path d="M105.882 84.8806L98.4222 61.1494C98.4763 61.3218 98.5846 61.4793 98.7471 61.6172L106.207 85.3484C106.045 85.2105 105.936 85.0546 105.882 84.8806Z" fill="#292930"/>
<path d="M106.207 85.3484L98.7471 61.6172C99.1197 61.9323 99.7763 62.1474 100.727 62.2311C100.838 62.241 100.952 62.2491 101.068 62.254L108.528 85.9852C108.412 85.9786 108.298 85.9721 108.187 85.9622C107.238 85.8785 106.58 85.6635 106.207 85.3484Z" fill="#2A0B88"/>
<path d="M108.528 85.9854L101.068 62.2543C102.926 62.3478 105.421 61.9605 107.937 61.2498L115.397 84.9809C112.881 85.6916 110.386 86.0806 108.528 85.9854Z" fill="#6634FA"/>
<path d="M115.397 84.9822L107.937 61.251C109.241 60.8833 110.55 60.4287 111.778 59.9116L119.238 83.6428C118.01 84.1598 116.701 84.6129 115.397 84.9822Z" fill="#3F13C2"/>
<path d="M119.238 83.641L111.778 59.9099C112.673 59.5323 113.524 59.1203 114.301 58.6837C116.743 57.3099 117.863 56.0017 117.585 55.1187L125.045 78.8498C125.323 79.7329 124.203 81.0411 121.761 82.4149C120.985 82.8515 120.133 83.2635 119.238 83.641Z" fill="#2A0B88"/>
</g>
<path d="M115.281 54.0372C118.757 54.3409 118.319 56.4222 114.301 58.684C110.281 60.9475 104.205 62.5347 100.727 62.231C97.2502 61.9274 97.6884 59.8461 101.708 57.5826C105.726 55.3208 111.803 53.7336 115.281 54.0372Z" fill="#BFB0FE"/>
<path d="M86.0247 77.2794C85.8195 77.6996 85.4552 78.0197 85.0317 78.2199C84.6952 78.3808 84.3374 78.4957 83.9714 78.558C83.259 78.6828 82.4006 78.5991 81.7998 78.1625C81.4601 77.9146 81.2105 77.5125 81.2335 77.0923C81.2499 76.8001 81.3895 76.5326 81.5257 76.2749C81.7998 75.7595 82.0755 75.2457 82.3447 74.7287C82.5811 74.2756 82.6402 73.7537 82.8962 73.3056C83.3164 72.5735 83.7908 71.9317 84.6164 71.6215C84.8889 71.5198 85.1794 71.4656 85.4716 71.4771C85.8918 71.4935 86.3186 71.5444 86.7158 71.6839C86.9915 71.7807 87.3805 71.9236 87.4938 72.2256C87.5578 72.3979 87.5019 72.5161 87.4149 72.6589C86.806 73.6421 86.3563 74.796 86.2594 75.9515C86.2315 76.2847 86.2299 76.6229 86.1462 76.9462C86.1167 77.0627 86.0756 77.1744 86.0247 77.2794Z" fill="#F4BDA2"/>
<path d="M83.2311 67.702C82.8881 67.9974 82.591 68.3454 82.3513 68.7279C82.1576 69.0381 82.0034 69.3713 81.8934 69.7193C81.7769 70.0902 81.8901 70.4579 81.813 70.8354C81.7637 71.0783 81.5536 71.2737 81.4289 71.4854C81.1203 72.009 80.9792 72.5638 80.8544 73.1498C80.751 73.6389 80.6492 74.1445 80.664 74.6516C80.6705 74.9077 80.6771 75.2376 80.792 75.4723C80.9167 75.7267 81.309 75.8646 81.5651 75.9089C82.1133 76.0058 82.6796 75.9959 83.2311 75.9237C83.4905 75.8909 83.7514 75.8449 84.0074 75.8072C84.2701 75.7678 84.5327 75.7136 84.7872 75.6315C84.9283 75.5856 85.0678 75.5314 85.2007 75.4658C85.5372 75.3016 85.8442 75.057 86.0494 74.7419C86.1199 74.6336 86.1627 74.4629 86.2956 74.4169C86.4581 74.3595 86.609 74.5105 86.765 74.4645C86.8323 74.4448 86.9341 74.3283 86.9899 74.2791C87.0621 74.215 87.2623 73.8605 87.3723 73.8884C87.4757 73.9147 87.653 73.8556 87.7597 73.8293C87.9632 73.7817 87.8942 74.2052 88.0173 74.0378C88.5426 73.3238 89.1368 72.6163 89.4175 71.7595C89.6735 70.9749 89.9378 70.32 89.6851 69.4763C89.4963 68.8444 89.0958 68.2863 88.6001 67.8497C87.8418 67.185 86.8471 66.7943 85.8393 66.7648C85.1597 66.7451 84.4999 66.8813 83.9107 67.2194C83.6694 67.3573 83.4429 67.5198 83.2311 67.702Z" fill="#F9D5C3"/>
<path d="M85.0333 69.0675C85.053 69.2661 84.966 69.5336 84.9381 69.66C84.8478 70.0655 84.843 70.4775 84.8594 70.896C84.8906 71.6478 85.0498 72.3962 85.3337 73.0938C85.3978 73.2514 85.4716 73.4122 85.5947 73.5304C85.8508 73.7783 86.2676 73.5715 86.504 73.8292C86.5893 73.9211 86.6205 74.0541 86.614 74.1788C86.6074 74.3035 86.5696 74.425 86.5302 74.5448C86.4465 74.8042 86.3595 75.0635 86.2725 75.3212C86.2791 75.2998 86.4219 75.2588 86.4466 75.249C86.5155 75.2195 86.5828 75.1883 86.6484 75.1571C86.7765 75.0947 86.9045 75.029 87.0292 74.9601C87.1408 74.8977 87.2459 74.8189 87.3657 74.7779C87.4363 74.7533 87.4954 74.7237 87.5594 74.686C87.8319 74.5218 88.0863 74.3265 88.321 74.1148C89.0104 73.4911 89.5439 72.7032 89.8902 71.8414C90.7667 69.665 89.3945 68.6851 89.3945 68.6851C89.3945 68.6851 89.1466 67.2965 87.3444 66.7203C85.6357 66.1738 83.1687 66.6629 82.0493 68.1697C81.6701 68.6801 81.4157 69.3104 80.8905 69.6682C81.3336 69.8652 81.8556 69.688 82.2676 69.4303C82.6779 69.1709 83.0407 68.8295 83.4921 68.6489C84.0485 68.4274 84.4309 68.58 84.9184 68.8541C84.9922 68.8935 85.0234 68.9723 85.0333 69.0675Z" fill="#2A0B88"/>
<path d="M87.6366 72.6849C88.2636 72.872 88.1356 73.6894 87.4971 74.1194C87.31 74.2458 87.0376 74.3164 86.8258 74.3935C85.3814 74.9188 85.4832 73.8059 85.9493 73.6172C87.0343 73.1789 86.8471 72.4502 87.6366 72.6849Z" fill="#F9D5C3"/>
<path d="M86.7256 73.9964C86.8192 73.9586 87.6711 73.8059 87.3002 73.348C87.1968 73.2216 87.008 73.2823 86.9357 73.4137C86.898 73.4826 86.893 73.5647 86.8553 73.6319C86.8323 73.673 86.7995 73.7058 86.7634 73.7337C86.6633 73.8109 86.4171 73.8289 86.4024 73.9931C86.3925 74.1391 86.6731 74.0177 86.7256 73.9964Z" fill="#F4BDA2"/>
<path d="M54.3754 48L56.3135 58.4357L68.152 48.8721L61.1124 60.915L69.3969 65.0207L59.1653 68.4108L62.5212 79.1269L54.3023 73.6719L45.3559 85.2273L48.3748 73.8658L33 78.1235L48.3748 67.6684L43.6221 61.1789L51.9647 61.0283L54.3754 48Z" fill="#FBBC04"/>
<path d="M54.6155 54.251L54.9345 62.5519L62.4139 55.2409L57.7253 63.263L63.0236 65.4083L57.3212 66.6993L59.9824 74.5947L54.1548 70.6336L48.4867 79.3609L51.2596 70.8498L41.3307 74.3815L49.9536 67.6207L46.7111 62.9991L53.0113 62.9305L54.6155 54.251Z" fill="#FFED0E"/>
</svg>
